<svg color-interpolation="auto" height="80" stroke="#000" stroke-linecap="square" stroke-miterlimit="10" width="80" xmlns="http://www.w3.org/2000/svg"><g fill="#3ed657" stroke="none"><path d="m0 0h20v20h-20z"/><g stroke-linecap="round"><path d="m20 0h20v20h-20z"/><path d="m40 0h20v20h-20z" fill="#1a63de"/><path d="m60 0h20v20h-20z" fill="#1a63de"/><path d="m0 20h20v20h-20z"/><path d="m20 20h20v20h-20z"/><path d="m40 20h20v20h-20z" fill="#1a63de"/><path d="m60 20h20v20h-20z" fill="#1a63de"/><path d="m0 40h20v20h-20z" fill="#f4ff10"/><path d="m20 40h20v20h-20z" fill="#f4ff10"/><path d="m40 40h20v20h-20z" fill="#fd4700"/><path d="m60 40h20v20h-20z" fill="#fd4700"/><path d="m0 60h20v20h-20z" fill="#f4ff10"/><path d="m20 60h20v20h-20z" fill="#f4ff10"/><g fill="#fd4700"><path d="m40 60h20v20h-20z"/><path d="m60 60h20v20h-20z"/></g></g></g></svg>