<svg color-interpolation="auto" height="40" stroke="#000" stroke-linecap="square" stroke-miterlimit="10" width="40" xmlns="http://www.w3.org/2000/svg"><g fill="none" stroke-linecap="round" stroke-width="2"><path d="m3.6 3.6h12.8v12.8h-12.8z"/><g><path d="m30 4.2099-6.4 11.0851h12.8z"/><path d="m3.6 23.6 12.8 12.8"/><path d="m3.6 36.4 12.8-12.8"/><g stroke-width="1.5"><path d="m30 30h6.4"/><path d="m30 30 3.2 5.5426"/><path d="m30 30-3.2 5.5426"/><path d="m30 30h-6.4"/><path d="m30 30-3.2-5.5426"/><path d="m30 30 3.2-5.5426"/></g><path d="m0 0v40" stroke="#b4b4b4" stroke-width="1"/><path d="m20 0v40" stroke="#b4b4b4" stroke-width="1"/><path d="m40 0v40" stroke="#b4b4b4" stroke-width="1"/><path d="m0 0h40" stroke="#b4b4b4" stroke-width="1"/><path d="m0 20h40" stroke="#b4b4b4" stroke-width="1"/><path d="m0 40h40" stroke="#b4b4b4" stroke-width="1"/></g></g></svg>