<svg color-interpolation="auto" height="80" stroke="#000" stroke-linecap="square" stroke-miterlimit="10" width="80" xmlns="http://www.w3.org/2000/svg"><g fill="none" stroke-linecap="round" stroke-width="2"><path d="m10 3.6 6.4 6.4-6.4 6.4-6.4-6.4z"/><g><path d="m30 3.6 6.4 6.4-6.4 6.4-6.4-6.4z"/><circle cx="50" cy="10" r="6.4"/><circle cx="70" cy="10" r="6.4"/><path d="m10 23.6 6.4 6.4-6.4 6.4-6.4-6.4z"/><path d="m30 23.6 6.4 6.4-6.4 6.4-6.4-6.4z"/><circle cx="50" cy="30" r="6.4"/><circle cx="70" cy="30" r="6.4"/><path d="m3.6 43.6h12.8v12.8h-12.8z"/><path d="m23.6 43.6h12.8v12.8h-12.8z"/><g stroke-width="1.5"><path d="m50 50h6.4"/><path d="m50 50 3.2 5.5426"/><path d="m50 50-3.2 5.5426"/><path d="m50 50h-6.4"/><path d="m50 50-3.2-5.5426"/><path d="m50 50 3.2-5.5426"/><path d="m70 50h6.4"/><path d="m70 50 3.2 5.5426"/><path d="m70 50-3.2 5.5426"/><path d="m70 50h-6.4"/><path d="m70 50-3.2-5.5426"/><path d="m70 50 3.2-5.5426"/></g><path d="m3.6 63.6h12.8v12.8h-12.8z"/><path d="m23.6 63.6h12.8v12.8h-12.8z"/><path d="m50 70h6.4" stroke-width="1.5"/><path d="m50 70 3.2 5.5426" stroke-width="1.5"/><path d="m50 70-3.2 5.5426" stroke-width="1.5"/><path d="m50 70h-6.4" stroke-width="1.5"/><path d="m50 70-3.2-5.5426" stroke-width="1.5"/><path d="m50 70 3.2-5.5426" stroke-width="1.5"/><path d="m70 70h6.4" stroke-width="1.5"/><path d="m70 70 3.2 5.5426" stroke-width="1.5"/><path d="m70 70-3.2 5.5426" stroke-width="1.5"/><path d="m70 70h-6.4" stroke-width="1.5"/><path d="m70 70-3.2-5.5426" stroke-width="1.5"/><path d="m70 70 3.2-5.5426" stroke-width="1.5"/><path d="m0 0v80" stroke="#b4b4b4" stroke-width="1"/><path d="m20 0v80" stroke="#b4b4b4" stroke-width="1"/><path d="m40 0v80" stroke="#b4b4b4" stroke-width="1"/><path d="m60 0v80" stroke="#b4b4b4" stroke-width="1"/><path d="m80 0v80" stroke="#b4b4b4" stroke-width="1"/><path d="m0 0h80" stroke="#b4b4b4" stroke-width="1"/><path d="m0 20h80" stroke="#b4b4b4" stroke-width="1"/><path d="m0 40h80" stroke="#b4b4b4" stroke-width="1"/><path d="m0 60h80" stroke="#b4b4b4" stroke-width="1"/><path d="m0 80h80" stroke="#b4b4b4" stroke-width="1"/></g></g></svg>