<svg color-interpolation="auto" height="40" stroke="#000" stroke-linecap="square" stroke-miterlimit="10" width="40" xmlns="http://www.w3.org/2000/svg"><g fill="none" stroke-linecap="round" stroke-width="2"><path d="m10 5.6574-4.8 8.3139h9.6z"/><g><path d="m25.2 5.2 9.6 9.6"/><path d="m25.2 14.8 9.6-9.6"/><path d="m6.4 30h7.2"/><path d="m10 26.4v7.2"/><g stroke-width="1.5"><path d="m30 30h4.8"/><path d="m30 30 2.4 4.1569"/><path d="m30 30-2.4 4.1569"/><path d="m30 30h-4.8"/><path d="m30 30-2.4-4.1569"/><path d="m30 30 2.4-4.1569"/></g><path d="m0 0v40" stroke="#1c30d0"/><path d="m20 0v40" stroke="#1c30d0" stroke-width="1"/><path d="m40 0v40" stroke="#1c30d0"/><path d="m0 0h40" stroke="#1c30d0"/><path d="m0 20h40" stroke="#1c30d0" stroke-width="1"/><path d="m0 40h40" stroke="#1c30d0"/></g></g></svg>