<svg color-interpolation="auto" height="80" stroke="#000" stroke-linecap="square" stroke-miterlimit="10" width="80" xmlns="http://www.w3.org/2000/svg"><path d="m7.4-3.6c2.4 0 3.6 1.2 3.6 3.6 0 2.4-1.2 3.6-3.6 3.6h-14.8c-2.4 0-3.6-1.2-3.6-3.6 0-2.4 1.2-3.6 3.6-3.6z" fill="#3ed657" stroke="none" transform="matrix(.70710678 .70710678 -.70710678 .70710678 10 10)"/><g stroke-linecap="round"><path d="m7.4-3.6c2.4 0 3.6 1.2 3.6 3.6 0 2.4-1.2 3.6-3.6 3.6h-14.8c-2.4 0-3.6-1.2-3.6-3.6 0-2.4 1.2-3.6 3.6-3.6z" fill="none" stroke="#dfdfdf" transform="matrix(.70710678 .70710678 -.70710678 .70710678 10 10)"/><g fill="#3ed657" stroke="#3ed657" transform="matrix(.70710678 -.70710678 .70710678 .70710678 10 10)"><path d="m7.4-3.6c2.4 0 3.6 1.2 3.6 3.6 0 2.4-1.2 3.6-3.6 3.6h-14.8c-2.4 0-3.6-1.2-3.6-3.6 0-2.4 1.2-3.6 3.6-3.6z" stroke="none"/><path d="m7.4-3.6c2.4 0 3.6 1.2 3.6 3.6 0 2.4-1.2 3.6-3.6 3.6h-14.8c-2.4 0-3.6-1.2-3.6-3.6 0-2.4 1.2-3.6 3.6-3.6z" fill="none" stroke="#dfdfdf"/></g><g fill="#3ed657" stroke="#3ed657" transform="matrix(.70710678 .70710678 -.70710678 .70710678 30 10)"><path d="m7.4-3.6c2.4 0 3.6 1.2 3.6 3.6 0 2.4-1.2 3.6-3.6 3.6h-14.8c-2.4 0-3.6-1.2-3.6-3.6 0-2.4 1.2-3.6 3.6-3.6z" stroke="none"/><path d="m7.4-3.6c2.4 0 3.6 1.2 3.6 3.6 0 2.4-1.2 3.6-3.6 3.6h-14.8c-2.4 0-3.6-1.2-3.6-3.6 0-2.4 1.2-3.6 3.6-3.6z" fill="none" stroke="#dfdfdf"/></g><g fill="#3ed657" stroke="#3ed657" transform="matrix(.70710678 -.70710678 .70710678 .70710678 30 10)"><path d="m7.4-3.6c2.4 0 3.6 1.2 3.6 3.6 0 2.4-1.2 3.6-3.6 3.6h-14.8c-2.4 0-3.6-1.2-3.6-3.6 0-2.4 1.2-3.6 3.6-3.6z" stroke="none"/><path d="m7.4-3.6c2.4 0 3.6 1.2 3.6 3.6 0 2.4-1.2 3.6-3.6 3.6h-14.8c-2.4 0-3.6-1.2-3.6-3.6 0-2.4 1.2-3.6 3.6-3.6z" fill="none" stroke="#dfdfdf"/></g><g fill="#1a63de" stroke="#1a63de" transform="matrix(.70710678 .70710678 -.70710678 .70710678 50 10)"><path d="m7.4-3.6c2.4 0 3.6 1.2 3.6 3.6 0 2.4-1.2 3.6-3.6 3.6h-14.8c-2.4 0-3.6-1.2-3.6-3.6 0-2.4 1.2-3.6 3.6-3.6z" stroke="none"/><path d="m7.4-3.6c2.4 0 3.6 1.2 3.6 3.6 0 2.4-1.2 3.6-3.6 3.6h-14.8c-2.4 0-3.6-1.2-3.6-3.6 0-2.4 1.2-3.6 3.6-3.6z" fill="none" stroke="#dfdfdf"/></g><g fill="#1a63de" stroke="#1a63de" transform="matrix(.70710678 -.70710678 .70710678 .70710678 50 10)"><path d="m7.4-3.6c2.4 0 3.6 1.2 3.6 3.6 0 2.4-1.2 3.6-3.6 3.6h-14.8c-2.4 0-3.6-1.2-3.6-3.6 0-2.4 1.2-3.6 3.6-3.6z" stroke="none"/><path d="m7.4-3.6c2.4 0 3.6 1.2 3.6 3.6 0 2.4-1.2 3.6-3.6 3.6h-14.8c-2.4 0-3.6-1.2-3.6-3.6 0-2.4 1.2-3.6 3.6-3.6z" fill="none" stroke="#dfdfdf"/></g><g fill="#1a63de" stroke="#1a63de" transform="matrix(.70710678 .70710678 -.70710678 .70710678 70 10)"><path d="m7.4-3.6c2.4 0 3.6 1.2 3.6 3.6 0 2.4-1.2 3.6-3.6 3.6h-14.8c-2.4 0-3.6-1.2-3.6-3.6 0-2.4 1.2-3.6 3.6-3.6z" stroke="none"/><path d="m7.4-3.6c2.4 0 3.6 1.2 3.6 3.6 0 2.4-1.2 3.6-3.6 3.6h-14.8c-2.4 0-3.6-1.2-3.6-3.6 0-2.4 1.2-3.6 3.6-3.6z" fill="none" stroke="#dfdfdf"/></g><g fill="#1a63de" stroke="#1a63de" transform="matrix(.70710678 -.70710678 .70710678 .70710678 70 10)"><path d="m7.4-3.6c2.4 0 3.6 1.2 3.6 3.6 0 2.4-1.2 3.6-3.6 3.6h-14.8c-2.4 0-3.6-1.2-3.6-3.6 0-2.4 1.2-3.6 3.6-3.6z" stroke="none"/><path d="m7.4-3.6c2.4 0 3.6 1.2 3.6 3.6 0 2.4-1.2 3.6-3.6 3.6h-14.8c-2.4 0-3.6-1.2-3.6-3.6 0-2.4 1.2-3.6 3.6-3.6z" fill="none" stroke="#dfdfdf"/></g><g fill="#3ed657" stroke="#3ed657" transform="matrix(.70710678 .70710678 -.70710678 .70710678 10 30)"><path d="m7.4-3.6c2.4 0 3.6 1.2 3.6 3.6 0 2.4-1.2 3.6-3.6 3.6h-14.8c-2.4 0-3.6-1.2-3.6-3.6 0-2.4 1.2-3.6 3.6-3.6z" stroke="none"/><path d="m7.4-3.6c2.4 0 3.6 1.2 3.6 3.6 0 2.4-1.2 3.6-3.6 3.6h-14.8c-2.4 0-3.6-1.2-3.6-3.6 0-2.4 1.2-3.6 3.6-3.6z" fill="none" stroke="#dfdfdf"/></g><g fill="#3ed657" stroke="#3ed657" transform="matrix(.70710678 -.70710678 .70710678 .70710678 10 30)"><path d="m7.4-3.6c2.4 0 3.6 1.2 3.6 3.6 0 2.4-1.2 3.6-3.6 3.6h-14.8c-2.4 0-3.6-1.2-3.6-3.6 0-2.4 1.2-3.6 3.6-3.6z" stroke="none"/><path d="m7.4-3.6c2.4 0 3.6 1.2 3.6 3.6 0 2.4-1.2 3.6-3.6 3.6h-14.8c-2.4 0-3.6-1.2-3.6-3.6 0-2.4 1.2-3.6 3.6-3.6z" fill="none" stroke="#dfdfdf"/></g><g fill="#3ed657" stroke="#3ed657" transform="matrix(.70710678 .70710678 -.70710678 .70710678 30 30)"><path d="m7.4-3.6c2.4 0 3.6 1.2 3.6 3.6 0 2.4-1.2 3.6-3.6 3.6h-14.8c-2.4 0-3.6-1.2-3.6-3.6 0-2.4 1.2-3.6 3.6-3.6z" stroke="none"/><path d="m7.4-3.6c2.4 0 3.6 1.2 3.6 3.6 0 2.4-1.2 3.6-3.6 3.6h-14.8c-2.4 0-3.6-1.2-3.6-3.6 0-2.4 1.2-3.6 3.6-3.6z" fill="none" stroke="#dfdfdf"/></g><g fill="#3ed657" stroke="#3ed657" transform="matrix(.70710678 -.70710678 .70710678 .70710678 30 30)"><path d="m7.4-3.6c2.4 0 3.6 1.2 3.6 3.6 0 2.4-1.2 3.6-3.6 3.6h-14.8c-2.4 0-3.6-1.2-3.6-3.6 0-2.4 1.2-3.6 3.6-3.6z" stroke="none"/><path d="m7.4-3.6c2.4 0 3.6 1.2 3.6 3.6 0 2.4-1.2 3.6-3.6 3.6h-14.8c-2.4 0-3.6-1.2-3.6-3.6 0-2.4 1.2-3.6 3.6-3.6z" fill="none" stroke="#dfdfdf"/></g><g fill="#1a63de" stroke="#1a63de" transform="matrix(.70710678 .70710678 -.70710678 .70710678 50 30)"><path d="m7.4-3.6c2.4 0 3.6 1.2 3.6 3.6 0 2.4-1.2 3.6-3.6 3.6h-14.8c-2.4 0-3.6-1.2-3.6-3.6 0-2.4 1.2-3.6 3.6-3.6z" stroke="none"/><path d="m7.4-3.6c2.4 0 3.6 1.2 3.6 3.6 0 2.4-1.2 3.6-3.6 3.6h-14.8c-2.4 0-3.6-1.2-3.6-3.6 0-2.4 1.2-3.6 3.6-3.6z" fill="none" stroke="#dfdfdf"/></g><g fill="#1a63de" stroke="#1a63de" transform="matrix(.70710678 -.70710678 .70710678 .70710678 50 30)"><path d="m7.4-3.6c2.4 0 3.6 1.2 3.6 3.6 0 2.4-1.2 3.6-3.6 3.6h-14.8c-2.4 0-3.6-1.2-3.6-3.6 0-2.4 1.2-3.6 3.6-3.6z" stroke="none"/><path d="m7.4-3.6c2.4 0 3.6 1.2 3.6 3.6 0 2.4-1.2 3.6-3.6 3.6h-14.8c-2.4 0-3.6-1.2-3.6-3.6 0-2.4 1.2-3.6 3.6-3.6z" fill="none" stroke="#dfdfdf"/></g><g fill="#1a63de" stroke="#1a63de" transform="matrix(.70710678 .70710678 -.70710678 .70710678 70 30)"><path d="m7.4-3.6c2.4 0 3.6 1.2 3.6 3.6 0 2.4-1.2 3.6-3.6 3.6h-14.8c-2.4 0-3.6-1.2-3.6-3.6 0-2.4 1.2-3.6 3.6-3.6z" stroke="none"/><path d="m7.4-3.6c2.4 0 3.6 1.2 3.6 3.6 0 2.4-1.2 3.6-3.6 3.6h-14.8c-2.4 0-3.6-1.2-3.6-3.6 0-2.4 1.2-3.6 3.6-3.6z" fill="none" stroke="#dfdfdf"/></g><g fill="#1a63de" stroke="#1a63de" transform="matrix(.70710678 -.70710678 .70710678 .70710678 70 30)"><path d="m7.4-3.6c2.4 0 3.6 1.2 3.6 3.6 0 2.4-1.2 3.6-3.6 3.6h-14.8c-2.4 0-3.6-1.2-3.6-3.6 0-2.4 1.2-3.6 3.6-3.6z" stroke="none"/><path d="m7.4-3.6c2.4 0 3.6 1.2 3.6 3.6 0 2.4-1.2 3.6-3.6 3.6h-14.8c-2.4 0-3.6-1.2-3.6-3.6 0-2.4 1.2-3.6 3.6-3.6z" fill="none" stroke="#dfdfdf"/></g><g fill="#f4ff10" stroke="#f4ff10" transform="matrix(.70710678 .70710678 -.70710678 .70710678 10 50)"><path d="m7.4-3.6c2.4 0 3.6 1.2 3.6 3.6 0 2.4-1.2 3.6-3.6 3.6h-14.8c-2.4 0-3.6-1.2-3.6-3.6 0-2.4 1.2-3.6 3.6-3.6z" stroke="none"/><path d="m7.4-3.6c2.4 0 3.6 1.2 3.6 3.6 0 2.4-1.2 3.6-3.6 3.6h-14.8c-2.4 0-3.6-1.2-3.6-3.6 0-2.4 1.2-3.6 3.6-3.6z" fill="none" stroke="#dfdfdf"/></g><g fill="#f4ff10" stroke="#f4ff10" transform="matrix(.70710678 -.70710678 .70710678 .70710678 10 50)"><path d="m7.4-3.6c2.4 0 3.6 1.2 3.6 3.6 0 2.4-1.2 3.6-3.6 3.6h-14.8c-2.4 0-3.6-1.2-3.6-3.6 0-2.4 1.2-3.6 3.6-3.6z" stroke="none"/><path d="m7.4-3.6c2.4 0 3.6 1.2 3.6 3.6 0 2.4-1.2 3.6-3.6 3.6h-14.8c-2.4 0-3.6-1.2-3.6-3.6 0-2.4 1.2-3.6 3.6-3.6z" fill="none" stroke="#dfdfdf"/></g><g fill="#f4ff10" stroke="#f4ff10" transform="matrix(.70710678 .70710678 -.70710678 .70710678 30 50)"><path d="m7.4-3.6c2.4 0 3.6 1.2 3.6 3.6 0 2.4-1.2 3.6-3.6 3.6h-14.8c-2.4 0-3.6-1.2-3.6-3.6 0-2.4 1.2-3.6 3.6-3.6z" stroke="none"/><path d="m7.4-3.6c2.4 0 3.6 1.2 3.6 3.6 0 2.4-1.2 3.6-3.6 3.6h-14.8c-2.4 0-3.6-1.2-3.6-3.6 0-2.4 1.2-3.6 3.6-3.6z" fill="none" stroke="#dfdfdf"/></g><g fill="#f4ff10" stroke="#f4ff10" transform="matrix(.70710678 -.70710678 .70710678 .70710678 30 50)"><path d="m7.4-3.6c2.4 0 3.6 1.2 3.6 3.6 0 2.4-1.2 3.6-3.6 3.6h-14.8c-2.4 0-3.6-1.2-3.6-3.6 0-2.4 1.2-3.6 3.6-3.6z" stroke="none"/><path d="m7.4-3.6c2.4 0 3.6 1.2 3.6 3.6 0 2.4-1.2 3.6-3.6 3.6h-14.8c-2.4 0-3.6-1.2-3.6-3.6 0-2.4 1.2-3.6 3.6-3.6z" fill="none" stroke="#dfdfdf"/></g><g fill="#fd4700" stroke="#fd4700" transform="matrix(.70710678 .70710678 -.70710678 .70710678 50 50)"><path d="m7.4-3.6c2.4 0 3.6 1.2 3.6 3.6 0 2.4-1.2 3.6-3.6 3.6h-14.8c-2.4 0-3.6-1.2-3.6-3.6 0-2.4 1.2-3.6 3.6-3.6z" stroke="none"/><path d="m7.4-3.6c2.4 0 3.6 1.2 3.6 3.6 0 2.4-1.2 3.6-3.6 3.6h-14.8c-2.4 0-3.6-1.2-3.6-3.6 0-2.4 1.2-3.6 3.6-3.6z" fill="none" stroke="#dfdfdf"/></g><g fill="#fd4700" stroke="#fd4700" transform="matrix(.70710678 -.70710678 .70710678 .70710678 50 50)"><path d="m7.4-3.6c2.4 0 3.6 1.2 3.6 3.6 0 2.4-1.2 3.6-3.6 3.6h-14.8c-2.4 0-3.6-1.2-3.6-3.6 0-2.4 1.2-3.6 3.6-3.6z" stroke="none"/><path d="m7.4-3.6c2.4 0 3.6 1.2 3.6 3.6 0 2.4-1.2 3.6-3.6 3.6h-14.8c-2.4 0-3.6-1.2-3.6-3.6 0-2.4 1.2-3.6 3.6-3.6z" fill="none" stroke="#dfdfdf"/></g><g fill="#fd4700" stroke="#fd4700" transform="matrix(.70710678 .70710678 -.70710678 .70710678 70 50)"><path d="m7.4-3.6c2.4 0 3.6 1.2 3.6 3.6 0 2.4-1.2 3.6-3.6 3.6h-14.8c-2.4 0-3.6-1.2-3.6-3.6 0-2.4 1.2-3.6 3.6-3.6z" stroke="none"/><path d="m7.4-3.6c2.4 0 3.6 1.2 3.6 3.6 0 2.4-1.2 3.6-3.6 3.6h-14.8c-2.4 0-3.6-1.2-3.6-3.6 0-2.4 1.2-3.6 3.6-3.6z" fill="none" stroke="#dfdfdf"/></g><g fill="#fd4700" stroke="#fd4700" transform="matrix(.70710678 -.70710678 .70710678 .70710678 70 50)"><path d="m7.4-3.6c2.4 0 3.6 1.2 3.6 3.6 0 2.4-1.2 3.6-3.6 3.6h-14.8c-2.4 0-3.6-1.2-3.6-3.6 0-2.4 1.2-3.6 3.6-3.6z" stroke="none"/><path d="m7.4-3.6c2.4 0 3.6 1.2 3.6 3.6 0 2.4-1.2 3.6-3.6 3.6h-14.8c-2.4 0-3.6-1.2-3.6-3.6 0-2.4 1.2-3.6 3.6-3.6z" fill="none" stroke="#dfdfdf"/></g><g fill="#f4ff10" stroke="#f4ff10" transform="matrix(.70710678 .70710678 -.70710678 .70710678 10 70)"><path d="m7.4-3.6c2.4 0 3.6 1.2 3.6 3.6 0 2.4-1.2 3.6-3.6 3.6h-14.8c-2.4 0-3.6-1.2-3.6-3.6 0-2.4 1.2-3.6 3.6-3.6z" stroke="none"/><path d="m7.4-3.6c2.4 0 3.6 1.2 3.6 3.6 0 2.4-1.2 3.6-3.6 3.6h-14.8c-2.4 0-3.6-1.2-3.6-3.6 0-2.4 1.2-3.6 3.6-3.6z" fill="none" stroke="#dfdfdf"/></g><g fill="#f4ff10" stroke="#f4ff10" transform="matrix(.70710678 -.70710678 .70710678 .70710678 10 70)"><path d="m7.4-3.6c2.4 0 3.6 1.2 3.6 3.6 0 2.4-1.2 3.6-3.6 3.6h-14.8c-2.4 0-3.6-1.2-3.6-3.6 0-2.4 1.2-3.6 3.6-3.6z" stroke="none"/><path d="m7.4-3.6c2.4 0 3.6 1.2 3.6 3.6 0 2.4-1.2 3.6-3.6 3.6h-14.8c-2.4 0-3.6-1.2-3.6-3.6 0-2.4 1.2-3.6 3.6-3.6z" fill="none" stroke="#dfdfdf"/></g><g fill="#f4ff10" stroke="#f4ff10" transform="matrix(.70710678 .70710678 -.70710678 .70710678 30 70)"><path d="m7.4-3.6c2.4 0 3.6 1.2 3.6 3.6 0 2.4-1.2 3.6-3.6 3.6h-14.8c-2.4 0-3.6-1.2-3.6-3.6 0-2.4 1.2-3.6 3.6-3.6z" stroke="none"/><path d="m7.4-3.6c2.4 0 3.6 1.2 3.6 3.6 0 2.4-1.2 3.6-3.6 3.6h-14.8c-2.4 0-3.6-1.2-3.6-3.6 0-2.4 1.2-3.6 3.6-3.6z" fill="none" stroke="#dfdfdf"/></g><g fill="#f4ff10" stroke="#f4ff10" transform="matrix(.70710678 -.70710678 .70710678 .70710678 30 70)"><path d="m7.4-3.6c2.4 0 3.6 1.2 3.6 3.6 0 2.4-1.2 3.6-3.6 3.6h-14.8c-2.4 0-3.6-1.2-3.6-3.6 0-2.4 1.2-3.6 3.6-3.6z" stroke="none"/><path d="m7.4-3.6c2.4 0 3.6 1.2 3.6 3.6 0 2.4-1.2 3.6-3.6 3.6h-14.8c-2.4 0-3.6-1.2-3.6-3.6 0-2.4 1.2-3.6 3.6-3.6z" fill="none" stroke="#dfdfdf"/></g><g fill="#fd4700" stroke="#fd4700" transform="matrix(.70710678 .70710678 -.70710678 .70710678 50 70)"><path d="m7.4-3.6c2.4 0 3.6 1.2 3.6 3.6 0 2.4-1.2 3.6-3.6 3.6h-14.8c-2.4 0-3.6-1.2-3.6-3.6 0-2.4 1.2-3.6 3.6-3.6z" stroke="none"/><path d="m7.4-3.6c2.4 0 3.6 1.2 3.6 3.6 0 2.4-1.2 3.6-3.6 3.6h-14.8c-2.4 0-3.6-1.2-3.6-3.6 0-2.4 1.2-3.6 3.6-3.6z" fill="none" stroke="#dfdfdf"/></g><g fill="#fd4700" stroke="#fd4700" transform="matrix(.70710678 -.70710678 .70710678 .70710678 50 70)"><path d="m7.4-3.6c2.4 0 3.6 1.2 3.6 3.6 0 2.4-1.2 3.6-3.6 3.6h-14.8c-2.4 0-3.6-1.2-3.6-3.6 0-2.4 1.2-3.6 3.6-3.6z" stroke="none"/><path d="m7.4-3.6c2.4 0 3.6 1.2 3.6 3.6 0 2.4-1.2 3.6-3.6 3.6h-14.8c-2.4 0-3.6-1.2-3.6-3.6 0-2.4 1.2-3.6 3.6-3.6z" fill="none" stroke="#dfdfdf"/></g><g fill="#fd4700" stroke="#fd4700" transform="matrix(.70710678 .70710678 -.70710678 .70710678 70 70)"><path d="m7.4-3.6c2.4 0 3.6 1.2 3.6 3.6 0 2.4-1.2 3.6-3.6 3.6h-14.8c-2.4 0-3.6-1.2-3.6-3.6 0-2.4 1.2-3.6 3.6-3.6z" stroke="none"/><path d="m7.4-3.6c2.4 0 3.6 1.2 3.6 3.6 0 2.4-1.2 3.6-3.6 3.6h-14.8c-2.4 0-3.6-1.2-3.6-3.6 0-2.4 1.2-3.6 3.6-3.6z" fill="none" stroke="#dfdfdf"/></g><g fill="#fd4700" stroke="#fd4700" transform="matrix(.70710678 -.70710678 .70710678 .70710678 70 70)"><path d="m7.4-3.6c2.4 0 3.6 1.2 3.6 3.6 0 2.4-1.2 3.6-3.6 3.6h-14.8c-2.4 0-3.6-1.2-3.6-3.6 0-2.4 1.2-3.6 3.6-3.6z" stroke="none"/><path d="m7.4-3.6c2.4 0 3.6 1.2 3.6 3.6 0 2.4-1.2 3.6-3.6 3.6h-14.8c-2.4 0-3.6-1.2-3.6-3.6 0-2.4 1.2-3.6 3.6-3.6z" fill="none" stroke="#dfdfdf"/></g></g></svg>