<svg color-interpolation="auto" height="480" stroke="#000" stroke-linecap="square" stroke-miterlimit="10" width="480" xmlns="http://www.w3.org/2000/svg"><g stroke-linecap="round" stroke-width="2"><path d="m210 65.2 4.8 4.8-4.8 4.8-4.8-4.8z" fill="none"/><g><path d="m230 65.2 4.8 4.8-4.8 4.8-4.8-4.8z" fill="none"/><path d="m250 65.2 4.8 4.8-4.8 4.8-4.8-4.8z" fill="none"/><path d="m270 65.2 4.8 4.8-4.8 4.8-4.8-4.8z" fill="none"/><path d="m290 65.2 4.8 4.8-4.8 4.8-4.8-4.8z" fill="none"/><path d="m310 65.2 4.8 4.8-4.8 4.8-4.8-4.8z" fill="none"/><path d="m190 85.2 4.8 4.8-4.8 4.8-4.8-4.8z" fill="none"/><path d="m210 85.6574-4.8 8.3139h9.6z" fill="none"/><path d="m230 85.6574-4.8 8.3139h9.6z" fill="none"/><path d="m250 85.6574-4.8 8.3139h9.6z" fill="none"/><path d="m270 85.6574-4.8 8.3139h9.6z" fill="none"/><path d="m290 85.6574-4.8 8.3139h9.6z" fill="none"/><path d="m310 85.6574-4.8 8.3139h9.6z" fill="none"/><path d="m330 85.2 4.8 4.8-4.8 4.8-4.8-4.8z" fill="none"/><path d="m170 105.2 4.8 4.8-4.8 4.8-4.8-4.8z" fill="none"/><path d="m190 105.6574-4.8 8.3139h9.6z" fill="none"/><path d="m210 105.6574-4.8 8.3139h9.6z" fill="none"/><path d="m230 105.6574-4.8 8.3139h9.6z" fill="none"/><path d="m250 105.6574-4.8 8.3139h9.6z" fill="none"/><path d="m270 105.6574-4.8 8.3139h9.6z" fill="none"/><path d="m290 105.6574-4.8 8.3139h9.6z" fill="none"/><path d="m310 105.6574-4.8 8.3139h9.6z" fill="none"/><path d="m330 105.6574-4.8 8.3139h9.6z" fill="none"/><path d="m350 105.2 4.8 4.8-4.8 4.8-4.8-4.8z" fill="none"/><path d="m170 125.2 4.8 4.8-4.8 4.8-4.8-4.8z" fill="none"/><path d="m190 125.6574-4.8 8.3139h9.6z" fill="none"/><path d="m210 125.6574-4.8 8.3139h9.6z" fill="none"/><path d="m230 125.6574-4.8 8.3139h9.6z" fill="none"/><path d="m250 125.6574-4.8 8.3139h9.6z" fill="none"/><path d="m270 125.2 4.8 4.8-4.8 4.8-4.8-4.8z" fill="none"/><path d="m290 125.2 4.8 4.8-4.8 4.8-4.8-4.8z" fill="none"/><path d="m310 125.2 4.8 4.8-4.8 4.8-4.8-4.8z" fill="none"/><path d="m330 125.2 4.8 4.8-4.8 4.8-4.8-4.8z" fill="none"/><path d="m350 125.2 4.8 4.8-4.8 4.8-4.8-4.8z" fill="none"/><path d="m370 125.2 4.8 4.8-4.8 4.8-4.8-4.8z" fill="none"/><path d="m150 145.2 4.8 4.8-4.8 4.8-4.8-4.8z" fill="none"/><path d="m170 145.6574-4.8 8.3139h9.6z" fill="none"/><path d="m190 145.6574-4.8 8.3139h9.6z" fill="none"/><path d="m210 145.6574-4.8 8.3139h9.6z" fill="none"/><path d="m230 145.6574-4.8 8.3139h9.6z" fill="none"/><path d="m250 145.2 4.8 4.8-4.8 4.8-4.8-4.8z" fill="none"/><path d="m265.2 145.2h9.6v9.6h-9.6z" stroke="none"/><path d="m285.2 145.2h9.6v9.6h-9.6z" stroke="none"/><circle cx="310" cy="150" r="4.8" stroke="none"/><circle cx="330" cy="150" r="4.8" stroke="none"/><circle cx="350" cy="150" r="4.8" stroke="none"/><path d="m365.2 145.2h9.6v9.6h-9.6z" stroke="none"/><path d="m390 145.2 4.8 4.8-4.8 4.8-4.8-4.8z" fill="none"/><path d="m150 165.2 4.8 4.8-4.8 4.8-4.8-4.8z" fill="none"/><path d="m170 165.6574-4.8 8.3139h9.6z" fill="none"/><path d="m190 165.6574-4.8 8.3139h9.6z" fill="none"/><path d="m210 165.6574-4.8 8.3139h9.6z" fill="none"/><path d="m230 165.2 4.8 4.8-4.8 4.8-4.8-4.8z" fill="none"/><path d="m245.2 165.2h9.6v9.6h-9.6z" stroke="none"/><path d="m265.2 165.2h9.6v9.6h-9.6z" stroke="none"/><path d="m285.2 165.2h9.6v9.6h-9.6z" stroke="none"/><circle cx="310" cy="170" r="4.8" stroke="none"/><circle cx="330" cy="170" r="4.8" stroke="none"/><circle cx="350" cy="170" r="4.8" stroke="none"/><circle cx="370" cy="170" r="4.8" stroke="none"/><path d="m385.2 165.2h9.6v9.6h-9.6z" stroke="none"/><path d="m410 165.2 4.8 4.8-4.8 4.8-4.8-4.8z" fill="none"/><path d="m110 185.2 4.8 4.8-4.8 4.8-4.8-4.8z" fill="none"/><path d="m130 185.2 4.8 4.8-4.8 4.8-4.8-4.8z" fill="none"/><path d="m150 185.2 4.8 4.8-4.8 4.8-4.8-4.8z" fill="none"/><path d="m170 185.6574-4.8 8.3139h9.6z" fill="none"/><path d="m190 185.6574-4.8 8.3139h9.6z" fill="none"/><path d="m210 185.6574-4.8 8.3139h9.6z" fill="none"/><path d="m230 185.2 4.8 4.8-4.8 4.8-4.8-4.8z" fill="none"/><path d="m250 185.2 4.8 4.8-4.8 4.8-4.8-4.8z" stroke="none"/><path d="m270 185.2 4.8 4.8-4.8 4.8-4.8-4.8z" stroke="none"/><path d="m285.2 185.2h9.6v9.6h-9.6z" stroke="none"/><path d="m305.2 185.2h9.6v9.6h-9.6z" stroke="none"/><path d="m325.2 185.2h9.6v9.6h-9.6z" stroke="none"/><path d="m345.2 185.2h9.6v9.6h-9.6z" stroke="none"/><path d="m365.2 185.2h9.6v9.6h-9.6z" stroke="none"/><path d="m385.2 185.2h9.6v9.6h-9.6z" stroke="none"/><path d="m410 185.2 4.8 4.8-4.8 4.8-4.8-4.8z" fill="none"/><path d="m90 205.2 4.8 4.8-4.8 4.8-4.8-4.8z" fill="none"/><path d="m110 205.6574-4.8 8.3139h9.6z" fill="none"/><path d="m130 205.6574-4.8 8.3139h9.6z" fill="none"/><path d="m150 205.2 4.8 4.8-4.8 4.8-4.8-4.8z" fill="none"/><path d="m170 205.6574-4.8 8.3139h9.6z" fill="none"/><path d="m190 205.6574-4.8 8.3139h9.6z" fill="none"/><path d="m210 205.6574-4.8 8.3139h9.6z" fill="none"/><path d="m230 205.2 4.8 4.8-4.8 4.8-4.8-4.8z" fill="none"/><path d="m250 205.2 4.8 4.8-4.8 4.8-4.8-4.8z" stroke="none"/><path d="m270 205.2 4.8 4.8-4.8 4.8-4.8-4.8z" stroke="none"/><path d="m290 205.2 4.8 4.8-4.8 4.8-4.8-4.8z" stroke="none"/><path d="m310 205.2 4.8 4.8-4.8 4.8-4.8-4.8z" stroke="none"/><path d="m330 205.2 4.8 4.8-4.8 4.8-4.8-4.8z" stroke="none"/><path d="m350 205.2 4.8 4.8-4.8 4.8-4.8-4.8z" stroke="none"/><path d="m370 205.2 4.8 4.8-4.8 4.8-4.8-4.8z" stroke="none"/><path d="m390 205.2 4.8 4.8-4.8 4.8-4.8-4.8z" stroke="none"/><path d="m410 205.2 4.8 4.8-4.8 4.8-4.8-4.8z" fill="none"/><path d="m90 225.2 4.8 4.8-4.8 4.8-4.8-4.8z" fill="none"/><path d="m110 225.6574-4.8 8.3139h9.6z" fill="none"/><circle cx="130" cy="230" fill="none" r="4.8"/><path d="m150 225.2 4.8 4.8-4.8 4.8-4.8-4.8z" fill="none"/><circle cx="170" cy="230" fill="none" r="4.8"/><path d="m190 225.6574-4.8 8.3139h9.6z" fill="none"/><path d="m210 225.6574-4.8 8.3139h9.6z" fill="none"/><path d="m230 225.6574-4.8 8.3139h9.6z" fill="none"/><path d="m250 225.2 4.8 4.8-4.8 4.8-4.8-4.8z" fill="none"/><path d="m270 225.2 4.8 4.8-4.8 4.8-4.8-4.8z" stroke="none"/><path d="m290 225.2 4.8 4.8-4.8 4.8-4.8-4.8z" stroke="none"/><path d="m310 225.2 4.8 4.8-4.8 4.8-4.8-4.8z" stroke="none"/><path d="m330 225.2 4.8 4.8-4.8 4.8-4.8-4.8z" stroke="none"/><path d="m350 225.2 4.8 4.8-4.8 4.8-4.8-4.8z" stroke="none"/><path d="m370 225.2 4.8 4.8-4.8 4.8-4.8-4.8z" stroke="none"/><g fill="none"><path d="m390 225.2 4.8 4.8-4.8 4.8-4.8-4.8z"/><path d="m90 245.2 4.8 4.8-4.8 4.8-4.8-4.8z"/><circle cx="110" cy="250" r="4.8"/><circle cx="130" cy="250" r="4.8"/><path d="m150 245.2 4.8 4.8-4.8 4.8-4.8-4.8z"/><circle cx="170" cy="250" r="4.8"/><path d="m190 245.6574-4.8 8.3139h9.6z"/><path d="m210 245.6574-4.8 8.3139h9.6z"/><path d="m230 245.6574-4.8 8.3139h9.6z"/><path d="m250 245.6574-4.8 8.3139h9.6z"/><path d="m270 245.2 4.8 4.8-4.8 4.8-4.8-4.8z"/><path d="m290 245.2 4.8 4.8-4.8 4.8-4.8-4.8z"/><path d="m310 245.2 4.8 4.8-4.8 4.8-4.8-4.8z"/><path d="m330 245.2 4.8 4.8-4.8 4.8-4.8-4.8z"/><path d="m350 245.2 4.8 4.8-4.8 4.8-4.8-4.8z"/><path d="m370 245.2 4.8 4.8-4.8 4.8-4.8-4.8z"/><path d="m90 265.2 4.8 4.8-4.8 4.8-4.8-4.8z"/><circle cx="110" cy="270" r="4.8"/><circle cx="130" cy="270" r="4.8"/><path d="m150 265.2 4.8 4.8-4.8 4.8-4.8-4.8z"/><circle cx="170" cy="270" r="4.8"/><path d="m190 265.6574-4.8 8.3139h9.6z"/><path d="m210 265.6574-4.8 8.3139h9.6z"/><path d="m230 265.6574-4.8 8.3139h9.6z"/><path d="m250 265.6574-4.8 8.3139h9.6z"/><path d="m270 265.6574-4.8 8.3139h9.6z"/><path d="m290 265.6574-4.8 8.3139h9.6z"/><path d="m310 265.6574-4.8 8.3139h9.6z"/><path d="m330 265.6574-4.8 8.3139h9.6z"/><path d="m350 265.6574-4.8 8.3139h9.6z"/><path d="m370 265.2 4.8 4.8-4.8 4.8-4.8-4.8z"/><path d="m90 285.2 4.8 4.8-4.8 4.8-4.8-4.8z"/><circle cx="110" cy="290" r="4.8"/><circle cx="130" cy="290" r="4.8"/><path d="m150 285.2 4.8 4.8-4.8 4.8-4.8-4.8z"/><circle cx="170" cy="290" r="4.8"/><circle cx="190" cy="290" r="4.8"/><path d="m210 285.6574-4.8 8.3139h9.6z"/><path d="m230 285.6574-4.8 8.3139h9.6z"/><path d="m250 285.6574-4.8 8.3139h9.6z"/><path d="m270 285.6574-4.8 8.3139h9.6z"/><path d="m290 285.6574-4.8 8.3139h9.6z"/><path d="m310 285.6574-4.8 8.3139h9.6z"/><path d="m330 285.6574-4.8 8.3139h9.6z"/><path d="m350 285.6574-4.8 8.3139h9.6z"/><path d="m370 285.2 4.8 4.8-4.8 4.8-4.8-4.8z"/><path d="m90 305.2 4.8 4.8-4.8 4.8-4.8-4.8z"/><circle cx="110" cy="310" r="4.8"/><circle cx="130" cy="310" r="4.8"/><path d="m150 305.2 4.8 4.8-4.8 4.8-4.8-4.8z"/><circle cx="170" cy="310" r="4.8"/><circle cx="190" cy="310" r="4.8"/><path d="m210 305.6574-4.8 8.3139h9.6z"/><path d="m230 305.6574-4.8 8.3139h9.6z"/><path d="m250 305.6574-4.8 8.3139h9.6z"/><path d="m270 305.6574-4.8 8.3139h9.6z"/><path d="m290 305.6574-4.8 8.3139h9.6z"/><path d="m310 305.6574-4.8 8.3139h9.6z"/><path d="m330 305.6574-4.8 8.3139h9.6z"/><circle cx="350" cy="310" r="4.8"/><path d="m370 305.2 4.8 4.8-4.8 4.8-4.8-4.8z"/><path d="m90 325.2 4.8 4.8-4.8 4.8-4.8-4.8z"/><circle cx="110" cy="330" r="4.8"/><circle cx="130" cy="330" r="4.8"/><path d="m150 325.2 4.8 4.8-4.8 4.8-4.8-4.8z"/><circle cx="170" cy="330" r="4.8"/><circle cx="190" cy="330" r="4.8"/><circle cx="210" cy="330" r="4.8"/><path d="m230 325.6574-4.8 8.3139h9.6z"/><path d="m250 325.6574-4.8 8.3139h9.6z"/><path d="m270 325.6574-4.8 8.3139h9.6z"/><path d="m290 325.6574-4.8 8.3139h9.6z"/><path d="m310 325.6574-4.8 8.3139h9.6z"/><circle cx="330" cy="330" r="4.8"/><circle cx="350" cy="330" r="4.8"/><path d="m370 325.2 4.8 4.8-4.8 4.8-4.8-4.8z"/><path d="m90 345.2 4.8 4.8-4.8 4.8-4.8-4.8z"/><circle cx="110" cy="350" r="4.8"/><circle cx="130" cy="350" r="4.8"/><path d="m150 345.2 4.8 4.8-4.8 4.8-4.8-4.8z"/><circle cx="170" cy="350" r="4.8"/><circle cx="190" cy="350" r="4.8"/><circle cx="210" cy="350" r="4.8"/><circle cx="230" cy="350" r="4.8"/><circle cx="250" cy="350" r="4.8"/><circle cx="270" cy="350" r="4.8"/><circle cx="290" cy="350" r="4.8"/><circle cx="310" cy="350" r="4.8"/><circle cx="330" cy="350" r="4.8"/><circle cx="350" cy="350" r="4.8"/><path d="m370 345.2 4.8 4.8-4.8 4.8-4.8-4.8z"/><path d="m110 365.2 4.8 4.8-4.8 4.8-4.8-4.8z"/><path d="m130 365.2 4.8 4.8-4.8 4.8-4.8-4.8z"/><path d="m150 365.2 4.8 4.8-4.8 4.8-4.8-4.8z"/><circle cx="170" cy="370" r="4.8"/><circle cx="190" cy="370" r="4.8"/><circle cx="210" cy="370" r="4.8"/><circle cx="230" cy="370" r="4.8"/><circle cx="250" cy="370" r="4.8"/><path d="m270 365.2 4.8 4.8-4.8 4.8-4.8-4.8z"/><path d="m290 365.2 4.8 4.8-4.8 4.8-4.8-4.8z"/><path d="m310 365.2 4.8 4.8-4.8 4.8-4.8-4.8z"/><circle cx="330" cy="370" r="4.8"/><circle cx="350" cy="370" r="4.8"/><path d="m370 365.2 4.8 4.8-4.8 4.8-4.8-4.8z"/><path d="m150 385.2 4.8 4.8-4.8 4.8-4.8-4.8z"/><circle cx="170" cy="390" r="4.8"/><circle cx="190" cy="390" r="4.8"/><circle cx="210" cy="390" r="4.8"/><circle cx="230" cy="390" r="4.8"/><path d="m250 385.2 4.8 4.8-4.8 4.8-4.8-4.8z"/><path d="m290 385.2 4.8 4.8-4.8 4.8-4.8-4.8z"/><circle cx="310" cy="390" r="4.8"/><circle cx="330" cy="390" r="4.8"/><path d="m350 385.2 4.8 4.8-4.8 4.8-4.8-4.8z"/><path d="m170 405.2 4.8 4.8-4.8 4.8-4.8-4.8z"/><circle cx="190" cy="410" r="4.8"/><circle cx="210" cy="410" r="4.8"/><circle cx="230" cy="410" r="4.8"/><path d="m250 405.2 4.8 4.8-4.8 4.8-4.8-4.8z"/><path d="m290 405.2 4.8 4.8-4.8 4.8-4.8-4.8z"/><circle cx="310" cy="410" r="4.8"/><circle cx="330" cy="410" r="4.8"/><path d="m350 405.2 4.8 4.8-4.8 4.8-4.8-4.8z"/><path d="m190 425.2 4.8 4.8-4.8 4.8-4.8-4.8z"/><path d="m210 425.2 4.8 4.8-4.8 4.8-4.8-4.8z"/><path d="m230 425.2 4.8 4.8-4.8 4.8-4.8-4.8z"/><path d="m310 425.2 4.8 4.8-4.8 4.8-4.8-4.8z"/><path d="m330 425.2 4.8 4.8-4.8 4.8-4.8-4.8z"/><path d="m0 0v480" stroke="#b4b4b4"/><path d="m20 0v480" stroke="#b4b4b4" stroke-width="1"/><path d="m40 0v480" stroke="#b4b4b4" stroke-width="1"/><path d="m60 0v480" stroke="#b4b4b4" stroke-width="1"/><path d="m80 0v480" stroke="#b4b4b4" stroke-width="1"/><path d="m100 0v480" stroke="#b4b4b4" stroke-width="1"/><path d="m120 0v480" stroke="#b4b4b4" stroke-width="1"/><path d="m140 0v480" stroke="#b4b4b4" stroke-width="1"/><path d="m160 0v480" stroke="#b4b4b4" stroke-width="1"/><path d="m180 0v480" stroke="#b4b4b4" stroke-width="1"/><path d="m200 0v480" stroke="#b4b4b4" stroke-width="1"/><path d="m220 0v480" stroke="#b4b4b4" stroke-width="1"/><path d="m240 0v480" stroke="#b4b4b4" stroke-width="1"/><path d="m260 0v480" stroke="#b4b4b4" stroke-width="1"/><path d="m280 0v480" stroke="#b4b4b4" stroke-width="1"/><path d="m300 0v480" stroke="#b4b4b4" stroke-width="1"/><path d="m320 0v480" stroke="#b4b4b4" stroke-width="1"/><path d="m340 0v480" stroke="#b4b4b4" stroke-width="1"/><path d="m360 0v480" stroke="#b4b4b4" stroke-width="1"/><path d="m380 0v480" stroke="#b4b4b4" stroke-width="1"/><path d="m400 0v480" stroke="#b4b4b4" stroke-width="1"/><path d="m420 0v480" stroke="#b4b4b4" stroke-width="1"/><path d="m440 0v480" stroke="#b4b4b4" stroke-width="1"/><path d="m460 0v480" stroke="#b4b4b4" stroke-width="1"/><path d="m480 0v480" stroke="#b4b4b4"/><path d="m0 0h480" stroke="#b4b4b4"/><path d="m0 20h480" stroke="#b4b4b4" stroke-width="1"/><path d="m0 40h480" stroke="#b4b4b4" stroke-width="1"/><path d="m0 60h480" stroke="#b4b4b4" stroke-width="1"/><path d="m0 80h480" stroke="#b4b4b4" stroke-width="1"/><path d="m0 100h480" stroke="#b4b4b4" stroke-width="1"/><path d="m0 120h480" stroke="#b4b4b4" stroke-width="1"/><path d="m0 140h480" stroke="#b4b4b4" stroke-width="1"/><path d="m0 160h480" stroke="#b4b4b4" stroke-width="1"/><path d="m0 180h480" stroke="#b4b4b4" stroke-width="1"/><path d="m0 200h480" stroke="#b4b4b4" stroke-width="1"/><path d="m0 220h480" stroke="#b4b4b4" stroke-width="1"/><path d="m0 240h480" stroke="#b4b4b4" stroke-width="1"/><path d="m0 260h480" stroke="#b4b4b4" stroke-width="1"/><path d="m0 280h480" stroke="#b4b4b4" stroke-width="1"/><path d="m0 300h480" stroke="#b4b4b4" stroke-width="1"/><path d="m0 320h480" stroke="#b4b4b4" stroke-width="1"/><path d="m0 340h480" stroke="#b4b4b4" stroke-width="1"/><path d="m0 360h480" stroke="#b4b4b4" stroke-width="1"/><path d="m0 380h480" stroke="#b4b4b4" stroke-width="1"/><path d="m0 400h480" stroke="#b4b4b4" stroke-width="1"/><path d="m0 420h480" stroke="#b4b4b4" stroke-width="1"/><path d="m0 440h480" stroke="#b4b4b4" stroke-width="1"/><path d="m0 460h480" stroke="#b4b4b4" stroke-width="1"/><path d="m0 480h480" stroke="#b4b4b4"/></g></g></g></svg>