<svg color-interpolation="auto" height="480" stroke="#000" stroke-linecap="square" stroke-miterlimit="10" width="480" xmlns="http://www.w3.org/2000/svg"><g stroke-linecap="round" stroke-width="2"><path d="m210 64.2099-6.4 11.0851h12.8z" fill="none"/><g><path d="m230 64.2099-6.4 11.0851h12.8z" fill="none"/><path d="m250 64.2099-6.4 11.0851h12.8z" fill="none"/><path d="m270 64.2099-6.4 11.0851h12.8z" fill="none"/><path d="m290 64.2099-6.4 11.0851h12.8z" fill="none"/><path d="m310 64.2099-6.4 11.0851h12.8z" fill="none"/><path d="m190 84.2099-6.4 11.0851h12.8z" fill="none"/><path d="m203.6 83.6 12.8 12.8" fill="none"/><path d="m203.6 96.4 12.8-12.8" fill="none"/><path d="m223.6 83.6 12.8 12.8" fill="none"/><path d="m223.6 96.4 12.8-12.8" fill="none"/><path d="m243.6 83.6 12.8 12.8" fill="none"/><path d="m243.6 96.4 12.8-12.8" fill="none"/><path d="m263.6 83.6 12.8 12.8" fill="none"/><path d="m263.6 96.4 12.8-12.8" fill="none"/><path d="m283.6 83.6 12.8 12.8" fill="none"/><path d="m283.6 96.4 12.8-12.8" fill="none"/><path d="m303.6 83.6 12.8 12.8" fill="none"/><path d="m303.6 96.4 12.8-12.8" fill="none"/><path d="m330 84.2099-6.4 11.0851h12.8z" fill="none"/><path d="m170 104.2099-6.4 11.0851h12.8z" fill="none"/><path d="m183.6 103.6 12.8 12.8" fill="none"/><path d="m183.6 116.4 12.8-12.8" fill="none"/><path d="m203.6 103.6 12.8 12.8" fill="none"/><path d="m203.6 116.4 12.8-12.8" fill="none"/><path d="m223.6 103.6 12.8 12.8" fill="none"/><path d="m223.6 116.4 12.8-12.8" fill="none"/><path d="m243.6 103.6 12.8 12.8" fill="none"/><path d="m243.6 116.4 12.8-12.8" fill="none"/><path d="m263.6 103.6 12.8 12.8" fill="none"/><path d="m263.6 116.4 12.8-12.8" fill="none"/><path d="m283.6 103.6 12.8 12.8" fill="none"/><path d="m283.6 116.4 12.8-12.8" fill="none"/><path d="m303.6 103.6 12.8 12.8" fill="none"/><path d="m303.6 116.4 12.8-12.8" fill="none"/><path d="m323.6 103.6 12.8 12.8" fill="none"/><path d="m323.6 116.4 12.8-12.8" fill="none"/><path d="m350 104.2099-6.4 11.0851h12.8z" fill="none"/><path d="m170 124.2099-6.4 11.0851h12.8z" fill="none"/><path d="m183.6 123.6 12.8 12.8" fill="none"/><path d="m183.6 136.4 12.8-12.8" fill="none"/><path d="m203.6 123.6 12.8 12.8" fill="none"/><path d="m203.6 136.4 12.8-12.8" fill="none"/><path d="m223.6 123.6 12.8 12.8" fill="none"/><path d="m223.6 136.4 12.8-12.8" fill="none"/><path d="m243.6 123.6 12.8 12.8" fill="none"/><path d="m243.6 136.4 12.8-12.8" fill="none"/><path d="m270 124.2099-6.4 11.0851h12.8z" fill="none"/><path d="m290 124.2099-6.4 11.0851h12.8z" fill="none"/><path d="m310 124.2099-6.4 11.0851h12.8z" fill="none"/><path d="m330 124.2099-6.4 11.0851h12.8z" fill="none"/><path d="m350 124.2099-6.4 11.0851h12.8z" fill="none"/><path d="m370 124.2099-6.4 11.0851h12.8z" fill="none"/><path d="m150 144.2099-6.4 11.0851h12.8z" fill="none"/><path d="m163.6 143.6 12.8 12.8" fill="none"/><path d="m163.6 156.4 12.8-12.8" fill="none"/><path d="m183.6 143.6 12.8 12.8" fill="none"/><path d="m183.6 156.4 12.8-12.8" fill="none"/><path d="m203.6 143.6 12.8 12.8" fill="none"/><path d="m203.6 156.4 12.8-12.8" fill="none"/><path d="m223.6 143.6 12.8 12.8" fill="none"/><path d="m223.6 156.4 12.8-12.8" fill="none"/><path d="m250 144.2099-6.4 11.0851h12.8z" fill="none"/><path d="m270 144.2099-6.4 11.0851h12.8z" stroke="none"/><path d="m290 144.2099-6.4 11.0851h12.8z" stroke="none"/><circle cx="310" cy="150" r="6.4" stroke="none"/><circle cx="330" cy="150" r="6.4" stroke="none"/><circle cx="350" cy="150" r="6.4" stroke="none"/><path d="m370 144.2099-6.4 11.0851h12.8z" stroke="none"/><path d="m390 144.2099-6.4 11.0851h12.8z" fill="none"/><path d="m150 164.2099-6.4 11.0851h12.8z" fill="none"/><path d="m163.6 163.6 12.8 12.8" fill="none"/><path d="m163.6 176.4 12.8-12.8" fill="none"/><path d="m183.6 163.6 12.8 12.8" fill="none"/><path d="m183.6 176.4 12.8-12.8" fill="none"/><path d="m203.6 163.6 12.8 12.8" fill="none"/><path d="m203.6 176.4 12.8-12.8" fill="none"/><path d="m230 164.2099-6.4 11.0851h12.8z" fill="none"/><path d="m250 164.2099-6.4 11.0851h12.8z" stroke="none"/><path d="m270 164.2099-6.4 11.0851h12.8z" stroke="none"/><path d="m290 164.2099-6.4 11.0851h12.8z" stroke="none"/><circle cx="310" cy="170" r="6.4" stroke="none"/><circle cx="330" cy="170" r="6.4" stroke="none"/><circle cx="350" cy="170" r="6.4" stroke="none"/><circle cx="370" cy="170" r="6.4" stroke="none"/><path d="m390 164.2099-6.4 11.0851h12.8z" stroke="none"/><path d="m410 164.2099-6.4 11.0851h12.8z" fill="none"/><path d="m110 184.2099-6.4 11.0851h12.8z" fill="none"/><path d="m130 184.2099-6.4 11.0851h12.8z" fill="none"/><path d="m150 184.2099-6.4 11.0851h12.8z" fill="none"/><path d="m163.6 183.6 12.8 12.8" fill="none"/><path d="m163.6 196.4 12.8-12.8" fill="none"/><path d="m183.6 183.6 12.8 12.8" fill="none"/><path d="m183.6 196.4 12.8-12.8" fill="none"/><path d="m203.6 183.6 12.8 12.8" fill="none"/><path d="m203.6 196.4 12.8-12.8" fill="none"/><path d="m230 184.2099-6.4 11.0851h12.8z" fill="none"/><path d="m250 183.6 1.8809 3.8111 4.2059.6112-3.0434 2.9666.7184 4.1888-3.7618-1.9777-3.7618 1.9777.7184-4.1888-3.0434-2.9666 4.2059-.6112z" stroke="none"/><path d="m270 183.6 1.8809 3.8111 4.2059.6112-3.0434 2.9666.7184 4.1888-3.7618-1.9777-3.7618 1.9777.7184-4.1888-3.0434-2.9666 4.2059-.6112z" stroke="none"/><path d="m290 184.2099-6.4 11.0851h12.8z" stroke="none"/><path d="m310 184.2099-6.4 11.0851h12.8z" stroke="none"/><path d="m330 184.2099-6.4 11.0851h12.8z" stroke="none"/><path d="m350 184.2099-6.4 11.0851h12.8z" stroke="none"/><path d="m370 184.2099-6.4 11.0851h12.8z" stroke="none"/><path d="m390 184.2099-6.4 11.0851h12.8z" stroke="none"/><path d="m410 184.2099-6.4 11.0851h12.8z" fill="none"/><path d="m90 204.2099-6.4 11.0851h12.8z" fill="none"/><path d="m103.6 203.6 12.8 12.8" fill="none"/><path d="m103.6 216.4 12.8-12.8" fill="none"/><path d="m123.6 203.6 12.8 12.8" fill="none"/><path d="m123.6 216.4 12.8-12.8" fill="none"/><path d="m150 204.2099-6.4 11.0851h12.8z" fill="none"/><path d="m163.6 203.6 12.8 12.8" fill="none"/><path d="m163.6 216.4 12.8-12.8" fill="none"/><path d="m183.6 203.6 12.8 12.8" fill="none"/><path d="m183.6 216.4 12.8-12.8" fill="none"/><path d="m203.6 203.6 12.8 12.8" fill="none"/><path d="m203.6 216.4 12.8-12.8" fill="none"/><path d="m230 204.2099-6.4 11.0851h12.8z" fill="none"/><path d="m250 203.6 1.8809 3.8111 4.2059.6112-3.0434 2.9666.7184 4.1888-3.7618-1.9777-3.7618 1.9777.7184-4.1888-3.0434-2.9666 4.2059-.6112z" stroke="none"/><path d="m270 203.6 1.8809 3.8111 4.2059.6112-3.0434 2.9666.7184 4.1888-3.7618-1.9777-3.7618 1.9777.7184-4.1888-3.0434-2.9666 4.2059-.6112z" stroke="none"/><path d="m290 203.6 1.8809 3.8111 4.2059.6112-3.0434 2.9666.7184 4.1888-3.7618-1.9777-3.7618 1.9777.7184-4.1888-3.0434-2.9666 4.2059-.6112z" stroke="none"/><path d="m310 203.6 1.8809 3.8111 4.2059.6112-3.0434 2.9666.7184 4.1888-3.7618-1.9777-3.7618 1.9777.7184-4.1888-3.0434-2.9666 4.2059-.6112z" stroke="none"/><path d="m330 203.6 1.8809 3.8111 4.2059.6112-3.0434 2.9666.7184 4.1888-3.7618-1.9777-3.7618 1.9777.7184-4.1888-3.0434-2.9666 4.2059-.6112z" stroke="none"/><path d="m350 203.6 1.8809 3.8111 4.2059.6112-3.0434 2.9666.7184 4.1888-3.7618-1.9777-3.7618 1.9777.7184-4.1888-3.0434-2.9666 4.2059-.6112z" stroke="none"/><path d="m370 203.6 1.8809 3.8111 4.2059.6112-3.0434 2.9666.7184 4.1888-3.7618-1.9777-3.7618 1.9777.7184-4.1888-3.0434-2.9666 4.2059-.6112z" stroke="none"/><path d="m390 203.6 1.8809 3.8111 4.2059.6112-3.0434 2.9666.7184 4.1888-3.7618-1.9777-3.7618 1.9777.7184-4.1888-3.0434-2.9666 4.2059-.6112z" stroke="none"/><path d="m410 204.2099-6.4 11.0851h12.8z" fill="none"/><path d="m90 224.2099-6.4 11.0851h12.8z" fill="none"/><path d="m103.6 223.6 12.8 12.8" fill="none"/><path d="m103.6 236.4 12.8-12.8" fill="none"/><circle cx="130" cy="230" fill="none" r="6.4"/><path d="m150 224.2099-6.4 11.0851h12.8z" fill="none"/><circle cx="170" cy="230" fill="none" r="6.4"/><path d="m183.6 223.6 12.8 12.8" fill="none"/><path d="m183.6 236.4 12.8-12.8" fill="none"/><path d="m203.6 223.6 12.8 12.8" fill="none"/><path d="m203.6 236.4 12.8-12.8" fill="none"/><path d="m223.6 223.6 12.8 12.8" fill="none"/><path d="m223.6 236.4 12.8-12.8" fill="none"/><path d="m250 224.2099-6.4 11.0851h12.8z" fill="none"/><path d="m270 223.6 1.8809 3.8111 4.2059.6112-3.0434 2.9666.7184 4.1888-3.7618-1.9777-3.7618 1.9777.7184-4.1888-3.0434-2.9666 4.2059-.6112z" stroke="none"/><path d="m290 223.6 1.8809 3.8111 4.2059.6112-3.0434 2.9666.7184 4.1888-3.7618-1.9777-3.7618 1.9777.7184-4.1888-3.0434-2.9666 4.2059-.6112z" stroke="none"/><path d="m310 223.6 1.8809 3.8111 4.2059.6112-3.0434 2.9666.7184 4.1888-3.7618-1.9777-3.7618 1.9777.7184-4.1888-3.0434-2.9666 4.2059-.6112z" stroke="none"/><path d="m330 223.6 1.8809 3.8111 4.2059.6112-3.0434 2.9666.7184 4.1888-3.7618-1.9777-3.7618 1.9777.7184-4.1888-3.0434-2.9666 4.2059-.6112z" stroke="none"/><path d="m350 223.6 1.8809 3.8111 4.2059.6112-3.0434 2.9666.7184 4.1888-3.7618-1.9777-3.7618 1.9777.7184-4.1888-3.0434-2.9666 4.2059-.6112z" stroke="none"/><path d="m370 223.6 1.8809 3.8111 4.2059.6112-3.0434 2.9666.7184 4.1888-3.7618-1.9777-3.7618 1.9777.7184-4.1888-3.0434-2.9666 4.2059-.6112z" stroke="none"/><g fill="none"><path d="m390 224.2099-6.4 11.0851h12.8z"/><path d="m90 244.2099-6.4 11.0851h12.8z"/><circle cx="110" cy="250" r="6.4"/><circle cx="130" cy="250" r="6.4"/><path d="m150 244.2099-6.4 11.0851h12.8z"/><circle cx="170" cy="250" r="6.4"/><path d="m183.6 243.6 12.8 12.8"/><path d="m183.6 256.4 12.8-12.8"/><path d="m203.6 243.6 12.8 12.8"/><path d="m203.6 256.4 12.8-12.8"/><path d="m223.6 243.6 12.8 12.8"/><path d="m223.6 256.4 12.8-12.8"/><path d="m243.6 243.6 12.8 12.8"/><path d="m243.6 256.4 12.8-12.8"/><path d="m270 244.2099-6.4 11.0851h12.8z"/><path d="m290 244.2099-6.4 11.0851h12.8z"/><path d="m310 244.2099-6.4 11.0851h12.8z"/><path d="m330 244.2099-6.4 11.0851h12.8z"/><path d="m350 244.2099-6.4 11.0851h12.8z"/><path d="m370 244.2099-6.4 11.0851h12.8z"/><path d="m90 264.2099-6.4 11.0851h12.8z"/><circle cx="110" cy="270" r="6.4"/><circle cx="130" cy="270" r="6.4"/><path d="m150 264.2099-6.4 11.0851h12.8z"/><circle cx="170" cy="270" r="6.4"/><path d="m183.6 263.6 12.8 12.8"/><path d="m183.6 276.4 12.8-12.8"/><path d="m203.6 263.6 12.8 12.8"/><path d="m203.6 276.4 12.8-12.8"/><path d="m223.6 263.6 12.8 12.8"/><path d="m223.6 276.4 12.8-12.8"/><path d="m243.6 263.6 12.8 12.8"/><path d="m243.6 276.4 12.8-12.8"/><path d="m263.6 263.6 12.8 12.8"/><path d="m263.6 276.4 12.8-12.8"/><path d="m283.6 263.6 12.8 12.8"/><path d="m283.6 276.4 12.8-12.8"/><path d="m303.6 263.6 12.8 12.8"/><path d="m303.6 276.4 12.8-12.8"/><path d="m323.6 263.6 12.8 12.8"/><path d="m323.6 276.4 12.8-12.8"/><path d="m343.6 263.6 12.8 12.8"/><path d="m343.6 276.4 12.8-12.8"/><path d="m370 264.2099-6.4 11.0851h12.8z"/><path d="m90 284.2099-6.4 11.0851h12.8z"/><circle cx="110" cy="290" r="6.4"/><circle cx="130" cy="290" r="6.4"/><path d="m150 284.2099-6.4 11.0851h12.8z"/><circle cx="170" cy="290" r="6.4"/><circle cx="190" cy="290" r="6.4"/><path d="m203.6 283.6 12.8 12.8"/><path d="m203.6 296.4 12.8-12.8"/><path d="m223.6 283.6 12.8 12.8"/><path d="m223.6 296.4 12.8-12.8"/><path d="m243.6 283.6 12.8 12.8"/><path d="m243.6 296.4 12.8-12.8"/><path d="m263.6 283.6 12.8 12.8"/><path d="m263.6 296.4 12.8-12.8"/><path d="m283.6 283.6 12.8 12.8"/><path d="m283.6 296.4 12.8-12.8"/><path d="m303.6 283.6 12.8 12.8"/><path d="m303.6 296.4 12.8-12.8"/><path d="m323.6 283.6 12.8 12.8"/><path d="m323.6 296.4 12.8-12.8"/><path d="m343.6 283.6 12.8 12.8"/><path d="m343.6 296.4 12.8-12.8"/><path d="m370 284.2099-6.4 11.0851h12.8z"/><path d="m90 304.2099-6.4 11.0851h12.8z"/><circle cx="110" cy="310" r="6.4"/><circle cx="130" cy="310" r="6.4"/><path d="m150 304.2099-6.4 11.0851h12.8z"/><circle cx="170" cy="310" r="6.4"/><circle cx="190" cy="310" r="6.4"/><path d="m203.6 303.6 12.8 12.8"/><path d="m203.6 316.4 12.8-12.8"/><path d="m223.6 303.6 12.8 12.8"/><path d="m223.6 316.4 12.8-12.8"/><path d="m243.6 303.6 12.8 12.8"/><path d="m243.6 316.4 12.8-12.8"/><path d="m263.6 303.6 12.8 12.8"/><path d="m263.6 316.4 12.8-12.8"/><path d="m283.6 303.6 12.8 12.8"/><path d="m283.6 316.4 12.8-12.8"/><path d="m303.6 303.6 12.8 12.8"/><path d="m303.6 316.4 12.8-12.8"/><path d="m323.6 303.6 12.8 12.8"/><path d="m323.6 316.4 12.8-12.8"/><circle cx="350" cy="310" r="6.4"/><path d="m370 304.2099-6.4 11.0851h12.8z"/><path d="m90 324.2099-6.4 11.0851h12.8z"/><circle cx="110" cy="330" r="6.4"/><circle cx="130" cy="330" r="6.4"/><path d="m150 324.2099-6.4 11.0851h12.8z"/><circle cx="170" cy="330" r="6.4"/><circle cx="190" cy="330" r="6.4"/><circle cx="210" cy="330" r="6.4"/><path d="m223.6 323.6 12.8 12.8"/><path d="m223.6 336.4 12.8-12.8"/><path d="m243.6 323.6 12.8 12.8"/><path d="m243.6 336.4 12.8-12.8"/><path d="m263.6 323.6 12.8 12.8"/><path d="m263.6 336.4 12.8-12.8"/><path d="m283.6 323.6 12.8 12.8"/><path d="m283.6 336.4 12.8-12.8"/><path d="m303.6 323.6 12.8 12.8"/><path d="m303.6 336.4 12.8-12.8"/><circle cx="330" cy="330" r="6.4"/><circle cx="350" cy="330" r="6.4"/><path d="m370 324.2099-6.4 11.0851h12.8z"/><path d="m90 344.2099-6.4 11.0851h12.8z"/><circle cx="110" cy="350" r="6.4"/><circle cx="130" cy="350" r="6.4"/><path d="m150 344.2099-6.4 11.0851h12.8z"/><circle cx="170" cy="350" r="6.4"/><circle cx="190" cy="350" r="6.4"/><circle cx="210" cy="350" r="6.4"/><circle cx="230" cy="350" r="6.4"/><circle cx="250" cy="350" r="6.4"/><circle cx="270" cy="350" r="6.4"/><circle cx="290" cy="350" r="6.4"/><circle cx="310" cy="350" r="6.4"/><circle cx="330" cy="350" r="6.4"/><circle cx="350" cy="350" r="6.4"/><path d="m370 344.2099-6.4 11.0851h12.8z"/><path d="m110 364.2099-6.4 11.0851h12.8z"/><path d="m130 364.2099-6.4 11.0851h12.8z"/><path d="m150 364.2099-6.4 11.0851h12.8z"/><circle cx="170" cy="370" r="6.4"/><circle cx="190" cy="370" r="6.4"/><circle cx="210" cy="370" r="6.4"/><circle cx="230" cy="370" r="6.4"/><circle cx="250" cy="370" r="6.4"/><path d="m270 364.2099-6.4 11.0851h12.8z"/><path d="m290 364.2099-6.4 11.0851h12.8z"/><path d="m310 364.2099-6.4 11.0851h12.8z"/><circle cx="330" cy="370" r="6.4"/><circle cx="350" cy="370" r="6.4"/><path d="m370 364.2099-6.4 11.0851h12.8z"/><path d="m150 384.2099-6.4 11.0851h12.8z"/><circle cx="170" cy="390" r="6.4"/><circle cx="190" cy="390" r="6.4"/><circle cx="210" cy="390" r="6.4"/><circle cx="230" cy="390" r="6.4"/><path d="m250 384.2099-6.4 11.0851h12.8z"/><path d="m290 384.2099-6.4 11.0851h12.8z"/><circle cx="310" cy="390" r="6.4"/><circle cx="330" cy="390" r="6.4"/><path d="m350 384.2099-6.4 11.0851h12.8z"/><path d="m170 404.2099-6.4 11.0851h12.8z"/><circle cx="190" cy="410" r="6.4"/><circle cx="210" cy="410" r="6.4"/><circle cx="230" cy="410" r="6.4"/><path d="m250 404.2099-6.4 11.0851h12.8z"/><path d="m290 404.2099-6.4 11.0851h12.8z"/><circle cx="310" cy="410" r="6.4"/><circle cx="330" cy="410" r="6.4"/><path d="m350 404.2099-6.4 11.0851h12.8z"/><path d="m190 424.2099-6.4 11.0851h12.8z"/><path d="m210 424.2099-6.4 11.0851h12.8z"/><path d="m230 424.2099-6.4 11.0851h12.8z"/><path d="m310 424.2099-6.4 11.0851h12.8z"/><path d="m330 424.2099-6.4 11.0851h12.8z"/><path d="m0 0v480" stroke="#b4b4b4" stroke-width="3"/><path d="m20 0v480" stroke="#b4b4b4" stroke-width="1.5"/><path d="m40 0v480" stroke="#b4b4b4" stroke-width="1.5"/><path d="m60 0v480" stroke="#b4b4b4" stroke-width="1.5"/><path d="m80 0v480" stroke="#b4b4b4" stroke-width="1.5"/><path d="m100 0v480" stroke="#b4b4b4" stroke-width="1.5"/><path d="m120 0v480" stroke="#b4b4b4" stroke-width="1.5"/><path d="m140 0v480" stroke="#b4b4b4" stroke-width="1.5"/><path d="m160 0v480" stroke="#b4b4b4" stroke-width="1.5"/><path d="m180 0v480" stroke="#b4b4b4" stroke-width="1.5"/><path d="m200 0v480" stroke="#b4b4b4" stroke-width="1.5"/><path d="m220 0v480" stroke="#b4b4b4" stroke-width="1.5"/><path d="m240 0v480" stroke="#b4b4b4" stroke-width="1.5"/><path d="m260 0v480" stroke="#b4b4b4" stroke-width="1.5"/><path d="m280 0v480" stroke="#b4b4b4" stroke-width="1.5"/><path d="m300 0v480" stroke="#b4b4b4" stroke-width="1.5"/><path d="m320 0v480" stroke="#b4b4b4" stroke-width="1.5"/><path d="m340 0v480" stroke="#b4b4b4" stroke-width="1.5"/><path d="m360 0v480" stroke="#b4b4b4" stroke-width="1.5"/><path d="m380 0v480" stroke="#b4b4b4" stroke-width="1.5"/><path d="m400 0v480" stroke="#b4b4b4" stroke-width="1.5"/><path d="m420 0v480" stroke="#b4b4b4" stroke-width="1.5"/><path d="m440 0v480" stroke="#b4b4b4" stroke-width="1.5"/><path d="m460 0v480" stroke="#b4b4b4" stroke-width="1.5"/><path d="m480 0v480" stroke="#b4b4b4" stroke-width="3"/><path d="m0 0h480" stroke="#b4b4b4" stroke-width="3"/><path d="m0 20h480" stroke="#b4b4b4" stroke-width="1.5"/><path d="m0 40h480" stroke="#b4b4b4" stroke-width="1.5"/><path d="m0 60h480" stroke="#b4b4b4" stroke-width="1.5"/><path d="m0 80h480" stroke="#b4b4b4" stroke-width="1.5"/><path d="m0 100h480" stroke="#b4b4b4" stroke-width="1.5"/><path d="m0 120h480" stroke="#b4b4b4" stroke-width="1.5"/><path d="m0 140h480" stroke="#b4b4b4" stroke-width="1.5"/><path d="m0 160h480" stroke="#b4b4b4" stroke-width="1.5"/><path d="m0 180h480" stroke="#b4b4b4" stroke-width="1.5"/><path d="m0 200h480" stroke="#b4b4b4" stroke-width="1.5"/><path d="m0 220h480" stroke="#b4b4b4" stroke-width="1.5"/><path d="m0 240h480" stroke="#b4b4b4" stroke-width="1.5"/><path d="m0 260h480" stroke="#b4b4b4" stroke-width="1.5"/><path d="m0 280h480" stroke="#b4b4b4" stroke-width="1.5"/><path d="m0 300h480" stroke="#b4b4b4" stroke-width="1.5"/><path d="m0 320h480" stroke="#b4b4b4" stroke-width="1.5"/><path d="m0 340h480" stroke="#b4b4b4" stroke-width="1.5"/><path d="m0 360h480" stroke="#b4b4b4" stroke-width="1.5"/><path d="m0 380h480" stroke="#b4b4b4" stroke-width="1.5"/><path d="m0 400h480" stroke="#b4b4b4" stroke-width="1.5"/><path d="m0 420h480" stroke="#b4b4b4" stroke-width="1.5"/><path d="m0 440h480" stroke="#b4b4b4" stroke-width="1.5"/><path d="m0 460h480" stroke="#b4b4b4" stroke-width="1.5"/><path d="m0 480h480" stroke="#b4b4b4" stroke-width="3"/></g></g></g></svg>