<svg color-interpolation="auto" height="480" stroke="#000" stroke-linecap="square" stroke-miterlimit="10" width="480" xmlns="http://www.w3.org/2000/svg"><g stroke-linecap="round" stroke-width="2"><path d="m210 63.6 6.4 6.4-6.4 6.4-6.4-6.4z" fill="none"/><g><path d="m230 63.6 6.4 6.4-6.4 6.4-6.4-6.4z" fill="none"/><path d="m250 63.6 6.4 6.4-6.4 6.4-6.4-6.4z" fill="none"/><path d="m270 63.6 6.4 6.4-6.4 6.4-6.4-6.4z" fill="none"/><path d="m290 63.6 6.4 6.4-6.4 6.4-6.4-6.4z" fill="none"/><path d="m310 63.6 6.4 6.4-6.4 6.4-6.4-6.4z" fill="none"/><path d="m190 83.6 6.4 6.4-6.4 6.4-6.4-6.4z" fill="none"/><path d="m210 84.2099-6.4 11.0851h12.8z" fill="none"/><path d="m230 84.2099-6.4 11.0851h12.8z" fill="none"/><path d="m250 84.2099-6.4 11.0851h12.8z" fill="none"/><path d="m270 84.2099-6.4 11.0851h12.8z" fill="none"/><path d="m290 84.2099-6.4 11.0851h12.8z" fill="none"/><path d="m310 84.2099-6.4 11.0851h12.8z" fill="none"/><path d="m330 83.6 6.4 6.4-6.4 6.4-6.4-6.4z" fill="none"/><path d="m170 103.6 6.4 6.4-6.4 6.4-6.4-6.4z" fill="none"/><path d="m190 104.2099-6.4 11.0851h12.8z" fill="none"/><path d="m210 104.2099-6.4 11.0851h12.8z" fill="none"/><path d="m230 104.2099-6.4 11.0851h12.8z" fill="none"/><path d="m250 104.2099-6.4 11.0851h12.8z" fill="none"/><path d="m270 104.2099-6.4 11.0851h12.8z" fill="none"/><path d="m290 104.2099-6.4 11.0851h12.8z" fill="none"/><path d="m310 104.2099-6.4 11.0851h12.8z" fill="none"/><path d="m330 104.2099-6.4 11.0851h12.8z" fill="none"/><path d="m350 103.6 6.4 6.4-6.4 6.4-6.4-6.4z" fill="none"/><path d="m170 123.6 6.4 6.4-6.4 6.4-6.4-6.4z" fill="none"/><path d="m190 124.2099-6.4 11.0851h12.8z" fill="none"/><path d="m210 124.2099-6.4 11.0851h12.8z" fill="none"/><path d="m230 124.2099-6.4 11.0851h12.8z" fill="none"/><path d="m250 124.2099-6.4 11.0851h12.8z" fill="none"/><path d="m270 123.6 6.4 6.4-6.4 6.4-6.4-6.4z" fill="none"/><path d="m290 123.6 6.4 6.4-6.4 6.4-6.4-6.4z" fill="none"/><path d="m310 123.6 6.4 6.4-6.4 6.4-6.4-6.4z" fill="none"/><path d="m330 123.6 6.4 6.4-6.4 6.4-6.4-6.4z" fill="none"/><path d="m350 123.6 6.4 6.4-6.4 6.4-6.4-6.4z" fill="none"/><path d="m370 123.6 6.4 6.4-6.4 6.4-6.4-6.4z" fill="none"/><path d="m150 143.6 6.4 6.4-6.4 6.4-6.4-6.4z" fill="none"/><path d="m170 144.2099-6.4 11.0851h12.8z" fill="none"/><path d="m190 144.2099-6.4 11.0851h12.8z" fill="none"/><path d="m210 144.2099-6.4 11.0851h12.8z" fill="none"/><path d="m230 144.2099-6.4 11.0851h12.8z" fill="none"/><path d="m250 143.6 6.4 6.4-6.4 6.4-6.4-6.4z" fill="none"/><path d="m263.6 143.6h12.8v12.8h-12.8z" stroke="none"/><path d="m283.6 143.6h12.8v12.8h-12.8z" stroke="none"/><path d="m310 143.6 6.4 6.4-6.4 6.4-6.4-6.4z" stroke="none"/><path d="m330 143.6 6.4 6.4-6.4 6.4-6.4-6.4z" stroke="none"/><path d="m350 143.6 6.4 6.4-6.4 6.4-6.4-6.4z" stroke="none"/><path d="m363.6 143.6h12.8v12.8h-12.8z" stroke="none"/><path d="m390 143.6 6.4 6.4-6.4 6.4-6.4-6.4z" fill="none"/><path d="m150 163.6 6.4 6.4-6.4 6.4-6.4-6.4z" fill="none"/><path d="m170 164.2099-6.4 11.0851h12.8z" fill="none"/><path d="m190 164.2099-6.4 11.0851h12.8z" fill="none"/><path d="m210 164.2099-6.4 11.0851h12.8z" fill="none"/><path d="m230 163.6 6.4 6.4-6.4 6.4-6.4-6.4z" fill="none"/><path d="m243.6 163.6h12.8v12.8h-12.8z" stroke="none"/><path d="m263.6 163.6h12.8v12.8h-12.8z" stroke="none"/><path d="m283.6 163.6h12.8v12.8h-12.8z" stroke="none"/><path d="m310 163.6 6.4 6.4-6.4 6.4-6.4-6.4z" stroke="none"/><path d="m330 163.6 6.4 6.4-6.4 6.4-6.4-6.4z" stroke="none"/><path d="m350 163.6 6.4 6.4-6.4 6.4-6.4-6.4z" stroke="none"/><path d="m370 163.6 6.4 6.4-6.4 6.4-6.4-6.4z" stroke="none"/><path d="m383.6 163.6h12.8v12.8h-12.8z" stroke="none"/><path d="m410 163.6 6.4 6.4-6.4 6.4-6.4-6.4z" fill="none"/><path d="m110 183.6 6.4 6.4-6.4 6.4-6.4-6.4z" fill="none"/><path d="m130 183.6 6.4 6.4-6.4 6.4-6.4-6.4z" fill="none"/><path d="m150 183.6 6.4 6.4-6.4 6.4-6.4-6.4z" fill="none"/><path d="m170 184.2099-6.4 11.0851h12.8z" fill="none"/><path d="m190 184.2099-6.4 11.0851h12.8z" fill="none"/><path d="m210 184.2099-6.4 11.0851h12.8z" fill="none"/><path d="m230 183.6 6.4 6.4-6.4 6.4-6.4-6.4z" fill="none"/><circle cx="250" cy="190" r="6.4" stroke="none"/><circle cx="270" cy="190" r="6.4" stroke="none"/><path d="m283.6 183.6h12.8v12.8h-12.8z" stroke="none"/><path d="m303.6 183.6h12.8v12.8h-12.8z" stroke="none"/><path d="m323.6 183.6h12.8v12.8h-12.8z" stroke="none"/><path d="m343.6 183.6h12.8v12.8h-12.8z" stroke="none"/><path d="m363.6 183.6h12.8v12.8h-12.8z" stroke="none"/><path d="m383.6 183.6h12.8v12.8h-12.8z" stroke="none"/><path d="m410 183.6 6.4 6.4-6.4 6.4-6.4-6.4z" fill="none"/><path d="m90 203.6 6.4 6.4-6.4 6.4-6.4-6.4z" fill="none"/><path d="m110 204.2099-6.4 11.0851h12.8z" fill="none"/><path d="m130 204.2099-6.4 11.0851h12.8z" fill="none"/><path d="m150 203.6 6.4 6.4-6.4 6.4-6.4-6.4z" fill="none"/><path d="m170 204.2099-6.4 11.0851h12.8z" fill="none"/><path d="m190 204.2099-6.4 11.0851h12.8z" fill="none"/><path d="m210 204.2099-6.4 11.0851h12.8z" fill="none"/><path d="m230 203.6 6.4 6.4-6.4 6.4-6.4-6.4z" fill="none"/><circle cx="250" cy="210" r="6.4" stroke="none"/><circle cx="270" cy="210" r="6.4" stroke="none"/><circle cx="290" cy="210" r="6.4" stroke="none"/><circle cx="310" cy="210" r="6.4" stroke="none"/><circle cx="330" cy="210" r="6.4" stroke="none"/><circle cx="350" cy="210" r="6.4" stroke="none"/><circle cx="370" cy="210" r="6.4" stroke="none"/><circle cx="390" cy="210" r="6.4" stroke="none"/><path d="m410 203.6 6.4 6.4-6.4 6.4-6.4-6.4z" fill="none"/><path d="m90 223.6 6.4 6.4-6.4 6.4-6.4-6.4z" fill="none"/><path d="m110 224.2099-6.4 11.0851h12.8z" fill="none"/><path d="m123.6 223.6h12.8v12.8h-12.8z" fill="none"/><path d="m150 223.6 6.4 6.4-6.4 6.4-6.4-6.4z" fill="none"/><path d="m163.6 223.6h12.8v12.8h-12.8z" fill="none"/><path d="m190 224.2099-6.4 11.0851h12.8z" fill="none"/><path d="m210 224.2099-6.4 11.0851h12.8z" fill="none"/><path d="m230 224.2099-6.4 11.0851h12.8z" fill="none"/><path d="m250 223.6 6.4 6.4-6.4 6.4-6.4-6.4z" fill="none"/><circle cx="270" cy="230" r="6.4" stroke="none"/><circle cx="290" cy="230" r="6.4" stroke="none"/><circle cx="310" cy="230" r="6.4" stroke="none"/><circle cx="330" cy="230" r="6.4" stroke="none"/><circle cx="350" cy="230" r="6.4" stroke="none"/><circle cx="370" cy="230" r="6.4" stroke="none"/><g fill="none"><path d="m390 223.6 6.4 6.4-6.4 6.4-6.4-6.4z"/><path d="m90 243.6 6.4 6.4-6.4 6.4-6.4-6.4z"/><path d="m103.6 243.6h12.8v12.8h-12.8z"/><path d="m123.6 243.6h12.8v12.8h-12.8z"/><path d="m150 243.6 6.4 6.4-6.4 6.4-6.4-6.4z"/><path d="m163.6 243.6h12.8v12.8h-12.8z"/><path d="m190 244.2099-6.4 11.0851h12.8z"/><path d="m210 244.2099-6.4 11.0851h12.8z"/><path d="m230 244.2099-6.4 11.0851h12.8z"/><path d="m250 244.2099-6.4 11.0851h12.8z"/><path d="m270 243.6 6.4 6.4-6.4 6.4-6.4-6.4z"/><path d="m290 243.6 6.4 6.4-6.4 6.4-6.4-6.4z"/><path d="m310 243.6 6.4 6.4-6.4 6.4-6.4-6.4z"/><path d="m330 243.6 6.4 6.4-6.4 6.4-6.4-6.4z"/><path d="m350 243.6 6.4 6.4-6.4 6.4-6.4-6.4z"/><path d="m370 243.6 6.4 6.4-6.4 6.4-6.4-6.4z"/><path d="m90 263.6 6.4 6.4-6.4 6.4-6.4-6.4z"/><path d="m103.6 263.6h12.8v12.8h-12.8z"/><path d="m123.6 263.6h12.8v12.8h-12.8z"/><path d="m150 263.6 6.4 6.4-6.4 6.4-6.4-6.4z"/><path d="m163.6 263.6h12.8v12.8h-12.8z"/><path d="m190 264.2099-6.4 11.0851h12.8z"/><path d="m210 264.2099-6.4 11.0851h12.8z"/><path d="m230 264.2099-6.4 11.0851h12.8z"/><path d="m250 264.2099-6.4 11.0851h12.8z"/><path d="m270 264.2099-6.4 11.0851h12.8z"/><path d="m290 264.2099-6.4 11.0851h12.8z"/><path d="m310 264.2099-6.4 11.0851h12.8z"/><path d="m330 264.2099-6.4 11.0851h12.8z"/><path d="m350 264.2099-6.4 11.0851h12.8z"/><path d="m370 263.6 6.4 6.4-6.4 6.4-6.4-6.4z"/><path d="m90 283.6 6.4 6.4-6.4 6.4-6.4-6.4z"/><path d="m103.6 283.6h12.8v12.8h-12.8z"/><path d="m123.6 283.6h12.8v12.8h-12.8z"/><path d="m150 283.6 6.4 6.4-6.4 6.4-6.4-6.4z"/><path d="m163.6 283.6h12.8v12.8h-12.8z"/><path d="m183.6 283.6h12.8v12.8h-12.8z"/><path d="m210 284.2099-6.4 11.0851h12.8z"/><path d="m230 284.2099-6.4 11.0851h12.8z"/><path d="m250 284.2099-6.4 11.0851h12.8z"/><path d="m270 284.2099-6.4 11.0851h12.8z"/><path d="m290 284.2099-6.4 11.0851h12.8z"/><path d="m310 284.2099-6.4 11.0851h12.8z"/><path d="m330 284.2099-6.4 11.0851h12.8z"/><path d="m350 284.2099-6.4 11.0851h12.8z"/><path d="m370 283.6 6.4 6.4-6.4 6.4-6.4-6.4z"/><path d="m90 303.6 6.4 6.4-6.4 6.4-6.4-6.4z"/><path d="m103.6 303.6h12.8v12.8h-12.8z"/><path d="m123.6 303.6h12.8v12.8h-12.8z"/><path d="m150 303.6 6.4 6.4-6.4 6.4-6.4-6.4z"/><path d="m163.6 303.6h12.8v12.8h-12.8z"/><path d="m183.6 303.6h12.8v12.8h-12.8z"/><path d="m210 304.2099-6.4 11.0851h12.8z"/><path d="m230 304.2099-6.4 11.0851h12.8z"/><path d="m250 304.2099-6.4 11.0851h12.8z"/><path d="m270 304.2099-6.4 11.0851h12.8z"/><path d="m290 304.2099-6.4 11.0851h12.8z"/><path d="m310 304.2099-6.4 11.0851h12.8z"/><path d="m330 304.2099-6.4 11.0851h12.8z"/><path d="m343.6 303.6h12.8v12.8h-12.8z"/><path d="m370 303.6 6.4 6.4-6.4 6.4-6.4-6.4z"/><path d="m90 323.6 6.4 6.4-6.4 6.4-6.4-6.4z"/><path d="m103.6 323.6h12.8v12.8h-12.8z"/><path d="m123.6 323.6h12.8v12.8h-12.8z"/><path d="m150 323.6 6.4 6.4-6.4 6.4-6.4-6.4z"/><path d="m163.6 323.6h12.8v12.8h-12.8z"/><path d="m183.6 323.6h12.8v12.8h-12.8z"/><path d="m203.6 323.6h12.8v12.8h-12.8z"/><path d="m230 324.2099-6.4 11.0851h12.8z"/><path d="m250 324.2099-6.4 11.0851h12.8z"/><path d="m270 324.2099-6.4 11.0851h12.8z"/><path d="m290 324.2099-6.4 11.0851h12.8z"/><path d="m310 324.2099-6.4 11.0851h12.8z"/><path d="m323.6 323.6h12.8v12.8h-12.8z"/><path d="m343.6 323.6h12.8v12.8h-12.8z"/><path d="m370 323.6 6.4 6.4-6.4 6.4-6.4-6.4z"/><path d="m90 343.6 6.4 6.4-6.4 6.4-6.4-6.4z"/><path d="m103.6 343.6h12.8v12.8h-12.8z"/><path d="m123.6 343.6h12.8v12.8h-12.8z"/><path d="m150 343.6 6.4 6.4-6.4 6.4-6.4-6.4z"/><path d="m163.6 343.6h12.8v12.8h-12.8z"/><path d="m183.6 343.6h12.8v12.8h-12.8z"/><path d="m203.6 343.6h12.8v12.8h-12.8z"/><path d="m223.6 343.6h12.8v12.8h-12.8z"/><path d="m243.6 343.6h12.8v12.8h-12.8z"/><path d="m263.6 343.6h12.8v12.8h-12.8z"/><path d="m283.6 343.6h12.8v12.8h-12.8z"/><path d="m303.6 343.6h12.8v12.8h-12.8z"/><path d="m323.6 343.6h12.8v12.8h-12.8z"/><path d="m343.6 343.6h12.8v12.8h-12.8z"/><path d="m370 343.6 6.4 6.4-6.4 6.4-6.4-6.4z"/><path d="m110 363.6 6.4 6.4-6.4 6.4-6.4-6.4z"/><path d="m130 363.6 6.4 6.4-6.4 6.4-6.4-6.4z"/><path d="m150 363.6 6.4 6.4-6.4 6.4-6.4-6.4z"/><path d="m163.6 363.6h12.8v12.8h-12.8z"/><path d="m183.6 363.6h12.8v12.8h-12.8z"/><path d="m203.6 363.6h12.8v12.8h-12.8z"/><path d="m223.6 363.6h12.8v12.8h-12.8z"/><path d="m243.6 363.6h12.8v12.8h-12.8z"/><path d="m270 363.6 6.4 6.4-6.4 6.4-6.4-6.4z"/><path d="m290 363.6 6.4 6.4-6.4 6.4-6.4-6.4z"/><path d="m310 363.6 6.4 6.4-6.4 6.4-6.4-6.4z"/><path d="m323.6 363.6h12.8v12.8h-12.8z"/><path d="m343.6 363.6h12.8v12.8h-12.8z"/><path d="m370 363.6 6.4 6.4-6.4 6.4-6.4-6.4z"/><path d="m150 383.6 6.4 6.4-6.4 6.4-6.4-6.4z"/><path d="m163.6 383.6h12.8v12.8h-12.8z"/><path d="m183.6 383.6h12.8v12.8h-12.8z"/><path d="m203.6 383.6h12.8v12.8h-12.8z"/><path d="m223.6 383.6h12.8v12.8h-12.8z"/><path d="m250 383.6 6.4 6.4-6.4 6.4-6.4-6.4z"/><path d="m290 383.6 6.4 6.4-6.4 6.4-6.4-6.4z"/><path d="m303.6 383.6h12.8v12.8h-12.8z"/><path d="m323.6 383.6h12.8v12.8h-12.8z"/><path d="m350 383.6 6.4 6.4-6.4 6.4-6.4-6.4z"/><path d="m170 403.6 6.4 6.4-6.4 6.4-6.4-6.4z"/><path d="m183.6 403.6h12.8v12.8h-12.8z"/><path d="m203.6 403.6h12.8v12.8h-12.8z"/><path d="m223.6 403.6h12.8v12.8h-12.8z"/><path d="m250 403.6 6.4 6.4-6.4 6.4-6.4-6.4z"/><path d="m290 403.6 6.4 6.4-6.4 6.4-6.4-6.4z"/><path d="m303.6 403.6h12.8v12.8h-12.8z"/><path d="m323.6 403.6h12.8v12.8h-12.8z"/><path d="m350 403.6 6.4 6.4-6.4 6.4-6.4-6.4z"/><path d="m190 423.6 6.4 6.4-6.4 6.4-6.4-6.4z"/><path d="m210 423.6 6.4 6.4-6.4 6.4-6.4-6.4z"/><path d="m230 423.6 6.4 6.4-6.4 6.4-6.4-6.4z"/><path d="m310 423.6 6.4 6.4-6.4 6.4-6.4-6.4z"/><path d="m330 423.6 6.4 6.4-6.4 6.4-6.4-6.4z"/><path d="m0 0v480" stroke="#b4b4b4"/><path d="m20 0v480" stroke="#b4b4b4" stroke-width="1"/><path d="m40 0v480" stroke="#b4b4b4" stroke-width="1"/><path d="m60 0v480" stroke="#b4b4b4" stroke-width="1"/><path d="m80 0v480" stroke="#b4b4b4" stroke-width="1"/><path d="m100 0v480" stroke="#b4b4b4" stroke-width="1"/><path d="m120 0v480" stroke="#b4b4b4" stroke-width="1"/><path d="m140 0v480" stroke="#b4b4b4" stroke-width="1"/><path d="m160 0v480" stroke="#b4b4b4" stroke-width="1"/><path d="m180 0v480" stroke="#b4b4b4" stroke-width="1"/><path d="m200 0v480" stroke="#b4b4b4" stroke-width="1"/><path d="m220 0v480" stroke="#b4b4b4" stroke-width="1"/><path d="m240 0v480" stroke="#b4b4b4" stroke-width="1"/><path d="m260 0v480" stroke="#b4b4b4" stroke-width="1"/><path d="m280 0v480" stroke="#b4b4b4" stroke-width="1"/><path d="m300 0v480" stroke="#b4b4b4" stroke-width="1"/><path d="m320 0v480" stroke="#b4b4b4" stroke-width="1"/><path d="m340 0v480" stroke="#b4b4b4" stroke-width="1"/><path d="m360 0v480" stroke="#b4b4b4" stroke-width="1"/><path d="m380 0v480" stroke="#b4b4b4" stroke-width="1"/><path d="m400 0v480" stroke="#b4b4b4" stroke-width="1"/><path d="m420 0v480" stroke="#b4b4b4" stroke-width="1"/><path d="m440 0v480" stroke="#b4b4b4" stroke-width="1"/><path d="m460 0v480" stroke="#b4b4b4" stroke-width="1"/><path d="m480 0v480" stroke="#b4b4b4"/><path d="m0 0h480" stroke="#b4b4b4"/><path d="m0 20h480" stroke="#b4b4b4" stroke-width="1"/><path d="m0 40h480" stroke="#b4b4b4" stroke-width="1"/><path d="m0 60h480" stroke="#b4b4b4" stroke-width="1"/><path d="m0 80h480" stroke="#b4b4b4" stroke-width="1"/><path d="m0 100h480" stroke="#b4b4b4" stroke-width="1"/><path d="m0 120h480" stroke="#b4b4b4" stroke-width="1"/><path d="m0 140h480" stroke="#b4b4b4" stroke-width="1"/><path d="m0 160h480" stroke="#b4b4b4" stroke-width="1"/><path d="m0 180h480" stroke="#b4b4b4" stroke-width="1"/><path d="m0 200h480" stroke="#b4b4b4" stroke-width="1"/><path d="m0 220h480" stroke="#b4b4b4" stroke-width="1"/><path d="m0 240h480" stroke="#b4b4b4" stroke-width="1"/><path d="m0 260h480" stroke="#b4b4b4" stroke-width="1"/><path d="m0 280h480" stroke="#b4b4b4" stroke-width="1"/><path d="m0 300h480" stroke="#b4b4b4" stroke-width="1"/><path d="m0 320h480" stroke="#b4b4b4" stroke-width="1"/><path d="m0 340h480" stroke="#b4b4b4" stroke-width="1"/><path d="m0 360h480" stroke="#b4b4b4" stroke-width="1"/><path d="m0 380h480" stroke="#b4b4b4" stroke-width="1"/><path d="m0 400h480" stroke="#b4b4b4" stroke-width="1"/><path d="m0 420h480" stroke="#b4b4b4" stroke-width="1"/><path d="m0 440h480" stroke="#b4b4b4" stroke-width="1"/><path d="m0 460h480" stroke="#b4b4b4" stroke-width="1"/><path d="m0 480h480" stroke="#b4b4b4"/></g></g></g></svg>