<svg color-interpolation="auto" height="640" stroke="#000" stroke-linecap="square" stroke-miterlimit="10" width="640" xmlns="http://www.w3.org/2000/svg"><path d="m240 40h20v20h-20z" fill="#2b50a0" stroke="none"/><g fill="#b4b4b4" stroke="#b4b4b4" stroke-linecap="round"><path d="m240 40h20v20h-20z" fill="none"/><path d="m260 40h20v20h-20z" fill="#2b50a0" stroke="none"/><path d="m260 40h20v20h-20z" fill="none"/><path d="m280 40h20v20h-20z" fill="#2b50a0" stroke="none"/><path d="m280 40h20v20h-20z" fill="none"/><path d="m300 40h20v20h-20z" fill="#2b50a0" stroke="none"/><path d="m300 40h20v20h-20z" fill="none"/><path d="m320 40h20v20h-20z" fill="#2b50a0" stroke="none"/><path d="m320 40h20v20h-20z" fill="none"/><path d="m340 40h20v20h-20z" fill="#2b50a0" stroke="none"/><path d="m340 40h20v20h-20z" fill="none"/><path d="m360 40h20v20h-20z" fill="#2b50a0" stroke="none"/><path d="m360 40h20v20h-20z" fill="none"/><path d="m200 60h20v20h-20z" fill="#2b50a0" stroke="none"/><path d="m200 60h20v20h-20z" fill="none"/><path d="m220 60h20v20h-20z" fill="#2b50a0" stroke="none"/><path d="m220 60h20v20h-20z" fill="none"/><path d="m380 60h20v20h-20z" fill="#2b50a0" stroke="none"/><path d="m380 60h20v20h-20z" fill="none"/><path d="m400 60h20v20h-20z" fill="#2b50a0" stroke="none"/><path d="m400 60h20v20h-20z" fill="none"/><path d="m180 80h20v20h-20z" fill="#2b50a0" stroke="none"/><path d="m180 80h20v20h-20z" fill="none"/><path d="m420 80h20v20h-20z" fill="#2b50a0" stroke="none"/><path d="m420 80h20v20h-20z" fill="none"/><path d="m180 100h20v20h-20z" fill="#2b50a0" stroke="none"/><path d="m180 100h20v20h-20z" fill="none"/><path d="m420 100h20v20h-20z" fill="#2b50a0" stroke="none"/><path d="m420 100h20v20h-20z" fill="none"/><path d="m160 120h20v20h-20z" fill="#2b50a0" stroke="none"/><path d="m160 120h20v20h-20z" fill="none"/><path d="m200 120h20v20h-20z" fill="#fff" stroke="none"/><path d="m200 120h20v20h-20z" fill="none"/><path d="m440 120h20v20h-20z" fill="#2b50a0" stroke="none"/><path d="m440 120h20v20h-20z" fill="none"/><path d="m160 140h20v20h-20z" fill="#2b50a0" stroke="none"/><path d="m160 140h20v20h-20z" fill="none"/><path d="m200 140h20v20h-20z" fill="#fff" stroke="none"/><path d="m200 140h20v20h-20z" fill="none"/><path d="m440 140h20v20h-20z" fill="#2b50a0" stroke="none"/><path d="m440 140h20v20h-20z" fill="none"/><path d="m140 160h20v20h-20z" fill="#2b50a0" stroke="none"/><path d="m140 160h20v20h-20z" fill="none"/><path d="m180 160h20v20h-20z" fill="#fff" stroke="none"/><path d="m180 160h20v20h-20z" fill="none"/><path d="m300 160h20v20h-20z" fill="#fbf236" stroke="none"/><path d="m300 160h20v20h-20z" fill="none"/><path d="m320 160h20v20h-20z" fill="#fbf236" stroke="none"/><path d="m320 160h20v20h-20z" fill="none"/><path d="m340 160h20v20h-20z" fill="#37946e" stroke="none"/><path d="m340 160h20v20h-20z" fill="none"/><path d="m460 160h20v20h-20z" fill="#2b50a0" stroke="none"/><path d="m460 160h20v20h-20z" fill="none"/><path d="m140 180h20v20h-20z" fill="#2b50a0" stroke="none"/><path d="m140 180h20v20h-20z" fill="none"/><path d="m180 180h20v20h-20z" fill="#fff" stroke="none"/><path d="m180 180h20v20h-20z" fill="none"/><path d="m220 180h20v20h-20z" fill="#3ebddc" stroke="none"/><path d="m220 180h20v20h-20z" fill="none"/><path d="m240 180h20v20h-20z" fill="#3ebddc" stroke="none"/><path d="m240 180h20v20h-20z" fill="none"/><path d="m260 180h20v20h-20z" fill="#3ebddc" stroke="none"/><path d="m260 180h20v20h-20z" fill="none"/><path d="m280 180h20v20h-20z" fill="#3ebddc" stroke="none"/><path d="m280 180h20v20h-20z" fill="none"/><path d="m300 180h20v20h-20z" fill="#fbf236" stroke="none"/><path d="m300 180h20v20h-20z" fill="none"/><path d="m320 180h20v20h-20z" fill="#fbf236" stroke="none"/><path d="m320 180h20v20h-20z" fill="none"/><path d="m340 180h20v20h-20z" fill="#37946e" stroke="none"/><path d="m340 180h20v20h-20z" fill="none"/><path d="m360 180h20v20h-20z" fill="#37946e" stroke="none"/><path d="m360 180h20v20h-20z" fill="none"/><path d="m380 180h20v20h-20z" fill="#3ebddc" stroke="none"/><path d="m380 180h20v20h-20z" fill="none"/><path d="m460 180h20v20h-20z" fill="#2b50a0" stroke="none"/><path d="m460 180h20v20h-20z" fill="none"/><path d="m140 200h20v20h-20z" fill="#2b50a0" stroke="none"/><path d="m140 200h20v20h-20z" fill="none"/><path d="m180 200h20v20h-20z" fill="#fff" stroke="none"/><path d="m180 200h20v20h-20z" fill="none"/><path d="m200 200h20v20h-20z" fill="#2b50a0" stroke="none"/><path d="m200 200h20v20h-20z" fill="none"/><path d="m220 200h20v20h-20z" fill="#3ebddc" stroke="none"/><path d="m220 200h20v20h-20z" fill="none"/><path d="m240 200h20v20h-20z" fill="#3ebddc" stroke="none"/><path d="m240 200h20v20h-20z" fill="none"/><path d="m260 200h20v20h-20z" fill="#3ebddc" stroke="none"/><path d="m260 200h20v20h-20z" fill="none"/><path d="m280 200h20v20h-20z" fill="#3ebddc" stroke="none"/><path d="m280 200h20v20h-20z" fill="none"/><path d="m300 200h20v20h-20z" fill="#3ebddc" stroke="none"/><path d="m300 200h20v20h-20z" fill="none"/><path d="m320 200h20v20h-20z" fill="#3ebddc" stroke="none"/><path d="m320 200h20v20h-20z" fill="none"/><path d="m340 200h20v20h-20z" fill="#3ebddc" stroke="none"/><path d="m340 200h20v20h-20z" fill="none"/><path d="m360 200h20v20h-20z" fill="#3ebddc" stroke="none"/><path d="m360 200h20v20h-20z" fill="none"/><path d="m380 200h20v20h-20z" fill="#3ebddc" stroke="none"/><path d="m380 200h20v20h-20z" fill="none"/><path d="m400 200h20v20h-20z" fill="#2b50a0" stroke="none"/><path d="m400 200h20v20h-20z" fill="none"/><path d="m420 200h20v20h-20z" fill="#3ebddc" stroke="none"/><path d="m420 200h20v20h-20z" fill="none"/><path d="m460 200h20v20h-20z" fill="#2b50a0" stroke="none"/><path d="m460 200h20v20h-20z" fill="none"/><path d="m140 220h20v20h-20z" fill="#2b50a0" stroke="none"/><path d="m140 220h20v20h-20z" fill="none"/><path d="m180 220h20v20h-20z" fill="#fff" stroke="none"/><path d="m180 220h20v20h-20z" fill="none"/><path d="m200 220h20v20h-20z" fill="#3ebddc" stroke="none"/><path d="m200 220h20v20h-20z" fill="none"/><path d="m220 220h20v20h-20z" fill="#2b50a0" stroke="none"/><path d="m220 220h20v20h-20z" fill="none"/><path d="m240 220h20v20h-20z" fill="#2b50a0" stroke="none"/><path d="m240 220h20v20h-20z" fill="none"/><path d="m260 220h20v20h-20z" fill="#2b50a0" stroke="none"/><path d="m260 220h20v20h-20z" fill="none"/><path d="m280 220h20v20h-20z" fill="#2b50a0" stroke="none"/><path d="m280 220h20v20h-20z" fill="none"/><path d="m300 220h20v20h-20z" fill="#2b50a0" stroke="none"/><path d="m300 220h20v20h-20z" fill="none"/><path d="m320 220h20v20h-20z" fill="#2b50a0" stroke="none"/><path d="m320 220h20v20h-20z" fill="none"/><path d="m340 220h20v20h-20z" fill="#2b50a0" stroke="none"/><path d="m340 220h20v20h-20z" fill="none"/><path d="m360 220h20v20h-20z" fill="#2b50a0" stroke="none"/><path d="m360 220h20v20h-20z" fill="none"/><path d="m380 220h20v20h-20z" fill="#2b50a0" stroke="none"/><path d="m380 220h20v20h-20z" fill="none"/><path d="m400 220h20v20h-20z" fill="#3ebddc" stroke="none"/><path d="m400 220h20v20h-20z" fill="none"/><path d="m420 220h20v20h-20z" fill="#3ebddc" stroke="none"/><path d="m420 220h20v20h-20z" fill="none"/><path d="m460 220h20v20h-20z" fill="#2b50a0" stroke="none"/><path d="m460 220h20v20h-20z" fill="none"/><path d="m140 240h20v20h-20z" fill="#2b50a0" stroke="none"/><path d="m140 240h20v20h-20z" fill="none"/><path d="m180 240h20v20h-20z" fill="#3ebddc" stroke="none"/><path d="m180 240h20v20h-20z" fill="none"/><path d="m200 240h20v20h-20z" fill="#3ebddc" stroke="none"/><path d="m200 240h20v20h-20z" fill="none"/><path d="m220 240h20v20h-20z" fill="#3ebddc" stroke="none"/><path d="m220 240h20v20h-20z" fill="none"/><path d="m240 240h20v20h-20z" fill="#3ebddc" stroke="none"/><path d="m240 240h20v20h-20z" fill="none"/><path d="m260 240h20v20h-20z" fill="#3ebddc" stroke="none"/><path d="m260 240h20v20h-20z" fill="none"/><path d="m280 240h20v20h-20z" fill="#3ebddc" stroke="none"/><path d="m280 240h20v20h-20z" fill="none"/><path d="m300 240h20v20h-20z" fill="#3ebddc" stroke="none"/><path d="m300 240h20v20h-20z" fill="none"/><path d="m320 240h20v20h-20z" fill="#3ebddc" stroke="none"/><path d="m320 240h20v20h-20z" fill="none"/><path d="m340 240h20v20h-20z" fill="#3ebddc" stroke="none"/><path d="m340 240h20v20h-20z" fill="none"/><path d="m360 240h20v20h-20z" fill="#3ebddc" stroke="none"/><path d="m360 240h20v20h-20z" fill="none"/><path d="m380 240h20v20h-20z" fill="#3ebddc" stroke="none"/><path d="m380 240h20v20h-20z" fill="none"/><path d="m400 240h20v20h-20z" fill="#3ebddc" stroke="none"/><path d="m400 240h20v20h-20z" fill="none"/><path d="m420 240h20v20h-20z" fill="#3ebddc" stroke="none"/><path d="m420 240h20v20h-20z" fill="none"/><path d="m460 240h20v20h-20z" fill="#2b50a0" stroke="none"/><path d="m460 240h20v20h-20z" fill="none"/><path d="m160 260h20v20h-20z" fill="#2b50a0" stroke="none"/><path d="m160 260h20v20h-20z" fill="none"/><path d="m180 260h20v20h-20z" fill="#3ebddc" stroke="none"/><path d="m180 260h20v20h-20z" fill="none"/><path d="m200 260h20v20h-20z" fill="#fff" stroke="none"/><path d="m200 260h20v20h-20z" fill="none"/><path d="m220 260h20v20h-20z" fill="#3ebddc" stroke="none"/><path d="m220 260h20v20h-20z" fill="none"/><path d="m240 260h20v20h-20z" fill="#3ebddc" stroke="none"/><path d="m240 260h20v20h-20z" fill="none"/><path d="m260 260h20v20h-20z" fill="#3ebddc" stroke="none"/><path d="m260 260h20v20h-20z" fill="none"/><path d="m280 260h20v20h-20z" fill="#3ebddc" stroke="none"/><path d="m280 260h20v20h-20z" fill="none"/><path d="m300 260h20v20h-20z" fill="#3ebddc" stroke="none"/><path d="m300 260h20v20h-20z" fill="none"/><path d="m320 260h20v20h-20z" fill="#3ebddc" stroke="none"/><path d="m320 260h20v20h-20z" fill="none"/><path d="m340 260h20v20h-20z" fill="#3ebddc" stroke="none"/><path d="m340 260h20v20h-20z" fill="none"/><path d="m360 260h20v20h-20z" fill="#3ebddc" stroke="none"/><path d="m360 260h20v20h-20z" fill="none"/><path d="m380 260h20v20h-20z" fill="#3ebddc" stroke="none"/><path d="m380 260h20v20h-20z" fill="none"/><path d="m400 260h20v20h-20z" fill="#3ebddc" stroke="none"/><path d="m400 260h20v20h-20z" fill="none"/><path d="m420 260h20v20h-20z" fill="#3ebddc" stroke="none"/><path d="m420 260h20v20h-20z" fill="none"/><path d="m440 260h20v20h-20z" fill="#2b50a0" stroke="none"/><path d="m440 260h20v20h-20z" fill="none"/><path d="m160 280h20v20h-20z" fill="#2b50a0" stroke="none"/><path d="m160 280h20v20h-20z" fill="none"/><path d="m200 280h20v20h-20z" fill="#fff" stroke="none"/><path d="m200 280h20v20h-20z" fill="none"/><path d="m220 280h20v20h-20z" fill="#3ebddc" stroke="none"/><path d="m220 280h20v20h-20z" fill="none"/><path d="m240 280h20v20h-20z" fill="#3ebddc" stroke="none"/><path d="m240 280h20v20h-20z" fill="none"/><path d="m260 280h20v20h-20z" fill="#3ebddc" stroke="none"/><path d="m260 280h20v20h-20z" fill="none"/><path d="m280 280h20v20h-20z" fill="#3ebddc" stroke="none"/><path d="m280 280h20v20h-20z" fill="none"/><path d="m300 280h20v20h-20z" fill="#3ebddc" stroke="none"/><path d="m300 280h20v20h-20z" fill="none"/><path d="m320 280h20v20h-20z" fill="#3ebddc" stroke="none"/><path d="m320 280h20v20h-20z" fill="none"/><path d="m340 280h20v20h-20z" fill="#3ebddc" stroke="none"/><path d="m340 280h20v20h-20z" fill="none"/><path d="m360 280h20v20h-20z" fill="#3ebddc" stroke="none"/><path d="m360 280h20v20h-20z" fill="none"/><path d="m380 280h20v20h-20z" fill="#3ebddc" stroke="none"/><path d="m380 280h20v20h-20z" fill="none"/><path d="m400 280h20v20h-20z" fill="#3ebddc" stroke="none"/><path d="m400 280h20v20h-20z" fill="none"/><path d="m440 280h20v20h-20z" fill="#2b50a0" stroke="none"/><path d="m440 280h20v20h-20z" fill="none"/><path d="m180 300h20v20h-20z" fill="#2b50a0" stroke="none"/><path d="m180 300h20v20h-20z" fill="none"/><path d="m220 300h20v20h-20z" fill="#fff" stroke="none"/><path d="m220 300h20v20h-20z" fill="none"/><path d="m240 300h20v20h-20z" fill="#3ebddc" stroke="none"/><path d="m240 300h20v20h-20z" fill="none"/><path d="m260 300h20v20h-20z" fill="#3ebddc" stroke="none"/><path d="m260 300h20v20h-20z" fill="none"/><path d="m280 300h20v20h-20z" fill="#3ebddc" stroke="none"/><path d="m280 300h20v20h-20z" fill="none"/><path d="m300 300h20v20h-20z" fill="#3ebddc" stroke="none"/><path d="m300 300h20v20h-20z" fill="none"/><path d="m320 300h20v20h-20z" fill="#3ebddc" stroke="none"/><path d="m320 300h20v20h-20z" fill="none"/><path d="m340 300h20v20h-20z" fill="#3ebddc" stroke="none"/><path d="m340 300h20v20h-20z" fill="none"/><path d="m360 300h20v20h-20z" fill="#3ebddc" stroke="none"/><path d="m360 300h20v20h-20z" fill="none"/><path d="m380 300h20v20h-20z" fill="#3ebddc" stroke="none"/><path d="m380 300h20v20h-20z" fill="none"/><path d="m420 300h20v20h-20z" fill="#2b50a0" stroke="none"/><path d="m420 300h20v20h-20z" fill="none"/><path d="m200 320h20v20h-20z" fill="#2b50a0" stroke="none"/><path d="m200 320h20v20h-20z" fill="none"/><path d="m260 320h20v20h-20z" fill="#3ebddc" stroke="none"/><path d="m260 320h20v20h-20z" fill="none"/><path d="m280 320h20v20h-20z" fill="#3ebddc" stroke="none"/><path d="m280 320h20v20h-20z" fill="none"/><path d="m300 320h20v20h-20z" fill="#3ebddc" stroke="none"/><path d="m300 320h20v20h-20z" fill="none"/><path d="m320 320h20v20h-20z" fill="#3ebddc" stroke="none"/><path d="m320 320h20v20h-20z" fill="none"/><path d="m340 320h20v20h-20z" fill="#3ebddc" stroke="none"/><path d="m340 320h20v20h-20z" fill="none"/><path d="m400 320h20v20h-20z" fill="#2b50a0" stroke="none"/><path d="m400 320h20v20h-20z" fill="none"/><path d="m220 340h20v20h-20z" fill="#2b50a0" stroke="none"/><path d="m220 340h20v20h-20z" fill="none"/><path d="m240 340h20v20h-20z" fill="#2b50a0" stroke="none"/><path d="m240 340h20v20h-20z" fill="none"/><path d="m360 340h20v20h-20z" fill="#2b50a0" stroke="none"/><path d="m360 340h20v20h-20z" fill="none"/><path d="m380 340h20v20h-20z" fill="#2b50a0" stroke="none"/><path d="m380 340h20v20h-20z" fill="none"/><path d="m260 360h20v20h-20z" fill="#2b50a0" stroke="none"/><path d="m260 360h20v20h-20z" fill="none"/><path d="m280 360h20v20h-20z" fill="#2b50a0" stroke="none"/><path d="m280 360h20v20h-20z" fill="none"/><path d="m320 360h20v20h-20z" fill="#2b50a0" stroke="none"/><path d="m320 360h20v20h-20z" fill="none"/><path d="m340 360h20v20h-20z" fill="#2b50a0" stroke="none"/><path d="m340 360h20v20h-20z" fill="none"/><path d="m280 380h20v20h-20z" fill="#2b50a0" stroke="none"/><path d="m280 380h20v20h-20z" fill="none"/><path d="m320 380h20v20h-20z" fill="#2b50a0" stroke="none"/><path d="m320 380h20v20h-20z" fill="none"/><path d="m280 400h20v20h-20z" fill="#2b50a0" stroke="none"/><path d="m280 400h20v20h-20z" fill="none"/><path d="m320 400h20v20h-20z" fill="#2b50a0" stroke="none"/><path d="m320 400h20v20h-20z" fill="none"/><path d="m280 420h20v20h-20z" fill="#2b50a0" stroke="none"/><path d="m280 420h20v20h-20z" fill="none"/><path d="m320 420h20v20h-20z" fill="#2b50a0" stroke="none"/><path d="m320 420h20v20h-20z" fill="none"/><path d="m240 440h20v20h-20z" fill="#2b50a0" stroke="none"/><path d="m240 440h20v20h-20z" fill="none"/><path d="m260 440h20v20h-20z" fill="#2b50a0" stroke="none"/><path d="m260 440h20v20h-20z" fill="none"/><path d="m280 440h20v20h-20z" fill="#2b50a0" stroke="none"/><path d="m280 440h20v20h-20z" fill="none"/><path d="m320 440h20v20h-20z" fill="#2b50a0" stroke="none"/><path d="m320 440h20v20h-20z" fill="none"/><path d="m340 440h20v20h-20z" fill="#2b50a0" stroke="none"/><path d="m340 440h20v20h-20z" fill="none"/><path d="m360 440h20v20h-20z" fill="#2b50a0" stroke="none"/><path d="m360 440h20v20h-20z" fill="none"/><path d="m200 460h20v20h-20z" fill="#2b50a0" stroke="none"/><path d="m200 460h20v20h-20z" fill="none"/><path d="m220 460h20v20h-20z" fill="#2b50a0" stroke="none"/><path d="m220 460h20v20h-20z" fill="none"/><path d="m280 460h20v20h-20z" fill="#2b50a0" stroke="none"/><path d="m280 460h20v20h-20z" fill="none"/><path d="m320 460h20v20h-20z" fill="#2b50a0" stroke="none"/><path d="m320 460h20v20h-20z" fill="none"/><path d="m380 460h20v20h-20z" fill="#2b50a0" stroke="none"/><path d="m380 460h20v20h-20z" fill="none"/><path d="m400 460h20v20h-20z" fill="#2b50a0" stroke="none"/><path d="m400 460h20v20h-20z" fill="none"/><path d="m180 480h20v20h-20z" fill="#2b50a0" stroke="none"/><path d="m180 480h20v20h-20z" fill="none"/><path d="m260 480h20v20h-20z" fill="#2b50a0" stroke="none"/><path d="m260 480h20v20h-20z" fill="none"/><path d="m280 480h20v20h-20z" fill="#fff" stroke="none"/><path d="m280 480h20v20h-20z" fill="none"/><path d="m340 480h20v20h-20z" fill="#2b50a0" stroke="none"/><path d="m340 480h20v20h-20z" fill="none"/><path d="m420 480h20v20h-20z" fill="#2b50a0" stroke="none"/><path d="m420 480h20v20h-20z" fill="none"/><path d="m160 500h20v20h-20z" fill="#2b50a0" stroke="none"/><path d="m160 500h20v20h-20z" fill="none"/><path d="m240 500h20v20h-20z" fill="#2b50a0" stroke="none"/><path d="m240 500h20v20h-20z" fill="none"/><path d="m260 500h20v20h-20z" fill="#fff" stroke="none"/><path d="m260 500h20v20h-20z" fill="none"/><path d="m280 500h20v20h-20z" fill="#fff" stroke="none"/><path d="m280 500h20v20h-20z" fill="none"/><path d="m300 500h20v20h-20z" fill="#fff" stroke="none"/><path d="m300 500h20v20h-20z" fill="none"/><path d="m320 500h20v20h-20z" fill="#fff" stroke="none"/><path d="m320 500h20v20h-20z" fill="none"/><path d="m360 500h20v20h-20z" fill="#2b50a0" stroke="none"/><path d="m360 500h20v20h-20z" fill="none"/><path d="m440 500h20v20h-20z" fill="#2b50a0" stroke="none"/><path d="m440 500h20v20h-20z" fill="none"/><path d="m160 520h20v20h-20z" fill="#2b50a0" stroke="none"/><path d="m160 520h20v20h-20z" fill="none"/><path d="m200 520h20v20h-20z" fill="#fff" stroke="none"/><path d="m200 520h20v20h-20z" fill="none"/><path d="m440 520h20v20h-20z" fill="#2b50a0" stroke="none"/><path d="m440 520h20v20h-20z" fill="none"/><path d="m160 540h20v20h-20z" fill="#2b50a0" stroke="none"/><path d="m160 540h20v20h-20z" fill="none"/><path d="m180 540h20v20h-20z" fill="#2b50a0" stroke="none"/><path d="m180 540h20v20h-20z" fill="none"/><path d="m220 540h20v20h-20z" fill="#fff" stroke="none"/><path d="m220 540h20v20h-20z" fill="none"/><path d="m260 540h20v20h-20z" fill="#fff" stroke="none"/><path d="m260 540h20v20h-20z" fill="none"/><path d="m280 540h20v20h-20z" fill="#fff" stroke="none"/><path d="m280 540h20v20h-20z" fill="none"/><path d="m300 540h20v20h-20z" fill="#fff" stroke="none"/><path d="m300 540h20v20h-20z" fill="none"/><path d="m320 540h20v20h-20z" fill="#fff" stroke="none"/><path d="m320 540h20v20h-20z" fill="none"/><path d="m340 540h20v20h-20z" fill="#fff" stroke="none"/><path d="m340 540h20v20h-20z" fill="none"/><path d="m420 540h20v20h-20z" fill="#2b50a0" stroke="none"/><path d="m420 540h20v20h-20z" fill="none"/><path d="m440 540h20v20h-20z" fill="#2b50a0" stroke="none"/><path d="m440 540h20v20h-20z" fill="none"/><path d="m180 560h20v20h-20z" fill="#2b50a0" stroke="none"/><path d="m180 560h20v20h-20z" fill="none"/><path d="m200 560h20v20h-20z" fill="#2b50a0" stroke="none"/><path d="m200 560h20v20h-20z" fill="none"/><path d="m220 560h20v20h-20z" fill="#2b50a0" stroke="none"/><path d="m220 560h20v20h-20z" fill="none"/><path d="m380 560h20v20h-20z" fill="#2b50a0" stroke="none"/><path d="m380 560h20v20h-20z" fill="none"/><path d="m400 560h20v20h-20z" fill="#2b50a0" stroke="none"/><path d="m400 560h20v20h-20z" fill="none"/><path d="m420 560h20v20h-20z" fill="#2b50a0" stroke="none"/><path d="m420 560h20v20h-20z" fill="none"/><path d="m200 580h20v20h-20z" fill="#2b50a0" stroke="none"/><path d="m200 580h20v20h-20z" fill="none"/><path d="m220 580h20v20h-20z" fill="#2b50a0" stroke="none"/><path d="m220 580h20v20h-20z" fill="none"/><path d="m240 580h20v20h-20z" fill="#2b50a0" stroke="none"/><path d="m240 580h20v20h-20z" fill="none"/><path d="m260 580h20v20h-20z" fill="#2b50a0" stroke="none"/><path d="m260 580h20v20h-20z" fill="none"/><path d="m280 580h20v20h-20z" fill="#2b50a0" stroke="none"/><path d="m280 580h20v20h-20z" fill="none"/><path d="m300 580h20v20h-20z" fill="#2b50a0" stroke="none"/><path d="m300 580h20v20h-20z" fill="none"/><path d="m320 580h20v20h-20z" fill="#2b50a0" stroke="none"/><path d="m320 580h20v20h-20z" fill="none"/><path d="m340 580h20v20h-20z" fill="#2b50a0" stroke="none"/><path d="m340 580h20v20h-20z" fill="none"/><path d="m360 580h20v20h-20z" fill="#2b50a0" stroke="none"/><path d="m360 580h20v20h-20z" fill="none"/><path d="m380 580h20v20h-20z" fill="#2b50a0" stroke="none"/><path d="m380 580h20v20h-20z" fill="none"/><path d="m400 580h20v20h-20z" fill="#2b50a0" stroke="none"/><path d="m400 580h20v20h-20z" fill="none"/><path d="m240 600h20v20h-20z" fill="#2b50a0" stroke="none"/><path d="m240 600h20v20h-20z" fill="none"/><path d="m260 600h20v20h-20z" fill="#2b50a0" stroke="none"/><path d="m260 600h20v20h-20z" fill="none"/><path d="m280 600h20v20h-20z" fill="#2b50a0" stroke="none"/><path d="m280 600h20v20h-20z" fill="none"/><path d="m300 600h20v20h-20z" fill="#2b50a0" stroke="none"/><path d="m300 600h20v20h-20z" fill="none"/><path d="m320 600h20v20h-20z" fill="#2b50a0" stroke="none"/><path d="m320 600h20v20h-20z" fill="none"/><path d="m340 600h20v20h-20z" fill="#2b50a0" stroke="none"/><path d="m340 600h20v20h-20z" fill="none"/><path d="m360 600h20v20h-20z" fill="#2b50a0" stroke="none"/><path d="m360 600h20v20h-20z" fill="none"/></g></svg>