<svg color-interpolation="auto" height="640" stroke="#000" stroke-linecap="square" stroke-miterlimit="10" width="640" xmlns="http://www.w3.org/2000/svg"><g stroke-linecap="round" stroke-width="2"><path d="m245.2 50h9.6" fill="none"/><g><path d="m250 45.2v9.6" fill="none"/><path d="m265.2 50h9.6" fill="none"/><path d="m270 45.2v9.6" fill="none"/><path d="m285.2 50h9.6" fill="none"/><path d="m290 45.2v9.6" fill="none"/><path d="m305.2 50h9.6" fill="none"/><path d="m310 45.2v9.6" fill="none"/><path d="m325.2 50h9.6" fill="none"/><path d="m330 45.2v9.6" fill="none"/><path d="m345.2 50h9.6" fill="none"/><path d="m350 45.2v9.6" fill="none"/><path d="m365.2 50h9.6" fill="none"/><path d="m370 45.2v9.6" fill="none"/><path d="m205.2 70h9.6" fill="none"/><path d="m210 65.2v9.6" fill="none"/><path d="m225.2 70h9.6" fill="none"/><path d="m230 65.2v9.6" fill="none"/><path d="m385.2 70h9.6" fill="none"/><path d="m390 65.2v9.6" fill="none"/><path d="m405.2 70h9.6" fill="none"/><path d="m410 65.2v9.6" fill="none"/><path d="m185.2 90h9.6" fill="none"/><path d="m190 85.2v9.6" fill="none"/><path d="m425.2 90h9.6" fill="none"/><path d="m430 85.2v9.6" fill="none"/><path d="m185.2 110h9.6" fill="none"/><path d="m190 105.2v9.6" fill="none"/><path d="m425.2 110h9.6" fill="none"/><path d="m430 105.2v9.6" fill="none"/><path d="m165.2 130h9.6" fill="none"/><path d="m170 125.2v9.6" fill="none"/><path d="m210 130h6.4" fill="none" stroke-width="1.5"/><path d="m210 130 3.2 5.5426" fill="none" stroke-width="1.5"/><path d="m210 130-3.2 5.5426" fill="none" stroke-width="1.5"/><path d="m210 130h-6.4" fill="none" stroke-width="1.5"/><path d="m210 130-3.2-5.5426" fill="none" stroke-width="1.5"/><path d="m210 130 3.2-5.5426" fill="none" stroke-width="1.5"/><path d="m445.2 130h9.6" fill="none"/><path d="m450 125.2v9.6" fill="none"/><path d="m165.2 150h9.6" fill="none"/><path d="m170 145.2v9.6" fill="none"/><path d="m210 150h6.4" fill="none" stroke-width="1.5"/><path d="m210 150 3.2 5.5426" fill="none" stroke-width="1.5"/><path d="m210 150-3.2 5.5426" fill="none" stroke-width="1.5"/><path d="m210 150h-6.4" fill="none" stroke-width="1.5"/><path d="m210 150-3.2-5.5426" fill="none" stroke-width="1.5"/><path d="m210 150 3.2-5.5426" fill="none" stroke-width="1.5"/><path d="m445.2 150h9.6" fill="none"/><path d="m450 145.2v9.6" fill="none"/><path d="m145.2 170h9.6" fill="none"/><path d="m150 165.2v9.6" fill="none"/><path d="m190 170h6.4" fill="none" stroke-width="1.5"/><path d="m190 170 3.2 5.5426" fill="none" stroke-width="1.5"/><path d="m190 170-3.2 5.5426" fill="none" stroke-width="1.5"/><path d="m190 170h-6.4" fill="none" stroke-width="1.5"/><path d="m190 170-3.2-5.5426" fill="none" stroke-width="1.5"/><path d="m190 170 3.2-5.5426" fill="none" stroke-width="1.5"/><circle cx="310" cy="170" r="6.4" stroke="none"/><circle cx="330" cy="170" r="6.4" stroke="none"/><path d="m350 163.6 1.8809 3.8111 4.2059.6112-3.0434 2.9666.7184 4.1888-3.7618-1.9777-3.7618 1.9777.7184-4.1888-3.0434-2.9666 4.2059-.6112z" stroke="none"/><path d="m465.2 170h9.6" fill="none"/><path d="m470 165.2v9.6" fill="none"/><path d="m145.2 190h9.6" fill="none"/><path d="m150 185.2v9.6" fill="none"/><path d="m190 190h6.4" fill="none" stroke-width="1.5"/><path d="m190 190 3.2 5.5426" fill="none" stroke-width="1.5"/><path d="m190 190-3.2 5.5426" fill="none" stroke-width="1.5"/><path d="m190 190h-6.4" fill="none" stroke-width="1.5"/><path d="m190 190-3.2-5.5426" fill="none" stroke-width="1.5"/><path d="m190 190 3.2-5.5426" fill="none" stroke-width="1.5"/><path d="m230 184.2099-6.4 11.0851h12.8z" fill="none"/><path d="m250 184.2099-6.4 11.0851h12.8z" fill="none"/><path d="m270 184.2099-6.4 11.0851h12.8z" fill="none"/><path d="m290 184.2099-6.4 11.0851h12.8z" fill="none"/><circle cx="310" cy="190" r="6.4" stroke="none"/><circle cx="330" cy="190" r="6.4" stroke="none"/><path d="m350 183.6 1.8809 3.8111 4.2059.6112-3.0434 2.9666.7184 4.1888-3.7618-1.9777-3.7618 1.9777.7184-4.1888-3.0434-2.9666 4.2059-.6112z" stroke="none"/><path d="m370 183.6 1.8809 3.8111 4.2059.6112-3.0434 2.9666.7184 4.1888-3.7618-1.9777-3.7618 1.9777.7184-4.1888-3.0434-2.9666 4.2059-.6112z" stroke="none"/><g fill="none"><path d="m390 184.2099-6.4 11.0851h12.8z"/><path d="m465.2 190h9.6"/><path d="m470 185.2v9.6"/><path d="m145.2 210h9.6"/><path d="m150 205.2v9.6"/><path d="m190 210h6.4" stroke-width="1.5"/><path d="m190 210 3.2 5.5426" stroke-width="1.5"/><path d="m190 210-3.2 5.5426" stroke-width="1.5"/><path d="m190 210h-6.4" stroke-width="1.5"/><path d="m190 210-3.2-5.5426" stroke-width="1.5"/><path d="m190 210 3.2-5.5426" stroke-width="1.5"/><path d="m205.2 210h9.6"/><path d="m210 205.2v9.6"/><path d="m230 204.2099-6.4 11.0851h12.8z"/><path d="m250 204.2099-6.4 11.0851h12.8z"/><path d="m270 204.2099-6.4 11.0851h12.8z"/><path d="m290 204.2099-6.4 11.0851h12.8z"/><path d="m310 204.2099-6.4 11.0851h12.8z"/><path d="m330 204.2099-6.4 11.0851h12.8z"/><path d="m350 204.2099-6.4 11.0851h12.8z"/><path d="m370 204.2099-6.4 11.0851h12.8z"/><path d="m390 204.2099-6.4 11.0851h12.8z"/><path d="m405.2 210h9.6"/><path d="m410 205.2v9.6"/><path d="m430 204.2099-6.4 11.0851h12.8z"/><path d="m465.2 210h9.6"/><path d="m470 205.2v9.6"/><path d="m145.2 230h9.6"/><path d="m150 225.2v9.6"/><path d="m190 230h6.4" stroke-width="1.5"/><path d="m190 230 3.2 5.5426" stroke-width="1.5"/><path d="m190 230-3.2 5.5426" stroke-width="1.5"/><path d="m190 230h-6.4" stroke-width="1.5"/><path d="m190 230-3.2-5.5426" stroke-width="1.5"/><path d="m190 230 3.2-5.5426" stroke-width="1.5"/><path d="m210 224.2099-6.4 11.0851h12.8z"/><path d="m225.2 230h9.6"/><path d="m230 225.2v9.6"/><path d="m245.2 230h9.6"/><path d="m250 225.2v9.6"/><path d="m265.2 230h9.6"/><path d="m270 225.2v9.6"/><path d="m285.2 230h9.6"/><path d="m290 225.2v9.6"/><path d="m305.2 230h9.6"/><path d="m310 225.2v9.6"/><path d="m325.2 230h9.6"/><path d="m330 225.2v9.6"/><path d="m345.2 230h9.6"/><path d="m350 225.2v9.6"/><path d="m365.2 230h9.6"/><path d="m370 225.2v9.6"/><path d="m385.2 230h9.6"/><path d="m390 225.2v9.6"/><path d="m410 224.2099-6.4 11.0851h12.8z"/><path d="m430 224.2099-6.4 11.0851h12.8z"/><path d="m465.2 230h9.6"/><path d="m470 225.2v9.6"/><path d="m145.2 250h9.6"/><path d="m150 245.2v9.6"/><path d="m190 244.2099-6.4 11.0851h12.8z"/><path d="m210 244.2099-6.4 11.0851h12.8z"/><path d="m230 244.2099-6.4 11.0851h12.8z"/><path d="m250 244.2099-6.4 11.0851h12.8z"/><path d="m270 244.2099-6.4 11.0851h12.8z"/><path d="m290 244.2099-6.4 11.0851h12.8z"/><path d="m310 244.2099-6.4 11.0851h12.8z"/><path d="m330 244.2099-6.4 11.0851h12.8z"/><path d="m350 244.2099-6.4 11.0851h12.8z"/><path d="m370 244.2099-6.4 11.0851h12.8z"/><path d="m390 244.2099-6.4 11.0851h12.8z"/><path d="m410 244.2099-6.4 11.0851h12.8z"/><path d="m430 244.2099-6.4 11.0851h12.8z"/><path d="m465.2 250h9.6"/><path d="m470 245.2v9.6"/><path d="m165.2 270h9.6"/><path d="m170 265.2v9.6"/><path d="m190 264.2099-6.4 11.0851h12.8z"/><path d="m210 270h6.4" stroke-width="1.5"/><path d="m210 270 3.2 5.5426" stroke-width="1.5"/><path d="m210 270-3.2 5.5426" stroke-width="1.5"/><path d="m210 270h-6.4" stroke-width="1.5"/><path d="m210 270-3.2-5.5426" stroke-width="1.5"/><path d="m210 270 3.2-5.5426" stroke-width="1.5"/><path d="m230 264.2099-6.4 11.0851h12.8z"/><path d="m250 264.2099-6.4 11.0851h12.8z"/><path d="m270 264.2099-6.4 11.0851h12.8z"/><path d="m290 264.2099-6.4 11.0851h12.8z"/><path d="m310 264.2099-6.4 11.0851h12.8z"/><path d="m330 264.2099-6.4 11.0851h12.8z"/><path d="m350 264.2099-6.4 11.0851h12.8z"/><path d="m370 264.2099-6.4 11.0851h12.8z"/><path d="m390 264.2099-6.4 11.0851h12.8z"/><path d="m410 264.2099-6.4 11.0851h12.8z"/><path d="m430 264.2099-6.4 11.0851h12.8z"/><path d="m445.2 270h9.6"/><path d="m450 265.2v9.6"/><path d="m165.2 290h9.6"/><path d="m170 285.2v9.6"/><path d="m210 290h6.4" stroke-width="1.5"/><path d="m210 290 3.2 5.5426" stroke-width="1.5"/><path d="m210 290-3.2 5.5426" stroke-width="1.5"/><path d="m210 290h-6.4" stroke-width="1.5"/><path d="m210 290-3.2-5.5426" stroke-width="1.5"/><path d="m210 290 3.2-5.5426" stroke-width="1.5"/><path d="m230 284.2099-6.4 11.0851h12.8z"/><path d="m250 284.2099-6.4 11.0851h12.8z"/><path d="m270 284.2099-6.4 11.0851h12.8z"/><path d="m290 284.2099-6.4 11.0851h12.8z"/><path d="m310 284.2099-6.4 11.0851h12.8z"/><path d="m330 284.2099-6.4 11.0851h12.8z"/><path d="m350 284.2099-6.4 11.0851h12.8z"/><path d="m370 284.2099-6.4 11.0851h12.8z"/><path d="m390 284.2099-6.4 11.0851h12.8z"/><path d="m410 284.2099-6.4 11.0851h12.8z"/><path d="m445.2 290h9.6"/><path d="m450 285.2v9.6"/><path d="m185.2 310h9.6"/><path d="m190 305.2v9.6"/><path d="m230 310h6.4" stroke-width="1.5"/><path d="m230 310 3.2 5.5426" stroke-width="1.5"/><path d="m230 310-3.2 5.5426" stroke-width="1.5"/><path d="m230 310h-6.4" stroke-width="1.5"/><path d="m230 310-3.2-5.5426" stroke-width="1.5"/><path d="m230 310 3.2-5.5426" stroke-width="1.5"/><path d="m250 304.2099-6.4 11.0851h12.8z"/><path d="m270 304.2099-6.4 11.0851h12.8z"/><path d="m290 304.2099-6.4 11.0851h12.8z"/><path d="m310 304.2099-6.4 11.0851h12.8z"/><path d="m330 304.2099-6.4 11.0851h12.8z"/><path d="m350 304.2099-6.4 11.0851h12.8z"/><path d="m370 304.2099-6.4 11.0851h12.8z"/><path d="m390 304.2099-6.4 11.0851h12.8z"/><path d="m425.2 310h9.6"/><path d="m430 305.2v9.6"/><path d="m205.2 330h9.6"/><path d="m210 325.2v9.6"/><path d="m270 324.2099-6.4 11.0851h12.8z"/><path d="m290 324.2099-6.4 11.0851h12.8z"/><path d="m310 324.2099-6.4 11.0851h12.8z"/><path d="m330 324.2099-6.4 11.0851h12.8z"/><path d="m350 324.2099-6.4 11.0851h12.8z"/><path d="m405.2 330h9.6"/><path d="m410 325.2v9.6"/><path d="m225.2 350h9.6"/><path d="m230 345.2v9.6"/><path d="m245.2 350h9.6"/><path d="m250 345.2v9.6"/><path d="m365.2 350h9.6"/><path d="m370 345.2v9.6"/><path d="m385.2 350h9.6"/><path d="m390 345.2v9.6"/><path d="m265.2 370h9.6"/><path d="m270 365.2v9.6"/><path d="m285.2 370h9.6"/><path d="m290 365.2v9.6"/><path d="m325.2 370h9.6"/><path d="m330 365.2v9.6"/><path d="m345.2 370h9.6"/><path d="m350 365.2v9.6"/><path d="m285.2 390h9.6"/><path d="m290 385.2v9.6"/><path d="m325.2 390h9.6"/><path d="m330 385.2v9.6"/><path d="m285.2 410h9.6"/><path d="m290 405.2v9.6"/><path d="m325.2 410h9.6"/><path d="m330 405.2v9.6"/><path d="m285.2 430h9.6"/><path d="m290 425.2v9.6"/><path d="m325.2 430h9.6"/><path d="m330 425.2v9.6"/><path d="m245.2 450h9.6"/><path d="m250 445.2v9.6"/><path d="m265.2 450h9.6"/><path d="m270 445.2v9.6"/><path d="m285.2 450h9.6"/><path d="m290 445.2v9.6"/><path d="m325.2 450h9.6"/><path d="m330 445.2v9.6"/><path d="m345.2 450h9.6"/><path d="m350 445.2v9.6"/><path d="m365.2 450h9.6"/><path d="m370 445.2v9.6"/><path d="m205.2 470h9.6"/><path d="m210 465.2v9.6"/><path d="m225.2 470h9.6"/><path d="m230 465.2v9.6"/><path d="m285.2 470h9.6"/><path d="m290 465.2v9.6"/><path d="m325.2 470h9.6"/><path d="m330 465.2v9.6"/><path d="m385.2 470h9.6"/><path d="m390 465.2v9.6"/><path d="m405.2 470h9.6"/><path d="m410 465.2v9.6"/><path d="m185.2 490h9.6"/><path d="m190 485.2v9.6"/><path d="m265.2 490h9.6"/><path d="m270 485.2v9.6"/><path d="m290 490h6.4" stroke-width="1.5"/><path d="m290 490 3.2 5.5426" stroke-width="1.5"/><path d="m290 490-3.2 5.5426" stroke-width="1.5"/><path d="m290 490h-6.4" stroke-width="1.5"/><path d="m290 490-3.2-5.5426" stroke-width="1.5"/><path d="m290 490 3.2-5.5426" stroke-width="1.5"/><path d="m345.2 490h9.6"/><path d="m350 485.2v9.6"/><path d="m425.2 490h9.6"/><path d="m430 485.2v9.6"/><path d="m165.2 510h9.6"/><path d="m170 505.2v9.6"/><path d="m245.2 510h9.6"/><path d="m250 505.2v9.6"/><path d="m270 510h6.4" stroke-width="1.5"/><path d="m270 510 3.2 5.5425" stroke-width="1.5"/><path d="m270 510-3.2 5.5425" stroke-width="1.5"/><path d="m270 510h-6.4" stroke-width="1.5"/><path d="m270 510-3.2-5.5426" stroke-width="1.5"/><path d="m270 510 3.2-5.5426" stroke-width="1.5"/><path d="m290 510h6.4" stroke-width="1.5"/><path d="m290 510 3.2 5.5425" stroke-width="1.5"/><path d="m290 510-3.2 5.5425" stroke-width="1.5"/><path d="m290 510h-6.4" stroke-width="1.5"/><path d="m290 510-3.2-5.5426" stroke-width="1.5"/><path d="m290 510 3.2-5.5426" stroke-width="1.5"/><path d="m310 510h6.4" stroke-width="1.5"/><path d="m310 510 3.2 5.5425" stroke-width="1.5"/><path d="m310 510-3.2 5.5425" stroke-width="1.5"/><path d="m310 510h-6.4" stroke-width="1.5"/><path d="m310 510-3.2-5.5426" stroke-width="1.5"/><path d="m310 510 3.2-5.5426" stroke-width="1.5"/><path d="m330 510h6.4" stroke-width="1.5"/><path d="m330 510 3.2 5.5425" stroke-width="1.5"/><path d="m330 510-3.2 5.5425" stroke-width="1.5"/><path d="m330 510h-6.4" stroke-width="1.5"/><path d="m330 510-3.2-5.5426" stroke-width="1.5"/><path d="m330 510 3.2-5.5426" stroke-width="1.5"/><path d="m365.2 510h9.6"/><path d="m370 505.2v9.6"/><path d="m445.2 510h9.6"/><path d="m450 505.2v9.6"/><path d="m165.2 530h9.6"/><path d="m170 525.2v9.6"/><path d="m210 530h6.4" stroke-width="1.5"/><path d="m210 530 3.2 5.5425" stroke-width="1.5"/><path d="m210 530-3.2 5.5425" stroke-width="1.5"/><path d="m210 530h-6.4" stroke-width="1.5"/><path d="m210 530-3.2-5.5425" stroke-width="1.5"/><path d="m210 530 3.2-5.5425" stroke-width="1.5"/><path d="m445.2 530h9.6"/><path d="m450 525.2v9.6"/><path d="m165.2 550h9.6"/><path d="m170 545.2v9.6"/><path d="m185.2 550h9.6"/><path d="m190 545.2v9.6"/><path d="m230 550h6.4" stroke-width="1.5"/><path d="m230 550 3.2 5.5425" stroke-width="1.5"/><path d="m230 550-3.2 5.5425" stroke-width="1.5"/><path d="m230 550h-6.4" stroke-width="1.5"/><path d="m230 550-3.2-5.5425" stroke-width="1.5"/><path d="m230 550 3.2-5.5425" stroke-width="1.5"/><path d="m270 550h6.4" stroke-width="1.5"/><path d="m270 550 3.2 5.5425" stroke-width="1.5"/><path d="m270 550-3.2 5.5425" stroke-width="1.5"/><path d="m270 550h-6.4" stroke-width="1.5"/><path d="m270 550-3.2-5.5425" stroke-width="1.5"/><path d="m270 550 3.2-5.5425" stroke-width="1.5"/><path d="m290 550h6.4" stroke-width="1.5"/><path d="m290 550 3.2 5.5425" stroke-width="1.5"/><path d="m290 550-3.2 5.5425" stroke-width="1.5"/><path d="m290 550h-6.4" stroke-width="1.5"/><path d="m290 550-3.2-5.5425" stroke-width="1.5"/><path d="m290 550 3.2-5.5425" stroke-width="1.5"/><path d="m310 550h6.4" stroke-width="1.5"/><path d="m310 550 3.2 5.5425" stroke-width="1.5"/><path d="m310 550-3.2 5.5425" stroke-width="1.5"/><path d="m310 550h-6.4" stroke-width="1.5"/><path d="m310 550-3.2-5.5425" stroke-width="1.5"/><path d="m310 550 3.2-5.5425" stroke-width="1.5"/><path d="m330 550h6.4" stroke-width="1.5"/><path d="m330 550 3.2 5.5425" stroke-width="1.5"/><path d="m330 550-3.2 5.5425" stroke-width="1.5"/><path d="m330 550h-6.4" stroke-width="1.5"/><path d="m330 550-3.2-5.5425" stroke-width="1.5"/><path d="m330 550 3.2-5.5425" stroke-width="1.5"/><path d="m350 550h6.4" stroke-width="1.5"/><path d="m350 550 3.2 5.5425" stroke-width="1.5"/><path d="m350 550-3.2 5.5425" stroke-width="1.5"/><path d="m350 550h-6.4" stroke-width="1.5"/><path d="m350 550-3.2-5.5425" stroke-width="1.5"/><path d="m350 550 3.2-5.5425" stroke-width="1.5"/><path d="m425.2 550h9.6"/><path d="m430 545.2v9.6"/><path d="m445.2 550h9.6"/><path d="m450 545.2v9.6"/><path d="m185.2 570h9.6"/><path d="m190 565.2v9.6"/><path d="m205.2 570h9.6"/><path d="m210 565.2v9.6"/><path d="m225.2 570h9.6"/><path d="m230 565.2v9.6"/><path d="m385.2 570h9.6"/><path d="m390 565.2v9.6"/><path d="m405.2 570h9.6"/><path d="m410 565.2v9.6"/><path d="m425.2 570h9.6"/><path d="m430 565.2v9.6"/><path d="m205.2 590h9.6"/><path d="m210 585.2v9.6"/><path d="m225.2 590h9.6"/><path d="m230 585.2v9.6"/><path d="m245.2 590h9.6"/><path d="m250 585.2v9.6"/><path d="m265.2 590h9.6"/><path d="m270 585.2v9.6"/><path d="m285.2 590h9.6"/><path d="m290 585.2v9.6"/><path d="m305.2 590h9.6"/><path d="m310 585.2v9.6"/><path d="m325.2 590h9.6"/><path d="m330 585.2v9.6"/><path d="m345.2 590h9.6"/><path d="m350 585.2v9.6"/><path d="m365.2 590h9.6"/><path d="m370 585.2v9.6"/><path d="m385.2 590h9.6"/><path d="m390 585.2v9.6"/><path d="m405.2 590h9.6"/><path d="m410 585.2v9.6"/><path d="m245.2 610h9.6"/><path d="m250 605.2v9.6"/><path d="m265.2 610h9.6"/><path d="m270 605.2v9.6"/><path d="m285.2 610h9.6"/><path d="m290 605.2v9.6"/><path d="m305.2 610h9.6"/><path d="m310 605.2v9.6"/><path d="m325.2 610h9.6"/><path d="m330 605.2v9.6"/><path d="m345.2 610h9.6"/><path d="m350 605.2v9.6"/><path d="m365.2 610h9.6"/><path d="m370 605.2v9.6"/><path d="m0 0v640" stroke="#1c30d0"/><path d="m20 0v640" stroke="#1c30d0" stroke-width="1"/><path d="m40 0v640" stroke="#1c30d0" stroke-width="1"/><path d="m60 0v640" stroke="#1c30d0" stroke-width="1"/><path d="m80 0v640" stroke="#1c30d0" stroke-width="1"/><path d="m100 0v640" stroke="#1c30d0" stroke-width="1"/><path d="m120 0v640" stroke="#1c30d0" stroke-width="1"/><path d="m140 0v640" stroke="#1c30d0" stroke-width="1"/><path d="m160 0v640" stroke="#1c30d0" stroke-width="1"/><path d="m180 0v640" stroke="#1c30d0" stroke-width="1"/><path d="m200 0v640" stroke="#1c30d0" stroke-width="1"/><path d="m220 0v640" stroke="#1c30d0" stroke-width="1"/><path d="m240 0v640" stroke="#1c30d0" stroke-width="1"/><path d="m260 0v640" stroke="#1c30d0" stroke-width="1"/><path d="m280 0v640" stroke="#1c30d0" stroke-width="1"/><path d="m300 0v640" stroke="#1c30d0" stroke-width="1"/><path d="m320 0v640" stroke="#1c30d0" stroke-width="1"/><path d="m340 0v640" stroke="#1c30d0" stroke-width="1"/><path d="m360 0v640" stroke="#1c30d0" stroke-width="1"/><path d="m380 0v640" stroke="#1c30d0" stroke-width="1"/><path d="m400 0v640" stroke="#1c30d0" stroke-width="1"/><path d="m420 0v640" stroke="#1c30d0" stroke-width="1"/><path d="m440 0v640" stroke="#1c30d0" stroke-width="1"/><path d="m460 0v640" stroke="#1c30d0" stroke-width="1"/><path d="m480 0v640" stroke="#1c30d0" stroke-width="1"/><path d="m500 0v640" stroke="#1c30d0" stroke-width="1"/><path d="m520 0v640" stroke="#1c30d0" stroke-width="1"/><path d="m540 0v640" stroke="#1c30d0" stroke-width="1"/><path d="m560 0v640" stroke="#1c30d0" stroke-width="1"/><path d="m580 0v640" stroke="#1c30d0" stroke-width="1"/><path d="m600 0v640" stroke="#1c30d0" stroke-width="1"/><path d="m620 0v640" stroke="#1c30d0" stroke-width="1"/><path d="m640 0v640" stroke="#1c30d0"/><path d="m0 0h640" stroke="#1c30d0"/><path d="m0 20h640" stroke="#1c30d0" stroke-width="1"/><path d="m0 40h640" stroke="#1c30d0" stroke-width="1"/><path d="m0 60h640" stroke="#1c30d0" stroke-width="1"/><path d="m0 80h640" stroke="#1c30d0" stroke-width="1"/><path d="m0 100h640" stroke="#1c30d0" stroke-width="1"/><path d="m0 120h640" stroke="#1c30d0" stroke-width="1"/><path d="m0 140h640" stroke="#1c30d0" stroke-width="1"/><path d="m0 160h640" stroke="#1c30d0" stroke-width="1"/><path d="m0 180h640" stroke="#1c30d0" stroke-width="1"/><path d="m0 200h640" stroke="#1c30d0" stroke-width="1"/><path d="m0 220h640" stroke="#1c30d0" stroke-width="1"/><path d="m0 240h640" stroke="#1c30d0" stroke-width="1"/><path d="m0 260h640" stroke="#1c30d0" stroke-width="1"/><path d="m0 280h640" stroke="#1c30d0" stroke-width="1"/><path d="m0 300h640" stroke="#1c30d0" stroke-width="1"/><path d="m0 320h640" stroke="#1c30d0" stroke-width="1"/><path d="m0 340h640" stroke="#1c30d0" stroke-width="1"/><path d="m0 360h640" stroke="#1c30d0" stroke-width="1"/><path d="m0 380h640" stroke="#1c30d0" stroke-width="1"/><path d="m0 400h640" stroke="#1c30d0" stroke-width="1"/><path d="m0 420h640" stroke="#1c30d0" stroke-width="1"/><path d="m0 440h640" stroke="#1c30d0" stroke-width="1"/><path d="m0 460h640" stroke="#1c30d0" stroke-width="1"/><path d="m0 480h640" stroke="#1c30d0" stroke-width="1"/><path d="m0 500h640" stroke="#1c30d0" stroke-width="1"/><path d="m0 520h640" stroke="#1c30d0" stroke-width="1"/><path d="m0 540h640" stroke="#1c30d0" stroke-width="1"/><path d="m0 560h640" stroke="#1c30d0" stroke-width="1"/><path d="m0 580h640" stroke="#1c30d0" stroke-width="1"/><path d="m0 600h640" stroke="#1c30d0" stroke-width="1"/><path d="m0 620h640" stroke="#1c30d0" stroke-width="1"/><path d="m0 640h640" stroke="#1c30d0"/></g></g></g></svg>