<svg color-interpolation="auto" height="640" stroke="#000" stroke-linecap="square" stroke-miterlimit="10" width="640" xmlns="http://www.w3.org/2000/svg"><g stroke-linecap="round" stroke-width="2"><path d="m250 45.2 4.8 4.8-4.8 4.8-4.8-4.8z" fill="none"/><g><path d="m270 45.2 4.8 4.8-4.8 4.8-4.8-4.8z" fill="none"/><path d="m290 45.2 4.8 4.8-4.8 4.8-4.8-4.8z" fill="none"/><path d="m310 45.2 4.8 4.8-4.8 4.8-4.8-4.8z" fill="none"/><path d="m330 45.2 4.8 4.8-4.8 4.8-4.8-4.8z" fill="none"/><path d="m350 45.2 4.8 4.8-4.8 4.8-4.8-4.8z" fill="none"/><path d="m370 45.2 4.8 4.8-4.8 4.8-4.8-4.8z" fill="none"/><path d="m210 65.2 4.8 4.8-4.8 4.8-4.8-4.8z" fill="none"/><path d="m230 65.2 4.8 4.8-4.8 4.8-4.8-4.8z" fill="none"/><path d="m390 65.2 4.8 4.8-4.8 4.8-4.8-4.8z" fill="none"/><path d="m410 65.2 4.8 4.8-4.8 4.8-4.8-4.8z" fill="none"/><path d="m190 85.2 4.8 4.8-4.8 4.8-4.8-4.8z" fill="none"/><path d="m430 85.2 4.8 4.8-4.8 4.8-4.8-4.8z" fill="none"/><path d="m190 105.2 4.8 4.8-4.8 4.8-4.8-4.8z" fill="none"/><path d="m430 105.2 4.8 4.8-4.8 4.8-4.8-4.8z" fill="none"/><path d="m170 125.2 4.8 4.8-4.8 4.8-4.8-4.8z" fill="none"/><path d="m210 125.6574-4.8 8.3139h9.6z" fill="none"/><path d="m450 125.2 4.8 4.8-4.8 4.8-4.8-4.8z" fill="none"/><path d="m170 145.2 4.8 4.8-4.8 4.8-4.8-4.8z" fill="none"/><path d="m210 145.6574-4.8 8.3139h9.6z" fill="none"/><path d="m450 145.2 4.8 4.8-4.8 4.8-4.8-4.8z" fill="none"/><path d="m150 165.2 4.8 4.8-4.8 4.8-4.8-4.8z" fill="none"/><path d="m190 165.6574-4.8 8.3139h9.6z" fill="none"/><path d="m310 165.2 1.4107 2.8584 3.1544.4583-2.2826 2.2249.5389 3.1417-2.8214-1.4833-2.8214 1.4833.5389-3.1417-2.2826-2.2249 3.1544-.4583z" stroke="none"/><path d="m330 165.2 1.4107 2.8584 3.1544.4583-2.2826 2.2249.5389 3.1417-2.8214-1.4833-2.8214 1.4833.5389-3.1417-2.2826-2.2249 3.1544-.4583z" stroke="none"/><path d="m350 165.2 4.8 4.8-4.8 4.8-4.8-4.8z" stroke="none"/><path d="m470 165.2 4.8 4.8-4.8 4.8-4.8-4.8z" fill="none"/><path d="m150 185.2 4.8 4.8-4.8 4.8-4.8-4.8z" fill="none"/><path d="m190 185.6574-4.8 8.3139h9.6z" fill="none"/><circle cx="230" cy="190" fill="none" r="4.8"/><circle cx="250" cy="190" fill="none" r="4.8"/><circle cx="270" cy="190" fill="none" r="4.8"/><circle cx="290" cy="190" fill="none" r="4.8"/><path d="m310 185.2 1.4107 2.8584 3.1544.4583-2.2826 2.2249.5389 3.1417-2.8214-1.4833-2.8214 1.4833.5389-3.1417-2.2826-2.2249 3.1544-.4583z" stroke="none"/><path d="m330 185.2 1.4107 2.8584 3.1544.4583-2.2826 2.2249.5389 3.1417-2.8214-1.4833-2.8214 1.4833.5389-3.1417-2.2826-2.2249 3.1544-.4583z" stroke="none"/><path d="m350 185.2 4.8 4.8-4.8 4.8-4.8-4.8z" stroke="none"/><path d="m370 185.2 4.8 4.8-4.8 4.8-4.8-4.8z" stroke="none"/><g fill="none"><circle cx="390" cy="190" r="4.8"/><path d="m470 185.2 4.8 4.8-4.8 4.8-4.8-4.8z"/><path d="m150 205.2 4.8 4.8-4.8 4.8-4.8-4.8z"/><path d="m190 205.6574-4.8 8.3139h9.6z"/><path d="m210 205.2 4.8 4.8-4.8 4.8-4.8-4.8z"/><circle cx="230" cy="210" r="4.8"/><circle cx="250" cy="210" r="4.8"/><circle cx="270" cy="210" r="4.8"/><circle cx="290" cy="210" r="4.8"/><circle cx="310" cy="210" r="4.8"/><circle cx="330" cy="210" r="4.8"/><circle cx="350" cy="210" r="4.8"/><circle cx="370" cy="210" r="4.8"/><circle cx="390" cy="210" r="4.8"/><path d="m410 205.2 4.8 4.8-4.8 4.8-4.8-4.8z"/><circle cx="430" cy="210" r="4.8"/><path d="m470 205.2 4.8 4.8-4.8 4.8-4.8-4.8z"/><path d="m150 225.2 4.8 4.8-4.8 4.8-4.8-4.8z"/><path d="m190 225.6574-4.8 8.3139h9.6z"/><circle cx="210" cy="230" r="4.8"/><path d="m230 225.2 4.8 4.8-4.8 4.8-4.8-4.8z"/><path d="m250 225.2 4.8 4.8-4.8 4.8-4.8-4.8z"/><path d="m270 225.2 4.8 4.8-4.8 4.8-4.8-4.8z"/><path d="m290 225.2 4.8 4.8-4.8 4.8-4.8-4.8z"/><path d="m310 225.2 4.8 4.8-4.8 4.8-4.8-4.8z"/><path d="m330 225.2 4.8 4.8-4.8 4.8-4.8-4.8z"/><path d="m350 225.2 4.8 4.8-4.8 4.8-4.8-4.8z"/><path d="m370 225.2 4.8 4.8-4.8 4.8-4.8-4.8z"/><path d="m390 225.2 4.8 4.8-4.8 4.8-4.8-4.8z"/><circle cx="410" cy="230" r="4.8"/><circle cx="430" cy="230" r="4.8"/><path d="m470 225.2 4.8 4.8-4.8 4.8-4.8-4.8z"/><path d="m150 245.2 4.8 4.8-4.8 4.8-4.8-4.8z"/><circle cx="190" cy="250" r="4.8"/><circle cx="210" cy="250" r="4.8"/><circle cx="230" cy="250" r="4.8"/><circle cx="250" cy="250" r="4.8"/><circle cx="270" cy="250" r="4.8"/><circle cx="290" cy="250" r="4.8"/><circle cx="310" cy="250" r="4.8"/><circle cx="330" cy="250" r="4.8"/><circle cx="350" cy="250" r="4.8"/><circle cx="370" cy="250" r="4.8"/><circle cx="390" cy="250" r="4.8"/><circle cx="410" cy="250" r="4.8"/><circle cx="430" cy="250" r="4.8"/><path d="m470 245.2 4.8 4.8-4.8 4.8-4.8-4.8z"/><path d="m170 265.2 4.8 4.8-4.8 4.8-4.8-4.8z"/><circle cx="190" cy="270" r="4.8"/><path d="m210 265.6574-4.8 8.3139h9.6z"/><circle cx="230" cy="270" r="4.8"/><circle cx="250" cy="270" r="4.8"/><circle cx="270" cy="270" r="4.8"/><circle cx="290" cy="270" r="4.8"/><circle cx="310" cy="270" r="4.8"/><circle cx="330" cy="270" r="4.8"/><circle cx="350" cy="270" r="4.8"/><circle cx="370" cy="270" r="4.8"/><circle cx="390" cy="270" r="4.8"/><circle cx="410" cy="270" r="4.8"/><circle cx="430" cy="270" r="4.8"/><path d="m450 265.2 4.8 4.8-4.8 4.8-4.8-4.8z"/><path d="m170 285.2 4.8 4.8-4.8 4.8-4.8-4.8z"/><path d="m210 285.6574-4.8 8.3139h9.6z"/><circle cx="230" cy="290" r="4.8"/><circle cx="250" cy="290" r="4.8"/><circle cx="270" cy="290" r="4.8"/><circle cx="290" cy="290" r="4.8"/><circle cx="310" cy="290" r="4.8"/><circle cx="330" cy="290" r="4.8"/><circle cx="350" cy="290" r="4.8"/><circle cx="370" cy="290" r="4.8"/><circle cx="390" cy="290" r="4.8"/><circle cx="410" cy="290" r="4.8"/><path d="m450 285.2 4.8 4.8-4.8 4.8-4.8-4.8z"/><path d="m190 305.2 4.8 4.8-4.8 4.8-4.8-4.8z"/><path d="m230 305.6574-4.8 8.3139h9.6z"/><circle cx="250" cy="310" r="4.8"/><circle cx="270" cy="310" r="4.8"/><circle cx="290" cy="310" r="4.8"/><circle cx="310" cy="310" r="4.8"/><circle cx="330" cy="310" r="4.8"/><circle cx="350" cy="310" r="4.8"/><circle cx="370" cy="310" r="4.8"/><circle cx="390" cy="310" r="4.8"/><path d="m430 305.2 4.8 4.8-4.8 4.8-4.8-4.8z"/><path d="m210 325.2 4.8 4.8-4.8 4.8-4.8-4.8z"/><circle cx="270" cy="330" r="4.8"/><circle cx="290" cy="330" r="4.8"/><circle cx="310" cy="330" r="4.8"/><circle cx="330" cy="330" r="4.8"/><circle cx="350" cy="330" r="4.8"/><path d="m410 325.2 4.8 4.8-4.8 4.8-4.8-4.8z"/><path d="m230 345.2 4.8 4.8-4.8 4.8-4.8-4.8z"/><path d="m250 345.2 4.8 4.8-4.8 4.8-4.8-4.8z"/><path d="m370 345.2 4.8 4.8-4.8 4.8-4.8-4.8z"/><path d="m390 345.2 4.8 4.8-4.8 4.8-4.8-4.8z"/><path d="m270 365.2 4.8 4.8-4.8 4.8-4.8-4.8z"/><path d="m290 365.2 4.8 4.8-4.8 4.8-4.8-4.8z"/><path d="m330 365.2 4.8 4.8-4.8 4.8-4.8-4.8z"/><path d="m350 365.2 4.8 4.8-4.8 4.8-4.8-4.8z"/><path d="m290 385.2 4.8 4.8-4.8 4.8-4.8-4.8z"/><path d="m330 385.2 4.8 4.8-4.8 4.8-4.8-4.8z"/><path d="m290 405.2 4.8 4.8-4.8 4.8-4.8-4.8z"/><path d="m330 405.2 4.8 4.8-4.8 4.8-4.8-4.8z"/><path d="m290 425.2 4.8 4.8-4.8 4.8-4.8-4.8z"/><path d="m330 425.2 4.8 4.8-4.8 4.8-4.8-4.8z"/><path d="m250 445.2 4.8 4.8-4.8 4.8-4.8-4.8z"/><path d="m270 445.2 4.8 4.8-4.8 4.8-4.8-4.8z"/><path d="m290 445.2 4.8 4.8-4.8 4.8-4.8-4.8z"/><path d="m330 445.2 4.8 4.8-4.8 4.8-4.8-4.8z"/><path d="m350 445.2 4.8 4.8-4.8 4.8-4.8-4.8z"/><path d="m370 445.2 4.8 4.8-4.8 4.8-4.8-4.8z"/><path d="m210 465.2 4.8 4.8-4.8 4.8-4.8-4.8z"/><path d="m230 465.2 4.8 4.8-4.8 4.8-4.8-4.8z"/><path d="m290 465.2 4.8 4.8-4.8 4.8-4.8-4.8z"/><path d="m330 465.2 4.8 4.8-4.8 4.8-4.8-4.8z"/><path d="m390 465.2 4.8 4.8-4.8 4.8-4.8-4.8z"/><path d="m410 465.2 4.8 4.8-4.8 4.8-4.8-4.8z"/><path d="m190 485.2 4.8 4.8-4.8 4.8-4.8-4.8z"/><path d="m270 485.2 4.8 4.8-4.8 4.8-4.8-4.8z"/><path d="m290 485.6574-4.8 8.3139h9.6z"/><path d="m350 485.2 4.8 4.8-4.8 4.8-4.8-4.8z"/><path d="m430 485.2 4.8 4.8-4.8 4.8-4.8-4.8z"/><path d="m170 505.2 4.8 4.8-4.8 4.8-4.8-4.8z"/><path d="m250 505.2 4.8 4.8-4.8 4.8-4.8-4.8z"/><path d="m270 505.6574-4.8 8.3139h9.6z"/><path d="m290 505.6574-4.8 8.3139h9.6z"/><path d="m310 505.6574-4.8 8.3139h9.6z"/><path d="m330 505.6574-4.8 8.3139h9.6z"/><path d="m370 505.2 4.8 4.8-4.8 4.8-4.8-4.8z"/><path d="m450 505.2 4.8 4.8-4.8 4.8-4.8-4.8z"/><path d="m170 525.2 4.8 4.8-4.8 4.8-4.8-4.8z"/><path d="m210 525.6575-4.8 8.3138h9.6z"/><path d="m450 525.2 4.8 4.8-4.8 4.8-4.8-4.8z"/><path d="m170 545.2 4.8 4.8-4.8 4.8-4.8-4.8z"/><path d="m190 545.2 4.8 4.8-4.8 4.8-4.8-4.8z"/><path d="m230 545.6575-4.8 8.3138h9.6z"/><path d="m270 545.6575-4.8 8.3138h9.6z"/><path d="m290 545.6575-4.8 8.3138h9.6z"/><path d="m310 545.6575-4.8 8.3138h9.6z"/><path d="m330 545.6575-4.8 8.3138h9.6z"/><path d="m350 545.6575-4.8 8.3138h9.6z"/><path d="m430 545.2 4.8 4.8-4.8 4.8-4.8-4.8z"/><path d="m450 545.2 4.8 4.8-4.8 4.8-4.8-4.8z"/><path d="m190 565.2 4.8 4.8-4.8 4.8-4.8-4.8z"/><path d="m210 565.2 4.8 4.8-4.8 4.8-4.8-4.8z"/><path d="m230 565.2 4.8 4.8-4.8 4.8-4.8-4.8z"/><path d="m390 565.2 4.8 4.8-4.8 4.8-4.8-4.8z"/><path d="m410 565.2 4.8 4.8-4.8 4.8-4.8-4.8z"/><path d="m430 565.2 4.8 4.8-4.8 4.8-4.8-4.8z"/><path d="m210 585.2 4.8 4.8-4.8 4.8-4.8-4.8z"/><path d="m230 585.2 4.8 4.8-4.8 4.8-4.8-4.8z"/><path d="m250 585.2 4.8 4.8-4.8 4.8-4.8-4.8z"/><path d="m270 585.2 4.8 4.8-4.8 4.8-4.8-4.8z"/><path d="m290 585.2 4.8 4.8-4.8 4.8-4.8-4.8z"/><path d="m310 585.2 4.8 4.8-4.8 4.8-4.8-4.8z"/><path d="m330 585.2 4.8 4.8-4.8 4.8-4.8-4.8z"/><path d="m350 585.2 4.8 4.8-4.8 4.8-4.8-4.8z"/><path d="m370 585.2 4.8 4.8-4.8 4.8-4.8-4.8z"/><path d="m390 585.2 4.8 4.8-4.8 4.8-4.8-4.8z"/><path d="m410 585.2 4.8 4.8-4.8 4.8-4.8-4.8z"/><path d="m250 605.2 4.8 4.8-4.8 4.8-4.8-4.8z"/><path d="m270 605.2 4.8 4.8-4.8 4.8-4.8-4.8z"/><path d="m290 605.2 4.8 4.8-4.8 4.8-4.8-4.8z"/><path d="m310 605.2 4.8 4.8-4.8 4.8-4.8-4.8z"/><path d="m330 605.2 4.8 4.8-4.8 4.8-4.8-4.8z"/><path d="m350 605.2 4.8 4.8-4.8 4.8-4.8-4.8z"/><path d="m370 605.2 4.8 4.8-4.8 4.8-4.8-4.8z"/><path d="m0 0v640" stroke="#1c30d0"/><path d="m20 0v640" stroke="#1c30d0" stroke-width="1"/><path d="m40 0v640" stroke="#1c30d0" stroke-width="1"/><path d="m60 0v640" stroke="#1c30d0" stroke-width="1"/><path d="m80 0v640" stroke="#1c30d0" stroke-width="1"/><path d="m100 0v640" stroke="#1c30d0" stroke-width="1"/><path d="m120 0v640" stroke="#1c30d0" stroke-width="1"/><path d="m140 0v640" stroke="#1c30d0" stroke-width="1"/><path d="m160 0v640" stroke="#1c30d0" stroke-width="1"/><path d="m180 0v640" stroke="#1c30d0" stroke-width="1"/><path d="m200 0v640" stroke="#1c30d0" stroke-width="1"/><path d="m220 0v640" stroke="#1c30d0" stroke-width="1"/><path d="m240 0v640" stroke="#1c30d0" stroke-width="1"/><path d="m260 0v640" stroke="#1c30d0" stroke-width="1"/><path d="m280 0v640" stroke="#1c30d0" stroke-width="1"/><path d="m300 0v640" stroke="#1c30d0" stroke-width="1"/><path d="m320 0v640" stroke="#1c30d0" stroke-width="1"/><path d="m340 0v640" stroke="#1c30d0" stroke-width="1"/><path d="m360 0v640" stroke="#1c30d0" stroke-width="1"/><path d="m380 0v640" stroke="#1c30d0" stroke-width="1"/><path d="m400 0v640" stroke="#1c30d0" stroke-width="1"/><path d="m420 0v640" stroke="#1c30d0" stroke-width="1"/><path d="m440 0v640" stroke="#1c30d0" stroke-width="1"/><path d="m460 0v640" stroke="#1c30d0" stroke-width="1"/><path d="m480 0v640" stroke="#1c30d0" stroke-width="1"/><path d="m500 0v640" stroke="#1c30d0" stroke-width="1"/><path d="m520 0v640" stroke="#1c30d0" stroke-width="1"/><path d="m540 0v640" stroke="#1c30d0" stroke-width="1"/><path d="m560 0v640" stroke="#1c30d0" stroke-width="1"/><path d="m580 0v640" stroke="#1c30d0" stroke-width="1"/><path d="m600 0v640" stroke="#1c30d0" stroke-width="1"/><path d="m620 0v640" stroke="#1c30d0" stroke-width="1"/><path d="m640 0v640" stroke="#1c30d0"/><path d="m0 0h640" stroke="#1c30d0"/><path d="m0 20h640" stroke="#1c30d0" stroke-width="1"/><path d="m0 40h640" stroke="#1c30d0" stroke-width="1"/><path d="m0 60h640" stroke="#1c30d0" stroke-width="1"/><path d="m0 80h640" stroke="#1c30d0" stroke-width="1"/><path d="m0 100h640" stroke="#1c30d0" stroke-width="1"/><path d="m0 120h640" stroke="#1c30d0" stroke-width="1"/><path d="m0 140h640" stroke="#1c30d0" stroke-width="1"/><path d="m0 160h640" stroke="#1c30d0" stroke-width="1"/><path d="m0 180h640" stroke="#1c30d0" stroke-width="1"/><path d="m0 200h640" stroke="#1c30d0" stroke-width="1"/><path d="m0 220h640" stroke="#1c30d0" stroke-width="1"/><path d="m0 240h640" stroke="#1c30d0" stroke-width="1"/><path d="m0 260h640" stroke="#1c30d0" stroke-width="1"/><path d="m0 280h640" stroke="#1c30d0" stroke-width="1"/><path d="m0 300h640" stroke="#1c30d0" stroke-width="1"/><path d="m0 320h640" stroke="#1c30d0" stroke-width="1"/><path d="m0 340h640" stroke="#1c30d0" stroke-width="1"/><path d="m0 360h640" stroke="#1c30d0" stroke-width="1"/><path d="m0 380h640" stroke="#1c30d0" stroke-width="1"/><path d="m0 400h640" stroke="#1c30d0" stroke-width="1"/><path d="m0 420h640" stroke="#1c30d0" stroke-width="1"/><path d="m0 440h640" stroke="#1c30d0" stroke-width="1"/><path d="m0 460h640" stroke="#1c30d0" stroke-width="1"/><path d="m0 480h640" stroke="#1c30d0" stroke-width="1"/><path d="m0 500h640" stroke="#1c30d0" stroke-width="1"/><path d="m0 520h640" stroke="#1c30d0" stroke-width="1"/><path d="m0 540h640" stroke="#1c30d0" stroke-width="1"/><path d="m0 560h640" stroke="#1c30d0" stroke-width="1"/><path d="m0 580h640" stroke="#1c30d0" stroke-width="1"/><path d="m0 600h640" stroke="#1c30d0" stroke-width="1"/><path d="m0 620h640" stroke="#1c30d0" stroke-width="1"/><path d="m0 640h640" stroke="#1c30d0"/></g></g></g></svg>