<svg color-interpolation="auto" height="480" stroke="#000" stroke-linecap="square" stroke-miterlimit="10" width="480" xmlns="http://www.w3.org/2000/svg"><g stroke-linecap="round" stroke-width="2"><path d="m183.6 23.6h12.8v12.8h-12.8z" fill="none"/><g><g fill="none"><path d="m203.6 23.6h12.8v12.8h-12.8z"/><path d="m223.6 23.6h12.8v12.8h-12.8z"/><path d="m243.6 23.6h12.8v12.8h-12.8z"/><path d="m263.6 23.6h12.8v12.8h-12.8z"/><path d="m283.6 23.6h12.8v12.8h-12.8z"/><path d="m143.6 43.6h12.8v12.8h-12.8z"/><path d="m163.6 43.6h12.8v12.8h-12.8z"/><circle cx="190" cy="50" r="6.4"/><circle cx="210" cy="50" r="6.4"/><circle cx="230" cy="50" r="6.4"/><circle cx="250" cy="50" r="6.4"/><circle cx="270" cy="50" r="6.4"/><circle cx="290" cy="50" r="6.4"/><path d="m303.6 43.6h12.8v12.8h-12.8z"/><path d="m323.6 43.6h12.8v12.8h-12.8z"/><path d="m103.6 63.6h12.8v12.8h-12.8z"/><path d="m123.6 63.6h12.8v12.8h-12.8z"/><circle cx="150" cy="70" r="6.4"/><circle cx="170" cy="70" r="6.4"/><circle cx="190" cy="70" r="6.4"/><circle cx="210" cy="70" r="6.4"/><circle cx="230" cy="70" r="6.4"/><circle cx="250" cy="70" r="6.4"/><circle cx="270" cy="70" r="6.4"/><circle cx="290" cy="70" r="6.4"/><circle cx="310" cy="70" r="6.4"/><circle cx="330" cy="70" r="6.4"/><path d="m343.6 63.6h12.8v12.8h-12.8z"/><path d="m363.6 63.6h12.8v12.8h-12.8z"/><path d="m83.6 83.6h12.8v12.8h-12.8z"/><circle cx="110" cy="90" r="6.4"/><circle cx="130" cy="90" r="6.4"/><circle cx="150" cy="90" r="6.4"/><circle cx="170" cy="90" r="6.4"/><circle cx="190" cy="90" r="6.4"/><circle cx="210" cy="90" r="6.4"/><circle cx="230" cy="90" r="6.4"/><circle cx="250" cy="90" r="6.4"/><circle cx="270" cy="90" r="6.4"/><circle cx="290" cy="90" r="6.4"/><circle cx="310" cy="90" r="6.4"/><circle cx="330" cy="90" r="6.4"/><circle cx="350" cy="90" r="6.4"/><circle cx="370" cy="90" r="6.4"/><path d="m383.6 83.6h12.8v12.8h-12.8z"/><path d="m63.6 103.6h12.8v12.8h-12.8z"/><circle cx="90" cy="110" r="6.4"/><circle cx="110" cy="110" r="6.4"/><circle cx="130" cy="110" r="6.4"/><circle cx="150" cy="110" r="6.4"/><circle cx="170" cy="110" r="6.4"/><path d="m190 110h6.4" stroke-width="1.5"/><path d="m190 110 3.2 5.5426" stroke-width="1.5"/><path d="m190 110-3.2 5.5426" stroke-width="1.5"/><path d="m190 110h-6.4" stroke-width="1.5"/><path d="m190 110-3.2-5.5426" stroke-width="1.5"/><path d="m190 110 3.2-5.5426" stroke-width="1.5"/><circle cx="210" cy="110" r="6.4"/><circle cx="230" cy="110" r="6.4"/><circle cx="250" cy="110" r="6.4"/><circle cx="270" cy="110" r="6.4"/><path d="m290 110h6.4" stroke-width="1.5"/><path d="m290 110 3.2 5.5426" stroke-width="1.5"/><path d="m290 110-3.2 5.5426" stroke-width="1.5"/><path d="m290 110h-6.4" stroke-width="1.5"/><path d="m290 110-3.2-5.5426" stroke-width="1.5"/><path d="m290 110 3.2-5.5426" stroke-width="1.5"/><circle cx="310" cy="110" r="6.4"/><circle cx="330" cy="110" r="6.4"/><circle cx="350" cy="110" r="6.4"/><circle cx="370" cy="110" r="6.4"/><circle cx="390" cy="110" r="6.4"/><path d="m403.6 103.6h12.8v12.8h-12.8z"/><path d="m63.6 123.6h12.8v12.8h-12.8z"/><circle cx="90" cy="130" r="6.4"/><circle cx="110" cy="130" r="6.4"/><circle cx="130" cy="130" r="6.4"/><path d="m150 130h6.4" stroke-width="1.5"/><path d="m150 130 3.2 5.5426" stroke-width="1.5"/><path d="m150 130-3.2 5.5426" stroke-width="1.5"/><path d="m150 130h-6.4" stroke-width="1.5"/><path d="m150 130-3.2-5.5426" stroke-width="1.5"/><path d="m150 130 3.2-5.5426" stroke-width="1.5"/><path d="m170 130h6.4" stroke-width="1.5"/><path d="m170 130 3.2 5.5426" stroke-width="1.5"/><path d="m170 130-3.2 5.5426" stroke-width="1.5"/><path d="m170 130h-6.4" stroke-width="1.5"/><path d="m170 130-3.2-5.5426" stroke-width="1.5"/><path d="m170 130 3.2-5.5426" stroke-width="1.5"/><circle cx="190" cy="130" r="6.4"/><circle cx="210" cy="130" r="6.4"/><circle cx="230" cy="130" r="6.4"/><circle cx="250" cy="130" r="6.4"/><circle cx="270" cy="130" r="6.4"/><circle cx="290" cy="130" r="6.4"/><path d="m310 130h6.4" stroke-width="1.5"/><path d="m310 130 3.2 5.5426" stroke-width="1.5"/><path d="m310 130-3.2 5.5426" stroke-width="1.5"/><path d="m310 130h-6.4" stroke-width="1.5"/><path d="m310 130-3.2-5.5426" stroke-width="1.5"/><path d="m310 130 3.2-5.5426" stroke-width="1.5"/><path d="m330 130h6.4" stroke-width="1.5"/><path d="m330 130 3.2 5.5426" stroke-width="1.5"/><path d="m330 130-3.2 5.5426" stroke-width="1.5"/><path d="m330 130h-6.4" stroke-width="1.5"/><path d="m330 130-3.2-5.5426" stroke-width="1.5"/><path d="m330 130 3.2-5.5426" stroke-width="1.5"/><circle cx="350" cy="130" r="6.4"/><circle cx="370" cy="130" r="6.4"/><circle cx="390" cy="130" r="6.4"/><path d="m403.6 123.6h12.8v12.8h-12.8z"/><path d="m43.6 143.6h12.8v12.8h-12.8z"/><circle cx="70" cy="150" r="6.4"/><circle cx="90" cy="150" r="6.4"/><path d="m110 150h6.4" stroke-width="1.5"/><path d="m110 150 3.2 5.5426" stroke-width="1.5"/><path d="m110 150-3.2 5.5426" stroke-width="1.5"/><path d="m110 150h-6.4" stroke-width="1.5"/><path d="m110 150-3.2-5.5426" stroke-width="1.5"/><path d="m110 150 3.2-5.5426" stroke-width="1.5"/><path d="m130 150h6.4" stroke-width="1.5"/><path d="m130 150 3.2 5.5426" stroke-width="1.5"/><path d="m130 150-3.2 5.5426" stroke-width="1.5"/><path d="m130 150h-6.4" stroke-width="1.5"/><path d="m130 150-3.2-5.5426" stroke-width="1.5"/><path d="m130 150 3.2-5.5426" stroke-width="1.5"/><circle cx="150" cy="150" r="6.4"/><circle cx="170" cy="150" r="6.4"/><circle cx="190" cy="150" r="6.4"/><circle cx="210" cy="150" r="6.4"/><circle cx="230" cy="150" r="6.4"/><circle cx="250" cy="150" r="6.4"/><circle cx="270" cy="150" r="6.4"/><circle cx="290" cy="150" r="6.4"/><circle cx="310" cy="150" r="6.4"/><circle cx="330" cy="150" r="6.4"/><path d="m350 150h6.4" stroke-width="1.5"/><path d="m350 150 3.2 5.5426" stroke-width="1.5"/><path d="m350 150-3.2 5.5426" stroke-width="1.5"/><path d="m350 150h-6.4" stroke-width="1.5"/><path d="m350 150-3.2-5.5426" stroke-width="1.5"/><path d="m350 150 3.2-5.5426" stroke-width="1.5"/><path d="m370 150h6.4" stroke-width="1.5"/><path d="m370 150 3.2 5.5426" stroke-width="1.5"/><path d="m370 150-3.2 5.5426" stroke-width="1.5"/><path d="m370 150h-6.4" stroke-width="1.5"/><path d="m370 150-3.2-5.5426" stroke-width="1.5"/><path d="m370 150 3.2-5.5426" stroke-width="1.5"/><circle cx="390" cy="150" r="6.4"/><circle cx="410" cy="150" r="6.4"/><path d="m423.6 143.6h12.8v12.8h-12.8z"/><path d="m43.6 163.6h12.8v12.8h-12.8z"/><circle cx="70" cy="170" r="6.4"/><circle cx="90" cy="170" r="6.4"/><circle cx="110" cy="170" r="6.4"/><circle cx="130" cy="170" r="6.4"/><circle cx="150" cy="170" r="6.4"/><circle cx="170" cy="170" r="6.4"/><circle cx="190" cy="170" r="6.4"/><circle cx="210" cy="170" r="6.4"/><circle cx="230" cy="170" r="6.4"/><circle cx="250" cy="170" r="6.4"/><circle cx="270" cy="170" r="6.4"/><circle cx="290" cy="170" r="6.4"/><circle cx="310" cy="170" r="6.4"/><circle cx="330" cy="170" r="6.4"/><circle cx="350" cy="170" r="6.4"/><circle cx="370" cy="170" r="6.4"/><circle cx="390" cy="170" r="6.4"/><circle cx="410" cy="170" r="6.4"/><path d="m423.6 163.6h12.8v12.8h-12.8z"/><path d="m23.6 183.6h12.8v12.8h-12.8z"/><circle cx="50" cy="190" r="6.4"/><circle cx="70" cy="190" r="6.4"/><circle cx="90" cy="190" r="6.4"/><circle cx="110" cy="190" r="6.4"/><path d="m130 190h6.4" stroke-width="1.5"/><path d="m130 190 3.2 5.5426" stroke-width="1.5"/><path d="m130 190-3.2 5.5426" stroke-width="1.5"/><path d="m130 190h-6.4" stroke-width="1.5"/><path d="m130 190-3.2-5.5426" stroke-width="1.5"/><path d="m130 190 3.2-5.5426" stroke-width="1.5"/><path d="m150 190h6.4" stroke-width="1.5"/><path d="m150 190 3.2 5.5426" stroke-width="1.5"/><path d="m150 190-3.2 5.5426" stroke-width="1.5"/><path d="m150 190h-6.4" stroke-width="1.5"/><path d="m150 190-3.2-5.5426" stroke-width="1.5"/><path d="m150 190 3.2-5.5426" stroke-width="1.5"/><path d="m170 190h6.4" stroke-width="1.5"/><path d="m170 190 3.2 5.5426" stroke-width="1.5"/><path d="m170 190-3.2 5.5426" stroke-width="1.5"/><path d="m170 190h-6.4" stroke-width="1.5"/><path d="m170 190-3.2-5.5426" stroke-width="1.5"/><path d="m170 190 3.2-5.5426" stroke-width="1.5"/><path d="m190 190h6.4" stroke-width="1.5"/><path d="m190 190 3.2 5.5426" stroke-width="1.5"/><path d="m190 190-3.2 5.5426" stroke-width="1.5"/><path d="m190 190h-6.4" stroke-width="1.5"/><path d="m190 190-3.2-5.5426" stroke-width="1.5"/><path d="m190 190 3.2-5.5426" stroke-width="1.5"/><circle cx="210" cy="190" r="6.4"/><circle cx="230" cy="190" r="6.4"/><circle cx="250" cy="190" r="6.4"/><circle cx="270" cy="190" r="6.4"/><path d="m290 190h6.4" stroke-width="1.5"/><path d="m290 190 3.2 5.5426" stroke-width="1.5"/><path d="m290 190-3.2 5.5426" stroke-width="1.5"/><path d="m290 190h-6.4" stroke-width="1.5"/><path d="m290 190-3.2-5.5426" stroke-width="1.5"/><path d="m290 190 3.2-5.5426" stroke-width="1.5"/><path d="m310 190h6.4" stroke-width="1.5"/><path d="m310 190 3.2 5.5426" stroke-width="1.5"/><path d="m310 190-3.2 5.5426" stroke-width="1.5"/><path d="m310 190h-6.4" stroke-width="1.5"/><path d="m310 190-3.2-5.5426" stroke-width="1.5"/><path d="m310 190 3.2-5.5426" stroke-width="1.5"/><path d="m330 190h6.4" stroke-width="1.5"/><path d="m330 190 3.2 5.5426" stroke-width="1.5"/><path d="m330 190-3.2 5.5426" stroke-width="1.5"/><path d="m330 190h-6.4" stroke-width="1.5"/><path d="m330 190-3.2-5.5426" stroke-width="1.5"/><path d="m330 190 3.2-5.5426" stroke-width="1.5"/><path d="m350 190h6.4" stroke-width="1.5"/><path d="m350 190 3.2 5.5426" stroke-width="1.5"/><path d="m350 190-3.2 5.5426" stroke-width="1.5"/><path d="m350 190h-6.4" stroke-width="1.5"/><path d="m350 190-3.2-5.5426" stroke-width="1.5"/><path d="m350 190 3.2-5.5426" stroke-width="1.5"/><circle cx="370" cy="190" r="6.4"/><circle cx="390" cy="190" r="6.4"/><circle cx="410" cy="190" r="6.4"/><circle cx="430" cy="190" r="6.4"/><path d="m443.6 183.6h12.8v12.8h-12.8z"/><path d="m23.6 203.6h12.8v12.8h-12.8z"/><circle cx="50" cy="210" r="6.4"/><circle cx="70" cy="210" r="6.4"/><circle cx="90" cy="210" r="6.4"/><path d="m110 210h6.4" stroke-width="1.5"/><path d="m110 210 3.2 5.5426" stroke-width="1.5"/><path d="m110 210-3.2 5.5426" stroke-width="1.5"/><path d="m110 210h-6.4" stroke-width="1.5"/><path d="m110 210-3.2-5.5426" stroke-width="1.5"/><path d="m110 210 3.2-5.5426" stroke-width="1.5"/></g><path d="m130 204.2099-6.4 11.0851h12.8z" stroke="none"/><path d="m150 204.2099-6.4 11.0851h12.8z" stroke="none"/><path d="m170 204.2099-6.4 11.0851h12.8z" stroke="none"/><path d="m190 210h6.4" fill="none" stroke-width="1.5"/><path d="m190 210 3.2 5.5426" fill="none" stroke-width="1.5"/><path d="m190 210-3.2 5.5426" fill="none" stroke-width="1.5"/><path d="m190 210h-6.4" fill="none" stroke-width="1.5"/><path d="m190 210-3.2-5.5426" fill="none" stroke-width="1.5"/><path d="m190 210 3.2-5.5426" fill="none" stroke-width="1.5"/><path d="m210 210h6.4" fill="none" stroke-width="1.5"/><path d="m210 210 3.2 5.5426" fill="none" stroke-width="1.5"/><path d="m210 210-3.2 5.5426" fill="none" stroke-width="1.5"/><path d="m210 210h-6.4" fill="none" stroke-width="1.5"/><path d="m210 210-3.2-5.5426" fill="none" stroke-width="1.5"/><path d="m210 210 3.2-5.5426" fill="none" stroke-width="1.5"/><circle cx="230" cy="210" fill="none" r="6.4"/><circle cx="250" cy="210" fill="none" r="6.4"/><path d="m270 210h6.4" fill="none" stroke-width="1.5"/><path d="m270 210 3.2 5.5426" fill="none" stroke-width="1.5"/><path d="m270 210-3.2 5.5426" fill="none" stroke-width="1.5"/><path d="m270 210h-6.4" fill="none" stroke-width="1.5"/><path d="m270 210-3.2-5.5426" fill="none" stroke-width="1.5"/><path d="m270 210 3.2-5.5426" fill="none" stroke-width="1.5"/><path d="m290 204.2099-6.4 11.0851h12.8z" stroke="none"/><path d="m310 204.2099-6.4 11.0851h12.8z" stroke="none"/><path d="m330 204.2099-6.4 11.0851h12.8z" stroke="none"/><path d="m350 210h6.4" fill="none" stroke-width="1.5"/><path d="m350 210 3.2 5.5426" fill="none" stroke-width="1.5"/><path d="m350 210-3.2 5.5426" fill="none" stroke-width="1.5"/><path d="m350 210h-6.4" fill="none" stroke-width="1.5"/><path d="m350 210-3.2-5.5426" fill="none" stroke-width="1.5"/><path d="m350 210 3.2-5.5426" fill="none" stroke-width="1.5"/><path d="m370 210h6.4" fill="none" stroke-width="1.5"/><path d="m370 210 3.2 5.5426" fill="none" stroke-width="1.5"/><path d="m370 210-3.2 5.5426" fill="none" stroke-width="1.5"/><path d="m370 210h-6.4" fill="none" stroke-width="1.5"/><path d="m370 210-3.2-5.5426" fill="none" stroke-width="1.5"/><path d="m370 210 3.2-5.5426" fill="none" stroke-width="1.5"/><circle cx="390" cy="210" fill="none" r="6.4"/><circle cx="410" cy="210" fill="none" r="6.4"/><circle cx="430" cy="210" fill="none" r="6.4"/><path d="m443.6 203.6h12.8v12.8h-12.8z" fill="none"/><path d="m23.6 223.6h12.8v12.8h-12.8z" fill="none"/><circle cx="50" cy="230" fill="none" r="6.4"/><circle cx="70" cy="230" fill="none" r="6.4"/><circle cx="90" cy="230" fill="none" r="6.4"/><path d="m110 230h6.4" fill="none" stroke-width="1.5"/><path d="m110 230 3.2 5.5426" fill="none" stroke-width="1.5"/><path d="m110 230-3.2 5.5426" fill="none" stroke-width="1.5"/><path d="m110 230h-6.4" fill="none" stroke-width="1.5"/><path d="m110 230-3.2-5.5426" fill="none" stroke-width="1.5"/><path d="m110 230 3.2-5.5426" fill="none" stroke-width="1.5"/><path d="m130 224.2099-6.4 11.0851h12.8z" stroke="none"/><path d="m150 224.2099-6.4 11.0851h12.8z" stroke="none"/><path d="m170 230h6.4" fill="none" stroke-width="1.5"/><path d="m170 230 3.2 5.5426" fill="none" stroke-width="1.5"/><path d="m170 230-3.2 5.5426" fill="none" stroke-width="1.5"/><path d="m170 230h-6.4" fill="none" stroke-width="1.5"/><path d="m170 230-3.2-5.5426" fill="none" stroke-width="1.5"/><path d="m170 230 3.2-5.5426" fill="none" stroke-width="1.5"/><path d="m190 230h6.4" fill="none" stroke-width="1.5"/><path d="m190 230 3.2 5.5426" fill="none" stroke-width="1.5"/><path d="m190 230-3.2 5.5426" fill="none" stroke-width="1.5"/><path d="m190 230h-6.4" fill="none" stroke-width="1.5"/><path d="m190 230-3.2-5.5426" fill="none" stroke-width="1.5"/><path d="m190 230 3.2-5.5426" fill="none" stroke-width="1.5"/><path d="m210 230h6.4" fill="none" stroke-width="1.5"/><path d="m210 230 3.2 5.5426" fill="none" stroke-width="1.5"/><path d="m210 230-3.2 5.5426" fill="none" stroke-width="1.5"/><path d="m210 230h-6.4" fill="none" stroke-width="1.5"/><path d="m210 230-3.2-5.5426" fill="none" stroke-width="1.5"/><path d="m210 230 3.2-5.5426" fill="none" stroke-width="1.5"/><circle cx="230" cy="230" fill="none" r="6.4"/><circle cx="250" cy="230" fill="none" r="6.4"/><path d="m270 230h6.4" fill="none" stroke-width="1.5"/><path d="m270 230 3.2 5.5426" fill="none" stroke-width="1.5"/><path d="m270 230-3.2 5.5426" fill="none" stroke-width="1.5"/><path d="m270 230h-6.4" fill="none" stroke-width="1.5"/><path d="m270 230-3.2-5.5426" fill="none" stroke-width="1.5"/><path d="m270 230 3.2-5.5426" fill="none" stroke-width="1.5"/><path d="m290 224.2099-6.4 11.0851h12.8z" stroke="none"/><path d="m310 224.2099-6.4 11.0851h12.8z" stroke="none"/><path d="m330 230h6.4" fill="none" stroke-width="1.5"/><path d="m330 230 3.2 5.5426" fill="none" stroke-width="1.5"/><path d="m330 230-3.2 5.5426" fill="none" stroke-width="1.5"/><path d="m330 230h-6.4" fill="none" stroke-width="1.5"/><path d="m330 230-3.2-5.5426" fill="none" stroke-width="1.5"/><path d="m330 230 3.2-5.5426" fill="none" stroke-width="1.5"/><path d="m350 230h6.4" fill="none" stroke-width="1.5"/><path d="m350 230 3.2 5.5426" fill="none" stroke-width="1.5"/><path d="m350 230-3.2 5.5426" fill="none" stroke-width="1.5"/><path d="m350 230h-6.4" fill="none" stroke-width="1.5"/><path d="m350 230-3.2-5.5426" fill="none" stroke-width="1.5"/><path d="m350 230 3.2-5.5426" fill="none" stroke-width="1.5"/><path d="m370 230h6.4" fill="none" stroke-width="1.5"/><path d="m370 230 3.2 5.5426" fill="none" stroke-width="1.5"/><path d="m370 230-3.2 5.5426" fill="none" stroke-width="1.5"/><path d="m370 230h-6.4" fill="none" stroke-width="1.5"/><path d="m370 230-3.2-5.5426" fill="none" stroke-width="1.5"/><path d="m370 230 3.2-5.5426" fill="none" stroke-width="1.5"/><circle cx="390" cy="230" fill="none" r="6.4"/><circle cx="410" cy="230" fill="none" r="6.4"/><circle cx="430" cy="230" fill="none" r="6.4"/><path d="m443.6 223.6h12.8v12.8h-12.8z" fill="none"/><path d="m23.6 243.6h12.8v12.8h-12.8z" fill="none"/><circle cx="50" cy="250" fill="none" r="6.4"/><circle cx="70" cy="250" fill="none" r="6.4"/><circle cx="90" cy="250" fill="none" r="6.4"/><path d="m110 250h6.4" fill="none" stroke-width="1.5"/><path d="m110 250 3.2 5.5426" fill="none" stroke-width="1.5"/><path d="m110 250-3.2 5.5426" fill="none" stroke-width="1.5"/><path d="m110 250h-6.4" fill="none" stroke-width="1.5"/><path d="m110 250-3.2-5.5426" fill="none" stroke-width="1.5"/><path d="m110 250 3.2-5.5426" fill="none" stroke-width="1.5"/><path d="m130 250h6.4" fill="none" stroke-width="1.5"/><path d="m130 250 3.2 5.5426" fill="none" stroke-width="1.5"/><path d="m130 250-3.2 5.5426" fill="none" stroke-width="1.5"/><path d="m130 250h-6.4" fill="none" stroke-width="1.5"/><path d="m130 250-3.2-5.5426" fill="none" stroke-width="1.5"/><path d="m130 250 3.2-5.5426" fill="none" stroke-width="1.5"/><path d="m150 250h6.4" fill="none" stroke-width="1.5"/><path d="m150 250 3.2 5.5426" fill="none" stroke-width="1.5"/><path d="m150 250-3.2 5.5426" fill="none" stroke-width="1.5"/><path d="m150 250h-6.4" fill="none" stroke-width="1.5"/><path d="m150 250-3.2-5.5426" fill="none" stroke-width="1.5"/><path d="m150 250 3.2-5.5426" fill="none" stroke-width="1.5"/><path d="m170 244.2099-6.4 11.0851h12.8z" stroke="none"/><path d="m190 244.2099-6.4 11.0851h12.8z" stroke="none"/><path d="m210 250h6.4" fill="none" stroke-width="1.5"/><path d="m210 250 3.2 5.5426" fill="none" stroke-width="1.5"/><path d="m210 250-3.2 5.5426" fill="none" stroke-width="1.5"/><path d="m210 250h-6.4" fill="none" stroke-width="1.5"/><path d="m210 250-3.2-5.5426" fill="none" stroke-width="1.5"/><path d="m210 250 3.2-5.5426" fill="none" stroke-width="1.5"/><circle cx="230" cy="250" fill="none" r="6.4"/><circle cx="250" cy="250" fill="none" r="6.4"/><path d="m270 250h6.4" fill="none" stroke-width="1.5"/><path d="m270 250 3.2 5.5426" fill="none" stroke-width="1.5"/><path d="m270 250-3.2 5.5426" fill="none" stroke-width="1.5"/><path d="m270 250h-6.4" fill="none" stroke-width="1.5"/><path d="m270 250-3.2-5.5426" fill="none" stroke-width="1.5"/><path d="m270 250 3.2-5.5426" fill="none" stroke-width="1.5"/><path d="m290 250h6.4" fill="none" stroke-width="1.5"/><path d="m290 250 3.2 5.5426" fill="none" stroke-width="1.5"/><path d="m290 250-3.2 5.5426" fill="none" stroke-width="1.5"/><path d="m290 250h-6.4" fill="none" stroke-width="1.5"/><path d="m290 250-3.2-5.5426" fill="none" stroke-width="1.5"/><path d="m290 250 3.2-5.5426" fill="none" stroke-width="1.5"/><path d="m310 250h6.4" fill="none" stroke-width="1.5"/><path d="m310 250 3.2 5.5426" fill="none" stroke-width="1.5"/><path d="m310 250-3.2 5.5426" fill="none" stroke-width="1.5"/><path d="m310 250h-6.4" fill="none" stroke-width="1.5"/><path d="m310 250-3.2-5.5426" fill="none" stroke-width="1.5"/><path d="m310 250 3.2-5.5426" fill="none" stroke-width="1.5"/><path d="m330 244.2099-6.4 11.0851h12.8z" stroke="none"/><path d="m350 244.2099-6.4 11.0851h12.8z" stroke="none"/><path d="m370 250h6.4" fill="none" stroke-width="1.5"/><path d="m370 250 3.2 5.5426" fill="none" stroke-width="1.5"/><path d="m370 250-3.2 5.5426" fill="none" stroke-width="1.5"/><path d="m370 250h-6.4" fill="none" stroke-width="1.5"/><path d="m370 250-3.2-5.5426" fill="none" stroke-width="1.5"/><path d="m370 250 3.2-5.5426" fill="none" stroke-width="1.5"/><circle cx="390" cy="250" fill="none" r="6.4"/><circle cx="410" cy="250" fill="none" r="6.4"/><circle cx="430" cy="250" fill="none" r="6.4"/><path d="m443.6 243.6h12.8v12.8h-12.8z" fill="none"/><path d="m23.6 263.6h12.8v12.8h-12.8z" fill="none"/><circle cx="50" cy="270" fill="none" r="6.4"/><circle cx="70" cy="270" fill="none" r="6.4"/><circle cx="90" cy="270" fill="none" r="6.4"/><path d="m110 263.6 6.4 6.4-6.4 6.4-6.4-6.4z" stroke="none"/><path d="m130 263.6 6.4 6.4-6.4 6.4-6.4-6.4z" stroke="none"/><path d="m150 263.6 6.4 6.4-6.4 6.4-6.4-6.4z" stroke="none"/><path d="m170 263.6 6.4 6.4-6.4 6.4-6.4-6.4z" stroke="none"/><path d="m190 263.6 6.4 6.4-6.4 6.4-6.4-6.4z" stroke="none"/><path d="m210 263.6 6.4 6.4-6.4 6.4-6.4-6.4z" stroke="none"/><circle cx="230" cy="270" fill="none" r="6.4"/><circle cx="250" cy="270" fill="none" r="6.4"/><path d="m270 263.6 6.4 6.4-6.4 6.4-6.4-6.4z" stroke="none"/><path d="m290 263.6 6.4 6.4-6.4 6.4-6.4-6.4z" stroke="none"/><path d="m310 263.6 6.4 6.4-6.4 6.4-6.4-6.4z" stroke="none"/><path d="m330 263.6 6.4 6.4-6.4 6.4-6.4-6.4z" stroke="none"/><path d="m350 263.6 6.4 6.4-6.4 6.4-6.4-6.4z" stroke="none"/><path d="m370 263.6 6.4 6.4-6.4 6.4-6.4-6.4z" stroke="none"/><circle cx="390" cy="270" fill="none" r="6.4"/><circle cx="410" cy="270" fill="none" r="6.4"/><circle cx="430" cy="270" fill="none" r="6.4"/><path d="m443.6 263.6h12.8v12.8h-12.8z" fill="none"/><path d="m23.6 283.6h12.8v12.8h-12.8z" fill="none"/><circle cx="50" cy="290" fill="none" r="6.4"/><circle cx="70" cy="290" fill="none" r="6.4"/><circle cx="90" cy="290" fill="none" r="6.4"/><circle cx="110" cy="290" fill="none" r="6.4"/><path d="m130 283.6 6.4 6.4-6.4 6.4-6.4-6.4z" stroke="none"/><path d="m150 283.6 6.4 6.4-6.4 6.4-6.4-6.4z" stroke="none"/><path d="m170 283.6 6.4 6.4-6.4 6.4-6.4-6.4z" stroke="none"/><path d="m190 283.6 6.4 6.4-6.4 6.4-6.4-6.4z" stroke="none"/><circle cx="210" cy="290" fill="none" r="6.4"/><circle cx="230" cy="290" fill="none" r="6.4"/><circle cx="250" cy="290" fill="none" r="6.4"/><circle cx="270" cy="290" fill="none" r="6.4"/><path d="m290 283.6 6.4 6.4-6.4 6.4-6.4-6.4z" stroke="none"/><path d="m310 283.6 6.4 6.4-6.4 6.4-6.4-6.4z" stroke="none"/><path d="m330 283.6 6.4 6.4-6.4 6.4-6.4-6.4z" stroke="none"/><path d="m350 283.6 6.4 6.4-6.4 6.4-6.4-6.4z" stroke="none"/><circle cx="370" cy="290" fill="none" r="6.4"/><circle cx="390" cy="290" fill="none" r="6.4"/><circle cx="410" cy="290" fill="none" r="6.4"/><circle cx="430" cy="290" fill="none" r="6.4"/><path d="m443.6 283.6h12.8v12.8h-12.8z" fill="none"/><path d="m43.6 303.6h12.8v12.8h-12.8z" fill="none"/><circle cx="70" cy="310" fill="none" r="6.4"/><circle cx="90" cy="310" fill="none" r="6.4"/><circle cx="110" cy="310" fill="none" r="6.4"/><circle cx="130" cy="310" fill="none" r="6.4"/><circle cx="150" cy="310" fill="none" r="6.4"/><circle cx="170" cy="310" fill="none" r="6.4"/><circle cx="190" cy="310" fill="none" r="6.4"/><circle cx="210" cy="310" fill="none" r="6.4"/><circle cx="230" cy="310" fill="none" r="6.4"/><circle cx="250" cy="310" fill="none" r="6.4"/><circle cx="270" cy="310" fill="none" r="6.4"/><circle cx="290" cy="310" fill="none" r="6.4"/><circle cx="310" cy="310" fill="none" r="6.4"/><circle cx="330" cy="310" fill="none" r="6.4"/><circle cx="350" cy="310" fill="none" r="6.4"/><circle cx="370" cy="310" fill="none" r="6.4"/><circle cx="390" cy="310" fill="none" r="6.4"/><circle cx="410" cy="310" fill="none" r="6.4"/><path d="m423.6 303.6h12.8v12.8h-12.8z" fill="none"/><path d="m43.6 323.6h12.8v12.8h-12.8z" fill="none"/><circle cx="70" cy="330" fill="none" r="6.4"/><circle cx="90" cy="330" fill="none" r="6.4"/><circle cx="110" cy="330" fill="none" r="6.4"/><circle cx="130" cy="330" fill="none" r="6.4"/><circle cx="150" cy="330" fill="none" r="6.4"/><circle cx="170" cy="330" fill="none" r="6.4"/><circle cx="190" cy="330" fill="none" r="6.4"/><circle cx="210" cy="330" fill="none" r="6.4"/><circle cx="230" cy="330" fill="none" r="6.4"/><circle cx="250" cy="330" fill="none" r="6.4"/><circle cx="270" cy="330" fill="none" r="6.4"/><circle cx="290" cy="330" fill="none" r="6.4"/><circle cx="310" cy="330" fill="none" r="6.4"/><circle cx="330" cy="330" fill="none" r="6.4"/><circle cx="350" cy="330" fill="none" r="6.4"/><circle cx="370" cy="330" fill="none" r="6.4"/><circle cx="390" cy="330" fill="none" r="6.4"/><circle cx="410" cy="330" fill="none" r="6.4"/><path d="m423.6 323.6h12.8v12.8h-12.8z" fill="none"/><path d="m63.6 343.6h12.8v12.8h-12.8z" fill="none"/><circle cx="90" cy="350" fill="none" r="6.4"/><circle cx="110" cy="350" fill="none" r="6.4"/><circle cx="130" cy="350" fill="none" r="6.4"/><circle cx="150" cy="350" fill="none" r="6.4"/><circle cx="170" cy="350" fill="none" r="6.4"/><path d="m190 350h6.4" fill="none" stroke-width="1.5"/><path d="m190 350 3.2 5.5426" fill="none" stroke-width="1.5"/><path d="m190 350-3.2 5.5426" fill="none" stroke-width="1.5"/><path d="m190 350h-6.4" fill="none" stroke-width="1.5"/><path d="m190 350-3.2-5.5426" fill="none" stroke-width="1.5"/><path d="m190 350 3.2-5.5426" fill="none" stroke-width="1.5"/><path d="m210 350h6.4" fill="none" stroke-width="1.5"/><path d="m210 350 3.2 5.5426" fill="none" stroke-width="1.5"/><path d="m210 350-3.2 5.5426" fill="none" stroke-width="1.5"/><path d="m210 350h-6.4" fill="none" stroke-width="1.5"/><path d="m210 350-3.2-5.5426" fill="none" stroke-width="1.5"/><path d="m210 350 3.2-5.5426" fill="none" stroke-width="1.5"/><path d="m230 350h6.4" fill="none" stroke-width="1.5"/><path d="m230 350 3.2 5.5426" fill="none" stroke-width="1.5"/><path d="m230 350-3.2 5.5426" fill="none" stroke-width="1.5"/><path d="m230 350h-6.4" fill="none" stroke-width="1.5"/><path d="m230 350-3.2-5.5426" fill="none" stroke-width="1.5"/><path d="m230 350 3.2-5.5426" fill="none" stroke-width="1.5"/><path d="m250 350h6.4" fill="none" stroke-width="1.5"/><path d="m250 350 3.2 5.5426" fill="none" stroke-width="1.5"/><path d="m250 350-3.2 5.5426" fill="none" stroke-width="1.5"/><path d="m250 350h-6.4" fill="none" stroke-width="1.5"/><path d="m250 350-3.2-5.5426" fill="none" stroke-width="1.5"/><path d="m250 350 3.2-5.5426" fill="none" stroke-width="1.5"/><path d="m270 350h6.4" fill="none" stroke-width="1.5"/><path d="m270 350 3.2 5.5426" fill="none" stroke-width="1.5"/><path d="m270 350-3.2 5.5426" fill="none" stroke-width="1.5"/><path d="m270 350h-6.4" fill="none" stroke-width="1.5"/><path d="m270 350-3.2-5.5426" fill="none" stroke-width="1.5"/><path d="m270 350 3.2-5.5426" fill="none" stroke-width="1.5"/><path d="m290 350h6.4" fill="none" stroke-width="1.5"/><path d="m290 350 3.2 5.5426" fill="none" stroke-width="1.5"/><path d="m290 350-3.2 5.5426" fill="none" stroke-width="1.5"/><path d="m290 350h-6.4" fill="none" stroke-width="1.5"/><path d="m290 350-3.2-5.5426" fill="none" stroke-width="1.5"/><path d="m290 350 3.2-5.5426" fill="none" stroke-width="1.5"/><circle cx="310" cy="350" fill="none" r="6.4"/><circle cx="330" cy="350" fill="none" r="6.4"/><circle cx="350" cy="350" fill="none" r="6.4"/><circle cx="370" cy="350" fill="none" r="6.4"/><circle cx="390" cy="350" fill="none" r="6.4"/><path d="m403.6 343.6h12.8v12.8h-12.8z" fill="none"/><path d="m63.6 363.6h12.8v12.8h-12.8z" fill="none"/><circle cx="90" cy="370" fill="none" r="6.4"/><circle cx="110" cy="370" fill="none" r="6.4"/><circle cx="130" cy="370" fill="none" r="6.4"/><circle cx="150" cy="370" fill="none" r="6.4"/><circle cx="170" cy="370" fill="none" r="6.4"/><circle cx="190" cy="370" fill="none" r="6.4"/><path d="m210 370h6.4" fill="none" stroke-width="1.5"/><path d="m210 370 3.2 5.5426" fill="none" stroke-width="1.5"/><path d="m210 370-3.2 5.5426" fill="none" stroke-width="1.5"/><path d="m210 370h-6.4" fill="none" stroke-width="1.5"/><path d="m210 370-3.2-5.5426" fill="none" stroke-width="1.5"/><path d="m210 370 3.2-5.5426" fill="none" stroke-width="1.5"/><path d="m230 370h6.4" fill="none" stroke-width="1.5"/><path d="m230 370 3.2 5.5426" fill="none" stroke-width="1.5"/><path d="m230 370-3.2 5.5426" fill="none" stroke-width="1.5"/><path d="m230 370h-6.4" fill="none" stroke-width="1.5"/><path d="m230 370-3.2-5.5426" fill="none" stroke-width="1.5"/><path d="m230 370 3.2-5.5426" fill="none" stroke-width="1.5"/><path d="m250 370h6.4" fill="none" stroke-width="1.5"/><path d="m250 370 3.2 5.5426" fill="none" stroke-width="1.5"/><path d="m250 370-3.2 5.5426" fill="none" stroke-width="1.5"/><path d="m250 370h-6.4" fill="none" stroke-width="1.5"/><path d="m250 370-3.2-5.5426" fill="none" stroke-width="1.5"/><path d="m250 370 3.2-5.5426" fill="none" stroke-width="1.5"/><path d="m270 370h6.4" fill="none" stroke-width="1.5"/><path d="m270 370 3.2 5.5426" fill="none" stroke-width="1.5"/><path d="m270 370-3.2 5.5426" fill="none" stroke-width="1.5"/><path d="m270 370h-6.4" fill="none" stroke-width="1.5"/><path d="m270 370-3.2-5.5426" fill="none" stroke-width="1.5"/><path d="m270 370 3.2-5.5426" fill="none" stroke-width="1.5"/><circle cx="290" cy="370" fill="none" r="6.4"/><circle cx="310" cy="370" fill="none" r="6.4"/><circle cx="330" cy="370" fill="none" r="6.4"/><circle cx="350" cy="370" fill="none" r="6.4"/><circle cx="370" cy="370" fill="none" r="6.4"/><circle cx="390" cy="370" fill="none" r="6.4"/><path d="m403.6 363.6h12.8v12.8h-12.8z" fill="none"/><path d="m83.6 383.6h12.8v12.8h-12.8z" fill="none"/><circle cx="110" cy="390" fill="none" r="6.4"/><circle cx="130" cy="390" fill="none" r="6.4"/><circle cx="150" cy="390" fill="none" r="6.4"/><circle cx="170" cy="390" fill="none" r="6.4"/><circle cx="190" cy="390" fill="none" r="6.4"/><circle cx="210" cy="390" fill="none" r="6.4"/><circle cx="230" cy="390" fill="none" r="6.4"/><circle cx="250" cy="390" fill="none" r="6.4"/><circle cx="270" cy="390" fill="none" r="6.4"/><circle cx="290" cy="390" fill="none" r="6.4"/><circle cx="310" cy="390" fill="none" r="6.4"/><circle cx="330" cy="390" fill="none" r="6.4"/><circle cx="350" cy="390" fill="none" r="6.4"/><circle cx="370" cy="390" fill="none" r="6.4"/><path d="m383.6 383.6h12.8v12.8h-12.8z" fill="none"/><path d="m103.6 403.6h12.8v12.8h-12.8z" fill="none"/><path d="m123.6 403.6h12.8v12.8h-12.8z" fill="none"/><circle cx="150" cy="410" fill="none" r="6.4"/><circle cx="170" cy="410" fill="none" r="6.4"/><circle cx="190" cy="410" fill="none" r="6.4"/><circle cx="210" cy="410" fill="none" r="6.4"/><circle cx="230" cy="410" fill="none" r="6.4"/><circle cx="250" cy="410" fill="none" r="6.4"/><circle cx="270" cy="410" fill="none" r="6.4"/><circle cx="290" cy="410" fill="none" r="6.4"/><circle cx="310" cy="410" fill="none" r="6.4"/><circle cx="330" cy="410" fill="none" r="6.4"/><path d="m343.6 403.6h12.8v12.8h-12.8z" fill="none"/><path d="m363.6 403.6h12.8v12.8h-12.8z" fill="none"/><path d="m143.6 423.6h12.8v12.8h-12.8z" fill="none"/><path d="m163.6 423.6h12.8v12.8h-12.8z" fill="none"/><circle cx="190" cy="430" fill="none" r="6.4"/><circle cx="210" cy="430" fill="none" r="6.4"/><circle cx="230" cy="430" fill="none" r="6.4"/><circle cx="250" cy="430" fill="none" r="6.4"/><circle cx="270" cy="430" fill="none" r="6.4"/><circle cx="290" cy="430" fill="none" r="6.4"/><path d="m303.6 423.6h12.8v12.8h-12.8z" fill="none"/><path d="m323.6 423.6h12.8v12.8h-12.8z" fill="none"/><path d="m183.6 443.6h12.8v12.8h-12.8z" fill="none"/><path d="m203.6 443.6h12.8v12.8h-12.8z" fill="none"/><path d="m223.6 443.6h12.8v12.8h-12.8z" fill="none"/><path d="m243.6 443.6h12.8v12.8h-12.8z" fill="none"/><path d="m263.6 443.6h12.8v12.8h-12.8z" fill="none"/><path d="m283.6 443.6h12.8v12.8h-12.8z" fill="none"/><path d="m0 0v480" fill="none" stroke="#b4b4b4" stroke-width="3"/><path d="m20 0v480" fill="none" stroke="#b4b4b4" stroke-width="1.5"/><path d="m40 0v480" fill="none" stroke="#b4b4b4" stroke-width="1.5"/><path d="m60 0v480" fill="none" stroke="#b4b4b4" stroke-width="1.5"/><path d="m80 0v480" fill="none" stroke="#b4b4b4" stroke-width="1.5"/><path d="m100 0v480" fill="none" stroke="#b4b4b4" stroke-width="1.5"/><path d="m120 0v480" fill="none" stroke="#b4b4b4" stroke-width="1.5"/><path d="m140 0v480" fill="none" stroke="#b4b4b4" stroke-width="1.5"/><path d="m160 0v480" fill="none" stroke="#b4b4b4" stroke-width="1.5"/><path d="m180 0v480" fill="none" stroke="#b4b4b4" stroke-width="1.5"/><path d="m200 0v480" fill="none" stroke="#b4b4b4" stroke-width="1.5"/><path d="m220 0v480" fill="none" stroke="#b4b4b4" stroke-width="1.5"/><path d="m240 0v480" fill="none" stroke="#b4b4b4" stroke-width="1.5"/><path d="m260 0v480" fill="none" stroke="#b4b4b4" stroke-width="1.5"/><path d="m280 0v480" fill="none" stroke="#b4b4b4" stroke-width="1.5"/><path d="m300 0v480" fill="none" stroke="#b4b4b4" stroke-width="1.5"/><path d="m320 0v480" fill="none" stroke="#b4b4b4" stroke-width="1.5"/><path d="m340 0v480" fill="none" stroke="#b4b4b4" stroke-width="1.5"/><path d="m360 0v480" fill="none" stroke="#b4b4b4" stroke-width="1.5"/><path d="m380 0v480" fill="none" stroke="#b4b4b4" stroke-width="1.5"/><path d="m400 0v480" fill="none" stroke="#b4b4b4" stroke-width="1.5"/><path d="m420 0v480" fill="none" stroke="#b4b4b4" stroke-width="1.5"/><path d="m440 0v480" fill="none" stroke="#b4b4b4" stroke-width="1.5"/><path d="m460 0v480" fill="none" stroke="#b4b4b4" stroke-width="1.5"/><path d="m480 0v480" fill="none" stroke="#b4b4b4" stroke-width="3"/><path d="m0 0h480" fill="none" stroke="#b4b4b4" stroke-width="3"/><path d="m0 20h480" fill="none" stroke="#b4b4b4" stroke-width="1.5"/><path d="m0 40h480" fill="none" stroke="#b4b4b4" stroke-width="1.5"/><path d="m0 60h480" fill="none" stroke="#b4b4b4" stroke-width="1.5"/><path d="m0 80h480" fill="none" stroke="#b4b4b4" stroke-width="1.5"/><path d="m0 100h480" fill="none" stroke="#b4b4b4" stroke-width="1.5"/><path d="m0 120h480" fill="none" stroke="#b4b4b4" stroke-width="1.5"/><path d="m0 140h480" fill="none" stroke="#b4b4b4" stroke-width="1.5"/><path d="m0 160h480" fill="none" stroke="#b4b4b4" stroke-width="1.5"/><path d="m0 180h480" fill="none" stroke="#b4b4b4" stroke-width="1.5"/><path d="m0 200h480" fill="none" stroke="#b4b4b4" stroke-width="1.5"/><path d="m0 220h480" fill="none" stroke="#b4b4b4" stroke-width="1.5"/><path d="m0 240h480" fill="none" stroke="#b4b4b4" stroke-width="1.5"/><path d="m0 260h480" fill="none" stroke="#b4b4b4" stroke-width="1.5"/><path d="m0 280h480" fill="none" stroke="#b4b4b4" stroke-width="1.5"/><path d="m0 300h480" fill="none" stroke="#b4b4b4" stroke-width="1.5"/><path d="m0 320h480" fill="none" stroke="#b4b4b4" stroke-width="1.5"/><path d="m0 340h480" fill="none" stroke="#b4b4b4" stroke-width="1.5"/><path d="m0 360h480" fill="none" stroke="#b4b4b4" stroke-width="1.5"/><path d="m0 380h480" fill="none" stroke="#b4b4b4" stroke-width="1.5"/><path d="m0 400h480" fill="none" stroke="#b4b4b4" stroke-width="1.5"/><path d="m0 420h480" fill="none" stroke="#b4b4b4" stroke-width="1.5"/><path d="m0 440h480" fill="none" stroke="#b4b4b4" stroke-width="1.5"/><path d="m0 460h480" fill="none" stroke="#b4b4b4" stroke-width="1.5"/><path d="m0 480h480" fill="none" stroke="#b4b4b4" stroke-width="3"/></g></g></svg>