<svg color-interpolation="auto" height="480" stroke="#000" stroke-linecap="square" stroke-miterlimit="10" width="480" xmlns="http://www.w3.org/2000/svg"><g stroke-linecap="round" stroke-width="2"><path d="m190 23.6 6.4 6.4-6.4 6.4-6.4-6.4z" fill="none"/><g><path d="m210 23.6 6.4 6.4-6.4 6.4-6.4-6.4z" fill="none"/><path d="m230 23.6 6.4 6.4-6.4 6.4-6.4-6.4z" fill="none"/><path d="m250 23.6 6.4 6.4-6.4 6.4-6.4-6.4z" fill="none"/><path d="m270 23.6 6.4 6.4-6.4 6.4-6.4-6.4z" fill="none"/><path d="m290 23.6 6.4 6.4-6.4 6.4-6.4-6.4z" fill="none"/><path d="m150 43.6 6.4 6.4-6.4 6.4-6.4-6.4z" fill="none"/><path d="m170 43.6 6.4 6.4-6.4 6.4-6.4-6.4z" fill="none"/><path d="m190 44.2099-6.4 11.0851h12.8z" fill="none"/><path d="m210 44.2099-6.4 11.0851h12.8z" fill="none"/><path d="m230 44.2099-6.4 11.0851h12.8z" fill="none"/><path d="m250 44.2099-6.4 11.0851h12.8z" fill="none"/><path d="m270 44.2099-6.4 11.0851h12.8z" fill="none"/><path d="m290 44.2099-6.4 11.0851h12.8z" fill="none"/><path d="m310 43.6 6.4 6.4-6.4 6.4-6.4-6.4z" fill="none"/><path d="m330 43.6 6.4 6.4-6.4 6.4-6.4-6.4z" fill="none"/><path d="m110 63.6 6.4 6.4-6.4 6.4-6.4-6.4z" fill="none"/><path d="m130 63.6 6.4 6.4-6.4 6.4-6.4-6.4z" fill="none"/><path d="m150 64.2099-6.4 11.0851h12.8z" fill="none"/><path d="m170 64.2099-6.4 11.0851h12.8z" fill="none"/><path d="m190 64.2099-6.4 11.0851h12.8z" fill="none"/><path d="m210 64.2099-6.4 11.0851h12.8z" fill="none"/><path d="m230 64.2099-6.4 11.0851h12.8z" fill="none"/><path d="m250 64.2099-6.4 11.0851h12.8z" fill="none"/><path d="m270 64.2099-6.4 11.0851h12.8z" fill="none"/><path d="m290 64.2099-6.4 11.0851h12.8z" fill="none"/><path d="m310 64.2099-6.4 11.0851h12.8z" fill="none"/><path d="m330 64.2099-6.4 11.0851h12.8z" fill="none"/><path d="m350 63.6 6.4 6.4-6.4 6.4-6.4-6.4z" fill="none"/><path d="m370 63.6 6.4 6.4-6.4 6.4-6.4-6.4z" fill="none"/><path d="m90 83.6 6.4 6.4-6.4 6.4-6.4-6.4z" fill="none"/><path d="m110 84.2099-6.4 11.0851h12.8z" fill="none"/><path d="m130 84.2099-6.4 11.0851h12.8z" fill="none"/><path d="m150 84.2099-6.4 11.0851h12.8z" fill="none"/><path d="m170 84.2099-6.4 11.0851h12.8z" fill="none"/><path d="m190 84.2099-6.4 11.0851h12.8z" fill="none"/><path d="m210 84.2099-6.4 11.0851h12.8z" fill="none"/><path d="m230 84.2099-6.4 11.0851h12.8z" fill="none"/><path d="m250 84.2099-6.4 11.0851h12.8z" fill="none"/><path d="m270 84.2099-6.4 11.0851h12.8z" fill="none"/><path d="m290 84.2099-6.4 11.0851h12.8z" fill="none"/><path d="m310 84.2099-6.4 11.0851h12.8z" fill="none"/><path d="m330 84.2099-6.4 11.0851h12.8z" fill="none"/><path d="m350 84.2099-6.4 11.0851h12.8z" fill="none"/><path d="m370 84.2099-6.4 11.0851h12.8z" fill="none"/><path d="m390 83.6 6.4 6.4-6.4 6.4-6.4-6.4z" fill="none"/><path d="m70 103.6 6.4 6.4-6.4 6.4-6.4-6.4z" fill="none"/><path d="m90 104.2099-6.4 11.0851h12.8z" fill="none"/><path d="m110 104.2099-6.4 11.0851h12.8z" fill="none"/><path d="m130 104.2099-6.4 11.0851h12.8z" fill="none"/><path d="m150 104.2099-6.4 11.0851h12.8z" fill="none"/><path d="m170 104.2099-6.4 11.0851h12.8z" fill="none"/><path d="m185.2 110h9.6" fill="none"/><path d="m190 105.2v9.6" fill="none"/><path d="m210 104.2099-6.4 11.0851h12.8z" fill="none"/><path d="m230 104.2099-6.4 11.0851h12.8z" fill="none"/><path d="m250 104.2099-6.4 11.0851h12.8z" fill="none"/><path d="m270 104.2099-6.4 11.0851h12.8z" fill="none"/><path d="m285.2 110h9.6" fill="none"/><path d="m290 105.2v9.6" fill="none"/><path d="m310 104.2099-6.4 11.0851h12.8z" fill="none"/><path d="m330 104.2099-6.4 11.0851h12.8z" fill="none"/><path d="m350 104.2099-6.4 11.0851h12.8z" fill="none"/><path d="m370 104.2099-6.4 11.0851h12.8z" fill="none"/><path d="m390 104.2099-6.4 11.0851h12.8z" fill="none"/><path d="m410 103.6 6.4 6.4-6.4 6.4-6.4-6.4z" fill="none"/><path d="m70 123.6 6.4 6.4-6.4 6.4-6.4-6.4z" fill="none"/><path d="m90 124.2099-6.4 11.0851h12.8z" fill="none"/><path d="m110 124.2099-6.4 11.0851h12.8z" fill="none"/><path d="m130 124.2099-6.4 11.0851h12.8z" fill="none"/><path d="m145.2 130h9.6" fill="none"/><path d="m150 125.2v9.6" fill="none"/><path d="m165.2 130h9.6" fill="none"/><path d="m170 125.2v9.6" fill="none"/><path d="m190 124.2099-6.4 11.0851h12.8z" fill="none"/><path d="m210 124.2099-6.4 11.0851h12.8z" fill="none"/><path d="m230 124.2099-6.4 11.0851h12.8z" fill="none"/><path d="m250 124.2099-6.4 11.0851h12.8z" fill="none"/><path d="m270 124.2099-6.4 11.0851h12.8z" fill="none"/><path d="m290 124.2099-6.4 11.0851h12.8z" fill="none"/><path d="m305.2 130h9.6" fill="none"/><path d="m310 125.2v9.6" fill="none"/><path d="m325.2 130h9.6" fill="none"/><path d="m330 125.2v9.6" fill="none"/><path d="m350 124.2099-6.4 11.0851h12.8z" fill="none"/><path d="m370 124.2099-6.4 11.0851h12.8z" fill="none"/><path d="m390 124.2099-6.4 11.0851h12.8z" fill="none"/><path d="m410 123.6 6.4 6.4-6.4 6.4-6.4-6.4z" fill="none"/><path d="m50 143.6 6.4 6.4-6.4 6.4-6.4-6.4z" fill="none"/><path d="m70 144.2099-6.4 11.0851h12.8z" fill="none"/><path d="m90 144.2099-6.4 11.0851h12.8z" fill="none"/><path d="m105.2 150h9.6" fill="none"/><path d="m110 145.2v9.6" fill="none"/><path d="m125.2 150h9.6" fill="none"/><path d="m130 145.2v9.6" fill="none"/><path d="m150 144.2099-6.4 11.0851h12.8z" fill="none"/><path d="m170 144.2099-6.4 11.0851h12.8z" fill="none"/><path d="m190 144.2099-6.4 11.0851h12.8z" fill="none"/><path d="m210 144.2099-6.4 11.0851h12.8z" fill="none"/><path d="m230 144.2099-6.4 11.0851h12.8z" fill="none"/><path d="m250 144.2099-6.4 11.0851h12.8z" fill="none"/><path d="m270 144.2099-6.4 11.0851h12.8z" fill="none"/><path d="m290 144.2099-6.4 11.0851h12.8z" fill="none"/><path d="m310 144.2099-6.4 11.0851h12.8z" fill="none"/><path d="m330 144.2099-6.4 11.0851h12.8z" fill="none"/><path d="m345.2 150h9.6" fill="none"/><path d="m350 145.2v9.6" fill="none"/><path d="m365.2 150h9.6" fill="none"/><path d="m370 145.2v9.6" fill="none"/><path d="m390 144.2099-6.4 11.0851h12.8z" fill="none"/><path d="m410 144.2099-6.4 11.0851h12.8z" fill="none"/><path d="m430 143.6 6.4 6.4-6.4 6.4-6.4-6.4z" fill="none"/><path d="m50 163.6 6.4 6.4-6.4 6.4-6.4-6.4z" fill="none"/><path d="m70 164.2099-6.4 11.0851h12.8z" fill="none"/><path d="m90 164.2099-6.4 11.0851h12.8z" fill="none"/><path d="m110 164.2099-6.4 11.0851h12.8z" fill="none"/><path d="m130 164.2099-6.4 11.0851h12.8z" fill="none"/><path d="m150 164.2099-6.4 11.0851h12.8z" fill="none"/><path d="m170 164.2099-6.4 11.0851h12.8z" fill="none"/><path d="m190 164.2099-6.4 11.0851h12.8z" fill="none"/><path d="m210 164.2099-6.4 11.0851h12.8z" fill="none"/><path d="m230 164.2099-6.4 11.0851h12.8z" fill="none"/><path d="m250 164.2099-6.4 11.0851h12.8z" fill="none"/><path d="m270 164.2099-6.4 11.0851h12.8z" fill="none"/><path d="m290 164.2099-6.4 11.0851h12.8z" fill="none"/><path d="m310 164.2099-6.4 11.0851h12.8z" fill="none"/><path d="m330 164.2099-6.4 11.0851h12.8z" fill="none"/><path d="m350 164.2099-6.4 11.0851h12.8z" fill="none"/><path d="m370 164.2099-6.4 11.0851h12.8z" fill="none"/><path d="m390 164.2099-6.4 11.0851h12.8z" fill="none"/><path d="m410 164.2099-6.4 11.0851h12.8z" fill="none"/><path d="m430 163.6 6.4 6.4-6.4 6.4-6.4-6.4z" fill="none"/><path d="m30 183.6 6.4 6.4-6.4 6.4-6.4-6.4z" fill="none"/><path d="m50 184.2099-6.4 11.0851h12.8z" fill="none"/><path d="m70 184.2099-6.4 11.0851h12.8z" fill="none"/><path d="m90 184.2099-6.4 11.0851h12.8z" fill="none"/><path d="m110 184.2099-6.4 11.0851h12.8z" fill="none"/><path d="m125.2 190h9.6" fill="none"/><path d="m130 185.2v9.6" fill="none"/><path d="m145.2 190h9.6" fill="none"/><path d="m150 185.2v9.6" fill="none"/><path d="m165.2 190h9.6" fill="none"/><path d="m170 185.2v9.6" fill="none"/><path d="m185.2 190h9.6" fill="none"/><path d="m190 185.2v9.6" fill="none"/><path d="m210 184.2099-6.4 11.0851h12.8z" fill="none"/><path d="m230 184.2099-6.4 11.0851h12.8z" fill="none"/><path d="m250 184.2099-6.4 11.0851h12.8z" fill="none"/><path d="m270 184.2099-6.4 11.0851h12.8z" fill="none"/><path d="m285.2 190h9.6" fill="none"/><path d="m290 185.2v9.6" fill="none"/><path d="m305.2 190h9.6" fill="none"/><path d="m310 185.2v9.6" fill="none"/><path d="m325.2 190h9.6" fill="none"/><path d="m330 185.2v9.6" fill="none"/><path d="m345.2 190h9.6" fill="none"/><path d="m350 185.2v9.6" fill="none"/><path d="m370 184.2099-6.4 11.0851h12.8z" fill="none"/><path d="m390 184.2099-6.4 11.0851h12.8z" fill="none"/><path d="m410 184.2099-6.4 11.0851h12.8z" fill="none"/><path d="m430 184.2099-6.4 11.0851h12.8z" fill="none"/><path d="m450 183.6 6.4 6.4-6.4 6.4-6.4-6.4z" fill="none"/><path d="m30 203.6 6.4 6.4-6.4 6.4-6.4-6.4z" fill="none"/><path d="m50 204.2099-6.4 11.0851h12.8z" fill="none"/><path d="m70 204.2099-6.4 11.0851h12.8z" fill="none"/><path d="m90 204.2099-6.4 11.0851h12.8z" fill="none"/><path d="m105.2 210h9.6" fill="none"/><path d="m110 205.2v9.6" fill="none"/><path d="m123.6 203.6h12.8v12.8h-12.8z" stroke="none"/><path d="m143.6 203.6h12.8v12.8h-12.8z" stroke="none"/><path d="m163.6 203.6h12.8v12.8h-12.8z" stroke="none"/><path d="m185.2 210h9.6" fill="none"/><path d="m190 205.2v9.6" fill="none"/><path d="m205.2 210h9.6" fill="none"/><path d="m210 205.2v9.6" fill="none"/><path d="m230 204.2099-6.4 11.0851h12.8z" fill="none"/><path d="m250 204.2099-6.4 11.0851h12.8z" fill="none"/><path d="m265.2 210h9.6" fill="none"/><path d="m270 205.2v9.6" fill="none"/><path d="m283.6 203.6h12.8v12.8h-12.8z" stroke="none"/><path d="m303.6 203.6h12.8v12.8h-12.8z" stroke="none"/><path d="m323.6 203.6h12.8v12.8h-12.8z" stroke="none"/><path d="m345.2 210h9.6" fill="none"/><path d="m350 205.2v9.6" fill="none"/><path d="m365.2 210h9.6" fill="none"/><path d="m370 205.2v9.6" fill="none"/><path d="m390 204.2099-6.4 11.0851h12.8z" fill="none"/><path d="m410 204.2099-6.4 11.0851h12.8z" fill="none"/><path d="m430 204.2099-6.4 11.0851h12.8z" fill="none"/><path d="m450 203.6 6.4 6.4-6.4 6.4-6.4-6.4z" fill="none"/><path d="m30 223.6 6.4 6.4-6.4 6.4-6.4-6.4z" fill="none"/><path d="m50 224.2099-6.4 11.0851h12.8z" fill="none"/><path d="m70 224.2099-6.4 11.0851h12.8z" fill="none"/><path d="m90 224.2099-6.4 11.0851h12.8z" fill="none"/><path d="m105.2 230h9.6" fill="none"/><path d="m110 225.2v9.6" fill="none"/><path d="m123.6 223.6h12.8v12.8h-12.8z" stroke="none"/><path d="m143.6 223.6h12.8v12.8h-12.8z" stroke="none"/><path d="m165.2 230h9.6" fill="none"/><path d="m170 225.2v9.6" fill="none"/><path d="m185.2 230h9.6" fill="none"/><path d="m190 225.2v9.6" fill="none"/><path d="m205.2 230h9.6" fill="none"/><path d="m210 225.2v9.6" fill="none"/><path d="m230 224.2099-6.4 11.0851h12.8z" fill="none"/><path d="m250 224.2099-6.4 11.0851h12.8z" fill="none"/><path d="m265.2 230h9.6" fill="none"/><path d="m270 225.2v9.6" fill="none"/><path d="m283.6 223.6h12.8v12.8h-12.8z" stroke="none"/><path d="m303.6 223.6h12.8v12.8h-12.8z" stroke="none"/><path d="m325.2 230h9.6" fill="none"/><path d="m330 225.2v9.6" fill="none"/><path d="m345.2 230h9.6" fill="none"/><path d="m350 225.2v9.6" fill="none"/><path d="m365.2 230h9.6" fill="none"/><path d="m370 225.2v9.6" fill="none"/><path d="m390 224.2099-6.4 11.0851h12.8z" fill="none"/><path d="m410 224.2099-6.4 11.0851h12.8z" fill="none"/><path d="m430 224.2099-6.4 11.0851h12.8z" fill="none"/><path d="m450 223.6 6.4 6.4-6.4 6.4-6.4-6.4z" fill="none"/><path d="m30 243.6 6.4 6.4-6.4 6.4-6.4-6.4z" fill="none"/><path d="m50 244.2099-6.4 11.0851h12.8z" fill="none"/><path d="m70 244.2099-6.4 11.0851h12.8z" fill="none"/><path d="m90 244.2099-6.4 11.0851h12.8z" fill="none"/><path d="m105.2 250h9.6" fill="none"/><path d="m110 245.2v9.6" fill="none"/><path d="m125.2 250h9.6" fill="none"/><path d="m130 245.2v9.6" fill="none"/><path d="m145.2 250h9.6" fill="none"/><path d="m150 245.2v9.6" fill="none"/><path d="m163.6 243.6h12.8v12.8h-12.8z" stroke="none"/><path d="m183.6 243.6h12.8v12.8h-12.8z" stroke="none"/><path d="m205.2 250h9.6" fill="none"/><path d="m210 245.2v9.6" fill="none"/><path d="m230 244.2099-6.4 11.0851h12.8z" fill="none"/><path d="m250 244.2099-6.4 11.0851h12.8z" fill="none"/><path d="m265.2 250h9.6" fill="none"/><path d="m270 245.2v9.6" fill="none"/><path d="m285.2 250h9.6" fill="none"/><path d="m290 245.2v9.6" fill="none"/><path d="m305.2 250h9.6" fill="none"/><path d="m310 245.2v9.6" fill="none"/><path d="m323.6 243.6h12.8v12.8h-12.8z" stroke="none"/><path d="m343.6 243.6h12.8v12.8h-12.8z" stroke="none"/><path d="m365.2 250h9.6" fill="none"/><path d="m370 245.2v9.6" fill="none"/><path d="m390 244.2099-6.4 11.0851h12.8z" fill="none"/><path d="m410 244.2099-6.4 11.0851h12.8z" fill="none"/><path d="m430 244.2099-6.4 11.0851h12.8z" fill="none"/><path d="m450 243.6 6.4 6.4-6.4 6.4-6.4-6.4z" fill="none"/><path d="m30 263.6 6.4 6.4-6.4 6.4-6.4-6.4z" fill="none"/><path d="m50 264.2099-6.4 11.0851h12.8z" fill="none"/><path d="m70 264.2099-6.4 11.0851h12.8z" fill="none"/><path d="m90 264.2099-6.4 11.0851h12.8z" fill="none"/><circle cx="110" cy="270" r="6.4" stroke="none"/><circle cx="130" cy="270" r="6.4" stroke="none"/><circle cx="150" cy="270" r="6.4" stroke="none"/><circle cx="170" cy="270" r="6.4" stroke="none"/><circle cx="190" cy="270" r="6.4" stroke="none"/><circle cx="210" cy="270" r="6.4" stroke="none"/><path d="m230 264.2099-6.4 11.0851h12.8z" fill="none"/><path d="m250 264.2099-6.4 11.0851h12.8z" fill="none"/><circle cx="270" cy="270" r="6.4" stroke="none"/><circle cx="290" cy="270" r="6.4" stroke="none"/><circle cx="310" cy="270" r="6.4" stroke="none"/><circle cx="330" cy="270" r="6.4" stroke="none"/><circle cx="350" cy="270" r="6.4" stroke="none"/><circle cx="370" cy="270" r="6.4" stroke="none"/><path d="m390 264.2099-6.4 11.0851h12.8z" fill="none"/><path d="m410 264.2099-6.4 11.0851h12.8z" fill="none"/><path d="m430 264.2099-6.4 11.0851h12.8z" fill="none"/><path d="m450 263.6 6.4 6.4-6.4 6.4-6.4-6.4z" fill="none"/><path d="m30 283.6 6.4 6.4-6.4 6.4-6.4-6.4z" fill="none"/><path d="m50 284.2099-6.4 11.0851h12.8z" fill="none"/><path d="m70 284.2099-6.4 11.0851h12.8z" fill="none"/><path d="m90 284.2099-6.4 11.0851h12.8z" fill="none"/><path d="m110 284.2099-6.4 11.0851h12.8z" fill="none"/><circle cx="130" cy="290" r="6.4" stroke="none"/><circle cx="150" cy="290" r="6.4" stroke="none"/><circle cx="170" cy="290" r="6.4" stroke="none"/><circle cx="190" cy="290" r="6.4" stroke="none"/><path d="m210 284.2099-6.4 11.0851h12.8z" fill="none"/><path d="m230 284.2099-6.4 11.0851h12.8z" fill="none"/><path d="m250 284.2099-6.4 11.0851h12.8z" fill="none"/><path d="m270 284.2099-6.4 11.0851h12.8z" fill="none"/><circle cx="290" cy="290" r="6.4" stroke="none"/><circle cx="310" cy="290" r="6.4" stroke="none"/><circle cx="330" cy="290" r="6.4" stroke="none"/><circle cx="350" cy="290" r="6.4" stroke="none"/><g fill="none"><path d="m370 284.2099-6.4 11.0851h12.8z"/><path d="m390 284.2099-6.4 11.0851h12.8z"/><path d="m410 284.2099-6.4 11.0851h12.8z"/><path d="m430 284.2099-6.4 11.0851h12.8z"/><path d="m450 283.6 6.4 6.4-6.4 6.4-6.4-6.4z"/><path d="m50 303.6 6.4 6.4-6.4 6.4-6.4-6.4z"/><path d="m70 304.2099-6.4 11.0851h12.8z"/><path d="m90 304.2099-6.4 11.0851h12.8z"/><path d="m110 304.2099-6.4 11.0851h12.8z"/><path d="m130 304.2099-6.4 11.0851h12.8z"/><path d="m150 304.2099-6.4 11.0851h12.8z"/><path d="m170 304.2099-6.4 11.0851h12.8z"/><path d="m190 304.2099-6.4 11.0851h12.8z"/><path d="m210 304.2099-6.4 11.0851h12.8z"/><path d="m230 304.2099-6.4 11.0851h12.8z"/><path d="m250 304.2099-6.4 11.0851h12.8z"/><path d="m270 304.2099-6.4 11.0851h12.8z"/><path d="m290 304.2099-6.4 11.0851h12.8z"/><path d="m310 304.2099-6.4 11.0851h12.8z"/><path d="m330 304.2099-6.4 11.0851h12.8z"/><path d="m350 304.2099-6.4 11.0851h12.8z"/><path d="m370 304.2099-6.4 11.0851h12.8z"/><path d="m390 304.2099-6.4 11.0851h12.8z"/><path d="m410 304.2099-6.4 11.0851h12.8z"/><path d="m430 303.6 6.4 6.4-6.4 6.4-6.4-6.4z"/><path d="m50 323.6 6.4 6.4-6.4 6.4-6.4-6.4z"/><path d="m70 324.2099-6.4 11.0851h12.8z"/><path d="m90 324.2099-6.4 11.0851h12.8z"/><path d="m110 324.2099-6.4 11.0851h12.8z"/><path d="m130 324.2099-6.4 11.0851h12.8z"/><path d="m150 324.2099-6.4 11.0851h12.8z"/><path d="m170 324.2099-6.4 11.0851h12.8z"/><path d="m190 324.2099-6.4 11.0851h12.8z"/><path d="m210 324.2099-6.4 11.0851h12.8z"/><path d="m230 324.2099-6.4 11.0851h12.8z"/><path d="m250 324.2099-6.4 11.0851h12.8z"/><path d="m270 324.2099-6.4 11.0851h12.8z"/><path d="m290 324.2099-6.4 11.0851h12.8z"/><path d="m310 324.2099-6.4 11.0851h12.8z"/><path d="m330 324.2099-6.4 11.0851h12.8z"/><path d="m350 324.2099-6.4 11.0851h12.8z"/><path d="m370 324.2099-6.4 11.0851h12.8z"/><path d="m390 324.2099-6.4 11.0851h12.8z"/><path d="m410 324.2099-6.4 11.0851h12.8z"/><path d="m430 323.6 6.4 6.4-6.4 6.4-6.4-6.4z"/><path d="m70 343.6 6.4 6.4-6.4 6.4-6.4-6.4z"/><path d="m90 344.2099-6.4 11.0851h12.8z"/><path d="m110 344.2099-6.4 11.0851h12.8z"/><path d="m130 344.2099-6.4 11.0851h12.8z"/><path d="m150 344.2099-6.4 11.0851h12.8z"/><path d="m170 344.2099-6.4 11.0851h12.8z"/><path d="m185.2 350h9.6"/><path d="m190 345.2v9.6"/><path d="m205.2 350h9.6"/><path d="m210 345.2v9.6"/><path d="m225.2 350h9.6"/><path d="m230 345.2v9.6"/><path d="m245.2 350h9.6"/><path d="m250 345.2v9.6"/><path d="m265.2 350h9.6"/><path d="m270 345.2v9.6"/><path d="m285.2 350h9.6"/><path d="m290 345.2v9.6"/><path d="m310 344.2099-6.4 11.0851h12.8z"/><path d="m330 344.2099-6.4 11.0851h12.8z"/><path d="m350 344.2099-6.4 11.0851h12.8z"/><path d="m370 344.2099-6.4 11.0851h12.8z"/><path d="m390 344.2099-6.4 11.0851h12.8z"/><path d="m410 343.6 6.4 6.4-6.4 6.4-6.4-6.4z"/><path d="m70 363.6 6.4 6.4-6.4 6.4-6.4-6.4z"/><path d="m90 364.2099-6.4 11.0851h12.8z"/><path d="m110 364.2099-6.4 11.0851h12.8z"/><path d="m130 364.2099-6.4 11.0851h12.8z"/><path d="m150 364.2099-6.4 11.0851h12.8z"/><path d="m170 364.2099-6.4 11.0851h12.8z"/><path d="m190 364.2099-6.4 11.0851h12.8z"/><path d="m205.2 370h9.6"/><path d="m210 365.2v9.6"/><path d="m225.2 370h9.6"/><path d="m230 365.2v9.6"/><path d="m245.2 370h9.6"/><path d="m250 365.2v9.6"/><path d="m265.2 370h9.6"/><path d="m270 365.2v9.6"/><path d="m290 364.2099-6.4 11.0851h12.8z"/><path d="m310 364.2099-6.4 11.0851h12.8z"/><path d="m330 364.2099-6.4 11.0851h12.8z"/><path d="m350 364.2099-6.4 11.0851h12.8z"/><path d="m370 364.2099-6.4 11.0851h12.8z"/><path d="m390 364.2099-6.4 11.0851h12.8z"/><path d="m410 363.6 6.4 6.4-6.4 6.4-6.4-6.4z"/><path d="m90 383.6 6.4 6.4-6.4 6.4-6.4-6.4z"/><path d="m110 384.2099-6.4 11.0851h12.8z"/><path d="m130 384.2099-6.4 11.0851h12.8z"/><path d="m150 384.2099-6.4 11.0851h12.8z"/><path d="m170 384.2099-6.4 11.0851h12.8z"/><path d="m190 384.2099-6.4 11.0851h12.8z"/><path d="m210 384.2099-6.4 11.0851h12.8z"/><path d="m230 384.2099-6.4 11.0851h12.8z"/><path d="m250 384.2099-6.4 11.0851h12.8z"/><path d="m270 384.2099-6.4 11.0851h12.8z"/><path d="m290 384.2099-6.4 11.0851h12.8z"/><path d="m310 384.2099-6.4 11.0851h12.8z"/><path d="m330 384.2099-6.4 11.0851h12.8z"/><path d="m350 384.2099-6.4 11.0851h12.8z"/><path d="m370 384.2099-6.4 11.0851h12.8z"/><path d="m390 383.6 6.4 6.4-6.4 6.4-6.4-6.4z"/><path d="m110 403.6 6.4 6.4-6.4 6.4-6.4-6.4z"/><path d="m130 403.6 6.4 6.4-6.4 6.4-6.4-6.4z"/><path d="m150 404.2099-6.4 11.0851h12.8z"/><path d="m170 404.2099-6.4 11.0851h12.8z"/><path d="m190 404.2099-6.4 11.0851h12.8z"/><path d="m210 404.2099-6.4 11.0851h12.8z"/><path d="m230 404.2099-6.4 11.0851h12.8z"/><path d="m250 404.2099-6.4 11.0851h12.8z"/><path d="m270 404.2099-6.4 11.0851h12.8z"/><path d="m290 404.2099-6.4 11.0851h12.8z"/><path d="m310 404.2099-6.4 11.0851h12.8z"/><path d="m330 404.2099-6.4 11.0851h12.8z"/><path d="m350 403.6 6.4 6.4-6.4 6.4-6.4-6.4z"/><path d="m370 403.6 6.4 6.4-6.4 6.4-6.4-6.4z"/><path d="m150 423.6 6.4 6.4-6.4 6.4-6.4-6.4z"/><path d="m170 423.6 6.4 6.4-6.4 6.4-6.4-6.4z"/><path d="m190 424.2099-6.4 11.0851h12.8z"/><path d="m210 424.2099-6.4 11.0851h12.8z"/><path d="m230 424.2099-6.4 11.0851h12.8z"/><path d="m250 424.2099-6.4 11.0851h12.8z"/><path d="m270 424.2099-6.4 11.0851h12.8z"/><path d="m290 424.2099-6.4 11.0851h12.8z"/><path d="m310 423.6 6.4 6.4-6.4 6.4-6.4-6.4z"/><path d="m330 423.6 6.4 6.4-6.4 6.4-6.4-6.4z"/><path d="m190 443.6 6.4 6.4-6.4 6.4-6.4-6.4z"/><path d="m210 443.6 6.4 6.4-6.4 6.4-6.4-6.4z"/><path d="m230 443.6 6.4 6.4-6.4 6.4-6.4-6.4z"/><path d="m250 443.6 6.4 6.4-6.4 6.4-6.4-6.4z"/><path d="m270 443.6 6.4 6.4-6.4 6.4-6.4-6.4z"/><path d="m290 443.6 6.4 6.4-6.4 6.4-6.4-6.4z"/><path d="m0 0v480" stroke="#1c30d0"/><path d="m20 0v480" stroke="#1c30d0" stroke-width="1"/><path d="m40 0v480" stroke="#1c30d0" stroke-width="1"/><path d="m60 0v480" stroke="#1c30d0" stroke-width="1"/><path d="m80 0v480" stroke="#1c30d0" stroke-width="1"/><path d="m100 0v480" stroke="#1c30d0" stroke-width="1"/><path d="m120 0v480" stroke="#1c30d0" stroke-width="1"/><path d="m140 0v480" stroke="#1c30d0" stroke-width="1"/><path d="m160 0v480" stroke="#1c30d0" stroke-width="1"/><path d="m180 0v480" stroke="#1c30d0" stroke-width="1"/><path d="m200 0v480" stroke="#1c30d0" stroke-width="1"/><path d="m220 0v480" stroke="#1c30d0" stroke-width="1"/><path d="m240 0v480" stroke="#1c30d0" stroke-width="1"/><path d="m260 0v480" stroke="#1c30d0" stroke-width="1"/><path d="m280 0v480" stroke="#1c30d0" stroke-width="1"/><path d="m300 0v480" stroke="#1c30d0" stroke-width="1"/><path d="m320 0v480" stroke="#1c30d0" stroke-width="1"/><path d="m340 0v480" stroke="#1c30d0" stroke-width="1"/><path d="m360 0v480" stroke="#1c30d0" stroke-width="1"/><path d="m380 0v480" stroke="#1c30d0" stroke-width="1"/><path d="m400 0v480" stroke="#1c30d0" stroke-width="1"/><path d="m420 0v480" stroke="#1c30d0" stroke-width="1"/><path d="m440 0v480" stroke="#1c30d0" stroke-width="1"/><path d="m460 0v480" stroke="#1c30d0" stroke-width="1"/><path d="m480 0v480" stroke="#1c30d0"/><path d="m0 0h480" stroke="#1c30d0"/><path d="m0 20h480" stroke="#1c30d0" stroke-width="1"/><path d="m0 40h480" stroke="#1c30d0" stroke-width="1"/><path d="m0 60h480" stroke="#1c30d0" stroke-width="1"/><path d="m0 80h480" stroke="#1c30d0" stroke-width="1"/><path d="m0 100h480" stroke="#1c30d0" stroke-width="1"/><path d="m0 120h480" stroke="#1c30d0" stroke-width="1"/><path d="m0 140h480" stroke="#1c30d0" stroke-width="1"/><path d="m0 160h480" stroke="#1c30d0" stroke-width="1"/><path d="m0 180h480" stroke="#1c30d0" stroke-width="1"/><path d="m0 200h480" stroke="#1c30d0" stroke-width="1"/><path d="m0 220h480" stroke="#1c30d0" stroke-width="1"/><path d="m0 240h480" stroke="#1c30d0" stroke-width="1"/><path d="m0 260h480" stroke="#1c30d0" stroke-width="1"/><path d="m0 280h480" stroke="#1c30d0" stroke-width="1"/><path d="m0 300h480" stroke="#1c30d0" stroke-width="1"/><path d="m0 320h480" stroke="#1c30d0" stroke-width="1"/><path d="m0 340h480" stroke="#1c30d0" stroke-width="1"/><path d="m0 360h480" stroke="#1c30d0" stroke-width="1"/><path d="m0 380h480" stroke="#1c30d0" stroke-width="1"/><path d="m0 400h480" stroke="#1c30d0" stroke-width="1"/><path d="m0 420h480" stroke="#1c30d0" stroke-width="1"/><path d="m0 440h480" stroke="#1c30d0" stroke-width="1"/><path d="m0 460h480" stroke="#1c30d0" stroke-width="1"/><path d="m0 480h480" stroke="#1c30d0"/></g></g></g></svg>