<svg xmlns:xlink="http://www.w3.org/1999/xlink" style="fill-opacity:1;color-rendering:auto;color-interpolation:auto;text-rendering:auto;stroke:#000;stroke-linecap:square;stroke-miterlimit:10;shape-rendering:auto;stroke-opacity:1;fill:#000;stroke-dasharray:none;font-weight:400;stroke-width:1;font-family:&quot;Dialog&quot;;font-style:normal;stroke-linejoin:miter;font-size:12px;stroke-dashoffset:0;image-rendering:auto" width="480" height="480" xmlns="http://www.w3.org/2000/svg"><defs/><g style="stroke-linecap:round;stroke-width:2"><path style="fill:none" d="m190 24.21-6.4 11.085h12.8Z"/></g><g style="stroke-linecap:round;stroke-width:2"><path style="fill:none" d="m210 24.21-6.4 11.085h12.8Zm20 0-6.4 11.085h12.8Zm20 0-6.4 11.085h12.8Zm20 0-6.4 11.085h12.8Zm20 0-6.4 11.085h12.8Zm-140 20-6.4 11.085h12.8Zm20 0-6.4 11.085h12.8Z"/><circle r="6.4" style="fill:none" cx="190" cy="50"/><circle r="6.4" style="fill:none" cx="210" cy="50"/><circle r="6.4" style="fill:none" cx="230" cy="50"/><circle r="6.4" style="fill:none" cx="250" cy="50"/><circle r="6.4" style="fill:none" cx="270" cy="50"/><circle r="6.4" style="fill:none" cx="290" cy="50"/><path style="fill:none" d="m310 44.21-6.4 11.085h12.8Zm20 0-6.4 11.085h12.8Zm-220 20-6.4 11.085h12.8Zm20 0-6.4 11.085h12.8Z"/><circle r="6.4" style="fill:none" cx="150" cy="70"/><circle r="6.4" style="fill:none" cx="170" cy="70"/><circle r="6.4" style="fill:none" cx="190" cy="70"/><circle r="6.4" style="fill:none" cx="210" cy="70"/><circle r="6.4" style="fill:none" cx="230" cy="70"/><circle r="6.4" style="fill:none" cx="250" cy="70"/><circle r="6.4" style="fill:none" cx="270" cy="70"/><circle r="6.4" style="fill:none" cx="290" cy="70"/><circle r="6.4" style="fill:none" cx="310" cy="70"/><circle r="6.4" style="fill:none" cx="330" cy="70"/><path style="fill:none" d="m350 64.21-6.4 11.085h12.8Zm20 0-6.4 11.085h12.8Zm-280 20-6.4 11.085h12.8Z"/><circle r="6.4" style="fill:none" cx="110" cy="90"/><circle r="6.4" style="fill:none" cx="130" cy="90"/><circle r="6.4" style="fill:none" cx="150" cy="90"/><circle r="6.4" style="fill:none" cx="170" cy="90"/><circle r="6.4" style="fill:none" cx="190" cy="90"/><circle r="6.4" style="fill:none" cx="210" cy="90"/><circle r="6.4" style="fill:none" cx="230" cy="90"/><circle r="6.4" style="fill:none" cx="250" cy="90"/><circle r="6.4" style="fill:none" cx="270" cy="90"/><circle r="6.4" style="fill:none" cx="290" cy="90"/><circle r="6.4" style="fill:none" cx="310" cy="90"/><circle r="6.4" style="fill:none" cx="330" cy="90"/><circle r="6.4" style="fill:none" cx="350" cy="90"/><circle r="6.4" style="fill:none" cx="370" cy="90"/><path style="fill:none" d="m390 84.21-6.4 11.085h12.8Zm-320 20-6.4 11.085h12.8Z"/><circle r="6.4" style="fill:none" cx="90" cy="110"/><circle r="6.4" style="fill:none" cx="110" cy="110"/><circle r="6.4" style="fill:none" cx="130" cy="110"/><circle r="6.4" style="fill:none" cx="150" cy="110"/><circle r="6.4" style="fill:none" cx="170" cy="110"/><path style="fill:none;stroke-width:1.5" d="M190 110h6.4m-6.4 0 3.2 5.543M190 110l-3.2 5.543M190 110h-6.4m6.4 0-3.2-5.543M190 110l3.2-5.543"/><circle r="6.4" style="fill:none" cx="210" cy="110"/><circle r="6.4" style="fill:none" cx="230" cy="110"/><circle r="6.4" style="fill:none" cx="250" cy="110"/><circle r="6.4" style="fill:none" cx="270" cy="110"/><path style="fill:none;stroke-width:1.5" d="M290 110h6.4m-6.4 0 3.2 5.543M290 110l-3.2 5.543M290 110h-6.4m6.4 0-3.2-5.543M290 110l3.2-5.543"/><circle r="6.4" style="fill:none" cx="310" cy="110"/><circle r="6.4" style="fill:none" cx="330" cy="110"/><circle r="6.4" style="fill:none" cx="350" cy="110"/><circle r="6.4" style="fill:none" cx="370" cy="110"/><circle r="6.4" style="fill:none" cx="390" cy="110"/><path style="fill:none" d="m410 104.21-6.4 11.085h12.8Zm-340 20-6.4 11.085h12.8Z"/><circle r="6.4" style="fill:none" cx="90" cy="130"/><circle r="6.4" style="fill:none" cx="110" cy="130"/><circle r="6.4" style="fill:none" cx="130" cy="130"/><path style="fill:none;stroke-width:1.5" d="M150 130h6.4m-6.4 0 3.2 5.543M150 130l-3.2 5.543M150 130h-6.4m6.4 0-3.2-5.543M150 130l3.2-5.543M170 130h6.4m-6.4 0 3.2 5.543M170 130l-3.2 5.543M170 130h-6.4m6.4 0-3.2-5.543M170 130l3.2-5.543"/><circle r="6.4" style="fill:none" cx="190" cy="130"/><circle r="6.4" style="fill:none" cx="210" cy="130"/><circle r="6.4" style="fill:none" cx="230" cy="130"/><circle r="6.4" style="fill:none" cx="250" cy="130"/><circle r="6.4" style="fill:none" cx="270" cy="130"/><circle r="6.4" style="fill:none" cx="290" cy="130"/><path style="fill:none;stroke-width:1.5" d="M310 130h6.4m-6.4 0 3.2 5.543M310 130l-3.2 5.543M310 130h-6.4m6.4 0-3.2-5.543M310 130l3.2-5.543M330 130h6.4m-6.4 0 3.2 5.543M330 130l-3.2 5.543M330 130h-6.4m6.4 0-3.2-5.543M330 130l3.2-5.543"/><circle r="6.4" style="fill:none" cx="350" cy="130"/><circle r="6.4" style="fill:none" cx="370" cy="130"/><circle r="6.4" style="fill:none" cx="390" cy="130"/><path style="fill:none" d="m410 124.21-6.4 11.085h12.8Zm-360 20-6.4 11.085h12.8Z"/><circle r="6.4" style="fill:none" cx="70" cy="150"/><circle r="6.4" style="fill:none" cx="90" cy="150"/><path style="fill:none;stroke-width:1.5" d="M110 150h6.4m-6.4 0 3.2 5.543M110 150l-3.2 5.543M110 150h-6.4m6.4 0-3.2-5.543M110 150l3.2-5.543M130 150h6.4m-6.4 0 3.2 5.543M130 150l-3.2 5.543M130 150h-6.4m6.4 0-3.2-5.543M130 150l3.2-5.543"/><circle r="6.4" style="fill:none" cx="150" cy="150"/><circle r="6.4" style="fill:none" cx="170" cy="150"/><circle r="6.4" style="fill:none" cx="190" cy="150"/><circle r="6.4" style="fill:none" cx="210" cy="150"/><circle r="6.4" style="fill:none" cx="230" cy="150"/><circle r="6.4" style="fill:none" cx="250" cy="150"/><circle r="6.4" style="fill:none" cx="270" cy="150"/><circle r="6.4" style="fill:none" cx="290" cy="150"/><circle r="6.4" style="fill:none" cx="310" cy="150"/><circle r="6.4" style="fill:none" cx="330" cy="150"/><path style="fill:none;stroke-width:1.5" d="M350 150h6.4m-6.4 0 3.2 5.543M350 150l-3.2 5.543M350 150h-6.4m6.4 0-3.2-5.543M350 150l3.2-5.543M370 150h6.4m-6.4 0 3.2 5.543M370 150l-3.2 5.543M370 150h-6.4m6.4 0-3.2-5.543M370 150l3.2-5.543"/><circle r="6.4" style="fill:none" cx="390" cy="150"/><circle r="6.4" style="fill:none" cx="410" cy="150"/><path style="fill:none" d="m430 144.21-6.4 11.085h12.8Zm-380 20-6.4 11.085h12.8Z"/><circle r="6.4" style="fill:none" cx="70" cy="170"/><circle r="6.4" style="fill:none" cx="90" cy="170"/><circle r="6.4" style="fill:none" cx="110" cy="170"/><circle r="6.4" style="fill:none" cx="130" cy="170"/><circle r="6.4" style="fill:none" cx="150" cy="170"/><circle r="6.4" style="fill:none" cx="170" cy="170"/><circle r="6.4" style="fill:none" cx="190" cy="170"/><circle r="6.4" style="fill:none" cx="210" cy="170"/><circle r="6.4" style="fill:none" cx="230" cy="170"/><circle r="6.4" style="fill:none" cx="250" cy="170"/><circle r="6.4" style="fill:none" cx="270" cy="170"/><circle r="6.4" style="fill:none" cx="290" cy="170"/><circle r="6.4" style="fill:none" cx="310" cy="170"/><circle r="6.4" style="fill:none" cx="330" cy="170"/><circle r="6.4" style="fill:none" cx="350" cy="170"/><circle r="6.4" style="fill:none" cx="370" cy="170"/><circle r="6.4" style="fill:none" cx="390" cy="170"/><circle r="6.4" style="fill:none" cx="410" cy="170"/><path style="fill:none" d="m430 164.21-6.4 11.085h12.8Zm-400 20-6.4 11.085h12.8Z"/><circle r="6.4" style="fill:none" cx="50" cy="190"/><circle r="6.4" style="fill:none" cx="70" cy="190"/><circle r="6.4" style="fill:none" cx="90" cy="190"/><circle r="6.4" style="fill:none" cx="110" cy="190"/><path style="fill:none;stroke-width:1.5" d="M130 190h6.4m-6.4 0 3.2 5.543M130 190l-3.2 5.543M130 190h-6.4m6.4 0-3.2-5.543M130 190l3.2-5.543M150 190h6.4m-6.4 0 3.2 5.543M150 190l-3.2 5.543M150 190h-6.4m6.4 0-3.2-5.543M150 190l3.2-5.543M170 190h6.4m-6.4 0 3.2 5.543M170 190l-3.2 5.543M170 190h-6.4m6.4 0-3.2-5.543M170 190l3.2-5.543M190 190h6.4m-6.4 0 3.2 5.543M190 190l-3.2 5.543M190 190h-6.4m6.4 0-3.2-5.543M190 190l3.2-5.543"/><circle r="6.4" style="fill:none" cx="210" cy="190"/><circle r="6.4" style="fill:none" cx="230" cy="190"/><circle r="6.4" style="fill:none" cx="250" cy="190"/><circle r="6.4" style="fill:none" cx="270" cy="190"/><path style="fill:none;stroke-width:1.5" d="M290 190h6.4m-6.4 0 3.2 5.543M290 190l-3.2 5.543M290 190h-6.4m6.4 0-3.2-5.543M290 190l3.2-5.543M310 190h6.4m-6.4 0 3.2 5.543M310 190l-3.2 5.543M310 190h-6.4m6.4 0-3.2-5.543M310 190l3.2-5.543M330 190h6.4m-6.4 0 3.2 5.543M330 190l-3.2 5.543M330 190h-6.4m6.4 0-3.2-5.543M330 190l3.2-5.543M350 190h6.4m-6.4 0 3.2 5.543M350 190l-3.2 5.543M350 190h-6.4m6.4 0-3.2-5.543M350 190l3.2-5.543"/><circle r="6.4" style="fill:none" cx="370" cy="190"/><circle r="6.4" style="fill:none" cx="390" cy="190"/><circle r="6.4" style="fill:none" cx="410" cy="190"/><circle r="6.4" style="fill:none" cx="430" cy="190"/><path style="fill:none" d="m450 184.21-6.4 11.085h12.8Zm-420 20-6.4 11.085h12.8Z"/><circle r="6.4" style="fill:none" cx="50" cy="210"/><circle r="6.4" style="fill:none" cx="70" cy="210"/><circle r="6.4" style="fill:none" cx="90" cy="210"/><path style="fill:none;stroke-width:1.5" d="M110 210h6.4m-6.4 0 3.2 5.543M110 210l-3.2 5.543M110 210h-6.4m6.4 0-3.2-5.543M110 210l3.2-5.543"/><path d="m130 203.6 6.4 6.4-6.4 6.4-6.4-6.4Zm20 0 6.4 6.4-6.4 6.4-6.4-6.4Zm20 0 6.4 6.4-6.4 6.4-6.4-6.4Z" style="stroke-width:1;stroke:none"/><path style="fill:none;stroke-width:1.5" d="M190 210h6.4m-6.4 0 3.2 5.543M190 210l-3.2 5.543M190 210h-6.4m6.4 0-3.2-5.543M190 210l3.2-5.543M210 210h6.4m-6.4 0 3.2 5.543M210 210l-3.2 5.543M210 210h-6.4m6.4 0-3.2-5.543M210 210l3.2-5.543"/><circle r="6.4" style="fill:none" cx="230" cy="210"/><circle r="6.4" style="fill:none" cx="250" cy="210"/><path style="fill:none;stroke-width:1.5" d="M270 210h6.4m-6.4 0 3.2 5.543M270 210l-3.2 5.543M270 210h-6.4m6.4 0-3.2-5.543M270 210l3.2-5.543"/><path d="m290 203.6 6.4 6.4-6.4 6.4-6.4-6.4Zm20 0 6.4 6.4-6.4 6.4-6.4-6.4Zm20 0 6.4 6.4-6.4 6.4-6.4-6.4Z" style="stroke-width:1;stroke:none"/><path style="fill:none;stroke-width:1.5" d="M350 210h6.4m-6.4 0 3.2 5.543M350 210l-3.2 5.543M350 210h-6.4m6.4 0-3.2-5.543M350 210l3.2-5.543M370 210h6.4m-6.4 0 3.2 5.543M370 210l-3.2 5.543M370 210h-6.4m6.4 0-3.2-5.543M370 210l3.2-5.543"/><circle r="6.4" style="fill:none" cx="390" cy="210"/><circle r="6.4" style="fill:none" cx="410" cy="210"/><circle r="6.4" style="fill:none" cx="430" cy="210"/><path style="fill:none" d="m450 204.21-6.4 11.085h12.8Zm-420 20-6.4 11.085h12.8Z"/><circle r="6.4" style="fill:none" cx="50" cy="230"/><circle r="6.4" style="fill:none" cx="70" cy="230"/><circle r="6.4" style="fill:none" cx="90" cy="230"/><path style="fill:none;stroke-width:1.5" d="M110 230h6.4m-6.4 0 3.2 5.543M110 230l-3.2 5.543M110 230h-6.4m6.4 0-3.2-5.543M110 230l3.2-5.543"/><path d="m130 223.6 6.4 6.4-6.4 6.4-6.4-6.4Zm20 0 6.4 6.4-6.4 6.4-6.4-6.4Z" style="stroke-width:1;stroke:none"/><path style="fill:none;stroke-width:1.5" d="M170 230h6.4m-6.4 0 3.2 5.543M170 230l-3.2 5.543M170 230h-6.4m6.4 0-3.2-5.543M170 230l3.2-5.543M190 230h6.4m-6.4 0 3.2 5.543M190 230l-3.2 5.543M190 230h-6.4m6.4 0-3.2-5.543M190 230l3.2-5.543M210 230h6.4m-6.4 0 3.2 5.543M210 230l-3.2 5.543M210 230h-6.4m6.4 0-3.2-5.543M210 230l3.2-5.543"/><circle r="6.4" style="fill:none" cx="230" cy="230"/><circle r="6.4" style="fill:none" cx="250" cy="230"/><path style="fill:none;stroke-width:1.5" d="M270 230h6.4m-6.4 0 3.2 5.543M270 230l-3.2 5.543M270 230h-6.4m6.4 0-3.2-5.543M270 230l3.2-5.543"/><path d="m290 223.6 6.4 6.4-6.4 6.4-6.4-6.4Zm20 0 6.4 6.4-6.4 6.4-6.4-6.4Z" style="stroke-width:1;stroke:none"/><path style="fill:none;stroke-width:1.5" d="M330 230h6.4m-6.4 0 3.2 5.543M330 230l-3.2 5.543M330 230h-6.4m6.4 0-3.2-5.543M330 230l3.2-5.543M350 230h6.4m-6.4 0 3.2 5.543M350 230l-3.2 5.543M350 230h-6.4m6.4 0-3.2-5.543M350 230l3.2-5.543M370 230h6.4m-6.4 0 3.2 5.543M370 230l-3.2 5.543M370 230h-6.4m6.4 0-3.2-5.543M370 230l3.2-5.543"/><circle r="6.4" style="fill:none" cx="390" cy="230"/><circle r="6.4" style="fill:none" cx="410" cy="230"/><circle r="6.4" style="fill:none" cx="430" cy="230"/><path style="fill:none" d="m450 224.21-6.4 11.085h12.8Zm-420 20-6.4 11.085h12.8Z"/><circle r="6.4" style="fill:none" cx="50" cy="250"/><circle r="6.4" style="fill:none" cx="70" cy="250"/><circle r="6.4" style="fill:none" cx="90" cy="250"/><path style="fill:none;stroke-width:1.5" d="M110 250h6.4m-6.4 0 3.2 5.543M110 250l-3.2 5.543M110 250h-6.4m6.4 0-3.2-5.543M110 250l3.2-5.543M130 250h6.4m-6.4 0 3.2 5.543M130 250l-3.2 5.543M130 250h-6.4m6.4 0-3.2-5.543M130 250l3.2-5.543M150 250h6.4m-6.4 0 3.2 5.543M150 250l-3.2 5.543M150 250h-6.4m6.4 0-3.2-5.543M150 250l3.2-5.543"/><path d="m170 243.6 6.4 6.4-6.4 6.4-6.4-6.4Zm20 0 6.4 6.4-6.4 6.4-6.4-6.4Z" style="stroke-width:1;stroke:none"/><path style="fill:none;stroke-width:1.5" d="M210 250h6.4m-6.4 0 3.2 5.543M210 250l-3.2 5.543M210 250h-6.4m6.4 0-3.2-5.543M210 250l3.2-5.543"/><circle r="6.4" style="fill:none" cx="230" cy="250"/><circle r="6.4" style="fill:none" cx="250" cy="250"/><path style="fill:none;stroke-width:1.5" d="M270 250h6.4m-6.4 0 3.2 5.543M270 250l-3.2 5.543M270 250h-6.4m6.4 0-3.2-5.543M270 250l3.2-5.543M290 250h6.4m-6.4 0 3.2 5.543M290 250l-3.2 5.543M290 250h-6.4m6.4 0-3.2-5.543M290 250l3.2-5.543M310 250h6.4m-6.4 0 3.2 5.543M310 250l-3.2 5.543M310 250h-6.4m6.4 0-3.2-5.543M310 250l3.2-5.543"/><path d="m330 243.6 6.4 6.4-6.4 6.4-6.4-6.4Zm20 0 6.4 6.4-6.4 6.4-6.4-6.4Z" style="stroke-width:1;stroke:none"/><path style="fill:none;stroke-width:1.5" d="M370 250h6.4m-6.4 0 3.2 5.543M370 250l-3.2 5.543M370 250h-6.4m6.4 0-3.2-5.543M370 250l3.2-5.543"/><circle r="6.4" style="fill:none" cx="390" cy="250"/><circle r="6.4" style="fill:none" cx="410" cy="250"/><circle r="6.4" style="fill:none" cx="430" cy="250"/><path style="fill:none" d="m450 244.21-6.4 11.085h12.8Zm-420 20-6.4 11.085h12.8Z"/><circle r="6.4" style="fill:none" cx="50" cy="270"/><circle r="6.4" style="fill:none" cx="70" cy="270"/><circle r="6.4" style="fill:none" cx="90" cy="270"/><path style="stroke-width:1;stroke:none" d="M103.6 263.6h12.8v12.8h-12.8zm20 0h12.8v12.8h-12.8zm20 0h12.8v12.8h-12.8zm20 0h12.8v12.8h-12.8zm20 0h12.8v12.8h-12.8zm20 0h12.8v12.8h-12.8z"/><circle r="6.4" style="fill:none" cx="230" cy="270"/><circle r="6.4" style="fill:none" cx="250" cy="270"/><path style="stroke-width:1;stroke:none" d="M263.6 263.6h12.8v12.8h-12.8zm20 0h12.8v12.8h-12.8zm20 0h12.8v12.8h-12.8zm20 0h12.8v12.8h-12.8zm20 0h12.8v12.8h-12.8zm20 0h12.8v12.8h-12.8z"/><circle r="6.4" style="fill:none" cx="390" cy="270"/><circle r="6.4" style="fill:none" cx="410" cy="270"/><circle r="6.4" style="fill:none" cx="430" cy="270"/><path style="fill:none" d="m450 264.21-6.4 11.085h12.8Zm-420 20-6.4 11.085h12.8Z"/><circle r="6.4" style="fill:none" cx="50" cy="290"/><circle r="6.4" style="fill:none" cx="70" cy="290"/><circle r="6.4" style="fill:none" cx="90" cy="290"/><circle r="6.4" style="fill:none" cx="110" cy="290"/><path style="stroke-width:1;stroke:none" d="M123.6 283.6h12.8v12.8h-12.8zm20 0h12.8v12.8h-12.8zm20 0h12.8v12.8h-12.8zm20 0h12.8v12.8h-12.8z"/><circle r="6.4" style="fill:none" cx="210" cy="290"/><circle r="6.4" style="fill:none" cx="230" cy="290"/><circle r="6.4" style="fill:none" cx="250" cy="290"/><circle r="6.4" style="fill:none" cx="270" cy="290"/><path style="stroke-width:1;stroke:none" d="M283.6 283.6h12.8v12.8h-12.8zm20 0h12.8v12.8h-12.8zm20 0h12.8v12.8h-12.8zm20 0h12.8v12.8h-12.8z"/><circle r="6.4" style="fill:none" cx="370" cy="290"/><circle r="6.4" style="fill:none" cx="390" cy="290"/><circle r="6.4" style="fill:none" cx="410" cy="290"/><circle r="6.4" style="fill:none" cx="430" cy="290"/><path style="fill:none" d="m450 284.21-6.4 11.085h12.8Zm-400 20-6.4 11.085h12.8Z"/><circle r="6.4" style="fill:none" cx="70" cy="310"/><circle r="6.4" style="fill:none" cx="90" cy="310"/><circle r="6.4" style="fill:none" cx="110" cy="310"/><circle r="6.4" style="fill:none" cx="130" cy="310"/><circle r="6.4" style="fill:none" cx="150" cy="310"/><circle r="6.4" style="fill:none" cx="170" cy="310"/><circle r="6.4" style="fill:none" cx="190" cy="310"/><circle r="6.4" style="fill:none" cx="210" cy="310"/><circle r="6.4" style="fill:none" cx="230" cy="310"/><circle r="6.4" style="fill:none" cx="250" cy="310"/><circle r="6.4" style="fill:none" cx="270" cy="310"/><circle r="6.4" style="fill:none" cx="290" cy="310"/><circle r="6.4" style="fill:none" cx="310" cy="310"/><circle r="6.4" style="fill:none" cx="330" cy="310"/><circle r="6.4" style="fill:none" cx="350" cy="310"/><circle r="6.4" style="fill:none" cx="370" cy="310"/><circle r="6.4" style="fill:none" cx="390" cy="310"/><circle r="6.4" style="fill:none" cx="410" cy="310"/><path style="fill:none" d="m430 304.21-6.4 11.085h12.8Zm-380 20-6.4 11.085h12.8Z"/><circle r="6.4" style="fill:none" cx="70" cy="330"/><circle r="6.4" style="fill:none" cx="90" cy="330"/><circle r="6.4" style="fill:none" cx="110" cy="330"/><circle r="6.4" style="fill:none" cx="130" cy="330"/><circle r="6.4" style="fill:none" cx="150" cy="330"/><circle r="6.4" style="fill:none" cx="170" cy="330"/><circle r="6.4" style="fill:none" cx="190" cy="330"/><circle r="6.4" style="fill:none" cx="210" cy="330"/><circle r="6.4" style="fill:none" cx="230" cy="330"/><circle r="6.4" style="fill:none" cx="250" cy="330"/><circle r="6.4" style="fill:none" cx="270" cy="330"/><circle r="6.4" style="fill:none" cx="290" cy="330"/><circle r="6.4" style="fill:none" cx="310" cy="330"/><circle r="6.4" style="fill:none" cx="330" cy="330"/><circle r="6.4" style="fill:none" cx="350" cy="330"/><circle r="6.4" style="fill:none" cx="370" cy="330"/><circle r="6.4" style="fill:none" cx="390" cy="330"/><circle r="6.4" style="fill:none" cx="410" cy="330"/><path style="fill:none" d="m430 324.21-6.4 11.085h12.8Zm-360 20-6.4 11.085h12.8Z"/><circle r="6.4" style="fill:none" cx="90" cy="350"/><circle r="6.4" style="fill:none" cx="110" cy="350"/><circle r="6.4" style="fill:none" cx="130" cy="350"/><circle r="6.4" style="fill:none" cx="150" cy="350"/><circle r="6.4" style="fill:none" cx="170" cy="350"/><path style="fill:none;stroke-width:1.5" d="M190 350h6.4m-6.4 0 3.2 5.543M190 350l-3.2 5.543M190 350h-6.4m6.4 0-3.2-5.543M190 350l3.2-5.543M210 350h6.4m-6.4 0 3.2 5.543M210 350l-3.2 5.543M210 350h-6.4m6.4 0-3.2-5.543M210 350l3.2-5.543M230 350h6.4m-6.4 0 3.2 5.543M230 350l-3.2 5.543M230 350h-6.4m6.4 0-3.2-5.543M230 350l3.2-5.543M250 350h6.4m-6.4 0 3.2 5.543M250 350l-3.2 5.543M250 350h-6.4m6.4 0-3.2-5.543M250 350l3.2-5.543M270 350h6.4m-6.4 0 3.2 5.543M270 350l-3.2 5.543M270 350h-6.4m6.4 0-3.2-5.543M270 350l3.2-5.543M290 350h6.4m-6.4 0 3.2 5.543M290 350l-3.2 5.543M290 350h-6.4m6.4 0-3.2-5.543M290 350l3.2-5.543"/><circle r="6.4" style="fill:none" cx="310" cy="350"/><circle r="6.4" style="fill:none" cx="330" cy="350"/><circle r="6.4" style="fill:none" cx="350" cy="350"/><circle r="6.4" style="fill:none" cx="370" cy="350"/><circle r="6.4" style="fill:none" cx="390" cy="350"/><path style="fill:none" d="m410 344.21-6.4 11.085h12.8Zm-340 20-6.4 11.085h12.8Z"/><circle r="6.4" style="fill:none" cx="90" cy="370"/><circle r="6.4" style="fill:none" cx="110" cy="370"/><circle r="6.4" style="fill:none" cx="130" cy="370"/><circle r="6.4" style="fill:none" cx="150" cy="370"/><circle r="6.4" style="fill:none" cx="170" cy="370"/><circle r="6.4" style="fill:none" cx="190" cy="370"/><path style="fill:none;stroke-width:1.5" d="M210 370h6.4m-6.4 0 3.2 5.543M210 370l-3.2 5.543M210 370h-6.4m6.4 0-3.2-5.543M210 370l3.2-5.543M230 370h6.4m-6.4 0 3.2 5.543M230 370l-3.2 5.543M230 370h-6.4m6.4 0-3.2-5.543M230 370l3.2-5.543M250 370h6.4m-6.4 0 3.2 5.543M250 370l-3.2 5.543M250 370h-6.4m6.4 0-3.2-5.543M250 370l3.2-5.543M270 370h6.4m-6.4 0 3.2 5.543M270 370l-3.2 5.543M270 370h-6.4m6.4 0-3.2-5.543M270 370l3.2-5.543"/><circle r="6.4" style="fill:none" cx="290" cy="370"/><circle r="6.4" style="fill:none" cx="310" cy="370"/><circle r="6.4" style="fill:none" cx="330" cy="370"/><circle r="6.4" style="fill:none" cx="350" cy="370"/><circle r="6.4" style="fill:none" cx="370" cy="370"/><circle r="6.4" style="fill:none" cx="390" cy="370"/><path style="fill:none" d="m410 364.21-6.4 11.085h12.8Zm-320 20-6.4 11.085h12.8Z"/><circle r="6.4" style="fill:none" cx="110" cy="390"/><circle r="6.4" style="fill:none" cx="130" cy="390"/><circle r="6.4" style="fill:none" cx="150" cy="390"/><circle r="6.4" style="fill:none" cx="170" cy="390"/><circle r="6.4" style="fill:none" cx="190" cy="390"/><circle r="6.4" style="fill:none" cx="210" cy="390"/><circle r="6.4" style="fill:none" cx="230" cy="390"/><circle r="6.4" style="fill:none" cx="250" cy="390"/><circle r="6.4" style="fill:none" cx="270" cy="390"/><circle r="6.4" style="fill:none" cx="290" cy="390"/><circle r="6.4" style="fill:none" cx="310" cy="390"/><circle r="6.4" style="fill:none" cx="330" cy="390"/><circle r="6.4" style="fill:none" cx="350" cy="390"/><circle r="6.4" style="fill:none" cx="370" cy="390"/><path style="fill:none" d="m390 384.21-6.4 11.085h12.8Zm-280 20-6.4 11.085h12.8Zm20 0-6.4 11.085h12.8Z"/><circle r="6.4" style="fill:none" cx="150" cy="410"/><circle r="6.4" style="fill:none" cx="170" cy="410"/><circle r="6.4" style="fill:none" cx="190" cy="410"/><circle r="6.4" style="fill:none" cx="210" cy="410"/><circle r="6.4" style="fill:none" cx="230" cy="410"/><circle r="6.4" style="fill:none" cx="250" cy="410"/><circle r="6.4" style="fill:none" cx="270" cy="410"/><circle r="6.4" style="fill:none" cx="290" cy="410"/><circle r="6.4" style="fill:none" cx="310" cy="410"/><circle r="6.4" style="fill:none" cx="330" cy="410"/><path style="fill:none" d="m350 404.21-6.4 11.085h12.8Zm20 0-6.4 11.085h12.8Zm-220 20-6.4 11.085h12.8Zm20 0-6.4 11.085h12.8Z"/><circle r="6.4" style="fill:none" cx="190" cy="430"/><circle r="6.4" style="fill:none" cx="210" cy="430"/><circle r="6.4" style="fill:none" cx="230" cy="430"/><circle r="6.4" style="fill:none" cx="250" cy="430"/><circle r="6.4" style="fill:none" cx="270" cy="430"/><circle r="6.4" style="fill:none" cx="290" cy="430"/><path style="fill:none" d="m310 424.21-6.4 11.085h12.8Zm20 0-6.4 11.085h12.8Zm-140 20-6.4 11.085h12.8Zm20 0-6.4 11.085h12.8Zm20 0-6.4 11.085h12.8Zm20 0-6.4 11.085h12.8Zm20 0-6.4 11.085h12.8Zm20 0-6.4 11.085h12.8Z"/><path style="fill:none;stroke:#b4b4b4;stroke-width:1" d="M20 0v480M40 0v480M60 0v480M80 0v480M100 0v480M120 0v480M140 0v480M160 0v480M180 0v480M200 0v480M220 0v480M240 0v480M260 0v480M280 0v480M300 0v480M320 0v480M340 0v480M360 0v480M380 0v480M400 0v480M420 0v480M440 0v480M460 0v480M0 20h480M0 40h480M0 60h480M0 80h480M0 100h480M0 120h480M0 140h480M0 160h480M0 180h480M0 200h480M0 220h480M0 240h480M0 260h480M0 280h480M0 300h480M0 320h480M0 340h480M0 360h480M0 380h480M0 400h480M0 420h480M0 440h480M0 460h480"/></g></svg>