<svg xmlns:xlink="http://www.w3.org/1999/xlink" style="fill-opacity:1;color-rendering:auto;color-interpolation:auto;text-rendering:auto;stroke:#000;stroke-linecap:square;stroke-miterlimit:10;shape-rendering:auto;stroke-opacity:1;fill:#000;stroke-dasharray:none;font-weight:400;stroke-width:1;font-family:&quot;Dialog&quot;;font-style:normal;stroke-linejoin:miter;font-size:12px;stroke-dashoffset:0;image-rendering:auto" width="480" height="480" xmlns="http://www.w3.org/2000/svg"><defs/><g style="stroke-linecap:round;fill:#ff6700;stroke:#ff6700"><path style="stroke:none" d="M180 20h20v20h-20z"/></g><g style="stroke-linecap:round;fill:#ff6700;stroke:#ff6700"><path style="stroke:none" d="M200 20h20v20h-20zm20 0h20v20h-20zm20 0h20v20h-20zm20 0h20v20h-20zm20 0h20v20h-20zM140 40h20v20h-20zm20 0h20v20h-20z"/><path style="fill:#fbf236;stroke:none" d="M180 40h20v20h-20zm20 0h20v20h-20zm20 0h20v20h-20zm20 0h20v20h-20zm20 0h20v20h-20zm20 0h20v20h-20z"/><path style="stroke:none" d="M300 40h20v20h-20zm20 0h20v20h-20zM100 60h20v20h-20zm20 0h20v20h-20z"/><path style="fill:#fbf236;stroke:none" d="M140 60h20v20h-20zm20 0h20v20h-20zm20 0h20v20h-20zm20 0h20v20h-20zm20 0h20v20h-20zm20 0h20v20h-20zm20 0h20v20h-20zm20 0h20v20h-20zm20 0h20v20h-20zm20 0h20v20h-20z"/><path style="stroke:none" d="M340 60h20v20h-20zm20 0h20v20h-20zM80 80h20v20H80z"/><path style="fill:#fbf236;stroke:none" d="M100 80h20v20h-20zm20 0h20v20h-20zm20 0h20v20h-20zm20 0h20v20h-20zm20 0h20v20h-20zm20 0h20v20h-20zm20 0h20v20h-20zm20 0h20v20h-20zm20 0h20v20h-20zm20 0h20v20h-20zm20 0h20v20h-20zm20 0h20v20h-20zm20 0h20v20h-20zm20 0h20v20h-20z"/><path style="stroke:none" d="M380 80h20v20h-20zM60 100h20v20H60z"/><path style="fill:#fbf236;stroke:none" d="M80 100h20v20H80zm20 0h20v20h-20zm20 0h20v20h-20zm20 0h20v20h-20zm20 0h20v20h-20z"/><path style="fill:#663931;stroke:none" d="M180 100h20v20h-20z"/><path style="fill:#fbf236;stroke:none" d="M200 100h20v20h-20zm20 0h20v20h-20zm20 0h20v20h-20zm20 0h20v20h-20z"/><path style="fill:#663931;stroke:none" d="M280 100h20v20h-20z"/><path style="fill:#fbf236;stroke:none" d="M300 100h20v20h-20zm20 0h20v20h-20zm20 0h20v20h-20zm20 0h20v20h-20zm20 0h20v20h-20z"/><path style="stroke:none" d="M400 100h20v20h-20zM60 120h20v20H60z"/><path style="fill:#fbf236;stroke:none" d="M80 120h20v20H80zm20 0h20v20h-20zm20 0h20v20h-20z"/><path style="fill:#663931;stroke:none" d="M140 120h20v20h-20zm20 0h20v20h-20z"/><path style="fill:#fbf236;stroke:none" d="M180 120h20v20h-20zm20 0h20v20h-20zm20 0h20v20h-20zm20 0h20v20h-20zm20 0h20v20h-20zm20 0h20v20h-20z"/><path style="fill:#663931;stroke:none" d="M300 120h20v20h-20zm20 0h20v20h-20z"/><path style="fill:#fbf236;stroke:none" d="M340 120h20v20h-20zm20 0h20v20h-20zm20 0h20v20h-20z"/><path style="stroke:none" d="M400 120h20v20h-20zM40 140h20v20H40z"/><path style="fill:#fbf236;stroke:none" d="M60 140h20v20H60zm20 0h20v20H80z"/><path style="fill:#663931;stroke:none" d="M100 140h20v20h-20zm20 0h20v20h-20z"/><path style="fill:#fbf236;stroke:none" d="M140 140h20v20h-20zm20 0h20v20h-20zm20 0h20v20h-20zm20 0h20v20h-20zm20 0h20v20h-20zm20 0h20v20h-20zm20 0h20v20h-20zm20 0h20v20h-20zm20 0h20v20h-20zm20 0h20v20h-20z"/><path style="fill:#663931;stroke:none" d="M340 140h20v20h-20zm20 0h20v20h-20z"/><path style="fill:#fbf236;stroke:none" d="M380 140h20v20h-20zm20 0h20v20h-20z"/><path style="stroke:none" d="M420 140h20v20h-20zM40 160h20v20H40z"/><path style="fill:#fbf236;stroke:none" d="M60 160h20v20H60zm20 0h20v20H80zm20 0h20v20h-20zm20 0h20v20h-20zm20 0h20v20h-20zm20 0h20v20h-20zm20 0h20v20h-20zm20 0h20v20h-20zm20 0h20v20h-20zm20 0h20v20h-20zm20 0h20v20h-20zm20 0h20v20h-20zm20 0h20v20h-20zm20 0h20v20h-20zm20 0h20v20h-20zm20 0h20v20h-20zm20 0h20v20h-20zm20 0h20v20h-20z"/><path style="stroke:none" d="M420 160h20v20h-20zM20 180h20v20H20z"/><path style="fill:#fbf236;stroke:none" d="M40 180h20v20H40zm20 0h20v20H60zm20 0h20v20H80zm20 0h20v20h-20z"/><path style="fill:#663931;stroke:none" d="M120 180h20v20h-20zm20 0h20v20h-20zm20 0h20v20h-20zm20 0h20v20h-20z"/><path style="fill:#fbf236;stroke:none" d="M200 180h20v20h-20zm20 0h20v20h-20zm20 0h20v20h-20zm20 0h20v20h-20z"/><path style="fill:#663931;stroke:none" d="M280 180h20v20h-20zm20 0h20v20h-20zm20 0h20v20h-20zm20 0h20v20h-20z"/><path style="fill:#fbf236;stroke:none" d="M360 180h20v20h-20zm20 0h20v20h-20zm20 0h20v20h-20zm20 0h20v20h-20z"/><path style="stroke:none" d="M440 180h20v20h-20zM20 200h20v20H20z"/><path style="fill:#fbf236;stroke:none" d="M40 200h20v20H40zm20 0h20v20H60zm20 0h20v20H80z"/><path style="fill:#663931;stroke:none" d="M100 200h20v20h-20z"/><path style="fill:#fff;stroke:none" d="M120 200h20v20h-20zm20 0h20v20h-20zm20 0h20v20h-20z"/><path style="fill:#663931;stroke:none" d="M180 200h20v20h-20zm20 0h20v20h-20z"/><path style="fill:#fbf236;stroke:none" d="M220 200h20v20h-20zm20 0h20v20h-20z"/><path style="fill:#663931;stroke:none" d="M260 200h20v20h-20z"/><path style="fill:#fff;stroke:none" d="M280 200h20v20h-20zm20 0h20v20h-20zm20 0h20v20h-20z"/><path style="fill:#663931;stroke:none" d="M340 200h20v20h-20zm20 0h20v20h-20z"/><path style="fill:#fbf236;stroke:none" d="M380 200h20v20h-20zm20 0h20v20h-20zm20 0h20v20h-20z"/><path style="stroke:none" d="M440 200h20v20h-20zM20 220h20v20H20z"/><path style="fill:#fbf236;stroke:none" d="M40 220h20v20H40zm20 0h20v20H60zm20 0h20v20H80z"/><path style="fill:#663931;stroke:none" d="M100 220h20v20h-20z"/><path style="fill:#fff;stroke:none" d="M120 220h20v20h-20zm20 0h20v20h-20z"/><path style="fill:#663931;stroke:none" d="M160 220h20v20h-20zm20 0h20v20h-20zm20 0h20v20h-20z"/><path style="fill:#fbf236;stroke:none" d="M220 220h20v20h-20zm20 0h20v20h-20z"/><path style="fill:#663931;stroke:none" d="M260 220h20v20h-20z"/><path style="fill:#fff;stroke:none" d="M280 220h20v20h-20zm20 0h20v20h-20z"/><path style="fill:#663931;stroke:none" d="M320 220h20v20h-20zm20 0h20v20h-20zm20 0h20v20h-20z"/><path style="fill:#fbf236;stroke:none" d="M380 220h20v20h-20zm20 0h20v20h-20zm20 0h20v20h-20z"/><path style="stroke:none" d="M440 220h20v20h-20zM20 240h20v20H20z"/><path style="fill:#fbf236;stroke:none" d="M40 240h20v20H40zm20 0h20v20H60zm20 0h20v20H80z"/><path style="fill:#663931;stroke:none" d="M100 240h20v20h-20zm20 0h20v20h-20zm20 0h20v20h-20z"/><path style="fill:#fff;stroke:none" d="M160 240h20v20h-20zm20 0h20v20h-20z"/><path style="fill:#663931;stroke:none" d="M200 240h20v20h-20z"/><path style="fill:#fbf236;stroke:none" d="M220 240h20v20h-20zm20 0h20v20h-20z"/><path style="fill:#663931;stroke:none" d="M260 240h20v20h-20zm20 0h20v20h-20zm20 0h20v20h-20z"/><path style="fill:#fff;stroke:none" d="M320 240h20v20h-20zm20 0h20v20h-20z"/><path style="fill:#663931;stroke:none" d="M360 240h20v20h-20z"/><path style="fill:#fbf236;stroke:none" d="M380 240h20v20h-20zm20 0h20v20h-20zm20 0h20v20h-20z"/><path style="stroke:none" d="M440 240h20v20h-20zM20 260h20v20H20z"/><path style="fill:#fbf236;stroke:none" d="M40 260h20v20H40zm20 0h20v20H60zm20 0h20v20H80z"/><path style="fill:#15bbdb;stroke:none" d="M100 260h20v20h-20zm20 0h20v20h-20zm20 0h20v20h-20zm20 0h20v20h-20zm20 0h20v20h-20zm20 0h20v20h-20z"/><path style="fill:#fbf236;stroke:none" d="M220 260h20v20h-20zm20 0h20v20h-20z"/><path style="fill:#15bbdb;stroke:none" d="M260 260h20v20h-20zm20 0h20v20h-20zm20 0h20v20h-20zm20 0h20v20h-20zm20 0h20v20h-20zm20 0h20v20h-20z"/><path style="fill:#fbf236;stroke:none" d="M380 260h20v20h-20zm20 0h20v20h-20zm20 0h20v20h-20z"/><path style="stroke:none" d="M440 260h20v20h-20zM20 280h20v20H20z"/><path style="fill:#fbf236;stroke:none" d="M40 280h20v20H40zm20 0h20v20H60zm20 0h20v20H80zm20 0h20v20h-20z"/><path style="fill:#15bbdb;stroke:none" d="M120 280h20v20h-20zm20 0h20v20h-20zm20 0h20v20h-20zm20 0h20v20h-20z"/><path style="fill:#fbf236;stroke:none" d="M200 280h20v20h-20zm20 0h20v20h-20zm20 0h20v20h-20zm20 0h20v20h-20z"/><path style="fill:#15bbdb;stroke:none" d="M280 280h20v20h-20zm20 0h20v20h-20zm20 0h20v20h-20zm20 0h20v20h-20z"/><path style="fill:#fbf236;stroke:none" d="M360 280h20v20h-20zm20 0h20v20h-20zm20 0h20v20h-20zm20 0h20v20h-20z"/><path style="stroke:none" d="M440 280h20v20h-20zM40 300h20v20H40z"/><path style="fill:#fbf236;stroke:none" d="M60 300h20v20H60zm20 0h20v20H80zm20 0h20v20h-20zm20 0h20v20h-20zm20 0h20v20h-20zm20 0h20v20h-20zm20 0h20v20h-20zm20 0h20v20h-20zm20 0h20v20h-20zm20 0h20v20h-20zm20 0h20v20h-20zm20 0h20v20h-20zm20 0h20v20h-20zm20 0h20v20h-20zm20 0h20v20h-20zm20 0h20v20h-20zm20 0h20v20h-20zm20 0h20v20h-20z"/><path style="stroke:none" d="M420 300h20v20h-20zM40 320h20v20H40z"/><path style="fill:#fbf236;stroke:none" d="M60 320h20v20H60zm20 0h20v20H80zm20 0h20v20h-20zm20 0h20v20h-20zm20 0h20v20h-20zm20 0h20v20h-20zm20 0h20v20h-20zm20 0h20v20h-20zm20 0h20v20h-20zm20 0h20v20h-20zm20 0h20v20h-20zm20 0h20v20h-20zm20 0h20v20h-20zm20 0h20v20h-20zm20 0h20v20h-20zm20 0h20v20h-20zm20 0h20v20h-20zm20 0h20v20h-20z"/><path style="stroke:none" d="M420 320h20v20h-20zM60 340h20v20H60z"/><path style="fill:#fbf236;stroke:none" d="M80 340h20v20H80zm20 0h20v20h-20zm20 0h20v20h-20zm20 0h20v20h-20zm20 0h20v20h-20z"/><path style="fill:#663931;stroke:none" d="M180 340h20v20h-20zm20 0h20v20h-20zm20 0h20v20h-20zm20 0h20v20h-20zm20 0h20v20h-20zm20 0h20v20h-20z"/><path style="fill:#fbf236;stroke:none" d="M300 340h20v20h-20zm20 0h20v20h-20zm20 0h20v20h-20zm20 0h20v20h-20zm20 0h20v20h-20z"/><path style="stroke:none" d="M400 340h20v20h-20zM60 360h20v20H60z"/><path style="fill:#fbf236;stroke:none" d="M80 360h20v20H80zm20 0h20v20h-20zm20 0h20v20h-20zm20 0h20v20h-20zm20 0h20v20h-20zm20 0h20v20h-20z"/><path style="fill:#663931;stroke:none" d="M200 360h20v20h-20zm20 0h20v20h-20zm20 0h20v20h-20zm20 0h20v20h-20z"/><path style="fill:#fbf236;stroke:none" d="M280 360h20v20h-20zm20 0h20v20h-20zm20 0h20v20h-20zm20 0h20v20h-20zm20 0h20v20h-20zm20 0h20v20h-20z"/><path style="stroke:none" d="M400 360h20v20h-20zM80 380h20v20H80z"/><path style="fill:#fbf236;stroke:none" d="M100 380h20v20h-20zm20 0h20v20h-20zm20 0h20v20h-20zm20 0h20v20h-20zm20 0h20v20h-20zm20 0h20v20h-20zm20 0h20v20h-20zm20 0h20v20h-20zm20 0h20v20h-20zm20 0h20v20h-20zm20 0h20v20h-20zm20 0h20v20h-20zm20 0h20v20h-20zm20 0h20v20h-20z"/><path style="stroke:none" d="M380 380h20v20h-20zm-280 20h20v20h-20zm20 0h20v20h-20z"/><path style="fill:#fbf236;stroke:none" d="M140 400h20v20h-20zm20 0h20v20h-20zm20 0h20v20h-20zm20 0h20v20h-20zm20 0h20v20h-20zm20 0h20v20h-20zm20 0h20v20h-20zm20 0h20v20h-20zm20 0h20v20h-20zm20 0h20v20h-20z"/><path style="stroke:none" d="M340 400h20v20h-20zm20 0h20v20h-20zm-220 20h20v20h-20zm20 0h20v20h-20z"/><path style="fill:#fbf236;stroke:none" d="M180 420h20v20h-20zm20 0h20v20h-20zm20 0h20v20h-20zm20 0h20v20h-20zm20 0h20v20h-20zm20 0h20v20h-20z"/><path style="stroke:none" d="M300 420h20v20h-20zm20 0h20v20h-20zm-140 20h20v20h-20zm20 0h20v20h-20zm20 0h20v20h-20zm20 0h20v20h-20zm20 0h20v20h-20zm20 0h20v20h-20z"/><path style="fill:none;stroke:#b4b4b4" d="M20 0v480M40 0v480M60 0v480M80 0v480M100 0v480M120 0v480M140 0v480M160 0v480M180 0v480M200 0v480M220 0v480M240 0v480M260 0v480M280 0v480M300 0v480M320 0v480M340 0v480M360 0v480M380 0v480M400 0v480M420 0v480M440 0v480M460 0v480M0 20h480M0 40h480M0 60h480M0 80h480M0 100h480M0 120h480M0 140h480M0 160h480M0 180h480M0 200h480M0 220h480M0 240h480M0 260h480M0 280h480M0 300h480M0 320h480M0 340h480M0 360h480M0 380h480M0 400h480M0 420h480M0 440h480M0 460h480"/></g></svg>