<svg color-interpolation="auto" height="480" stroke="#000" stroke-linecap="square" stroke-miterlimit="10" width="480" xmlns="http://www.w3.org/2000/svg"><g stroke-linecap="round" stroke-width="2"><circle cx="10" cy="10" fill="none" r="6.4"/><g><g fill="none"><circle cx="30" cy="10" r="6.4"/><circle cx="50" cy="10" r="6.4"/><circle cx="70" cy="10" r="6.4"/><circle cx="90" cy="10" r="6.4"/><circle cx="110" cy="10" r="6.4"/><circle cx="130" cy="10" r="6.4"/><circle cx="150" cy="10" r="6.4"/><circle cx="170" cy="10" r="6.4"/><circle cx="190" cy="10" r="6.4"/><circle cx="210" cy="10" r="6.4"/><circle cx="230" cy="10" r="6.4"/><circle cx="250" cy="10" r="6.4"/><circle cx="270" cy="10" r="6.4"/><circle cx="290" cy="10" r="6.4"/><circle cx="310" cy="10" r="6.4"/><circle cx="330" cy="10" r="6.4"/><circle cx="350" cy="10" r="6.4"/><circle cx="370" cy="10" r="6.4"/><circle cx="390" cy="10" r="6.4"/><circle cx="410" cy="10" r="6.4"/><circle cx="430" cy="10" r="6.4"/><circle cx="450" cy="10" r="6.4"/><circle cx="470" cy="10" r="6.4"/><circle cx="10" cy="30" r="6.4"/><circle cx="30" cy="30" r="6.4"/><circle cx="50" cy="30" r="6.4"/><circle cx="70" cy="30" r="6.4"/><circle cx="90" cy="30" r="6.4"/><circle cx="110" cy="30" r="6.4"/><circle cx="130" cy="30" r="6.4"/><circle cx="150" cy="30" r="6.4"/><circle cx="170" cy="30" r="6.4"/><circle cx="190" cy="30" r="6.4"/><circle cx="210" cy="30" r="6.4"/><circle cx="230" cy="30" r="6.4"/><circle cx="250" cy="30" r="6.4"/><circle cx="270" cy="30" r="6.4"/><circle cx="290" cy="30" r="6.4"/><circle cx="310" cy="30" r="6.4"/><circle cx="330" cy="30" r="6.4"/><circle cx="350" cy="30" r="6.4"/><circle cx="370" cy="30" r="6.4"/><circle cx="390" cy="30" r="6.4"/><circle cx="410" cy="30" r="6.4"/><circle cx="430" cy="30" r="6.4"/><circle cx="450" cy="30" r="6.4"/><circle cx="470" cy="30" r="6.4"/><circle cx="10" cy="50" r="6.4"/><circle cx="30" cy="50" r="6.4"/><circle cx="50" cy="50" r="6.4"/><circle cx="70" cy="50" r="6.4"/><circle cx="90" cy="50" r="6.4"/><circle cx="110" cy="50" r="6.4"/><circle cx="130" cy="50" r="6.4"/><circle cx="150" cy="50" r="6.4"/><circle cx="170" cy="50" r="6.4"/><circle cx="190" cy="50" r="6.4"/><circle cx="210" cy="50" r="6.4"/><circle cx="230" cy="50" r="6.4"/><circle cx="250" cy="50" r="6.4"/><circle cx="270" cy="50" r="6.4"/><circle cx="290" cy="50" r="6.4"/><circle cx="310" cy="50" r="6.4"/><circle cx="330" cy="50" r="6.4"/><circle cx="350" cy="50" r="6.4"/><circle cx="370" cy="50" r="6.4"/><circle cx="390" cy="50" r="6.4"/><circle cx="410" cy="50" r="6.4"/><circle cx="430" cy="50" r="6.4"/><circle cx="450" cy="50" r="6.4"/><circle cx="470" cy="50" r="6.4"/><circle cx="10" cy="70" r="6.4"/><circle cx="30" cy="70" r="6.4"/><circle cx="50" cy="70" r="6.4"/><circle cx="70" cy="70" r="6.4"/><circle cx="90" cy="70" r="6.4"/><circle cx="110" cy="70" r="6.4"/><circle cx="130" cy="70" r="6.4"/><circle cx="150" cy="70" r="6.4"/><path d="m170 70h6.4" stroke-width="1.5"/><path d="m170 70 3.2 5.5426" stroke-width="1.5"/><path d="m170 70-3.2 5.5426" stroke-width="1.5"/><path d="m170 70h-6.4" stroke-width="1.5"/><path d="m170 70-3.2-5.5426" stroke-width="1.5"/><path d="m170 70 3.2-5.5426" stroke-width="1.5"/><path d="m190 70h6.4" stroke-width="1.5"/><path d="m190 70 3.2 5.5426" stroke-width="1.5"/><path d="m190 70-3.2 5.5426" stroke-width="1.5"/><path d="m190 70h-6.4" stroke-width="1.5"/><path d="m190 70-3.2-5.5426" stroke-width="1.5"/><path d="m190 70 3.2-5.5426" stroke-width="1.5"/><path d="m210 70h6.4" stroke-width="1.5"/><path d="m210 70 3.2 5.5426" stroke-width="1.5"/><path d="m210 70-3.2 5.5426" stroke-width="1.5"/><path d="m210 70h-6.4" stroke-width="1.5"/><path d="m210 70-3.2-5.5426" stroke-width="1.5"/><path d="m210 70 3.2-5.5426" stroke-width="1.5"/><path d="m230 70h6.4" stroke-width="1.5"/><path d="m230 70 3.2 5.5426" stroke-width="1.5"/><path d="m230 70-3.2 5.5426" stroke-width="1.5"/><path d="m230 70h-6.4" stroke-width="1.5"/><path d="m230 70-3.2-5.5426" stroke-width="1.5"/><path d="m230 70 3.2-5.5426" stroke-width="1.5"/><path d="m245.2 70h9.6"/><path d="m250 65.2v9.6"/><path d="m265.2 70h9.6"/><path d="m270 65.2v9.6"/><path d="m285.2 70h9.6"/><path d="m290 65.2v9.6"/><path d="m305.2 70h9.6"/><path d="m310 65.2v9.6"/><circle cx="330" cy="70" r="6.4"/><circle cx="350" cy="70" r="6.4"/><circle cx="370" cy="70" r="6.4"/><circle cx="390" cy="70" r="6.4"/><circle cx="410" cy="70" r="6.4"/><circle cx="430" cy="70" r="6.4"/><circle cx="450" cy="70" r="6.4"/><circle cx="470" cy="70" r="6.4"/><circle cx="10" cy="90" r="6.4"/><circle cx="30" cy="90" r="6.4"/><circle cx="50" cy="90" r="6.4"/><circle cx="70" cy="90" r="6.4"/><circle cx="90" cy="90" r="6.4"/><circle cx="110" cy="90" r="6.4"/><circle cx="130" cy="90" r="6.4"/><path d="m150 90h6.4" stroke-width="1.5"/><path d="m150 90 3.2 5.5426" stroke-width="1.5"/><path d="m150 90-3.2 5.5426" stroke-width="1.5"/><path d="m150 90h-6.4" stroke-width="1.5"/><path d="m150 90-3.2-5.5426" stroke-width="1.5"/><path d="m150 90 3.2-5.5426" stroke-width="1.5"/><path d="m170 90h6.4" stroke-width="1.5"/><path d="m170 90 3.2 5.5426" stroke-width="1.5"/><path d="m170 90-3.2 5.5426" stroke-width="1.5"/><path d="m170 90h-6.4" stroke-width="1.5"/><path d="m170 90-3.2-5.5426" stroke-width="1.5"/><path d="m170 90 3.2-5.5426" stroke-width="1.5"/><path d="m190 90h6.4" stroke-width="1.5"/><path d="m190 90 3.2 5.5426" stroke-width="1.5"/><path d="m190 90-3.2 5.5426" stroke-width="1.5"/><path d="m190 90h-6.4" stroke-width="1.5"/><path d="m190 90-3.2-5.5426" stroke-width="1.5"/><path d="m190 90 3.2-5.5426" stroke-width="1.5"/><path d="m210 90h6.4" stroke-width="1.5"/><path d="m210 90 3.2 5.5426" stroke-width="1.5"/><path d="m210 90-3.2 5.5426" stroke-width="1.5"/><path d="m210 90h-6.4" stroke-width="1.5"/><path d="m210 90-3.2-5.5426" stroke-width="1.5"/><path d="m210 90 3.2-5.5426" stroke-width="1.5"/><path d="m230 90h6.4" stroke-width="1.5"/><path d="m230 90 3.2 5.5426" stroke-width="1.5"/><path d="m230 90-3.2 5.5426" stroke-width="1.5"/><path d="m230 90h-6.4" stroke-width="1.5"/><path d="m230 90-3.2-5.5426" stroke-width="1.5"/><path d="m230 90 3.2-5.5426" stroke-width="1.5"/><path d="m245.2 90h9.6"/><path d="m250 85.2v9.6"/><path d="m265.2 90h9.6"/><path d="m270 85.2v9.6"/><path d="m285.2 90h9.6"/><path d="m290 85.2v9.6"/><path d="m305.2 90h9.6"/><path d="m310 85.2v9.6"/><path d="m325.2 90h9.6"/><path d="m330 85.2v9.6"/><circle cx="350" cy="90" r="6.4"/><circle cx="370" cy="90" r="6.4"/><circle cx="390" cy="90" r="6.4"/><circle cx="410" cy="90" r="6.4"/><circle cx="430" cy="90" r="6.4"/><circle cx="450" cy="90" r="6.4"/><circle cx="470" cy="90" r="6.4"/><circle cx="10" cy="110" r="6.4"/><circle cx="30" cy="110" r="6.4"/><circle cx="50" cy="110" r="6.4"/><circle cx="70" cy="110" r="6.4"/><circle cx="90" cy="110" r="6.4"/><circle cx="110" cy="110" r="6.4"/><path d="m130 110h6.4" stroke-width="1.5"/><path d="m130 110 3.2 5.5426" stroke-width="1.5"/><path d="m130 110-3.2 5.5426" stroke-width="1.5"/><path d="m130 110h-6.4" stroke-width="1.5"/><path d="m130 110-3.2-5.5426" stroke-width="1.5"/><path d="m130 110 3.2-5.5426" stroke-width="1.5"/><path d="m150 110h6.4" stroke-width="1.5"/><path d="m150 110 3.2 5.5426" stroke-width="1.5"/><path d="m150 110-3.2 5.5426" stroke-width="1.5"/><path d="m150 110h-6.4" stroke-width="1.5"/><path d="m150 110-3.2-5.5426" stroke-width="1.5"/><path d="m150 110 3.2-5.5426" stroke-width="1.5"/><path d="m170 110h6.4" stroke-width="1.5"/><path d="m170 110 3.2 5.5426" stroke-width="1.5"/><path d="m170 110-3.2 5.5426" stroke-width="1.5"/><path d="m170 110h-6.4" stroke-width="1.5"/><path d="m170 110-3.2-5.5426" stroke-width="1.5"/><path d="m170 110 3.2-5.5426" stroke-width="1.5"/><path d="m190 110h6.4" stroke-width="1.5"/><path d="m190 110 3.2 5.5426" stroke-width="1.5"/><path d="m190 110-3.2 5.5426" stroke-width="1.5"/><path d="m190 110h-6.4" stroke-width="1.5"/><path d="m190 110-3.2-5.5426" stroke-width="1.5"/><path d="m190 110 3.2-5.5426" stroke-width="1.5"/><path d="m210 110h6.4" stroke-width="1.5"/><path d="m210 110 3.2 5.5426" stroke-width="1.5"/><path d="m210 110-3.2 5.5426" stroke-width="1.5"/><path d="m210 110h-6.4" stroke-width="1.5"/><path d="m210 110-3.2-5.5426" stroke-width="1.5"/><path d="m210 110 3.2-5.5426" stroke-width="1.5"/><path d="m230 110h6.4" stroke-width="1.5"/><path d="m230 110 3.2 5.5426" stroke-width="1.5"/><path d="m230 110-3.2 5.5426" stroke-width="1.5"/><path d="m230 110h-6.4" stroke-width="1.5"/><path d="m230 110-3.2-5.5426" stroke-width="1.5"/><path d="m230 110 3.2-5.5426" stroke-width="1.5"/><path d="m245.2 110h9.6"/><path d="m250 105.2v9.6"/><path d="m265.2 110h9.6"/><path d="m270 105.2v9.6"/><path d="m285.2 110h9.6"/><path d="m290 105.2v9.6"/><path d="m305.2 110h9.6"/><path d="m310 105.2v9.6"/><path d="m325.2 110h9.6"/><path d="m330 105.2v9.6"/><path d="m345.2 110h9.6"/><path d="m350 105.2v9.6"/><circle cx="370" cy="110" r="6.4"/><circle cx="390" cy="110" r="6.4"/><circle cx="410" cy="110" r="6.4"/><circle cx="430" cy="110" r="6.4"/><circle cx="450" cy="110" r="6.4"/><circle cx="470" cy="110" r="6.4"/><circle cx="10" cy="130" r="6.4"/><circle cx="30" cy="130" r="6.4"/><circle cx="50" cy="130" r="6.4"/><circle cx="70" cy="130" r="6.4"/><circle cx="90" cy="130" r="6.4"/><circle cx="110" cy="130" r="6.4"/><path d="m130 130h6.4" stroke-width="1.5"/><path d="m130 130 3.2 5.5426" stroke-width="1.5"/><path d="m130 130-3.2 5.5426" stroke-width="1.5"/><path d="m130 130h-6.4" stroke-width="1.5"/><path d="m130 130-3.2-5.5426" stroke-width="1.5"/><path d="m130 130 3.2-5.5426" stroke-width="1.5"/><path d="m150 130h6.4" stroke-width="1.5"/><path d="m150 130 3.2 5.5426" stroke-width="1.5"/><path d="m150 130-3.2 5.5426" stroke-width="1.5"/><path d="m150 130h-6.4" stroke-width="1.5"/><path d="m150 130-3.2-5.5426" stroke-width="1.5"/><path d="m150 130 3.2-5.5426" stroke-width="1.5"/><path d="m170 130h6.4" stroke-width="1.5"/><path d="m170 130 3.2 5.5426" stroke-width="1.5"/><path d="m170 130-3.2 5.5426" stroke-width="1.5"/><path d="m170 130h-6.4" stroke-width="1.5"/><path d="m170 130-3.2-5.5426" stroke-width="1.5"/><path d="m170 130 3.2-5.5426" stroke-width="1.5"/><path d="m190 130h6.4" stroke-width="1.5"/><path d="m190 130 3.2 5.5426" stroke-width="1.5"/><path d="m190 130-3.2 5.5426" stroke-width="1.5"/><path d="m190 130h-6.4" stroke-width="1.5"/><path d="m190 130-3.2-5.5426" stroke-width="1.5"/><path d="m190 130 3.2-5.5426" stroke-width="1.5"/><path d="m210 130h6.4" stroke-width="1.5"/><path d="m210 130 3.2 5.5426" stroke-width="1.5"/><path d="m210 130-3.2 5.5426" stroke-width="1.5"/><path d="m210 130h-6.4" stroke-width="1.5"/><path d="m210 130-3.2-5.5426" stroke-width="1.5"/><path d="m210 130 3.2-5.5426" stroke-width="1.5"/><path d="m230 130h6.4" stroke-width="1.5"/><path d="m230 130 3.2 5.5426" stroke-width="1.5"/><path d="m230 130-3.2 5.5426" stroke-width="1.5"/><path d="m230 130h-6.4" stroke-width="1.5"/><path d="m230 130-3.2-5.5426" stroke-width="1.5"/><path d="m230 130 3.2-5.5426" stroke-width="1.5"/><path d="m245.2 130h9.6"/><path d="m250 125.2v9.6"/><path d="m265.2 130h9.6"/><path d="m270 125.2v9.6"/><path d="m285.2 130h9.6"/><path d="m290 125.2v9.6"/><path d="m305.2 130h9.6"/><path d="m310 125.2v9.6"/><path d="m325.2 130h9.6"/><path d="m330 125.2v9.6"/><path d="m345.2 130h9.6"/><path d="m350 125.2v9.6"/><circle cx="370" cy="130" r="6.4"/><circle cx="390" cy="130" r="6.4"/><circle cx="410" cy="130" r="6.4"/><circle cx="430" cy="130" r="6.4"/><circle cx="450" cy="130" r="6.4"/><circle cx="470" cy="130" r="6.4"/><circle cx="10" cy="150" r="6.4"/><circle cx="30" cy="150" r="6.4"/><circle cx="50" cy="150" r="6.4"/><circle cx="70" cy="150" r="6.4"/><circle cx="90" cy="150" r="6.4"/><circle cx="110" cy="150" r="6.4"/><circle cx="130" cy="150" r="6.4"/><path d="m150 150h6.4" stroke-width="1.5"/><path d="m150 150 3.2 5.5426" stroke-width="1.5"/><path d="m150 150-3.2 5.5426" stroke-width="1.5"/><path d="m150 150h-6.4" stroke-width="1.5"/><path d="m150 150-3.2-5.5426" stroke-width="1.5"/><path d="m150 150 3.2-5.5426" stroke-width="1.5"/><path d="m170 150h6.4" stroke-width="1.5"/><path d="m170 150 3.2 5.5426" stroke-width="1.5"/><path d="m170 150-3.2 5.5426" stroke-width="1.5"/><path d="m170 150h-6.4" stroke-width="1.5"/><path d="m170 150-3.2-5.5426" stroke-width="1.5"/><path d="m170 150 3.2-5.5426" stroke-width="1.5"/><path d="m190 150h6.4" stroke-width="1.5"/><path d="m190 150 3.2 5.5426" stroke-width="1.5"/><path d="m190 150-3.2 5.5426" stroke-width="1.5"/><path d="m190 150h-6.4" stroke-width="1.5"/><path d="m190 150-3.2-5.5426" stroke-width="1.5"/><path d="m190 150 3.2-5.5426" stroke-width="1.5"/><path d="m210 150h6.4" stroke-width="1.5"/><path d="m210 150 3.2 5.5426" stroke-width="1.5"/><path d="m210 150-3.2 5.5426" stroke-width="1.5"/><path d="m210 150h-6.4" stroke-width="1.5"/><path d="m210 150-3.2-5.5426" stroke-width="1.5"/><path d="m210 150 3.2-5.5426" stroke-width="1.5"/><path d="m230 150h6.4" stroke-width="1.5"/><path d="m230 150 3.2 5.5426" stroke-width="1.5"/><path d="m230 150-3.2 5.5426" stroke-width="1.5"/><path d="m230 150h-6.4" stroke-width="1.5"/><path d="m230 150-3.2-5.5426" stroke-width="1.5"/><path d="m230 150 3.2-5.5426" stroke-width="1.5"/><path d="m245.2 150h9.6"/><path d="m250 145.2v9.6"/><path d="m265.2 150h9.6"/><path d="m270 145.2v9.6"/><path d="m285.2 150h9.6"/><path d="m290 145.2v9.6"/><path d="m305.2 150h9.6"/><path d="m310 145.2v9.6"/><path d="m325.2 150h9.6"/><path d="m330 145.2v9.6"/><circle cx="350" cy="150" r="6.4"/><circle cx="370" cy="150" r="6.4"/><circle cx="390" cy="150" r="6.4"/><circle cx="410" cy="150" r="6.4"/><circle cx="430" cy="150" r="6.4"/><circle cx="450" cy="150" r="6.4"/><circle cx="470" cy="150" r="6.4"/><circle cx="10" cy="170" r="6.4"/><circle cx="30" cy="170" r="6.4"/><circle cx="50" cy="170" r="6.4"/><circle cx="70" cy="170" r="6.4"/><circle cx="90" cy="170" r="6.4"/><circle cx="110" cy="170" r="6.4"/><circle cx="130" cy="170" r="6.4"/><circle cx="150" cy="170" r="6.4"/><path d="m170 170h6.4" stroke-width="1.5"/><path d="m170 170 3.2 5.5426" stroke-width="1.5"/><path d="m170 170-3.2 5.5426" stroke-width="1.5"/><path d="m170 170h-6.4" stroke-width="1.5"/><path d="m170 170-3.2-5.5426" stroke-width="1.5"/><path d="m170 170 3.2-5.5426" stroke-width="1.5"/><path d="m190 170h6.4" stroke-width="1.5"/><path d="m190 170 3.2 5.5426" stroke-width="1.5"/><path d="m190 170-3.2 5.5426" stroke-width="1.5"/><path d="m190 170h-6.4" stroke-width="1.5"/><path d="m190 170-3.2-5.5426" stroke-width="1.5"/><path d="m190 170 3.2-5.5426" stroke-width="1.5"/><path d="m210 170h6.4" stroke-width="1.5"/><path d="m210 170 3.2 5.5426" stroke-width="1.5"/><path d="m210 170-3.2 5.5426" stroke-width="1.5"/><path d="m210 170h-6.4" stroke-width="1.5"/><path d="m210 170-3.2-5.5426" stroke-width="1.5"/><path d="m210 170 3.2-5.5426" stroke-width="1.5"/><path d="m230 170h6.4" stroke-width="1.5"/><path d="m230 170 3.2 5.5426" stroke-width="1.5"/><path d="m230 170-3.2 5.5426" stroke-width="1.5"/><path d="m230 170h-6.4" stroke-width="1.5"/><path d="m230 170-3.2-5.5426" stroke-width="1.5"/><path d="m230 170 3.2-5.5426" stroke-width="1.5"/><path d="m245.2 170h9.6"/><path d="m250 165.2v9.6"/><path d="m265.2 170h9.6"/><path d="m270 165.2v9.6"/><path d="m285.2 170h9.6"/><path d="m290 165.2v9.6"/><path d="m305.2 170h9.6"/><path d="m310 165.2v9.6"/><circle cx="330" cy="170" r="6.4"/><circle cx="350" cy="170" r="6.4"/><circle cx="370" cy="170" r="6.4"/><circle cx="390" cy="170" r="6.4"/><circle cx="410" cy="170" r="6.4"/><circle cx="430" cy="170" r="6.4"/><circle cx="450" cy="170" r="6.4"/><circle cx="470" cy="170" r="6.4"/><circle cx="10" cy="190" r="6.4"/><circle cx="30" cy="190" r="6.4"/><circle cx="50" cy="190" r="6.4"/><circle cx="70" cy="190" r="6.4"/><circle cx="90" cy="190" r="6.4"/><circle cx="110" cy="190" r="6.4"/><circle cx="130" cy="190" r="6.4"/><circle cx="150" cy="190" r="6.4"/><path d="m163.6 183.6h12.8v12.8h-12.8z"/><path d="m183.6 183.6h12.8v12.8h-12.8z"/><path d="m203.6 183.6h12.8v12.8h-12.8z"/><path d="m223.6 183.6h12.8v12.8h-12.8z"/><circle cx="250" cy="190" r="6.4"/><circle cx="270" cy="190" r="6.4"/></g><path d="m290 184.2099-6.4 11.0851h12.8z" stroke="none"/><path d="m310 184.2099-6.4 11.0851h12.8z" stroke="none"/><circle cx="330" cy="190" fill="none" r="6.4"/><circle cx="350" cy="190" fill="none" r="6.4"/><circle cx="370" cy="190" fill="none" r="6.4"/><circle cx="390" cy="190" fill="none" r="6.4"/><circle cx="410" cy="190" fill="none" r="6.4"/><circle cx="430" cy="190" fill="none" r="6.4"/><circle cx="450" cy="190" fill="none" r="6.4"/><circle cx="470" cy="190" fill="none" r="6.4"/><circle cx="10" cy="210" fill="none" r="6.4"/><circle cx="30" cy="210" fill="none" r="6.4"/><circle cx="50" cy="210" fill="none" r="6.4"/><circle cx="70" cy="210" fill="none" r="6.4"/><circle cx="90" cy="210" fill="none" r="6.4"/><circle cx="110" cy="210" fill="none" r="6.4"/><circle cx="130" cy="210" fill="none" r="6.4"/><path d="m143.6 203.6h12.8v12.8h-12.8z" fill="none"/><path d="m163.6 203.6h12.8v12.8h-12.8z" fill="none"/><path d="m183.6 203.6h12.8v12.8h-12.8z" fill="none"/><path d="m203.6 203.6h12.8v12.8h-12.8z" fill="none"/><path d="m223.6 203.6h12.8v12.8h-12.8z" fill="none"/><circle cx="250" cy="210" fill="none" r="6.4"/><path d="m270 204.2099-6.4 11.0851h12.8z" stroke="none"/><path d="m290 204.2099-6.4 11.0851h12.8z" stroke="none"/><path d="m310 204.2099-6.4 11.0851h12.8z" stroke="none"/><path d="m330 204.2099-6.4 11.0851h12.8z" stroke="none"/><circle cx="350" cy="210" fill="none" r="6.4"/><circle cx="370" cy="210" fill="none" r="6.4"/><circle cx="390" cy="210" fill="none" r="6.4"/><circle cx="410" cy="210" fill="none" r="6.4"/><circle cx="430" cy="210" fill="none" r="6.4"/><circle cx="450" cy="210" fill="none" r="6.4"/><circle cx="470" cy="210" fill="none" r="6.4"/><circle cx="10" cy="230" fill="none" r="6.4"/><circle cx="30" cy="230" fill="none" r="6.4"/><circle cx="50" cy="230" fill="none" r="6.4"/><circle cx="70" cy="230" fill="none" r="6.4"/><circle cx="90" cy="230" fill="none" r="6.4"/><circle cx="110" cy="230" fill="none" r="6.4"/><path d="m123.6 223.6h12.8v12.8h-12.8z" fill="none"/><path d="m143.6 223.6h12.8v12.8h-12.8z" fill="none"/><path d="m163.6 223.6h12.8v12.8h-12.8z" fill="none"/><path d="m183.6 223.6h12.8v12.8h-12.8z" fill="none"/><path d="m203.6 223.6h12.8v12.8h-12.8z" fill="none"/><path d="m223.6 223.6h12.8v12.8h-12.8z" fill="none"/><path d="m250 224.2099-6.4 11.0851h12.8z" stroke="none"/><path d="m270 224.2099-6.4 11.0851h12.8z" stroke="none"/><path d="m290 224.2099-6.4 11.0851h12.8z" stroke="none"/><path d="m310 224.2099-6.4 11.0851h12.8z" stroke="none"/><path d="m330 224.2099-6.4 11.0851h12.8z" stroke="none"/><path d="m350 224.2099-6.4 11.0851h12.8z" stroke="none"/><circle cx="370" cy="230" fill="none" r="6.4"/><circle cx="390" cy="230" fill="none" r="6.4"/><circle cx="410" cy="230" fill="none" r="6.4"/><circle cx="430" cy="230" fill="none" r="6.4"/><circle cx="450" cy="230" fill="none" r="6.4"/><circle cx="470" cy="230" fill="none" r="6.4"/><circle cx="10" cy="250" fill="none" r="6.4"/><circle cx="30" cy="250" fill="none" r="6.4"/><circle cx="50" cy="250" fill="none" r="6.4"/><circle cx="70" cy="250" fill="none" r="6.4"/><circle cx="90" cy="250" fill="none" r="6.4"/><circle cx="110" cy="250" fill="none" r="6.4"/><path d="m123.6 243.6h12.8v12.8h-12.8z" fill="none"/><path d="m143.6 243.6h12.8v12.8h-12.8z" fill="none"/><path d="m163.6 243.6h12.8v12.8h-12.8z" fill="none"/><path d="m183.6 243.6h12.8v12.8h-12.8z" fill="none"/><path d="m203.6 243.6h12.8v12.8h-12.8z" fill="none"/><path d="m223.6 243.6h12.8v12.8h-12.8z" fill="none"/><path d="m250 244.2099-6.4 11.0851h12.8z" stroke="none"/><path d="m270 244.2099-6.4 11.0851h12.8z" stroke="none"/><path d="m290 244.2099-6.4 11.0851h12.8z" stroke="none"/><path d="m310 244.2099-6.4 11.0851h12.8z" stroke="none"/><path d="m330 244.2099-6.4 11.0851h12.8z" stroke="none"/><path d="m350 244.2099-6.4 11.0851h12.8z" stroke="none"/><circle cx="370" cy="250" fill="none" r="6.4"/><circle cx="390" cy="250" fill="none" r="6.4"/><circle cx="410" cy="250" fill="none" r="6.4"/><circle cx="430" cy="250" fill="none" r="6.4"/><circle cx="450" cy="250" fill="none" r="6.4"/><circle cx="470" cy="250" fill="none" r="6.4"/><circle cx="10" cy="270" fill="none" r="6.4"/><circle cx="30" cy="270" fill="none" r="6.4"/><circle cx="50" cy="270" fill="none" r="6.4"/><circle cx="70" cy="270" fill="none" r="6.4"/><circle cx="90" cy="270" fill="none" r="6.4"/><circle cx="110" cy="270" fill="none" r="6.4"/><circle cx="130" cy="270" fill="none" r="6.4"/><path d="m143.6 263.6h12.8v12.8h-12.8z" fill="none"/><path d="m163.6 263.6h12.8v12.8h-12.8z" fill="none"/><path d="m183.6 263.6h12.8v12.8h-12.8z" fill="none"/><path d="m203.6 263.6h12.8v12.8h-12.8z" fill="none"/><path d="m223.6 263.6h12.8v12.8h-12.8z" fill="none"/><circle cx="250" cy="270" fill="none" r="6.4"/><path d="m270 264.2099-6.4 11.0851h12.8z" stroke="none"/><path d="m290 264.2099-6.4 11.0851h12.8z" stroke="none"/><path d="m310 264.2099-6.4 11.0851h12.8z" stroke="none"/><path d="m330 264.2099-6.4 11.0851h12.8z" stroke="none"/><circle cx="350" cy="270" fill="none" r="6.4"/><circle cx="370" cy="270" fill="none" r="6.4"/><circle cx="390" cy="270" fill="none" r="6.4"/><circle cx="410" cy="270" fill="none" r="6.4"/><circle cx="430" cy="270" fill="none" r="6.4"/><circle cx="450" cy="270" fill="none" r="6.4"/><circle cx="470" cy="270" fill="none" r="6.4"/><circle cx="10" cy="290" fill="none" r="6.4"/><circle cx="30" cy="290" fill="none" r="6.4"/><circle cx="50" cy="290" fill="none" r="6.4"/><circle cx="70" cy="290" fill="none" r="6.4"/><circle cx="90" cy="290" fill="none" r="6.4"/><circle cx="110" cy="290" fill="none" r="6.4"/><circle cx="130" cy="290" fill="none" r="6.4"/><circle cx="150" cy="290" fill="none" r="6.4"/><path d="m163.6 283.6h12.8v12.8h-12.8z" fill="none"/><path d="m183.6 283.6h12.8v12.8h-12.8z" fill="none"/><path d="m203.6 283.6h12.8v12.8h-12.8z" fill="none"/><path d="m223.6 283.6h12.8v12.8h-12.8z" fill="none"/><circle cx="250" cy="290" fill="none" r="6.4"/><circle cx="270" cy="290" fill="none" r="6.4"/><path d="m290 284.2099-6.4 11.0851h12.8z" stroke="none"/><path d="m310 284.2099-6.4 11.0851h12.8z" stroke="none"/><circle cx="330" cy="290" fill="none" r="6.4"/><circle cx="350" cy="290" fill="none" r="6.4"/><circle cx="370" cy="290" fill="none" r="6.4"/><circle cx="390" cy="290" fill="none" r="6.4"/><circle cx="410" cy="290" fill="none" r="6.4"/><circle cx="430" cy="290" fill="none" r="6.4"/><circle cx="450" cy="290" fill="none" r="6.4"/><circle cx="470" cy="290" fill="none" r="6.4"/><circle cx="10" cy="310" fill="none" r="6.4"/><circle cx="30" cy="310" fill="none" r="6.4"/><circle cx="50" cy="310" fill="none" r="6.4"/><circle cx="70" cy="310" fill="none" r="6.4"/><circle cx="90" cy="310" fill="none" r="6.4"/><circle cx="110" cy="310" fill="none" r="6.4"/><circle cx="130" cy="310" fill="none" r="6.4"/><circle cx="150" cy="310" fill="none" r="6.4"/><circle cx="170" cy="310" r="6.4" stroke="none"/><circle cx="190" cy="310" r="6.4" stroke="none"/><circle cx="210" cy="310" r="6.4" stroke="none"/><circle cx="230" cy="310" r="6.4" stroke="none"/><circle cx="250" cy="310" fill="none" r="6.4"/><circle cx="270" cy="310" fill="none" r="6.4"/><circle cx="290" cy="310" fill="none" r="6.4"/><circle cx="310" cy="310" fill="none" r="6.4"/><circle cx="330" cy="310" fill="none" r="6.4"/><circle cx="350" cy="310" fill="none" r="6.4"/><circle cx="370" cy="310" fill="none" r="6.4"/><circle cx="390" cy="310" fill="none" r="6.4"/><circle cx="410" cy="310" fill="none" r="6.4"/><circle cx="430" cy="310" fill="none" r="6.4"/><circle cx="450" cy="310" fill="none" r="6.4"/><circle cx="470" cy="310" fill="none" r="6.4"/><circle cx="10" cy="330" fill="none" r="6.4"/><circle cx="30" cy="330" fill="none" r="6.4"/><circle cx="50" cy="330" fill="none" r="6.4"/><circle cx="70" cy="330" fill="none" r="6.4"/><circle cx="90" cy="330" fill="none" r="6.4"/><circle cx="110" cy="330" fill="none" r="6.4"/><circle cx="130" cy="330" fill="none" r="6.4"/><circle cx="150" cy="330" r="6.4" stroke="none"/><circle cx="170" cy="330" r="6.4" stroke="none"/><circle cx="190" cy="330" r="6.4" stroke="none"/><circle cx="210" cy="330" r="6.4" stroke="none"/><circle cx="230" cy="330" r="6.4" stroke="none"/><circle cx="250" cy="330" fill="none" r="6.4"/><circle cx="270" cy="330" fill="none" r="6.4"/><circle cx="290" cy="330" fill="none" r="6.4"/><circle cx="310" cy="330" fill="none" r="6.4"/><circle cx="330" cy="330" fill="none" r="6.4"/><circle cx="350" cy="330" fill="none" r="6.4"/><circle cx="370" cy="330" fill="none" r="6.4"/><circle cx="390" cy="330" fill="none" r="6.4"/><circle cx="410" cy="330" fill="none" r="6.4"/><circle cx="430" cy="330" fill="none" r="6.4"/><circle cx="450" cy="330" fill="none" r="6.4"/><circle cx="470" cy="330" fill="none" r="6.4"/><circle cx="10" cy="350" fill="none" r="6.4"/><circle cx="30" cy="350" fill="none" r="6.4"/><circle cx="50" cy="350" fill="none" r="6.4"/><circle cx="70" cy="350" fill="none" r="6.4"/><circle cx="90" cy="350" fill="none" r="6.4"/><circle cx="110" cy="350" fill="none" r="6.4"/><circle cx="130" cy="350" r="6.4" stroke="none"/><circle cx="150" cy="350" r="6.4" stroke="none"/><circle cx="170" cy="350" r="6.4" stroke="none"/><circle cx="190" cy="350" r="6.4" stroke="none"/><circle cx="210" cy="350" r="6.4" stroke="none"/><circle cx="230" cy="350" r="6.4" stroke="none"/><circle cx="250" cy="350" fill="none" r="6.4"/><circle cx="270" cy="350" fill="none" r="6.4"/><circle cx="290" cy="350" fill="none" r="6.4"/><circle cx="310" cy="350" fill="none" r="6.4"/><circle cx="330" cy="350" fill="none" r="6.4"/><circle cx="350" cy="350" fill="none" r="6.4"/><circle cx="370" cy="350" fill="none" r="6.4"/><circle cx="390" cy="350" fill="none" r="6.4"/><circle cx="410" cy="350" fill="none" r="6.4"/><circle cx="430" cy="350" fill="none" r="6.4"/><circle cx="450" cy="350" fill="none" r="6.4"/><circle cx="470" cy="350" fill="none" r="6.4"/><circle cx="10" cy="370" fill="none" r="6.4"/><circle cx="30" cy="370" fill="none" r="6.4"/><circle cx="50" cy="370" fill="none" r="6.4"/><circle cx="70" cy="370" fill="none" r="6.4"/><circle cx="90" cy="370" fill="none" r="6.4"/><circle cx="110" cy="370" fill="none" r="6.4"/><circle cx="130" cy="370" r="6.4" stroke="none"/><circle cx="150" cy="370" r="6.4" stroke="none"/><circle cx="170" cy="370" r="6.4" stroke="none"/><circle cx="190" cy="370" r="6.4" stroke="none"/><circle cx="210" cy="370" r="6.4" stroke="none"/><circle cx="230" cy="370" r="6.4" stroke="none"/><circle cx="250" cy="370" fill="none" r="6.4"/><circle cx="270" cy="370" fill="none" r="6.4"/><circle cx="290" cy="370" fill="none" r="6.4"/><circle cx="310" cy="370" fill="none" r="6.4"/><circle cx="330" cy="370" fill="none" r="6.4"/><circle cx="350" cy="370" fill="none" r="6.4"/><circle cx="370" cy="370" fill="none" r="6.4"/><circle cx="390" cy="370" fill="none" r="6.4"/><circle cx="410" cy="370" fill="none" r="6.4"/><circle cx="430" cy="370" fill="none" r="6.4"/><circle cx="450" cy="370" fill="none" r="6.4"/><circle cx="470" cy="370" fill="none" r="6.4"/><circle cx="10" cy="390" fill="none" r="6.4"/><circle cx="30" cy="390" fill="none" r="6.4"/><circle cx="50" cy="390" fill="none" r="6.4"/><circle cx="70" cy="390" fill="none" r="6.4"/><circle cx="90" cy="390" fill="none" r="6.4"/><circle cx="110" cy="390" fill="none" r="6.4"/><circle cx="130" cy="390" fill="none" r="6.4"/><circle cx="150" cy="390" r="6.4" stroke="none"/><circle cx="170" cy="390" r="6.4" stroke="none"/><circle cx="190" cy="390" r="6.4" stroke="none"/><circle cx="210" cy="390" r="6.4" stroke="none"/><circle cx="230" cy="390" fill="none" r="6.4"/><circle cx="250" cy="390" fill="none" r="6.4"/><circle cx="270" cy="390" fill="none" r="6.4"/><circle cx="290" cy="390" fill="none" r="6.4"/><circle cx="310" cy="390" fill="none" r="6.4"/><circle cx="330" cy="390" fill="none" r="6.4"/><circle cx="350" cy="390" fill="none" r="6.4"/><circle cx="370" cy="390" fill="none" r="6.4"/><circle cx="390" cy="390" fill="none" r="6.4"/><circle cx="410" cy="390" fill="none" r="6.4"/><circle cx="430" cy="390" fill="none" r="6.4"/><circle cx="450" cy="390" fill="none" r="6.4"/><circle cx="470" cy="390" fill="none" r="6.4"/><circle cx="10" cy="410" fill="none" r="6.4"/><circle cx="30" cy="410" fill="none" r="6.4"/><circle cx="50" cy="410" fill="none" r="6.4"/><circle cx="70" cy="410" fill="none" r="6.4"/><circle cx="90" cy="410" fill="none" r="6.4"/><circle cx="110" cy="410" fill="none" r="6.4"/><circle cx="130" cy="410" fill="none" r="6.4"/><circle cx="150" cy="410" fill="none" r="6.4"/><circle cx="170" cy="410" r="6.4" stroke="none"/><circle cx="190" cy="410" r="6.4" stroke="none"/><circle cx="210" cy="410" fill="none" r="6.4"/><circle cx="230" cy="410" fill="none" r="6.4"/><circle cx="250" cy="410" fill="none" r="6.4"/><circle cx="270" cy="410" fill="none" r="6.4"/><circle cx="290" cy="410" fill="none" r="6.4"/><circle cx="310" cy="410" fill="none" r="6.4"/><circle cx="330" cy="410" fill="none" r="6.4"/><circle cx="350" cy="410" fill="none" r="6.4"/><circle cx="370" cy="410" fill="none" r="6.4"/><circle cx="390" cy="410" fill="none" r="6.4"/><circle cx="410" cy="410" fill="none" r="6.4"/><circle cx="430" cy="410" fill="none" r="6.4"/><circle cx="450" cy="410" fill="none" r="6.4"/><circle cx="470" cy="410" fill="none" r="6.4"/><circle cx="10" cy="430" fill="none" r="6.4"/><circle cx="30" cy="430" fill="none" r="6.4"/><circle cx="50" cy="430" fill="none" r="6.4"/><circle cx="70" cy="430" fill="none" r="6.4"/><circle cx="90" cy="430" fill="none" r="6.4"/><circle cx="110" cy="430" fill="none" r="6.4"/><circle cx="130" cy="430" fill="none" r="6.4"/><circle cx="150" cy="430" fill="none" r="6.4"/><circle cx="170" cy="430" fill="none" r="6.4"/><circle cx="190" cy="430" fill="none" r="6.4"/><circle cx="210" cy="430" fill="none" r="6.4"/><circle cx="230" cy="430" fill="none" r="6.4"/><circle cx="250" cy="430" fill="none" r="6.4"/><circle cx="270" cy="430" fill="none" r="6.4"/><circle cx="290" cy="430" fill="none" r="6.4"/><circle cx="310" cy="430" fill="none" r="6.4"/><circle cx="330" cy="430" fill="none" r="6.4"/><circle cx="350" cy="430" fill="none" r="6.4"/><circle cx="370" cy="430" fill="none" r="6.4"/><circle cx="390" cy="430" fill="none" r="6.4"/><circle cx="410" cy="430" fill="none" r="6.4"/><circle cx="430" cy="430" fill="none" r="6.4"/><circle cx="450" cy="430" fill="none" r="6.4"/><circle cx="470" cy="430" fill="none" r="6.4"/><circle cx="10" cy="450" fill="none" r="6.4"/><circle cx="30" cy="450" fill="none" r="6.4"/><circle cx="50" cy="450" fill="none" r="6.4"/><circle cx="70" cy="450" fill="none" r="6.4"/><circle cx="90" cy="450" fill="none" r="6.4"/><circle cx="110" cy="450" fill="none" r="6.4"/><circle cx="130" cy="450" fill="none" r="6.4"/><circle cx="150" cy="450" fill="none" r="6.4"/><circle cx="170" cy="450" fill="none" r="6.4"/><circle cx="190" cy="450" fill="none" r="6.4"/><circle cx="210" cy="450" fill="none" r="6.4"/><circle cx="230" cy="450" fill="none" r="6.4"/><circle cx="250" cy="450" fill="none" r="6.4"/><circle cx="270" cy="450" fill="none" r="6.4"/><circle cx="290" cy="450" fill="none" r="6.4"/><circle cx="310" cy="450" fill="none" r="6.4"/><circle cx="330" cy="450" fill="none" r="6.4"/><circle cx="350" cy="450" fill="none" r="6.4"/><circle cx="370" cy="450" fill="none" r="6.4"/><circle cx="390" cy="450" fill="none" r="6.4"/><circle cx="410" cy="450" fill="none" r="6.4"/><circle cx="430" cy="450" fill="none" r="6.4"/><circle cx="450" cy="450" fill="none" r="6.4"/><circle cx="470" cy="450" fill="none" r="6.4"/><circle cx="10" cy="470" fill="none" r="6.4"/><circle cx="30" cy="470" fill="none" r="6.4"/><circle cx="50" cy="470" fill="none" r="6.4"/><circle cx="70" cy="470" fill="none" r="6.4"/><circle cx="90" cy="470" fill="none" r="6.4"/><circle cx="110" cy="470" fill="none" r="6.4"/><circle cx="130" cy="470" fill="none" r="6.4"/><circle cx="150" cy="470" fill="none" r="6.4"/><circle cx="170" cy="470" fill="none" r="6.4"/><circle cx="190" cy="470" fill="none" r="6.4"/><circle cx="210" cy="470" fill="none" r="6.4"/><circle cx="230" cy="470" fill="none" r="6.4"/><circle cx="250" cy="470" fill="none" r="6.4"/><circle cx="270" cy="470" fill="none" r="6.4"/><circle cx="290" cy="470" fill="none" r="6.4"/><circle cx="310" cy="470" fill="none" r="6.4"/><circle cx="330" cy="470" fill="none" r="6.4"/><circle cx="350" cy="470" fill="none" r="6.4"/><circle cx="370" cy="470" fill="none" r="6.4"/><circle cx="390" cy="470" fill="none" r="6.4"/><circle cx="410" cy="470" fill="none" r="6.4"/><circle cx="430" cy="470" fill="none" r="6.4"/><circle cx="450" cy="470" fill="none" r="6.4"/><circle cx="470" cy="470" fill="none" r="6.4"/><path d="m0 0v480" fill="none" stroke="#b4b4b4" stroke-width="3"/><path d="m20 0v480" fill="none" stroke="#b4b4b4" stroke-width="1.5"/><path d="m40 0v480" fill="none" stroke="#b4b4b4" stroke-width="1.5"/><path d="m60 0v480" fill="none" stroke="#b4b4b4" stroke-width="1.5"/><path d="m80 0v480" fill="none" stroke="#b4b4b4" stroke-width="1.5"/><path d="m100 0v480" fill="none" stroke="#b4b4b4" stroke-width="1.5"/><path d="m120 0v480" fill="none" stroke="#b4b4b4" stroke-width="1.5"/><path d="m140 0v480" fill="none" stroke="#b4b4b4" stroke-width="1.5"/><path d="m160 0v480" fill="none" stroke="#b4b4b4" stroke-width="1.5"/><path d="m180 0v480" fill="none" stroke="#b4b4b4" stroke-width="1.5"/><path d="m200 0v480" fill="none" stroke="#b4b4b4" stroke-width="1.5"/><path d="m220 0v480" fill="none" stroke="#b4b4b4" stroke-width="1.5"/><path d="m240 0v480" fill="none" stroke="#b4b4b4" stroke-width="1.5"/><path d="m260 0v480" fill="none" stroke="#b4b4b4" stroke-width="1.5"/><path d="m280 0v480" fill="none" stroke="#b4b4b4" stroke-width="1.5"/><path d="m300 0v480" fill="none" stroke="#b4b4b4" stroke-width="1.5"/><path d="m320 0v480" fill="none" stroke="#b4b4b4" stroke-width="1.5"/><path d="m340 0v480" fill="none" stroke="#b4b4b4" stroke-width="1.5"/><path d="m360 0v480" fill="none" stroke="#b4b4b4" stroke-width="1.5"/><path d="m380 0v480" fill="none" stroke="#b4b4b4" stroke-width="1.5"/><path d="m400 0v480" fill="none" stroke="#b4b4b4" stroke-width="1.5"/><path d="m420 0v480" fill="none" stroke="#b4b4b4" stroke-width="1.5"/><path d="m440 0v480" fill="none" stroke="#b4b4b4" stroke-width="1.5"/><path d="m460 0v480" fill="none" stroke="#b4b4b4" stroke-width="1.5"/><path d="m480 0v480" fill="none" stroke="#b4b4b4" stroke-width="3"/><path d="m0 0h480" fill="none" stroke="#b4b4b4" stroke-width="3"/><path d="m0 20h480" fill="none" stroke="#b4b4b4" stroke-width="1.5"/><path d="m0 40h480" fill="none" stroke="#b4b4b4" stroke-width="1.5"/><path d="m0 60h480" fill="none" stroke="#b4b4b4" stroke-width="1.5"/><path d="m0 80h480" fill="none" stroke="#b4b4b4" stroke-width="1.5"/><path d="m0 100h480" fill="none" stroke="#b4b4b4" stroke-width="1.5"/><path d="m0 120h480" fill="none" stroke="#b4b4b4" stroke-width="1.5"/><path d="m0 140h480" fill="none" stroke="#b4b4b4" stroke-width="1.5"/><path d="m0 160h480" fill="none" stroke="#b4b4b4" stroke-width="1.5"/><path d="m0 180h480" fill="none" stroke="#b4b4b4" stroke-width="1.5"/><path d="m0 200h480" fill="none" stroke="#b4b4b4" stroke-width="1.5"/><path d="m0 220h480" fill="none" stroke="#b4b4b4" stroke-width="1.5"/><path d="m0 240h480" fill="none" stroke="#b4b4b4" stroke-width="1.5"/><path d="m0 260h480" fill="none" stroke="#b4b4b4" stroke-width="1.5"/><path d="m0 280h480" fill="none" stroke="#b4b4b4" stroke-width="1.5"/><path d="m0 300h480" fill="none" stroke="#b4b4b4" stroke-width="1.5"/><path d="m0 320h480" fill="none" stroke="#b4b4b4" stroke-width="1.5"/><path d="m0 340h480" fill="none" stroke="#b4b4b4" stroke-width="1.5"/><path d="m0 360h480" fill="none" stroke="#b4b4b4" stroke-width="1.5"/><path d="m0 380h480" fill="none" stroke="#b4b4b4" stroke-width="1.5"/><path d="m0 400h480" fill="none" stroke="#b4b4b4" stroke-width="1.5"/><path d="m0 420h480" fill="none" stroke="#b4b4b4" stroke-width="1.5"/><path d="m0 440h480" fill="none" stroke="#b4b4b4" stroke-width="1.5"/><path d="m0 460h480" fill="none" stroke="#b4b4b4" stroke-width="1.5"/><path d="m0 480h480" fill="none" stroke="#b4b4b4" stroke-width="3"/></g></g></svg>