<svg color-interpolation="auto" height="480" stroke="#000" stroke-linecap="square" stroke-miterlimit="10" width="480" xmlns="http://www.w3.org/2000/svg"><g stroke-linecap="round" stroke-width="2"><circle cx="10" cy="10" fill="none" r="4.8"/><g><g fill="none"><circle cx="30" cy="10" r="4.8"/><circle cx="50" cy="10" r="4.8"/><circle cx="70" cy="10" r="4.8"/><circle cx="90" cy="10" r="4.8"/><circle cx="110" cy="10" r="4.8"/><circle cx="130" cy="10" r="4.8"/><circle cx="150" cy="10" r="4.8"/><circle cx="170" cy="10" r="4.8"/><circle cx="190" cy="10" r="4.8"/><circle cx="210" cy="10" r="4.8"/><circle cx="230" cy="10" r="4.8"/><circle cx="250" cy="10" r="4.8"/><circle cx="270" cy="10" r="4.8"/><circle cx="290" cy="10" r="4.8"/><circle cx="310" cy="10" r="4.8"/><circle cx="330" cy="10" r="4.8"/><circle cx="350" cy="10" r="4.8"/><circle cx="370" cy="10" r="4.8"/><circle cx="390" cy="10" r="4.8"/><circle cx="410" cy="10" r="4.8"/><circle cx="430" cy="10" r="4.8"/><circle cx="450" cy="10" r="4.8"/><circle cx="470" cy="10" r="4.8"/><circle cx="10" cy="30" r="4.8"/><circle cx="30" cy="30" r="4.8"/><circle cx="50" cy="30" r="4.8"/><circle cx="70" cy="30" r="4.8"/><circle cx="90" cy="30" r="4.8"/><circle cx="110" cy="30" r="4.8"/><circle cx="130" cy="30" r="4.8"/><circle cx="150" cy="30" r="4.8"/><circle cx="170" cy="30" r="4.8"/><circle cx="190" cy="30" r="4.8"/><circle cx="210" cy="30" r="4.8"/><circle cx="230" cy="30" r="4.8"/><circle cx="250" cy="30" r="4.8"/><circle cx="270" cy="30" r="4.8"/><circle cx="290" cy="30" r="4.8"/><circle cx="310" cy="30" r="4.8"/><circle cx="330" cy="30" r="4.8"/><circle cx="350" cy="30" r="4.8"/><circle cx="370" cy="30" r="4.8"/><circle cx="390" cy="30" r="4.8"/><circle cx="410" cy="30" r="4.8"/><circle cx="430" cy="30" r="4.8"/><circle cx="450" cy="30" r="4.8"/><circle cx="470" cy="30" r="4.8"/><circle cx="10" cy="50" r="4.8"/><circle cx="30" cy="50" r="4.8"/><circle cx="50" cy="50" r="4.8"/><circle cx="70" cy="50" r="4.8"/><circle cx="90" cy="50" r="4.8"/><circle cx="110" cy="50" r="4.8"/><circle cx="130" cy="50" r="4.8"/><circle cx="150" cy="50" r="4.8"/><circle cx="170" cy="50" r="4.8"/><circle cx="190" cy="50" r="4.8"/><circle cx="210" cy="50" r="4.8"/><circle cx="230" cy="50" r="4.8"/><circle cx="250" cy="50" r="4.8"/><circle cx="270" cy="50" r="4.8"/><circle cx="290" cy="50" r="4.8"/><circle cx="310" cy="50" r="4.8"/><circle cx="330" cy="50" r="4.8"/><circle cx="350" cy="50" r="4.8"/><circle cx="370" cy="50" r="4.8"/><circle cx="390" cy="50" r="4.8"/><circle cx="410" cy="50" r="4.8"/><circle cx="430" cy="50" r="4.8"/><circle cx="450" cy="50" r="4.8"/><circle cx="470" cy="50" r="4.8"/><circle cx="10" cy="70" r="4.8"/><circle cx="30" cy="70" r="4.8"/><circle cx="50" cy="70" r="4.8"/><circle cx="70" cy="70" r="4.8"/><circle cx="90" cy="70" r="4.8"/><circle cx="110" cy="70" r="4.8"/><circle cx="130" cy="70" r="4.8"/><circle cx="150" cy="70" r="4.8"/><path d="m165.2 65.2h9.6v9.6h-9.6z"/><path d="m185.2 65.2h9.6v9.6h-9.6z"/><path d="m205.2 65.2h9.6v9.6h-9.6z"/><path d="m225.2 65.2h9.6v9.6h-9.6z"/><path d="m246.4 70h7.2"/><path d="m250 66.4v7.2"/><path d="m266.4 70h7.2"/><path d="m270 66.4v7.2"/><path d="m286.4 70h7.2"/><path d="m290 66.4v7.2"/><path d="m306.4 70h7.2"/><path d="m310 66.4v7.2"/><circle cx="330" cy="70" r="4.8"/><circle cx="350" cy="70" r="4.8"/><circle cx="370" cy="70" r="4.8"/><circle cx="390" cy="70" r="4.8"/><circle cx="410" cy="70" r="4.8"/><circle cx="430" cy="70" r="4.8"/><circle cx="450" cy="70" r="4.8"/><circle cx="470" cy="70" r="4.8"/><circle cx="10" cy="90" r="4.8"/><circle cx="30" cy="90" r="4.8"/><circle cx="50" cy="90" r="4.8"/><circle cx="70" cy="90" r="4.8"/><circle cx="90" cy="90" r="4.8"/><circle cx="110" cy="90" r="4.8"/><circle cx="130" cy="90" r="4.8"/><path d="m145.2 85.2h9.6v9.6h-9.6z"/><path d="m165.2 85.2h9.6v9.6h-9.6z"/><path d="m185.2 85.2h9.6v9.6h-9.6z"/><path d="m205.2 85.2h9.6v9.6h-9.6z"/><path d="m225.2 85.2h9.6v9.6h-9.6z"/><path d="m246.4 90h7.2"/><path d="m250 86.4v7.2"/><path d="m266.4 90h7.2"/><path d="m270 86.4v7.2"/><path d="m286.4 90h7.2"/><path d="m290 86.4v7.2"/><path d="m306.4 90h7.2"/><path d="m310 86.4v7.2"/><path d="m326.4 90h7.2"/><path d="m330 86.4v7.2"/><circle cx="350" cy="90" r="4.8"/><circle cx="370" cy="90" r="4.8"/><circle cx="390" cy="90" r="4.8"/><circle cx="410" cy="90" r="4.8"/><circle cx="430" cy="90" r="4.8"/><circle cx="450" cy="90" r="4.8"/><circle cx="470" cy="90" r="4.8"/><circle cx="10" cy="110" r="4.8"/><circle cx="30" cy="110" r="4.8"/><circle cx="50" cy="110" r="4.8"/><circle cx="70" cy="110" r="4.8"/><circle cx="90" cy="110" r="4.8"/><circle cx="110" cy="110" r="4.8"/><path d="m125.2 105.2h9.6v9.6h-9.6z"/><path d="m145.2 105.2h9.6v9.6h-9.6z"/><path d="m165.2 105.2h9.6v9.6h-9.6z"/><path d="m185.2 105.2h9.6v9.6h-9.6z"/><path d="m205.2 105.2h9.6v9.6h-9.6z"/><path d="m225.2 105.2h9.6v9.6h-9.6z"/><path d="m246.4 110h7.2"/><path d="m250 106.4v7.2"/><path d="m266.4 110h7.2"/><path d="m270 106.4v7.2"/><path d="m286.4 110h7.2"/><path d="m290 106.4v7.2"/><path d="m306.4 110h7.2"/><path d="m310 106.4v7.2"/><path d="m326.4 110h7.2"/><path d="m330 106.4v7.2"/><path d="m346.4 110h7.2"/><path d="m350 106.4v7.2"/><circle cx="370" cy="110" r="4.8"/><circle cx="390" cy="110" r="4.8"/><circle cx="410" cy="110" r="4.8"/><circle cx="430" cy="110" r="4.8"/><circle cx="450" cy="110" r="4.8"/><circle cx="470" cy="110" r="4.8"/><circle cx="10" cy="130" r="4.8"/><circle cx="30" cy="130" r="4.8"/><circle cx="50" cy="130" r="4.8"/><circle cx="70" cy="130" r="4.8"/><circle cx="90" cy="130" r="4.8"/><circle cx="110" cy="130" r="4.8"/><path d="m125.2 125.2h9.6v9.6h-9.6z"/><path d="m145.2 125.2h9.6v9.6h-9.6z"/><path d="m165.2 125.2h9.6v9.6h-9.6z"/><path d="m185.2 125.2h9.6v9.6h-9.6z"/><path d="m205.2 125.2h9.6v9.6h-9.6z"/><path d="m225.2 125.2h9.6v9.6h-9.6z"/><path d="m246.4 130h7.2"/><path d="m250 126.4v7.2"/><path d="m266.4 130h7.2"/><path d="m270 126.4v7.2"/><path d="m286.4 130h7.2"/><path d="m290 126.4v7.2"/><path d="m306.4 130h7.2"/><path d="m310 126.4v7.2"/><path d="m326.4 130h7.2"/><path d="m330 126.4v7.2"/><path d="m346.4 130h7.2"/><path d="m350 126.4v7.2"/><circle cx="370" cy="130" r="4.8"/><circle cx="390" cy="130" r="4.8"/><circle cx="410" cy="130" r="4.8"/><circle cx="430" cy="130" r="4.8"/><circle cx="450" cy="130" r="4.8"/><circle cx="470" cy="130" r="4.8"/><circle cx="10" cy="150" r="4.8"/><circle cx="30" cy="150" r="4.8"/><circle cx="50" cy="150" r="4.8"/><circle cx="70" cy="150" r="4.8"/><circle cx="90" cy="150" r="4.8"/><circle cx="110" cy="150" r="4.8"/><circle cx="130" cy="150" r="4.8"/><path d="m145.2 145.2h9.6v9.6h-9.6z"/><path d="m165.2 145.2h9.6v9.6h-9.6z"/><path d="m185.2 145.2h9.6v9.6h-9.6z"/><path d="m205.2 145.2h9.6v9.6h-9.6z"/><path d="m225.2 145.2h9.6v9.6h-9.6z"/><path d="m246.4 150h7.2"/><path d="m250 146.4v7.2"/><path d="m266.4 150h7.2"/><path d="m270 146.4v7.2"/><path d="m286.4 150h7.2"/><path d="m290 146.4v7.2"/><path d="m306.4 150h7.2"/><path d="m310 146.4v7.2"/><path d="m326.4 150h7.2"/><path d="m330 146.4v7.2"/><circle cx="350" cy="150" r="4.8"/><circle cx="370" cy="150" r="4.8"/><circle cx="390" cy="150" r="4.8"/><circle cx="410" cy="150" r="4.8"/><circle cx="430" cy="150" r="4.8"/><circle cx="450" cy="150" r="4.8"/><circle cx="470" cy="150" r="4.8"/><circle cx="10" cy="170" r="4.8"/><circle cx="30" cy="170" r="4.8"/><circle cx="50" cy="170" r="4.8"/><circle cx="70" cy="170" r="4.8"/><circle cx="90" cy="170" r="4.8"/><circle cx="110" cy="170" r="4.8"/><circle cx="130" cy="170" r="4.8"/><circle cx="150" cy="170" r="4.8"/><path d="m165.2 165.2h9.6v9.6h-9.6z"/><path d="m185.2 165.2h9.6v9.6h-9.6z"/><path d="m205.2 165.2h9.6v9.6h-9.6z"/><path d="m225.2 165.2h9.6v9.6h-9.6z"/><path d="m246.4 170h7.2"/><path d="m250 166.4v7.2"/><path d="m266.4 170h7.2"/><path d="m270 166.4v7.2"/><path d="m286.4 170h7.2"/><path d="m290 166.4v7.2"/><path d="m306.4 170h7.2"/><path d="m310 166.4v7.2"/><circle cx="330" cy="170" r="4.8"/><circle cx="350" cy="170" r="4.8"/><circle cx="370" cy="170" r="4.8"/><circle cx="390" cy="170" r="4.8"/><circle cx="410" cy="170" r="4.8"/><circle cx="430" cy="170" r="4.8"/><circle cx="450" cy="170" r="4.8"/><circle cx="470" cy="170" r="4.8"/><circle cx="10" cy="190" r="4.8"/><circle cx="30" cy="190" r="4.8"/><circle cx="50" cy="190" r="4.8"/><circle cx="70" cy="190" r="4.8"/><circle cx="90" cy="190" r="4.8"/><circle cx="110" cy="190" r="4.8"/><circle cx="130" cy="190" r="4.8"/><circle cx="150" cy="190" r="4.8"/><path d="m170 185.6574-4.8 8.3139h9.6z"/><path d="m190 185.6574-4.8 8.3139h9.6z"/><path d="m210 185.6574-4.8 8.3139h9.6z"/><path d="m230 185.6574-4.8 8.3139h9.6z"/><circle cx="250" cy="190" r="4.8"/><circle cx="270" cy="190" r="4.8"/></g><path d="m290 185.6574-4.8 8.3139h9.6z" stroke="none"/><path d="m310 185.6574-4.8 8.3139h9.6z" stroke="none"/><circle cx="330" cy="190" fill="none" r="4.8"/><circle cx="350" cy="190" fill="none" r="4.8"/><circle cx="370" cy="190" fill="none" r="4.8"/><circle cx="390" cy="190" fill="none" r="4.8"/><circle cx="410" cy="190" fill="none" r="4.8"/><circle cx="430" cy="190" fill="none" r="4.8"/><circle cx="450" cy="190" fill="none" r="4.8"/><circle cx="470" cy="190" fill="none" r="4.8"/><circle cx="10" cy="210" fill="none" r="4.8"/><circle cx="30" cy="210" fill="none" r="4.8"/><circle cx="50" cy="210" fill="none" r="4.8"/><circle cx="70" cy="210" fill="none" r="4.8"/><circle cx="90" cy="210" fill="none" r="4.8"/><circle cx="110" cy="210" fill="none" r="4.8"/><circle cx="130" cy="210" fill="none" r="4.8"/><path d="m150 205.6574-4.8 8.3139h9.6z" fill="none"/><path d="m170 205.6574-4.8 8.3139h9.6z" fill="none"/><path d="m190 205.6574-4.8 8.3139h9.6z" fill="none"/><path d="m210 205.6574-4.8 8.3139h9.6z" fill="none"/><path d="m230 205.6574-4.8 8.3139h9.6z" fill="none"/><circle cx="250" cy="210" fill="none" r="4.8"/><path d="m270 205.6574-4.8 8.3139h9.6z" stroke="none"/><path d="m290 205.6574-4.8 8.3139h9.6z" stroke="none"/><path d="m310 205.6574-4.8 8.3139h9.6z" stroke="none"/><path d="m330 205.6574-4.8 8.3139h9.6z" stroke="none"/><circle cx="350" cy="210" fill="none" r="4.8"/><circle cx="370" cy="210" fill="none" r="4.8"/><circle cx="390" cy="210" fill="none" r="4.8"/><circle cx="410" cy="210" fill="none" r="4.8"/><circle cx="430" cy="210" fill="none" r="4.8"/><circle cx="450" cy="210" fill="none" r="4.8"/><circle cx="470" cy="210" fill="none" r="4.8"/><circle cx="10" cy="230" fill="none" r="4.8"/><circle cx="30" cy="230" fill="none" r="4.8"/><circle cx="50" cy="230" fill="none" r="4.8"/><circle cx="70" cy="230" fill="none" r="4.8"/><circle cx="90" cy="230" fill="none" r="4.8"/><circle cx="110" cy="230" fill="none" r="4.8"/><path d="m130 225.6574-4.8 8.3139h9.6z" fill="none"/><path d="m150 225.6574-4.8 8.3139h9.6z" fill="none"/><path d="m170 225.6574-4.8 8.3139h9.6z" fill="none"/><path d="m190 225.6574-4.8 8.3139h9.6z" fill="none"/><path d="m210 225.6574-4.8 8.3139h9.6z" fill="none"/><path d="m230 225.6574-4.8 8.3139h9.6z" fill="none"/><path d="m250 225.6574-4.8 8.3139h9.6z" stroke="none"/><path d="m270 225.6574-4.8 8.3139h9.6z" stroke="none"/><path d="m290 225.6574-4.8 8.3139h9.6z" stroke="none"/><path d="m310 225.6574-4.8 8.3139h9.6z" stroke="none"/><path d="m330 225.6574-4.8 8.3139h9.6z" stroke="none"/><path d="m350 225.6574-4.8 8.3139h9.6z" stroke="none"/><circle cx="370" cy="230" fill="none" r="4.8"/><circle cx="390" cy="230" fill="none" r="4.8"/><circle cx="410" cy="230" fill="none" r="4.8"/><circle cx="430" cy="230" fill="none" r="4.8"/><circle cx="450" cy="230" fill="none" r="4.8"/><circle cx="470" cy="230" fill="none" r="4.8"/><circle cx="10" cy="250" fill="none" r="4.8"/><circle cx="30" cy="250" fill="none" r="4.8"/><circle cx="50" cy="250" fill="none" r="4.8"/><circle cx="70" cy="250" fill="none" r="4.8"/><circle cx="90" cy="250" fill="none" r="4.8"/><circle cx="110" cy="250" fill="none" r="4.8"/><path d="m130 245.6574-4.8 8.3139h9.6z" fill="none"/><path d="m150 245.6574-4.8 8.3139h9.6z" fill="none"/><path d="m170 245.6574-4.8 8.3139h9.6z" fill="none"/><path d="m190 245.6574-4.8 8.3139h9.6z" fill="none"/><path d="m210 245.6574-4.8 8.3139h9.6z" fill="none"/><path d="m230 245.6574-4.8 8.3139h9.6z" fill="none"/><path d="m250 245.6574-4.8 8.3139h9.6z" stroke="none"/><path d="m270 245.6574-4.8 8.3139h9.6z" stroke="none"/><path d="m290 245.6574-4.8 8.3139h9.6z" stroke="none"/><path d="m310 245.6574-4.8 8.3139h9.6z" stroke="none"/><path d="m330 245.6574-4.8 8.3139h9.6z" stroke="none"/><path d="m350 245.6574-4.8 8.3139h9.6z" stroke="none"/><circle cx="370" cy="250" fill="none" r="4.8"/><circle cx="390" cy="250" fill="none" r="4.8"/><circle cx="410" cy="250" fill="none" r="4.8"/><circle cx="430" cy="250" fill="none" r="4.8"/><circle cx="450" cy="250" fill="none" r="4.8"/><circle cx="470" cy="250" fill="none" r="4.8"/><circle cx="10" cy="270" fill="none" r="4.8"/><circle cx="30" cy="270" fill="none" r="4.8"/><circle cx="50" cy="270" fill="none" r="4.8"/><circle cx="70" cy="270" fill="none" r="4.8"/><circle cx="90" cy="270" fill="none" r="4.8"/><circle cx="110" cy="270" fill="none" r="4.8"/><circle cx="130" cy="270" fill="none" r="4.8"/><path d="m150 265.6574-4.8 8.3139h9.6z" fill="none"/><path d="m170 265.6574-4.8 8.3139h9.6z" fill="none"/><path d="m190 265.6574-4.8 8.3139h9.6z" fill="none"/><path d="m210 265.6574-4.8 8.3139h9.6z" fill="none"/><path d="m230 265.6574-4.8 8.3139h9.6z" fill="none"/><circle cx="250" cy="270" fill="none" r="4.8"/><path d="m270 265.6574-4.8 8.3139h9.6z" stroke="none"/><path d="m290 265.6574-4.8 8.3139h9.6z" stroke="none"/><path d="m310 265.6574-4.8 8.3139h9.6z" stroke="none"/><path d="m330 265.6574-4.8 8.3139h9.6z" stroke="none"/><circle cx="350" cy="270" fill="none" r="4.8"/><circle cx="370" cy="270" fill="none" r="4.8"/><circle cx="390" cy="270" fill="none" r="4.8"/><circle cx="410" cy="270" fill="none" r="4.8"/><circle cx="430" cy="270" fill="none" r="4.8"/><circle cx="450" cy="270" fill="none" r="4.8"/><circle cx="470" cy="270" fill="none" r="4.8"/><circle cx="10" cy="290" fill="none" r="4.8"/><circle cx="30" cy="290" fill="none" r="4.8"/><circle cx="50" cy="290" fill="none" r="4.8"/><circle cx="70" cy="290" fill="none" r="4.8"/><circle cx="90" cy="290" fill="none" r="4.8"/><circle cx="110" cy="290" fill="none" r="4.8"/><circle cx="130" cy="290" fill="none" r="4.8"/><circle cx="150" cy="290" fill="none" r="4.8"/><path d="m170 285.6574-4.8 8.3139h9.6z" fill="none"/><path d="m190 285.6574-4.8 8.3139h9.6z" fill="none"/><path d="m210 285.6574-4.8 8.3139h9.6z" fill="none"/><path d="m230 285.6574-4.8 8.3139h9.6z" fill="none"/><circle cx="250" cy="290" fill="none" r="4.8"/><circle cx="270" cy="290" fill="none" r="4.8"/><path d="m290 285.6574-4.8 8.3139h9.6z" stroke="none"/><path d="m310 285.6574-4.8 8.3139h9.6z" stroke="none"/><circle cx="330" cy="290" fill="none" r="4.8"/><circle cx="350" cy="290" fill="none" r="4.8"/><circle cx="370" cy="290" fill="none" r="4.8"/><circle cx="390" cy="290" fill="none" r="4.8"/><circle cx="410" cy="290" fill="none" r="4.8"/><circle cx="430" cy="290" fill="none" r="4.8"/><circle cx="450" cy="290" fill="none" r="4.8"/><circle cx="470" cy="290" fill="none" r="4.8"/><circle cx="10" cy="310" fill="none" r="4.8"/><circle cx="30" cy="310" fill="none" r="4.8"/><circle cx="50" cy="310" fill="none" r="4.8"/><circle cx="70" cy="310" fill="none" r="4.8"/><circle cx="90" cy="310" fill="none" r="4.8"/><circle cx="110" cy="310" fill="none" r="4.8"/><circle cx="130" cy="310" fill="none" r="4.8"/><circle cx="150" cy="310" fill="none" r="4.8"/><path d="m165.2 305.2h9.6v9.6h-9.6z" stroke="none"/><path d="m185.2 305.2h9.6v9.6h-9.6z" stroke="none"/><path d="m205.2 305.2h9.6v9.6h-9.6z" stroke="none"/><path d="m225.2 305.2h9.6v9.6h-9.6z" stroke="none"/><circle cx="250" cy="310" fill="none" r="4.8"/><circle cx="270" cy="310" fill="none" r="4.8"/><circle cx="290" cy="310" fill="none" r="4.8"/><circle cx="310" cy="310" fill="none" r="4.8"/><circle cx="330" cy="310" fill="none" r="4.8"/><circle cx="350" cy="310" fill="none" r="4.8"/><circle cx="370" cy="310" fill="none" r="4.8"/><circle cx="390" cy="310" fill="none" r="4.8"/><circle cx="410" cy="310" fill="none" r="4.8"/><circle cx="430" cy="310" fill="none" r="4.8"/><circle cx="450" cy="310" fill="none" r="4.8"/><circle cx="470" cy="310" fill="none" r="4.8"/><circle cx="10" cy="330" fill="none" r="4.8"/><circle cx="30" cy="330" fill="none" r="4.8"/><circle cx="50" cy="330" fill="none" r="4.8"/><circle cx="70" cy="330" fill="none" r="4.8"/><circle cx="90" cy="330" fill="none" r="4.8"/><circle cx="110" cy="330" fill="none" r="4.8"/><circle cx="130" cy="330" fill="none" r="4.8"/><path d="m145.2 325.2h9.6v9.6h-9.6z" stroke="none"/><path d="m165.2 325.2h9.6v9.6h-9.6z" stroke="none"/><path d="m185.2 325.2h9.6v9.6h-9.6z" stroke="none"/><path d="m205.2 325.2h9.6v9.6h-9.6z" stroke="none"/><path d="m225.2 325.2h9.6v9.6h-9.6z" stroke="none"/><circle cx="250" cy="330" fill="none" r="4.8"/><circle cx="270" cy="330" fill="none" r="4.8"/><circle cx="290" cy="330" fill="none" r="4.8"/><circle cx="310" cy="330" fill="none" r="4.8"/><circle cx="330" cy="330" fill="none" r="4.8"/><circle cx="350" cy="330" fill="none" r="4.8"/><circle cx="370" cy="330" fill="none" r="4.8"/><circle cx="390" cy="330" fill="none" r="4.8"/><circle cx="410" cy="330" fill="none" r="4.8"/><circle cx="430" cy="330" fill="none" r="4.8"/><circle cx="450" cy="330" fill="none" r="4.8"/><circle cx="470" cy="330" fill="none" r="4.8"/><circle cx="10" cy="350" fill="none" r="4.8"/><circle cx="30" cy="350" fill="none" r="4.8"/><circle cx="50" cy="350" fill="none" r="4.8"/><circle cx="70" cy="350" fill="none" r="4.8"/><circle cx="90" cy="350" fill="none" r="4.8"/><circle cx="110" cy="350" fill="none" r="4.8"/><path d="m125.2 345.2h9.6v9.6h-9.6z" stroke="none"/><path d="m145.2 345.2h9.6v9.6h-9.6z" stroke="none"/><path d="m165.2 345.2h9.6v9.6h-9.6z" stroke="none"/><path d="m185.2 345.2h9.6v9.6h-9.6z" stroke="none"/><path d="m205.2 345.2h9.6v9.6h-9.6z" stroke="none"/><path d="m225.2 345.2h9.6v9.6h-9.6z" stroke="none"/><circle cx="250" cy="350" fill="none" r="4.8"/><circle cx="270" cy="350" fill="none" r="4.8"/><circle cx="290" cy="350" fill="none" r="4.8"/><circle cx="310" cy="350" fill="none" r="4.8"/><circle cx="330" cy="350" fill="none" r="4.8"/><circle cx="350" cy="350" fill="none" r="4.8"/><circle cx="370" cy="350" fill="none" r="4.8"/><circle cx="390" cy="350" fill="none" r="4.8"/><circle cx="410" cy="350" fill="none" r="4.8"/><circle cx="430" cy="350" fill="none" r="4.8"/><circle cx="450" cy="350" fill="none" r="4.8"/><circle cx="470" cy="350" fill="none" r="4.8"/><circle cx="10" cy="370" fill="none" r="4.8"/><circle cx="30" cy="370" fill="none" r="4.8"/><circle cx="50" cy="370" fill="none" r="4.8"/><circle cx="70" cy="370" fill="none" r="4.8"/><circle cx="90" cy="370" fill="none" r="4.8"/><circle cx="110" cy="370" fill="none" r="4.8"/><path d="m125.2 365.2h9.6v9.6h-9.6z" stroke="none"/><path d="m145.2 365.2h9.6v9.6h-9.6z" stroke="none"/><path d="m165.2 365.2h9.6v9.6h-9.6z" stroke="none"/><path d="m185.2 365.2h9.6v9.6h-9.6z" stroke="none"/><path d="m205.2 365.2h9.6v9.6h-9.6z" stroke="none"/><path d="m225.2 365.2h9.6v9.6h-9.6z" stroke="none"/><circle cx="250" cy="370" fill="none" r="4.8"/><circle cx="270" cy="370" fill="none" r="4.8"/><circle cx="290" cy="370" fill="none" r="4.8"/><circle cx="310" cy="370" fill="none" r="4.8"/><circle cx="330" cy="370" fill="none" r="4.8"/><circle cx="350" cy="370" fill="none" r="4.8"/><circle cx="370" cy="370" fill="none" r="4.8"/><circle cx="390" cy="370" fill="none" r="4.8"/><circle cx="410" cy="370" fill="none" r="4.8"/><circle cx="430" cy="370" fill="none" r="4.8"/><circle cx="450" cy="370" fill="none" r="4.8"/><circle cx="470" cy="370" fill="none" r="4.8"/><circle cx="10" cy="390" fill="none" r="4.8"/><circle cx="30" cy="390" fill="none" r="4.8"/><circle cx="50" cy="390" fill="none" r="4.8"/><circle cx="70" cy="390" fill="none" r="4.8"/><circle cx="90" cy="390" fill="none" r="4.8"/><circle cx="110" cy="390" fill="none" r="4.8"/><circle cx="130" cy="390" fill="none" r="4.8"/><path d="m145.2 385.2h9.6v9.6h-9.6z" stroke="none"/><path d="m165.2 385.2h9.6v9.6h-9.6z" stroke="none"/><path d="m185.2 385.2h9.6v9.6h-9.6z" stroke="none"/><path d="m205.2 385.2h9.6v9.6h-9.6z" stroke="none"/><circle cx="230" cy="390" fill="none" r="4.8"/><circle cx="250" cy="390" fill="none" r="4.8"/><circle cx="270" cy="390" fill="none" r="4.8"/><circle cx="290" cy="390" fill="none" r="4.8"/><circle cx="310" cy="390" fill="none" r="4.8"/><circle cx="330" cy="390" fill="none" r="4.8"/><circle cx="350" cy="390" fill="none" r="4.8"/><circle cx="370" cy="390" fill="none" r="4.8"/><circle cx="390" cy="390" fill="none" r="4.8"/><circle cx="410" cy="390" fill="none" r="4.8"/><circle cx="430" cy="390" fill="none" r="4.8"/><circle cx="450" cy="390" fill="none" r="4.8"/><circle cx="470" cy="390" fill="none" r="4.8"/><circle cx="10" cy="410" fill="none" r="4.8"/><circle cx="30" cy="410" fill="none" r="4.8"/><circle cx="50" cy="410" fill="none" r="4.8"/><circle cx="70" cy="410" fill="none" r="4.8"/><circle cx="90" cy="410" fill="none" r="4.8"/><circle cx="110" cy="410" fill="none" r="4.8"/><circle cx="130" cy="410" fill="none" r="4.8"/><circle cx="150" cy="410" fill="none" r="4.8"/><path d="m165.2 405.2h9.6v9.6h-9.6z" stroke="none"/><path d="m185.2 405.2h9.6v9.6h-9.6z" stroke="none"/><circle cx="210" cy="410" fill="none" r="4.8"/><circle cx="230" cy="410" fill="none" r="4.8"/><circle cx="250" cy="410" fill="none" r="4.8"/><circle cx="270" cy="410" fill="none" r="4.8"/><circle cx="290" cy="410" fill="none" r="4.8"/><circle cx="310" cy="410" fill="none" r="4.8"/><circle cx="330" cy="410" fill="none" r="4.8"/><circle cx="350" cy="410" fill="none" r="4.8"/><circle cx="370" cy="410" fill="none" r="4.8"/><circle cx="390" cy="410" fill="none" r="4.8"/><circle cx="410" cy="410" fill="none" r="4.8"/><circle cx="430" cy="410" fill="none" r="4.8"/><circle cx="450" cy="410" fill="none" r="4.8"/><circle cx="470" cy="410" fill="none" r="4.8"/><circle cx="10" cy="430" fill="none" r="4.8"/><circle cx="30" cy="430" fill="none" r="4.8"/><circle cx="50" cy="430" fill="none" r="4.8"/><circle cx="70" cy="430" fill="none" r="4.8"/><circle cx="90" cy="430" fill="none" r="4.8"/><circle cx="110" cy="430" fill="none" r="4.8"/><circle cx="130" cy="430" fill="none" r="4.8"/><circle cx="150" cy="430" fill="none" r="4.8"/><circle cx="170" cy="430" fill="none" r="4.8"/><circle cx="190" cy="430" fill="none" r="4.8"/><circle cx="210" cy="430" fill="none" r="4.8"/><circle cx="230" cy="430" fill="none" r="4.8"/><circle cx="250" cy="430" fill="none" r="4.8"/><circle cx="270" cy="430" fill="none" r="4.8"/><circle cx="290" cy="430" fill="none" r="4.8"/><circle cx="310" cy="430" fill="none" r="4.8"/><circle cx="330" cy="430" fill="none" r="4.8"/><circle cx="350" cy="430" fill="none" r="4.8"/><circle cx="370" cy="430" fill="none" r="4.8"/><circle cx="390" cy="430" fill="none" r="4.8"/><circle cx="410" cy="430" fill="none" r="4.8"/><circle cx="430" cy="430" fill="none" r="4.8"/><circle cx="450" cy="430" fill="none" r="4.8"/><circle cx="470" cy="430" fill="none" r="4.8"/><circle cx="10" cy="450" fill="none" r="4.8"/><circle cx="30" cy="450" fill="none" r="4.8"/><circle cx="50" cy="450" fill="none" r="4.8"/><circle cx="70" cy="450" fill="none" r="4.8"/><circle cx="90" cy="450" fill="none" r="4.8"/><circle cx="110" cy="450" fill="none" r="4.8"/><circle cx="130" cy="450" fill="none" r="4.8"/><circle cx="150" cy="450" fill="none" r="4.8"/><circle cx="170" cy="450" fill="none" r="4.8"/><circle cx="190" cy="450" fill="none" r="4.8"/><circle cx="210" cy="450" fill="none" r="4.8"/><circle cx="230" cy="450" fill="none" r="4.8"/><circle cx="250" cy="450" fill="none" r="4.8"/><circle cx="270" cy="450" fill="none" r="4.8"/><circle cx="290" cy="450" fill="none" r="4.8"/><circle cx="310" cy="450" fill="none" r="4.8"/><circle cx="330" cy="450" fill="none" r="4.8"/><circle cx="350" cy="450" fill="none" r="4.8"/><circle cx="370" cy="450" fill="none" r="4.8"/><circle cx="390" cy="450" fill="none" r="4.8"/><circle cx="410" cy="450" fill="none" r="4.8"/><circle cx="430" cy="450" fill="none" r="4.8"/><circle cx="450" cy="450" fill="none" r="4.8"/><circle cx="470" cy="450" fill="none" r="4.8"/><circle cx="10" cy="470" fill="none" r="4.8"/><circle cx="30" cy="470" fill="none" r="4.8"/><circle cx="50" cy="470" fill="none" r="4.8"/><circle cx="70" cy="470" fill="none" r="4.8"/><circle cx="90" cy="470" fill="none" r="4.8"/><circle cx="110" cy="470" fill="none" r="4.8"/><circle cx="130" cy="470" fill="none" r="4.8"/><circle cx="150" cy="470" fill="none" r="4.8"/><circle cx="170" cy="470" fill="none" r="4.8"/><circle cx="190" cy="470" fill="none" r="4.8"/><circle cx="210" cy="470" fill="none" r="4.8"/><circle cx="230" cy="470" fill="none" r="4.8"/><circle cx="250" cy="470" fill="none" r="4.8"/><circle cx="270" cy="470" fill="none" r="4.8"/><circle cx="290" cy="470" fill="none" r="4.8"/><circle cx="310" cy="470" fill="none" r="4.8"/><circle cx="330" cy="470" fill="none" r="4.8"/><circle cx="350" cy="470" fill="none" r="4.8"/><circle cx="370" cy="470" fill="none" r="4.8"/><circle cx="390" cy="470" fill="none" r="4.8"/><circle cx="410" cy="470" fill="none" r="4.8"/><circle cx="430" cy="470" fill="none" r="4.8"/><circle cx="450" cy="470" fill="none" r="4.8"/><circle cx="470" cy="470" fill="none" r="4.8"/><path d="m0 0v480" fill="none" stroke="#b4b4b4"/><path d="m20 0v480" fill="none" stroke="#b4b4b4" stroke-width="1"/><path d="m40 0v480" fill="none" stroke="#b4b4b4" stroke-width="1"/><path d="m60 0v480" fill="none" stroke="#b4b4b4" stroke-width="1"/><path d="m80 0v480" fill="none" stroke="#b4b4b4" stroke-width="1"/><path d="m100 0v480" fill="none" stroke="#b4b4b4" stroke-width="1"/><path d="m120 0v480" fill="none" stroke="#b4b4b4" stroke-width="1"/><path d="m140 0v480" fill="none" stroke="#b4b4b4" stroke-width="1"/><path d="m160 0v480" fill="none" stroke="#b4b4b4" stroke-width="1"/><path d="m180 0v480" fill="none" stroke="#b4b4b4" stroke-width="1"/><path d="m200 0v480" fill="none" stroke="#b4b4b4" stroke-width="1"/><path d="m220 0v480" fill="none" stroke="#b4b4b4" stroke-width="1"/><path d="m240 0v480" fill="none" stroke="#b4b4b4" stroke-width="1"/><path d="m260 0v480" fill="none" stroke="#b4b4b4" stroke-width="1"/><path d="m280 0v480" fill="none" stroke="#b4b4b4" stroke-width="1"/><path d="m300 0v480" fill="none" stroke="#b4b4b4" stroke-width="1"/><path d="m320 0v480" fill="none" stroke="#b4b4b4" stroke-width="1"/><path d="m340 0v480" fill="none" stroke="#b4b4b4" stroke-width="1"/><path d="m360 0v480" fill="none" stroke="#b4b4b4" stroke-width="1"/><path d="m380 0v480" fill="none" stroke="#b4b4b4" stroke-width="1"/><path d="m400 0v480" fill="none" stroke="#b4b4b4" stroke-width="1"/><path d="m420 0v480" fill="none" stroke="#b4b4b4" stroke-width="1"/><path d="m440 0v480" fill="none" stroke="#b4b4b4" stroke-width="1"/><path d="m460 0v480" fill="none" stroke="#b4b4b4" stroke-width="1"/><path d="m480 0v480" fill="none" stroke="#b4b4b4"/><path d="m0 0h480" fill="none" stroke="#b4b4b4"/><path d="m0 20h480" fill="none" stroke="#b4b4b4" stroke-width="1"/><path d="m0 40h480" fill="none" stroke="#b4b4b4" stroke-width="1"/><path d="m0 60h480" fill="none" stroke="#b4b4b4" stroke-width="1"/><path d="m0 80h480" fill="none" stroke="#b4b4b4" stroke-width="1"/><path d="m0 100h480" fill="none" stroke="#b4b4b4" stroke-width="1"/><path d="m0 120h480" fill="none" stroke="#b4b4b4" stroke-width="1"/><path d="m0 140h480" fill="none" stroke="#b4b4b4" stroke-width="1"/><path d="m0 160h480" fill="none" stroke="#b4b4b4" stroke-width="1"/><path d="m0 180h480" fill="none" stroke="#b4b4b4" stroke-width="1"/><path d="m0 200h480" fill="none" stroke="#b4b4b4" stroke-width="1"/><path d="m0 220h480" fill="none" stroke="#b4b4b4" stroke-width="1"/><path d="m0 240h480" fill="none" stroke="#b4b4b4" stroke-width="1"/><path d="m0 260h480" fill="none" stroke="#b4b4b4" stroke-width="1"/><path d="m0 280h480" fill="none" stroke="#b4b4b4" stroke-width="1"/><path d="m0 300h480" fill="none" stroke="#b4b4b4" stroke-width="1"/><path d="m0 320h480" fill="none" stroke="#b4b4b4" stroke-width="1"/><path d="m0 340h480" fill="none" stroke="#b4b4b4" stroke-width="1"/><path d="m0 360h480" fill="none" stroke="#b4b4b4" stroke-width="1"/><path d="m0 380h480" fill="none" stroke="#b4b4b4" stroke-width="1"/><path d="m0 400h480" fill="none" stroke="#b4b4b4" stroke-width="1"/><path d="m0 420h480" fill="none" stroke="#b4b4b4" stroke-width="1"/><path d="m0 440h480" fill="none" stroke="#b4b4b4" stroke-width="1"/><path d="m0 460h480" fill="none" stroke="#b4b4b4" stroke-width="1"/><path d="m0 480h480" fill="none" stroke="#b4b4b4"/></g></g></svg>