<svg color-interpolation="auto" height="480" stroke="#000" stroke-linecap="square" stroke-miterlimit="10" width="480" xmlns="http://www.w3.org/2000/svg"><g stroke-linecap="round" stroke-width="2"><path d="m10 3.6 6.4 6.4-6.4 6.4-6.4-6.4z" fill="none"/><g><g fill="none"><path d="m30 3.6 6.4 6.4-6.4 6.4-6.4-6.4z"/><path d="m50 3.6 6.4 6.4-6.4 6.4-6.4-6.4z"/><path d="m70 3.6 6.4 6.4-6.4 6.4-6.4-6.4z"/><path d="m90 3.6 6.4 6.4-6.4 6.4-6.4-6.4z"/><path d="m110 3.6 6.4 6.4-6.4 6.4-6.4-6.4z"/><path d="m130 3.6 6.4 6.4-6.4 6.4-6.4-6.4z"/><path d="m150 3.6 6.4 6.4-6.4 6.4-6.4-6.4z"/><path d="m170 3.6 6.4 6.4-6.4 6.4-6.4-6.4z"/><path d="m190 3.6 6.4 6.4-6.4 6.4-6.4-6.4z"/><path d="m210 3.6 6.4 6.4-6.4 6.4-6.4-6.4z"/><path d="m230 3.6 6.4 6.4-6.4 6.4-6.4-6.4z"/><path d="m250 3.6 6.4 6.4-6.4 6.4-6.4-6.4z"/><path d="m270 3.6 6.4 6.4-6.4 6.4-6.4-6.4z"/><path d="m290 3.6 6.4 6.4-6.4 6.4-6.4-6.4z"/><path d="m310 3.6 6.4 6.4-6.4 6.4-6.4-6.4z"/><path d="m330 3.6 6.4 6.4-6.4 6.4-6.4-6.4z"/><path d="m350 3.6 6.4 6.4-6.4 6.4-6.4-6.4z"/><path d="m370 3.6 6.4 6.4-6.4 6.4-6.4-6.4z"/><path d="m390 3.6 6.4 6.4-6.4 6.4-6.4-6.4z"/><path d="m410 3.6 6.4 6.4-6.4 6.4-6.4-6.4z"/><path d="m430 3.6 6.4 6.4-6.4 6.4-6.4-6.4z"/><path d="m450 3.6 6.4 6.4-6.4 6.4-6.4-6.4z"/><path d="m470 3.6 6.4 6.4-6.4 6.4-6.4-6.4z"/><path d="m10 23.6 6.4 6.4-6.4 6.4-6.4-6.4z"/><path d="m30 23.6 6.4 6.4-6.4 6.4-6.4-6.4z"/><path d="m50 23.6 6.4 6.4-6.4 6.4-6.4-6.4z"/><path d="m70 23.6 6.4 6.4-6.4 6.4-6.4-6.4z"/><path d="m90 23.6 6.4 6.4-6.4 6.4-6.4-6.4z"/><path d="m110 23.6 6.4 6.4-6.4 6.4-6.4-6.4z"/><path d="m130 23.6 6.4 6.4-6.4 6.4-6.4-6.4z"/><path d="m150 23.6 6.4 6.4-6.4 6.4-6.4-6.4z"/><path d="m170 23.6 6.4 6.4-6.4 6.4-6.4-6.4z"/><path d="m190 23.6 6.4 6.4-6.4 6.4-6.4-6.4z"/><path d="m210 23.6 6.4 6.4-6.4 6.4-6.4-6.4z"/><path d="m230 23.6 6.4 6.4-6.4 6.4-6.4-6.4z"/><path d="m250 23.6 6.4 6.4-6.4 6.4-6.4-6.4z"/><path d="m270 23.6 6.4 6.4-6.4 6.4-6.4-6.4z"/><path d="m290 23.6 6.4 6.4-6.4 6.4-6.4-6.4z"/><path d="m310 23.6 6.4 6.4-6.4 6.4-6.4-6.4z"/><path d="m330 23.6 6.4 6.4-6.4 6.4-6.4-6.4z"/><path d="m350 23.6 6.4 6.4-6.4 6.4-6.4-6.4z"/><path d="m370 23.6 6.4 6.4-6.4 6.4-6.4-6.4z"/><path d="m390 23.6 6.4 6.4-6.4 6.4-6.4-6.4z"/><path d="m410 23.6 6.4 6.4-6.4 6.4-6.4-6.4z"/><path d="m430 23.6 6.4 6.4-6.4 6.4-6.4-6.4z"/><path d="m450 23.6 6.4 6.4-6.4 6.4-6.4-6.4z"/><path d="m470 23.6 6.4 6.4-6.4 6.4-6.4-6.4z"/><path d="m10 43.6 6.4 6.4-6.4 6.4-6.4-6.4z"/><path d="m30 43.6 6.4 6.4-6.4 6.4-6.4-6.4z"/><path d="m50 43.6 6.4 6.4-6.4 6.4-6.4-6.4z"/><path d="m70 43.6 6.4 6.4-6.4 6.4-6.4-6.4z"/><path d="m90 43.6 6.4 6.4-6.4 6.4-6.4-6.4z"/><path d="m110 43.6 6.4 6.4-6.4 6.4-6.4-6.4z"/><path d="m130 43.6 6.4 6.4-6.4 6.4-6.4-6.4z"/><path d="m150 43.6 6.4 6.4-6.4 6.4-6.4-6.4z"/><path d="m170 43.6 6.4 6.4-6.4 6.4-6.4-6.4z"/><path d="m190 43.6 6.4 6.4-6.4 6.4-6.4-6.4z"/><path d="m210 43.6 6.4 6.4-6.4 6.4-6.4-6.4z"/><path d="m230 43.6 6.4 6.4-6.4 6.4-6.4-6.4z"/><path d="m250 43.6 6.4 6.4-6.4 6.4-6.4-6.4z"/><path d="m270 43.6 6.4 6.4-6.4 6.4-6.4-6.4z"/><path d="m290 43.6 6.4 6.4-6.4 6.4-6.4-6.4z"/><path d="m310 43.6 6.4 6.4-6.4 6.4-6.4-6.4z"/><path d="m330 43.6 6.4 6.4-6.4 6.4-6.4-6.4z"/><path d="m350 43.6 6.4 6.4-6.4 6.4-6.4-6.4z"/><path d="m370 43.6 6.4 6.4-6.4 6.4-6.4-6.4z"/><path d="m390 43.6 6.4 6.4-6.4 6.4-6.4-6.4z"/><path d="m410 43.6 6.4 6.4-6.4 6.4-6.4-6.4z"/><path d="m430 43.6 6.4 6.4-6.4 6.4-6.4-6.4z"/><path d="m450 43.6 6.4 6.4-6.4 6.4-6.4-6.4z"/><path d="m470 43.6 6.4 6.4-6.4 6.4-6.4-6.4z"/><path d="m10 63.6 6.4 6.4-6.4 6.4-6.4-6.4z"/><path d="m30 63.6 6.4 6.4-6.4 6.4-6.4-6.4z"/><path d="m50 63.6 6.4 6.4-6.4 6.4-6.4-6.4z"/><path d="m70 63.6 6.4 6.4-6.4 6.4-6.4-6.4z"/><path d="m90 63.6 6.4 6.4-6.4 6.4-6.4-6.4z"/><path d="m110 63.6 6.4 6.4-6.4 6.4-6.4-6.4z"/><path d="m130 63.6 6.4 6.4-6.4 6.4-6.4-6.4z"/><path d="m150 63.6 6.4 6.4-6.4 6.4-6.4-6.4z"/><path d="m170 64.2099-6.4 11.0851h12.8z"/><path d="m190 64.2099-6.4 11.0851h12.8z"/><path d="m210 64.2099-6.4 11.0851h12.8z"/><path d="m230 64.2099-6.4 11.0851h12.8z"/><path d="m243.6 63.6h12.8v12.8h-12.8z"/><path d="m263.6 63.6h12.8v12.8h-12.8z"/><path d="m283.6 63.6h12.8v12.8h-12.8z"/><path d="m303.6 63.6h12.8v12.8h-12.8z"/><path d="m330 63.6 6.4 6.4-6.4 6.4-6.4-6.4z"/><path d="m350 63.6 6.4 6.4-6.4 6.4-6.4-6.4z"/><path d="m370 63.6 6.4 6.4-6.4 6.4-6.4-6.4z"/><path d="m390 63.6 6.4 6.4-6.4 6.4-6.4-6.4z"/><path d="m410 63.6 6.4 6.4-6.4 6.4-6.4-6.4z"/><path d="m430 63.6 6.4 6.4-6.4 6.4-6.4-6.4z"/><path d="m450 63.6 6.4 6.4-6.4 6.4-6.4-6.4z"/><path d="m470 63.6 6.4 6.4-6.4 6.4-6.4-6.4z"/><path d="m10 83.6 6.4 6.4-6.4 6.4-6.4-6.4z"/><path d="m30 83.6 6.4 6.4-6.4 6.4-6.4-6.4z"/><path d="m50 83.6 6.4 6.4-6.4 6.4-6.4-6.4z"/><path d="m70 83.6 6.4 6.4-6.4 6.4-6.4-6.4z"/><path d="m90 83.6 6.4 6.4-6.4 6.4-6.4-6.4z"/><path d="m110 83.6 6.4 6.4-6.4 6.4-6.4-6.4z"/><path d="m130 83.6 6.4 6.4-6.4 6.4-6.4-6.4z"/><path d="m150 84.2099-6.4 11.0851h12.8z"/><path d="m170 84.2099-6.4 11.0851h12.8z"/><path d="m190 84.2099-6.4 11.0851h12.8z"/><path d="m210 84.2099-6.4 11.0851h12.8z"/><path d="m230 84.2099-6.4 11.0851h12.8z"/><path d="m243.6 83.6h12.8v12.8h-12.8z"/><path d="m263.6 83.6h12.8v12.8h-12.8z"/><path d="m283.6 83.6h12.8v12.8h-12.8z"/><path d="m303.6 83.6h12.8v12.8h-12.8z"/><path d="m323.6 83.6h12.8v12.8h-12.8z"/><path d="m350 83.6 6.4 6.4-6.4 6.4-6.4-6.4z"/><path d="m370 83.6 6.4 6.4-6.4 6.4-6.4-6.4z"/><path d="m390 83.6 6.4 6.4-6.4 6.4-6.4-6.4z"/><path d="m410 83.6 6.4 6.4-6.4 6.4-6.4-6.4z"/><path d="m430 83.6 6.4 6.4-6.4 6.4-6.4-6.4z"/><path d="m450 83.6 6.4 6.4-6.4 6.4-6.4-6.4z"/><path d="m470 83.6 6.4 6.4-6.4 6.4-6.4-6.4z"/><path d="m10 103.6 6.4 6.4-6.4 6.4-6.4-6.4z"/><path d="m30 103.6 6.4 6.4-6.4 6.4-6.4-6.4z"/><path d="m50 103.6 6.4 6.4-6.4 6.4-6.4-6.4z"/><path d="m70 103.6 6.4 6.4-6.4 6.4-6.4-6.4z"/><path d="m90 103.6 6.4 6.4-6.4 6.4-6.4-6.4z"/><path d="m110 103.6 6.4 6.4-6.4 6.4-6.4-6.4z"/><path d="m130 104.2099-6.4 11.0851h12.8z"/><path d="m150 104.2099-6.4 11.0851h12.8z"/><path d="m170 104.2099-6.4 11.0851h12.8z"/><path d="m190 104.2099-6.4 11.0851h12.8z"/><path d="m210 104.2099-6.4 11.0851h12.8z"/><path d="m230 104.2099-6.4 11.0851h12.8z"/><path d="m243.6 103.6h12.8v12.8h-12.8z"/><path d="m263.6 103.6h12.8v12.8h-12.8z"/><path d="m283.6 103.6h12.8v12.8h-12.8z"/><path d="m303.6 103.6h12.8v12.8h-12.8z"/><path d="m323.6 103.6h12.8v12.8h-12.8z"/><path d="m343.6 103.6h12.8v12.8h-12.8z"/><path d="m370 103.6 6.4 6.4-6.4 6.4-6.4-6.4z"/><path d="m390 103.6 6.4 6.4-6.4 6.4-6.4-6.4z"/><path d="m410 103.6 6.4 6.4-6.4 6.4-6.4-6.4z"/><path d="m430 103.6 6.4 6.4-6.4 6.4-6.4-6.4z"/><path d="m450 103.6 6.4 6.4-6.4 6.4-6.4-6.4z"/><path d="m470 103.6 6.4 6.4-6.4 6.4-6.4-6.4z"/><path d="m10 123.6 6.4 6.4-6.4 6.4-6.4-6.4z"/><path d="m30 123.6 6.4 6.4-6.4 6.4-6.4-6.4z"/><path d="m50 123.6 6.4 6.4-6.4 6.4-6.4-6.4z"/><path d="m70 123.6 6.4 6.4-6.4 6.4-6.4-6.4z"/><path d="m90 123.6 6.4 6.4-6.4 6.4-6.4-6.4z"/><path d="m110 123.6 6.4 6.4-6.4 6.4-6.4-6.4z"/><path d="m130 124.2099-6.4 11.0851h12.8z"/><path d="m150 124.2099-6.4 11.0851h12.8z"/><path d="m170 124.2099-6.4 11.0851h12.8z"/><path d="m190 124.2099-6.4 11.0851h12.8z"/><path d="m210 124.2099-6.4 11.0851h12.8z"/><path d="m230 124.2099-6.4 11.0851h12.8z"/><path d="m243.6 123.6h12.8v12.8h-12.8z"/><path d="m263.6 123.6h12.8v12.8h-12.8z"/><path d="m283.6 123.6h12.8v12.8h-12.8z"/><path d="m303.6 123.6h12.8v12.8h-12.8z"/><path d="m323.6 123.6h12.8v12.8h-12.8z"/><path d="m343.6 123.6h12.8v12.8h-12.8z"/><path d="m370 123.6 6.4 6.4-6.4 6.4-6.4-6.4z"/><path d="m390 123.6 6.4 6.4-6.4 6.4-6.4-6.4z"/><path d="m410 123.6 6.4 6.4-6.4 6.4-6.4-6.4z"/><path d="m430 123.6 6.4 6.4-6.4 6.4-6.4-6.4z"/><path d="m450 123.6 6.4 6.4-6.4 6.4-6.4-6.4z"/><path d="m470 123.6 6.4 6.4-6.4 6.4-6.4-6.4z"/><path d="m10 143.6 6.4 6.4-6.4 6.4-6.4-6.4z"/><path d="m30 143.6 6.4 6.4-6.4 6.4-6.4-6.4z"/><path d="m50 143.6 6.4 6.4-6.4 6.4-6.4-6.4z"/><path d="m70 143.6 6.4 6.4-6.4 6.4-6.4-6.4z"/><path d="m90 143.6 6.4 6.4-6.4 6.4-6.4-6.4z"/><path d="m110 143.6 6.4 6.4-6.4 6.4-6.4-6.4z"/><path d="m130 143.6 6.4 6.4-6.4 6.4-6.4-6.4z"/><path d="m150 144.2099-6.4 11.0851h12.8z"/><path d="m170 144.2099-6.4 11.0851h12.8z"/><path d="m190 144.2099-6.4 11.0851h12.8z"/><path d="m210 144.2099-6.4 11.0851h12.8z"/><path d="m230 144.2099-6.4 11.0851h12.8z"/><path d="m243.6 143.6h12.8v12.8h-12.8z"/><path d="m263.6 143.6h12.8v12.8h-12.8z"/><path d="m283.6 143.6h12.8v12.8h-12.8z"/><path d="m303.6 143.6h12.8v12.8h-12.8z"/><path d="m323.6 143.6h12.8v12.8h-12.8z"/><path d="m350 143.6 6.4 6.4-6.4 6.4-6.4-6.4z"/><path d="m370 143.6 6.4 6.4-6.4 6.4-6.4-6.4z"/><path d="m390 143.6 6.4 6.4-6.4 6.4-6.4-6.4z"/><path d="m410 143.6 6.4 6.4-6.4 6.4-6.4-6.4z"/><path d="m430 143.6 6.4 6.4-6.4 6.4-6.4-6.4z"/><path d="m450 143.6 6.4 6.4-6.4 6.4-6.4-6.4z"/><path d="m470 143.6 6.4 6.4-6.4 6.4-6.4-6.4z"/><path d="m10 163.6 6.4 6.4-6.4 6.4-6.4-6.4z"/><path d="m30 163.6 6.4 6.4-6.4 6.4-6.4-6.4z"/><path d="m50 163.6 6.4 6.4-6.4 6.4-6.4-6.4z"/><path d="m70 163.6 6.4 6.4-6.4 6.4-6.4-6.4z"/><path d="m90 163.6 6.4 6.4-6.4 6.4-6.4-6.4z"/><path d="m110 163.6 6.4 6.4-6.4 6.4-6.4-6.4z"/><path d="m130 163.6 6.4 6.4-6.4 6.4-6.4-6.4z"/><path d="m150 163.6 6.4 6.4-6.4 6.4-6.4-6.4z"/><path d="m170 164.2099-6.4 11.0851h12.8z"/><path d="m190 164.2099-6.4 11.0851h12.8z"/><path d="m210 164.2099-6.4 11.0851h12.8z"/><path d="m230 164.2099-6.4 11.0851h12.8z"/><path d="m243.6 163.6h12.8v12.8h-12.8z"/><path d="m263.6 163.6h12.8v12.8h-12.8z"/><path d="m283.6 163.6h12.8v12.8h-12.8z"/><path d="m303.6 163.6h12.8v12.8h-12.8z"/><path d="m330 163.6 6.4 6.4-6.4 6.4-6.4-6.4z"/><path d="m350 163.6 6.4 6.4-6.4 6.4-6.4-6.4z"/><path d="m370 163.6 6.4 6.4-6.4 6.4-6.4-6.4z"/><path d="m390 163.6 6.4 6.4-6.4 6.4-6.4-6.4z"/><path d="m410 163.6 6.4 6.4-6.4 6.4-6.4-6.4z"/><path d="m430 163.6 6.4 6.4-6.4 6.4-6.4-6.4z"/><path d="m450 163.6 6.4 6.4-6.4 6.4-6.4-6.4z"/><path d="m470 163.6 6.4 6.4-6.4 6.4-6.4-6.4z"/><path d="m10 183.6 6.4 6.4-6.4 6.4-6.4-6.4z"/><path d="m30 183.6 6.4 6.4-6.4 6.4-6.4-6.4z"/><path d="m50 183.6 6.4 6.4-6.4 6.4-6.4-6.4z"/><path d="m70 183.6 6.4 6.4-6.4 6.4-6.4-6.4z"/><path d="m90 183.6 6.4 6.4-6.4 6.4-6.4-6.4z"/><path d="m110 183.6 6.4 6.4-6.4 6.4-6.4-6.4z"/><path d="m130 183.6 6.4 6.4-6.4 6.4-6.4-6.4z"/><path d="m150 183.6 6.4 6.4-6.4 6.4-6.4-6.4z"/><path d="m163.6 183.6 12.8 12.8"/><path d="m163.6 196.4 12.8-12.8"/><path d="m183.6 183.6 12.8 12.8"/><path d="m183.6 196.4 12.8-12.8"/><path d="m203.6 183.6 12.8 12.8"/><path d="m203.6 196.4 12.8-12.8"/><path d="m223.6 183.6 12.8 12.8"/><path d="m223.6 196.4 12.8-12.8"/><path d="m250 183.6 6.4 6.4-6.4 6.4-6.4-6.4z"/><path d="m270 183.6 6.4 6.4-6.4 6.4-6.4-6.4z"/></g><path d="m290 183.6 1.8809 3.8111 4.2059.6112-3.0434 2.9666.7184 4.1888-3.7618-1.9777-3.7618 1.9777.7184-4.1888-3.0434-2.9666 4.2059-.6112z" stroke="none"/><path d="m310 183.6 1.8809 3.8111 4.2059.6112-3.0434 2.9666.7184 4.1888-3.7618-1.9777-3.7618 1.9777.7184-4.1888-3.0434-2.9666 4.2059-.6112z" stroke="none"/><path d="m330 183.6 6.4 6.4-6.4 6.4-6.4-6.4z" fill="none"/><path d="m350 183.6 6.4 6.4-6.4 6.4-6.4-6.4z" fill="none"/><path d="m370 183.6 6.4 6.4-6.4 6.4-6.4-6.4z" fill="none"/><path d="m390 183.6 6.4 6.4-6.4 6.4-6.4-6.4z" fill="none"/><path d="m410 183.6 6.4 6.4-6.4 6.4-6.4-6.4z" fill="none"/><path d="m430 183.6 6.4 6.4-6.4 6.4-6.4-6.4z" fill="none"/><path d="m450 183.6 6.4 6.4-6.4 6.4-6.4-6.4z" fill="none"/><path d="m470 183.6 6.4 6.4-6.4 6.4-6.4-6.4z" fill="none"/><path d="m10 203.6 6.4 6.4-6.4 6.4-6.4-6.4z" fill="none"/><path d="m30 203.6 6.4 6.4-6.4 6.4-6.4-6.4z" fill="none"/><path d="m50 203.6 6.4 6.4-6.4 6.4-6.4-6.4z" fill="none"/><path d="m70 203.6 6.4 6.4-6.4 6.4-6.4-6.4z" fill="none"/><path d="m90 203.6 6.4 6.4-6.4 6.4-6.4-6.4z" fill="none"/><path d="m110 203.6 6.4 6.4-6.4 6.4-6.4-6.4z" fill="none"/><path d="m130 203.6 6.4 6.4-6.4 6.4-6.4-6.4z" fill="none"/><path d="m143.6 203.6 12.8 12.8" fill="none"/><path d="m143.6 216.4 12.8-12.8" fill="none"/><path d="m163.6 203.6 12.8 12.8" fill="none"/><path d="m163.6 216.4 12.8-12.8" fill="none"/><path d="m183.6 203.6 12.8 12.8" fill="none"/><path d="m183.6 216.4 12.8-12.8" fill="none"/><path d="m203.6 203.6 12.8 12.8" fill="none"/><path d="m203.6 216.4 12.8-12.8" fill="none"/><path d="m223.6 203.6 12.8 12.8" fill="none"/><path d="m223.6 216.4 12.8-12.8" fill="none"/><path d="m250 203.6 6.4 6.4-6.4 6.4-6.4-6.4z" fill="none"/><path d="m270 203.6 1.8809 3.8111 4.2059.6112-3.0434 2.9666.7184 4.1888-3.7618-1.9777-3.7618 1.9777.7184-4.1888-3.0434-2.9666 4.2059-.6112z" stroke="none"/><path d="m290 203.6 1.8809 3.8111 4.2059.6112-3.0434 2.9666.7184 4.1888-3.7618-1.9777-3.7618 1.9777.7184-4.1888-3.0434-2.9666 4.2059-.6112z" stroke="none"/><path d="m310 203.6 1.8809 3.8111 4.2059.6112-3.0434 2.9666.7184 4.1888-3.7618-1.9777-3.7618 1.9777.7184-4.1888-3.0434-2.9666 4.2059-.6112z" stroke="none"/><path d="m330 203.6 1.8809 3.8111 4.2059.6112-3.0434 2.9666.7184 4.1888-3.7618-1.9777-3.7618 1.9777.7184-4.1888-3.0434-2.9666 4.2059-.6112z" stroke="none"/><path d="m350 203.6 6.4 6.4-6.4 6.4-6.4-6.4z" fill="none"/><path d="m370 203.6 6.4 6.4-6.4 6.4-6.4-6.4z" fill="none"/><path d="m390 203.6 6.4 6.4-6.4 6.4-6.4-6.4z" fill="none"/><path d="m410 203.6 6.4 6.4-6.4 6.4-6.4-6.4z" fill="none"/><path d="m430 203.6 6.4 6.4-6.4 6.4-6.4-6.4z" fill="none"/><path d="m450 203.6 6.4 6.4-6.4 6.4-6.4-6.4z" fill="none"/><path d="m470 203.6 6.4 6.4-6.4 6.4-6.4-6.4z" fill="none"/><path d="m10 223.6 6.4 6.4-6.4 6.4-6.4-6.4z" fill="none"/><path d="m30 223.6 6.4 6.4-6.4 6.4-6.4-6.4z" fill="none"/><path d="m50 223.6 6.4 6.4-6.4 6.4-6.4-6.4z" fill="none"/><path d="m70 223.6 6.4 6.4-6.4 6.4-6.4-6.4z" fill="none"/><path d="m90 223.6 6.4 6.4-6.4 6.4-6.4-6.4z" fill="none"/><path d="m110 223.6 6.4 6.4-6.4 6.4-6.4-6.4z" fill="none"/><path d="m123.6 223.6 12.8 12.8" fill="none"/><path d="m123.6 236.4 12.8-12.8" fill="none"/><path d="m143.6 223.6 12.8 12.8" fill="none"/><path d="m143.6 236.4 12.8-12.8" fill="none"/><path d="m163.6 223.6 12.8 12.8" fill="none"/><path d="m163.6 236.4 12.8-12.8" fill="none"/><path d="m183.6 223.6 12.8 12.8" fill="none"/><path d="m183.6 236.4 12.8-12.8" fill="none"/><path d="m203.6 223.6 12.8 12.8" fill="none"/><path d="m203.6 236.4 12.8-12.8" fill="none"/><path d="m223.6 223.6 12.8 12.8" fill="none"/><path d="m223.6 236.4 12.8-12.8" fill="none"/><path d="m250 223.6 1.8809 3.8111 4.2059.6112-3.0434 2.9666.7184 4.1888-3.7618-1.9777-3.7618 1.9777.7184-4.1888-3.0434-2.9666 4.2059-.6112z" stroke="none"/><path d="m270 223.6 1.8809 3.8111 4.2059.6112-3.0434 2.9666.7184 4.1888-3.7618-1.9777-3.7618 1.9777.7184-4.1888-3.0434-2.9666 4.2059-.6112z" stroke="none"/><path d="m290 223.6 1.8809 3.8111 4.2059.6112-3.0434 2.9666.7184 4.1888-3.7618-1.9777-3.7618 1.9777.7184-4.1888-3.0434-2.9666 4.2059-.6112z" stroke="none"/><path d="m310 223.6 1.8809 3.8111 4.2059.6112-3.0434 2.9666.7184 4.1888-3.7618-1.9777-3.7618 1.9777.7184-4.1888-3.0434-2.9666 4.2059-.6112z" stroke="none"/><path d="m330 223.6 1.8809 3.8111 4.2059.6112-3.0434 2.9666.7184 4.1888-3.7618-1.9777-3.7618 1.9777.7184-4.1888-3.0434-2.9666 4.2059-.6112z" stroke="none"/><path d="m350 223.6 1.8809 3.8111 4.2059.6112-3.0434 2.9666.7184 4.1888-3.7618-1.9777-3.7618 1.9777.7184-4.1888-3.0434-2.9666 4.2059-.6112z" stroke="none"/><path d="m370 223.6 6.4 6.4-6.4 6.4-6.4-6.4z" fill="none"/><path d="m390 223.6 6.4 6.4-6.4 6.4-6.4-6.4z" fill="none"/><path d="m410 223.6 6.4 6.4-6.4 6.4-6.4-6.4z" fill="none"/><path d="m430 223.6 6.4 6.4-6.4 6.4-6.4-6.4z" fill="none"/><path d="m450 223.6 6.4 6.4-6.4 6.4-6.4-6.4z" fill="none"/><path d="m470 223.6 6.4 6.4-6.4 6.4-6.4-6.4z" fill="none"/><path d="m10 243.6 6.4 6.4-6.4 6.4-6.4-6.4z" fill="none"/><path d="m30 243.6 6.4 6.4-6.4 6.4-6.4-6.4z" fill="none"/><path d="m50 243.6 6.4 6.4-6.4 6.4-6.4-6.4z" fill="none"/><path d="m70 243.6 6.4 6.4-6.4 6.4-6.4-6.4z" fill="none"/><path d="m90 243.6 6.4 6.4-6.4 6.4-6.4-6.4z" fill="none"/><path d="m110 243.6 6.4 6.4-6.4 6.4-6.4-6.4z" fill="none"/><path d="m123.6 243.6 12.8 12.8" fill="none"/><path d="m123.6 256.4 12.8-12.8" fill="none"/><path d="m143.6 243.6 12.8 12.8" fill="none"/><path d="m143.6 256.4 12.8-12.8" fill="none"/><path d="m163.6 243.6 12.8 12.8" fill="none"/><path d="m163.6 256.4 12.8-12.8" fill="none"/><path d="m183.6 243.6 12.8 12.8" fill="none"/><path d="m183.6 256.4 12.8-12.8" fill="none"/><path d="m203.6 243.6 12.8 12.8" fill="none"/><path d="m203.6 256.4 12.8-12.8" fill="none"/><path d="m223.6 243.6 12.8 12.8" fill="none"/><path d="m223.6 256.4 12.8-12.8" fill="none"/><path d="m250 243.6 1.8809 3.8111 4.2059.6112-3.0434 2.9666.7184 4.1888-3.7618-1.9777-3.7618 1.9777.7184-4.1888-3.0434-2.9666 4.2059-.6112z" stroke="none"/><path d="m270 243.6 1.8809 3.8111 4.2059.6112-3.0434 2.9666.7184 4.1888-3.7618-1.9777-3.7618 1.9777.7184-4.1888-3.0434-2.9666 4.2059-.6112z" stroke="none"/><path d="m290 243.6 1.8809 3.8111 4.2059.6112-3.0434 2.9666.7184 4.1888-3.7618-1.9777-3.7618 1.9777.7184-4.1888-3.0434-2.9666 4.2059-.6112z" stroke="none"/><path d="m310 243.6 1.8809 3.8111 4.2059.6112-3.0434 2.9666.7184 4.1888-3.7618-1.9777-3.7618 1.9777.7184-4.1888-3.0434-2.9666 4.2059-.6112z" stroke="none"/><path d="m330 243.6 1.8809 3.8111 4.2059.6112-3.0434 2.9666.7184 4.1888-3.7618-1.9777-3.7618 1.9777.7184-4.1888-3.0434-2.9666 4.2059-.6112z" stroke="none"/><path d="m350 243.6 1.8809 3.8111 4.2059.6112-3.0434 2.9666.7184 4.1888-3.7618-1.9777-3.7618 1.9777.7184-4.1888-3.0434-2.9666 4.2059-.6112z" stroke="none"/><path d="m370 243.6 6.4 6.4-6.4 6.4-6.4-6.4z" fill="none"/><path d="m390 243.6 6.4 6.4-6.4 6.4-6.4-6.4z" fill="none"/><path d="m410 243.6 6.4 6.4-6.4 6.4-6.4-6.4z" fill="none"/><path d="m430 243.6 6.4 6.4-6.4 6.4-6.4-6.4z" fill="none"/><path d="m450 243.6 6.4 6.4-6.4 6.4-6.4-6.4z" fill="none"/><path d="m470 243.6 6.4 6.4-6.4 6.4-6.4-6.4z" fill="none"/><path d="m10 263.6 6.4 6.4-6.4 6.4-6.4-6.4z" fill="none"/><path d="m30 263.6 6.4 6.4-6.4 6.4-6.4-6.4z" fill="none"/><path d="m50 263.6 6.4 6.4-6.4 6.4-6.4-6.4z" fill="none"/><path d="m70 263.6 6.4 6.4-6.4 6.4-6.4-6.4z" fill="none"/><path d="m90 263.6 6.4 6.4-6.4 6.4-6.4-6.4z" fill="none"/><path d="m110 263.6 6.4 6.4-6.4 6.4-6.4-6.4z" fill="none"/><path d="m130 263.6 6.4 6.4-6.4 6.4-6.4-6.4z" fill="none"/><path d="m143.6 263.6 12.8 12.8" fill="none"/><path d="m143.6 276.4 12.8-12.8" fill="none"/><path d="m163.6 263.6 12.8 12.8" fill="none"/><path d="m163.6 276.4 12.8-12.8" fill="none"/><path d="m183.6 263.6 12.8 12.8" fill="none"/><path d="m183.6 276.4 12.8-12.8" fill="none"/><path d="m203.6 263.6 12.8 12.8" fill="none"/><path d="m203.6 276.4 12.8-12.8" fill="none"/><path d="m223.6 263.6 12.8 12.8" fill="none"/><path d="m223.6 276.4 12.8-12.8" fill="none"/><path d="m250 263.6 6.4 6.4-6.4 6.4-6.4-6.4z" fill="none"/><path d="m270 263.6 1.8809 3.8111 4.2059.6112-3.0434 2.9666.7184 4.1888-3.7618-1.9777-3.7618 1.9777.7184-4.1888-3.0434-2.9666 4.2059-.6112z" stroke="none"/><path d="m290 263.6 1.8809 3.8111 4.2059.6112-3.0434 2.9666.7184 4.1888-3.7618-1.9777-3.7618 1.9777.7184-4.1888-3.0434-2.9666 4.2059-.6112z" stroke="none"/><path d="m310 263.6 1.8809 3.8111 4.2059.6112-3.0434 2.9666.7184 4.1888-3.7618-1.9777-3.7618 1.9777.7184-4.1888-3.0434-2.9666 4.2059-.6112z" stroke="none"/><path d="m330 263.6 1.8809 3.8111 4.2059.6112-3.0434 2.9666.7184 4.1888-3.7618-1.9777-3.7618 1.9777.7184-4.1888-3.0434-2.9666 4.2059-.6112z" stroke="none"/><path d="m350 263.6 6.4 6.4-6.4 6.4-6.4-6.4z" fill="none"/><path d="m370 263.6 6.4 6.4-6.4 6.4-6.4-6.4z" fill="none"/><path d="m390 263.6 6.4 6.4-6.4 6.4-6.4-6.4z" fill="none"/><path d="m410 263.6 6.4 6.4-6.4 6.4-6.4-6.4z" fill="none"/><path d="m430 263.6 6.4 6.4-6.4 6.4-6.4-6.4z" fill="none"/><path d="m450 263.6 6.4 6.4-6.4 6.4-6.4-6.4z" fill="none"/><path d="m470 263.6 6.4 6.4-6.4 6.4-6.4-6.4z" fill="none"/><path d="m10 283.6 6.4 6.4-6.4 6.4-6.4-6.4z" fill="none"/><path d="m30 283.6 6.4 6.4-6.4 6.4-6.4-6.4z" fill="none"/><path d="m50 283.6 6.4 6.4-6.4 6.4-6.4-6.4z" fill="none"/><path d="m70 283.6 6.4 6.4-6.4 6.4-6.4-6.4z" fill="none"/><path d="m90 283.6 6.4 6.4-6.4 6.4-6.4-6.4z" fill="none"/><path d="m110 283.6 6.4 6.4-6.4 6.4-6.4-6.4z" fill="none"/><path d="m130 283.6 6.4 6.4-6.4 6.4-6.4-6.4z" fill="none"/><path d="m150 283.6 6.4 6.4-6.4 6.4-6.4-6.4z" fill="none"/><path d="m163.6 283.6 12.8 12.8" fill="none"/><path d="m163.6 296.4 12.8-12.8" fill="none"/><path d="m183.6 283.6 12.8 12.8" fill="none"/><path d="m183.6 296.4 12.8-12.8" fill="none"/><path d="m203.6 283.6 12.8 12.8" fill="none"/><path d="m203.6 296.4 12.8-12.8" fill="none"/><path d="m223.6 283.6 12.8 12.8" fill="none"/><path d="m223.6 296.4 12.8-12.8" fill="none"/><path d="m250 283.6 6.4 6.4-6.4 6.4-6.4-6.4z" fill="none"/><path d="m270 283.6 6.4 6.4-6.4 6.4-6.4-6.4z" fill="none"/><path d="m290 283.6 1.8809 3.8111 4.2059.6112-3.0434 2.9666.7184 4.1888-3.7618-1.9777-3.7618 1.9777.7184-4.1888-3.0434-2.9666 4.2059-.6112z" stroke="none"/><path d="m310 283.6 1.8809 3.8111 4.2059.6112-3.0434 2.9666.7184 4.1888-3.7618-1.9777-3.7618 1.9777.7184-4.1888-3.0434-2.9666 4.2059-.6112z" stroke="none"/><path d="m330 283.6 6.4 6.4-6.4 6.4-6.4-6.4z" fill="none"/><path d="m350 283.6 6.4 6.4-6.4 6.4-6.4-6.4z" fill="none"/><path d="m370 283.6 6.4 6.4-6.4 6.4-6.4-6.4z" fill="none"/><path d="m390 283.6 6.4 6.4-6.4 6.4-6.4-6.4z" fill="none"/><path d="m410 283.6 6.4 6.4-6.4 6.4-6.4-6.4z" fill="none"/><path d="m430 283.6 6.4 6.4-6.4 6.4-6.4-6.4z" fill="none"/><path d="m450 283.6 6.4 6.4-6.4 6.4-6.4-6.4z" fill="none"/><path d="m470 283.6 6.4 6.4-6.4 6.4-6.4-6.4z" fill="none"/><path d="m10 303.6 6.4 6.4-6.4 6.4-6.4-6.4z" fill="none"/><path d="m30 303.6 6.4 6.4-6.4 6.4-6.4-6.4z" fill="none"/><path d="m50 303.6 6.4 6.4-6.4 6.4-6.4-6.4z" fill="none"/><path d="m70 303.6 6.4 6.4-6.4 6.4-6.4-6.4z" fill="none"/><path d="m90 303.6 6.4 6.4-6.4 6.4-6.4-6.4z" fill="none"/><path d="m110 303.6 6.4 6.4-6.4 6.4-6.4-6.4z" fill="none"/><path d="m130 303.6 6.4 6.4-6.4 6.4-6.4-6.4z" fill="none"/><path d="m150 303.6 6.4 6.4-6.4 6.4-6.4-6.4z" fill="none"/><path d="m163.6 303.6h12.8v12.8h-12.8z" stroke="none"/><path d="m183.6 303.6h12.8v12.8h-12.8z" stroke="none"/><path d="m203.6 303.6h12.8v12.8h-12.8z" stroke="none"/><path d="m223.6 303.6h12.8v12.8h-12.8z" stroke="none"/><path d="m250 303.6 6.4 6.4-6.4 6.4-6.4-6.4z" fill="none"/><path d="m270 303.6 6.4 6.4-6.4 6.4-6.4-6.4z" fill="none"/><path d="m290 303.6 6.4 6.4-6.4 6.4-6.4-6.4z" fill="none"/><path d="m310 303.6 6.4 6.4-6.4 6.4-6.4-6.4z" fill="none"/><path d="m330 303.6 6.4 6.4-6.4 6.4-6.4-6.4z" fill="none"/><path d="m350 303.6 6.4 6.4-6.4 6.4-6.4-6.4z" fill="none"/><path d="m370 303.6 6.4 6.4-6.4 6.4-6.4-6.4z" fill="none"/><path d="m390 303.6 6.4 6.4-6.4 6.4-6.4-6.4z" fill="none"/><path d="m410 303.6 6.4 6.4-6.4 6.4-6.4-6.4z" fill="none"/><path d="m430 303.6 6.4 6.4-6.4 6.4-6.4-6.4z" fill="none"/><path d="m450 303.6 6.4 6.4-6.4 6.4-6.4-6.4z" fill="none"/><path d="m470 303.6 6.4 6.4-6.4 6.4-6.4-6.4z" fill="none"/><path d="m10 323.6 6.4 6.4-6.4 6.4-6.4-6.4z" fill="none"/><path d="m30 323.6 6.4 6.4-6.4 6.4-6.4-6.4z" fill="none"/><path d="m50 323.6 6.4 6.4-6.4 6.4-6.4-6.4z" fill="none"/><path d="m70 323.6 6.4 6.4-6.4 6.4-6.4-6.4z" fill="none"/><path d="m90 323.6 6.4 6.4-6.4 6.4-6.4-6.4z" fill="none"/><path d="m110 323.6 6.4 6.4-6.4 6.4-6.4-6.4z" fill="none"/><path d="m130 323.6 6.4 6.4-6.4 6.4-6.4-6.4z" fill="none"/><path d="m143.6 323.6h12.8v12.8h-12.8z" stroke="none"/><path d="m163.6 323.6h12.8v12.8h-12.8z" stroke="none"/><path d="m183.6 323.6h12.8v12.8h-12.8z" stroke="none"/><path d="m203.6 323.6h12.8v12.8h-12.8z" stroke="none"/><path d="m223.6 323.6h12.8v12.8h-12.8z" stroke="none"/><path d="m250 323.6 6.4 6.4-6.4 6.4-6.4-6.4z" fill="none"/><path d="m270 323.6 6.4 6.4-6.4 6.4-6.4-6.4z" fill="none"/><path d="m290 323.6 6.4 6.4-6.4 6.4-6.4-6.4z" fill="none"/><path d="m310 323.6 6.4 6.4-6.4 6.4-6.4-6.4z" fill="none"/><path d="m330 323.6 6.4 6.4-6.4 6.4-6.4-6.4z" fill="none"/><path d="m350 323.6 6.4 6.4-6.4 6.4-6.4-6.4z" fill="none"/><path d="m370 323.6 6.4 6.4-6.4 6.4-6.4-6.4z" fill="none"/><path d="m390 323.6 6.4 6.4-6.4 6.4-6.4-6.4z" fill="none"/><path d="m410 323.6 6.4 6.4-6.4 6.4-6.4-6.4z" fill="none"/><path d="m430 323.6 6.4 6.4-6.4 6.4-6.4-6.4z" fill="none"/><path d="m450 323.6 6.4 6.4-6.4 6.4-6.4-6.4z" fill="none"/><path d="m470 323.6 6.4 6.4-6.4 6.4-6.4-6.4z" fill="none"/><path d="m10 343.6 6.4 6.4-6.4 6.4-6.4-6.4z" fill="none"/><path d="m30 343.6 6.4 6.4-6.4 6.4-6.4-6.4z" fill="none"/><path d="m50 343.6 6.4 6.4-6.4 6.4-6.4-6.4z" fill="none"/><path d="m70 343.6 6.4 6.4-6.4 6.4-6.4-6.4z" fill="none"/><path d="m90 343.6 6.4 6.4-6.4 6.4-6.4-6.4z" fill="none"/><path d="m110 343.6 6.4 6.4-6.4 6.4-6.4-6.4z" fill="none"/><path d="m123.6 343.6h12.8v12.8h-12.8z" stroke="none"/><path d="m143.6 343.6h12.8v12.8h-12.8z" stroke="none"/><path d="m163.6 343.6h12.8v12.8h-12.8z" stroke="none"/><path d="m183.6 343.6h12.8v12.8h-12.8z" stroke="none"/><path d="m203.6 343.6h12.8v12.8h-12.8z" stroke="none"/><path d="m223.6 343.6h12.8v12.8h-12.8z" stroke="none"/><path d="m250 343.6 6.4 6.4-6.4 6.4-6.4-6.4z" fill="none"/><path d="m270 343.6 6.4 6.4-6.4 6.4-6.4-6.4z" fill="none"/><path d="m290 343.6 6.4 6.4-6.4 6.4-6.4-6.4z" fill="none"/><path d="m310 343.6 6.4 6.4-6.4 6.4-6.4-6.4z" fill="none"/><path d="m330 343.6 6.4 6.4-6.4 6.4-6.4-6.4z" fill="none"/><path d="m350 343.6 6.4 6.4-6.4 6.4-6.4-6.4z" fill="none"/><path d="m370 343.6 6.4 6.4-6.4 6.4-6.4-6.4z" fill="none"/><path d="m390 343.6 6.4 6.4-6.4 6.4-6.4-6.4z" fill="none"/><path d="m410 343.6 6.4 6.4-6.4 6.4-6.4-6.4z" fill="none"/><path d="m430 343.6 6.4 6.4-6.4 6.4-6.4-6.4z" fill="none"/><path d="m450 343.6 6.4 6.4-6.4 6.4-6.4-6.4z" fill="none"/><path d="m470 343.6 6.4 6.4-6.4 6.4-6.4-6.4z" fill="none"/><path d="m10 363.6 6.4 6.4-6.4 6.4-6.4-6.4z" fill="none"/><path d="m30 363.6 6.4 6.4-6.4 6.4-6.4-6.4z" fill="none"/><path d="m50 363.6 6.4 6.4-6.4 6.4-6.4-6.4z" fill="none"/><path d="m70 363.6 6.4 6.4-6.4 6.4-6.4-6.4z" fill="none"/><path d="m90 363.6 6.4 6.4-6.4 6.4-6.4-6.4z" fill="none"/><path d="m110 363.6 6.4 6.4-6.4 6.4-6.4-6.4z" fill="none"/><path d="m123.6 363.6h12.8v12.8h-12.8z" stroke="none"/><path d="m143.6 363.6h12.8v12.8h-12.8z" stroke="none"/><path d="m163.6 363.6h12.8v12.8h-12.8z" stroke="none"/><path d="m183.6 363.6h12.8v12.8h-12.8z" stroke="none"/><path d="m203.6 363.6h12.8v12.8h-12.8z" stroke="none"/><path d="m223.6 363.6h12.8v12.8h-12.8z" stroke="none"/><path d="m250 363.6 6.4 6.4-6.4 6.4-6.4-6.4z" fill="none"/><path d="m270 363.6 6.4 6.4-6.4 6.4-6.4-6.4z" fill="none"/><path d="m290 363.6 6.4 6.4-6.4 6.4-6.4-6.4z" fill="none"/><path d="m310 363.6 6.4 6.4-6.4 6.4-6.4-6.4z" fill="none"/><path d="m330 363.6 6.4 6.4-6.4 6.4-6.4-6.4z" fill="none"/><path d="m350 363.6 6.4 6.4-6.4 6.4-6.4-6.4z" fill="none"/><path d="m370 363.6 6.4 6.4-6.4 6.4-6.4-6.4z" fill="none"/><path d="m390 363.6 6.4 6.4-6.4 6.4-6.4-6.4z" fill="none"/><path d="m410 363.6 6.4 6.4-6.4 6.4-6.4-6.4z" fill="none"/><path d="m430 363.6 6.4 6.4-6.4 6.4-6.4-6.4z" fill="none"/><path d="m450 363.6 6.4 6.4-6.4 6.4-6.4-6.4z" fill="none"/><path d="m470 363.6 6.4 6.4-6.4 6.4-6.4-6.4z" fill="none"/><path d="m10 383.6 6.4 6.4-6.4 6.4-6.4-6.4z" fill="none"/><path d="m30 383.6 6.4 6.4-6.4 6.4-6.4-6.4z" fill="none"/><path d="m50 383.6 6.4 6.4-6.4 6.4-6.4-6.4z" fill="none"/><path d="m70 383.6 6.4 6.4-6.4 6.4-6.4-6.4z" fill="none"/><path d="m90 383.6 6.4 6.4-6.4 6.4-6.4-6.4z" fill="none"/><path d="m110 383.6 6.4 6.4-6.4 6.4-6.4-6.4z" fill="none"/><path d="m130 383.6 6.4 6.4-6.4 6.4-6.4-6.4z" fill="none"/><path d="m143.6 383.6h12.8v12.8h-12.8z" stroke="none"/><path d="m163.6 383.6h12.8v12.8h-12.8z" stroke="none"/><path d="m183.6 383.6h12.8v12.8h-12.8z" stroke="none"/><path d="m203.6 383.6h12.8v12.8h-12.8z" stroke="none"/><path d="m230 383.6 6.4 6.4-6.4 6.4-6.4-6.4z" fill="none"/><path d="m250 383.6 6.4 6.4-6.4 6.4-6.4-6.4z" fill="none"/><path d="m270 383.6 6.4 6.4-6.4 6.4-6.4-6.4z" fill="none"/><path d="m290 383.6 6.4 6.4-6.4 6.4-6.4-6.4z" fill="none"/><path d="m310 383.6 6.4 6.4-6.4 6.4-6.4-6.4z" fill="none"/><path d="m330 383.6 6.4 6.4-6.4 6.4-6.4-6.4z" fill="none"/><path d="m350 383.6 6.4 6.4-6.4 6.4-6.4-6.4z" fill="none"/><path d="m370 383.6 6.4 6.4-6.4 6.4-6.4-6.4z" fill="none"/><path d="m390 383.6 6.4 6.4-6.4 6.4-6.4-6.4z" fill="none"/><path d="m410 383.6 6.4 6.4-6.4 6.4-6.4-6.4z" fill="none"/><path d="m430 383.6 6.4 6.4-6.4 6.4-6.4-6.4z" fill="none"/><path d="m450 383.6 6.4 6.4-6.4 6.4-6.4-6.4z" fill="none"/><path d="m470 383.6 6.4 6.4-6.4 6.4-6.4-6.4z" fill="none"/><path d="m10 403.6 6.4 6.4-6.4 6.4-6.4-6.4z" fill="none"/><path d="m30 403.6 6.4 6.4-6.4 6.4-6.4-6.4z" fill="none"/><path d="m50 403.6 6.4 6.4-6.4 6.4-6.4-6.4z" fill="none"/><path d="m70 403.6 6.4 6.4-6.4 6.4-6.4-6.4z" fill="none"/><path d="m90 403.6 6.4 6.4-6.4 6.4-6.4-6.4z" fill="none"/><path d="m110 403.6 6.4 6.4-6.4 6.4-6.4-6.4z" fill="none"/><path d="m130 403.6 6.4 6.4-6.4 6.4-6.4-6.4z" fill="none"/><path d="m150 403.6 6.4 6.4-6.4 6.4-6.4-6.4z" fill="none"/><path d="m163.6 403.6h12.8v12.8h-12.8z" stroke="none"/><path d="m183.6 403.6h12.8v12.8h-12.8z" stroke="none"/><path d="m210 403.6 6.4 6.4-6.4 6.4-6.4-6.4z" fill="none"/><path d="m230 403.6 6.4 6.4-6.4 6.4-6.4-6.4z" fill="none"/><path d="m250 403.6 6.4 6.4-6.4 6.4-6.4-6.4z" fill="none"/><path d="m270 403.6 6.4 6.4-6.4 6.4-6.4-6.4z" fill="none"/><path d="m290 403.6 6.4 6.4-6.4 6.4-6.4-6.4z" fill="none"/><path d="m310 403.6 6.4 6.4-6.4 6.4-6.4-6.4z" fill="none"/><path d="m330 403.6 6.4 6.4-6.4 6.4-6.4-6.4z" fill="none"/><path d="m350 403.6 6.4 6.4-6.4 6.4-6.4-6.4z" fill="none"/><path d="m370 403.6 6.4 6.4-6.4 6.4-6.4-6.4z" fill="none"/><path d="m390 403.6 6.4 6.4-6.4 6.4-6.4-6.4z" fill="none"/><path d="m410 403.6 6.4 6.4-6.4 6.4-6.4-6.4z" fill="none"/><path d="m430 403.6 6.4 6.4-6.4 6.4-6.4-6.4z" fill="none"/><path d="m450 403.6 6.4 6.4-6.4 6.4-6.4-6.4z" fill="none"/><path d="m470 403.6 6.4 6.4-6.4 6.4-6.4-6.4z" fill="none"/><path d="m10 423.6 6.4 6.4-6.4 6.4-6.4-6.4z" fill="none"/><path d="m30 423.6 6.4 6.4-6.4 6.4-6.4-6.4z" fill="none"/><path d="m50 423.6 6.4 6.4-6.4 6.4-6.4-6.4z" fill="none"/><path d="m70 423.6 6.4 6.4-6.4 6.4-6.4-6.4z" fill="none"/><path d="m90 423.6 6.4 6.4-6.4 6.4-6.4-6.4z" fill="none"/><path d="m110 423.6 6.4 6.4-6.4 6.4-6.4-6.4z" fill="none"/><path d="m130 423.6 6.4 6.4-6.4 6.4-6.4-6.4z" fill="none"/><path d="m150 423.6 6.4 6.4-6.4 6.4-6.4-6.4z" fill="none"/><path d="m170 423.6 6.4 6.4-6.4 6.4-6.4-6.4z" fill="none"/><path d="m190 423.6 6.4 6.4-6.4 6.4-6.4-6.4z" fill="none"/><path d="m210 423.6 6.4 6.4-6.4 6.4-6.4-6.4z" fill="none"/><path d="m230 423.6 6.4 6.4-6.4 6.4-6.4-6.4z" fill="none"/><path d="m250 423.6 6.4 6.4-6.4 6.4-6.4-6.4z" fill="none"/><path d="m270 423.6 6.4 6.4-6.4 6.4-6.4-6.4z" fill="none"/><path d="m290 423.6 6.4 6.4-6.4 6.4-6.4-6.4z" fill="none"/><path d="m310 423.6 6.4 6.4-6.4 6.4-6.4-6.4z" fill="none"/><path d="m330 423.6 6.4 6.4-6.4 6.4-6.4-6.4z" fill="none"/><path d="m350 423.6 6.4 6.4-6.4 6.4-6.4-6.4z" fill="none"/><path d="m370 423.6 6.4 6.4-6.4 6.4-6.4-6.4z" fill="none"/><path d="m390 423.6 6.4 6.4-6.4 6.4-6.4-6.4z" fill="none"/><path d="m410 423.6 6.4 6.4-6.4 6.4-6.4-6.4z" fill="none"/><path d="m430 423.6 6.4 6.4-6.4 6.4-6.4-6.4z" fill="none"/><path d="m450 423.6 6.4 6.4-6.4 6.4-6.4-6.4z" fill="none"/><path d="m470 423.6 6.4 6.4-6.4 6.4-6.4-6.4z" fill="none"/><path d="m10 443.6 6.4 6.4-6.4 6.4-6.4-6.4z" fill="none"/><path d="m30 443.6 6.4 6.4-6.4 6.4-6.4-6.4z" fill="none"/><path d="m50 443.6 6.4 6.4-6.4 6.4-6.4-6.4z" fill="none"/><path d="m70 443.6 6.4 6.4-6.4 6.4-6.4-6.4z" fill="none"/><path d="m90 443.6 6.4 6.4-6.4 6.4-6.4-6.4z" fill="none"/><path d="m110 443.6 6.4 6.4-6.4 6.4-6.4-6.4z" fill="none"/><path d="m130 443.6 6.4 6.4-6.4 6.4-6.4-6.4z" fill="none"/><path d="m150 443.6 6.4 6.4-6.4 6.4-6.4-6.4z" fill="none"/><path d="m170 443.6 6.4 6.4-6.4 6.4-6.4-6.4z" fill="none"/><path d="m190 443.6 6.4 6.4-6.4 6.4-6.4-6.4z" fill="none"/><path d="m210 443.6 6.4 6.4-6.4 6.4-6.4-6.4z" fill="none"/><path d="m230 443.6 6.4 6.4-6.4 6.4-6.4-6.4z" fill="none"/><path d="m250 443.6 6.4 6.4-6.4 6.4-6.4-6.4z" fill="none"/><path d="m270 443.6 6.4 6.4-6.4 6.4-6.4-6.4z" fill="none"/><path d="m290 443.6 6.4 6.4-6.4 6.4-6.4-6.4z" fill="none"/><path d="m310 443.6 6.4 6.4-6.4 6.4-6.4-6.4z" fill="none"/><path d="m330 443.6 6.4 6.4-6.4 6.4-6.4-6.4z" fill="none"/><path d="m350 443.6 6.4 6.4-6.4 6.4-6.4-6.4z" fill="none"/><path d="m370 443.6 6.4 6.4-6.4 6.4-6.4-6.4z" fill="none"/><path d="m390 443.6 6.4 6.4-6.4 6.4-6.4-6.4z" fill="none"/><path d="m410 443.6 6.4 6.4-6.4 6.4-6.4-6.4z" fill="none"/><path d="m430 443.6 6.4 6.4-6.4 6.4-6.4-6.4z" fill="none"/><path d="m450 443.6 6.4 6.4-6.4 6.4-6.4-6.4z" fill="none"/><path d="m470 443.6 6.4 6.4-6.4 6.4-6.4-6.4z" fill="none"/><path d="m10 463.6 6.4 6.4-6.4 6.4-6.4-6.4z" fill="none"/><path d="m30 463.6 6.4 6.4-6.4 6.4-6.4-6.4z" fill="none"/><path d="m50 463.6 6.4 6.4-6.4 6.4-6.4-6.4z" fill="none"/><path d="m70 463.6 6.4 6.4-6.4 6.4-6.4-6.4z" fill="none"/><path d="m90 463.6 6.4 6.4-6.4 6.4-6.4-6.4z" fill="none"/><path d="m110 463.6 6.4 6.4-6.4 6.4-6.4-6.4z" fill="none"/><path d="m130 463.6 6.4 6.4-6.4 6.4-6.4-6.4z" fill="none"/><path d="m150 463.6 6.4 6.4-6.4 6.4-6.4-6.4z" fill="none"/><path d="m170 463.6 6.4 6.4-6.4 6.4-6.4-6.4z" fill="none"/><path d="m190 463.6 6.4 6.4-6.4 6.4-6.4-6.4z" fill="none"/><path d="m210 463.6 6.4 6.4-6.4 6.4-6.4-6.4z" fill="none"/><path d="m230 463.6 6.4 6.4-6.4 6.4-6.4-6.4z" fill="none"/><path d="m250 463.6 6.4 6.4-6.4 6.4-6.4-6.4z" fill="none"/><path d="m270 463.6 6.4 6.4-6.4 6.4-6.4-6.4z" fill="none"/><path d="m290 463.6 6.4 6.4-6.4 6.4-6.4-6.4z" fill="none"/><path d="m310 463.6 6.4 6.4-6.4 6.4-6.4-6.4z" fill="none"/><path d="m330 463.6 6.4 6.4-6.4 6.4-6.4-6.4z" fill="none"/><path d="m350 463.6 6.4 6.4-6.4 6.4-6.4-6.4z" fill="none"/><path d="m370 463.6 6.4 6.4-6.4 6.4-6.4-6.4z" fill="none"/><path d="m390 463.6 6.4 6.4-6.4 6.4-6.4-6.4z" fill="none"/><path d="m410 463.6 6.4 6.4-6.4 6.4-6.4-6.4z" fill="none"/><path d="m430 463.6 6.4 6.4-6.4 6.4-6.4-6.4z" fill="none"/><path d="m450 463.6 6.4 6.4-6.4 6.4-6.4-6.4z" fill="none"/><path d="m470 463.6 6.4 6.4-6.4 6.4-6.4-6.4z" fill="none"/><path d="m0 0v480" fill="none" stroke="#1c30d0"/><path d="m20 0v480" fill="none" stroke="#1c30d0" stroke-width="1"/><path d="m40 0v480" fill="none" stroke="#1c30d0" stroke-width="1"/><path d="m60 0v480" fill="none" stroke="#1c30d0" stroke-width="1"/><path d="m80 0v480" fill="none" stroke="#1c30d0" stroke-width="1"/><path d="m100 0v480" fill="none" stroke="#1c30d0" stroke-width="1"/><path d="m120 0v480" fill="none" stroke="#1c30d0" stroke-width="1"/><path d="m140 0v480" fill="none" stroke="#1c30d0" stroke-width="1"/><path d="m160 0v480" fill="none" stroke="#1c30d0" stroke-width="1"/><path d="m180 0v480" fill="none" stroke="#1c30d0" stroke-width="1"/><path d="m200 0v480" fill="none" stroke="#1c30d0" stroke-width="1"/><path d="m220 0v480" fill="none" stroke="#1c30d0" stroke-width="1"/><path d="m240 0v480" fill="none" stroke="#1c30d0" stroke-width="1"/><path d="m260 0v480" fill="none" stroke="#1c30d0" stroke-width="1"/><path d="m280 0v480" fill="none" stroke="#1c30d0" stroke-width="1"/><path d="m300 0v480" fill="none" stroke="#1c30d0" stroke-width="1"/><path d="m320 0v480" fill="none" stroke="#1c30d0" stroke-width="1"/><path d="m340 0v480" fill="none" stroke="#1c30d0" stroke-width="1"/><path d="m360 0v480" fill="none" stroke="#1c30d0" stroke-width="1"/><path d="m380 0v480" fill="none" stroke="#1c30d0" stroke-width="1"/><path d="m400 0v480" fill="none" stroke="#1c30d0" stroke-width="1"/><path d="m420 0v480" fill="none" stroke="#1c30d0" stroke-width="1"/><path d="m440 0v480" fill="none" stroke="#1c30d0" stroke-width="1"/><path d="m460 0v480" fill="none" stroke="#1c30d0" stroke-width="1"/><path d="m480 0v480" fill="none" stroke="#1c30d0"/><path d="m0 0h480" fill="none" stroke="#1c30d0"/><path d="m0 20h480" fill="none" stroke="#1c30d0" stroke-width="1"/><path d="m0 40h480" fill="none" stroke="#1c30d0" stroke-width="1"/><path d="m0 60h480" fill="none" stroke="#1c30d0" stroke-width="1"/><path d="m0 80h480" fill="none" stroke="#1c30d0" stroke-width="1"/><path d="m0 100h480" fill="none" stroke="#1c30d0" stroke-width="1"/><path d="m0 120h480" fill="none" stroke="#1c30d0" stroke-width="1"/><path d="m0 140h480" fill="none" stroke="#1c30d0" stroke-width="1"/><path d="m0 160h480" fill="none" stroke="#1c30d0" stroke-width="1"/><path d="m0 180h480" fill="none" stroke="#1c30d0" stroke-width="1"/><path d="m0 200h480" fill="none" stroke="#1c30d0" stroke-width="1"/><path d="m0 220h480" fill="none" stroke="#1c30d0" stroke-width="1"/><path d="m0 240h480" fill="none" stroke="#1c30d0" stroke-width="1"/><path d="m0 260h480" fill="none" stroke="#1c30d0" stroke-width="1"/><path d="m0 280h480" fill="none" stroke="#1c30d0" stroke-width="1"/><path d="m0 300h480" fill="none" stroke="#1c30d0" stroke-width="1"/><path d="m0 320h480" fill="none" stroke="#1c30d0" stroke-width="1"/><path d="m0 340h480" fill="none" stroke="#1c30d0" stroke-width="1"/><path d="m0 360h480" fill="none" stroke="#1c30d0" stroke-width="1"/><path d="m0 380h480" fill="none" stroke="#1c30d0" stroke-width="1"/><path d="m0 400h480" fill="none" stroke="#1c30d0" stroke-width="1"/><path d="m0 420h480" fill="none" stroke="#1c30d0" stroke-width="1"/><path d="m0 440h480" fill="none" stroke="#1c30d0" stroke-width="1"/><path d="m0 460h480" fill="none" stroke="#1c30d0" stroke-width="1"/><path d="m0 480h480" fill="none" stroke="#1c30d0"/></g></g></svg>