<svg color-interpolation="auto" height="320" stroke="#000" stroke-linecap="square" stroke-miterlimit="10" width="320" xmlns="http://www.w3.org/2000/svg"><path d="m120 0h20v20h-20z" fill="#d7d7d7" stroke="none"/><g fill="#b4b4b4" stroke="#b4b4b4" stroke-linecap="round"><path d="m120 0h20v20h-20z" fill="none"/><path d="m140 0h20v20h-20z" fill="#d7d7d7" stroke="none"/><path d="m140 0h20v20h-20z" fill="none"/><path d="m120 20h20v20h-20z" fill="#d7d7d7" stroke="none"/><path d="m120 20h20v20h-20z" fill="none"/><path d="m140 20h20v20h-20z" fill="#d7d7d7" stroke="none"/><path d="m140 20h20v20h-20z" fill="none"/><path d="m180 20h20v20h-20z" fill="#d7d7d7" stroke="none"/><path d="m180 20h20v20h-20z" fill="none"/><path d="m140 40h20v20h-20z" fill="#d7d7d7" stroke="none"/><path d="m140 40h20v20h-20z" fill="none"/><path d="m160 40h20v20h-20z" fill="#d7d7d7" stroke="none"/><path d="m160 40h20v20h-20z" fill="none"/><path d="m180 40h20v20h-20z" fill="#d7d7d7" stroke="none"/><path d="m180 40h20v20h-20z" fill="none"/><path d="m120 60h20v20h-20z" fill="#cdcdcd" stroke="none"/><path d="m120 60h20v20h-20z" fill="none"/><path d="m140 60h20v20h-20z" fill="#cdcdcd" stroke="none"/><path d="m140 60h20v20h-20z" fill="none"/><path d="m160 60h20v20h-20z" fill="#cdcdcd" stroke="none"/><path d="m160 60h20v20h-20z" fill="none"/><path d="m180 60h20v20h-20z" fill="#505050" stroke="none"/><path d="m180 60h20v20h-20z" fill="none"/><path d="m100 80h20v20h-20z" fill="#cdcdcd" stroke="none"/><path d="m100 80h20v20h-20z" fill="none"/><path d="m120 80h20v20h-20z" fill="#cdcdcd" stroke="none"/><path d="m120 80h20v20h-20z" fill="none"/><path d="m140 80h20v20h-20z" fill="#cdcdcd" stroke="none"/><path d="m140 80h20v20h-20z" fill="none"/><path d="m160 80h20v20h-20z" fill="#cdcdcd" stroke="none"/><path d="m160 80h20v20h-20z" fill="none"/><path d="m180 80h20v20h-20z" fill="#cdcdcd" stroke="none"/><path d="m180 80h20v20h-20z" fill="none"/><path d="m200 80h20v20h-20z" fill="#505050" stroke="none"/><path d="m200 80h20v20h-20z" fill="none"/><path d="m80 100h20v20h-20z" fill="#cdcdcd" stroke="none"/><path d="m80 100h20v20h-20z" fill="none"/><path d="m100 100h20v20h-20z" fill="#cdcdcd" stroke="none"/><path d="m100 100h20v20h-20z" fill="none"/><path d="m120 100h20v20h-20z" fill="#1d1d1d" stroke="none"/><path d="m120 100h20v20h-20z" fill="none"/><path d="m140 100h20v20h-20z" fill="#cdcdcd" stroke="none"/><path d="m140 100h20v20h-20z" fill="none"/><path d="m160 100h20v20h-20z" fill="#1d1d1d" stroke="none"/><path d="m160 100h20v20h-20z" fill="none"/><path d="m180 100h20v20h-20z" fill="#cdcdcd" stroke="none"/><path d="m180 100h20v20h-20z" fill="none"/><path d="m200 100h20v20h-20z" fill="#cdcdcd" stroke="none"/><path d="m200 100h20v20h-20z" fill="none"/><path d="m220 100h20v20h-20z" fill="#505050" stroke="none"/><path d="m220 100h20v20h-20z" fill="none"/><path d="m80 120h20v20h-20z" fill="#cdcdcd" stroke="none"/><path d="m80 120h20v20h-20z" fill="none"/><path d="m100 120h20v20h-20z" fill="#cdcdcd" stroke="none"/><path d="m100 120h20v20h-20z" fill="none"/><path d="m120 120h20v20h-20z" fill="#1d1d1d" stroke="none"/><path d="m120 120h20v20h-20z" fill="none"/><path d="m140 120h20v20h-20z" fill="#cdcdcd" stroke="none"/><path d="m140 120h20v20h-20z" fill="none"/><path d="m160 120h20v20h-20z" fill="#1d1d1d" stroke="none"/><path d="m160 120h20v20h-20z" fill="none"/><path d="m180 120h20v20h-20z" fill="#cdcdcd" stroke="none"/><path d="m180 120h20v20h-20z" fill="none"/><path d="m200 120h20v20h-20z" fill="#cdcdcd" stroke="none"/><path d="m200 120h20v20h-20z" fill="none"/><path d="m220 120h20v20h-20z" fill="#505050" stroke="none"/><path d="m220 120h20v20h-20z" fill="none"/><path d="m20 140h20v20h-20z" fill="#cdcdcd" stroke="none"/><path d="m20 140h20v20h-20z" fill="none"/><path d="m40 140h20v20h-20z" fill="#484848" stroke="none"/><path d="m40 140h20v20h-20z" fill="none"/><path d="m60 140h20v20h-20z" fill="#cdcdcd" stroke="none"/><path d="m60 140h20v20h-20z" fill="none"/><path d="m80 140h20v20h-20z" fill="#484848" stroke="none"/><path d="m80 140h20v20h-20z" fill="none"/><path d="m100 140h20v20h-20z" fill="#cdcdcd" stroke="none"/><path d="m100 140h20v20h-20z" fill="none"/><path d="m120 140h20v20h-20z" fill="#cdcdcd" stroke="none"/><path d="m120 140h20v20h-20z" fill="none"/><path d="m140 140h20v20h-20z" fill="#cdcdcd" stroke="none"/><path d="m140 140h20v20h-20z" fill="none"/><path d="m160 140h20v20h-20z" fill="#cdcdcd" stroke="none"/><path d="m160 140h20v20h-20z" fill="none"/><path d="m180 140h20v20h-20z" fill="#cdcdcd" stroke="none"/><path d="m180 140h20v20h-20z" fill="none"/><path d="m200 140h20v20h-20z" fill="#cdcdcd" stroke="none"/><path d="m200 140h20v20h-20z" fill="none"/><path d="m220 140h20v20h-20z" fill="#505050" stroke="none"/><path d="m220 140h20v20h-20z" fill="none"/><path d="m20 160h20v20h-20z" fill="#cdcdcd" stroke="none"/><path d="m20 160h20v20h-20z" fill="none"/><path d="m40 160h20v20h-20z" fill="#cdcdcd" stroke="none"/><path d="m40 160h20v20h-20z" fill="none"/><path d="m60 160h20v20h-20z" fill="#cdcdcd" stroke="none"/><path d="m60 160h20v20h-20z" fill="none"/><path d="m80 160h20v20h-20z" fill="#cdcdcd" stroke="none"/><path d="m80 160h20v20h-20z" fill="none"/><path d="m100 160h20v20h-20z" fill="#cdcdcd" stroke="none"/><path d="m100 160h20v20h-20z" fill="none"/><path d="m120 160h20v20h-20z" fill="#cdcdcd" stroke="none"/><path d="m120 160h20v20h-20z" fill="none"/><path d="m140 160h20v20h-20z" fill="#cdcdcd" stroke="none"/><path d="m140 160h20v20h-20z" fill="none"/><path d="m160 160h20v20h-20z" fill="#cdcdcd" stroke="none"/><path d="m160 160h20v20h-20z" fill="none"/><path d="m180 160h20v20h-20z" fill="#cdcdcd" stroke="none"/><path d="m180 160h20v20h-20z" fill="none"/><path d="m200 160h20v20h-20z" fill="#cdcdcd" stroke="none"/><path d="m200 160h20v20h-20z" fill="none"/><path d="m220 160h20v20h-20z" fill="#505050" stroke="none"/><path d="m220 160h20v20h-20z" fill="none"/><path d="m240 160h20v20h-20z" fill="#505050" stroke="none"/><path d="m240 160h20v20h-20z" fill="none"/><path d="m20 180h20v20h-20z" fill="#cdcdcd" stroke="none"/><path d="m20 180h20v20h-20z" fill="none"/><path d="m40 180h20v20h-20z" fill="#272727" stroke="none"/><path d="m40 180h20v20h-20z" fill="none"/><path d="m60 180h20v20h-20z" fill="#fff" stroke="none"/><path d="m60 180h20v20h-20z" fill="none"/><path d="m80 180h20v20h-20z" fill="#fff" stroke="none"/><path d="m80 180h20v20h-20z" fill="none"/><path d="m100 180h20v20h-20z" fill="#272727" stroke="none"/><path d="m100 180h20v20h-20z" fill="none"/><path d="m120 180h20v20h-20z" fill="#878787" stroke="none"/><path d="m120 180h20v20h-20z" fill="none"/><path d="m140 180h20v20h-20z" fill="#cdcdcd" stroke="none"/><path d="m140 180h20v20h-20z" fill="none"/><path d="m160 180h20v20h-20z" fill="#cdcdcd" stroke="none"/><path d="m160 180h20v20h-20z" fill="none"/><path d="m180 180h20v20h-20z" fill="#cdcdcd" stroke="none"/><path d="m180 180h20v20h-20z" fill="none"/><path d="m200 180h20v20h-20z" fill="#505050" stroke="none"/><path d="m200 180h20v20h-20z" fill="none"/><path d="m220 180h20v20h-20z" fill="#505050" stroke="none"/><path d="m220 180h20v20h-20z" fill="none"/><path d="m240 180h20v20h-20z" fill="#505050" stroke="none"/><path d="m240 180h20v20h-20z" fill="none"/><path d="m60 200h20v20h-20z" fill="#272727" stroke="none"/><path d="m60 200h20v20h-20z" fill="none"/><path d="m80 200h20v20h-20z" fill="#272727" stroke="none"/><path d="m80 200h20v20h-20z" fill="none"/><path d="m100 200h20v20h-20z" fill="#878787" stroke="none"/><path d="m100 200h20v20h-20z" fill="none"/><path d="m120 200h20v20h-20z" fill="#878787" stroke="none"/><path d="m120 200h20v20h-20z" fill="none"/><path d="m140 200h20v20h-20z" fill="#878787" stroke="none"/><path d="m140 200h20v20h-20z" fill="none"/><path d="m160 200h20v20h-20z" fill="#878787" stroke="none"/><path d="m160 200h20v20h-20z" fill="none"/><path d="m180 200h20v20h-20z" fill="#505050" stroke="none"/><path d="m180 200h20v20h-20z" fill="none"/><path d="m200 200h20v20h-20z" fill="#505050" stroke="none"/><path d="m200 200h20v20h-20z" fill="none"/><path d="m220 200h20v20h-20z" fill="#505050" stroke="none"/><path d="m220 200h20v20h-20z" fill="none"/><path d="m240 200h20v20h-20z" fill="#505050" stroke="none"/><path d="m240 200h20v20h-20z" fill="none"/><path d="m40 220h20v20h-20z" fill="#505050" stroke="none"/><path d="m40 220h20v20h-20z" fill="none"/><path d="m60 220h20v20h-20z" fill="#fff" stroke="none"/><path d="m60 220h20v20h-20z" fill="none"/><path d="m80 220h20v20h-20z" fill="#878787" stroke="none"/><path d="m80 220h20v20h-20z" fill="none"/><path d="m100 220h20v20h-20z" fill="#878787" stroke="none"/><path d="m100 220h20v20h-20z" fill="none"/><path d="m120 220h20v20h-20z" fill="#fff" stroke="none"/><path d="m120 220h20v20h-20z" fill="none"/><path d="m140 220h20v20h-20z" fill="#878787" stroke="none"/><path d="m140 220h20v20h-20z" fill="none"/><path d="m160 220h20v20h-20z" fill="#505050" stroke="none"/><path d="m160 220h20v20h-20z" fill="none"/><path d="m180 220h20v20h-20z" fill="#505050" stroke="none"/><path d="m180 220h20v20h-20z" fill="none"/><path d="m200 220h20v20h-20z" fill="#505050" stroke="none"/><path d="m200 220h20v20h-20z" fill="none"/><path d="m220 220h20v20h-20z" fill="#505050" stroke="none"/><path d="m220 220h20v20h-20z" fill="none"/><path d="m240 220h20v20h-20z" fill="#505050" stroke="none"/><path d="m240 220h20v20h-20z" fill="none"/><path d="m20 240h20v20h-20z" fill="#878787" stroke="none"/><path d="m20 240h20v20h-20z" fill="none"/><path d="m40 240h20v20h-20z" fill="#878787" stroke="none"/><path d="m40 240h20v20h-20z" fill="none"/><path d="m60 240h20v20h-20z" fill="#505050" stroke="none"/><path d="m60 240h20v20h-20z" fill="none"/><path d="m80 240h20v20h-20z" fill="#505050" stroke="none"/><path d="m80 240h20v20h-20z" fill="none"/><path d="m100 240h20v20h-20z" fill="#505050" stroke="none"/><path d="m100 240h20v20h-20z" fill="none"/><path d="m120 240h20v20h-20z" fill="#505050" stroke="none"/><path d="m120 240h20v20h-20z" fill="none"/><path d="m140 240h20v20h-20z" fill="#505050" stroke="none"/><path d="m140 240h20v20h-20z" fill="none"/><path d="m160 240h20v20h-20z" fill="#878787" stroke="none"/><path d="m160 240h20v20h-20z" fill="none"/><path d="m180 240h20v20h-20z" fill="#878787" stroke="none"/><path d="m180 240h20v20h-20z" fill="none"/><path d="m200 240h20v20h-20z" fill="#505050" stroke="none"/><path d="m200 240h20v20h-20z" fill="none"/><path d="m220 240h20v20h-20z" fill="#505050" stroke="none"/><path d="m220 240h20v20h-20z" fill="none"/><path d="m240 240h20v20h-20z" fill="#505050" stroke="none"/><path d="m240 240h20v20h-20z" fill="none"/><path d="m260 240h20v20h-20z" fill="#505050" stroke="none"/><path d="m260 240h20v20h-20z" fill="none"/><path d="m20 260h20v20h-20z" fill="#505050" stroke="none"/><path d="m20 260h20v20h-20z" fill="none"/><path d="m40 260h20v20h-20z" fill="#505050" stroke="none"/><path d="m40 260h20v20h-20z" fill="none"/><path d="m60 260h20v20h-20z" fill="#505050" stroke="none"/><path d="m60 260h20v20h-20z" fill="none"/><path d="m80 260h20v20h-20z" fill="#d7d7d7" stroke="none"/><path d="m80 260h20v20h-20z" fill="none"/><path d="m100 260h20v20h-20z" fill="#d7d7d7" stroke="none"/><path d="m100 260h20v20h-20z" fill="none"/><path d="m120 260h20v20h-20z" fill="#d7d7d7" stroke="none"/><path d="m120 260h20v20h-20z" fill="none"/><path d="m140 260h20v20h-20z" fill="#505050" stroke="none"/><path d="m140 260h20v20h-20z" fill="none"/><path d="m160 260h20v20h-20z" fill="#878787" stroke="none"/><path d="m160 260h20v20h-20z" fill="none"/><path d="m180 260h20v20h-20z" fill="#878787" stroke="none"/><path d="m180 260h20v20h-20z" fill="none"/><path d="m200 260h20v20h-20z" fill="#505050" stroke="none"/><path d="m200 260h20v20h-20z" fill="none"/><path d="m220 260h20v20h-20z" fill="#505050" stroke="none"/><path d="m220 260h20v20h-20z" fill="none"/><path d="m240 260h20v20h-20z" fill="#505050" stroke="none"/><path d="m240 260h20v20h-20z" fill="none"/><path d="m260 260h20v20h-20z" fill="#505050" stroke="none"/><path d="m260 260h20v20h-20z" fill="none"/><path d="m280 260h20v20h-20z" fill="#505050" stroke="none"/><path d="m280 260h20v20h-20z" fill="none"/><path d="m300 260h20v20h-20z" fill="#505050" stroke="none"/><path d="m300 260h20v20h-20z" fill="none"/><path d="m40 280h20v20h-20z" fill="#505050" stroke="none"/><path d="m40 280h20v20h-20z" fill="none"/><path d="m60 280h20v20h-20z" fill="#505050" stroke="none"/><path d="m60 280h20v20h-20z" fill="none"/><path d="m80 280h20v20h-20z" fill="#505050" stroke="none"/><path d="m80 280h20v20h-20z" fill="none"/><path d="m100 280h20v20h-20z" fill="#d7d7d7" stroke="none"/><path d="m100 280h20v20h-20z" fill="none"/><path d="m120 280h20v20h-20z" fill="#d7d7d7" stroke="none"/><path d="m120 280h20v20h-20z" fill="none"/><path d="m140 280h20v20h-20z" fill="#cdcdcd" stroke="none"/><path d="m140 280h20v20h-20z" fill="none"/><path d="m160 280h20v20h-20z" fill="#505050" stroke="none"/><path d="m160 280h20v20h-20z" fill="none"/><path d="m180 280h20v20h-20z" fill="#505050" stroke="none"/><path d="m180 280h20v20h-20z" fill="none"/><path d="m200 280h20v20h-20z" fill="#878787" stroke="none"/><path d="m200 280h20v20h-20z" fill="none"/><path d="m220 280h20v20h-20z" fill="#505050" stroke="none"/><path d="m220 280h20v20h-20z" fill="none"/><path d="m240 280h20v20h-20z" fill="#505050" stroke="none"/><path d="m240 280h20v20h-20z" fill="none"/><path d="m260 280h20v20h-20z" fill="#cdcdcd" stroke="none"/><path d="m260 280h20v20h-20z" fill="none"/><path d="m280 280h20v20h-20z" fill="#cdcdcd" stroke="none"/><path d="m280 280h20v20h-20z" fill="none"/><path d="m300 280h20v20h-20z" fill="#cdcdcd" stroke="none"/><path d="m300 280h20v20h-20z" fill="none"/><path d="m40 300h20v20h-20z" fill="#000" stroke="none"/><path d="m40 300h20v20h-20z" fill="none"/><path d="m60 300h20v20h-20z" fill="#484848" stroke="none"/><path d="m60 300h20v20h-20z" fill="none"/><path d="m80 300h20v20h-20z" fill="#000" stroke="none"/><path d="m80 300h20v20h-20z" fill="none"/><path d="m100 300h20v20h-20z" fill="#505050" stroke="none"/><path d="m100 300h20v20h-20z" fill="none"/><path d="m120 300h20v20h-20z" fill="#505050" stroke="none"/><path d="m120 300h20v20h-20z" fill="none"/><path d="m160 300h20v20h-20z" fill="#484848" stroke="none"/><path d="m160 300h20v20h-20z" fill="none"/><path d="m180 300h20v20h-20z" fill="#000" stroke="none"/><path d="m180 300h20v20h-20z" fill="none"/><path d="m200 300h20v20h-20z" fill="#484848" stroke="none"/><path d="m200 300h20v20h-20z" fill="none"/><path d="m220 300h20v20h-20z" fill="#000" stroke="none"/><path d="m220 300h20v20h-20z" fill="none"/><path d="m240 300h20v20h-20z" fill="#505050" stroke="none"/><path d="m240 300h20v20h-20z" fill="none"/></g></svg>