<svg color-interpolation="auto" height="320" stroke="#000" stroke-linecap="square" stroke-miterlimit="10" width="320" xmlns="http://www.w3.org/2000/svg"><g stroke-linecap="round" stroke-width="2"><path d="m126.4 10h7.2" fill="none"/><g><path d="m130 6.4v7.2" fill="none"/><path d="m146.4 10h7.2" fill="none"/><path d="m150 6.4v7.2" fill="none"/><path d="m126.4 30h7.2" fill="none"/><path d="m130 26.4v7.2" fill="none"/><path d="m146.4 30h7.2" fill="none"/><path d="m150 26.4v7.2" fill="none"/><path d="m186.4 30h7.2" fill="none"/><path d="m190 26.4v7.2" fill="none"/><path d="m146.4 50h7.2" fill="none"/><path d="m150 46.4v7.2" fill="none"/><path d="m166.4 50h7.2" fill="none"/><path d="m170 46.4v7.2" fill="none"/><path d="m186.4 50h7.2" fill="none"/><path d="m190 46.4v7.2" fill="none"/><path d="m125.2 65.2h9.6v9.6h-9.6z" fill="none"/><path d="m145.2 65.2h9.6v9.6h-9.6z" fill="none"/><path d="m165.2 65.2h9.6v9.6h-9.6z" fill="none"/><circle cx="190" cy="70" fill="none" r="4.8"/><path d="m105.2 85.2h9.6v9.6h-9.6z" fill="none"/><path d="m125.2 85.2h9.6v9.6h-9.6z" fill="none"/><path d="m145.2 85.2h9.6v9.6h-9.6z" fill="none"/><path d="m165.2 85.2h9.6v9.6h-9.6z" fill="none"/><path d="m185.2 85.2h9.6v9.6h-9.6z" fill="none"/><circle cx="210" cy="90" fill="none" r="4.8"/><path d="m85.2 105.2h9.6v9.6h-9.6z" fill="none"/><path d="m105.2 105.2h9.6v9.6h-9.6z" fill="none"/><path d="m130 105.2 1.4107 2.8584 3.1544.4583-2.2826 2.2249.5389 3.1417-2.8214-1.4833-2.8214 1.4833.5389-3.1417-2.2826-2.2249 3.1544-.4583z" stroke="none"/><path d="m145.2 105.2h9.6v9.6h-9.6z" fill="none"/><path d="m170 105.2 1.4107 2.8584 3.1544.4583-2.2826 2.2249.5389 3.1417-2.8214-1.4833-2.8214 1.4833.5389-3.1417-2.2826-2.2249 3.1544-.4583z" stroke="none"/><path d="m185.2 105.2h9.6v9.6h-9.6z" fill="none"/><path d="m205.2 105.2h9.6v9.6h-9.6z" fill="none"/><circle cx="230" cy="110" fill="none" r="4.8"/><path d="m85.2 125.2h9.6v9.6h-9.6z" fill="none"/><path d="m105.2 125.2h9.6v9.6h-9.6z" fill="none"/><path d="m130 125.2 1.4107 2.8584 3.1544.4583-2.2826 2.2249.5389 3.1417-2.8214-1.4833-2.8214 1.4833.5389-3.1417-2.2826-2.2249 3.1544-.4583z" stroke="none"/><path d="m145.2 125.2h9.6v9.6h-9.6z" fill="none"/><path d="m170 125.2 1.4107 2.8584 3.1544.4583-2.2826 2.2249.5389 3.1417-2.8214-1.4833-2.8214 1.4833.5389-3.1417-2.2826-2.2249 3.1544-.4583z" stroke="none"/><path d="m185.2 125.2h9.6v9.6h-9.6z" fill="none"/><path d="m205.2 125.2h9.6v9.6h-9.6z" fill="none"/><circle cx="230" cy="130" fill="none" r="4.8"/><path d="m25.2 145.2h9.6v9.6h-9.6z" fill="none"/><path d="m45.2 145.2 9.6 9.6" fill="none"/><path d="m45.2 154.8 9.6-9.6" fill="none"/><path d="m65.2 145.2h9.6v9.6h-9.6z" fill="none"/><path d="m85.2 145.2 9.6 9.6" fill="none"/><path d="m85.2 154.8 9.6-9.6" fill="none"/><path d="m105.2 145.2h9.6v9.6h-9.6z" fill="none"/><path d="m125.2 145.2h9.6v9.6h-9.6z" fill="none"/><path d="m145.2 145.2h9.6v9.6h-9.6z" fill="none"/><path d="m165.2 145.2h9.6v9.6h-9.6z" fill="none"/><path d="m185.2 145.2h9.6v9.6h-9.6z" fill="none"/><path d="m205.2 145.2h9.6v9.6h-9.6z" fill="none"/><circle cx="230" cy="150" fill="none" r="4.8"/><path d="m25.2 165.2h9.6v9.6h-9.6z" fill="none"/><path d="m45.2 165.2h9.6v9.6h-9.6z" fill="none"/><path d="m65.2 165.2h9.6v9.6h-9.6z" fill="none"/><path d="m85.2 165.2h9.6v9.6h-9.6z" fill="none"/><path d="m105.2 165.2h9.6v9.6h-9.6z" fill="none"/><path d="m125.2 165.2h9.6v9.6h-9.6z" fill="none"/><path d="m145.2 165.2h9.6v9.6h-9.6z" fill="none"/><path d="m165.2 165.2h9.6v9.6h-9.6z" fill="none"/><path d="m185.2 165.2h9.6v9.6h-9.6z" fill="none"/><path d="m205.2 165.2h9.6v9.6h-9.6z" fill="none"/><circle cx="230" cy="170" fill="none" r="4.8"/><circle cx="250" cy="170" fill="none" r="4.8"/><path d="m25.2 185.2h9.6v9.6h-9.6z" fill="none"/><path d="m50 185.6574-4.8 8.3139h9.6z" stroke="none"/><path d="m65.2 185.2h9.6v9.6h-9.6z" stroke="none"/><path d="m85.2 185.2h9.6v9.6h-9.6z" stroke="none"/><path d="m110 185.6574-4.8 8.3139h9.6z" stroke="none"/><path d="m130 185.6574-4.8 8.3139h9.6z" fill="none"/><path d="m145.2 185.2h9.6v9.6h-9.6z" fill="none"/><path d="m165.2 185.2h9.6v9.6h-9.6z" fill="none"/><path d="m185.2 185.2h9.6v9.6h-9.6z" fill="none"/><circle cx="210" cy="190" fill="none" r="4.8"/><circle cx="230" cy="190" fill="none" r="4.8"/><circle cx="250" cy="190" fill="none" r="4.8"/><path d="m70 205.6574-4.8 8.3139h9.6z" stroke="none"/><path d="m90 205.6574-4.8 8.3139h9.6z" stroke="none"/><path d="m110 205.6574-4.8 8.3139h9.6z" fill="none"/><path d="m130 205.6574-4.8 8.3139h9.6z" fill="none"/><path d="m150 205.6574-4.8 8.3139h9.6z" fill="none"/><path d="m170 205.6574-4.8 8.3139h9.6z" fill="none"/><circle cx="190" cy="210" fill="none" r="4.8"/><circle cx="210" cy="210" fill="none" r="4.8"/><circle cx="230" cy="210" fill="none" r="4.8"/><circle cx="250" cy="210" fill="none" r="4.8"/><circle cx="50" cy="230" fill="none" r="4.8"/><path d="m65.2 225.2h9.6v9.6h-9.6z" stroke="none"/><path d="m90 225.6574-4.8 8.3139h9.6z" fill="none"/><path d="m110 225.6574-4.8 8.3139h9.6z" fill="none"/><path d="m125.2 225.2h9.6v9.6h-9.6z" stroke="none"/><g fill="none"><path d="m150 225.6574-4.8 8.3139h9.6z"/><circle cx="170" cy="230" r="4.8"/><circle cx="190" cy="230" r="4.8"/><circle cx="210" cy="230" r="4.8"/><circle cx="230" cy="230" r="4.8"/><circle cx="250" cy="230" r="4.8"/><path d="m30 245.6574-4.8 8.3139h9.6z"/><path d="m50 245.6574-4.8 8.3139h9.6z"/><circle cx="70" cy="250" r="4.8"/><circle cx="90" cy="250" r="4.8"/><circle cx="110" cy="250" r="4.8"/><circle cx="130" cy="250" r="4.8"/><circle cx="150" cy="250" r="4.8"/><path d="m170 245.6574-4.8 8.3139h9.6z"/><path d="m190 245.6574-4.8 8.3139h9.6z"/><circle cx="210" cy="250" r="4.8"/><circle cx="230" cy="250" r="4.8"/><circle cx="250" cy="250" r="4.8"/><circle cx="270" cy="250" r="4.8"/><circle cx="30" cy="270" r="4.8"/><circle cx="50" cy="270" r="4.8"/><circle cx="70" cy="270" r="4.8"/><path d="m86.4 270h7.2"/><path d="m90 266.4v7.2"/><path d="m106.4 270h7.2"/><path d="m110 266.4v7.2"/><path d="m126.4 270h7.2"/><path d="m130 266.4v7.2"/><circle cx="150" cy="270" r="4.8"/><path d="m170 265.6574-4.8 8.3139h9.6z"/><path d="m190 265.6574-4.8 8.3139h9.6z"/><circle cx="210" cy="270" r="4.8"/><circle cx="230" cy="270" r="4.8"/><circle cx="250" cy="270" r="4.8"/><circle cx="270" cy="270" r="4.8"/><circle cx="290" cy="270" r="4.8"/><circle cx="310" cy="270" r="4.8"/><circle cx="50" cy="290" r="4.8"/><circle cx="70" cy="290" r="4.8"/><circle cx="90" cy="290" r="4.8"/><path d="m106.4 290h7.2"/><path d="m110 286.4v7.2"/><path d="m126.4 290h7.2"/><path d="m130 286.4v7.2"/><path d="m145.2 285.2h9.6v9.6h-9.6z"/><circle cx="170" cy="290" r="4.8"/><circle cx="190" cy="290" r="4.8"/><path d="m210 285.6574-4.8 8.3139h9.6z"/><circle cx="230" cy="290" r="4.8"/><circle cx="250" cy="290" r="4.8"/><path d="m265.2 285.2h9.6v9.6h-9.6z"/><path d="m285.2 285.2h9.6v9.6h-9.6z"/><path d="m305.2 285.2h9.6v9.6h-9.6z"/></g><path d="m50 305.2 4.8 4.8-4.8 4.8-4.8-4.8z" stroke="none"/><path d="m65.2 305.2 9.6 9.6" fill="none"/><path d="m65.2 314.8 9.6-9.6" fill="none"/><path d="m90 305.2 4.8 4.8-4.8 4.8-4.8-4.8z" stroke="none"/><circle cx="110" cy="310" fill="none" r="4.8"/><circle cx="130" cy="310" fill="none" r="4.8"/><path d="m165.2 305.2 9.6 9.6" fill="none"/><path d="m165.2 314.8 9.6-9.6" fill="none"/><path d="m190 305.2 4.8 4.8-4.8 4.8-4.8-4.8z" stroke="none"/><path d="m205.2 305.2 9.6 9.6" fill="none"/><path d="m205.2 314.8 9.6-9.6" fill="none"/><path d="m230 305.2 4.8 4.8-4.8 4.8-4.8-4.8z" stroke="none"/><circle cx="250" cy="310" fill="none" r="4.8"/><path d="m0 0v320" fill="none" stroke="#b4b4b4"/><path d="m20 0v320" fill="none" stroke="#b4b4b4" stroke-width="1"/><path d="m40 0v320" fill="none" stroke="#b4b4b4" stroke-width="1"/><path d="m60 0v320" fill="none" stroke="#b4b4b4" stroke-width="1"/><path d="m80 0v320" fill="none" stroke="#b4b4b4" stroke-width="1"/><path d="m100 0v320" fill="none" stroke="#b4b4b4" stroke-width="1"/><path d="m120 0v320" fill="none" stroke="#b4b4b4" stroke-width="1"/><path d="m140 0v320" fill="none" stroke="#b4b4b4" stroke-width="1"/><path d="m160 0v320" fill="none" stroke="#b4b4b4" stroke-width="1"/><path d="m180 0v320" fill="none" stroke="#b4b4b4" stroke-width="1"/><path d="m200 0v320" fill="none" stroke="#b4b4b4" stroke-width="1"/><path d="m220 0v320" fill="none" stroke="#b4b4b4" stroke-width="1"/><path d="m240 0v320" fill="none" stroke="#b4b4b4" stroke-width="1"/><path d="m260 0v320" fill="none" stroke="#b4b4b4" stroke-width="1"/><path d="m280 0v320" fill="none" stroke="#b4b4b4" stroke-width="1"/><path d="m300 0v320" fill="none" stroke="#b4b4b4" stroke-width="1"/><path d="m320 0v320" fill="none" stroke="#b4b4b4"/><path d="m0 0h320" fill="none" stroke="#b4b4b4"/><path d="m0 20h320" fill="none" stroke="#b4b4b4" stroke-width="1"/><path d="m0 40h320" fill="none" stroke="#b4b4b4" stroke-width="1"/><path d="m0 60h320" fill="none" stroke="#b4b4b4" stroke-width="1"/><path d="m0 80h320" fill="none" stroke="#b4b4b4" stroke-width="1"/><path d="m0 100h320" fill="none" stroke="#b4b4b4" stroke-width="1"/><path d="m0 120h320" fill="none" stroke="#b4b4b4" stroke-width="1"/><path d="m0 140h320" fill="none" stroke="#b4b4b4" stroke-width="1"/><path d="m0 160h320" fill="none" stroke="#b4b4b4" stroke-width="1"/><path d="m0 180h320" fill="none" stroke="#b4b4b4" stroke-width="1"/><path d="m0 200h320" fill="none" stroke="#b4b4b4" stroke-width="1"/><path d="m0 220h320" fill="none" stroke="#b4b4b4" stroke-width="1"/><path d="m0 240h320" fill="none" stroke="#b4b4b4" stroke-width="1"/><path d="m0 260h320" fill="none" stroke="#b4b4b4" stroke-width="1"/><path d="m0 280h320" fill="none" stroke="#b4b4b4" stroke-width="1"/><path d="m0 300h320" fill="none" stroke="#b4b4b4" stroke-width="1"/><path d="m0 320h320" fill="none" stroke="#b4b4b4"/></g></g></svg>