<svg color-interpolation="auto" height="320" stroke="#000" stroke-linecap="square" stroke-miterlimit="10" width="320" xmlns="http://www.w3.org/2000/svg"><path d="m7.4-3.6c2.4 0 3.6 1.2 3.6 3.6 0 2.4-1.2 3.6-3.6 3.6h-14.8c-2.4 0-3.6-1.2-3.6-3.6 0-2.4 1.2-3.6 3.6-3.6z" fill="#cbcbcb" stroke="none" transform="matrix(.70710678 .70710678 -.70710678 .70710678 130 10)"/><g stroke-linecap="round" stroke-width=".2"><path d="m7.4-3.6c2.4 0 3.6 1.2 3.6 3.6 0 2.4-1.2 3.6-3.6 3.6h-14.8c-2.4 0-3.6-1.2-3.6-3.6 0-2.4 1.2-3.6 3.6-3.6z" fill="none" stroke="#fff" transform="matrix(.70710678 .70710678 -.70710678 .70710678 130 10)"/><g fill="#cbcbcb" stroke="#cbcbcb" transform="matrix(.70710678 .70710678 -.70710678 .70710678 150 10)"><path d="m7.4-3.6c2.4 0 3.6 1.2 3.6 3.6 0 2.4-1.2 3.6-3.6 3.6h-14.8c-2.4 0-3.6-1.2-3.6-3.6 0-2.4 1.2-3.6 3.6-3.6z" stroke="none"/><path d="m7.4-3.6c2.4 0 3.6 1.2 3.6 3.6 0 2.4-1.2 3.6-3.6 3.6h-14.8c-2.4 0-3.6-1.2-3.6-3.6 0-2.4 1.2-3.6 3.6-3.6z" fill="none" stroke="#fff"/></g><g fill="#cbcbcb" stroke="#cbcbcb" transform="matrix(.70710678 .70710678 -.70710678 .70710678 130 30)"><path d="m7.4-3.6c2.4 0 3.6 1.2 3.6 3.6 0 2.4-1.2 3.6-3.6 3.6h-14.8c-2.4 0-3.6-1.2-3.6-3.6 0-2.4 1.2-3.6 3.6-3.6z" stroke="none"/><path d="m7.4-3.6c2.4 0 3.6 1.2 3.6 3.6 0 2.4-1.2 3.6-3.6 3.6h-14.8c-2.4 0-3.6-1.2-3.6-3.6 0-2.4 1.2-3.6 3.6-3.6z" fill="none" stroke="#fff"/></g><g fill="#cbcbcb" stroke="#cbcbcb" transform="matrix(.70710678 .70710678 -.70710678 .70710678 150 30)"><path d="m7.4-3.6c2.4 0 3.6 1.2 3.6 3.6 0 2.4-1.2 3.6-3.6 3.6h-14.8c-2.4 0-3.6-1.2-3.6-3.6 0-2.4 1.2-3.6 3.6-3.6z" stroke="none"/><path d="m7.4-3.6c2.4 0 3.6 1.2 3.6 3.6 0 2.4-1.2 3.6-3.6 3.6h-14.8c-2.4 0-3.6-1.2-3.6-3.6 0-2.4 1.2-3.6 3.6-3.6z" fill="none" stroke="#fff"/></g><g fill="#cbcbcb" stroke="#cbcbcb" transform="matrix(.70710678 .70710678 -.70710678 .70710678 190 30)"><path d="m7.4-3.6c2.4 0 3.6 1.2 3.6 3.6 0 2.4-1.2 3.6-3.6 3.6h-14.8c-2.4 0-3.6-1.2-3.6-3.6 0-2.4 1.2-3.6 3.6-3.6z" stroke="none"/><path d="m7.4-3.6c2.4 0 3.6 1.2 3.6 3.6 0 2.4-1.2 3.6-3.6 3.6h-14.8c-2.4 0-3.6-1.2-3.6-3.6 0-2.4 1.2-3.6 3.6-3.6z" fill="none" stroke="#fff"/></g><g fill="#cbcbcb" stroke="#cbcbcb" transform="matrix(.70710678 .70710678 -.70710678 .70710678 150 50)"><path d="m7.4-3.6c2.4 0 3.6 1.2 3.6 3.6 0 2.4-1.2 3.6-3.6 3.6h-14.8c-2.4 0-3.6-1.2-3.6-3.6 0-2.4 1.2-3.6 3.6-3.6z" stroke="none"/><path d="m7.4-3.6c2.4 0 3.6 1.2 3.6 3.6 0 2.4-1.2 3.6-3.6 3.6h-14.8c-2.4 0-3.6-1.2-3.6-3.6 0-2.4 1.2-3.6 3.6-3.6z" fill="none" stroke="#fff"/></g><g fill="#cbcbcb" stroke="#cbcbcb" transform="matrix(.70710678 .70710678 -.70710678 .70710678 170 50)"><path d="m7.4-3.6c2.4 0 3.6 1.2 3.6 3.6 0 2.4-1.2 3.6-3.6 3.6h-14.8c-2.4 0-3.6-1.2-3.6-3.6 0-2.4 1.2-3.6 3.6-3.6z" stroke="none"/><path d="m7.4-3.6c2.4 0 3.6 1.2 3.6 3.6 0 2.4-1.2 3.6-3.6 3.6h-14.8c-2.4 0-3.6-1.2-3.6-3.6 0-2.4 1.2-3.6 3.6-3.6z" fill="none" stroke="#fff"/></g><g fill="#cbcbcb" stroke="#cbcbcb" transform="matrix(.70710678 .70710678 -.70710678 .70710678 190 50)"><path d="m7.4-3.6c2.4 0 3.6 1.2 3.6 3.6 0 2.4-1.2 3.6-3.6 3.6h-14.8c-2.4 0-3.6-1.2-3.6-3.6 0-2.4 1.2-3.6 3.6-3.6z" stroke="none"/><path d="m7.4-3.6c2.4 0 3.6 1.2 3.6 3.6 0 2.4-1.2 3.6-3.6 3.6h-14.8c-2.4 0-3.6-1.2-3.6-3.6 0-2.4 1.2-3.6 3.6-3.6z" fill="none" stroke="#fff"/></g><g fill="#c1c1c1" stroke="#c1c1c1" transform="matrix(.70710678 .70710678 -.70710678 .70710678 130 70)"><path d="m7.4-3.6c2.4 0 3.6 1.2 3.6 3.6 0 2.4-1.2 3.6-3.6 3.6h-14.8c-2.4 0-3.6-1.2-3.6-3.6 0-2.4 1.2-3.6 3.6-3.6z" stroke="none"/><path d="m7.4-3.6c2.4 0 3.6 1.2 3.6 3.6 0 2.4-1.2 3.6-3.6 3.6h-14.8c-2.4 0-3.6-1.2-3.6-3.6 0-2.4 1.2-3.6 3.6-3.6z" fill="none" stroke="#fff"/></g><g fill="#c1c1c1" stroke="#c1c1c1" transform="matrix(.70710678 .70710678 -.70710678 .70710678 150 70)"><path d="m7.4-3.6c2.4 0 3.6 1.2 3.6 3.6 0 2.4-1.2 3.6-3.6 3.6h-14.8c-2.4 0-3.6-1.2-3.6-3.6 0-2.4 1.2-3.6 3.6-3.6z" stroke="none"/><path d="m7.4-3.6c2.4 0 3.6 1.2 3.6 3.6 0 2.4-1.2 3.6-3.6 3.6h-14.8c-2.4 0-3.6-1.2-3.6-3.6 0-2.4 1.2-3.6 3.6-3.6z" fill="none" stroke="#fff"/></g><g fill="#c1c1c1" stroke="#c1c1c1" transform="matrix(.70710678 .70710678 -.70710678 .70710678 170 70)"><path d="m7.4-3.6c2.4 0 3.6 1.2 3.6 3.6 0 2.4-1.2 3.6-3.6 3.6h-14.8c-2.4 0-3.6-1.2-3.6-3.6 0-2.4 1.2-3.6 3.6-3.6z" stroke="none"/><path d="m7.4-3.6c2.4 0 3.6 1.2 3.6 3.6 0 2.4-1.2 3.6-3.6 3.6h-14.8c-2.4 0-3.6-1.2-3.6-3.6 0-2.4 1.2-3.6 3.6-3.6z" fill="none" stroke="#fff"/></g><g fill="#4b4b4b" stroke="#4b4b4b" transform="matrix(.70710678 .70710678 -.70710678 .70710678 190 70)"><path d="m7.4-3.6c2.4 0 3.6 1.2 3.6 3.6 0 2.4-1.2 3.6-3.6 3.6h-14.8c-2.4 0-3.6-1.2-3.6-3.6 0-2.4 1.2-3.6 3.6-3.6z" stroke="none"/><path d="m7.4-3.6c2.4 0 3.6 1.2 3.6 3.6 0 2.4-1.2 3.6-3.6 3.6h-14.8c-2.4 0-3.6-1.2-3.6-3.6 0-2.4 1.2-3.6 3.6-3.6z" fill="none" stroke="#fff"/></g><g fill="#c1c1c1" stroke="#c1c1c1" transform="matrix(.70710678 .70710678 -.70710678 .70710678 110 90)"><path d="m7.4-3.6c2.4 0 3.6 1.2 3.6 3.6 0 2.4-1.2 3.6-3.6 3.6h-14.8c-2.4 0-3.6-1.2-3.6-3.6 0-2.4 1.2-3.6 3.6-3.6z" stroke="none"/><path d="m7.4-3.6c2.4 0 3.6 1.2 3.6 3.6 0 2.4-1.2 3.6-3.6 3.6h-14.8c-2.4 0-3.6-1.2-3.6-3.6 0-2.4 1.2-3.6 3.6-3.6z" fill="none" stroke="#fff"/></g><g fill="#c1c1c1" stroke="#c1c1c1" transform="matrix(.70710678 .70710678 -.70710678 .70710678 130 90)"><path d="m7.4-3.6c2.4 0 3.6 1.2 3.6 3.6 0 2.4-1.2 3.6-3.6 3.6h-14.8c-2.4 0-3.6-1.2-3.6-3.6 0-2.4 1.2-3.6 3.6-3.6z" stroke="none"/><path d="m7.4-3.6c2.4 0 3.6 1.2 3.6 3.6 0 2.4-1.2 3.6-3.6 3.6h-14.8c-2.4 0-3.6-1.2-3.6-3.6 0-2.4 1.2-3.6 3.6-3.6z" fill="none" stroke="#fff"/></g><g fill="#c1c1c1" stroke="#c1c1c1" transform="matrix(.70710678 .70710678 -.70710678 .70710678 150 90)"><path d="m7.4-3.6c2.4 0 3.6 1.2 3.6 3.6 0 2.4-1.2 3.6-3.6 3.6h-14.8c-2.4 0-3.6-1.2-3.6-3.6 0-2.4 1.2-3.6 3.6-3.6z" stroke="none"/><path d="m7.4-3.6c2.4 0 3.6 1.2 3.6 3.6 0 2.4-1.2 3.6-3.6 3.6h-14.8c-2.4 0-3.6-1.2-3.6-3.6 0-2.4 1.2-3.6 3.6-3.6z" fill="none" stroke="#fff"/></g><g fill="#c1c1c1" stroke="#c1c1c1" transform="matrix(.70710678 .70710678 -.70710678 .70710678 170 90)"><path d="m7.4-3.6c2.4 0 3.6 1.2 3.6 3.6 0 2.4-1.2 3.6-3.6 3.6h-14.8c-2.4 0-3.6-1.2-3.6-3.6 0-2.4 1.2-3.6 3.6-3.6z" stroke="none"/><path d="m7.4-3.6c2.4 0 3.6 1.2 3.6 3.6 0 2.4-1.2 3.6-3.6 3.6h-14.8c-2.4 0-3.6-1.2-3.6-3.6 0-2.4 1.2-3.6 3.6-3.6z" fill="none" stroke="#fff"/></g><g fill="#c1c1c1" stroke="#c1c1c1" transform="matrix(.70710678 .70710678 -.70710678 .70710678 190 90)"><path d="m7.4-3.6c2.4 0 3.6 1.2 3.6 3.6 0 2.4-1.2 3.6-3.6 3.6h-14.8c-2.4 0-3.6-1.2-3.6-3.6 0-2.4 1.2-3.6 3.6-3.6z" stroke="none"/><path d="m7.4-3.6c2.4 0 3.6 1.2 3.6 3.6 0 2.4-1.2 3.6-3.6 3.6h-14.8c-2.4 0-3.6-1.2-3.6-3.6 0-2.4 1.2-3.6 3.6-3.6z" fill="none" stroke="#fff"/></g><g fill="#4b4b4b" stroke="#4b4b4b" transform="matrix(.70710678 .70710678 -.70710678 .70710678 210 90)"><path d="m7.4-3.6c2.4 0 3.6 1.2 3.6 3.6 0 2.4-1.2 3.6-3.6 3.6h-14.8c-2.4 0-3.6-1.2-3.6-3.6 0-2.4 1.2-3.6 3.6-3.6z" stroke="none"/><path d="m7.4-3.6c2.4 0 3.6 1.2 3.6 3.6 0 2.4-1.2 3.6-3.6 3.6h-14.8c-2.4 0-3.6-1.2-3.6-3.6 0-2.4 1.2-3.6 3.6-3.6z" fill="none" stroke="#fff"/></g><g fill="#c1c1c1" stroke="#c1c1c1" transform="matrix(.70710678 .70710678 -.70710678 .70710678 90 110)"><path d="m7.4-3.6c2.4 0 3.6 1.2 3.6 3.6 0 2.4-1.2 3.6-3.6 3.6h-14.8c-2.4 0-3.6-1.2-3.6-3.6 0-2.4 1.2-3.6 3.6-3.6z" stroke="none"/><path d="m7.4-3.6c2.4 0 3.6 1.2 3.6 3.6 0 2.4-1.2 3.6-3.6 3.6h-14.8c-2.4 0-3.6-1.2-3.6-3.6 0-2.4 1.2-3.6 3.6-3.6z" fill="none" stroke="#fff"/></g><g fill="#c1c1c1" stroke="#c1c1c1" transform="matrix(.70710678 .70710678 -.70710678 .70710678 110 110)"><path d="m7.4-3.6c2.4 0 3.6 1.2 3.6 3.6 0 2.4-1.2 3.6-3.6 3.6h-14.8c-2.4 0-3.6-1.2-3.6-3.6 0-2.4 1.2-3.6 3.6-3.6z" stroke="none"/><path d="m7.4-3.6c2.4 0 3.6 1.2 3.6 3.6 0 2.4-1.2 3.6-3.6 3.6h-14.8c-2.4 0-3.6-1.2-3.6-3.6 0-2.4 1.2-3.6 3.6-3.6z" fill="none" stroke="#fff"/></g><g fill="#1b1b1b" stroke="#1b1b1b" transform="matrix(.70710678 .70710678 -.70710678 .70710678 130 110)"><path d="m7.4-3.6c2.4 0 3.6 1.2 3.6 3.6 0 2.4-1.2 3.6-3.6 3.6h-14.8c-2.4 0-3.6-1.2-3.6-3.6 0-2.4 1.2-3.6 3.6-3.6z" stroke="none"/><path d="m7.4-3.6c2.4 0 3.6 1.2 3.6 3.6 0 2.4-1.2 3.6-3.6 3.6h-14.8c-2.4 0-3.6-1.2-3.6-3.6 0-2.4 1.2-3.6 3.6-3.6z" fill="none" stroke="#fff"/></g><g fill="#c1c1c1" stroke="#c1c1c1" transform="matrix(.70710678 .70710678 -.70710678 .70710678 150 110)"><path d="m7.4-3.6c2.4 0 3.6 1.2 3.6 3.6 0 2.4-1.2 3.6-3.6 3.6h-14.8c-2.4 0-3.6-1.2-3.6-3.6 0-2.4 1.2-3.6 3.6-3.6z" stroke="none"/><path d="m7.4-3.6c2.4 0 3.6 1.2 3.6 3.6 0 2.4-1.2 3.6-3.6 3.6h-14.8c-2.4 0-3.6-1.2-3.6-3.6 0-2.4 1.2-3.6 3.6-3.6z" fill="none" stroke="#fff"/></g><g fill="#1b1b1b" stroke="#1b1b1b" transform="matrix(.70710678 .70710678 -.70710678 .70710678 170 110)"><path d="m7.4-3.6c2.4 0 3.6 1.2 3.6 3.6 0 2.4-1.2 3.6-3.6 3.6h-14.8c-2.4 0-3.6-1.2-3.6-3.6 0-2.4 1.2-3.6 3.6-3.6z" stroke="none"/><path d="m7.4-3.6c2.4 0 3.6 1.2 3.6 3.6 0 2.4-1.2 3.6-3.6 3.6h-14.8c-2.4 0-3.6-1.2-3.6-3.6 0-2.4 1.2-3.6 3.6-3.6z" fill="none" stroke="#fff"/></g><g fill="#c1c1c1" stroke="#c1c1c1" transform="matrix(.70710678 .70710678 -.70710678 .70710678 190 110)"><path d="m7.4-3.6c2.4 0 3.6 1.2 3.6 3.6 0 2.4-1.2 3.6-3.6 3.6h-14.8c-2.4 0-3.6-1.2-3.6-3.6 0-2.4 1.2-3.6 3.6-3.6z" stroke="none"/><path d="m7.4-3.6c2.4 0 3.6 1.2 3.6 3.6 0 2.4-1.2 3.6-3.6 3.6h-14.8c-2.4 0-3.6-1.2-3.6-3.6 0-2.4 1.2-3.6 3.6-3.6z" fill="none" stroke="#fff"/></g><g fill="#c1c1c1" stroke="#c1c1c1" transform="matrix(.70710678 .70710678 -.70710678 .70710678 210 110)"><path d="m7.4-3.6c2.4 0 3.6 1.2 3.6 3.6 0 2.4-1.2 3.6-3.6 3.6h-14.8c-2.4 0-3.6-1.2-3.6-3.6 0-2.4 1.2-3.6 3.6-3.6z" stroke="none"/><path d="m7.4-3.6c2.4 0 3.6 1.2 3.6 3.6 0 2.4-1.2 3.6-3.6 3.6h-14.8c-2.4 0-3.6-1.2-3.6-3.6 0-2.4 1.2-3.6 3.6-3.6z" fill="none" stroke="#fff"/></g><g fill="#4b4b4b" stroke="#4b4b4b" transform="matrix(.70710678 .70710678 -.70710678 .70710678 230 110)"><path d="m7.4-3.6c2.4 0 3.6 1.2 3.6 3.6 0 2.4-1.2 3.6-3.6 3.6h-14.8c-2.4 0-3.6-1.2-3.6-3.6 0-2.4 1.2-3.6 3.6-3.6z" stroke="none"/><path d="m7.4-3.6c2.4 0 3.6 1.2 3.6 3.6 0 2.4-1.2 3.6-3.6 3.6h-14.8c-2.4 0-3.6-1.2-3.6-3.6 0-2.4 1.2-3.6 3.6-3.6z" fill="none" stroke="#fff"/></g><g fill="#c1c1c1" stroke="#c1c1c1" transform="matrix(.70710678 .70710678 -.70710678 .70710678 90 130)"><path d="m7.4-3.6c2.4 0 3.6 1.2 3.6 3.6 0 2.4-1.2 3.6-3.6 3.6h-14.8c-2.4 0-3.6-1.2-3.6-3.6 0-2.4 1.2-3.6 3.6-3.6z" stroke="none"/><path d="m7.4-3.6c2.4 0 3.6 1.2 3.6 3.6 0 2.4-1.2 3.6-3.6 3.6h-14.8c-2.4 0-3.6-1.2-3.6-3.6 0-2.4 1.2-3.6 3.6-3.6z" fill="none" stroke="#fff"/></g><g fill="#c1c1c1" stroke="#c1c1c1" transform="matrix(.70710678 .70710678 -.70710678 .70710678 110 130)"><path d="m7.4-3.6c2.4 0 3.6 1.2 3.6 3.6 0 2.4-1.2 3.6-3.6 3.6h-14.8c-2.4 0-3.6-1.2-3.6-3.6 0-2.4 1.2-3.6 3.6-3.6z" stroke="none"/><path d="m7.4-3.6c2.4 0 3.6 1.2 3.6 3.6 0 2.4-1.2 3.6-3.6 3.6h-14.8c-2.4 0-3.6-1.2-3.6-3.6 0-2.4 1.2-3.6 3.6-3.6z" fill="none" stroke="#fff"/></g><g fill="#1b1b1b" stroke="#1b1b1b" transform="matrix(.70710678 .70710678 -.70710678 .70710678 130 130)"><path d="m7.4-3.6c2.4 0 3.6 1.2 3.6 3.6 0 2.4-1.2 3.6-3.6 3.6h-14.8c-2.4 0-3.6-1.2-3.6-3.6 0-2.4 1.2-3.6 3.6-3.6z" stroke="none"/><path d="m7.4-3.6c2.4 0 3.6 1.2 3.6 3.6 0 2.4-1.2 3.6-3.6 3.6h-14.8c-2.4 0-3.6-1.2-3.6-3.6 0-2.4 1.2-3.6 3.6-3.6z" fill="none" stroke="#fff"/></g><g fill="#c1c1c1" stroke="#c1c1c1" transform="matrix(.70710678 .70710678 -.70710678 .70710678 150 130)"><path d="m7.4-3.6c2.4 0 3.6 1.2 3.6 3.6 0 2.4-1.2 3.6-3.6 3.6h-14.8c-2.4 0-3.6-1.2-3.6-3.6 0-2.4 1.2-3.6 3.6-3.6z" stroke="none"/><path d="m7.4-3.6c2.4 0 3.6 1.2 3.6 3.6 0 2.4-1.2 3.6-3.6 3.6h-14.8c-2.4 0-3.6-1.2-3.6-3.6 0-2.4 1.2-3.6 3.6-3.6z" fill="none" stroke="#fff"/></g><g fill="#1b1b1b" stroke="#1b1b1b" transform="matrix(.70710678 .70710678 -.70710678 .70710678 170 130)"><path d="m7.4-3.6c2.4 0 3.6 1.2 3.6 3.6 0 2.4-1.2 3.6-3.6 3.6h-14.8c-2.4 0-3.6-1.2-3.6-3.6 0-2.4 1.2-3.6 3.6-3.6z" stroke="none"/><path d="m7.4-3.6c2.4 0 3.6 1.2 3.6 3.6 0 2.4-1.2 3.6-3.6 3.6h-14.8c-2.4 0-3.6-1.2-3.6-3.6 0-2.4 1.2-3.6 3.6-3.6z" fill="none" stroke="#fff"/></g><g fill="#c1c1c1" stroke="#c1c1c1" transform="matrix(.70710678 .70710678 -.70710678 .70710678 190 130)"><path d="m7.4-3.6c2.4 0 3.6 1.2 3.6 3.6 0 2.4-1.2 3.6-3.6 3.6h-14.8c-2.4 0-3.6-1.2-3.6-3.6 0-2.4 1.2-3.6 3.6-3.6z" stroke="none"/><path d="m7.4-3.6c2.4 0 3.6 1.2 3.6 3.6 0 2.4-1.2 3.6-3.6 3.6h-14.8c-2.4 0-3.6-1.2-3.6-3.6 0-2.4 1.2-3.6 3.6-3.6z" fill="none" stroke="#fff"/></g><g fill="#c1c1c1" stroke="#c1c1c1" transform="matrix(.70710678 .70710678 -.70710678 .70710678 210 130)"><path d="m7.4-3.6c2.4 0 3.6 1.2 3.6 3.6 0 2.4-1.2 3.6-3.6 3.6h-14.8c-2.4 0-3.6-1.2-3.6-3.6 0-2.4 1.2-3.6 3.6-3.6z" stroke="none"/><path d="m7.4-3.6c2.4 0 3.6 1.2 3.6 3.6 0 2.4-1.2 3.6-3.6 3.6h-14.8c-2.4 0-3.6-1.2-3.6-3.6 0-2.4 1.2-3.6 3.6-3.6z" fill="none" stroke="#fff"/></g><g fill="#4b4b4b" stroke="#4b4b4b" transform="matrix(.70710678 .70710678 -.70710678 .70710678 230 130)"><path d="m7.4-3.6c2.4 0 3.6 1.2 3.6 3.6 0 2.4-1.2 3.6-3.6 3.6h-14.8c-2.4 0-3.6-1.2-3.6-3.6 0-2.4 1.2-3.6 3.6-3.6z" stroke="none"/><path d="m7.4-3.6c2.4 0 3.6 1.2 3.6 3.6 0 2.4-1.2 3.6-3.6 3.6h-14.8c-2.4 0-3.6-1.2-3.6-3.6 0-2.4 1.2-3.6 3.6-3.6z" fill="none" stroke="#fff"/></g><g fill="#c1c1c1" stroke="#c1c1c1" transform="matrix(.70710678 .70710678 -.70710678 .70710678 30 150)"><path d="m7.4-3.6c2.4 0 3.6 1.2 3.6 3.6 0 2.4-1.2 3.6-3.6 3.6h-14.8c-2.4 0-3.6-1.2-3.6-3.6 0-2.4 1.2-3.6 3.6-3.6z" stroke="none"/><path d="m7.4-3.6c2.4 0 3.6 1.2 3.6 3.6 0 2.4-1.2 3.6-3.6 3.6h-14.8c-2.4 0-3.6-1.2-3.6-3.6 0-2.4 1.2-3.6 3.6-3.6z" fill="none" stroke="#fff"/></g><g fill="#444" stroke="#444" transform="matrix(.70710678 .70710678 -.70710678 .70710678 50 150)"><path d="m7.4-3.6c2.4 0 3.6 1.2 3.6 3.6 0 2.4-1.2 3.6-3.6 3.6h-14.8c-2.4 0-3.6-1.2-3.6-3.6 0-2.4 1.2-3.6 3.6-3.6z" stroke="none"/><path d="m7.4-3.6c2.4 0 3.6 1.2 3.6 3.6 0 2.4-1.2 3.6-3.6 3.6h-14.8c-2.4 0-3.6-1.2-3.6-3.6 0-2.4 1.2-3.6 3.6-3.6z" fill="none" stroke="#fff"/></g><g fill="#c1c1c1" stroke="#c1c1c1" transform="matrix(.70710678 .70710678 -.70710678 .70710678 70 150)"><path d="m7.4-3.6c2.4 0 3.6 1.2 3.6 3.6 0 2.4-1.2 3.6-3.6 3.6h-14.8c-2.4 0-3.6-1.2-3.6-3.6 0-2.4 1.2-3.6 3.6-3.6z" stroke="none"/><path d="m7.4-3.6c2.4 0 3.6 1.2 3.6 3.6 0 2.4-1.2 3.6-3.6 3.6h-14.8c-2.4 0-3.6-1.2-3.6-3.6 0-2.4 1.2-3.6 3.6-3.6z" fill="none" stroke="#fff"/></g><g fill="#444" stroke="#444" transform="matrix(.70710678 .70710678 -.70710678 .70710678 90 150)"><path d="m7.4-3.6c2.4 0 3.6 1.2 3.6 3.6 0 2.4-1.2 3.6-3.6 3.6h-14.8c-2.4 0-3.6-1.2-3.6-3.6 0-2.4 1.2-3.6 3.6-3.6z" stroke="none"/><path d="m7.4-3.6c2.4 0 3.6 1.2 3.6 3.6 0 2.4-1.2 3.6-3.6 3.6h-14.8c-2.4 0-3.6-1.2-3.6-3.6 0-2.4 1.2-3.6 3.6-3.6z" fill="none" stroke="#fff"/></g><g fill="#c1c1c1" stroke="#c1c1c1" transform="matrix(.70710678 .70710678 -.70710678 .70710678 110 150)"><path d="m7.4-3.6c2.4 0 3.6 1.2 3.6 3.6 0 2.4-1.2 3.6-3.6 3.6h-14.8c-2.4 0-3.6-1.2-3.6-3.6 0-2.4 1.2-3.6 3.6-3.6z" stroke="none"/><path d="m7.4-3.6c2.4 0 3.6 1.2 3.6 3.6 0 2.4-1.2 3.6-3.6 3.6h-14.8c-2.4 0-3.6-1.2-3.6-3.6 0-2.4 1.2-3.6 3.6-3.6z" fill="none" stroke="#fff"/></g><g fill="#c1c1c1" stroke="#c1c1c1" transform="matrix(.70710678 .70710678 -.70710678 .70710678 130 150)"><path d="m7.4-3.6c2.4 0 3.6 1.2 3.6 3.6 0 2.4-1.2 3.6-3.6 3.6h-14.8c-2.4 0-3.6-1.2-3.6-3.6 0-2.4 1.2-3.6 3.6-3.6z" stroke="none"/><path d="m7.4-3.6c2.4 0 3.6 1.2 3.6 3.6 0 2.4-1.2 3.6-3.6 3.6h-14.8c-2.4 0-3.6-1.2-3.6-3.6 0-2.4 1.2-3.6 3.6-3.6z" fill="none" stroke="#fff"/></g><g fill="#c1c1c1" stroke="#c1c1c1" transform="matrix(.70710678 .70710678 -.70710678 .70710678 150 150)"><path d="m7.4-3.6c2.4 0 3.6 1.2 3.6 3.6 0 2.4-1.2 3.6-3.6 3.6h-14.8c-2.4 0-3.6-1.2-3.6-3.6 0-2.4 1.2-3.6 3.6-3.6z" stroke="none"/><path d="m7.4-3.6c2.4 0 3.6 1.2 3.6 3.6 0 2.4-1.2 3.6-3.6 3.6h-14.8c-2.4 0-3.6-1.2-3.6-3.6 0-2.4 1.2-3.6 3.6-3.6z" fill="none" stroke="#fff"/></g><g fill="#c1c1c1" stroke="#c1c1c1" transform="matrix(.70710678 .70710678 -.70710678 .70710678 170 150)"><path d="m7.4-3.6c2.4 0 3.6 1.2 3.6 3.6 0 2.4-1.2 3.6-3.6 3.6h-14.8c-2.4 0-3.6-1.2-3.6-3.6 0-2.4 1.2-3.6 3.6-3.6z" stroke="none"/><path d="m7.4-3.6c2.4 0 3.6 1.2 3.6 3.6 0 2.4-1.2 3.6-3.6 3.6h-14.8c-2.4 0-3.6-1.2-3.6-3.6 0-2.4 1.2-3.6 3.6-3.6z" fill="none" stroke="#fff"/></g><g fill="#c1c1c1" stroke="#c1c1c1" transform="matrix(.70710678 .70710678 -.70710678 .70710678 190 150)"><path d="m7.4-3.6c2.4 0 3.6 1.2 3.6 3.6 0 2.4-1.2 3.6-3.6 3.6h-14.8c-2.4 0-3.6-1.2-3.6-3.6 0-2.4 1.2-3.6 3.6-3.6z" stroke="none"/><path d="m7.4-3.6c2.4 0 3.6 1.2 3.6 3.6 0 2.4-1.2 3.6-3.6 3.6h-14.8c-2.4 0-3.6-1.2-3.6-3.6 0-2.4 1.2-3.6 3.6-3.6z" fill="none" stroke="#fff"/></g><g fill="#c1c1c1" stroke="#c1c1c1" transform="matrix(.70710678 .70710678 -.70710678 .70710678 210 150)"><path d="m7.4-3.6c2.4 0 3.6 1.2 3.6 3.6 0 2.4-1.2 3.6-3.6 3.6h-14.8c-2.4 0-3.6-1.2-3.6-3.6 0-2.4 1.2-3.6 3.6-3.6z" stroke="none"/><path d="m7.4-3.6c2.4 0 3.6 1.2 3.6 3.6 0 2.4-1.2 3.6-3.6 3.6h-14.8c-2.4 0-3.6-1.2-3.6-3.6 0-2.4 1.2-3.6 3.6-3.6z" fill="none" stroke="#fff"/></g><g fill="#4b4b4b" stroke="#4b4b4b" transform="matrix(.70710678 .70710678 -.70710678 .70710678 230 150)"><path d="m7.4-3.6c2.4 0 3.6 1.2 3.6 3.6 0 2.4-1.2 3.6-3.6 3.6h-14.8c-2.4 0-3.6-1.2-3.6-3.6 0-2.4 1.2-3.6 3.6-3.6z" stroke="none"/><path d="m7.4-3.6c2.4 0 3.6 1.2 3.6 3.6 0 2.4-1.2 3.6-3.6 3.6h-14.8c-2.4 0-3.6-1.2-3.6-3.6 0-2.4 1.2-3.6 3.6-3.6z" fill="none" stroke="#fff"/></g><g fill="#c1c1c1" stroke="#c1c1c1" transform="matrix(.70710678 .70710678 -.70710678 .70710678 30 170)"><path d="m7.4-3.6c2.4 0 3.6 1.2 3.6 3.6 0 2.4-1.2 3.6-3.6 3.6h-14.8c-2.4 0-3.6-1.2-3.6-3.6 0-2.4 1.2-3.6 3.6-3.6z" stroke="none"/><path d="m7.4-3.6c2.4 0 3.6 1.2 3.6 3.6 0 2.4-1.2 3.6-3.6 3.6h-14.8c-2.4 0-3.6-1.2-3.6-3.6 0-2.4 1.2-3.6 3.6-3.6z" fill="none" stroke="#fff"/></g><g fill="#c1c1c1" stroke="#c1c1c1" transform="matrix(.70710678 .70710678 -.70710678 .70710678 50 170)"><path d="m7.4-3.6c2.4 0 3.6 1.2 3.6 3.6 0 2.4-1.2 3.6-3.6 3.6h-14.8c-2.4 0-3.6-1.2-3.6-3.6 0-2.4 1.2-3.6 3.6-3.6z" stroke="none"/><path d="m7.4-3.6c2.4 0 3.6 1.2 3.6 3.6 0 2.4-1.2 3.6-3.6 3.6h-14.8c-2.4 0-3.6-1.2-3.6-3.6 0-2.4 1.2-3.6 3.6-3.6z" fill="none" stroke="#fff"/></g><g fill="#c1c1c1" stroke="#c1c1c1" transform="matrix(.70710678 .70710678 -.70710678 .70710678 70 170)"><path d="m7.4-3.6c2.4 0 3.6 1.2 3.6 3.6 0 2.4-1.2 3.6-3.6 3.6h-14.8c-2.4 0-3.6-1.2-3.6-3.6 0-2.4 1.2-3.6 3.6-3.6z" stroke="none"/><path d="m7.4-3.6c2.4 0 3.6 1.2 3.6 3.6 0 2.4-1.2 3.6-3.6 3.6h-14.8c-2.4 0-3.6-1.2-3.6-3.6 0-2.4 1.2-3.6 3.6-3.6z" fill="none" stroke="#fff"/></g><g fill="#c1c1c1" stroke="#c1c1c1" transform="matrix(.70710678 .70710678 -.70710678 .70710678 90 170)"><path d="m7.4-3.6c2.4 0 3.6 1.2 3.6 3.6 0 2.4-1.2 3.6-3.6 3.6h-14.8c-2.4 0-3.6-1.2-3.6-3.6 0-2.4 1.2-3.6 3.6-3.6z" stroke="none"/><path d="m7.4-3.6c2.4 0 3.6 1.2 3.6 3.6 0 2.4-1.2 3.6-3.6 3.6h-14.8c-2.4 0-3.6-1.2-3.6-3.6 0-2.4 1.2-3.6 3.6-3.6z" fill="none" stroke="#fff"/></g><g fill="#c1c1c1" stroke="#c1c1c1" transform="matrix(.70710678 .70710678 -.70710678 .70710678 110 170)"><path d="m7.4-3.6c2.4 0 3.6 1.2 3.6 3.6 0 2.4-1.2 3.6-3.6 3.6h-14.8c-2.4 0-3.6-1.2-3.6-3.6 0-2.4 1.2-3.6 3.6-3.6z" stroke="none"/><path d="m7.4-3.6c2.4 0 3.6 1.2 3.6 3.6 0 2.4-1.2 3.6-3.6 3.6h-14.8c-2.4 0-3.6-1.2-3.6-3.6 0-2.4 1.2-3.6 3.6-3.6z" fill="none" stroke="#fff"/></g><g fill="#c1c1c1" stroke="#c1c1c1" transform="matrix(.70710678 .70710678 -.70710678 .70710678 130 170)"><path d="m7.4-3.6c2.4 0 3.6 1.2 3.6 3.6 0 2.4-1.2 3.6-3.6 3.6h-14.8c-2.4 0-3.6-1.2-3.6-3.6 0-2.4 1.2-3.6 3.6-3.6z" stroke="none"/><path d="m7.4-3.6c2.4 0 3.6 1.2 3.6 3.6 0 2.4-1.2 3.6-3.6 3.6h-14.8c-2.4 0-3.6-1.2-3.6-3.6 0-2.4 1.2-3.6 3.6-3.6z" fill="none" stroke="#fff"/></g><g fill="#c1c1c1" stroke="#c1c1c1" transform="matrix(.70710678 .70710678 -.70710678 .70710678 150 170)"><path d="m7.4-3.6c2.4 0 3.6 1.2 3.6 3.6 0 2.4-1.2 3.6-3.6 3.6h-14.8c-2.4 0-3.6-1.2-3.6-3.6 0-2.4 1.2-3.6 3.6-3.6z" stroke="none"/><path d="m7.4-3.6c2.4 0 3.6 1.2 3.6 3.6 0 2.4-1.2 3.6-3.6 3.6h-14.8c-2.4 0-3.6-1.2-3.6-3.6 0-2.4 1.2-3.6 3.6-3.6z" fill="none" stroke="#fff"/></g><g fill="#c1c1c1" stroke="#c1c1c1" transform="matrix(.70710678 .70710678 -.70710678 .70710678 170 170)"><path d="m7.4-3.6c2.4 0 3.6 1.2 3.6 3.6 0 2.4-1.2 3.6-3.6 3.6h-14.8c-2.4 0-3.6-1.2-3.6-3.6 0-2.4 1.2-3.6 3.6-3.6z" stroke="none"/><path d="m7.4-3.6c2.4 0 3.6 1.2 3.6 3.6 0 2.4-1.2 3.6-3.6 3.6h-14.8c-2.4 0-3.6-1.2-3.6-3.6 0-2.4 1.2-3.6 3.6-3.6z" fill="none" stroke="#fff"/></g><g fill="#c1c1c1" stroke="#c1c1c1" transform="matrix(.70710678 .70710678 -.70710678 .70710678 190 170)"><path d="m7.4-3.6c2.4 0 3.6 1.2 3.6 3.6 0 2.4-1.2 3.6-3.6 3.6h-14.8c-2.4 0-3.6-1.2-3.6-3.6 0-2.4 1.2-3.6 3.6-3.6z" stroke="none"/><path d="m7.4-3.6c2.4 0 3.6 1.2 3.6 3.6 0 2.4-1.2 3.6-3.6 3.6h-14.8c-2.4 0-3.6-1.2-3.6-3.6 0-2.4 1.2-3.6 3.6-3.6z" fill="none" stroke="#fff"/></g><g fill="#c1c1c1" stroke="#c1c1c1" transform="matrix(.70710678 .70710678 -.70710678 .70710678 210 170)"><path d="m7.4-3.6c2.4 0 3.6 1.2 3.6 3.6 0 2.4-1.2 3.6-3.6 3.6h-14.8c-2.4 0-3.6-1.2-3.6-3.6 0-2.4 1.2-3.6 3.6-3.6z" stroke="none"/><path d="m7.4-3.6c2.4 0 3.6 1.2 3.6 3.6 0 2.4-1.2 3.6-3.6 3.6h-14.8c-2.4 0-3.6-1.2-3.6-3.6 0-2.4 1.2-3.6 3.6-3.6z" fill="none" stroke="#fff"/></g><g fill="#4b4b4b" stroke="#4b4b4b" transform="matrix(.70710678 .70710678 -.70710678 .70710678 230 170)"><path d="m7.4-3.6c2.4 0 3.6 1.2 3.6 3.6 0 2.4-1.2 3.6-3.6 3.6h-14.8c-2.4 0-3.6-1.2-3.6-3.6 0-2.4 1.2-3.6 3.6-3.6z" stroke="none"/><path d="m7.4-3.6c2.4 0 3.6 1.2 3.6 3.6 0 2.4-1.2 3.6-3.6 3.6h-14.8c-2.4 0-3.6-1.2-3.6-3.6 0-2.4 1.2-3.6 3.6-3.6z" fill="none" stroke="#fff"/></g><g fill="#4b4b4b" stroke="#4b4b4b" transform="matrix(.70710678 .70710678 -.70710678 .70710678 250 170)"><path d="m7.4-3.6c2.4 0 3.6 1.2 3.6 3.6 0 2.4-1.2 3.6-3.6 3.6h-14.8c-2.4 0-3.6-1.2-3.6-3.6 0-2.4 1.2-3.6 3.6-3.6z" stroke="none"/><path d="m7.4-3.6c2.4 0 3.6 1.2 3.6 3.6 0 2.4-1.2 3.6-3.6 3.6h-14.8c-2.4 0-3.6-1.2-3.6-3.6 0-2.4 1.2-3.6 3.6-3.6z" fill="none" stroke="#fff"/></g><g fill="#c1c1c1" stroke="#c1c1c1" transform="matrix(.70710678 .70710678 -.70710678 .70710678 30 190)"><path d="m7.4-3.6c2.4 0 3.6 1.2 3.6 3.6 0 2.4-1.2 3.6-3.6 3.6h-14.8c-2.4 0-3.6-1.2-3.6-3.6 0-2.4 1.2-3.6 3.6-3.6z" stroke="none"/><path d="m7.4-3.6c2.4 0 3.6 1.2 3.6 3.6 0 2.4-1.2 3.6-3.6 3.6h-14.8c-2.4 0-3.6-1.2-3.6-3.6 0-2.4 1.2-3.6 3.6-3.6z" fill="none" stroke="#fff"/></g><g fill="#252525" stroke="#252525" transform="matrix(.70710678 .70710678 -.70710678 .70710678 50 190)"><path d="m7.4-3.6c2.4 0 3.6 1.2 3.6 3.6 0 2.4-1.2 3.6-3.6 3.6h-14.8c-2.4 0-3.6-1.2-3.6-3.6 0-2.4 1.2-3.6 3.6-3.6z" stroke="none"/><path d="m7.4-3.6c2.4 0 3.6 1.2 3.6 3.6 0 2.4-1.2 3.6-3.6 3.6h-14.8c-2.4 0-3.6-1.2-3.6-3.6 0-2.4 1.2-3.6 3.6-3.6z" fill="none" stroke="#fff"/></g><g fill="#f0f0f0" stroke="#f0f0f0" transform="matrix(.70710678 .70710678 -.70710678 .70710678 70 190)"><path d="m7.4-3.6c2.4 0 3.6 1.2 3.6 3.6 0 2.4-1.2 3.6-3.6 3.6h-14.8c-2.4 0-3.6-1.2-3.6-3.6 0-2.4 1.2-3.6 3.6-3.6z" stroke="none"/><path d="m7.4-3.6c2.4 0 3.6 1.2 3.6 3.6 0 2.4-1.2 3.6-3.6 3.6h-14.8c-2.4 0-3.6-1.2-3.6-3.6 0-2.4 1.2-3.6 3.6-3.6z" fill="none" stroke="#fff"/></g><g fill="#f0f0f0" stroke="#f0f0f0" transform="matrix(.70710678 .70710678 -.70710678 .70710678 90 190)"><path d="m7.4-3.6c2.4 0 3.6 1.2 3.6 3.6 0 2.4-1.2 3.6-3.6 3.6h-14.8c-2.4 0-3.6-1.2-3.6-3.6 0-2.4 1.2-3.6 3.6-3.6z" stroke="none"/><path d="m7.4-3.6c2.4 0 3.6 1.2 3.6 3.6 0 2.4-1.2 3.6-3.6 3.6h-14.8c-2.4 0-3.6-1.2-3.6-3.6 0-2.4 1.2-3.6 3.6-3.6z" fill="none" stroke="#fff"/></g><g fill="#252525" stroke="#252525" transform="matrix(.70710678 .70710678 -.70710678 .70710678 110 190)"><path d="m7.4-3.6c2.4 0 3.6 1.2 3.6 3.6 0 2.4-1.2 3.6-3.6 3.6h-14.8c-2.4 0-3.6-1.2-3.6-3.6 0-2.4 1.2-3.6 3.6-3.6z" stroke="none"/><path d="m7.4-3.6c2.4 0 3.6 1.2 3.6 3.6 0 2.4-1.2 3.6-3.6 3.6h-14.8c-2.4 0-3.6-1.2-3.6-3.6 0-2.4 1.2-3.6 3.6-3.6z" fill="none" stroke="#fff"/></g><g fill="#7f7f7f" stroke="#7f7f7f" transform="matrix(.70710678 .70710678 -.70710678 .70710678 130 190)"><path d="m7.4-3.6c2.4 0 3.6 1.2 3.6 3.6 0 2.4-1.2 3.6-3.6 3.6h-14.8c-2.4 0-3.6-1.2-3.6-3.6 0-2.4 1.2-3.6 3.6-3.6z" stroke="none"/><path d="m7.4-3.6c2.4 0 3.6 1.2 3.6 3.6 0 2.4-1.2 3.6-3.6 3.6h-14.8c-2.4 0-3.6-1.2-3.6-3.6 0-2.4 1.2-3.6 3.6-3.6z" fill="none" stroke="#fff"/></g><g fill="#c1c1c1" stroke="#c1c1c1" transform="matrix(.70710678 .70710678 -.70710678 .70710678 150 190)"><path d="m7.4-3.6c2.4 0 3.6 1.2 3.6 3.6 0 2.4-1.2 3.6-3.6 3.6h-14.8c-2.4 0-3.6-1.2-3.6-3.6 0-2.4 1.2-3.6 3.6-3.6z" stroke="none"/><path d="m7.4-3.6c2.4 0 3.6 1.2 3.6 3.6 0 2.4-1.2 3.6-3.6 3.6h-14.8c-2.4 0-3.6-1.2-3.6-3.6 0-2.4 1.2-3.6 3.6-3.6z" fill="none" stroke="#fff"/></g><g fill="#c1c1c1" stroke="#c1c1c1" transform="matrix(.70710678 .70710678 -.70710678 .70710678 170 190)"><path d="m7.4-3.6c2.4 0 3.6 1.2 3.6 3.6 0 2.4-1.2 3.6-3.6 3.6h-14.8c-2.4 0-3.6-1.2-3.6-3.6 0-2.4 1.2-3.6 3.6-3.6z" stroke="none"/><path d="m7.4-3.6c2.4 0 3.6 1.2 3.6 3.6 0 2.4-1.2 3.6-3.6 3.6h-14.8c-2.4 0-3.6-1.2-3.6-3.6 0-2.4 1.2-3.6 3.6-3.6z" fill="none" stroke="#fff"/></g><g fill="#c1c1c1" stroke="#c1c1c1" transform="matrix(.70710678 .70710678 -.70710678 .70710678 190 190)"><path d="m7.4-3.6c2.4 0 3.6 1.2 3.6 3.6 0 2.4-1.2 3.6-3.6 3.6h-14.8c-2.4 0-3.6-1.2-3.6-3.6 0-2.4 1.2-3.6 3.6-3.6z" stroke="none"/><path d="m7.4-3.6c2.4 0 3.6 1.2 3.6 3.6 0 2.4-1.2 3.6-3.6 3.6h-14.8c-2.4 0-3.6-1.2-3.6-3.6 0-2.4 1.2-3.6 3.6-3.6z" fill="none" stroke="#fff"/></g><g fill="#4b4b4b" stroke="#4b4b4b" transform="matrix(.70710678 .70710678 -.70710678 .70710678 210 190)"><path d="m7.4-3.6c2.4 0 3.6 1.2 3.6 3.6 0 2.4-1.2 3.6-3.6 3.6h-14.8c-2.4 0-3.6-1.2-3.6-3.6 0-2.4 1.2-3.6 3.6-3.6z" stroke="none"/><path d="m7.4-3.6c2.4 0 3.6 1.2 3.6 3.6 0 2.4-1.2 3.6-3.6 3.6h-14.8c-2.4 0-3.6-1.2-3.6-3.6 0-2.4 1.2-3.6 3.6-3.6z" fill="none" stroke="#fff"/></g><g fill="#4b4b4b" stroke="#4b4b4b" transform="matrix(.70710678 .70710678 -.70710678 .70710678 230 190)"><path d="m7.4-3.6c2.4 0 3.6 1.2 3.6 3.6 0 2.4-1.2 3.6-3.6 3.6h-14.8c-2.4 0-3.6-1.2-3.6-3.6 0-2.4 1.2-3.6 3.6-3.6z" stroke="none"/><path d="m7.4-3.6c2.4 0 3.6 1.2 3.6 3.6 0 2.4-1.2 3.6-3.6 3.6h-14.8c-2.4 0-3.6-1.2-3.6-3.6 0-2.4 1.2-3.6 3.6-3.6z" fill="none" stroke="#fff"/></g><g fill="#4b4b4b" stroke="#4b4b4b" transform="matrix(.70710678 .70710678 -.70710678 .70710678 250 190)"><path d="m7.4-3.6c2.4 0 3.6 1.2 3.6 3.6 0 2.4-1.2 3.6-3.6 3.6h-14.8c-2.4 0-3.6-1.2-3.6-3.6 0-2.4 1.2-3.6 3.6-3.6z" stroke="none"/><path d="m7.4-3.6c2.4 0 3.6 1.2 3.6 3.6 0 2.4-1.2 3.6-3.6 3.6h-14.8c-2.4 0-3.6-1.2-3.6-3.6 0-2.4 1.2-3.6 3.6-3.6z" fill="none" stroke="#fff"/></g><g fill="#252525" stroke="#252525" transform="matrix(.70710678 .70710678 -.70710678 .70710678 70 210)"><path d="m7.4-3.6c2.4 0 3.6 1.2 3.6 3.6 0 2.4-1.2 3.6-3.6 3.6h-14.8c-2.4 0-3.6-1.2-3.6-3.6 0-2.4 1.2-3.6 3.6-3.6z" stroke="none"/><path d="m7.4-3.6c2.4 0 3.6 1.2 3.6 3.6 0 2.4-1.2 3.6-3.6 3.6h-14.8c-2.4 0-3.6-1.2-3.6-3.6 0-2.4 1.2-3.6 3.6-3.6z" fill="none" stroke="#fff"/></g><g fill="#252525" stroke="#252525" transform="matrix(.70710678 .70710678 -.70710678 .70710678 90 210)"><path d="m7.4-3.6c2.4 0 3.6 1.2 3.6 3.6 0 2.4-1.2 3.6-3.6 3.6h-14.8c-2.4 0-3.6-1.2-3.6-3.6 0-2.4 1.2-3.6 3.6-3.6z" stroke="none"/><path d="m7.4-3.6c2.4 0 3.6 1.2 3.6 3.6 0 2.4-1.2 3.6-3.6 3.6h-14.8c-2.4 0-3.6-1.2-3.6-3.6 0-2.4 1.2-3.6 3.6-3.6z" fill="none" stroke="#fff"/></g><g fill="#7f7f7f" stroke="#7f7f7f" transform="matrix(.70710678 .70710678 -.70710678 .70710678 110 210)"><path d="m7.4-3.6c2.4 0 3.6 1.2 3.6 3.6 0 2.4-1.2 3.6-3.6 3.6h-14.8c-2.4 0-3.6-1.2-3.6-3.6 0-2.4 1.2-3.6 3.6-3.6z" stroke="none"/><path d="m7.4-3.6c2.4 0 3.6 1.2 3.6 3.6 0 2.4-1.2 3.6-3.6 3.6h-14.8c-2.4 0-3.6-1.2-3.6-3.6 0-2.4 1.2-3.6 3.6-3.6z" fill="none" stroke="#fff"/></g><g fill="#7f7f7f" stroke="#7f7f7f" transform="matrix(.70710678 .70710678 -.70710678 .70710678 130 210)"><path d="m7.4-3.6c2.4 0 3.6 1.2 3.6 3.6 0 2.4-1.2 3.6-3.6 3.6h-14.8c-2.4 0-3.6-1.2-3.6-3.6 0-2.4 1.2-3.6 3.6-3.6z" stroke="none"/><path d="m7.4-3.6c2.4 0 3.6 1.2 3.6 3.6 0 2.4-1.2 3.6-3.6 3.6h-14.8c-2.4 0-3.6-1.2-3.6-3.6 0-2.4 1.2-3.6 3.6-3.6z" fill="none" stroke="#fff"/></g><g fill="#7f7f7f" stroke="#7f7f7f" transform="matrix(.70710678 .70710678 -.70710678 .70710678 150 210)"><path d="m7.4-3.6c2.4 0 3.6 1.2 3.6 3.6 0 2.4-1.2 3.6-3.6 3.6h-14.8c-2.4 0-3.6-1.2-3.6-3.6 0-2.4 1.2-3.6 3.6-3.6z" stroke="none"/><path d="m7.4-3.6c2.4 0 3.6 1.2 3.6 3.6 0 2.4-1.2 3.6-3.6 3.6h-14.8c-2.4 0-3.6-1.2-3.6-3.6 0-2.4 1.2-3.6 3.6-3.6z" fill="none" stroke="#fff"/></g><g fill="#7f7f7f" stroke="#7f7f7f" transform="matrix(.70710678 .70710678 -.70710678 .70710678 170 210)"><path d="m7.4-3.6c2.4 0 3.6 1.2 3.6 3.6 0 2.4-1.2 3.6-3.6 3.6h-14.8c-2.4 0-3.6-1.2-3.6-3.6 0-2.4 1.2-3.6 3.6-3.6z" stroke="none"/><path d="m7.4-3.6c2.4 0 3.6 1.2 3.6 3.6 0 2.4-1.2 3.6-3.6 3.6h-14.8c-2.4 0-3.6-1.2-3.6-3.6 0-2.4 1.2-3.6 3.6-3.6z" fill="none" stroke="#fff"/></g><g fill="#4b4b4b" stroke="#4b4b4b" transform="matrix(.70710678 .70710678 -.70710678 .70710678 190 210)"><path d="m7.4-3.6c2.4 0 3.6 1.2 3.6 3.6 0 2.4-1.2 3.6-3.6 3.6h-14.8c-2.4 0-3.6-1.2-3.6-3.6 0-2.4 1.2-3.6 3.6-3.6z" stroke="none"/><path d="m7.4-3.6c2.4 0 3.6 1.2 3.6 3.6 0 2.4-1.2 3.6-3.6 3.6h-14.8c-2.4 0-3.6-1.2-3.6-3.6 0-2.4 1.2-3.6 3.6-3.6z" fill="none" stroke="#fff"/></g><g fill="#4b4b4b" stroke="#4b4b4b" transform="matrix(.70710678 .70710678 -.70710678 .70710678 210 210)"><path d="m7.4-3.6c2.4 0 3.6 1.2 3.6 3.6 0 2.4-1.2 3.6-3.6 3.6h-14.8c-2.4 0-3.6-1.2-3.6-3.6 0-2.4 1.2-3.6 3.6-3.6z" stroke="none"/><path d="m7.4-3.6c2.4 0 3.6 1.2 3.6 3.6 0 2.4-1.2 3.6-3.6 3.6h-14.8c-2.4 0-3.6-1.2-3.6-3.6 0-2.4 1.2-3.6 3.6-3.6z" fill="none" stroke="#fff"/></g><g fill="#4b4b4b" stroke="#4b4b4b" transform="matrix(.70710678 .70710678 -.70710678 .70710678 230 210)"><path d="m7.4-3.6c2.4 0 3.6 1.2 3.6 3.6 0 2.4-1.2 3.6-3.6 3.6h-14.8c-2.4 0-3.6-1.2-3.6-3.6 0-2.4 1.2-3.6 3.6-3.6z" stroke="none"/><path d="m7.4-3.6c2.4 0 3.6 1.2 3.6 3.6 0 2.4-1.2 3.6-3.6 3.6h-14.8c-2.4 0-3.6-1.2-3.6-3.6 0-2.4 1.2-3.6 3.6-3.6z" fill="none" stroke="#fff"/></g><g fill="#4b4b4b" stroke="#4b4b4b" transform="matrix(.70710678 .70710678 -.70710678 .70710678 250 210)"><path d="m7.4-3.6c2.4 0 3.6 1.2 3.6 3.6 0 2.4-1.2 3.6-3.6 3.6h-14.8c-2.4 0-3.6-1.2-3.6-3.6 0-2.4 1.2-3.6 3.6-3.6z" stroke="none"/><path d="m7.4-3.6c2.4 0 3.6 1.2 3.6 3.6 0 2.4-1.2 3.6-3.6 3.6h-14.8c-2.4 0-3.6-1.2-3.6-3.6 0-2.4 1.2-3.6 3.6-3.6z" fill="none" stroke="#fff"/></g><g fill="#4b4b4b" stroke="#4b4b4b" transform="matrix(.70710678 .70710678 -.70710678 .70710678 50 230)"><path d="m7.4-3.6c2.4 0 3.6 1.2 3.6 3.6 0 2.4-1.2 3.6-3.6 3.6h-14.8c-2.4 0-3.6-1.2-3.6-3.6 0-2.4 1.2-3.6 3.6-3.6z" stroke="none"/><path d="m7.4-3.6c2.4 0 3.6 1.2 3.6 3.6 0 2.4-1.2 3.6-3.6 3.6h-14.8c-2.4 0-3.6-1.2-3.6-3.6 0-2.4 1.2-3.6 3.6-3.6z" fill="none" stroke="#fff"/></g><g fill="#f0f0f0" stroke="#f0f0f0" transform="matrix(.70710678 .70710678 -.70710678 .70710678 70 230)"><path d="m7.4-3.6c2.4 0 3.6 1.2 3.6 3.6 0 2.4-1.2 3.6-3.6 3.6h-14.8c-2.4 0-3.6-1.2-3.6-3.6 0-2.4 1.2-3.6 3.6-3.6z" stroke="none"/><path d="m7.4-3.6c2.4 0 3.6 1.2 3.6 3.6 0 2.4-1.2 3.6-3.6 3.6h-14.8c-2.4 0-3.6-1.2-3.6-3.6 0-2.4 1.2-3.6 3.6-3.6z" fill="none" stroke="#fff"/></g><g fill="#7f7f7f" stroke="#7f7f7f" transform="matrix(.70710678 .70710678 -.70710678 .70710678 90 230)"><path d="m7.4-3.6c2.4 0 3.6 1.2 3.6 3.6 0 2.4-1.2 3.6-3.6 3.6h-14.8c-2.4 0-3.6-1.2-3.6-3.6 0-2.4 1.2-3.6 3.6-3.6z" stroke="none"/><path d="m7.4-3.6c2.4 0 3.6 1.2 3.6 3.6 0 2.4-1.2 3.6-3.6 3.6h-14.8c-2.4 0-3.6-1.2-3.6-3.6 0-2.4 1.2-3.6 3.6-3.6z" fill="none" stroke="#fff"/></g><g fill="#7f7f7f" stroke="#7f7f7f" transform="matrix(.70710678 .70710678 -.70710678 .70710678 110 230)"><path d="m7.4-3.6c2.4 0 3.6 1.2 3.6 3.6 0 2.4-1.2 3.6-3.6 3.6h-14.8c-2.4 0-3.6-1.2-3.6-3.6 0-2.4 1.2-3.6 3.6-3.6z" stroke="none"/><path d="m7.4-3.6c2.4 0 3.6 1.2 3.6 3.6 0 2.4-1.2 3.6-3.6 3.6h-14.8c-2.4 0-3.6-1.2-3.6-3.6 0-2.4 1.2-3.6 3.6-3.6z" fill="none" stroke="#fff"/></g><g fill="#f0f0f0" stroke="#f0f0f0" transform="matrix(.70710678 .70710678 -.70710678 .70710678 130 230)"><path d="m7.4-3.6c2.4 0 3.6 1.2 3.6 3.6 0 2.4-1.2 3.6-3.6 3.6h-14.8c-2.4 0-3.6-1.2-3.6-3.6 0-2.4 1.2-3.6 3.6-3.6z" stroke="none"/><path d="m7.4-3.6c2.4 0 3.6 1.2 3.6 3.6 0 2.4-1.2 3.6-3.6 3.6h-14.8c-2.4 0-3.6-1.2-3.6-3.6 0-2.4 1.2-3.6 3.6-3.6z" fill="none" stroke="#fff"/></g><g fill="#7f7f7f" stroke="#7f7f7f" transform="matrix(.70710678 .70710678 -.70710678 .70710678 150 230)"><path d="m7.4-3.6c2.4 0 3.6 1.2 3.6 3.6 0 2.4-1.2 3.6-3.6 3.6h-14.8c-2.4 0-3.6-1.2-3.6-3.6 0-2.4 1.2-3.6 3.6-3.6z" stroke="none"/><path d="m7.4-3.6c2.4 0 3.6 1.2 3.6 3.6 0 2.4-1.2 3.6-3.6 3.6h-14.8c-2.4 0-3.6-1.2-3.6-3.6 0-2.4 1.2-3.6 3.6-3.6z" fill="none" stroke="#fff"/></g><g fill="#4b4b4b" stroke="#4b4b4b" transform="matrix(.70710678 .70710678 -.70710678 .70710678 170 230)"><path d="m7.4-3.6c2.4 0 3.6 1.2 3.6 3.6 0 2.4-1.2 3.6-3.6 3.6h-14.8c-2.4 0-3.6-1.2-3.6-3.6 0-2.4 1.2-3.6 3.6-3.6z" stroke="none"/><path d="m7.4-3.6c2.4 0 3.6 1.2 3.6 3.6 0 2.4-1.2 3.6-3.6 3.6h-14.8c-2.4 0-3.6-1.2-3.6-3.6 0-2.4 1.2-3.6 3.6-3.6z" fill="none" stroke="#fff"/></g><g fill="#4b4b4b" stroke="#4b4b4b" transform="matrix(.70710678 .70710678 -.70710678 .70710678 190 230)"><path d="m7.4-3.6c2.4 0 3.6 1.2 3.6 3.6 0 2.4-1.2 3.6-3.6 3.6h-14.8c-2.4 0-3.6-1.2-3.6-3.6 0-2.4 1.2-3.6 3.6-3.6z" stroke="none"/><path d="m7.4-3.6c2.4 0 3.6 1.2 3.6 3.6 0 2.4-1.2 3.6-3.6 3.6h-14.8c-2.4 0-3.6-1.2-3.6-3.6 0-2.4 1.2-3.6 3.6-3.6z" fill="none" stroke="#fff"/></g><g fill="#4b4b4b" stroke="#4b4b4b" transform="matrix(.70710678 .70710678 -.70710678 .70710678 210 230)"><path d="m7.4-3.6c2.4 0 3.6 1.2 3.6 3.6 0 2.4-1.2 3.6-3.6 3.6h-14.8c-2.4 0-3.6-1.2-3.6-3.6 0-2.4 1.2-3.6 3.6-3.6z" stroke="none"/><path d="m7.4-3.6c2.4 0 3.6 1.2 3.6 3.6 0 2.4-1.2 3.6-3.6 3.6h-14.8c-2.4 0-3.6-1.2-3.6-3.6 0-2.4 1.2-3.6 3.6-3.6z" fill="none" stroke="#fff"/></g><g fill="#4b4b4b" stroke="#4b4b4b" transform="matrix(.70710678 .70710678 -.70710678 .70710678 230 230)"><path d="m7.4-3.6c2.4 0 3.6 1.2 3.6 3.6 0 2.4-1.2 3.6-3.6 3.6h-14.8c-2.4 0-3.6-1.2-3.6-3.6 0-2.4 1.2-3.6 3.6-3.6z" stroke="none"/><path d="m7.4-3.6c2.4 0 3.6 1.2 3.6 3.6 0 2.4-1.2 3.6-3.6 3.6h-14.8c-2.4 0-3.6-1.2-3.6-3.6 0-2.4 1.2-3.6 3.6-3.6z" fill="none" stroke="#fff"/></g><g fill="#4b4b4b" stroke="#4b4b4b" transform="matrix(.70710678 .70710678 -.70710678 .70710678 250 230)"><path d="m7.4-3.6c2.4 0 3.6 1.2 3.6 3.6 0 2.4-1.2 3.6-3.6 3.6h-14.8c-2.4 0-3.6-1.2-3.6-3.6 0-2.4 1.2-3.6 3.6-3.6z" stroke="none"/><path d="m7.4-3.6c2.4 0 3.6 1.2 3.6 3.6 0 2.4-1.2 3.6-3.6 3.6h-14.8c-2.4 0-3.6-1.2-3.6-3.6 0-2.4 1.2-3.6 3.6-3.6z" fill="none" stroke="#fff"/></g><g fill="#7f7f7f" stroke="#7f7f7f" transform="matrix(.70710678 .70710678 -.70710678 .70710678 30 250)"><path d="m7.4-3.6c2.4 0 3.6 1.2 3.6 3.6 0 2.4-1.2 3.6-3.6 3.6h-14.8c-2.4 0-3.6-1.2-3.6-3.6 0-2.4 1.2-3.6 3.6-3.6z" stroke="none"/><path d="m7.4-3.6c2.4 0 3.6 1.2 3.6 3.6 0 2.4-1.2 3.6-3.6 3.6h-14.8c-2.4 0-3.6-1.2-3.6-3.6 0-2.4 1.2-3.6 3.6-3.6z" fill="none" stroke="#fff"/></g><g fill="#7f7f7f" stroke="#7f7f7f" transform="matrix(.70710678 .70710678 -.70710678 .70710678 50 250)"><path d="m7.4-3.6c2.4 0 3.6 1.2 3.6 3.6 0 2.4-1.2 3.6-3.6 3.6h-14.8c-2.4 0-3.6-1.2-3.6-3.6 0-2.4 1.2-3.6 3.6-3.6z" stroke="none"/><path d="m7.4-3.6c2.4 0 3.6 1.2 3.6 3.6 0 2.4-1.2 3.6-3.6 3.6h-14.8c-2.4 0-3.6-1.2-3.6-3.6 0-2.4 1.2-3.6 3.6-3.6z" fill="none" stroke="#fff"/></g><g fill="#4b4b4b" stroke="#4b4b4b" transform="matrix(.70710678 .70710678 -.70710678 .70710678 70 250)"><path d="m7.4-3.6c2.4 0 3.6 1.2 3.6 3.6 0 2.4-1.2 3.6-3.6 3.6h-14.8c-2.4 0-3.6-1.2-3.6-3.6 0-2.4 1.2-3.6 3.6-3.6z" stroke="none"/><path d="m7.4-3.6c2.4 0 3.6 1.2 3.6 3.6 0 2.4-1.2 3.6-3.6 3.6h-14.8c-2.4 0-3.6-1.2-3.6-3.6 0-2.4 1.2-3.6 3.6-3.6z" fill="none" stroke="#fff"/></g><g fill="#4b4b4b" stroke="#4b4b4b" transform="matrix(.70710678 .70710678 -.70710678 .70710678 90 250)"><path d="m7.4-3.6c2.4 0 3.6 1.2 3.6 3.6 0 2.4-1.2 3.6-3.6 3.6h-14.8c-2.4 0-3.6-1.2-3.6-3.6 0-2.4 1.2-3.6 3.6-3.6z" stroke="none"/><path d="m7.4-3.6c2.4 0 3.6 1.2 3.6 3.6 0 2.4-1.2 3.6-3.6 3.6h-14.8c-2.4 0-3.6-1.2-3.6-3.6 0-2.4 1.2-3.6 3.6-3.6z" fill="none" stroke="#fff"/></g><g fill="#4b4b4b" stroke="#4b4b4b" transform="matrix(.70710678 .70710678 -.70710678 .70710678 110 250)"><path d="m7.4-3.6c2.4 0 3.6 1.2 3.6 3.6 0 2.4-1.2 3.6-3.6 3.6h-14.8c-2.4 0-3.6-1.2-3.6-3.6 0-2.4 1.2-3.6 3.6-3.6z" stroke="none"/><path d="m7.4-3.6c2.4 0 3.6 1.2 3.6 3.6 0 2.4-1.2 3.6-3.6 3.6h-14.8c-2.4 0-3.6-1.2-3.6-3.6 0-2.4 1.2-3.6 3.6-3.6z" fill="none" stroke="#fff"/></g><g fill="#4b4b4b" stroke="#4b4b4b" transform="matrix(.70710678 .70710678 -.70710678 .70710678 130 250)"><path d="m7.4-3.6c2.4 0 3.6 1.2 3.6 3.6 0 2.4-1.2 3.6-3.6 3.6h-14.8c-2.4 0-3.6-1.2-3.6-3.6 0-2.4 1.2-3.6 3.6-3.6z" stroke="none"/><path d="m7.4-3.6c2.4 0 3.6 1.2 3.6 3.6 0 2.4-1.2 3.6-3.6 3.6h-14.8c-2.4 0-3.6-1.2-3.6-3.6 0-2.4 1.2-3.6 3.6-3.6z" fill="none" stroke="#fff"/></g><g fill="#4b4b4b" stroke="#4b4b4b" transform="matrix(.70710678 .70710678 -.70710678 .70710678 150 250)"><path d="m7.4-3.6c2.4 0 3.6 1.2 3.6 3.6 0 2.4-1.2 3.6-3.6 3.6h-14.8c-2.4 0-3.6-1.2-3.6-3.6 0-2.4 1.2-3.6 3.6-3.6z" stroke="none"/><path d="m7.4-3.6c2.4 0 3.6 1.2 3.6 3.6 0 2.4-1.2 3.6-3.6 3.6h-14.8c-2.4 0-3.6-1.2-3.6-3.6 0-2.4 1.2-3.6 3.6-3.6z" fill="none" stroke="#fff"/></g><g fill="#7f7f7f" stroke="#7f7f7f" transform="matrix(.70710678 .70710678 -.70710678 .70710678 170 250)"><path d="m7.4-3.6c2.4 0 3.6 1.2 3.6 3.6 0 2.4-1.2 3.6-3.6 3.6h-14.8c-2.4 0-3.6-1.2-3.6-3.6 0-2.4 1.2-3.6 3.6-3.6z" stroke="none"/><path d="m7.4-3.6c2.4 0 3.6 1.2 3.6 3.6 0 2.4-1.2 3.6-3.6 3.6h-14.8c-2.4 0-3.6-1.2-3.6-3.6 0-2.4 1.2-3.6 3.6-3.6z" fill="none" stroke="#fff"/></g><g fill="#7f7f7f" stroke="#7f7f7f" transform="matrix(.70710678 .70710678 -.70710678 .70710678 190 250)"><path d="m7.4-3.6c2.4 0 3.6 1.2 3.6 3.6 0 2.4-1.2 3.6-3.6 3.6h-14.8c-2.4 0-3.6-1.2-3.6-3.6 0-2.4 1.2-3.6 3.6-3.6z" stroke="none"/><path d="m7.4-3.6c2.4 0 3.6 1.2 3.6 3.6 0 2.4-1.2 3.6-3.6 3.6h-14.8c-2.4 0-3.6-1.2-3.6-3.6 0-2.4 1.2-3.6 3.6-3.6z" fill="none" stroke="#fff"/></g><g fill="#4b4b4b" stroke="#4b4b4b" transform="matrix(.70710678 .70710678 -.70710678 .70710678 210 250)"><path d="m7.4-3.6c2.4 0 3.6 1.2 3.6 3.6 0 2.4-1.2 3.6-3.6 3.6h-14.8c-2.4 0-3.6-1.2-3.6-3.6 0-2.4 1.2-3.6 3.6-3.6z" stroke="none"/><path d="m7.4-3.6c2.4 0 3.6 1.2 3.6 3.6 0 2.4-1.2 3.6-3.6 3.6h-14.8c-2.4 0-3.6-1.2-3.6-3.6 0-2.4 1.2-3.6 3.6-3.6z" fill="none" stroke="#fff"/></g><g fill="#4b4b4b" stroke="#4b4b4b" transform="matrix(.70710678 .70710678 -.70710678 .70710678 230 250)"><path d="m7.4-3.6c2.4 0 3.6 1.2 3.6 3.6 0 2.4-1.2 3.6-3.6 3.6h-14.8c-2.4 0-3.6-1.2-3.6-3.6 0-2.4 1.2-3.6 3.6-3.6z" stroke="none"/><path d="m7.4-3.6c2.4 0 3.6 1.2 3.6 3.6 0 2.4-1.2 3.6-3.6 3.6h-14.8c-2.4 0-3.6-1.2-3.6-3.6 0-2.4 1.2-3.6 3.6-3.6z" fill="none" stroke="#fff"/></g><g fill="#4b4b4b" stroke="#4b4b4b" transform="matrix(.70710678 .70710678 -.70710678 .70710678 250 250)"><path d="m7.4-3.6c2.4 0 3.6 1.2 3.6 3.6 0 2.4-1.2 3.6-3.6 3.6h-14.8c-2.4 0-3.6-1.2-3.6-3.6 0-2.4 1.2-3.6 3.6-3.6z" stroke="none"/><path d="m7.4-3.6c2.4 0 3.6 1.2 3.6 3.6 0 2.4-1.2 3.6-3.6 3.6h-14.8c-2.4 0-3.6-1.2-3.6-3.6 0-2.4 1.2-3.6 3.6-3.6z" fill="none" stroke="#fff"/></g><g fill="#4b4b4b" stroke="#4b4b4b" transform="matrix(.70710678 .70710678 -.70710678 .70710678 270 250)"><path d="m7.4-3.6c2.4 0 3.6 1.2 3.6 3.6 0 2.4-1.2 3.6-3.6 3.6h-14.8c-2.4 0-3.6-1.2-3.6-3.6 0-2.4 1.2-3.6 3.6-3.6z" stroke="none"/><path d="m7.4-3.6c2.4 0 3.6 1.2 3.6 3.6 0 2.4-1.2 3.6-3.6 3.6h-14.8c-2.4 0-3.6-1.2-3.6-3.6 0-2.4 1.2-3.6 3.6-3.6z" fill="none" stroke="#fff"/></g><g fill="#4b4b4b" stroke="#4b4b4b" transform="matrix(.70710678 .70710678 -.70710678 .70710678 30 270)"><path d="m7.4-3.6c2.4 0 3.6 1.2 3.6 3.6 0 2.4-1.2 3.6-3.6 3.6h-14.8c-2.4 0-3.6-1.2-3.6-3.6 0-2.4 1.2-3.6 3.6-3.6z" stroke="none"/><path d="m7.4-3.6c2.4 0 3.6 1.2 3.6 3.6 0 2.4-1.2 3.6-3.6 3.6h-14.8c-2.4 0-3.6-1.2-3.6-3.6 0-2.4 1.2-3.6 3.6-3.6z" fill="none" stroke="#fff"/></g><g fill="#4b4b4b" stroke="#4b4b4b" transform="matrix(.70710678 .70710678 -.70710678 .70710678 50 270)"><path d="m7.4-3.6c2.4 0 3.6 1.2 3.6 3.6 0 2.4-1.2 3.6-3.6 3.6h-14.8c-2.4 0-3.6-1.2-3.6-3.6 0-2.4 1.2-3.6 3.6-3.6z" stroke="none"/><path d="m7.4-3.6c2.4 0 3.6 1.2 3.6 3.6 0 2.4-1.2 3.6-3.6 3.6h-14.8c-2.4 0-3.6-1.2-3.6-3.6 0-2.4 1.2-3.6 3.6-3.6z" fill="none" stroke="#fff"/></g><g fill="#4b4b4b" stroke="#4b4b4b" transform="matrix(.70710678 .70710678 -.70710678 .70710678 70 270)"><path d="m7.4-3.6c2.4 0 3.6 1.2 3.6 3.6 0 2.4-1.2 3.6-3.6 3.6h-14.8c-2.4 0-3.6-1.2-3.6-3.6 0-2.4 1.2-3.6 3.6-3.6z" stroke="none"/><path d="m7.4-3.6c2.4 0 3.6 1.2 3.6 3.6 0 2.4-1.2 3.6-3.6 3.6h-14.8c-2.4 0-3.6-1.2-3.6-3.6 0-2.4 1.2-3.6 3.6-3.6z" fill="none" stroke="#fff"/></g><g fill="#cbcbcb" stroke="#cbcbcb" transform="matrix(.70710678 .70710678 -.70710678 .70710678 90 270)"><path d="m7.4-3.6c2.4 0 3.6 1.2 3.6 3.6 0 2.4-1.2 3.6-3.6 3.6h-14.8c-2.4 0-3.6-1.2-3.6-3.6 0-2.4 1.2-3.6 3.6-3.6z" stroke="none"/><path d="m7.4-3.6c2.4 0 3.6 1.2 3.6 3.6 0 2.4-1.2 3.6-3.6 3.6h-14.8c-2.4 0-3.6-1.2-3.6-3.6 0-2.4 1.2-3.6 3.6-3.6z" fill="none" stroke="#fff"/></g><g fill="#cbcbcb" stroke="#cbcbcb" transform="matrix(.70710678 .70710678 -.70710678 .70710678 110 270)"><path d="m7.4-3.6c2.4 0 3.6 1.2 3.6 3.6 0 2.4-1.2 3.6-3.6 3.6h-14.8c-2.4 0-3.6-1.2-3.6-3.6 0-2.4 1.2-3.6 3.6-3.6z" stroke="none"/><path d="m7.4-3.6c2.4 0 3.6 1.2 3.6 3.6 0 2.4-1.2 3.6-3.6 3.6h-14.8c-2.4 0-3.6-1.2-3.6-3.6 0-2.4 1.2-3.6 3.6-3.6z" fill="none" stroke="#fff"/></g><g fill="#cbcbcb" stroke="#cbcbcb" transform="matrix(.70710678 .70710678 -.70710678 .70710678 130 270)"><path d="m7.4-3.6c2.4 0 3.6 1.2 3.6 3.6 0 2.4-1.2 3.6-3.6 3.6h-14.8c-2.4 0-3.6-1.2-3.6-3.6 0-2.4 1.2-3.6 3.6-3.6z" stroke="none"/><path d="m7.4-3.6c2.4 0 3.6 1.2 3.6 3.6 0 2.4-1.2 3.6-3.6 3.6h-14.8c-2.4 0-3.6-1.2-3.6-3.6 0-2.4 1.2-3.6 3.6-3.6z" fill="none" stroke="#fff"/></g><g fill="#4b4b4b" stroke="#4b4b4b" transform="matrix(.70710678 .70710678 -.70710678 .70710678 150 270)"><path d="m7.4-3.6c2.4 0 3.6 1.2 3.6 3.6 0 2.4-1.2 3.6-3.6 3.6h-14.8c-2.4 0-3.6-1.2-3.6-3.6 0-2.4 1.2-3.6 3.6-3.6z" stroke="none"/><path d="m7.4-3.6c2.4 0 3.6 1.2 3.6 3.6 0 2.4-1.2 3.6-3.6 3.6h-14.8c-2.4 0-3.6-1.2-3.6-3.6 0-2.4 1.2-3.6 3.6-3.6z" fill="none" stroke="#fff"/></g><g fill="#7f7f7f" stroke="#7f7f7f" transform="matrix(.70710678 .70710678 -.70710678 .70710678 170 270)"><path d="m7.4-3.6c2.4 0 3.6 1.2 3.6 3.6 0 2.4-1.2 3.6-3.6 3.6h-14.8c-2.4 0-3.6-1.2-3.6-3.6 0-2.4 1.2-3.6 3.6-3.6z" stroke="none"/><path d="m7.4-3.6c2.4 0 3.6 1.2 3.6 3.6 0 2.4-1.2 3.6-3.6 3.6h-14.8c-2.4 0-3.6-1.2-3.6-3.6 0-2.4 1.2-3.6 3.6-3.6z" fill="none" stroke="#fff"/></g><g fill="#7f7f7f" stroke="#7f7f7f" transform="matrix(.70710678 .70710678 -.70710678 .70710678 190 270)"><path d="m7.4-3.6c2.4 0 3.6 1.2 3.6 3.6 0 2.4-1.2 3.6-3.6 3.6h-14.8c-2.4 0-3.6-1.2-3.6-3.6 0-2.4 1.2-3.6 3.6-3.6z" stroke="none"/><path d="m7.4-3.6c2.4 0 3.6 1.2 3.6 3.6 0 2.4-1.2 3.6-3.6 3.6h-14.8c-2.4 0-3.6-1.2-3.6-3.6 0-2.4 1.2-3.6 3.6-3.6z" fill="none" stroke="#fff"/></g><g fill="#4b4b4b" stroke="#4b4b4b" transform="matrix(.70710678 .70710678 -.70710678 .70710678 210 270)"><path d="m7.4-3.6c2.4 0 3.6 1.2 3.6 3.6 0 2.4-1.2 3.6-3.6 3.6h-14.8c-2.4 0-3.6-1.2-3.6-3.6 0-2.4 1.2-3.6 3.6-3.6z" stroke="none"/><path d="m7.4-3.6c2.4 0 3.6 1.2 3.6 3.6 0 2.4-1.2 3.6-3.6 3.6h-14.8c-2.4 0-3.6-1.2-3.6-3.6 0-2.4 1.2-3.6 3.6-3.6z" fill="none" stroke="#fff"/></g><g fill="#4b4b4b" stroke="#4b4b4b" transform="matrix(.70710678 .70710678 -.70710678 .70710678 230 270)"><path d="m7.4-3.6c2.4 0 3.6 1.2 3.6 3.6 0 2.4-1.2 3.6-3.6 3.6h-14.8c-2.4 0-3.6-1.2-3.6-3.6 0-2.4 1.2-3.6 3.6-3.6z" stroke="none"/><path d="m7.4-3.6c2.4 0 3.6 1.2 3.6 3.6 0 2.4-1.2 3.6-3.6 3.6h-14.8c-2.4 0-3.6-1.2-3.6-3.6 0-2.4 1.2-3.6 3.6-3.6z" fill="none" stroke="#fff"/></g><g fill="#4b4b4b" stroke="#4b4b4b" transform="matrix(.70710678 .70710678 -.70710678 .70710678 250 270)"><path d="m7.4-3.6c2.4 0 3.6 1.2 3.6 3.6 0 2.4-1.2 3.6-3.6 3.6h-14.8c-2.4 0-3.6-1.2-3.6-3.6 0-2.4 1.2-3.6 3.6-3.6z" stroke="none"/><path d="m7.4-3.6c2.4 0 3.6 1.2 3.6 3.6 0 2.4-1.2 3.6-3.6 3.6h-14.8c-2.4 0-3.6-1.2-3.6-3.6 0-2.4 1.2-3.6 3.6-3.6z" fill="none" stroke="#fff"/></g><g fill="#4b4b4b" stroke="#4b4b4b" transform="matrix(.70710678 .70710678 -.70710678 .70710678 270 270)"><path d="m7.4-3.6c2.4 0 3.6 1.2 3.6 3.6 0 2.4-1.2 3.6-3.6 3.6h-14.8c-2.4 0-3.6-1.2-3.6-3.6 0-2.4 1.2-3.6 3.6-3.6z" stroke="none"/><path d="m7.4-3.6c2.4 0 3.6 1.2 3.6 3.6 0 2.4-1.2 3.6-3.6 3.6h-14.8c-2.4 0-3.6-1.2-3.6-3.6 0-2.4 1.2-3.6 3.6-3.6z" fill="none" stroke="#fff"/></g><g fill="#4b4b4b" stroke="#4b4b4b" transform="matrix(.70710678 .70710678 -.70710678 .70710678 290 270)"><path d="m7.4-3.6c2.4 0 3.6 1.2 3.6 3.6 0 2.4-1.2 3.6-3.6 3.6h-14.8c-2.4 0-3.6-1.2-3.6-3.6 0-2.4 1.2-3.6 3.6-3.6z" stroke="none"/><path d="m7.4-3.6c2.4 0 3.6 1.2 3.6 3.6 0 2.4-1.2 3.6-3.6 3.6h-14.8c-2.4 0-3.6-1.2-3.6-3.6 0-2.4 1.2-3.6 3.6-3.6z" fill="none" stroke="#fff"/></g><g fill="#4b4b4b" stroke="#4b4b4b" transform="matrix(.70710678 .70710678 -.70710678 .70710678 310 270)"><path d="m7.4-3.6c2.4 0 3.6 1.2 3.6 3.6 0 2.4-1.2 3.6-3.6 3.6h-14.8c-2.4 0-3.6-1.2-3.6-3.6 0-2.4 1.2-3.6 3.6-3.6z" stroke="none"/><path d="m7.4-3.6c2.4 0 3.6 1.2 3.6 3.6 0 2.4-1.2 3.6-3.6 3.6h-14.8c-2.4 0-3.6-1.2-3.6-3.6 0-2.4 1.2-3.6 3.6-3.6z" fill="none" stroke="#fff"/></g><g fill="#4b4b4b" stroke="#4b4b4b" transform="matrix(.70710678 .70710678 -.70710678 .70710678 50 290)"><path d="m7.4-3.6c2.4 0 3.6 1.2 3.6 3.6 0 2.4-1.2 3.6-3.6 3.6h-14.8c-2.4 0-3.6-1.2-3.6-3.6 0-2.4 1.2-3.6 3.6-3.6z" stroke="none"/><path d="m7.4-3.6c2.4 0 3.6 1.2 3.6 3.6 0 2.4-1.2 3.6-3.6 3.6h-14.8c-2.4 0-3.6-1.2-3.6-3.6 0-2.4 1.2-3.6 3.6-3.6z" fill="none" stroke="#fff"/></g><g fill="#4b4b4b" stroke="#4b4b4b" transform="matrix(.70710678 .70710678 -.70710678 .70710678 70 290)"><path d="m7.4-3.6c2.4 0 3.6 1.2 3.6 3.6 0 2.4-1.2 3.6-3.6 3.6h-14.8c-2.4 0-3.6-1.2-3.6-3.6 0-2.4 1.2-3.6 3.6-3.6z" stroke="none"/><path d="m7.4-3.6c2.4 0 3.6 1.2 3.6 3.6 0 2.4-1.2 3.6-3.6 3.6h-14.8c-2.4 0-3.6-1.2-3.6-3.6 0-2.4 1.2-3.6 3.6-3.6z" fill="none" stroke="#fff"/></g><g fill="#4b4b4b" stroke="#4b4b4b" transform="matrix(.70710678 .70710678 -.70710678 .70710678 90 290)"><path d="m7.4-3.6c2.4 0 3.6 1.2 3.6 3.6 0 2.4-1.2 3.6-3.6 3.6h-14.8c-2.4 0-3.6-1.2-3.6-3.6 0-2.4 1.2-3.6 3.6-3.6z" stroke="none"/><path d="m7.4-3.6c2.4 0 3.6 1.2 3.6 3.6 0 2.4-1.2 3.6-3.6 3.6h-14.8c-2.4 0-3.6-1.2-3.6-3.6 0-2.4 1.2-3.6 3.6-3.6z" fill="none" stroke="#fff"/></g><g fill="#cbcbcb" stroke="#cbcbcb" transform="matrix(.70710678 .70710678 -.70710678 .70710678 110 290)"><path d="m7.4-3.6c2.4 0 3.6 1.2 3.6 3.6 0 2.4-1.2 3.6-3.6 3.6h-14.8c-2.4 0-3.6-1.2-3.6-3.6 0-2.4 1.2-3.6 3.6-3.6z" stroke="none"/><path d="m7.4-3.6c2.4 0 3.6 1.2 3.6 3.6 0 2.4-1.2 3.6-3.6 3.6h-14.8c-2.4 0-3.6-1.2-3.6-3.6 0-2.4 1.2-3.6 3.6-3.6z" fill="none" stroke="#fff"/></g><g fill="#cbcbcb" stroke="#cbcbcb" transform="matrix(.70710678 .70710678 -.70710678 .70710678 130 290)"><path d="m7.4-3.6c2.4 0 3.6 1.2 3.6 3.6 0 2.4-1.2 3.6-3.6 3.6h-14.8c-2.4 0-3.6-1.2-3.6-3.6 0-2.4 1.2-3.6 3.6-3.6z" stroke="none"/><path d="m7.4-3.6c2.4 0 3.6 1.2 3.6 3.6 0 2.4-1.2 3.6-3.6 3.6h-14.8c-2.4 0-3.6-1.2-3.6-3.6 0-2.4 1.2-3.6 3.6-3.6z" fill="none" stroke="#fff"/></g><g fill="#c1c1c1" stroke="#c1c1c1" transform="matrix(.70710678 .70710678 -.70710678 .70710678 150 290)"><path d="m7.4-3.6c2.4 0 3.6 1.2 3.6 3.6 0 2.4-1.2 3.6-3.6 3.6h-14.8c-2.4 0-3.6-1.2-3.6-3.6 0-2.4 1.2-3.6 3.6-3.6z" stroke="none"/><path d="m7.4-3.6c2.4 0 3.6 1.2 3.6 3.6 0 2.4-1.2 3.6-3.6 3.6h-14.8c-2.4 0-3.6-1.2-3.6-3.6 0-2.4 1.2-3.6 3.6-3.6z" fill="none" stroke="#fff"/></g><g fill="#4b4b4b" stroke="#4b4b4b" transform="matrix(.70710678 .70710678 -.70710678 .70710678 170 290)"><path d="m7.4-3.6c2.4 0 3.6 1.2 3.6 3.6 0 2.4-1.2 3.6-3.6 3.6h-14.8c-2.4 0-3.6-1.2-3.6-3.6 0-2.4 1.2-3.6 3.6-3.6z" stroke="none"/><path d="m7.4-3.6c2.4 0 3.6 1.2 3.6 3.6 0 2.4-1.2 3.6-3.6 3.6h-14.8c-2.4 0-3.6-1.2-3.6-3.6 0-2.4 1.2-3.6 3.6-3.6z" fill="none" stroke="#fff"/></g><g fill="#4b4b4b" stroke="#4b4b4b" transform="matrix(.70710678 .70710678 -.70710678 .70710678 190 290)"><path d="m7.4-3.6c2.4 0 3.6 1.2 3.6 3.6 0 2.4-1.2 3.6-3.6 3.6h-14.8c-2.4 0-3.6-1.2-3.6-3.6 0-2.4 1.2-3.6 3.6-3.6z" stroke="none"/><path d="m7.4-3.6c2.4 0 3.6 1.2 3.6 3.6 0 2.4-1.2 3.6-3.6 3.6h-14.8c-2.4 0-3.6-1.2-3.6-3.6 0-2.4 1.2-3.6 3.6-3.6z" fill="none" stroke="#fff"/></g><g fill="#7f7f7f" stroke="#7f7f7f" transform="matrix(.70710678 .70710678 -.70710678 .70710678 210 290)"><path d="m7.4-3.6c2.4 0 3.6 1.2 3.6 3.6 0 2.4-1.2 3.6-3.6 3.6h-14.8c-2.4 0-3.6-1.2-3.6-3.6 0-2.4 1.2-3.6 3.6-3.6z" stroke="none"/><path d="m7.4-3.6c2.4 0 3.6 1.2 3.6 3.6 0 2.4-1.2 3.6-3.6 3.6h-14.8c-2.4 0-3.6-1.2-3.6-3.6 0-2.4 1.2-3.6 3.6-3.6z" fill="none" stroke="#fff"/></g><g fill="#4b4b4b" stroke="#4b4b4b" transform="matrix(.70710678 .70710678 -.70710678 .70710678 230 290)"><path d="m7.4-3.6c2.4 0 3.6 1.2 3.6 3.6 0 2.4-1.2 3.6-3.6 3.6h-14.8c-2.4 0-3.6-1.2-3.6-3.6 0-2.4 1.2-3.6 3.6-3.6z" stroke="none"/><path d="m7.4-3.6c2.4 0 3.6 1.2 3.6 3.6 0 2.4-1.2 3.6-3.6 3.6h-14.8c-2.4 0-3.6-1.2-3.6-3.6 0-2.4 1.2-3.6 3.6-3.6z" fill="none" stroke="#fff"/></g><g fill="#4b4b4b" stroke="#4b4b4b" transform="matrix(.70710678 .70710678 -.70710678 .70710678 250 290)"><path d="m7.4-3.6c2.4 0 3.6 1.2 3.6 3.6 0 2.4-1.2 3.6-3.6 3.6h-14.8c-2.4 0-3.6-1.2-3.6-3.6 0-2.4 1.2-3.6 3.6-3.6z" stroke="none"/><path d="m7.4-3.6c2.4 0 3.6 1.2 3.6 3.6 0 2.4-1.2 3.6-3.6 3.6h-14.8c-2.4 0-3.6-1.2-3.6-3.6 0-2.4 1.2-3.6 3.6-3.6z" fill="none" stroke="#fff"/></g><g fill="#c1c1c1" stroke="#c1c1c1" transform="matrix(.70710678 .70710678 -.70710678 .70710678 270 290)"><path d="m7.4-3.6c2.4 0 3.6 1.2 3.6 3.6 0 2.4-1.2 3.6-3.6 3.6h-14.8c-2.4 0-3.6-1.2-3.6-3.6 0-2.4 1.2-3.6 3.6-3.6z" stroke="none"/><path d="m7.4-3.6c2.4 0 3.6 1.2 3.6 3.6 0 2.4-1.2 3.6-3.6 3.6h-14.8c-2.4 0-3.6-1.2-3.6-3.6 0-2.4 1.2-3.6 3.6-3.6z" fill="none" stroke="#fff"/></g><g fill="#c1c1c1" stroke="#c1c1c1" transform="matrix(.70710678 .70710678 -.70710678 .70710678 290 290)"><path d="m7.4-3.6c2.4 0 3.6 1.2 3.6 3.6 0 2.4-1.2 3.6-3.6 3.6h-14.8c-2.4 0-3.6-1.2-3.6-3.6 0-2.4 1.2-3.6 3.6-3.6z" stroke="none"/><path d="m7.4-3.6c2.4 0 3.6 1.2 3.6 3.6 0 2.4-1.2 3.6-3.6 3.6h-14.8c-2.4 0-3.6-1.2-3.6-3.6 0-2.4 1.2-3.6 3.6-3.6z" fill="none" stroke="#fff"/></g><g fill="#c1c1c1" stroke="#c1c1c1" transform="matrix(.70710678 .70710678 -.70710678 .70710678 310 290)"><path d="m7.4-3.6c2.4 0 3.6 1.2 3.6 3.6 0 2.4-1.2 3.6-3.6 3.6h-14.8c-2.4 0-3.6-1.2-3.6-3.6 0-2.4 1.2-3.6 3.6-3.6z" stroke="none"/><path d="m7.4-3.6c2.4 0 3.6 1.2 3.6 3.6 0 2.4-1.2 3.6-3.6 3.6h-14.8c-2.4 0-3.6-1.2-3.6-3.6 0-2.4 1.2-3.6 3.6-3.6z" fill="none" stroke="#fff"/></g><g transform="matrix(.70710678 .70710678 -.70710678 .70710678 50 310)"><path d="m7.4-3.6c2.4 0 3.6 1.2 3.6 3.6 0 2.4-1.2 3.6-3.6 3.6h-14.8c-2.4 0-3.6-1.2-3.6-3.6 0-2.4 1.2-3.6 3.6-3.6z" stroke="none"/><path d="m7.4-3.6c2.4 0 3.6 1.2 3.6 3.6 0 2.4-1.2 3.6-3.6 3.6h-14.8c-2.4 0-3.6-1.2-3.6-3.6 0-2.4 1.2-3.6 3.6-3.6z" fill="none" stroke="#fff"/></g><g fill="#444" stroke="#444" transform="matrix(.70710678 .70710678 -.70710678 .70710678 70 310)"><path d="m7.4-3.6c2.4 0 3.6 1.2 3.6 3.6 0 2.4-1.2 3.6-3.6 3.6h-14.8c-2.4 0-3.6-1.2-3.6-3.6 0-2.4 1.2-3.6 3.6-3.6z" stroke="none"/><path d="m7.4-3.6c2.4 0 3.6 1.2 3.6 3.6 0 2.4-1.2 3.6-3.6 3.6h-14.8c-2.4 0-3.6-1.2-3.6-3.6 0-2.4 1.2-3.6 3.6-3.6z" fill="none" stroke="#fff"/></g><g transform="matrix(.70710678 .70710678 -.70710678 .70710678 90 310)"><path d="m7.4-3.6c2.4 0 3.6 1.2 3.6 3.6 0 2.4-1.2 3.6-3.6 3.6h-14.8c-2.4 0-3.6-1.2-3.6-3.6 0-2.4 1.2-3.6 3.6-3.6z" stroke="none"/><path d="m7.4-3.6c2.4 0 3.6 1.2 3.6 3.6 0 2.4-1.2 3.6-3.6 3.6h-14.8c-2.4 0-3.6-1.2-3.6-3.6 0-2.4 1.2-3.6 3.6-3.6z" fill="none" stroke="#fff"/></g><g fill="#4b4b4b" stroke="#4b4b4b" transform="matrix(.70710678 .70710678 -.70710678 .70710678 110 310)"><path d="m7.4-3.6c2.4 0 3.6 1.2 3.6 3.6 0 2.4-1.2 3.6-3.6 3.6h-14.8c-2.4 0-3.6-1.2-3.6-3.6 0-2.4 1.2-3.6 3.6-3.6z" stroke="none"/><path d="m7.4-3.6c2.4 0 3.6 1.2 3.6 3.6 0 2.4-1.2 3.6-3.6 3.6h-14.8c-2.4 0-3.6-1.2-3.6-3.6 0-2.4 1.2-3.6 3.6-3.6z" fill="none" stroke="#fff"/></g><g fill="#4b4b4b" stroke="#4b4b4b" transform="matrix(.70710678 .70710678 -.70710678 .70710678 130 310)"><path d="m7.4-3.6c2.4 0 3.6 1.2 3.6 3.6 0 2.4-1.2 3.6-3.6 3.6h-14.8c-2.4 0-3.6-1.2-3.6-3.6 0-2.4 1.2-3.6 3.6-3.6z" stroke="none"/><path d="m7.4-3.6c2.4 0 3.6 1.2 3.6 3.6 0 2.4-1.2 3.6-3.6 3.6h-14.8c-2.4 0-3.6-1.2-3.6-3.6 0-2.4 1.2-3.6 3.6-3.6z" fill="none" stroke="#fff"/></g><g fill="#444" stroke="#444" transform="matrix(.70710678 .70710678 -.70710678 .70710678 170 310)"><path d="m7.4-3.6c2.4 0 3.6 1.2 3.6 3.6 0 2.4-1.2 3.6-3.6 3.6h-14.8c-2.4 0-3.6-1.2-3.6-3.6 0-2.4 1.2-3.6 3.6-3.6z" stroke="none"/><path d="m7.4-3.6c2.4 0 3.6 1.2 3.6 3.6 0 2.4-1.2 3.6-3.6 3.6h-14.8c-2.4 0-3.6-1.2-3.6-3.6 0-2.4 1.2-3.6 3.6-3.6z" fill="none" stroke="#fff"/></g><g transform="matrix(.70710678 .70710678 -.70710678 .70710678 190 310)"><path d="m7.4-3.6c2.4 0 3.6 1.2 3.6 3.6 0 2.4-1.2 3.6-3.6 3.6h-14.8c-2.4 0-3.6-1.2-3.6-3.6 0-2.4 1.2-3.6 3.6-3.6z" stroke="none"/><path d="m7.4-3.6c2.4 0 3.6 1.2 3.6 3.6 0 2.4-1.2 3.6-3.6 3.6h-14.8c-2.4 0-3.6-1.2-3.6-3.6 0-2.4 1.2-3.6 3.6-3.6z" fill="none" stroke="#fff"/></g><g fill="#444" stroke="#444" transform="matrix(.70710678 .70710678 -.70710678 .70710678 210 310)"><path d="m7.4-3.6c2.4 0 3.6 1.2 3.6 3.6 0 2.4-1.2 3.6-3.6 3.6h-14.8c-2.4 0-3.6-1.2-3.6-3.6 0-2.4 1.2-3.6 3.6-3.6z" stroke="none"/><path d="m7.4-3.6c2.4 0 3.6 1.2 3.6 3.6 0 2.4-1.2 3.6-3.6 3.6h-14.8c-2.4 0-3.6-1.2-3.6-3.6 0-2.4 1.2-3.6 3.6-3.6z" fill="none" stroke="#fff"/></g><g transform="matrix(.70710678 .70710678 -.70710678 .70710678 230 310)"><path d="m7.4-3.6c2.4 0 3.6 1.2 3.6 3.6 0 2.4-1.2 3.6-3.6 3.6h-14.8c-2.4 0-3.6-1.2-3.6-3.6 0-2.4 1.2-3.6 3.6-3.6z" stroke="none"/><path d="m7.4-3.6c2.4 0 3.6 1.2 3.6 3.6 0 2.4-1.2 3.6-3.6 3.6h-14.8c-2.4 0-3.6-1.2-3.6-3.6 0-2.4 1.2-3.6 3.6-3.6z" fill="none" stroke="#fff"/></g><g fill="#4b4b4b" stroke="#4b4b4b" transform="matrix(.70710678 .70710678 -.70710678 .70710678 250 310)"><path d="m7.4-3.6c2.4 0 3.6 1.2 3.6 3.6 0 2.4-1.2 3.6-3.6 3.6h-14.8c-2.4 0-3.6-1.2-3.6-3.6 0-2.4 1.2-3.6 3.6-3.6z" stroke="none"/><path d="m7.4-3.6c2.4 0 3.6 1.2 3.6 3.6 0 2.4-1.2 3.6-3.6 3.6h-14.8c-2.4 0-3.6-1.2-3.6-3.6 0-2.4 1.2-3.6 3.6-3.6z" fill="none" stroke="#fff"/></g></g></svg>