<svg color-interpolation="auto" height="320" stroke="#000" stroke-linecap="square" stroke-miterlimit="10" width="320" xmlns="http://www.w3.org/2000/svg"><g stroke-linecap="round" stroke-width="1.5"><path d="m130 10h6.4" fill="none"/><g><path d="m130 10 3.2 5.5426" fill="none"/><path d="m130 10-3.2 5.5426" fill="none"/><path d="m130 10h-6.4" fill="none"/><path d="m130 10-3.2-5.5426" fill="none"/><path d="m130 10 3.2-5.5426" fill="none"/><path d="m150 10h6.4" fill="none"/><path d="m150 10 3.2 5.5426" fill="none"/><path d="m150 10-3.2 5.5426" fill="none"/><path d="m150 10h-6.4" fill="none"/><path d="m150 10-3.2-5.5426" fill="none"/><path d="m150 10 3.2-5.5426" fill="none"/><path d="m130 30h6.4" fill="none"/><path d="m130 30 3.2 5.5426" fill="none"/><path d="m130 30-3.2 5.5426" fill="none"/><path d="m130 30h-6.4" fill="none"/><path d="m130 30-3.2-5.5426" fill="none"/><path d="m130 30 3.2-5.5426" fill="none"/><path d="m150 30h6.4" fill="none"/><path d="m150 30 3.2 5.5426" fill="none"/><path d="m150 30-3.2 5.5426" fill="none"/><path d="m150 30h-6.4" fill="none"/><path d="m150 30-3.2-5.5426" fill="none"/><path d="m150 30 3.2-5.5426" fill="none"/><path d="m190 30h6.4" fill="none"/><path d="m190 30 3.2 5.5426" fill="none"/><path d="m190 30-3.2 5.5426" fill="none"/><path d="m190 30h-6.4" fill="none"/><path d="m190 30-3.2-5.5426" fill="none"/><path d="m190 30 3.2-5.5426" fill="none"/><path d="m150 50h6.4" fill="none"/><path d="m150 50 3.2 5.5426" fill="none"/><path d="m150 50-3.2 5.5426" fill="none"/><path d="m150 50h-6.4" fill="none"/><path d="m150 50-3.2-5.5426" fill="none"/><path d="m150 50 3.2-5.5426" fill="none"/><path d="m170 50h6.4" fill="none"/><path d="m170 50 3.2 5.5426" fill="none"/><path d="m170 50-3.2 5.5426" fill="none"/><path d="m170 50h-6.4" fill="none"/><path d="m170 50-3.2-5.5426" fill="none"/><path d="m170 50 3.2-5.5426" fill="none"/><path d="m190 50h6.4" fill="none"/><path d="m190 50 3.2 5.5426" fill="none"/><path d="m190 50-3.2 5.5426" fill="none"/><path d="m190 50h-6.4" fill="none"/><path d="m190 50-3.2-5.5426" fill="none"/><path d="m190 50 3.2-5.5426" fill="none"/><path d="m123.6 63.6h12.8v12.8h-12.8z" fill="none" stroke-width="2"/><path d="m143.6 63.6h12.8v12.8h-12.8z" fill="none" stroke-width="2"/><path d="m163.6 63.6h12.8v12.8h-12.8z" fill="none" stroke-width="2"/><path d="m185.2 70h9.6" fill="none" stroke-width="2"/><path d="m190 65.2v9.6" fill="none" stroke-width="2"/><path d="m103.6 83.6h12.8v12.8h-12.8z" fill="none" stroke-width="2"/><path d="m123.6 83.6h12.8v12.8h-12.8z" fill="none" stroke-width="2"/><path d="m143.6 83.6h12.8v12.8h-12.8z" fill="none" stroke-width="2"/><path d="m163.6 83.6h12.8v12.8h-12.8z" fill="none" stroke-width="2"/><path d="m183.6 83.6h12.8v12.8h-12.8z" fill="none" stroke-width="2"/><path d="m205.2 90h9.6" fill="none" stroke-width="2"/><path d="m210 85.2v9.6" fill="none" stroke-width="2"/><path d="m83.6 103.6h12.8v12.8h-12.8z" fill="none" stroke-width="2"/><path d="m103.6 103.6h12.8v12.8h-12.8z" fill="none" stroke-width="2"/><path d="m130 103.6 1.8809 3.8111 4.2059.6112-3.0434 2.9666.7184 4.1888-3.7618-1.9777-3.7618 1.9777.7184-4.1888-3.0434-2.9666 4.2059-.6112z" stroke="none"/><path d="m143.6 103.6h12.8v12.8h-12.8z" fill="none" stroke-width="2"/><path d="m170 103.6 1.8809 3.8111 4.2059.6112-3.0434 2.9666.7184 4.1888-3.7618-1.9777-3.7618 1.9777.7184-4.1888-3.0434-2.9666 4.2059-.6112z" stroke="none"/><path d="m183.6 103.6h12.8v12.8h-12.8z" fill="none" stroke-width="2"/><path d="m203.6 103.6h12.8v12.8h-12.8z" fill="none" stroke-width="2"/><path d="m225.2 110h9.6" fill="none" stroke-width="2"/><path d="m230 105.2v9.6" fill="none" stroke-width="2"/><path d="m83.6 123.6h12.8v12.8h-12.8z" fill="none" stroke-width="2"/><path d="m103.6 123.6h12.8v12.8h-12.8z" fill="none" stroke-width="2"/><path d="m130 123.6 1.8809 3.8111 4.2059.6112-3.0434 2.9666.7184 4.1888-3.7618-1.9777-3.7618 1.9777.7184-4.1888-3.0434-2.9666 4.2059-.6112z" stroke="none"/><path d="m143.6 123.6h12.8v12.8h-12.8z" fill="none" stroke-width="2"/><path d="m170 123.6 1.8809 3.8111 4.2059.6112-3.0434 2.9666.7184 4.1888-3.7618-1.9777-3.7618 1.9777.7184-4.1888-3.0434-2.9666 4.2059-.6112z" stroke="none"/><path d="m183.6 123.6h12.8v12.8h-12.8z" fill="none" stroke-width="2"/><path d="m203.6 123.6h12.8v12.8h-12.8z" fill="none" stroke-width="2"/><path d="m225.2 130h9.6" fill="none" stroke-width="2"/><path d="m230 125.2v9.6" fill="none" stroke-width="2"/><path d="m23.6 143.6h12.8v12.8h-12.8z" fill="none" stroke-width="2"/><circle cx="50" cy="150" fill="none" r="6.4" stroke-width="2"/><path d="m63.6 143.6h12.8v12.8h-12.8z" fill="none" stroke-width="2"/><circle cx="90" cy="150" fill="none" r="6.4" stroke-width="2"/><path d="m103.6 143.6h12.8v12.8h-12.8z" fill="none" stroke-width="2"/><path d="m123.6 143.6h12.8v12.8h-12.8z" fill="none" stroke-width="2"/><path d="m143.6 143.6h12.8v12.8h-12.8z" fill="none" stroke-width="2"/><path d="m163.6 143.6h12.8v12.8h-12.8z" fill="none" stroke-width="2"/><path d="m183.6 143.6h12.8v12.8h-12.8z" fill="none" stroke-width="2"/><path d="m203.6 143.6h12.8v12.8h-12.8z" fill="none" stroke-width="2"/><path d="m225.2 150h9.6" fill="none" stroke-width="2"/><path d="m230 145.2v9.6" fill="none" stroke-width="2"/><path d="m23.6 163.6h12.8v12.8h-12.8z" fill="none" stroke-width="2"/><path d="m43.6 163.6h12.8v12.8h-12.8z" fill="none" stroke-width="2"/><path d="m63.6 163.6h12.8v12.8h-12.8z" fill="none" stroke-width="2"/><path d="m83.6 163.6h12.8v12.8h-12.8z" fill="none" stroke-width="2"/><path d="m103.6 163.6h12.8v12.8h-12.8z" fill="none" stroke-width="2"/><path d="m123.6 163.6h12.8v12.8h-12.8z" fill="none" stroke-width="2"/><path d="m143.6 163.6h12.8v12.8h-12.8z" fill="none" stroke-width="2"/><path d="m163.6 163.6h12.8v12.8h-12.8z" fill="none" stroke-width="2"/><path d="m183.6 163.6h12.8v12.8h-12.8z" fill="none" stroke-width="2"/><path d="m203.6 163.6h12.8v12.8h-12.8z" fill="none" stroke-width="2"/><path d="m225.2 170h9.6" fill="none" stroke-width="2"/><path d="m230 165.2v9.6" fill="none" stroke-width="2"/><path d="m245.2 170h9.6" fill="none" stroke-width="2"/><path d="m250 165.2v9.6" fill="none" stroke-width="2"/><path d="m23.6 183.6h12.8v12.8h-12.8z" fill="none" stroke-width="2"/><circle cx="50" cy="190" r="6.4" stroke="none"/><path d="m70 184.2099-6.4 11.0851h12.8z" stroke="none"/><path d="m90 184.2099-6.4 11.0851h12.8z" stroke="none"/><circle cx="110" cy="190" r="6.4" stroke="none"/><path d="m130 183.6 6.4 6.4-6.4 6.4-6.4-6.4z" fill="none" stroke-width="2"/><path d="m143.6 183.6h12.8v12.8h-12.8z" fill="none" stroke-width="2"/><path d="m163.6 183.6h12.8v12.8h-12.8z" fill="none" stroke-width="2"/><path d="m183.6 183.6h12.8v12.8h-12.8z" fill="none" stroke-width="2"/><path d="m205.2 190h9.6" fill="none" stroke-width="2"/><path d="m210 185.2v9.6" fill="none" stroke-width="2"/><path d="m225.2 190h9.6" fill="none" stroke-width="2"/><path d="m230 185.2v9.6" fill="none" stroke-width="2"/><path d="m245.2 190h9.6" fill="none" stroke-width="2"/><path d="m250 185.2v9.6" fill="none" stroke-width="2"/><circle cx="70" cy="210" r="6.4" stroke="none"/><circle cx="90" cy="210" r="6.4" stroke="none"/><path d="m110 203.6 6.4 6.4-6.4 6.4-6.4-6.4z" fill="none" stroke-width="2"/><path d="m130 203.6 6.4 6.4-6.4 6.4-6.4-6.4z" fill="none" stroke-width="2"/><path d="m150 203.6 6.4 6.4-6.4 6.4-6.4-6.4z" fill="none" stroke-width="2"/><path d="m170 203.6 6.4 6.4-6.4 6.4-6.4-6.4z" fill="none" stroke-width="2"/><path d="m185.2 210h9.6" fill="none" stroke-width="2"/><path d="m190 205.2v9.6" fill="none" stroke-width="2"/><path d="m205.2 210h9.6" fill="none" stroke-width="2"/><path d="m210 205.2v9.6" fill="none" stroke-width="2"/><path d="m225.2 210h9.6" fill="none" stroke-width="2"/><path d="m230 205.2v9.6" fill="none" stroke-width="2"/><path d="m245.2 210h9.6" fill="none" stroke-width="2"/><path d="m250 205.2v9.6" fill="none" stroke-width="2"/><path d="m45.2 230h9.6" fill="none" stroke-width="2"/><path d="m50 225.2v9.6" fill="none" stroke-width="2"/><path d="m70 224.2099-6.4 11.0851h12.8z" stroke="none"/><path d="m90 223.6 6.4 6.4-6.4 6.4-6.4-6.4z" fill="none" stroke-width="2"/><path d="m110 223.6 6.4 6.4-6.4 6.4-6.4-6.4z" fill="none" stroke-width="2"/><path d="m130 224.2099-6.4 11.0851h12.8z" stroke="none"/><g fill="none"><path d="m150 223.6 6.4 6.4-6.4 6.4-6.4-6.4z" stroke-width="2"/><path d="m165.2 230h9.6" stroke-width="2"/><path d="m170 225.2v9.6" stroke-width="2"/><path d="m185.2 230h9.6" stroke-width="2"/><path d="m190 225.2v9.6" stroke-width="2"/><path d="m205.2 230h9.6" stroke-width="2"/><path d="m210 225.2v9.6" stroke-width="2"/><path d="m225.2 230h9.6" stroke-width="2"/><path d="m230 225.2v9.6" stroke-width="2"/><path d="m245.2 230h9.6" stroke-width="2"/><path d="m250 225.2v9.6" stroke-width="2"/><path d="m30 243.6 6.4 6.4-6.4 6.4-6.4-6.4z" stroke-width="2"/><path d="m50 243.6 6.4 6.4-6.4 6.4-6.4-6.4z" stroke-width="2"/><path d="m65.2 250h9.6" stroke-width="2"/><path d="m70 245.2v9.6" stroke-width="2"/><path d="m85.2 250h9.6" stroke-width="2"/><path d="m90 245.2v9.6" stroke-width="2"/><path d="m105.2 250h9.6" stroke-width="2"/><path d="m110 245.2v9.6" stroke-width="2"/><path d="m125.2 250h9.6" stroke-width="2"/><path d="m130 245.2v9.6" stroke-width="2"/><path d="m145.2 250h9.6" stroke-width="2"/><path d="m150 245.2v9.6" stroke-width="2"/><path d="m170 243.6 6.4 6.4-6.4 6.4-6.4-6.4z" stroke-width="2"/><path d="m190 243.6 6.4 6.4-6.4 6.4-6.4-6.4z" stroke-width="2"/><path d="m205.2 250h9.6" stroke-width="2"/><path d="m210 245.2v9.6" stroke-width="2"/><path d="m225.2 250h9.6" stroke-width="2"/><path d="m230 245.2v9.6" stroke-width="2"/><path d="m245.2 250h9.6" stroke-width="2"/><path d="m250 245.2v9.6" stroke-width="2"/><path d="m265.2 250h9.6" stroke-width="2"/><path d="m270 245.2v9.6" stroke-width="2"/><path d="m25.2 270h9.6" stroke-width="2"/><path d="m30 265.2v9.6" stroke-width="2"/><path d="m45.2 270h9.6" stroke-width="2"/><path d="m50 265.2v9.6" stroke-width="2"/><path d="m65.2 270h9.6" stroke-width="2"/><path d="m70 265.2v9.6" stroke-width="2"/><path d="m90 270h6.4"/><path d="m90 270 3.2 5.5426"/><path d="m90 270-3.2 5.5426"/><path d="m90 270h-6.4"/><path d="m90 270-3.2-5.5426"/><path d="m90 270 3.2-5.5426"/><path d="m110 270h6.4"/><path d="m110 270 3.2 5.5426"/><path d="m110 270-3.2 5.5426"/><path d="m110 270h-6.4"/><path d="m110 270-3.2-5.5426"/><path d="m110 270 3.2-5.5426"/><path d="m130 270h6.4"/><path d="m130 270 3.2 5.5426"/><path d="m130 270-3.2 5.5426"/><path d="m130 270h-6.4"/><path d="m130 270-3.2-5.5426"/><path d="m130 270 3.2-5.5426"/><path d="m145.2 270h9.6" stroke-width="2"/><path d="m150 265.2v9.6" stroke-width="2"/><path d="m170 263.6 6.4 6.4-6.4 6.4-6.4-6.4z" stroke-width="2"/><path d="m190 263.6 6.4 6.4-6.4 6.4-6.4-6.4z" stroke-width="2"/><path d="m205.2 270h9.6" stroke-width="2"/><path d="m210 265.2v9.6" stroke-width="2"/><path d="m225.2 270h9.6" stroke-width="2"/><path d="m230 265.2v9.6" stroke-width="2"/><path d="m245.2 270h9.6" stroke-width="2"/><path d="m250 265.2v9.6" stroke-width="2"/><path d="m265.2 270h9.6" stroke-width="2"/><path d="m270 265.2v9.6" stroke-width="2"/><path d="m285.2 270h9.6" stroke-width="2"/><path d="m290 265.2v9.6" stroke-width="2"/><path d="m305.2 270h9.6" stroke-width="2"/><path d="m310 265.2v9.6" stroke-width="2"/><path d="m45.2 290h9.6" stroke-width="2"/><path d="m50 285.2v9.6" stroke-width="2"/><path d="m65.2 290h9.6" stroke-width="2"/><path d="m70 285.2v9.6" stroke-width="2"/><path d="m85.2 290h9.6" stroke-width="2"/><path d="m90 285.2v9.6" stroke-width="2"/><path d="m110 290h6.4"/><path d="m110 290 3.2 5.5426"/><path d="m110 290-3.2 5.5426"/><path d="m110 290h-6.4"/><path d="m110 290-3.2-5.5426"/><path d="m110 290 3.2-5.5426"/><path d="m130 290h6.4"/><path d="m130 290 3.2 5.5426"/><path d="m130 290-3.2 5.5426"/><path d="m130 290h-6.4"/><path d="m130 290-3.2-5.5426"/><path d="m130 290 3.2-5.5426"/><path d="m143.6 283.6h12.8v12.8h-12.8z" stroke-width="2"/><path d="m165.2 290h9.6" stroke-width="2"/><path d="m170 285.2v9.6" stroke-width="2"/><path d="m185.2 290h9.6" stroke-width="2"/><path d="m190 285.2v9.6" stroke-width="2"/><path d="m210 283.6 6.4 6.4-6.4 6.4-6.4-6.4z" stroke-width="2"/><path d="m225.2 290h9.6" stroke-width="2"/><path d="m230 285.2v9.6" stroke-width="2"/><path d="m245.2 290h9.6" stroke-width="2"/><path d="m250 285.2v9.6" stroke-width="2"/><path d="m263.6 283.6h12.8v12.8h-12.8z" stroke-width="2"/><path d="m283.6 283.6h12.8v12.8h-12.8z" stroke-width="2"/><path d="m303.6 283.6h12.8v12.8h-12.8z" stroke-width="2"/></g><path d="m43.6 303.6h12.8v12.8h-12.8z" stroke="none"/><circle cx="70" cy="310" fill="none" r="6.4" stroke-width="2"/><path d="m83.6 303.6h12.8v12.8h-12.8z" stroke="none"/><path d="m105.2 310h9.6" fill="none" stroke-width="2"/><path d="m110 305.2v9.6" fill="none" stroke-width="2"/><path d="m125.2 310h9.6" fill="none" stroke-width="2"/><path d="m130 305.2v9.6" fill="none" stroke-width="2"/><circle cx="170" cy="310" fill="none" r="6.4" stroke-width="2"/><path d="m183.6 303.6h12.8v12.8h-12.8z" stroke="none"/><circle cx="210" cy="310" fill="none" r="6.4" stroke-width="2"/><path d="m223.6 303.6h12.8v12.8h-12.8z" stroke="none"/><path d="m245.2 310h9.6" fill="none" stroke-width="2"/><path d="m250 305.2v9.6" fill="none" stroke-width="2"/><path d="m0 0v320" fill="none" stroke="#b4b4b4" stroke-width="2"/><path d="m20 0v320" fill="none" stroke="#b4b4b4" stroke-width="1"/><path d="m40 0v320" fill="none" stroke="#b4b4b4" stroke-width="1"/><path d="m60 0v320" fill="none" stroke="#b4b4b4" stroke-width="1"/><path d="m80 0v320" fill="none" stroke="#b4b4b4" stroke-width="1"/><path d="m100 0v320" fill="none" stroke="#b4b4b4" stroke-width="1"/><path d="m120 0v320" fill="none" stroke="#b4b4b4" stroke-width="1"/><path d="m140 0v320" fill="none" stroke="#b4b4b4" stroke-width="1"/><path d="m160 0v320" fill="none" stroke="#b4b4b4" stroke-width="1"/><path d="m180 0v320" fill="none" stroke="#b4b4b4" stroke-width="1"/><path d="m200 0v320" fill="none" stroke="#b4b4b4" stroke-width="1"/><path d="m220 0v320" fill="none" stroke="#b4b4b4" stroke-width="1"/><path d="m240 0v320" fill="none" stroke="#b4b4b4" stroke-width="1"/><path d="m260 0v320" fill="none" stroke="#b4b4b4" stroke-width="1"/><path d="m280 0v320" fill="none" stroke="#b4b4b4" stroke-width="1"/><path d="m300 0v320" fill="none" stroke="#b4b4b4" stroke-width="1"/><path d="m320 0v320" fill="none" stroke="#b4b4b4" stroke-width="2"/><path d="m0 0h320" fill="none" stroke="#b4b4b4" stroke-width="2"/><path d="m0 20h320" fill="none" stroke="#b4b4b4" stroke-width="1"/><path d="m0 40h320" fill="none" stroke="#b4b4b4" stroke-width="1"/><path d="m0 60h320" fill="none" stroke="#b4b4b4" stroke-width="1"/><path d="m0 80h320" fill="none" stroke="#b4b4b4" stroke-width="1"/><path d="m0 100h320" fill="none" stroke="#b4b4b4" stroke-width="1"/><path d="m0 120h320" fill="none" stroke="#b4b4b4" stroke-width="1"/><path d="m0 140h320" fill="none" stroke="#b4b4b4" stroke-width="1"/><path d="m0 160h320" fill="none" stroke="#b4b4b4" stroke-width="1"/><path d="m0 180h320" fill="none" stroke="#b4b4b4" stroke-width="1"/><path d="m0 200h320" fill="none" stroke="#b4b4b4" stroke-width="1"/><path d="m0 220h320" fill="none" stroke="#b4b4b4" stroke-width="1"/><path d="m0 240h320" fill="none" stroke="#b4b4b4" stroke-width="1"/><path d="m0 260h320" fill="none" stroke="#b4b4b4" stroke-width="1"/><path d="m0 280h320" fill="none" stroke="#b4b4b4" stroke-width="1"/><path d="m0 300h320" fill="none" stroke="#b4b4b4" stroke-width="1"/><path d="m0 320h320" fill="none" stroke="#b4b4b4" stroke-width="2"/></g></g></svg>