<svg color-interpolation="auto" height="480" stroke="#000" stroke-linecap="square" stroke-miterlimit="10" width="480" xmlns="http://www.w3.org/2000/svg"><g stroke-linecap="round" stroke-width="2"><path d="m185.2 65.2 9.6 9.6" fill="none"/><g><g fill="none"><path d="m185.2 74.8 9.6-9.6"/><path d="m205.2 65.2 9.6 9.6"/><path d="m205.2 74.8 9.6-9.6"/><path d="m225.2 65.2 9.6 9.6"/><path d="m225.2 74.8 9.6-9.6"/><path d="m245.2 65.2 9.6 9.6"/><path d="m245.2 74.8 9.6-9.6"/><path d="m265.2 65.2 9.6 9.6"/><path d="m265.2 74.8 9.6-9.6"/><path d="m285.2 65.2 9.6 9.6"/><path d="m285.2 74.8 9.6-9.6"/><path d="m145.2 85.2 9.6 9.6"/><path d="m145.2 94.8 9.6-9.6"/><circle cx="170" cy="90" r="4.8"/><circle cx="190" cy="90" r="4.8"/><path d="m210 85.6574-4.8 8.3139h9.6z"/><path d="m230 85.6574-4.8 8.3139h9.6z"/><path d="m250 85.6574-4.8 8.3139h9.6z"/><path d="m270 85.6574-4.8 8.3139h9.6z"/><circle cx="290" cy="90" r="4.8"/><circle cx="310" cy="90" r="4.8"/><path d="m325.2 85.2 9.6 9.6"/><path d="m325.2 94.8 9.6-9.6"/><path d="m125.2 105.2 9.6 9.6"/><path d="m125.2 114.8 9.6-9.6"/><circle cx="150" cy="110" r="4.8"/><path d="m170 105.6574-4.8 8.3139h9.6z"/><path d="m190 105.6574-4.8 8.3139h9.6z"/><path d="m210 105.6574-4.8 8.3139h9.6z"/><path d="m230 105.6574-4.8 8.3139h9.6z"/><path d="m250 105.6574-4.8 8.3139h9.6z"/><path d="m270 105.6574-4.8 8.3139h9.6z"/><path d="m290 105.6574-4.8 8.3139h9.6z"/><path d="m310 105.6574-4.8 8.3139h9.6z"/><circle cx="330" cy="110" r="4.8"/><path d="m345.2 105.2 9.6 9.6"/><path d="m345.2 114.8 9.6-9.6"/><path d="m105.2 125.2 9.6 9.6"/><path d="m105.2 134.8 9.6-9.6"/><circle cx="130" cy="130" r="4.8"/><path d="m150 125.6574-4.8 8.3139h9.6z"/><path d="m170 125.6574-4.8 8.3139h9.6z"/><path d="m190 125.6574-4.8 8.3139h9.6z"/><path d="m210 125.6574-4.8 8.3139h9.6z"/><path d="m230 125.6574-4.8 8.3139h9.6z"/><path d="m250 125.6574-4.8 8.3139h9.6z"/><path d="m270 125.6574-4.8 8.3139h9.6z"/><path d="m290 125.6574-4.8 8.3139h9.6z"/><path d="m310 125.6574-4.8 8.3139h9.6z"/><path d="m330 125.6574-4.8 8.3139h9.6z"/><circle cx="350" cy="130" r="4.8"/><path d="m365.2 125.2 9.6 9.6"/><path d="m365.2 134.8 9.6-9.6"/><path d="m85.2 145.2 9.6 9.6"/><path d="m85.2 154.8 9.6-9.6"/><circle cx="110" cy="150" r="4.8"/><path d="m130 145.6574-4.8 8.3139h9.6z"/><path d="m150 145.6574-4.8 8.3139h9.6z"/><path d="m170 145.6574-4.8 8.3139h9.6z"/><path d="m190 145.6574-4.8 8.3139h9.6z"/><path d="m210 145.6574-4.8 8.3139h9.6z"/><path d="m230 145.6574-4.8 8.3139h9.6z"/><path d="m250 145.6574-4.8 8.3139h9.6z"/><path d="m270 145.6574-4.8 8.3139h9.6z"/><path d="m290 145.6574-4.8 8.3139h9.6z"/><path d="m310 145.6574-4.8 8.3139h9.6z"/><path d="m330 145.6574-4.8 8.3139h9.6z"/><path d="m350 145.6574-4.8 8.3139h9.6z"/><circle cx="370" cy="150" r="4.8"/><path d="m385.2 145.2 9.6 9.6"/><path d="m385.2 154.8 9.6-9.6"/><circle cx="90" cy="170" r="4.8"/><path d="m110 165.6574-4.8 8.3139h9.6z"/><path d="m130 165.6574-4.8 8.3139h9.6z"/><path d="m150 165.6574-4.8 8.3139h9.6z"/><path d="m170 165.6574-4.8 8.3139h9.6z"/><path d="m190 165.6574-4.8 8.3139h9.6z"/><path d="m210 165.6574-4.8 8.3139h9.6z"/><path d="m230 165.6574-4.8 8.3139h9.6z"/><path d="m250 165.6574-4.8 8.3139h9.6z"/><path d="m270 165.6574-4.8 8.3139h9.6z"/><path d="m290 165.6574-4.8 8.3139h9.6z"/><path d="m310 165.6574-4.8 8.3139h9.6z"/><path d="m330 165.6574-4.8 8.3139h9.6z"/><path d="m350 165.6574-4.8 8.3139h9.6z"/><path d="m370 165.6574-4.8 8.3139h9.6z"/><circle cx="390" cy="170" r="4.8"/><path d="m65.2 185.2 9.6 9.6"/><path d="m65.2 194.8 9.6-9.6"/><circle cx="90" cy="190" r="4.8"/><path d="m110 185.6574-4.8 8.3139h9.6z"/><path d="m130 185.6574-4.8 8.3139h9.6z"/><path d="m150 185.6574-4.8 8.3139h9.6z"/><path d="m170 185.6574-4.8 8.3139h9.6z"/><path d="m190 185.6574-4.8 8.3139h9.6z"/><path d="m210 185.6574-4.8 8.3139h9.6z"/><path d="m230 185.6574-4.8 8.3139h9.6z"/><path d="m250 185.6574-4.8 8.3139h9.6z"/><path d="m270 185.6574-4.8 8.3139h9.6z"/><path d="m290 185.6574-4.8 8.3139h9.6z"/><path d="m310 185.6574-4.8 8.3139h9.6z"/><path d="m330 185.6574-4.8 8.3139h9.6z"/><path d="m350 185.6574-4.8 8.3139h9.6z"/><path d="m370 185.6574-4.8 8.3139h9.6z"/><circle cx="390" cy="190" r="4.8"/><path d="m405.2 185.2 9.6 9.6"/><path d="m405.2 194.8 9.6-9.6"/><path d="m65.2 205.2 9.6 9.6"/><path d="m65.2 214.8 9.6-9.6"/><path d="m90 205.6574-4.8 8.3139h9.6z"/><path d="m110 205.6574-4.8 8.3139h9.6z"/><path d="m130 205.6574-4.8 8.3139h9.6z"/><path d="m150 205.6574-4.8 8.3139h9.6z"/><path d="m170 205.6574-4.8 8.3139h9.6z"/><path d="m190 205.6574-4.8 8.3139h9.6z"/><path d="m210 205.6574-4.8 8.3139h9.6z"/><path d="m230 205.6574-4.8 8.3139h9.6z"/><path d="m250 205.6574-4.8 8.3139h9.6z"/><path d="m270 205.6574-4.8 8.3139h9.6z"/><path d="m290 205.6574-4.8 8.3139h9.6z"/><path d="m310 205.6574-4.8 8.3139h9.6z"/><path d="m330 205.6574-4.8 8.3139h9.6z"/><path d="m350 205.6574-4.8 8.3139h9.6z"/><path d="m370 205.6574-4.8 8.3139h9.6z"/><path d="m390 205.6574-4.8 8.3139h9.6z"/><path d="m405.2 205.2 9.6 9.6"/><path d="m405.2 214.8 9.6-9.6"/><path d="m65.2 225.2 9.6 9.6"/><path d="m65.2 234.8 9.6-9.6"/><path d="m90 225.6574-4.8 8.3139h9.6z"/></g><path d="m105.2 225.2h9.6v9.6h-9.6z" stroke="none"/><path d="m130 225.6574-4.8 8.3139h9.6z" fill="none"/><path d="m150 225.6574-4.8 8.3139h9.6z" fill="none"/><path d="m165.2 225.2h9.6v9.6h-9.6z" stroke="none"/><path d="m190 225.6574-4.8 8.3139h9.6z" fill="none"/><path d="m210 225.6574-4.8 8.3139h9.6z" fill="none"/><path d="m225.2 225.2h9.6v9.6h-9.6z" stroke="none"/><path d="m250 225.6574-4.8 8.3139h9.6z" fill="none"/><path d="m270 225.6574-4.8 8.3139h9.6z" fill="none"/><path d="m285.2 225.2h9.6v9.6h-9.6z" stroke="none"/><path d="m310 225.6574-4.8 8.3139h9.6z" fill="none"/><path d="m330 225.6574-4.8 8.3139h9.6z" fill="none"/><path d="m350 225.6574-4.8 8.3139h9.6z" fill="none"/><path d="m370 225.6574-4.8 8.3139h9.6z" fill="none"/><path d="m390 225.6574-4.8 8.3139h9.6z" fill="none"/><path d="m405.2 225.2 9.6 9.6" fill="none"/><path d="m405.2 234.8 9.6-9.6" fill="none"/><path d="m65.2 245.2 9.6 9.6" fill="none"/><path d="m65.2 254.8 9.6-9.6" fill="none"/><path d="m90 245.6574-4.8 8.3139h9.6z" fill="none"/><path d="m105.2 245.2h9.6v9.6h-9.6z" stroke="none"/><path d="m125.2 245.2h9.6v9.6h-9.6z" stroke="none"/><path d="m145.2 245.2h9.6v9.6h-9.6z" stroke="none"/><path d="m165.2 245.2h9.6v9.6h-9.6z" stroke="none"/><path d="m190 245.6574-4.8 8.3139h9.6z" fill="none"/><path d="m210 245.6574-4.8 8.3139h9.6z" fill="none"/><path d="m225.2 245.2h9.6v9.6h-9.6z" stroke="none"/><path d="m245.2 245.2h9.6v9.6h-9.6z" stroke="none"/><path d="m265.2 245.2h9.6v9.6h-9.6z" stroke="none"/><path d="m285.2 245.2h9.6v9.6h-9.6z" stroke="none"/><path d="m310 245.6574-4.8 8.3139h9.6z" fill="none"/><path d="m330 245.6574-4.8 8.3139h9.6z" fill="none"/><path d="m350 245.6574-4.8 8.3139h9.6z" fill="none"/><path d="m370 245.6574-4.8 8.3139h9.6z" fill="none"/><path d="m390 245.6574-4.8 8.3139h9.6z" fill="none"/><path d="m405.2 245.2 9.6 9.6" fill="none"/><path d="m405.2 254.8 9.6-9.6" fill="none"/><path d="m430 245.2 1.4107 2.8584 3.1544.4583-2.2826 2.2249.5389 3.1417-2.8214-1.4833-2.8214 1.4833.5389-3.1417-2.2826-2.2249 3.1544-.4583z" stroke="none"/><path d="m50 265.2 1.4107 2.8583 3.1544.4584-2.2826 2.2249.5389 3.1417-2.8214-1.4833-2.8214 1.4833.5389-3.1417-2.2826-2.2249 3.1544-.4584z" stroke="none"/><path d="m65.2 265.2 9.6 9.6" fill="none"/><path d="m65.2 274.8 9.6-9.6" fill="none"/><path d="m90 265.6574-4.8 8.3139h9.6z" fill="none"/><path d="m110 265.6574-4.8 8.3139h9.6z" fill="none"/><path d="m125.2 265.2h9.6v9.6h-9.6z" stroke="none"/><path d="m145.2 265.2h9.6v9.6h-9.6z" stroke="none"/><path d="m170 265.6574-4.8 8.3139h9.6z" fill="none"/><path d="m190 265.6574-4.8 8.3139h9.6z" fill="none"/><path d="m210 265.6574-4.8 8.3139h9.6z" fill="none"/><path d="m230 265.6574-4.8 8.3139h9.6z" fill="none"/><path d="m245.2 265.2h9.6v9.6h-9.6z" stroke="none"/><path d="m265.2 265.2h9.6v9.6h-9.6z" stroke="none"/><path d="m290 265.6574-4.8 8.3139h9.6z" fill="none"/><path d="m310 265.6574-4.8 8.3139h9.6z" fill="none"/><path d="m330 265.6574-4.8 8.3139h9.6z" fill="none"/><path d="m350 265.6574-4.8 8.3139h9.6z" fill="none"/><path d="m370 265.2 1.4107 2.8583 3.1544.4584-2.2826 2.2249.5389 3.1417-2.8214-1.4833-2.8214 1.4833.5389-3.1417-2.2826-2.2249 3.1544-.4584z" stroke="none"/><path d="m390 265.2 1.4107 2.8583 3.1544.4584-2.2826 2.2249.5389 3.1417-2.8214-1.4833-2.8214 1.4833.5389-3.1417-2.2826-2.2249 3.1544-.4584z" stroke="none"/><path d="m410 265.2 1.4107 2.8583 3.1544.4584-2.2826 2.2249.5389 3.1417-2.8214-1.4833-2.8214 1.4833.5389-3.1417-2.2826-2.2249 3.1544-.4584z" stroke="none"/><path d="m30 285.2 1.4107 2.8583 3.1544.4584-2.2826 2.2249.5389 3.1417-2.8214-1.4833-2.8214 1.4833.5389-3.1417-2.2826-2.2249 3.1544-.4584z" stroke="none"/><path d="m65.2 285.2 9.6 9.6" fill="none"/><path d="m65.2 294.8 9.6-9.6" fill="none"/><circle cx="90" cy="290" fill="none" r="4.8"/><path d="m110 285.6574-4.8 8.3139h9.6z" fill="none"/><path d="m130 285.6574-4.8 8.3139h9.6z" fill="none"/><path d="m150 285.6574-4.8 8.3139h9.6z" fill="none"/><path d="m170 285.6574-4.8 8.3139h9.6z" fill="none"/><path d="m190 285.6574-4.8 8.3139h9.6z" fill="none"/><path d="m210 285.6574-4.8 8.3139h9.6z" fill="none"/><path d="m230 285.6574-4.8 8.3139h9.6z" fill="none"/><path d="m250 285.6574-4.8 8.3139h9.6z" fill="none"/><path d="m270 285.6574-4.8 8.3139h9.6z" fill="none"/><path d="m290 285.6574-4.8 8.3139h9.6z" fill="none"/><path d="m310 285.6574-4.8 8.3139h9.6z" fill="none"/><path d="m330 285.6574-4.8 8.3139h9.6z" fill="none"/><path d="m350 285.6574-4.8 8.3139h9.6z" fill="none"/><path d="m370 285.6574-4.8 8.3139h9.6z" fill="none"/><circle cx="390" cy="290" fill="none" r="4.8"/><path d="m405.2 285.2 9.6 9.6" fill="none"/><path d="m405.2 294.8 9.6-9.6" fill="none"/><path d="m430 285.2 1.4107 2.8583 3.1544.4584-2.2826 2.2249.5389 3.1417-2.8214-1.4833-2.8214 1.4833.5389-3.1417-2.2826-2.2249 3.1544-.4584z" stroke="none"/><path d="m50 305.2 1.4107 2.8583 3.1544.4584-2.2826 2.2249.5389 3.1417-2.8214-1.4833-2.8214 1.4833.5389-3.1417-2.2826-2.2249 3.1544-.4584z" stroke="none"/><path d="m70 305.2 1.4107 2.8583 3.1544.4584-2.2826 2.2249.5389 3.1417-2.8214-1.4833-2.8214 1.4833.5389-3.1417-2.2826-2.2249 3.1544-.4584z" stroke="none"/><path d="m90 305.2 1.4107 2.8583 3.1544.4584-2.2826 2.2249.5389 3.1417-2.8214-1.4833-2.8214 1.4833.5389-3.1417-2.2826-2.2249 3.1544-.4584z" stroke="none"/><path d="m110 305.2 1.4107 2.8583 3.1544.4584-2.2826 2.2249.5389 3.1417-2.8214-1.4833-2.8214 1.4833.5389-3.1417-2.2826-2.2249 3.1544-.4584z" stroke="none"/><path d="m130 305.6574-4.8 8.3139h9.6z" fill="none"/><path d="m150 305.6574-4.8 8.3139h9.6z" stroke="none"/><path d="m165.2 305.2h9.6v9.6h-9.6z" stroke="none"/><path d="m185.2 305.2h9.6v9.6h-9.6z" stroke="none"/><path d="m205.2 305.2h9.6v9.6h-9.6z" stroke="none"/><path d="m225.2 305.2h9.6v9.6h-9.6z" stroke="none"/><path d="m250 305.6574-4.8 8.3139h9.6z" stroke="none"/><path d="m270 305.6574-4.8 8.3139h9.6z" fill="none"/><path d="m290 305.6574-4.8 8.3139h9.6z" fill="none"/><path d="m310 305.6574-4.8 8.3139h9.6z" fill="none"/><path d="m330 305.6574-4.8 8.3139h9.6z" fill="none"/><path d="m350 305.2 1.4107 2.8583 3.1544.4584-2.2826 2.2249.5389 3.1417-2.8214-1.4833-2.8214 1.4833.5389-3.1417-2.2826-2.2249 3.1544-.4584z" stroke="none"/><path d="m370 305.2 1.4107 2.8583 3.1544.4584-2.2826 2.2249.5389 3.1417-2.8214-1.4833-2.8214 1.4833.5389-3.1417-2.2826-2.2249 3.1544-.4584z" stroke="none"/><path d="m390 305.2 1.4107 2.8583 3.1544.4584-2.2826 2.2249.5389 3.1417-2.8214-1.4833-2.8214 1.4833.5389-3.1417-2.2826-2.2249 3.1544-.4584z" stroke="none"/><path d="m410 305.2 1.4107 2.8583 3.1544.4584-2.2826 2.2249.5389 3.1417-2.8214-1.4833-2.8214 1.4833.5389-3.1417-2.2826-2.2249 3.1544-.4584z" stroke="none"/><path d="m85.2 325.2 9.6 9.6" fill="none"/><path d="m85.2 334.8 9.6-9.6" fill="none"/><circle cx="110" cy="330" fill="none" r="4.8"/><path d="m130 325.6574-4.8 8.3139h9.6z" fill="none"/><path d="m150 325.6574-4.8 8.3139h9.6z" fill="none"/><path d="m170 325.6574-4.8 8.3139h9.6z" stroke="none"/><path d="m185.2 325.2h9.6v9.6h-9.6z" stroke="none"/><path d="m205.2 325.2h9.6v9.6h-9.6z" stroke="none"/><path d="m230 325.6574-4.8 8.3139h9.6z" stroke="none"/><path d="m250 325.6574-4.8 8.3139h9.6z" fill="none"/><path d="m270 325.6574-4.8 8.3139h9.6z" fill="none"/><path d="m290 325.6574-4.8 8.3139h9.6z" fill="none"/><path d="m310 325.6574-4.8 8.3139h9.6z" fill="none"/><path d="m330 325.6574-4.8 8.3139h9.6z" fill="none"/><path d="m350 325.6574-4.8 8.3139h9.6z" fill="none"/><circle cx="370" cy="330" fill="none" r="4.8"/><path d="m385.2 325.2 9.6 9.6" fill="none"/><path d="m385.2 334.8 9.6-9.6" fill="none"/><path d="m105.2 345.2 9.6 9.6" fill="none"/><path d="m105.2 354.8 9.6-9.6" fill="none"/><circle cx="130" cy="350" fill="none" r="4.8"/><path d="m150 345.6574-4.8 8.3139h9.6z" fill="none"/><path d="m170 345.6574-4.8 8.3139h9.6z" fill="none"/><path d="m190 345.6574-4.8 8.3139h9.6z" fill="none"/><path d="m210 345.6574-4.8 8.3139h9.6z" fill="none"/><path d="m230 345.6574-4.8 8.3139h9.6z" fill="none"/><path d="m250 345.6574-4.8 8.3139h9.6z" fill="none"/><path d="m270 345.6574-4.8 8.3139h9.6z" fill="none"/><path d="m290 345.6574-4.8 8.3139h9.6z" fill="none"/><path d="m310 345.6574-4.8 8.3139h9.6z" fill="none"/><path d="m330 345.6574-4.8 8.3139h9.6z" fill="none"/><circle cx="350" cy="350" fill="none" r="4.8"/><path d="m365.2 345.2 9.6 9.6" fill="none"/><path d="m365.2 354.8 9.6-9.6" fill="none"/><path d="m125.2 365.2 9.6 9.6" fill="none"/><path d="m125.2 374.8 9.6-9.6" fill="none"/><circle cx="150" cy="370" fill="none" r="4.8"/><path d="m170 365.6574-4.8 8.3139h9.6z" fill="none"/><path d="m190 365.6574-4.8 8.3139h9.6z" fill="none"/><path d="m210 365.6574-4.8 8.3139h9.6z" fill="none"/><path d="m230 365.6574-4.8 8.3139h9.6z" fill="none"/><path d="m250 365.6574-4.8 8.3139h9.6z" fill="none"/><path d="m270 365.6574-4.8 8.3139h9.6z" fill="none"/><path d="m290 365.6574-4.8 8.3139h9.6z" fill="none"/><path d="m310 365.6574-4.8 8.3139h9.6z" fill="none"/><circle cx="330" cy="370" fill="none" r="4.8"/><path d="m345.2 365.2 9.6 9.6" fill="none"/><path d="m345.2 374.8 9.6-9.6" fill="none"/><path d="m145.2 385.2 9.6 9.6" fill="none"/><path d="m145.2 394.8 9.6-9.6" fill="none"/><circle cx="170" cy="390" fill="none" r="4.8"/><circle cx="190" cy="390" fill="none" r="4.8"/><path d="m210 385.6574-4.8 8.3139h9.6z" fill="none"/><path d="m230 385.6574-4.8 8.3139h9.6z" fill="none"/><path d="m250 385.6574-4.8 8.3139h9.6z" fill="none"/><path d="m270 385.6574-4.8 8.3139h9.6z" fill="none"/><circle cx="290" cy="390" fill="none" r="4.8"/><circle cx="310" cy="390" fill="none" r="4.8"/><path d="m325.2 385.2 9.6 9.6" fill="none"/><path d="m325.2 394.8 9.6-9.6" fill="none"/><path d="m185.2 405.2 9.6 9.6" fill="none"/><path d="m185.2 414.8 9.6-9.6" fill="none"/><path d="m205.2 405.2 9.6 9.6" fill="none"/><path d="m205.2 414.8 9.6-9.6" fill="none"/><path d="m225.2 405.2 9.6 9.6" fill="none"/><path d="m225.2 414.8 9.6-9.6" fill="none"/><path d="m245.2 405.2 9.6 9.6" fill="none"/><path d="m245.2 414.8 9.6-9.6" fill="none"/><path d="m265.2 405.2 9.6 9.6" fill="none"/><path d="m265.2 414.8 9.6-9.6" fill="none"/><path d="m285.2 405.2 9.6 9.6" fill="none"/><path d="m285.2 414.8 9.6-9.6" fill="none"/><path d="m0 0v480" fill="none" stroke="#b4b4b4"/><path d="m20 0v480" fill="none" stroke="#b4b4b4" stroke-width="1"/><path d="m40 0v480" fill="none" stroke="#b4b4b4" stroke-width="1"/><path d="m60 0v480" fill="none" stroke="#b4b4b4" stroke-width="1"/><path d="m80 0v480" fill="none" stroke="#b4b4b4" stroke-width="1"/><path d="m100 0v480" fill="none" stroke="#b4b4b4" stroke-width="1"/><path d="m120 0v480" fill="none" stroke="#b4b4b4" stroke-width="1"/><path d="m140 0v480" fill="none" stroke="#b4b4b4" stroke-width="1"/><path d="m160 0v480" fill="none" stroke="#b4b4b4" stroke-width="1"/><path d="m180 0v480" fill="none" stroke="#b4b4b4" stroke-width="1"/><path d="m200 0v480" fill="none" stroke="#b4b4b4" stroke-width="1"/><path d="m220 0v480" fill="none" stroke="#b4b4b4" stroke-width="1"/><path d="m240 0v480" fill="none" stroke="#b4b4b4" stroke-width="1"/><path d="m260 0v480" fill="none" stroke="#b4b4b4" stroke-width="1"/><path d="m280 0v480" fill="none" stroke="#b4b4b4" stroke-width="1"/><path d="m300 0v480" fill="none" stroke="#b4b4b4" stroke-width="1"/><path d="m320 0v480" fill="none" stroke="#b4b4b4" stroke-width="1"/><path d="m340 0v480" fill="none" stroke="#b4b4b4" stroke-width="1"/><path d="m360 0v480" fill="none" stroke="#b4b4b4" stroke-width="1"/><path d="m380 0v480" fill="none" stroke="#b4b4b4" stroke-width="1"/><path d="m400 0v480" fill="none" stroke="#b4b4b4" stroke-width="1"/><path d="m420 0v480" fill="none" stroke="#b4b4b4" stroke-width="1"/><path d="m440 0v480" fill="none" stroke="#b4b4b4" stroke-width="1"/><path d="m460 0v480" fill="none" stroke="#b4b4b4" stroke-width="1"/><path d="m480 0v480" fill="none" stroke="#b4b4b4"/><path d="m0 0h480" fill="none" stroke="#b4b4b4"/><path d="m0 20h480" fill="none" stroke="#b4b4b4" stroke-width="1"/><path d="m0 40h480" fill="none" stroke="#b4b4b4" stroke-width="1"/><path d="m0 60h480" fill="none" stroke="#b4b4b4" stroke-width="1"/><path d="m0 80h480" fill="none" stroke="#b4b4b4" stroke-width="1"/><path d="m0 100h480" fill="none" stroke="#b4b4b4" stroke-width="1"/><path d="m0 120h480" fill="none" stroke="#b4b4b4" stroke-width="1"/><path d="m0 140h480" fill="none" stroke="#b4b4b4" stroke-width="1"/><path d="m0 160h480" fill="none" stroke="#b4b4b4" stroke-width="1"/><path d="m0 180h480" fill="none" stroke="#b4b4b4" stroke-width="1"/><path d="m0 200h480" fill="none" stroke="#b4b4b4" stroke-width="1"/><path d="m0 220h480" fill="none" stroke="#b4b4b4" stroke-width="1"/><path d="m0 240h480" fill="none" stroke="#b4b4b4" stroke-width="1"/><path d="m0 260h480" fill="none" stroke="#b4b4b4" stroke-width="1"/><path d="m0 280h480" fill="none" stroke="#b4b4b4" stroke-width="1"/><path d="m0 300h480" fill="none" stroke="#b4b4b4" stroke-width="1"/><path d="m0 320h480" fill="none" stroke="#b4b4b4" stroke-width="1"/><path d="m0 340h480" fill="none" stroke="#b4b4b4" stroke-width="1"/><path d="m0 360h480" fill="none" stroke="#b4b4b4" stroke-width="1"/><path d="m0 380h480" fill="none" stroke="#b4b4b4" stroke-width="1"/><path d="m0 400h480" fill="none" stroke="#b4b4b4" stroke-width="1"/><path d="m0 420h480" fill="none" stroke="#b4b4b4" stroke-width="1"/><path d="m0 440h480" fill="none" stroke="#b4b4b4" stroke-width="1"/><path d="m0 460h480" fill="none" stroke="#b4b4b4" stroke-width="1"/><path d="m0 480h480" fill="none" stroke="#b4b4b4"/></g></g></svg>