<svg color-interpolation="auto" height="480" stroke="#000" stroke-linecap="square" stroke-miterlimit="10" width="480" xmlns="http://www.w3.org/2000/svg"><g stroke-linecap="round" stroke-width="2"><path d="m183.6 63.6 12.8 12.8" fill="none"/><g><g fill="none"><path d="m183.6 76.4 12.8-12.8"/><path d="m203.6 63.6 12.8 12.8"/><path d="m203.6 76.4 12.8-12.8"/><path d="m223.6 63.6 12.8 12.8"/><path d="m223.6 76.4 12.8-12.8"/><path d="m243.6 63.6 12.8 12.8"/><path d="m243.6 76.4 12.8-12.8"/><path d="m263.6 63.6 12.8 12.8"/><path d="m263.6 76.4 12.8-12.8"/><path d="m283.6 63.6 12.8 12.8"/><path d="m283.6 76.4 12.8-12.8"/><path d="m143.6 83.6 12.8 12.8"/><path d="m143.6 96.4 12.8-12.8"/><path d="m170 83.6 6.4 6.4-6.4 6.4-6.4-6.4z"/><path d="m190 83.6 6.4 6.4-6.4 6.4-6.4-6.4z"/><path d="m203.6 83.6h12.8v12.8h-12.8z"/><path d="m223.6 83.6h12.8v12.8h-12.8z"/><path d="m243.6 83.6h12.8v12.8h-12.8z"/><path d="m263.6 83.6h12.8v12.8h-12.8z"/><path d="m290 83.6 6.4 6.4-6.4 6.4-6.4-6.4z"/><path d="m310 83.6 6.4 6.4-6.4 6.4-6.4-6.4z"/><path d="m323.6 83.6 12.8 12.8"/><path d="m323.6 96.4 12.8-12.8"/><path d="m123.6 103.6 12.8 12.8"/><path d="m123.6 116.4 12.8-12.8"/><path d="m150 103.6 6.4 6.4-6.4 6.4-6.4-6.4z"/><path d="m163.6 103.6h12.8v12.8h-12.8z"/><path d="m183.6 103.6h12.8v12.8h-12.8z"/><path d="m203.6 103.6h12.8v12.8h-12.8z"/><path d="m223.6 103.6h12.8v12.8h-12.8z"/><path d="m243.6 103.6h12.8v12.8h-12.8z"/><path d="m263.6 103.6h12.8v12.8h-12.8z"/><path d="m283.6 103.6h12.8v12.8h-12.8z"/><path d="m303.6 103.6h12.8v12.8h-12.8z"/><path d="m330 103.6 6.4 6.4-6.4 6.4-6.4-6.4z"/><path d="m343.6 103.6 12.8 12.8"/><path d="m343.6 116.4 12.8-12.8"/><path d="m103.6 123.6 12.8 12.8"/><path d="m103.6 136.4 12.8-12.8"/><path d="m130 123.6 6.4 6.4-6.4 6.4-6.4-6.4z"/><path d="m143.6 123.6h12.8v12.8h-12.8z"/><path d="m163.6 123.6h12.8v12.8h-12.8z"/><path d="m183.6 123.6h12.8v12.8h-12.8z"/><path d="m203.6 123.6h12.8v12.8h-12.8z"/><path d="m223.6 123.6h12.8v12.8h-12.8z"/><path d="m243.6 123.6h12.8v12.8h-12.8z"/><path d="m263.6 123.6h12.8v12.8h-12.8z"/><path d="m283.6 123.6h12.8v12.8h-12.8z"/><path d="m303.6 123.6h12.8v12.8h-12.8z"/><path d="m323.6 123.6h12.8v12.8h-12.8z"/><path d="m350 123.6 6.4 6.4-6.4 6.4-6.4-6.4z"/><path d="m363.6 123.6 12.8 12.8"/><path d="m363.6 136.4 12.8-12.8"/><path d="m83.6 143.6 12.8 12.8"/><path d="m83.6 156.4 12.8-12.8"/><path d="m110 143.6 6.4 6.4-6.4 6.4-6.4-6.4z"/><path d="m123.6 143.6h12.8v12.8h-12.8z"/><path d="m143.6 143.6h12.8v12.8h-12.8z"/><path d="m163.6 143.6h12.8v12.8h-12.8z"/><path d="m183.6 143.6h12.8v12.8h-12.8z"/><path d="m203.6 143.6h12.8v12.8h-12.8z"/><path d="m223.6 143.6h12.8v12.8h-12.8z"/><path d="m243.6 143.6h12.8v12.8h-12.8z"/><path d="m263.6 143.6h12.8v12.8h-12.8z"/><path d="m283.6 143.6h12.8v12.8h-12.8z"/><path d="m303.6 143.6h12.8v12.8h-12.8z"/><path d="m323.6 143.6h12.8v12.8h-12.8z"/><path d="m343.6 143.6h12.8v12.8h-12.8z"/><path d="m370 143.6 6.4 6.4-6.4 6.4-6.4-6.4z"/><path d="m383.6 143.6 12.8 12.8"/><path d="m383.6 156.4 12.8-12.8"/><path d="m90 163.6 6.4 6.4-6.4 6.4-6.4-6.4z"/><path d="m103.6 163.6h12.8v12.8h-12.8z"/><path d="m123.6 163.6h12.8v12.8h-12.8z"/><path d="m143.6 163.6h12.8v12.8h-12.8z"/><path d="m163.6 163.6h12.8v12.8h-12.8z"/><path d="m183.6 163.6h12.8v12.8h-12.8z"/><path d="m203.6 163.6h12.8v12.8h-12.8z"/><path d="m223.6 163.6h12.8v12.8h-12.8z"/><path d="m243.6 163.6h12.8v12.8h-12.8z"/><path d="m263.6 163.6h12.8v12.8h-12.8z"/><path d="m283.6 163.6h12.8v12.8h-12.8z"/><path d="m303.6 163.6h12.8v12.8h-12.8z"/><path d="m323.6 163.6h12.8v12.8h-12.8z"/><path d="m343.6 163.6h12.8v12.8h-12.8z"/><path d="m363.6 163.6h12.8v12.8h-12.8z"/><path d="m390 163.6 6.4 6.4-6.4 6.4-6.4-6.4z"/><path d="m63.6 183.6 12.8 12.8"/><path d="m63.6 196.4 12.8-12.8"/><path d="m90 183.6 6.4 6.4-6.4 6.4-6.4-6.4z"/><path d="m103.6 183.6h12.8v12.8h-12.8z"/><path d="m123.6 183.6h12.8v12.8h-12.8z"/><path d="m143.6 183.6h12.8v12.8h-12.8z"/><path d="m163.6 183.6h12.8v12.8h-12.8z"/><path d="m183.6 183.6h12.8v12.8h-12.8z"/><path d="m203.6 183.6h12.8v12.8h-12.8z"/><path d="m223.6 183.6h12.8v12.8h-12.8z"/><path d="m243.6 183.6h12.8v12.8h-12.8z"/><path d="m263.6 183.6h12.8v12.8h-12.8z"/><path d="m283.6 183.6h12.8v12.8h-12.8z"/><path d="m303.6 183.6h12.8v12.8h-12.8z"/><path d="m323.6 183.6h12.8v12.8h-12.8z"/><path d="m343.6 183.6h12.8v12.8h-12.8z"/><path d="m363.6 183.6h12.8v12.8h-12.8z"/><path d="m390 183.6 6.4 6.4-6.4 6.4-6.4-6.4z"/><path d="m403.6 183.6 12.8 12.8"/><path d="m403.6 196.4 12.8-12.8"/><path d="m63.6 203.6 12.8 12.8"/><path d="m63.6 216.4 12.8-12.8"/><path d="m83.6 203.6h12.8v12.8h-12.8z"/><path d="m103.6 203.6h12.8v12.8h-12.8z"/><path d="m123.6 203.6h12.8v12.8h-12.8z"/><path d="m143.6 203.6h12.8v12.8h-12.8z"/><path d="m163.6 203.6h12.8v12.8h-12.8z"/><path d="m183.6 203.6h12.8v12.8h-12.8z"/><path d="m203.6 203.6h12.8v12.8h-12.8z"/><path d="m223.6 203.6h12.8v12.8h-12.8z"/><path d="m243.6 203.6h12.8v12.8h-12.8z"/><path d="m263.6 203.6h12.8v12.8h-12.8z"/><path d="m283.6 203.6h12.8v12.8h-12.8z"/><path d="m303.6 203.6h12.8v12.8h-12.8z"/><path d="m323.6 203.6h12.8v12.8h-12.8z"/><path d="m343.6 203.6h12.8v12.8h-12.8z"/><path d="m363.6 203.6h12.8v12.8h-12.8z"/><path d="m383.6 203.6h12.8v12.8h-12.8z"/><path d="m403.6 203.6 12.8 12.8"/><path d="m403.6 216.4 12.8-12.8"/><path d="m63.6 223.6 12.8 12.8"/><path d="m63.6 236.4 12.8-12.8"/><path d="m83.6 223.6h12.8v12.8h-12.8z"/></g><path d="m110 223.6 1.8809 3.8111 4.2059.6112-3.0434 2.9666.7184 4.1888-3.7618-1.9777-3.7618 1.9777.7184-4.1888-3.0434-2.9666 4.2059-.6112z" stroke="none"/><path d="m123.6 223.6h12.8v12.8h-12.8z" fill="none"/><path d="m143.6 223.6h12.8v12.8h-12.8z" fill="none"/><path d="m170 223.6 1.8809 3.8111 4.2059.6112-3.0434 2.9666.7184 4.1888-3.7618-1.9777-3.7618 1.9777.7184-4.1888-3.0434-2.9666 4.2059-.6112z" stroke="none"/><path d="m183.6 223.6h12.8v12.8h-12.8z" fill="none"/><path d="m203.6 223.6h12.8v12.8h-12.8z" fill="none"/><path d="m230 223.6 1.8809 3.8111 4.2059.6112-3.0434 2.9666.7184 4.1888-3.7618-1.9777-3.7618 1.9777.7184-4.1888-3.0434-2.9666 4.2059-.6112z" stroke="none"/><path d="m243.6 223.6h12.8v12.8h-12.8z" fill="none"/><path d="m263.6 223.6h12.8v12.8h-12.8z" fill="none"/><path d="m290 223.6 1.8809 3.8111 4.2059.6112-3.0434 2.9666.7184 4.1888-3.7618-1.9777-3.7618 1.9777.7184-4.1888-3.0434-2.9666 4.2059-.6112z" stroke="none"/><path d="m303.6 223.6h12.8v12.8h-12.8z" fill="none"/><path d="m323.6 223.6h12.8v12.8h-12.8z" fill="none"/><path d="m343.6 223.6h12.8v12.8h-12.8z" fill="none"/><path d="m363.6 223.6h12.8v12.8h-12.8z" fill="none"/><path d="m383.6 223.6h12.8v12.8h-12.8z" fill="none"/><path d="m403.6 223.6 12.8 12.8" fill="none"/><path d="m403.6 236.4 12.8-12.8" fill="none"/><path d="m63.6 243.6 12.8 12.8" fill="none"/><path d="m63.6 256.4 12.8-12.8" fill="none"/><path d="m83.6 243.6h12.8v12.8h-12.8z" fill="none"/><path d="m110 243.6 1.8809 3.8111 4.2059.6112-3.0434 2.9666.7184 4.1888-3.7618-1.9777-3.7618 1.9777.7184-4.1888-3.0434-2.9666 4.2059-.6112z" stroke="none"/><path d="m130 243.6 1.8809 3.8111 4.2059.6112-3.0434 2.9666.7184 4.1888-3.7618-1.9777-3.7618 1.9777.7184-4.1888-3.0434-2.9666 4.2059-.6112z" stroke="none"/><path d="m150 243.6 1.8809 3.8111 4.2059.6112-3.0434 2.9666.7184 4.1888-3.7618-1.9777-3.7618 1.9777.7184-4.1888-3.0434-2.9666 4.2059-.6112z" stroke="none"/><path d="m170 243.6 1.8809 3.8111 4.2059.6112-3.0434 2.9666.7184 4.1888-3.7618-1.9777-3.7618 1.9777.7184-4.1888-3.0434-2.9666 4.2059-.6112z" stroke="none"/><path d="m183.6 243.6h12.8v12.8h-12.8z" fill="none"/><path d="m203.6 243.6h12.8v12.8h-12.8z" fill="none"/><path d="m230 243.6 1.8809 3.8111 4.2059.6112-3.0434 2.9666.7184 4.1888-3.7618-1.9777-3.7618 1.9777.7184-4.1888-3.0434-2.9666 4.2059-.6112z" stroke="none"/><path d="m250 243.6 1.8809 3.8111 4.2059.6112-3.0434 2.9666.7184 4.1888-3.7618-1.9777-3.7618 1.9777.7184-4.1888-3.0434-2.9666 4.2059-.6112z" stroke="none"/><path d="m270 243.6 1.8809 3.8111 4.2059.6112-3.0434 2.9666.7184 4.1888-3.7618-1.9777-3.7618 1.9777.7184-4.1888-3.0434-2.9666 4.2059-.6112z" stroke="none"/><path d="m290 243.6 1.8809 3.8111 4.2059.6112-3.0434 2.9666.7184 4.1888-3.7618-1.9777-3.7618 1.9777.7184-4.1888-3.0434-2.9666 4.2059-.6112z" stroke="none"/><path d="m303.6 243.6h12.8v12.8h-12.8z" fill="none"/><path d="m323.6 243.6h12.8v12.8h-12.8z" fill="none"/><path d="m343.6 243.6h12.8v12.8h-12.8z" fill="none"/><path d="m363.6 243.6h12.8v12.8h-12.8z" fill="none"/><path d="m383.6 243.6h12.8v12.8h-12.8z" fill="none"/><path d="m403.6 243.6 12.8 12.8" fill="none"/><path d="m403.6 256.4 12.8-12.8" fill="none"/><path d="m430 244.2099-6.4 11.0851h12.8z" stroke="none"/><path d="m50 264.2099-6.4 11.0851h12.8z" stroke="none"/><path d="m63.6 263.6 12.8 12.8" fill="none"/><path d="m63.6 276.4 12.8-12.8" fill="none"/><path d="m83.6 263.6h12.8v12.8h-12.8z" fill="none"/><path d="m103.6 263.6h12.8v12.8h-12.8z" fill="none"/><path d="m130 263.6 1.8809 3.8111 4.2059.6112-3.0434 2.9666.7184 4.1888-3.7618-1.9777-3.7618 1.9777.7184-4.1888-3.0434-2.9666 4.2059-.6112z" stroke="none"/><path d="m150 263.6 1.8809 3.8111 4.2059.6112-3.0434 2.9666.7184 4.1888-3.7618-1.9777-3.7618 1.9777.7184-4.1888-3.0434-2.9666 4.2059-.6112z" stroke="none"/><path d="m163.6 263.6h12.8v12.8h-12.8z" fill="none"/><path d="m183.6 263.6h12.8v12.8h-12.8z" fill="none"/><path d="m203.6 263.6h12.8v12.8h-12.8z" fill="none"/><path d="m223.6 263.6h12.8v12.8h-12.8z" fill="none"/><path d="m250 263.6 1.8809 3.8111 4.2059.6112-3.0434 2.9666.7184 4.1888-3.7618-1.9777-3.7618 1.9777.7184-4.1888-3.0434-2.9666 4.2059-.6112z" stroke="none"/><path d="m270 263.6 1.8809 3.8111 4.2059.6112-3.0434 2.9666.7184 4.1888-3.7618-1.9777-3.7618 1.9777.7184-4.1888-3.0434-2.9666 4.2059-.6112z" stroke="none"/><path d="m283.6 263.6h12.8v12.8h-12.8z" fill="none"/><path d="m303.6 263.6h12.8v12.8h-12.8z" fill="none"/><path d="m323.6 263.6h12.8v12.8h-12.8z" fill="none"/><path d="m343.6 263.6h12.8v12.8h-12.8z" fill="none"/><path d="m370 264.2099-6.4 11.0851h12.8z" stroke="none"/><path d="m390 264.2099-6.4 11.0851h12.8z" stroke="none"/><path d="m410 264.2099-6.4 11.0851h12.8z" stroke="none"/><path d="m30 284.2099-6.4 11.0851h12.8z" stroke="none"/><path d="m63.6 283.6 12.8 12.8" fill="none"/><path d="m63.6 296.4 12.8-12.8" fill="none"/><path d="m90 283.6 6.4 6.4-6.4 6.4-6.4-6.4z" fill="none"/><path d="m103.6 283.6h12.8v12.8h-12.8z" fill="none"/><path d="m123.6 283.6h12.8v12.8h-12.8z" fill="none"/><path d="m143.6 283.6h12.8v12.8h-12.8z" fill="none"/><path d="m163.6 283.6h12.8v12.8h-12.8z" fill="none"/><path d="m183.6 283.6h12.8v12.8h-12.8z" fill="none"/><path d="m203.6 283.6h12.8v12.8h-12.8z" fill="none"/><path d="m223.6 283.6h12.8v12.8h-12.8z" fill="none"/><path d="m243.6 283.6h12.8v12.8h-12.8z" fill="none"/><path d="m263.6 283.6h12.8v12.8h-12.8z" fill="none"/><path d="m283.6 283.6h12.8v12.8h-12.8z" fill="none"/><path d="m303.6 283.6h12.8v12.8h-12.8z" fill="none"/><path d="m323.6 283.6h12.8v12.8h-12.8z" fill="none"/><path d="m343.6 283.6h12.8v12.8h-12.8z" fill="none"/><path d="m363.6 283.6h12.8v12.8h-12.8z" fill="none"/><path d="m390 283.6 6.4 6.4-6.4 6.4-6.4-6.4z" fill="none"/><path d="m403.6 283.6 12.8 12.8" fill="none"/><path d="m403.6 296.4 12.8-12.8" fill="none"/><path d="m430 284.2099-6.4 11.0851h12.8z" stroke="none"/><path d="m50 304.2099-6.4 11.0851h12.8z" stroke="none"/><path d="m70 304.2099-6.4 11.0851h12.8z" stroke="none"/><path d="m90 304.2099-6.4 11.0851h12.8z" stroke="none"/><path d="m110 304.2099-6.4 11.0851h12.8z" stroke="none"/><path d="m123.6 303.6h12.8v12.8h-12.8z" fill="none"/><path d="m143.6 303.6h12.8v12.8h-12.8z" stroke="none"/><path d="m170 303.6 1.8809 3.8111 4.2059.6112-3.0434 2.9666.7184 4.1888-3.7618-1.9777-3.7618 1.9777.7184-4.1888-3.0434-2.9666 4.2059-.6112z" stroke="none"/><path d="m190 303.6 1.8809 3.8111 4.2059.6112-3.0434 2.9666.7184 4.1888-3.7618-1.9777-3.7618 1.9777.7184-4.1888-3.0434-2.9666 4.2059-.6112z" stroke="none"/><path d="m210 303.6 1.8809 3.8111 4.2059.6112-3.0434 2.9666.7184 4.1888-3.7618-1.9777-3.7618 1.9777.7184-4.1888-3.0434-2.9666 4.2059-.6112z" stroke="none"/><path d="m230 303.6 1.8809 3.8111 4.2059.6112-3.0434 2.9666.7184 4.1888-3.7618-1.9777-3.7618 1.9777.7184-4.1888-3.0434-2.9666 4.2059-.6112z" stroke="none"/><path d="m243.6 303.6h12.8v12.8h-12.8z" stroke="none"/><path d="m263.6 303.6h12.8v12.8h-12.8z" fill="none"/><path d="m283.6 303.6h12.8v12.8h-12.8z" fill="none"/><path d="m303.6 303.6h12.8v12.8h-12.8z" fill="none"/><path d="m323.6 303.6h12.8v12.8h-12.8z" fill="none"/><path d="m350 304.2099-6.4 11.0851h12.8z" stroke="none"/><path d="m370 304.2099-6.4 11.0851h12.8z" stroke="none"/><path d="m390 304.2099-6.4 11.0851h12.8z" stroke="none"/><path d="m410 304.2099-6.4 11.0851h12.8z" stroke="none"/><path d="m83.6 323.6 12.8 12.8" fill="none"/><path d="m83.6 336.4 12.8-12.8" fill="none"/><path d="m110 323.6 6.4 6.4-6.4 6.4-6.4-6.4z" fill="none"/><path d="m123.6 323.6h12.8v12.8h-12.8z" fill="none"/><path d="m143.6 323.6h12.8v12.8h-12.8z" fill="none"/><path d="m163.6 323.6h12.8v12.8h-12.8z" stroke="none"/><path d="m190 323.6 1.8809 3.8111 4.2059.6112-3.0434 2.9666.7184 4.1888-3.7618-1.9777-3.7618 1.9777.7184-4.1888-3.0434-2.9666 4.2059-.6112z" stroke="none"/><path d="m210 323.6 1.8809 3.8111 4.2059.6112-3.0434 2.9666.7184 4.1888-3.7618-1.9777-3.7618 1.9777.7184-4.1888-3.0434-2.9666 4.2059-.6112z" stroke="none"/><path d="m223.6 323.6h12.8v12.8h-12.8z" stroke="none"/><path d="m243.6 323.6h12.8v12.8h-12.8z" fill="none"/><path d="m263.6 323.6h12.8v12.8h-12.8z" fill="none"/><path d="m283.6 323.6h12.8v12.8h-12.8z" fill="none"/><path d="m303.6 323.6h12.8v12.8h-12.8z" fill="none"/><path d="m323.6 323.6h12.8v12.8h-12.8z" fill="none"/><path d="m343.6 323.6h12.8v12.8h-12.8z" fill="none"/><path d="m370 323.6 6.4 6.4-6.4 6.4-6.4-6.4z" fill="none"/><path d="m383.6 323.6 12.8 12.8" fill="none"/><path d="m383.6 336.4 12.8-12.8" fill="none"/><path d="m103.6 343.6 12.8 12.8" fill="none"/><path d="m103.6 356.4 12.8-12.8" fill="none"/><path d="m130 343.6 6.4 6.4-6.4 6.4-6.4-6.4z" fill="none"/><path d="m143.6 343.6h12.8v12.8h-12.8z" fill="none"/><path d="m163.6 343.6h12.8v12.8h-12.8z" fill="none"/><path d="m183.6 343.6h12.8v12.8h-12.8z" fill="none"/><path d="m203.6 343.6h12.8v12.8h-12.8z" fill="none"/><path d="m223.6 343.6h12.8v12.8h-12.8z" fill="none"/><path d="m243.6 343.6h12.8v12.8h-12.8z" fill="none"/><path d="m263.6 343.6h12.8v12.8h-12.8z" fill="none"/><path d="m283.6 343.6h12.8v12.8h-12.8z" fill="none"/><path d="m303.6 343.6h12.8v12.8h-12.8z" fill="none"/><path d="m323.6 343.6h12.8v12.8h-12.8z" fill="none"/><path d="m350 343.6 6.4 6.4-6.4 6.4-6.4-6.4z" fill="none"/><path d="m363.6 343.6 12.8 12.8" fill="none"/><path d="m363.6 356.4 12.8-12.8" fill="none"/><path d="m123.6 363.6 12.8 12.8" fill="none"/><path d="m123.6 376.4 12.8-12.8" fill="none"/><path d="m150 363.6 6.4 6.4-6.4 6.4-6.4-6.4z" fill="none"/><path d="m163.6 363.6h12.8v12.8h-12.8z" fill="none"/><path d="m183.6 363.6h12.8v12.8h-12.8z" fill="none"/><path d="m203.6 363.6h12.8v12.8h-12.8z" fill="none"/><path d="m223.6 363.6h12.8v12.8h-12.8z" fill="none"/><path d="m243.6 363.6h12.8v12.8h-12.8z" fill="none"/><path d="m263.6 363.6h12.8v12.8h-12.8z" fill="none"/><path d="m283.6 363.6h12.8v12.8h-12.8z" fill="none"/><path d="m303.6 363.6h12.8v12.8h-12.8z" fill="none"/><path d="m330 363.6 6.4 6.4-6.4 6.4-6.4-6.4z" fill="none"/><path d="m343.6 363.6 12.8 12.8" fill="none"/><path d="m343.6 376.4 12.8-12.8" fill="none"/><path d="m143.6 383.6 12.8 12.8" fill="none"/><path d="m143.6 396.4 12.8-12.8" fill="none"/><path d="m170 383.6 6.4 6.4-6.4 6.4-6.4-6.4z" fill="none"/><path d="m190 383.6 6.4 6.4-6.4 6.4-6.4-6.4z" fill="none"/><path d="m203.6 383.6h12.8v12.8h-12.8z" fill="none"/><path d="m223.6 383.6h12.8v12.8h-12.8z" fill="none"/><path d="m243.6 383.6h12.8v12.8h-12.8z" fill="none"/><path d="m263.6 383.6h12.8v12.8h-12.8z" fill="none"/><path d="m290 383.6 6.4 6.4-6.4 6.4-6.4-6.4z" fill="none"/><path d="m310 383.6 6.4 6.4-6.4 6.4-6.4-6.4z" fill="none"/><path d="m323.6 383.6 12.8 12.8" fill="none"/><path d="m323.6 396.4 12.8-12.8" fill="none"/><path d="m183.6 403.6 12.8 12.8" fill="none"/><path d="m183.6 416.4 12.8-12.8" fill="none"/><path d="m203.6 403.6 12.8 12.8" fill="none"/><path d="m203.6 416.4 12.8-12.8" fill="none"/><path d="m223.6 403.6 12.8 12.8" fill="none"/><path d="m223.6 416.4 12.8-12.8" fill="none"/><path d="m243.6 403.6 12.8 12.8" fill="none"/><path d="m243.6 416.4 12.8-12.8" fill="none"/><path d="m263.6 403.6 12.8 12.8" fill="none"/><path d="m263.6 416.4 12.8-12.8" fill="none"/><path d="m283.6 403.6 12.8 12.8" fill="none"/><path d="m283.6 416.4 12.8-12.8" fill="none"/><path d="m0 0v480" fill="none" stroke="#b4b4b4"/><path d="m20 0v480" fill="none" stroke="#b4b4b4" stroke-width="1"/><path d="m40 0v480" fill="none" stroke="#b4b4b4" stroke-width="1"/><path d="m60 0v480" fill="none" stroke="#b4b4b4" stroke-width="1"/><path d="m80 0v480" fill="none" stroke="#b4b4b4" stroke-width="1"/><path d="m100 0v480" fill="none" stroke="#b4b4b4" stroke-width="1"/><path d="m120 0v480" fill="none" stroke="#b4b4b4" stroke-width="1"/><path d="m140 0v480" fill="none" stroke="#b4b4b4" stroke-width="1"/><path d="m160 0v480" fill="none" stroke="#b4b4b4" stroke-width="1"/><path d="m180 0v480" fill="none" stroke="#b4b4b4" stroke-width="1"/><path d="m200 0v480" fill="none" stroke="#b4b4b4" stroke-width="1"/><path d="m220 0v480" fill="none" stroke="#b4b4b4" stroke-width="1"/><path d="m240 0v480" fill="none" stroke="#b4b4b4" stroke-width="1"/><path d="m260 0v480" fill="none" stroke="#b4b4b4" stroke-width="1"/><path d="m280 0v480" fill="none" stroke="#b4b4b4" stroke-width="1"/><path d="m300 0v480" fill="none" stroke="#b4b4b4" stroke-width="1"/><path d="m320 0v480" fill="none" stroke="#b4b4b4" stroke-width="1"/><path d="m340 0v480" fill="none" stroke="#b4b4b4" stroke-width="1"/><path d="m360 0v480" fill="none" stroke="#b4b4b4" stroke-width="1"/><path d="m380 0v480" fill="none" stroke="#b4b4b4" stroke-width="1"/><path d="m400 0v480" fill="none" stroke="#b4b4b4" stroke-width="1"/><path d="m420 0v480" fill="none" stroke="#b4b4b4" stroke-width="1"/><path d="m440 0v480" fill="none" stroke="#b4b4b4" stroke-width="1"/><path d="m460 0v480" fill="none" stroke="#b4b4b4" stroke-width="1"/><path d="m480 0v480" fill="none" stroke="#b4b4b4"/><path d="m0 0h480" fill="none" stroke="#b4b4b4"/><path d="m0 20h480" fill="none" stroke="#b4b4b4" stroke-width="1"/><path d="m0 40h480" fill="none" stroke="#b4b4b4" stroke-width="1"/><path d="m0 60h480" fill="none" stroke="#b4b4b4" stroke-width="1"/><path d="m0 80h480" fill="none" stroke="#b4b4b4" stroke-width="1"/><path d="m0 100h480" fill="none" stroke="#b4b4b4" stroke-width="1"/><path d="m0 120h480" fill="none" stroke="#b4b4b4" stroke-width="1"/><path d="m0 140h480" fill="none" stroke="#b4b4b4" stroke-width="1"/><path d="m0 160h480" fill="none" stroke="#b4b4b4" stroke-width="1"/><path d="m0 180h480" fill="none" stroke="#b4b4b4" stroke-width="1"/><path d="m0 200h480" fill="none" stroke="#b4b4b4" stroke-width="1"/><path d="m0 220h480" fill="none" stroke="#b4b4b4" stroke-width="1"/><path d="m0 240h480" fill="none" stroke="#b4b4b4" stroke-width="1"/><path d="m0 260h480" fill="none" stroke="#b4b4b4" stroke-width="1"/><path d="m0 280h480" fill="none" stroke="#b4b4b4" stroke-width="1"/><path d="m0 300h480" fill="none" stroke="#b4b4b4" stroke-width="1"/><path d="m0 320h480" fill="none" stroke="#b4b4b4" stroke-width="1"/><path d="m0 340h480" fill="none" stroke="#b4b4b4" stroke-width="1"/><path d="m0 360h480" fill="none" stroke="#b4b4b4" stroke-width="1"/><path d="m0 380h480" fill="none" stroke="#b4b4b4" stroke-width="1"/><path d="m0 400h480" fill="none" stroke="#b4b4b4" stroke-width="1"/><path d="m0 420h480" fill="none" stroke="#b4b4b4" stroke-width="1"/><path d="m0 440h480" fill="none" stroke="#b4b4b4" stroke-width="1"/><path d="m0 460h480" fill="none" stroke="#b4b4b4" stroke-width="1"/><path d="m0 480h480" fill="none" stroke="#b4b4b4"/></g></g></svg>