<svg color-interpolation="auto" height="480" stroke="#000" stroke-linecap="square" stroke-miterlimit="10" width="480" xmlns="http://www.w3.org/2000/svg"><g stroke-linecap="round" stroke-width="2"><path d="m183.6 63.6 12.8 12.8" fill="none"/><g><g fill="none"><path d="m183.6 76.4 12.8-12.8"/><path d="m203.6 63.6 12.8 12.8"/><path d="m203.6 76.4 12.8-12.8"/><path d="m223.6 63.6 12.8 12.8"/><path d="m223.6 76.4 12.8-12.8"/><path d="m243.6 63.6 12.8 12.8"/><path d="m243.6 76.4 12.8-12.8"/><path d="m263.6 63.6 12.8 12.8"/><path d="m263.6 76.4 12.8-12.8"/><path d="m283.6 63.6 12.8 12.8"/><path d="m283.6 76.4 12.8-12.8"/><path d="m143.6 83.6 12.8 12.8"/><path d="m143.6 96.4 12.8-12.8"/><path d="m170 84.2099-6.4 11.0851h12.8z"/><path d="m190 84.2099-6.4 11.0851h12.8z"/><path d="m210 83.6 6.4 6.4-6.4 6.4-6.4-6.4z"/><path d="m230 83.6 6.4 6.4-6.4 6.4-6.4-6.4z"/><path d="m250 83.6 6.4 6.4-6.4 6.4-6.4-6.4z"/><path d="m270 83.6 6.4 6.4-6.4 6.4-6.4-6.4z"/><path d="m290 84.2099-6.4 11.0851h12.8z"/><path d="m310 84.2099-6.4 11.0851h12.8z"/><path d="m323.6 83.6 12.8 12.8"/><path d="m323.6 96.4 12.8-12.8"/><path d="m123.6 103.6 12.8 12.8"/><path d="m123.6 116.4 12.8-12.8"/><path d="m150 104.2099-6.4 11.0851h12.8z"/><path d="m170 103.6 6.4 6.4-6.4 6.4-6.4-6.4z"/><path d="m190 103.6 6.4 6.4-6.4 6.4-6.4-6.4z"/><path d="m210 103.6 6.4 6.4-6.4 6.4-6.4-6.4z"/><path d="m230 103.6 6.4 6.4-6.4 6.4-6.4-6.4z"/><path d="m250 103.6 6.4 6.4-6.4 6.4-6.4-6.4z"/><path d="m270 103.6 6.4 6.4-6.4 6.4-6.4-6.4z"/><path d="m290 103.6 6.4 6.4-6.4 6.4-6.4-6.4z"/><path d="m310 103.6 6.4 6.4-6.4 6.4-6.4-6.4z"/><path d="m330 104.2099-6.4 11.0851h12.8z"/><path d="m343.6 103.6 12.8 12.8"/><path d="m343.6 116.4 12.8-12.8"/><path d="m103.6 123.6 12.8 12.8"/><path d="m103.6 136.4 12.8-12.8"/><path d="m130 124.2099-6.4 11.0851h12.8z"/><path d="m150 123.6 6.4 6.4-6.4 6.4-6.4-6.4z"/><path d="m170 123.6 6.4 6.4-6.4 6.4-6.4-6.4z"/><path d="m190 123.6 6.4 6.4-6.4 6.4-6.4-6.4z"/><path d="m210 123.6 6.4 6.4-6.4 6.4-6.4-6.4z"/><path d="m230 123.6 6.4 6.4-6.4 6.4-6.4-6.4z"/><path d="m250 123.6 6.4 6.4-6.4 6.4-6.4-6.4z"/><path d="m270 123.6 6.4 6.4-6.4 6.4-6.4-6.4z"/><path d="m290 123.6 6.4 6.4-6.4 6.4-6.4-6.4z"/><path d="m310 123.6 6.4 6.4-6.4 6.4-6.4-6.4z"/><path d="m330 123.6 6.4 6.4-6.4 6.4-6.4-6.4z"/><path d="m350 124.2099-6.4 11.0851h12.8z"/><path d="m363.6 123.6 12.8 12.8"/><path d="m363.6 136.4 12.8-12.8"/><path d="m83.6 143.6 12.8 12.8"/><path d="m83.6 156.4 12.8-12.8"/><path d="m110 144.2099-6.4 11.0851h12.8z"/><path d="m130 143.6 6.4 6.4-6.4 6.4-6.4-6.4z"/><path d="m150 143.6 6.4 6.4-6.4 6.4-6.4-6.4z"/><path d="m170 143.6 6.4 6.4-6.4 6.4-6.4-6.4z"/><path d="m190 143.6 6.4 6.4-6.4 6.4-6.4-6.4z"/><path d="m210 143.6 6.4 6.4-6.4 6.4-6.4-6.4z"/><path d="m230 143.6 6.4 6.4-6.4 6.4-6.4-6.4z"/><path d="m250 143.6 6.4 6.4-6.4 6.4-6.4-6.4z"/><path d="m270 143.6 6.4 6.4-6.4 6.4-6.4-6.4z"/><path d="m290 143.6 6.4 6.4-6.4 6.4-6.4-6.4z"/><path d="m310 143.6 6.4 6.4-6.4 6.4-6.4-6.4z"/><path d="m330 143.6 6.4 6.4-6.4 6.4-6.4-6.4z"/><path d="m350 143.6 6.4 6.4-6.4 6.4-6.4-6.4z"/><path d="m370 144.2099-6.4 11.0851h12.8z"/><path d="m383.6 143.6 12.8 12.8"/><path d="m383.6 156.4 12.8-12.8"/><path d="m90 164.2099-6.4 11.0851h12.8z"/><path d="m110 163.6 6.4 6.4-6.4 6.4-6.4-6.4z"/><path d="m130 163.6 6.4 6.4-6.4 6.4-6.4-6.4z"/><path d="m150 163.6 6.4 6.4-6.4 6.4-6.4-6.4z"/><path d="m170 163.6 6.4 6.4-6.4 6.4-6.4-6.4z"/><path d="m190 163.6 6.4 6.4-6.4 6.4-6.4-6.4z"/><path d="m210 163.6 6.4 6.4-6.4 6.4-6.4-6.4z"/><path d="m230 163.6 6.4 6.4-6.4 6.4-6.4-6.4z"/><path d="m250 163.6 6.4 6.4-6.4 6.4-6.4-6.4z"/><path d="m270 163.6 6.4 6.4-6.4 6.4-6.4-6.4z"/><path d="m290 163.6 6.4 6.4-6.4 6.4-6.4-6.4z"/><path d="m310 163.6 6.4 6.4-6.4 6.4-6.4-6.4z"/><path d="m330 163.6 6.4 6.4-6.4 6.4-6.4-6.4z"/><path d="m350 163.6 6.4 6.4-6.4 6.4-6.4-6.4z"/><path d="m370 163.6 6.4 6.4-6.4 6.4-6.4-6.4z"/><path d="m390 164.2099-6.4 11.0851h12.8z"/><path d="m63.6 183.6 12.8 12.8"/><path d="m63.6 196.4 12.8-12.8"/><path d="m90 184.2099-6.4 11.0851h12.8z"/><path d="m110 183.6 6.4 6.4-6.4 6.4-6.4-6.4z"/><path d="m130 183.6 6.4 6.4-6.4 6.4-6.4-6.4z"/><path d="m150 183.6 6.4 6.4-6.4 6.4-6.4-6.4z"/><path d="m170 183.6 6.4 6.4-6.4 6.4-6.4-6.4z"/><path d="m190 183.6 6.4 6.4-6.4 6.4-6.4-6.4z"/><path d="m210 183.6 6.4 6.4-6.4 6.4-6.4-6.4z"/><path d="m230 183.6 6.4 6.4-6.4 6.4-6.4-6.4z"/><path d="m250 183.6 6.4 6.4-6.4 6.4-6.4-6.4z"/><path d="m270 183.6 6.4 6.4-6.4 6.4-6.4-6.4z"/><path d="m290 183.6 6.4 6.4-6.4 6.4-6.4-6.4z"/><path d="m310 183.6 6.4 6.4-6.4 6.4-6.4-6.4z"/><path d="m330 183.6 6.4 6.4-6.4 6.4-6.4-6.4z"/><path d="m350 183.6 6.4 6.4-6.4 6.4-6.4-6.4z"/><path d="m370 183.6 6.4 6.4-6.4 6.4-6.4-6.4z"/><path d="m390 184.2099-6.4 11.0851h12.8z"/><path d="m403.6 183.6 12.8 12.8"/><path d="m403.6 196.4 12.8-12.8"/><path d="m63.6 203.6 12.8 12.8"/><path d="m63.6 216.4 12.8-12.8"/><path d="m90 203.6 6.4 6.4-6.4 6.4-6.4-6.4z"/><path d="m110 203.6 6.4 6.4-6.4 6.4-6.4-6.4z"/><path d="m130 203.6 6.4 6.4-6.4 6.4-6.4-6.4z"/><path d="m150 203.6 6.4 6.4-6.4 6.4-6.4-6.4z"/><path d="m170 203.6 6.4 6.4-6.4 6.4-6.4-6.4z"/><path d="m190 203.6 6.4 6.4-6.4 6.4-6.4-6.4z"/><path d="m210 203.6 6.4 6.4-6.4 6.4-6.4-6.4z"/><path d="m230 203.6 6.4 6.4-6.4 6.4-6.4-6.4z"/><path d="m250 203.6 6.4 6.4-6.4 6.4-6.4-6.4z"/><path d="m270 203.6 6.4 6.4-6.4 6.4-6.4-6.4z"/><path d="m290 203.6 6.4 6.4-6.4 6.4-6.4-6.4z"/><path d="m310 203.6 6.4 6.4-6.4 6.4-6.4-6.4z"/><path d="m330 203.6 6.4 6.4-6.4 6.4-6.4-6.4z"/><path d="m350 203.6 6.4 6.4-6.4 6.4-6.4-6.4z"/><path d="m370 203.6 6.4 6.4-6.4 6.4-6.4-6.4z"/><path d="m390 203.6 6.4 6.4-6.4 6.4-6.4-6.4z"/><path d="m403.6 203.6 12.8 12.8"/><path d="m403.6 216.4 12.8-12.8"/><path d="m63.6 223.6 12.8 12.8"/><path d="m63.6 236.4 12.8-12.8"/><path d="m90 223.6 6.4 6.4-6.4 6.4-6.4-6.4z"/></g><circle cx="110" cy="230" r="6.4" stroke="none"/><path d="m130 223.6 6.4 6.4-6.4 6.4-6.4-6.4z" fill="none"/><path d="m150 223.6 6.4 6.4-6.4 6.4-6.4-6.4z" fill="none"/><circle cx="170" cy="230" r="6.4" stroke="none"/><path d="m190 223.6 6.4 6.4-6.4 6.4-6.4-6.4z" fill="none"/><path d="m210 223.6 6.4 6.4-6.4 6.4-6.4-6.4z" fill="none"/><circle cx="230" cy="230" r="6.4" stroke="none"/><path d="m250 223.6 6.4 6.4-6.4 6.4-6.4-6.4z" fill="none"/><path d="m270 223.6 6.4 6.4-6.4 6.4-6.4-6.4z" fill="none"/><circle cx="290" cy="230" r="6.4" stroke="none"/><path d="m310 223.6 6.4 6.4-6.4 6.4-6.4-6.4z" fill="none"/><path d="m330 223.6 6.4 6.4-6.4 6.4-6.4-6.4z" fill="none"/><path d="m350 223.6 6.4 6.4-6.4 6.4-6.4-6.4z" fill="none"/><path d="m370 223.6 6.4 6.4-6.4 6.4-6.4-6.4z" fill="none"/><path d="m390 223.6 6.4 6.4-6.4 6.4-6.4-6.4z" fill="none"/><path d="m403.6 223.6 12.8 12.8" fill="none"/><path d="m403.6 236.4 12.8-12.8" fill="none"/><path d="m63.6 243.6 12.8 12.8" fill="none"/><path d="m63.6 256.4 12.8-12.8" fill="none"/><path d="m90 243.6 6.4 6.4-6.4 6.4-6.4-6.4z" fill="none"/><circle cx="110" cy="250" r="6.4" stroke="none"/><circle cx="130" cy="250" r="6.4" stroke="none"/><circle cx="150" cy="250" r="6.4" stroke="none"/><circle cx="170" cy="250" r="6.4" stroke="none"/><path d="m190 243.6 6.4 6.4-6.4 6.4-6.4-6.4z" fill="none"/><path d="m210 243.6 6.4 6.4-6.4 6.4-6.4-6.4z" fill="none"/><circle cx="230" cy="250" r="6.4" stroke="none"/><circle cx="250" cy="250" r="6.4" stroke="none"/><circle cx="270" cy="250" r="6.4" stroke="none"/><circle cx="290" cy="250" r="6.4" stroke="none"/><path d="m310 243.6 6.4 6.4-6.4 6.4-6.4-6.4z" fill="none"/><path d="m330 243.6 6.4 6.4-6.4 6.4-6.4-6.4z" fill="none"/><path d="m350 243.6 6.4 6.4-6.4 6.4-6.4-6.4z" fill="none"/><path d="m370 243.6 6.4 6.4-6.4 6.4-6.4-6.4z" fill="none"/><path d="m390 243.6 6.4 6.4-6.4 6.4-6.4-6.4z" fill="none"/><path d="m403.6 243.6 12.8 12.8" fill="none"/><path d="m403.6 256.4 12.8-12.8" fill="none"/><path d="m423.6 243.6h12.8v12.8h-12.8z" stroke="none"/><path d="m43.6 263.6h12.8v12.8h-12.8z" stroke="none"/><path d="m63.6 263.6 12.8 12.8" fill="none"/><path d="m63.6 276.4 12.8-12.8" fill="none"/><path d="m90 263.6 6.4 6.4-6.4 6.4-6.4-6.4z" fill="none"/><path d="m110 263.6 6.4 6.4-6.4 6.4-6.4-6.4z" fill="none"/><circle cx="130" cy="270" r="6.4" stroke="none"/><circle cx="150" cy="270" r="6.4" stroke="none"/><path d="m170 263.6 6.4 6.4-6.4 6.4-6.4-6.4z" fill="none"/><path d="m190 263.6 6.4 6.4-6.4 6.4-6.4-6.4z" fill="none"/><path d="m210 263.6 6.4 6.4-6.4 6.4-6.4-6.4z" fill="none"/><path d="m230 263.6 6.4 6.4-6.4 6.4-6.4-6.4z" fill="none"/><circle cx="250" cy="270" r="6.4" stroke="none"/><circle cx="270" cy="270" r="6.4" stroke="none"/><path d="m290 263.6 6.4 6.4-6.4 6.4-6.4-6.4z" fill="none"/><path d="m310 263.6 6.4 6.4-6.4 6.4-6.4-6.4z" fill="none"/><path d="m330 263.6 6.4 6.4-6.4 6.4-6.4-6.4z" fill="none"/><path d="m350 263.6 6.4 6.4-6.4 6.4-6.4-6.4z" fill="none"/><path d="m363.6 263.6h12.8v12.8h-12.8z" stroke="none"/><path d="m383.6 263.6h12.8v12.8h-12.8z" stroke="none"/><path d="m403.6 263.6h12.8v12.8h-12.8z" stroke="none"/><path d="m23.6 283.6h12.8v12.8h-12.8z" stroke="none"/><path d="m63.6 283.6 12.8 12.8" fill="none"/><path d="m63.6 296.4 12.8-12.8" fill="none"/><path d="m90 284.2099-6.4 11.0851h12.8z" fill="none"/><path d="m110 283.6 6.4 6.4-6.4 6.4-6.4-6.4z" fill="none"/><path d="m130 283.6 6.4 6.4-6.4 6.4-6.4-6.4z" fill="none"/><path d="m150 283.6 6.4 6.4-6.4 6.4-6.4-6.4z" fill="none"/><path d="m170 283.6 6.4 6.4-6.4 6.4-6.4-6.4z" fill="none"/><path d="m190 283.6 6.4 6.4-6.4 6.4-6.4-6.4z" fill="none"/><path d="m210 283.6 6.4 6.4-6.4 6.4-6.4-6.4z" fill="none"/><path d="m230 283.6 6.4 6.4-6.4 6.4-6.4-6.4z" fill="none"/><path d="m250 283.6 6.4 6.4-6.4 6.4-6.4-6.4z" fill="none"/><path d="m270 283.6 6.4 6.4-6.4 6.4-6.4-6.4z" fill="none"/><path d="m290 283.6 6.4 6.4-6.4 6.4-6.4-6.4z" fill="none"/><path d="m310 283.6 6.4 6.4-6.4 6.4-6.4-6.4z" fill="none"/><path d="m330 283.6 6.4 6.4-6.4 6.4-6.4-6.4z" fill="none"/><path d="m350 283.6 6.4 6.4-6.4 6.4-6.4-6.4z" fill="none"/><path d="m370 283.6 6.4 6.4-6.4 6.4-6.4-6.4z" fill="none"/><path d="m390 284.2099-6.4 11.0851h12.8z" fill="none"/><path d="m403.6 283.6 12.8 12.8" fill="none"/><path d="m403.6 296.4 12.8-12.8" fill="none"/><path d="m423.6 283.6h12.8v12.8h-12.8z" stroke="none"/><path d="m43.6 303.6h12.8v12.8h-12.8z" stroke="none"/><path d="m63.6 303.6h12.8v12.8h-12.8z" stroke="none"/><path d="m83.6 303.6h12.8v12.8h-12.8z" stroke="none"/><path d="m103.6 303.6h12.8v12.8h-12.8z" stroke="none"/><path d="m130 303.6 6.4 6.4-6.4 6.4-6.4-6.4z" fill="none"/><path d="m150 303.6 6.4 6.4-6.4 6.4-6.4-6.4z" stroke="none"/><circle cx="170" cy="310" r="6.4" stroke="none"/><circle cx="190" cy="310" r="6.4" stroke="none"/><circle cx="210" cy="310" r="6.4" stroke="none"/><circle cx="230" cy="310" r="6.4" stroke="none"/><path d="m250 303.6 6.4 6.4-6.4 6.4-6.4-6.4z" stroke="none"/><path d="m270 303.6 6.4 6.4-6.4 6.4-6.4-6.4z" fill="none"/><path d="m290 303.6 6.4 6.4-6.4 6.4-6.4-6.4z" fill="none"/><path d="m310 303.6 6.4 6.4-6.4 6.4-6.4-6.4z" fill="none"/><path d="m330 303.6 6.4 6.4-6.4 6.4-6.4-6.4z" fill="none"/><path d="m343.6 303.6h12.8v12.8h-12.8z" stroke="none"/><path d="m363.6 303.6h12.8v12.8h-12.8z" stroke="none"/><path d="m383.6 303.6h12.8v12.8h-12.8z" stroke="none"/><path d="m403.6 303.6h12.8v12.8h-12.8z" stroke="none"/><path d="m83.6 323.6 12.8 12.8" fill="none"/><path d="m83.6 336.4 12.8-12.8" fill="none"/><path d="m110 324.2099-6.4 11.0851h12.8z" fill="none"/><path d="m130 323.6 6.4 6.4-6.4 6.4-6.4-6.4z" fill="none"/><path d="m150 323.6 6.4 6.4-6.4 6.4-6.4-6.4z" fill="none"/><path d="m170 323.6 6.4 6.4-6.4 6.4-6.4-6.4z" stroke="none"/><circle cx="190" cy="330" r="6.4" stroke="none"/><circle cx="210" cy="330" r="6.4" stroke="none"/><path d="m230 323.6 6.4 6.4-6.4 6.4-6.4-6.4z" stroke="none"/><path d="m250 323.6 6.4 6.4-6.4 6.4-6.4-6.4z" fill="none"/><path d="m270 323.6 6.4 6.4-6.4 6.4-6.4-6.4z" fill="none"/><path d="m290 323.6 6.4 6.4-6.4 6.4-6.4-6.4z" fill="none"/><path d="m310 323.6 6.4 6.4-6.4 6.4-6.4-6.4z" fill="none"/><path d="m330 323.6 6.4 6.4-6.4 6.4-6.4-6.4z" fill="none"/><path d="m350 323.6 6.4 6.4-6.4 6.4-6.4-6.4z" fill="none"/><path d="m370 324.2099-6.4 11.0851h12.8z" fill="none"/><path d="m383.6 323.6 12.8 12.8" fill="none"/><path d="m383.6 336.4 12.8-12.8" fill="none"/><path d="m103.6 343.6 12.8 12.8" fill="none"/><path d="m103.6 356.4 12.8-12.8" fill="none"/><path d="m130 344.2099-6.4 11.0851h12.8z" fill="none"/><path d="m150 343.6 6.4 6.4-6.4 6.4-6.4-6.4z" fill="none"/><path d="m170 343.6 6.4 6.4-6.4 6.4-6.4-6.4z" fill="none"/><path d="m190 343.6 6.4 6.4-6.4 6.4-6.4-6.4z" fill="none"/><path d="m210 343.6 6.4 6.4-6.4 6.4-6.4-6.4z" fill="none"/><path d="m230 343.6 6.4 6.4-6.4 6.4-6.4-6.4z" fill="none"/><path d="m250 343.6 6.4 6.4-6.4 6.4-6.4-6.4z" fill="none"/><path d="m270 343.6 6.4 6.4-6.4 6.4-6.4-6.4z" fill="none"/><path d="m290 343.6 6.4 6.4-6.4 6.4-6.4-6.4z" fill="none"/><path d="m310 343.6 6.4 6.4-6.4 6.4-6.4-6.4z" fill="none"/><path d="m330 343.6 6.4 6.4-6.4 6.4-6.4-6.4z" fill="none"/><path d="m350 344.2099-6.4 11.0851h12.8z" fill="none"/><path d="m363.6 343.6 12.8 12.8" fill="none"/><path d="m363.6 356.4 12.8-12.8" fill="none"/><path d="m123.6 363.6 12.8 12.8" fill="none"/><path d="m123.6 376.4 12.8-12.8" fill="none"/><path d="m150 364.2099-6.4 11.0851h12.8z" fill="none"/><path d="m170 363.6 6.4 6.4-6.4 6.4-6.4-6.4z" fill="none"/><path d="m190 363.6 6.4 6.4-6.4 6.4-6.4-6.4z" fill="none"/><path d="m210 363.6 6.4 6.4-6.4 6.4-6.4-6.4z" fill="none"/><path d="m230 363.6 6.4 6.4-6.4 6.4-6.4-6.4z" fill="none"/><path d="m250 363.6 6.4 6.4-6.4 6.4-6.4-6.4z" fill="none"/><path d="m270 363.6 6.4 6.4-6.4 6.4-6.4-6.4z" fill="none"/><path d="m290 363.6 6.4 6.4-6.4 6.4-6.4-6.4z" fill="none"/><path d="m310 363.6 6.4 6.4-6.4 6.4-6.4-6.4z" fill="none"/><path d="m330 364.2099-6.4 11.0851h12.8z" fill="none"/><path d="m343.6 363.6 12.8 12.8" fill="none"/><path d="m343.6 376.4 12.8-12.8" fill="none"/><path d="m143.6 383.6 12.8 12.8" fill="none"/><path d="m143.6 396.4 12.8-12.8" fill="none"/><path d="m170 384.2099-6.4 11.0851h12.8z" fill="none"/><path d="m190 384.2099-6.4 11.0851h12.8z" fill="none"/><path d="m210 383.6 6.4 6.4-6.4 6.4-6.4-6.4z" fill="none"/><path d="m230 383.6 6.4 6.4-6.4 6.4-6.4-6.4z" fill="none"/><path d="m250 383.6 6.4 6.4-6.4 6.4-6.4-6.4z" fill="none"/><path d="m270 383.6 6.4 6.4-6.4 6.4-6.4-6.4z" fill="none"/><path d="m290 384.2099-6.4 11.0851h12.8z" fill="none"/><path d="m310 384.2099-6.4 11.0851h12.8z" fill="none"/><path d="m323.6 383.6 12.8 12.8" fill="none"/><path d="m323.6 396.4 12.8-12.8" fill="none"/><path d="m183.6 403.6 12.8 12.8" fill="none"/><path d="m183.6 416.4 12.8-12.8" fill="none"/><path d="m203.6 403.6 12.8 12.8" fill="none"/><path d="m203.6 416.4 12.8-12.8" fill="none"/><path d="m223.6 403.6 12.8 12.8" fill="none"/><path d="m223.6 416.4 12.8-12.8" fill="none"/><path d="m243.6 403.6 12.8 12.8" fill="none"/><path d="m243.6 416.4 12.8-12.8" fill="none"/><path d="m263.6 403.6 12.8 12.8" fill="none"/><path d="m263.6 416.4 12.8-12.8" fill="none"/><path d="m283.6 403.6 12.8 12.8" fill="none"/><path d="m283.6 416.4 12.8-12.8" fill="none"/><path d="m0 0v480" fill="none" stroke="#b4b4b4" stroke-width="3"/><path d="m20 0v480" fill="none" stroke="#b4b4b4" stroke-width="1.5"/><path d="m40 0v480" fill="none" stroke="#b4b4b4" stroke-width="1.5"/><path d="m60 0v480" fill="none" stroke="#b4b4b4" stroke-width="1.5"/><path d="m80 0v480" fill="none" stroke="#b4b4b4" stroke-width="1.5"/><path d="m100 0v480" fill="none" stroke="#b4b4b4" stroke-width="1.5"/><path d="m120 0v480" fill="none" stroke="#b4b4b4" stroke-width="1.5"/><path d="m140 0v480" fill="none" stroke="#b4b4b4" stroke-width="1.5"/><path d="m160 0v480" fill="none" stroke="#b4b4b4" stroke-width="1.5"/><path d="m180 0v480" fill="none" stroke="#b4b4b4" stroke-width="1.5"/><path d="m200 0v480" fill="none" stroke="#b4b4b4" stroke-width="1.5"/><path d="m220 0v480" fill="none" stroke="#b4b4b4" stroke-width="1.5"/><path d="m240 0v480" fill="none" stroke="#b4b4b4" stroke-width="1.5"/><path d="m260 0v480" fill="none" stroke="#b4b4b4" stroke-width="1.5"/><path d="m280 0v480" fill="none" stroke="#b4b4b4" stroke-width="1.5"/><path d="m300 0v480" fill="none" stroke="#b4b4b4" stroke-width="1.5"/><path d="m320 0v480" fill="none" stroke="#b4b4b4" stroke-width="1.5"/><path d="m340 0v480" fill="none" stroke="#b4b4b4" stroke-width="1.5"/><path d="m360 0v480" fill="none" stroke="#b4b4b4" stroke-width="1.5"/><path d="m380 0v480" fill="none" stroke="#b4b4b4" stroke-width="1.5"/><path d="m400 0v480" fill="none" stroke="#b4b4b4" stroke-width="1.5"/><path d="m420 0v480" fill="none" stroke="#b4b4b4" stroke-width="1.5"/><path d="m440 0v480" fill="none" stroke="#b4b4b4" stroke-width="1.5"/><path d="m460 0v480" fill="none" stroke="#b4b4b4" stroke-width="1.5"/><path d="m480 0v480" fill="none" stroke="#b4b4b4" stroke-width="3"/><path d="m0 0h480" fill="none" stroke="#b4b4b4" stroke-width="3"/><path d="m0 20h480" fill="none" stroke="#b4b4b4" stroke-width="1.5"/><path d="m0 40h480" fill="none" stroke="#b4b4b4" stroke-width="1.5"/><path d="m0 60h480" fill="none" stroke="#b4b4b4" stroke-width="1.5"/><path d="m0 80h480" fill="none" stroke="#b4b4b4" stroke-width="1.5"/><path d="m0 100h480" fill="none" stroke="#b4b4b4" stroke-width="1.5"/><path d="m0 120h480" fill="none" stroke="#b4b4b4" stroke-width="1.5"/><path d="m0 140h480" fill="none" stroke="#b4b4b4" stroke-width="1.5"/><path d="m0 160h480" fill="none" stroke="#b4b4b4" stroke-width="1.5"/><path d="m0 180h480" fill="none" stroke="#b4b4b4" stroke-width="1.5"/><path d="m0 200h480" fill="none" stroke="#b4b4b4" stroke-width="1.5"/><path d="m0 220h480" fill="none" stroke="#b4b4b4" stroke-width="1.5"/><path d="m0 240h480" fill="none" stroke="#b4b4b4" stroke-width="1.5"/><path d="m0 260h480" fill="none" stroke="#b4b4b4" stroke-width="1.5"/><path d="m0 280h480" fill="none" stroke="#b4b4b4" stroke-width="1.5"/><path d="m0 300h480" fill="none" stroke="#b4b4b4" stroke-width="1.5"/><path d="m0 320h480" fill="none" stroke="#b4b4b4" stroke-width="1.5"/><path d="m0 340h480" fill="none" stroke="#b4b4b4" stroke-width="1.5"/><path d="m0 360h480" fill="none" stroke="#b4b4b4" stroke-width="1.5"/><path d="m0 380h480" fill="none" stroke="#b4b4b4" stroke-width="1.5"/><path d="m0 400h480" fill="none" stroke="#b4b4b4" stroke-width="1.5"/><path d="m0 420h480" fill="none" stroke="#b4b4b4" stroke-width="1.5"/><path d="m0 440h480" fill="none" stroke="#b4b4b4" stroke-width="1.5"/><path d="m0 460h480" fill="none" stroke="#b4b4b4" stroke-width="1.5"/><path d="m0 480h480" fill="none" stroke="#b4b4b4" stroke-width="3"/></g></g></svg>