<svg color-interpolation="auto" height="480" stroke="#000" stroke-linecap="square" stroke-miterlimit="10" width="480" xmlns="http://www.w3.org/2000/svg"><g stroke-linecap="round" stroke-width="2"><path d="m145.2 105.2h9.6v9.6h-9.6z" fill="none"/><g><g fill="none"><path d="m165.2 105.2h9.6v9.6h-9.6z"/><path d="m185.2 105.2h9.6v9.6h-9.6z"/><path d="m205.2 105.2h9.6v9.6h-9.6z"/><path d="m225.2 105.2h9.6v9.6h-9.6z"/><path d="m245.2 105.2h9.6v9.6h-9.6z"/><path d="m265.2 105.2h9.6v9.6h-9.6z"/><path d="m285.2 105.2h9.6v9.6h-9.6z"/><path d="m305.2 105.2h9.6v9.6h-9.6z"/><path d="m145.2 125.2h9.6v9.6h-9.6z"/><path d="m165.2 125.2h9.6v9.6h-9.6z"/><path d="m185.2 125.2h9.6v9.6h-9.6z"/><path d="m210 130h4.8" stroke-width="1.5"/><path d="m210 130 2.4 4.1569" stroke-width="1.5"/><path d="m210 130-2.4 4.1569" stroke-width="1.5"/><path d="m210 130h-4.8" stroke-width="1.5"/><path d="m210 130-2.4-4.1569" stroke-width="1.5"/><path d="m210 130 2.4-4.1569" stroke-width="1.5"/><path d="m230 130h4.8" stroke-width="1.5"/><path d="m230 130 2.4 4.1569" stroke-width="1.5"/><path d="m230 130-2.4 4.1569" stroke-width="1.5"/><path d="m230 130h-4.8" stroke-width="1.5"/><path d="m230 130-2.4-4.1569" stroke-width="1.5"/><path d="m230 130 2.4-4.1569" stroke-width="1.5"/><path d="m250 130h4.8" stroke-width="1.5"/><path d="m250 130 2.4 4.1569" stroke-width="1.5"/><path d="m250 130-2.4 4.1569" stroke-width="1.5"/><path d="m250 130h-4.8" stroke-width="1.5"/><path d="m250 130-2.4-4.1569" stroke-width="1.5"/><path d="m250 130 2.4-4.1569" stroke-width="1.5"/><path d="m265.2 125.2h9.6v9.6h-9.6z"/><path d="m285.2 125.2h9.6v9.6h-9.6z"/><path d="m305.2 125.2h9.6v9.6h-9.6z"/><path d="m145.2 145.2h9.6v9.6h-9.6z"/><path d="m165.2 145.2h9.6v9.6h-9.6z"/><path d="m190 150h4.8" stroke-width="1.5"/><path d="m190 150 2.4 4.1569" stroke-width="1.5"/><path d="m190 150-2.4 4.1569" stroke-width="1.5"/><path d="m190 150h-4.8" stroke-width="1.5"/><path d="m190 150-2.4-4.1569" stroke-width="1.5"/><path d="m190 150 2.4-4.1569" stroke-width="1.5"/><path d="m210 150h4.8" stroke-width="1.5"/><path d="m210 150 2.4 4.1569" stroke-width="1.5"/><path d="m210 150-2.4 4.1569" stroke-width="1.5"/><path d="m210 150h-4.8" stroke-width="1.5"/><path d="m210 150-2.4-4.1569" stroke-width="1.5"/><path d="m210 150 2.4-4.1569" stroke-width="1.5"/><path d="m230 150h4.8" stroke-width="1.5"/><path d="m230 150 2.4 4.1569" stroke-width="1.5"/><path d="m230 150-2.4 4.1569" stroke-width="1.5"/><path d="m230 150h-4.8" stroke-width="1.5"/><path d="m230 150-2.4-4.1569" stroke-width="1.5"/><path d="m230 150 2.4-4.1569" stroke-width="1.5"/><path d="m250 150h4.8" stroke-width="1.5"/><path d="m250 150 2.4 4.1569" stroke-width="1.5"/><path d="m250 150-2.4 4.1569" stroke-width="1.5"/><path d="m250 150h-4.8" stroke-width="1.5"/><path d="m250 150-2.4-4.1569" stroke-width="1.5"/><path d="m250 150 2.4-4.1569" stroke-width="1.5"/><path d="m270 150h4.8" stroke-width="1.5"/><path d="m270 150 2.4 4.1569" stroke-width="1.5"/><path d="m270 150-2.4 4.1569" stroke-width="1.5"/><path d="m270 150h-4.8" stroke-width="1.5"/><path d="m270 150-2.4-4.1569" stroke-width="1.5"/><path d="m270 150 2.4-4.1569" stroke-width="1.5"/><path d="m285.2 145.2h9.6v9.6h-9.6z"/><path d="m305.2 145.2h9.6v9.6h-9.6z"/><path d="m145.2 165.2h9.6v9.6h-9.6z"/><path d="m170 170h4.8" stroke-width="1.5"/><path d="m170 170 2.4 4.1569" stroke-width="1.5"/><path d="m170 170-2.4 4.1569" stroke-width="1.5"/><path d="m170 170h-4.8" stroke-width="1.5"/><path d="m170 170-2.4-4.1569" stroke-width="1.5"/><path d="m170 170 2.4-4.1569" stroke-width="1.5"/><path d="m190 170h4.8" stroke-width="1.5"/><path d="m190 170 2.4 4.1569" stroke-width="1.5"/><path d="m190 170-2.4 4.1569" stroke-width="1.5"/><path d="m190 170h-4.8" stroke-width="1.5"/><path d="m190 170-2.4-4.1569" stroke-width="1.5"/><path d="m190 170 2.4-4.1569" stroke-width="1.5"/><path d="m210 170h4.8" stroke-width="1.5"/><path d="m210 170 2.4 4.1569" stroke-width="1.5"/><path d="m210 170-2.4 4.1569" stroke-width="1.5"/><path d="m210 170h-4.8" stroke-width="1.5"/><path d="m210 170-2.4-4.1569" stroke-width="1.5"/><path d="m210 170 2.4-4.1569" stroke-width="1.5"/><path d="m230 170h4.8" stroke-width="1.5"/><path d="m230 170 2.4 4.1569" stroke-width="1.5"/><path d="m230 170-2.4 4.1569" stroke-width="1.5"/><path d="m230 170h-4.8" stroke-width="1.5"/><path d="m230 170-2.4-4.1569" stroke-width="1.5"/><path d="m230 170 2.4-4.1569" stroke-width="1.5"/><path d="m250 170h4.8" stroke-width="1.5"/><path d="m250 170 2.4 4.1569" stroke-width="1.5"/><path d="m250 170-2.4 4.1569" stroke-width="1.5"/><path d="m250 170h-4.8" stroke-width="1.5"/><path d="m250 170-2.4-4.1569" stroke-width="1.5"/><path d="m250 170 2.4-4.1569" stroke-width="1.5"/><path d="m270 170h4.8" stroke-width="1.5"/><path d="m270 170 2.4 4.1569" stroke-width="1.5"/><path d="m270 170-2.4 4.1569" stroke-width="1.5"/><path d="m270 170h-4.8" stroke-width="1.5"/><path d="m270 170-2.4-4.1569" stroke-width="1.5"/><path d="m270 170 2.4-4.1569" stroke-width="1.5"/><path d="m290 170h4.8" stroke-width="1.5"/><path d="m290 170 2.4 4.1569" stroke-width="1.5"/><path d="m290 170-2.4 4.1569" stroke-width="1.5"/><path d="m290 170h-4.8" stroke-width="1.5"/><path d="m290 170-2.4-4.1569" stroke-width="1.5"/><path d="m290 170 2.4-4.1569" stroke-width="1.5"/><path d="m305.2 165.2h9.6v9.6h-9.6z"/><path d="m145.2 185.2h9.6v9.6h-9.6z"/><path d="m170 190h4.8" stroke-width="1.5"/><path d="m170 190 2.4 4.1569" stroke-width="1.5"/><path d="m170 190-2.4 4.1569" stroke-width="1.5"/><path d="m170 190h-4.8" stroke-width="1.5"/><path d="m170 190-2.4-4.1569" stroke-width="1.5"/><path d="m170 190 2.4-4.1569" stroke-width="1.5"/><path d="m190 190h4.8" stroke-width="1.5"/><path d="m190 190 2.4 4.1569" stroke-width="1.5"/><path d="m190 190-2.4 4.1569" stroke-width="1.5"/><path d="m190 190h-4.8" stroke-width="1.5"/><path d="m190 190-2.4-4.1569" stroke-width="1.5"/><path d="m190 190 2.4-4.1569" stroke-width="1.5"/><path d="m210 190h4.8" stroke-width="1.5"/><path d="m210 190 2.4 4.1569" stroke-width="1.5"/><path d="m210 190-2.4 4.1569" stroke-width="1.5"/><path d="m210 190h-4.8" stroke-width="1.5"/><path d="m210 190-2.4-4.1569" stroke-width="1.5"/><path d="m210 190 2.4-4.1569" stroke-width="1.5"/><path d="m230 190h4.8" stroke-width="1.5"/><path d="m230 190 2.4 4.1569" stroke-width="1.5"/><path d="m230 190-2.4 4.1569" stroke-width="1.5"/><path d="m230 190h-4.8" stroke-width="1.5"/><path d="m230 190-2.4-4.1569" stroke-width="1.5"/><path d="m230 190 2.4-4.1569" stroke-width="1.5"/><path d="m250 190h4.8" stroke-width="1.5"/><path d="m250 190 2.4 4.1569" stroke-width="1.5"/><path d="m250 190-2.4 4.1569" stroke-width="1.5"/><path d="m250 190h-4.8" stroke-width="1.5"/><path d="m250 190-2.4-4.1569" stroke-width="1.5"/><path d="m250 190 2.4-4.1569" stroke-width="1.5"/><path d="m270 190h4.8" stroke-width="1.5"/><path d="m270 190 2.4 4.1569" stroke-width="1.5"/><path d="m270 190-2.4 4.1569" stroke-width="1.5"/><path d="m270 190h-4.8" stroke-width="1.5"/><path d="m270 190-2.4-4.1569" stroke-width="1.5"/><path d="m270 190 2.4-4.1569" stroke-width="1.5"/><path d="m290 190h4.8" stroke-width="1.5"/><path d="m290 190 2.4 4.1569" stroke-width="1.5"/><path d="m290 190-2.4 4.1569" stroke-width="1.5"/><path d="m290 190h-4.8" stroke-width="1.5"/><path d="m290 190-2.4-4.1569" stroke-width="1.5"/><path d="m290 190 2.4-4.1569" stroke-width="1.5"/><path d="m305.2 185.2h9.6v9.6h-9.6z"/><path d="m145.2 205.2h9.6v9.6h-9.6z"/><path d="m170 210h4.8" stroke-width="1.5"/><path d="m170 210 2.4 4.1569" stroke-width="1.5"/><path d="m170 210-2.4 4.1569" stroke-width="1.5"/><path d="m170 210h-4.8" stroke-width="1.5"/><path d="m170 210-2.4-4.1569" stroke-width="1.5"/><path d="m170 210 2.4-4.1569" stroke-width="1.5"/><path d="m190 210h4.8" stroke-width="1.5"/><path d="m190 210 2.4 4.1569" stroke-width="1.5"/><path d="m190 210-2.4 4.1569" stroke-width="1.5"/><path d="m190 210h-4.8" stroke-width="1.5"/><path d="m190 210-2.4-4.1569" stroke-width="1.5"/><path d="m190 210 2.4-4.1569" stroke-width="1.5"/><path d="m210 210h4.8" stroke-width="1.5"/><path d="m210 210 2.4 4.1569" stroke-width="1.5"/><path d="m210 210-2.4 4.1569" stroke-width="1.5"/><path d="m210 210h-4.8" stroke-width="1.5"/><path d="m210 210-2.4-4.1569" stroke-width="1.5"/><path d="m210 210 2.4-4.1569" stroke-width="1.5"/><path d="m230 210h4.8" stroke-width="1.5"/><path d="m230 210 2.4 4.1569" stroke-width="1.5"/><path d="m230 210-2.4 4.1569" stroke-width="1.5"/><path d="m230 210h-4.8" stroke-width="1.5"/><path d="m230 210-2.4-4.1569" stroke-width="1.5"/><path d="m230 210 2.4-4.1569" stroke-width="1.5"/><path d="m250 210h4.8" stroke-width="1.5"/><path d="m250 210 2.4 4.1569" stroke-width="1.5"/><path d="m250 210-2.4 4.1569" stroke-width="1.5"/><path d="m250 210h-4.8" stroke-width="1.5"/><path d="m250 210-2.4-4.1569" stroke-width="1.5"/><path d="m250 210 2.4-4.1569" stroke-width="1.5"/><path d="m270 210h4.8" stroke-width="1.5"/><path d="m270 210 2.4 4.1569" stroke-width="1.5"/><path d="m270 210-2.4 4.1569" stroke-width="1.5"/><path d="m270 210h-4.8" stroke-width="1.5"/><path d="m270 210-2.4-4.1569" stroke-width="1.5"/><path d="m270 210 2.4-4.1569" stroke-width="1.5"/><path d="m290 210h4.8" stroke-width="1.5"/><path d="m290 210 2.4 4.1569" stroke-width="1.5"/><path d="m290 210-2.4 4.1569" stroke-width="1.5"/><path d="m290 210h-4.8" stroke-width="1.5"/><path d="m290 210-2.4-4.1569" stroke-width="1.5"/><path d="m290 210 2.4-4.1569" stroke-width="1.5"/><path d="m305.2 205.2h9.6v9.6h-9.6z"/><path d="m145.2 225.2h9.6v9.6h-9.6z"/><path d="m165.2 225.2h9.6v9.6h-9.6z"/><path d="m190 230h4.8" stroke-width="1.5"/><path d="m190 230 2.4 4.1569" stroke-width="1.5"/><path d="m190 230-2.4 4.1569" stroke-width="1.5"/><path d="m190 230h-4.8" stroke-width="1.5"/><path d="m190 230-2.4-4.1569" stroke-width="1.5"/><path d="m190 230 2.4-4.1569" stroke-width="1.5"/><path d="m210 230h4.8" stroke-width="1.5"/><path d="m210 230 2.4 4.1569" stroke-width="1.5"/><path d="m210 230-2.4 4.1569" stroke-width="1.5"/><path d="m210 230h-4.8" stroke-width="1.5"/><path d="m210 230-2.4-4.1569" stroke-width="1.5"/><path d="m210 230 2.4-4.1569" stroke-width="1.5"/><path d="m230 230h4.8" stroke-width="1.5"/><path d="m230 230 2.4 4.1569" stroke-width="1.5"/><path d="m230 230-2.4 4.1569" stroke-width="1.5"/><path d="m230 230h-4.8" stroke-width="1.5"/><path d="m230 230-2.4-4.1569" stroke-width="1.5"/><path d="m230 230 2.4-4.1569" stroke-width="1.5"/><path d="m250 230h4.8" stroke-width="1.5"/><path d="m250 230 2.4 4.1569" stroke-width="1.5"/><path d="m250 230-2.4 4.1569" stroke-width="1.5"/><path d="m250 230h-4.8" stroke-width="1.5"/><path d="m250 230-2.4-4.1569" stroke-width="1.5"/><path d="m250 230 2.4-4.1569" stroke-width="1.5"/><path d="m270 230h4.8" stroke-width="1.5"/><path d="m270 230 2.4 4.1569" stroke-width="1.5"/><path d="m270 230-2.4 4.1569" stroke-width="1.5"/><path d="m270 230h-4.8" stroke-width="1.5"/><path d="m270 230-2.4-4.1569" stroke-width="1.5"/><path d="m270 230 2.4-4.1569" stroke-width="1.5"/><path d="m285.2 225.2h9.6v9.6h-9.6z"/><path d="m305.2 225.2h9.6v9.6h-9.6z"/><path d="m145.2 245.2h9.6v9.6h-9.6z"/><path d="m165.2 245.2h9.6v9.6h-9.6z"/><path d="m185.2 245.2h9.6v9.6h-9.6z"/><path d="m210 250h4.8" stroke-width="1.5"/><path d="m210 250 2.4 4.1569" stroke-width="1.5"/><path d="m210 250-2.4 4.1569" stroke-width="1.5"/><path d="m210 250h-4.8" stroke-width="1.5"/><path d="m210 250-2.4-4.1569" stroke-width="1.5"/><path d="m210 250 2.4-4.1569" stroke-width="1.5"/><path d="m230 250h4.8" stroke-width="1.5"/><path d="m230 250 2.4 4.1569" stroke-width="1.5"/><path d="m230 250-2.4 4.1569" stroke-width="1.5"/><path d="m230 250h-4.8" stroke-width="1.5"/><path d="m230 250-2.4-4.1569" stroke-width="1.5"/><path d="m230 250 2.4-4.1569" stroke-width="1.5"/><path d="m250 250h4.8" stroke-width="1.5"/><path d="m250 250 2.4 4.1569" stroke-width="1.5"/><path d="m250 250-2.4 4.1569" stroke-width="1.5"/><path d="m250 250h-4.8" stroke-width="1.5"/><path d="m250 250-2.4-4.1569" stroke-width="1.5"/><path d="m250 250 2.4-4.1569" stroke-width="1.5"/><path d="m265.2 245.2h9.6v9.6h-9.6z"/><path d="m285.2 245.2h9.6v9.6h-9.6z"/><path d="m305.2 245.2h9.6v9.6h-9.6z"/><path d="m145.2 265.2h9.6v9.6h-9.6z"/><path d="m165.2 265.2h9.6v9.6h-9.6z"/><path d="m185.2 265.2h9.6v9.6h-9.6z"/><path d="m205.2 265.2h9.6v9.6h-9.6z"/><path d="m225.2 265.2h9.6v9.6h-9.6z"/><path d="m245.2 265.2h9.6v9.6h-9.6z"/><path d="m265.2 265.2h9.6v9.6h-9.6z"/><path d="m285.2 265.2h9.6v9.6h-9.6z"/><path d="m305.2 265.2h9.6v9.6h-9.6z"/><path d="m150 290h4.8" stroke-width="1.5"/><path d="m150 290 2.4 4.1569" stroke-width="1.5"/><path d="m150 290-2.4 4.1569" stroke-width="1.5"/><path d="m150 290h-4.8" stroke-width="1.5"/><path d="m150 290-2.4-4.1569" stroke-width="1.5"/><path d="m150 290 2.4-4.1569" stroke-width="1.5"/><path d="m170 290h4.8" stroke-width="1.5"/><path d="m170 290 2.4 4.1569" stroke-width="1.5"/><path d="m170 290-2.4 4.1569" stroke-width="1.5"/><path d="m170 290h-4.8" stroke-width="1.5"/><path d="m170 290-2.4-4.1569" stroke-width="1.5"/><path d="m170 290 2.4-4.1569" stroke-width="1.5"/><path d="m190 290h4.8" stroke-width="1.5"/><path d="m190 290 2.4 4.1569" stroke-width="1.5"/><path d="m190 290-2.4 4.1569" stroke-width="1.5"/><path d="m190 290h-4.8" stroke-width="1.5"/><path d="m190 290-2.4-4.1569" stroke-width="1.5"/><path d="m190 290 2.4-4.1569" stroke-width="1.5"/><path d="m210 290h4.8" stroke-width="1.5"/><path d="m210 290 2.4 4.1569" stroke-width="1.5"/><path d="m210 290-2.4 4.1569" stroke-width="1.5"/><path d="m210 290h-4.8" stroke-width="1.5"/><path d="m210 290-2.4-4.1569" stroke-width="1.5"/><path d="m210 290 2.4-4.1569" stroke-width="1.5"/><path d="m230 290h4.8" stroke-width="1.5"/><path d="m230 290 2.4 4.1569" stroke-width="1.5"/><path d="m230 290-2.4 4.1569" stroke-width="1.5"/><path d="m230 290h-4.8" stroke-width="1.5"/><path d="m230 290-2.4-4.1569" stroke-width="1.5"/><path d="m230 290 2.4-4.1569" stroke-width="1.5"/><path d="m250 290h4.8" stroke-width="1.5"/><path d="m250 290 2.4 4.1569" stroke-width="1.5"/><path d="m250 290-2.4 4.1569" stroke-width="1.5"/><path d="m250 290h-4.8" stroke-width="1.5"/><path d="m250 290-2.4-4.1569" stroke-width="1.5"/><path d="m250 290 2.4-4.1569" stroke-width="1.5"/><path d="m270 290h4.8" stroke-width="1.5"/><path d="m270 290 2.4 4.1569" stroke-width="1.5"/><path d="m270 290-2.4 4.1569" stroke-width="1.5"/><path d="m270 290h-4.8" stroke-width="1.5"/><path d="m270 290-2.4-4.1569" stroke-width="1.5"/><path d="m270 290 2.4-4.1569" stroke-width="1.5"/><path d="m290 290h4.8" stroke-width="1.5"/><path d="m290 290 2.4 4.1569" stroke-width="1.5"/><path d="m290 290-2.4 4.1569" stroke-width="1.5"/><path d="m290 290h-4.8" stroke-width="1.5"/><path d="m290 290-2.4-4.1569" stroke-width="1.5"/><path d="m290 290 2.4-4.1569" stroke-width="1.5"/><path d="m310 290h4.8" stroke-width="1.5"/><path d="m310 290 2.4 4.1569" stroke-width="1.5"/><path d="m310 290-2.4 4.1569" stroke-width="1.5"/><path d="m310 290h-4.8" stroke-width="1.5"/><path d="m310 290-2.4-4.1569" stroke-width="1.5"/><path d="m310 290 2.4-4.1569" stroke-width="1.5"/></g><path d="m150 305.6574-4.8 8.3139h9.6z" stroke="none"/><path d="m170 305.6574-4.8 8.3139h9.6z" stroke="none"/><path d="m190 305.6574-4.8 8.3139h9.6z" stroke="none"/><path d="m210 305.6574-4.8 8.3139h9.6z" stroke="none"/><path d="m230 305.6574-4.8 8.3139h9.6z" stroke="none"/><path d="m250 305.6574-4.8 8.3139h9.6z" stroke="none"/><path d="m270 305.6574-4.8 8.3139h9.6z" stroke="none"/><path d="m290 305.6574-4.8 8.3139h9.6z" stroke="none"/><path d="m310 305.6574-4.8 8.3139h9.6z" stroke="none"/><path d="m150 330h4.8" fill="none" stroke-width="1.5"/><path d="m150 330 2.4 4.1569" fill="none" stroke-width="1.5"/><path d="m150 330-2.4 4.1569" fill="none" stroke-width="1.5"/><path d="m150 330h-4.8" fill="none" stroke-width="1.5"/><path d="m150 330-2.4-4.1569" fill="none" stroke-width="1.5"/><path d="m150 330 2.4-4.1569" fill="none" stroke-width="1.5"/><path d="m170 330h4.8" fill="none" stroke-width="1.5"/><path d="m170 330 2.4 4.1569" fill="none" stroke-width="1.5"/><path d="m170 330-2.4 4.1569" fill="none" stroke-width="1.5"/><path d="m170 330h-4.8" fill="none" stroke-width="1.5"/><path d="m170 330-2.4-4.1569" fill="none" stroke-width="1.5"/><path d="m170 330 2.4-4.1569" fill="none" stroke-width="1.5"/><path d="m190 330h4.8" fill="none" stroke-width="1.5"/><path d="m190 330 2.4 4.1569" fill="none" stroke-width="1.5"/><path d="m190 330-2.4 4.1569" fill="none" stroke-width="1.5"/><path d="m190 330h-4.8" fill="none" stroke-width="1.5"/><path d="m190 330-2.4-4.1569" fill="none" stroke-width="1.5"/><path d="m190 330 2.4-4.1569" fill="none" stroke-width="1.5"/><path d="m210 330h4.8" fill="none" stroke-width="1.5"/><path d="m210 330 2.4 4.1569" fill="none" stroke-width="1.5"/><path d="m210 330-2.4 4.1569" fill="none" stroke-width="1.5"/><path d="m210 330h-4.8" fill="none" stroke-width="1.5"/><path d="m210 330-2.4-4.1569" fill="none" stroke-width="1.5"/><path d="m210 330 2.4-4.1569" fill="none" stroke-width="1.5"/><path d="m230 330h4.8" fill="none" stroke-width="1.5"/><path d="m230 330 2.4 4.1569" fill="none" stroke-width="1.5"/><path d="m230 330-2.4 4.1569" fill="none" stroke-width="1.5"/><path d="m230 330h-4.8" fill="none" stroke-width="1.5"/><path d="m230 330-2.4-4.1569" fill="none" stroke-width="1.5"/><path d="m230 330 2.4-4.1569" fill="none" stroke-width="1.5"/><path d="m250 330h4.8" fill="none" stroke-width="1.5"/><path d="m250 330 2.4 4.1569" fill="none" stroke-width="1.5"/><path d="m250 330-2.4 4.1569" fill="none" stroke-width="1.5"/><path d="m250 330h-4.8" fill="none" stroke-width="1.5"/><path d="m250 330-2.4-4.1569" fill="none" stroke-width="1.5"/><path d="m250 330 2.4-4.1569" fill="none" stroke-width="1.5"/><path d="m270 330h4.8" fill="none" stroke-width="1.5"/><path d="m270 330 2.4 4.1569" fill="none" stroke-width="1.5"/><path d="m270 330-2.4 4.1569" fill="none" stroke-width="1.5"/><path d="m270 330h-4.8" fill="none" stroke-width="1.5"/><path d="m270 330-2.4-4.1569" fill="none" stroke-width="1.5"/><path d="m270 330 2.4-4.1569" fill="none" stroke-width="1.5"/><path d="m290 330h4.8" fill="none" stroke-width="1.5"/><path d="m290 330 2.4 4.1569" fill="none" stroke-width="1.5"/><path d="m290 330-2.4 4.1569" fill="none" stroke-width="1.5"/><path d="m290 330h-4.8" fill="none" stroke-width="1.5"/><path d="m290 330-2.4-4.1569" fill="none" stroke-width="1.5"/><path d="m290 330 2.4-4.1569" fill="none" stroke-width="1.5"/><path d="m310 330h4.8" fill="none" stroke-width="1.5"/><path d="m310 330 2.4 4.1569" fill="none" stroke-width="1.5"/><path d="m310 330-2.4 4.1569" fill="none" stroke-width="1.5"/><path d="m310 330h-4.8" fill="none" stroke-width="1.5"/><path d="m310 330-2.4-4.1569" fill="none" stroke-width="1.5"/><path d="m310 330 2.4-4.1569" fill="none" stroke-width="1.5"/><path d="m150 345.6574-4.8 8.3139h9.6z" stroke="none"/><path d="m170 345.6574-4.8 8.3139h9.6z" stroke="none"/><path d="m190 345.6574-4.8 8.3139h9.6z" stroke="none"/><path d="m210 345.6574-4.8 8.3139h9.6z" stroke="none"/><path d="m230 345.6574-4.8 8.3139h9.6z" stroke="none"/><path d="m250 345.6574-4.8 8.3139h9.6z" stroke="none"/><path d="m270 345.6574-4.8 8.3139h9.6z" stroke="none"/><path d="m290 345.6574-4.8 8.3139h9.6z" stroke="none"/><path d="m310 345.6574-4.8 8.3139h9.6z" stroke="none"/><path d="m150 370h4.8" fill="none" stroke-width="1.5"/><path d="m150 370 2.4 4.1569" fill="none" stroke-width="1.5"/><path d="m150 370-2.4 4.1569" fill="none" stroke-width="1.5"/><path d="m150 370h-4.8" fill="none" stroke-width="1.5"/><path d="m150 370-2.4-4.1569" fill="none" stroke-width="1.5"/><path d="m150 370 2.4-4.1569" fill="none" stroke-width="1.5"/><path d="m170 370h4.8" fill="none" stroke-width="1.5"/><path d="m170 370 2.4 4.1569" fill="none" stroke-width="1.5"/><path d="m170 370-2.4 4.1569" fill="none" stroke-width="1.5"/><path d="m170 370h-4.8" fill="none" stroke-width="1.5"/><path d="m170 370-2.4-4.1569" fill="none" stroke-width="1.5"/><path d="m170 370 2.4-4.1569" fill="none" stroke-width="1.5"/><path d="m190 370h4.8" fill="none" stroke-width="1.5"/><path d="m190 370 2.4 4.1569" fill="none" stroke-width="1.5"/><path d="m190 370-2.4 4.1569" fill="none" stroke-width="1.5"/><path d="m190 370h-4.8" fill="none" stroke-width="1.5"/><path d="m190 370-2.4-4.1569" fill="none" stroke-width="1.5"/><path d="m190 370 2.4-4.1569" fill="none" stroke-width="1.5"/><path d="m210 370h4.8" fill="none" stroke-width="1.5"/><path d="m210 370 2.4 4.1569" fill="none" stroke-width="1.5"/><path d="m210 370-2.4 4.1569" fill="none" stroke-width="1.5"/><path d="m210 370h-4.8" fill="none" stroke-width="1.5"/><path d="m210 370-2.4-4.1569" fill="none" stroke-width="1.5"/><path d="m210 370 2.4-4.1569" fill="none" stroke-width="1.5"/><path d="m230 370h4.8" fill="none" stroke-width="1.5"/><path d="m230 370 2.4 4.1569" fill="none" stroke-width="1.5"/><path d="m230 370-2.4 4.1569" fill="none" stroke-width="1.5"/><path d="m230 370h-4.8" fill="none" stroke-width="1.5"/><path d="m230 370-2.4-4.1569" fill="none" stroke-width="1.5"/><path d="m230 370 2.4-4.1569" fill="none" stroke-width="1.5"/><path d="m250 370h4.8" fill="none" stroke-width="1.5"/><path d="m250 370 2.4 4.1569" fill="none" stroke-width="1.5"/><path d="m250 370-2.4 4.1569" fill="none" stroke-width="1.5"/><path d="m250 370h-4.8" fill="none" stroke-width="1.5"/><path d="m250 370-2.4-4.1569" fill="none" stroke-width="1.5"/><path d="m250 370 2.4-4.1569" fill="none" stroke-width="1.5"/><path d="m270 370h4.8" fill="none" stroke-width="1.5"/><path d="m270 370 2.4 4.1569" fill="none" stroke-width="1.5"/><path d="m270 370-2.4 4.1569" fill="none" stroke-width="1.5"/><path d="m270 370h-4.8" fill="none" stroke-width="1.5"/><path d="m270 370-2.4-4.1569" fill="none" stroke-width="1.5"/><path d="m270 370 2.4-4.1569" fill="none" stroke-width="1.5"/><path d="m290 370h4.8" fill="none" stroke-width="1.5"/><path d="m290 370 2.4 4.1569" fill="none" stroke-width="1.5"/><path d="m290 370-2.4 4.1569" fill="none" stroke-width="1.5"/><path d="m290 370h-4.8" fill="none" stroke-width="1.5"/><path d="m290 370-2.4-4.1569" fill="none" stroke-width="1.5"/><path d="m290 370 2.4-4.1569" fill="none" stroke-width="1.5"/><path d="m310 370h4.8" fill="none" stroke-width="1.5"/><path d="m310 370 2.4 4.1569" fill="none" stroke-width="1.5"/><path d="m310 370-2.4 4.1569" fill="none" stroke-width="1.5"/><path d="m310 370h-4.8" fill="none" stroke-width="1.5"/><path d="m310 370-2.4-4.1569" fill="none" stroke-width="1.5"/><path d="m310 370 2.4-4.1569" fill="none" stroke-width="1.5"/><path d="m150 385.6574-4.8 8.3139h9.6z" stroke="none"/><path d="m170 385.6574-4.8 8.3139h9.6z" stroke="none"/><path d="m190 385.6574-4.8 8.3139h9.6z" stroke="none"/><path d="m210 385.6574-4.8 8.3139h9.6z" stroke="none"/><path d="m230 385.6574-4.8 8.3139h9.6z" stroke="none"/><path d="m250 385.6574-4.8 8.3139h9.6z" stroke="none"/><path d="m270 385.6574-4.8 8.3139h9.6z" stroke="none"/><path d="m290 385.6574-4.8 8.3139h9.6z" stroke="none"/><path d="m310 385.6574-4.8 8.3139h9.6z" stroke="none"/><path d="m0 0v480" fill="none" stroke="#b4b4b4"/><path d="m20 0v480" fill="none" stroke="#b4b4b4" stroke-width="1"/><path d="m40 0v480" fill="none" stroke="#b4b4b4" stroke-width="1"/><path d="m60 0v480" fill="none" stroke="#b4b4b4" stroke-width="1"/><path d="m80 0v480" fill="none" stroke="#b4b4b4" stroke-width="1"/><path d="m100 0v480" fill="none" stroke="#b4b4b4" stroke-width="1"/><path d="m120 0v480" fill="none" stroke="#b4b4b4" stroke-width="1"/><path d="m140 0v480" fill="none" stroke="#b4b4b4" stroke-width="1"/><path d="m160 0v480" fill="none" stroke="#b4b4b4" stroke-width="1"/><path d="m180 0v480" fill="none" stroke="#b4b4b4" stroke-width="1"/><path d="m200 0v480" fill="none" stroke="#b4b4b4" stroke-width="1"/><path d="m220 0v480" fill="none" stroke="#b4b4b4" stroke-width="1"/><path d="m240 0v480" fill="none" stroke="#b4b4b4" stroke-width="1"/><path d="m260 0v480" fill="none" stroke="#b4b4b4" stroke-width="1"/><path d="m280 0v480" fill="none" stroke="#b4b4b4" stroke-width="1"/><path d="m300 0v480" fill="none" stroke="#b4b4b4" stroke-width="1"/><path d="m320 0v480" fill="none" stroke="#b4b4b4" stroke-width="1"/><path d="m340 0v480" fill="none" stroke="#b4b4b4" stroke-width="1"/><path d="m360 0v480" fill="none" stroke="#b4b4b4" stroke-width="1"/><path d="m380 0v480" fill="none" stroke="#b4b4b4" stroke-width="1"/><path d="m400 0v480" fill="none" stroke="#b4b4b4" stroke-width="1"/><path d="m420 0v480" fill="none" stroke="#b4b4b4" stroke-width="1"/><path d="m440 0v480" fill="none" stroke="#b4b4b4" stroke-width="1"/><path d="m460 0v480" fill="none" stroke="#b4b4b4" stroke-width="1"/><path d="m480 0v480" fill="none" stroke="#b4b4b4"/><path d="m0 0h480" fill="none" stroke="#b4b4b4"/><path d="m0 20h480" fill="none" stroke="#b4b4b4" stroke-width="1"/><path d="m0 40h480" fill="none" stroke="#b4b4b4" stroke-width="1"/><path d="m0 60h480" fill="none" stroke="#b4b4b4" stroke-width="1"/><path d="m0 80h480" fill="none" stroke="#b4b4b4" stroke-width="1"/><path d="m0 100h480" fill="none" stroke="#b4b4b4" stroke-width="1"/><path d="m0 120h480" fill="none" stroke="#b4b4b4" stroke-width="1"/><path d="m0 140h480" fill="none" stroke="#b4b4b4" stroke-width="1"/><path d="m0 160h480" fill="none" stroke="#b4b4b4" stroke-width="1"/><path d="m0 180h480" fill="none" stroke="#b4b4b4" stroke-width="1"/><path d="m0 200h480" fill="none" stroke="#b4b4b4" stroke-width="1"/><path d="m0 220h480" fill="none" stroke="#b4b4b4" stroke-width="1"/><path d="m0 240h480" fill="none" stroke="#b4b4b4" stroke-width="1"/><path d="m0 260h480" fill="none" stroke="#b4b4b4" stroke-width="1"/><path d="m0 280h480" fill="none" stroke="#b4b4b4" stroke-width="1"/><path d="m0 300h480" fill="none" stroke="#b4b4b4" stroke-width="1"/><path d="m0 320h480" fill="none" stroke="#b4b4b4" stroke-width="1"/><path d="m0 340h480" fill="none" stroke="#b4b4b4" stroke-width="1"/><path d="m0 360h480" fill="none" stroke="#b4b4b4" stroke-width="1"/><path d="m0 380h480" fill="none" stroke="#b4b4b4" stroke-width="1"/><path d="m0 400h480" fill="none" stroke="#b4b4b4" stroke-width="1"/><path d="m0 420h480" fill="none" stroke="#b4b4b4" stroke-width="1"/><path d="m0 440h480" fill="none" stroke="#b4b4b4" stroke-width="1"/><path d="m0 460h480" fill="none" stroke="#b4b4b4" stroke-width="1"/><path d="m0 480h480" fill="none" stroke="#b4b4b4"/></g></g></svg>