<svg color-interpolation="auto" height="480" stroke="#000" stroke-linecap="square" stroke-miterlimit="10" width="480" xmlns="http://www.w3.org/2000/svg"><path d="m7.4-3.6c2.4 0 3.6 1.2 3.6 3.6 0 2.4-1.2 3.6-3.6 3.6h-14.8c-2.4 0-3.6-1.2-3.6-3.6 0-2.4 1.2-3.6 3.6-3.6z" fill="#3b3b3b" stroke="none" transform="matrix(.70710678 -.70710678 .70710678 .70710678 150 110)"/><g stroke-linecap="round" stroke-width=".2"><path d="m7.4-3.6c2.4 0 3.6 1.2 3.6 3.6 0 2.4-1.2 3.6-3.6 3.6h-14.8c-2.4 0-3.6-1.2-3.6-3.6 0-2.4 1.2-3.6 3.6-3.6z" fill="none" stroke="#fff" transform="matrix(.70710678 -.70710678 .70710678 .70710678 150 110)"/><g fill="#3b3b3b" stroke="#3b3b3b" transform="matrix(.70710678 -.70710678 .70710678 .70710678 170 110)"><path d="m7.4-3.6c2.4 0 3.6 1.2 3.6 3.6 0 2.4-1.2 3.6-3.6 3.6h-14.8c-2.4 0-3.6-1.2-3.6-3.6 0-2.4 1.2-3.6 3.6-3.6z" stroke="none"/><path d="m7.4-3.6c2.4 0 3.6 1.2 3.6 3.6 0 2.4-1.2 3.6-3.6 3.6h-14.8c-2.4 0-3.6-1.2-3.6-3.6 0-2.4 1.2-3.6 3.6-3.6z" fill="none" stroke="#fff"/></g><g fill="#3b3b3b" stroke="#3b3b3b" transform="matrix(.70710678 -.70710678 .70710678 .70710678 190 110)"><path d="m7.4-3.6c2.4 0 3.6 1.2 3.6 3.6 0 2.4-1.2 3.6-3.6 3.6h-14.8c-2.4 0-3.6-1.2-3.6-3.6 0-2.4 1.2-3.6 3.6-3.6z" stroke="none"/><path d="m7.4-3.6c2.4 0 3.6 1.2 3.6 3.6 0 2.4-1.2 3.6-3.6 3.6h-14.8c-2.4 0-3.6-1.2-3.6-3.6 0-2.4 1.2-3.6 3.6-3.6z" fill="none" stroke="#fff"/></g><g fill="#3b3b3b" stroke="#3b3b3b" transform="matrix(.70710678 -.70710678 .70710678 .70710678 210 110)"><path d="m7.4-3.6c2.4 0 3.6 1.2 3.6 3.6 0 2.4-1.2 3.6-3.6 3.6h-14.8c-2.4 0-3.6-1.2-3.6-3.6 0-2.4 1.2-3.6 3.6-3.6z" stroke="none"/><path d="m7.4-3.6c2.4 0 3.6 1.2 3.6 3.6 0 2.4-1.2 3.6-3.6 3.6h-14.8c-2.4 0-3.6-1.2-3.6-3.6 0-2.4 1.2-3.6 3.6-3.6z" fill="none" stroke="#fff"/></g><g fill="#3b3b3b" stroke="#3b3b3b" transform="matrix(.70710678 -.70710678 .70710678 .70710678 230 110)"><path d="m7.4-3.6c2.4 0 3.6 1.2 3.6 3.6 0 2.4-1.2 3.6-3.6 3.6h-14.8c-2.4 0-3.6-1.2-3.6-3.6 0-2.4 1.2-3.6 3.6-3.6z" stroke="none"/><path d="m7.4-3.6c2.4 0 3.6 1.2 3.6 3.6 0 2.4-1.2 3.6-3.6 3.6h-14.8c-2.4 0-3.6-1.2-3.6-3.6 0-2.4 1.2-3.6 3.6-3.6z" fill="none" stroke="#fff"/></g><g fill="#3b3b3b" stroke="#3b3b3b" transform="matrix(.70710678 -.70710678 .70710678 .70710678 250 110)"><path d="m7.4-3.6c2.4 0 3.6 1.2 3.6 3.6 0 2.4-1.2 3.6-3.6 3.6h-14.8c-2.4 0-3.6-1.2-3.6-3.6 0-2.4 1.2-3.6 3.6-3.6z" stroke="none"/><path d="m7.4-3.6c2.4 0 3.6 1.2 3.6 3.6 0 2.4-1.2 3.6-3.6 3.6h-14.8c-2.4 0-3.6-1.2-3.6-3.6 0-2.4 1.2-3.6 3.6-3.6z" fill="none" stroke="#fff"/></g><g fill="#3b3b3b" stroke="#3b3b3b" transform="matrix(.70710678 -.70710678 .70710678 .70710678 270 110)"><path d="m7.4-3.6c2.4 0 3.6 1.2 3.6 3.6 0 2.4-1.2 3.6-3.6 3.6h-14.8c-2.4 0-3.6-1.2-3.6-3.6 0-2.4 1.2-3.6 3.6-3.6z" stroke="none"/><path d="m7.4-3.6c2.4 0 3.6 1.2 3.6 3.6 0 2.4-1.2 3.6-3.6 3.6h-14.8c-2.4 0-3.6-1.2-3.6-3.6 0-2.4 1.2-3.6 3.6-3.6z" fill="none" stroke="#fff"/></g><g fill="#3b3b3b" stroke="#3b3b3b" transform="matrix(.70710678 -.70710678 .70710678 .70710678 290 110)"><path d="m7.4-3.6c2.4 0 3.6 1.2 3.6 3.6 0 2.4-1.2 3.6-3.6 3.6h-14.8c-2.4 0-3.6-1.2-3.6-3.6 0-2.4 1.2-3.6 3.6-3.6z" stroke="none"/><path d="m7.4-3.6c2.4 0 3.6 1.2 3.6 3.6 0 2.4-1.2 3.6-3.6 3.6h-14.8c-2.4 0-3.6-1.2-3.6-3.6 0-2.4 1.2-3.6 3.6-3.6z" fill="none" stroke="#fff"/></g><g fill="#3b3b3b" stroke="#3b3b3b" transform="matrix(.70710678 -.70710678 .70710678 .70710678 310 110)"><path d="m7.4-3.6c2.4 0 3.6 1.2 3.6 3.6 0 2.4-1.2 3.6-3.6 3.6h-14.8c-2.4 0-3.6-1.2-3.6-3.6 0-2.4 1.2-3.6 3.6-3.6z" stroke="none"/><path d="m7.4-3.6c2.4 0 3.6 1.2 3.6 3.6 0 2.4-1.2 3.6-3.6 3.6h-14.8c-2.4 0-3.6-1.2-3.6-3.6 0-2.4 1.2-3.6 3.6-3.6z" fill="none" stroke="#fff"/></g><g fill="#3b3b3b" stroke="#3b3b3b" transform="matrix(.70710678 -.70710678 .70710678 .70710678 150 130)"><path d="m7.4-3.6c2.4 0 3.6 1.2 3.6 3.6 0 2.4-1.2 3.6-3.6 3.6h-14.8c-2.4 0-3.6-1.2-3.6-3.6 0-2.4 1.2-3.6 3.6-3.6z" stroke="none"/><path d="m7.4-3.6c2.4 0 3.6 1.2 3.6 3.6 0 2.4-1.2 3.6-3.6 3.6h-14.8c-2.4 0-3.6-1.2-3.6-3.6 0-2.4 1.2-3.6 3.6-3.6z" fill="none" stroke="#fff"/></g><g fill="#3b3b3b" stroke="#3b3b3b" transform="matrix(.70710678 -.70710678 .70710678 .70710678 170 130)"><path d="m7.4-3.6c2.4 0 3.6 1.2 3.6 3.6 0 2.4-1.2 3.6-3.6 3.6h-14.8c-2.4 0-3.6-1.2-3.6-3.6 0-2.4 1.2-3.6 3.6-3.6z" stroke="none"/><path d="m7.4-3.6c2.4 0 3.6 1.2 3.6 3.6 0 2.4-1.2 3.6-3.6 3.6h-14.8c-2.4 0-3.6-1.2-3.6-3.6 0-2.4 1.2-3.6 3.6-3.6z" fill="none" stroke="#fff"/></g><g fill="#3b3b3b" stroke="#3b3b3b" transform="matrix(.70710678 -.70710678 .70710678 .70710678 190 130)"><path d="m7.4-3.6c2.4 0 3.6 1.2 3.6 3.6 0 2.4-1.2 3.6-3.6 3.6h-14.8c-2.4 0-3.6-1.2-3.6-3.6 0-2.4 1.2-3.6 3.6-3.6z" stroke="none"/><path d="m7.4-3.6c2.4 0 3.6 1.2 3.6 3.6 0 2.4-1.2 3.6-3.6 3.6h-14.8c-2.4 0-3.6-1.2-3.6-3.6 0-2.4 1.2-3.6 3.6-3.6z" fill="none" stroke="#fff"/></g><g fill="#fff" stroke="#fff" transform="matrix(.70710678 -.70710678 .70710678 .70710678 210 130)"><path d="m7.4-3.6c2.4 0 3.6 1.2 3.6 3.6 0 2.4-1.2 3.6-3.6 3.6h-14.8c-2.4 0-3.6-1.2-3.6-3.6 0-2.4 1.2-3.6 3.6-3.6z" stroke="none"/><path d="m7.4-3.6c2.4 0 3.6 1.2 3.6 3.6 0 2.4-1.2 3.6-3.6 3.6h-14.8c-2.4 0-3.6-1.2-3.6-3.6 0-2.4 1.2-3.6 3.6-3.6z" fill="none" stroke="#666"/></g><g fill="#fff" stroke="#fff" transform="matrix(.70710678 -.70710678 .70710678 .70710678 230 130)"><path d="m7.4-3.6c2.4 0 3.6 1.2 3.6 3.6 0 2.4-1.2 3.6-3.6 3.6h-14.8c-2.4 0-3.6-1.2-3.6-3.6 0-2.4 1.2-3.6 3.6-3.6z" stroke="none"/><path d="m7.4-3.6c2.4 0 3.6 1.2 3.6 3.6 0 2.4-1.2 3.6-3.6 3.6h-14.8c-2.4 0-3.6-1.2-3.6-3.6 0-2.4 1.2-3.6 3.6-3.6z" fill="none" stroke="#666"/></g><g fill="#fff" stroke="#fff" transform="matrix(.70710678 -.70710678 .70710678 .70710678 250 130)"><path d="m7.4-3.6c2.4 0 3.6 1.2 3.6 3.6 0 2.4-1.2 3.6-3.6 3.6h-14.8c-2.4 0-3.6-1.2-3.6-3.6 0-2.4 1.2-3.6 3.6-3.6z" stroke="none"/><path d="m7.4-3.6c2.4 0 3.6 1.2 3.6 3.6 0 2.4-1.2 3.6-3.6 3.6h-14.8c-2.4 0-3.6-1.2-3.6-3.6 0-2.4 1.2-3.6 3.6-3.6z" fill="none" stroke="#666"/></g><g fill="#3b3b3b" stroke="#3b3b3b" transform="matrix(.70710678 -.70710678 .70710678 .70710678 270 130)"><path d="m7.4-3.6c2.4 0 3.6 1.2 3.6 3.6 0 2.4-1.2 3.6-3.6 3.6h-14.8c-2.4 0-3.6-1.2-3.6-3.6 0-2.4 1.2-3.6 3.6-3.6z" stroke="none"/><path d="m7.4-3.6c2.4 0 3.6 1.2 3.6 3.6 0 2.4-1.2 3.6-3.6 3.6h-14.8c-2.4 0-3.6-1.2-3.6-3.6 0-2.4 1.2-3.6 3.6-3.6z" fill="none" stroke="#fff"/></g><g fill="#3b3b3b" stroke="#3b3b3b" transform="matrix(.70710678 -.70710678 .70710678 .70710678 290 130)"><path d="m7.4-3.6c2.4 0 3.6 1.2 3.6 3.6 0 2.4-1.2 3.6-3.6 3.6h-14.8c-2.4 0-3.6-1.2-3.6-3.6 0-2.4 1.2-3.6 3.6-3.6z" stroke="none"/><path d="m7.4-3.6c2.4 0 3.6 1.2 3.6 3.6 0 2.4-1.2 3.6-3.6 3.6h-14.8c-2.4 0-3.6-1.2-3.6-3.6 0-2.4 1.2-3.6 3.6-3.6z" fill="none" stroke="#fff"/></g><g fill="#3b3b3b" stroke="#3b3b3b" transform="matrix(.70710678 -.70710678 .70710678 .70710678 310 130)"><path d="m7.4-3.6c2.4 0 3.6 1.2 3.6 3.6 0 2.4-1.2 3.6-3.6 3.6h-14.8c-2.4 0-3.6-1.2-3.6-3.6 0-2.4 1.2-3.6 3.6-3.6z" stroke="none"/><path d="m7.4-3.6c2.4 0 3.6 1.2 3.6 3.6 0 2.4-1.2 3.6-3.6 3.6h-14.8c-2.4 0-3.6-1.2-3.6-3.6 0-2.4 1.2-3.6 3.6-3.6z" fill="none" stroke="#fff"/></g><g fill="#3b3b3b" stroke="#3b3b3b" transform="matrix(.70710678 -.70710678 .70710678 .70710678 150 150)"><path d="m7.4-3.6c2.4 0 3.6 1.2 3.6 3.6 0 2.4-1.2 3.6-3.6 3.6h-14.8c-2.4 0-3.6-1.2-3.6-3.6 0-2.4 1.2-3.6 3.6-3.6z" stroke="none"/><path d="m7.4-3.6c2.4 0 3.6 1.2 3.6 3.6 0 2.4-1.2 3.6-3.6 3.6h-14.8c-2.4 0-3.6-1.2-3.6-3.6 0-2.4 1.2-3.6 3.6-3.6z" fill="none" stroke="#fff"/></g><g fill="#3b3b3b" stroke="#3b3b3b" transform="matrix(.70710678 -.70710678 .70710678 .70710678 170 150)"><path d="m7.4-3.6c2.4 0 3.6 1.2 3.6 3.6 0 2.4-1.2 3.6-3.6 3.6h-14.8c-2.4 0-3.6-1.2-3.6-3.6 0-2.4 1.2-3.6 3.6-3.6z" stroke="none"/><path d="m7.4-3.6c2.4 0 3.6 1.2 3.6 3.6 0 2.4-1.2 3.6-3.6 3.6h-14.8c-2.4 0-3.6-1.2-3.6-3.6 0-2.4 1.2-3.6 3.6-3.6z" fill="none" stroke="#fff"/></g><g fill="#fff" stroke="#fff" transform="matrix(.70710678 -.70710678 .70710678 .70710678 190 150)"><path d="m7.4-3.6c2.4 0 3.6 1.2 3.6 3.6 0 2.4-1.2 3.6-3.6 3.6h-14.8c-2.4 0-3.6-1.2-3.6-3.6 0-2.4 1.2-3.6 3.6-3.6z" stroke="none"/><path d="m7.4-3.6c2.4 0 3.6 1.2 3.6 3.6 0 2.4-1.2 3.6-3.6 3.6h-14.8c-2.4 0-3.6-1.2-3.6-3.6 0-2.4 1.2-3.6 3.6-3.6z" fill="none" stroke="#666"/></g><g fill="#fff" stroke="#fff" transform="matrix(.70710678 -.70710678 .70710678 .70710678 210 150)"><path d="m7.4-3.6c2.4 0 3.6 1.2 3.6 3.6 0 2.4-1.2 3.6-3.6 3.6h-14.8c-2.4 0-3.6-1.2-3.6-3.6 0-2.4 1.2-3.6 3.6-3.6z" stroke="none"/><path d="m7.4-3.6c2.4 0 3.6 1.2 3.6 3.6 0 2.4-1.2 3.6-3.6 3.6h-14.8c-2.4 0-3.6-1.2-3.6-3.6 0-2.4 1.2-3.6 3.6-3.6z" fill="none" stroke="#666"/></g><g fill="#fff" stroke="#fff" transform="matrix(.70710678 -.70710678 .70710678 .70710678 230 150)"><path d="m7.4-3.6c2.4 0 3.6 1.2 3.6 3.6 0 2.4-1.2 3.6-3.6 3.6h-14.8c-2.4 0-3.6-1.2-3.6-3.6 0-2.4 1.2-3.6 3.6-3.6z" stroke="none"/><path d="m7.4-3.6c2.4 0 3.6 1.2 3.6 3.6 0 2.4-1.2 3.6-3.6 3.6h-14.8c-2.4 0-3.6-1.2-3.6-3.6 0-2.4 1.2-3.6 3.6-3.6z" fill="none" stroke="#666"/></g><g fill="#fff" stroke="#fff" transform="matrix(.70710678 -.70710678 .70710678 .70710678 250 150)"><path d="m7.4-3.6c2.4 0 3.6 1.2 3.6 3.6 0 2.4-1.2 3.6-3.6 3.6h-14.8c-2.4 0-3.6-1.2-3.6-3.6 0-2.4 1.2-3.6 3.6-3.6z" stroke="none"/><path d="m7.4-3.6c2.4 0 3.6 1.2 3.6 3.6 0 2.4-1.2 3.6-3.6 3.6h-14.8c-2.4 0-3.6-1.2-3.6-3.6 0-2.4 1.2-3.6 3.6-3.6z" fill="none" stroke="#666"/></g><g fill="#fff" stroke="#fff" transform="matrix(.70710678 -.70710678 .70710678 .70710678 270 150)"><path d="m7.4-3.6c2.4 0 3.6 1.2 3.6 3.6 0 2.4-1.2 3.6-3.6 3.6h-14.8c-2.4 0-3.6-1.2-3.6-3.6 0-2.4 1.2-3.6 3.6-3.6z" stroke="none"/><path d="m7.4-3.6c2.4 0 3.6 1.2 3.6 3.6 0 2.4-1.2 3.6-3.6 3.6h-14.8c-2.4 0-3.6-1.2-3.6-3.6 0-2.4 1.2-3.6 3.6-3.6z" fill="none" stroke="#666"/></g><g fill="#3b3b3b" stroke="#3b3b3b" transform="matrix(.70710678 -.70710678 .70710678 .70710678 290 150)"><path d="m7.4-3.6c2.4 0 3.6 1.2 3.6 3.6 0 2.4-1.2 3.6-3.6 3.6h-14.8c-2.4 0-3.6-1.2-3.6-3.6 0-2.4 1.2-3.6 3.6-3.6z" stroke="none"/><path d="m7.4-3.6c2.4 0 3.6 1.2 3.6 3.6 0 2.4-1.2 3.6-3.6 3.6h-14.8c-2.4 0-3.6-1.2-3.6-3.6 0-2.4 1.2-3.6 3.6-3.6z" fill="none" stroke="#fff"/></g><g fill="#3b3b3b" stroke="#3b3b3b" transform="matrix(.70710678 -.70710678 .70710678 .70710678 310 150)"><path d="m7.4-3.6c2.4 0 3.6 1.2 3.6 3.6 0 2.4-1.2 3.6-3.6 3.6h-14.8c-2.4 0-3.6-1.2-3.6-3.6 0-2.4 1.2-3.6 3.6-3.6z" stroke="none"/><path d="m7.4-3.6c2.4 0 3.6 1.2 3.6 3.6 0 2.4-1.2 3.6-3.6 3.6h-14.8c-2.4 0-3.6-1.2-3.6-3.6 0-2.4 1.2-3.6 3.6-3.6z" fill="none" stroke="#fff"/></g><g fill="#3b3b3b" stroke="#3b3b3b" transform="matrix(.70710678 -.70710678 .70710678 .70710678 150 170)"><path d="m7.4-3.6c2.4 0 3.6 1.2 3.6 3.6 0 2.4-1.2 3.6-3.6 3.6h-14.8c-2.4 0-3.6-1.2-3.6-3.6 0-2.4 1.2-3.6 3.6-3.6z" stroke="none"/><path d="m7.4-3.6c2.4 0 3.6 1.2 3.6 3.6 0 2.4-1.2 3.6-3.6 3.6h-14.8c-2.4 0-3.6-1.2-3.6-3.6 0-2.4 1.2-3.6 3.6-3.6z" fill="none" stroke="#fff"/></g><g fill="#fff" stroke="#fff" transform="matrix(.70710678 -.70710678 .70710678 .70710678 170 170)"><path d="m7.4-3.6c2.4 0 3.6 1.2 3.6 3.6 0 2.4-1.2 3.6-3.6 3.6h-14.8c-2.4 0-3.6-1.2-3.6-3.6 0-2.4 1.2-3.6 3.6-3.6z" stroke="none"/><path d="m7.4-3.6c2.4 0 3.6 1.2 3.6 3.6 0 2.4-1.2 3.6-3.6 3.6h-14.8c-2.4 0-3.6-1.2-3.6-3.6 0-2.4 1.2-3.6 3.6-3.6z" fill="none" stroke="#666"/></g><g fill="#fff" stroke="#fff" transform="matrix(.70710678 -.70710678 .70710678 .70710678 190 170)"><path d="m7.4-3.6c2.4 0 3.6 1.2 3.6 3.6 0 2.4-1.2 3.6-3.6 3.6h-14.8c-2.4 0-3.6-1.2-3.6-3.6 0-2.4 1.2-3.6 3.6-3.6z" stroke="none"/><path d="m7.4-3.6c2.4 0 3.6 1.2 3.6 3.6 0 2.4-1.2 3.6-3.6 3.6h-14.8c-2.4 0-3.6-1.2-3.6-3.6 0-2.4 1.2-3.6 3.6-3.6z" fill="none" stroke="#666"/></g><g fill="#fff" stroke="#fff" transform="matrix(.70710678 -.70710678 .70710678 .70710678 210 170)"><path d="m7.4-3.6c2.4 0 3.6 1.2 3.6 3.6 0 2.4-1.2 3.6-3.6 3.6h-14.8c-2.4 0-3.6-1.2-3.6-3.6 0-2.4 1.2-3.6 3.6-3.6z" stroke="none"/><path d="m7.4-3.6c2.4 0 3.6 1.2 3.6 3.6 0 2.4-1.2 3.6-3.6 3.6h-14.8c-2.4 0-3.6-1.2-3.6-3.6 0-2.4 1.2-3.6 3.6-3.6z" fill="none" stroke="#666"/></g><g fill="#fff" stroke="#fff" transform="matrix(.70710678 -.70710678 .70710678 .70710678 230 170)"><path d="m7.4-3.6c2.4 0 3.6 1.2 3.6 3.6 0 2.4-1.2 3.6-3.6 3.6h-14.8c-2.4 0-3.6-1.2-3.6-3.6 0-2.4 1.2-3.6 3.6-3.6z" stroke="none"/><path d="m7.4-3.6c2.4 0 3.6 1.2 3.6 3.6 0 2.4-1.2 3.6-3.6 3.6h-14.8c-2.4 0-3.6-1.2-3.6-3.6 0-2.4 1.2-3.6 3.6-3.6z" fill="none" stroke="#666"/></g><g fill="#fff" stroke="#fff" transform="matrix(.70710678 -.70710678 .70710678 .70710678 250 170)"><path d="m7.4-3.6c2.4 0 3.6 1.2 3.6 3.6 0 2.4-1.2 3.6-3.6 3.6h-14.8c-2.4 0-3.6-1.2-3.6-3.6 0-2.4 1.2-3.6 3.6-3.6z" stroke="none"/><path d="m7.4-3.6c2.4 0 3.6 1.2 3.6 3.6 0 2.4-1.2 3.6-3.6 3.6h-14.8c-2.4 0-3.6-1.2-3.6-3.6 0-2.4 1.2-3.6 3.6-3.6z" fill="none" stroke="#666"/></g><g fill="#fff" stroke="#fff" transform="matrix(.70710678 -.70710678 .70710678 .70710678 270 170)"><path d="m7.4-3.6c2.4 0 3.6 1.2 3.6 3.6 0 2.4-1.2 3.6-3.6 3.6h-14.8c-2.4 0-3.6-1.2-3.6-3.6 0-2.4 1.2-3.6 3.6-3.6z" stroke="none"/><path d="m7.4-3.6c2.4 0 3.6 1.2 3.6 3.6 0 2.4-1.2 3.6-3.6 3.6h-14.8c-2.4 0-3.6-1.2-3.6-3.6 0-2.4 1.2-3.6 3.6-3.6z" fill="none" stroke="#666"/></g><g fill="#fff" stroke="#fff" transform="matrix(.70710678 -.70710678 .70710678 .70710678 290 170)"><path d="m7.4-3.6c2.4 0 3.6 1.2 3.6 3.6 0 2.4-1.2 3.6-3.6 3.6h-14.8c-2.4 0-3.6-1.2-3.6-3.6 0-2.4 1.2-3.6 3.6-3.6z" stroke="none"/><path d="m7.4-3.6c2.4 0 3.6 1.2 3.6 3.6 0 2.4-1.2 3.6-3.6 3.6h-14.8c-2.4 0-3.6-1.2-3.6-3.6 0-2.4 1.2-3.6 3.6-3.6z" fill="none" stroke="#666"/></g><g fill="#3b3b3b" stroke="#3b3b3b" transform="matrix(.70710678 -.70710678 .70710678 .70710678 310 170)"><path d="m7.4-3.6c2.4 0 3.6 1.2 3.6 3.6 0 2.4-1.2 3.6-3.6 3.6h-14.8c-2.4 0-3.6-1.2-3.6-3.6 0-2.4 1.2-3.6 3.6-3.6z" stroke="none"/><path d="m7.4-3.6c2.4 0 3.6 1.2 3.6 3.6 0 2.4-1.2 3.6-3.6 3.6h-14.8c-2.4 0-3.6-1.2-3.6-3.6 0-2.4 1.2-3.6 3.6-3.6z" fill="none" stroke="#fff"/></g><g fill="#3b3b3b" stroke="#3b3b3b" transform="matrix(.70710678 -.70710678 .70710678 .70710678 150 190)"><path d="m7.4-3.6c2.4 0 3.6 1.2 3.6 3.6 0 2.4-1.2 3.6-3.6 3.6h-14.8c-2.4 0-3.6-1.2-3.6-3.6 0-2.4 1.2-3.6 3.6-3.6z" stroke="none"/><path d="m7.4-3.6c2.4 0 3.6 1.2 3.6 3.6 0 2.4-1.2 3.6-3.6 3.6h-14.8c-2.4 0-3.6-1.2-3.6-3.6 0-2.4 1.2-3.6 3.6-3.6z" fill="none" stroke="#fff"/></g><g fill="#fff" stroke="#fff" transform="matrix(.70710678 -.70710678 .70710678 .70710678 170 190)"><path d="m7.4-3.6c2.4 0 3.6 1.2 3.6 3.6 0 2.4-1.2 3.6-3.6 3.6h-14.8c-2.4 0-3.6-1.2-3.6-3.6 0-2.4 1.2-3.6 3.6-3.6z" stroke="none"/><path d="m7.4-3.6c2.4 0 3.6 1.2 3.6 3.6 0 2.4-1.2 3.6-3.6 3.6h-14.8c-2.4 0-3.6-1.2-3.6-3.6 0-2.4 1.2-3.6 3.6-3.6z" fill="none" stroke="#666"/></g><g fill="#fff" stroke="#fff" transform="matrix(.70710678 -.70710678 .70710678 .70710678 190 190)"><path d="m7.4-3.6c2.4 0 3.6 1.2 3.6 3.6 0 2.4-1.2 3.6-3.6 3.6h-14.8c-2.4 0-3.6-1.2-3.6-3.6 0-2.4 1.2-3.6 3.6-3.6z" stroke="none"/><path d="m7.4-3.6c2.4 0 3.6 1.2 3.6 3.6 0 2.4-1.2 3.6-3.6 3.6h-14.8c-2.4 0-3.6-1.2-3.6-3.6 0-2.4 1.2-3.6 3.6-3.6z" fill="none" stroke="#666"/></g><g fill="#fff" stroke="#fff" transform="matrix(.70710678 -.70710678 .70710678 .70710678 210 190)"><path d="m7.4-3.6c2.4 0 3.6 1.2 3.6 3.6 0 2.4-1.2 3.6-3.6 3.6h-14.8c-2.4 0-3.6-1.2-3.6-3.6 0-2.4 1.2-3.6 3.6-3.6z" stroke="none"/><path d="m7.4-3.6c2.4 0 3.6 1.2 3.6 3.6 0 2.4-1.2 3.6-3.6 3.6h-14.8c-2.4 0-3.6-1.2-3.6-3.6 0-2.4 1.2-3.6 3.6-3.6z" fill="none" stroke="#666"/></g><g fill="#fff" stroke="#fff" transform="matrix(.70710678 -.70710678 .70710678 .70710678 230 190)"><path d="m7.4-3.6c2.4 0 3.6 1.2 3.6 3.6 0 2.4-1.2 3.6-3.6 3.6h-14.8c-2.4 0-3.6-1.2-3.6-3.6 0-2.4 1.2-3.6 3.6-3.6z" stroke="none"/><path d="m7.4-3.6c2.4 0 3.6 1.2 3.6 3.6 0 2.4-1.2 3.6-3.6 3.6h-14.8c-2.4 0-3.6-1.2-3.6-3.6 0-2.4 1.2-3.6 3.6-3.6z" fill="none" stroke="#666"/></g><g fill="#fff" stroke="#fff" transform="matrix(.70710678 -.70710678 .70710678 .70710678 250 190)"><path d="m7.4-3.6c2.4 0 3.6 1.2 3.6 3.6 0 2.4-1.2 3.6-3.6 3.6h-14.8c-2.4 0-3.6-1.2-3.6-3.6 0-2.4 1.2-3.6 3.6-3.6z" stroke="none"/><path d="m7.4-3.6c2.4 0 3.6 1.2 3.6 3.6 0 2.4-1.2 3.6-3.6 3.6h-14.8c-2.4 0-3.6-1.2-3.6-3.6 0-2.4 1.2-3.6 3.6-3.6z" fill="none" stroke="#666"/></g><g fill="#fff" stroke="#fff" transform="matrix(.70710678 -.70710678 .70710678 .70710678 270 190)"><path d="m7.4-3.6c2.4 0 3.6 1.2 3.6 3.6 0 2.4-1.2 3.6-3.6 3.6h-14.8c-2.4 0-3.6-1.2-3.6-3.6 0-2.4 1.2-3.6 3.6-3.6z" stroke="none"/><path d="m7.4-3.6c2.4 0 3.6 1.2 3.6 3.6 0 2.4-1.2 3.6-3.6 3.6h-14.8c-2.4 0-3.6-1.2-3.6-3.6 0-2.4 1.2-3.6 3.6-3.6z" fill="none" stroke="#666"/></g><g fill="#fff" stroke="#fff" transform="matrix(.70710678 -.70710678 .70710678 .70710678 290 190)"><path d="m7.4-3.6c2.4 0 3.6 1.2 3.6 3.6 0 2.4-1.2 3.6-3.6 3.6h-14.8c-2.4 0-3.6-1.2-3.6-3.6 0-2.4 1.2-3.6 3.6-3.6z" stroke="none"/><path d="m7.4-3.6c2.4 0 3.6 1.2 3.6 3.6 0 2.4-1.2 3.6-3.6 3.6h-14.8c-2.4 0-3.6-1.2-3.6-3.6 0-2.4 1.2-3.6 3.6-3.6z" fill="none" stroke="#666"/></g><g fill="#3b3b3b" stroke="#3b3b3b" transform="matrix(.70710678 -.70710678 .70710678 .70710678 310 190)"><path d="m7.4-3.6c2.4 0 3.6 1.2 3.6 3.6 0 2.4-1.2 3.6-3.6 3.6h-14.8c-2.4 0-3.6-1.2-3.6-3.6 0-2.4 1.2-3.6 3.6-3.6z" stroke="none"/><path d="m7.4-3.6c2.4 0 3.6 1.2 3.6 3.6 0 2.4-1.2 3.6-3.6 3.6h-14.8c-2.4 0-3.6-1.2-3.6-3.6 0-2.4 1.2-3.6 3.6-3.6z" fill="none" stroke="#fff"/></g><g fill="#3b3b3b" stroke="#3b3b3b" transform="matrix(.70710678 -.70710678 .70710678 .70710678 150 210)"><path d="m7.4-3.6c2.4 0 3.6 1.2 3.6 3.6 0 2.4-1.2 3.6-3.6 3.6h-14.8c-2.4 0-3.6-1.2-3.6-3.6 0-2.4 1.2-3.6 3.6-3.6z" stroke="none"/><path d="m7.4-3.6c2.4 0 3.6 1.2 3.6 3.6 0 2.4-1.2 3.6-3.6 3.6h-14.8c-2.4 0-3.6-1.2-3.6-3.6 0-2.4 1.2-3.6 3.6-3.6z" fill="none" stroke="#fff"/></g><g fill="#fff" stroke="#fff" transform="matrix(.70710678 -.70710678 .70710678 .70710678 170 210)"><path d="m7.4-3.6c2.4 0 3.6 1.2 3.6 3.6 0 2.4-1.2 3.6-3.6 3.6h-14.8c-2.4 0-3.6-1.2-3.6-3.6 0-2.4 1.2-3.6 3.6-3.6z" stroke="none"/><path d="m7.4-3.6c2.4 0 3.6 1.2 3.6 3.6 0 2.4-1.2 3.6-3.6 3.6h-14.8c-2.4 0-3.6-1.2-3.6-3.6 0-2.4 1.2-3.6 3.6-3.6z" fill="none" stroke="#666"/></g><g fill="#fff" stroke="#fff" transform="matrix(.70710678 -.70710678 .70710678 .70710678 190 210)"><path d="m7.4-3.6c2.4 0 3.6 1.2 3.6 3.6 0 2.4-1.2 3.6-3.6 3.6h-14.8c-2.4 0-3.6-1.2-3.6-3.6 0-2.4 1.2-3.6 3.6-3.6z" stroke="none"/><path d="m7.4-3.6c2.4 0 3.6 1.2 3.6 3.6 0 2.4-1.2 3.6-3.6 3.6h-14.8c-2.4 0-3.6-1.2-3.6-3.6 0-2.4 1.2-3.6 3.6-3.6z" fill="none" stroke="#666"/></g><g fill="#fff" stroke="#fff" transform="matrix(.70710678 -.70710678 .70710678 .70710678 210 210)"><path d="m7.4-3.6c2.4 0 3.6 1.2 3.6 3.6 0 2.4-1.2 3.6-3.6 3.6h-14.8c-2.4 0-3.6-1.2-3.6-3.6 0-2.4 1.2-3.6 3.6-3.6z" stroke="none"/><path d="m7.4-3.6c2.4 0 3.6 1.2 3.6 3.6 0 2.4-1.2 3.6-3.6 3.6h-14.8c-2.4 0-3.6-1.2-3.6-3.6 0-2.4 1.2-3.6 3.6-3.6z" fill="none" stroke="#666"/></g><g fill="#fff" stroke="#fff" transform="matrix(.70710678 -.70710678 .70710678 .70710678 230 210)"><path d="m7.4-3.6c2.4 0 3.6 1.2 3.6 3.6 0 2.4-1.2 3.6-3.6 3.6h-14.8c-2.4 0-3.6-1.2-3.6-3.6 0-2.4 1.2-3.6 3.6-3.6z" stroke="none"/><path d="m7.4-3.6c2.4 0 3.6 1.2 3.6 3.6 0 2.4-1.2 3.6-3.6 3.6h-14.8c-2.4 0-3.6-1.2-3.6-3.6 0-2.4 1.2-3.6 3.6-3.6z" fill="none" stroke="#666"/></g><g fill="#fff" stroke="#fff" transform="matrix(.70710678 -.70710678 .70710678 .70710678 250 210)"><path d="m7.4-3.6c2.4 0 3.6 1.2 3.6 3.6 0 2.4-1.2 3.6-3.6 3.6h-14.8c-2.4 0-3.6-1.2-3.6-3.6 0-2.4 1.2-3.6 3.6-3.6z" stroke="none"/><path d="m7.4-3.6c2.4 0 3.6 1.2 3.6 3.6 0 2.4-1.2 3.6-3.6 3.6h-14.8c-2.4 0-3.6-1.2-3.6-3.6 0-2.4 1.2-3.6 3.6-3.6z" fill="none" stroke="#666"/></g><g fill="#fff" stroke="#fff" transform="matrix(.70710678 -.70710678 .70710678 .70710678 270 210)"><path d="m7.4-3.6c2.4 0 3.6 1.2 3.6 3.6 0 2.4-1.2 3.6-3.6 3.6h-14.8c-2.4 0-3.6-1.2-3.6-3.6 0-2.4 1.2-3.6 3.6-3.6z" stroke="none"/><path d="m7.4-3.6c2.4 0 3.6 1.2 3.6 3.6 0 2.4-1.2 3.6-3.6 3.6h-14.8c-2.4 0-3.6-1.2-3.6-3.6 0-2.4 1.2-3.6 3.6-3.6z" fill="none" stroke="#666"/></g><g fill="#fff" stroke="#fff" transform="matrix(.70710678 -.70710678 .70710678 .70710678 290 210)"><path d="m7.4-3.6c2.4 0 3.6 1.2 3.6 3.6 0 2.4-1.2 3.6-3.6 3.6h-14.8c-2.4 0-3.6-1.2-3.6-3.6 0-2.4 1.2-3.6 3.6-3.6z" stroke="none"/><path d="m7.4-3.6c2.4 0 3.6 1.2 3.6 3.6 0 2.4-1.2 3.6-3.6 3.6h-14.8c-2.4 0-3.6-1.2-3.6-3.6 0-2.4 1.2-3.6 3.6-3.6z" fill="none" stroke="#666"/></g><g fill="#3b3b3b" stroke="#3b3b3b" transform="matrix(.70710678 -.70710678 .70710678 .70710678 310 210)"><path d="m7.4-3.6c2.4 0 3.6 1.2 3.6 3.6 0 2.4-1.2 3.6-3.6 3.6h-14.8c-2.4 0-3.6-1.2-3.6-3.6 0-2.4 1.2-3.6 3.6-3.6z" stroke="none"/><path d="m7.4-3.6c2.4 0 3.6 1.2 3.6 3.6 0 2.4-1.2 3.6-3.6 3.6h-14.8c-2.4 0-3.6-1.2-3.6-3.6 0-2.4 1.2-3.6 3.6-3.6z" fill="none" stroke="#fff"/></g><g fill="#3b3b3b" stroke="#3b3b3b" transform="matrix(.70710678 -.70710678 .70710678 .70710678 150 230)"><path d="m7.4-3.6c2.4 0 3.6 1.2 3.6 3.6 0 2.4-1.2 3.6-3.6 3.6h-14.8c-2.4 0-3.6-1.2-3.6-3.6 0-2.4 1.2-3.6 3.6-3.6z" stroke="none"/><path d="m7.4-3.6c2.4 0 3.6 1.2 3.6 3.6 0 2.4-1.2 3.6-3.6 3.6h-14.8c-2.4 0-3.6-1.2-3.6-3.6 0-2.4 1.2-3.6 3.6-3.6z" fill="none" stroke="#fff"/></g><g fill="#3b3b3b" stroke="#3b3b3b" transform="matrix(.70710678 -.70710678 .70710678 .70710678 170 230)"><path d="m7.4-3.6c2.4 0 3.6 1.2 3.6 3.6 0 2.4-1.2 3.6-3.6 3.6h-14.8c-2.4 0-3.6-1.2-3.6-3.6 0-2.4 1.2-3.6 3.6-3.6z" stroke="none"/><path d="m7.4-3.6c2.4 0 3.6 1.2 3.6 3.6 0 2.4-1.2 3.6-3.6 3.6h-14.8c-2.4 0-3.6-1.2-3.6-3.6 0-2.4 1.2-3.6 3.6-3.6z" fill="none" stroke="#fff"/></g><g fill="#fff" stroke="#fff" transform="matrix(.70710678 -.70710678 .70710678 .70710678 190 230)"><path d="m7.4-3.6c2.4 0 3.6 1.2 3.6 3.6 0 2.4-1.2 3.6-3.6 3.6h-14.8c-2.4 0-3.6-1.2-3.6-3.6 0-2.4 1.2-3.6 3.6-3.6z" stroke="none"/><path d="m7.4-3.6c2.4 0 3.6 1.2 3.6 3.6 0 2.4-1.2 3.6-3.6 3.6h-14.8c-2.4 0-3.6-1.2-3.6-3.6 0-2.4 1.2-3.6 3.6-3.6z" fill="none" stroke="#666"/></g><g fill="#fff" stroke="#fff" transform="matrix(.70710678 -.70710678 .70710678 .70710678 210 230)"><path d="m7.4-3.6c2.4 0 3.6 1.2 3.6 3.6 0 2.4-1.2 3.6-3.6 3.6h-14.8c-2.4 0-3.6-1.2-3.6-3.6 0-2.4 1.2-3.6 3.6-3.6z" stroke="none"/><path d="m7.4-3.6c2.4 0 3.6 1.2 3.6 3.6 0 2.4-1.2 3.6-3.6 3.6h-14.8c-2.4 0-3.6-1.2-3.6-3.6 0-2.4 1.2-3.6 3.6-3.6z" fill="none" stroke="#666"/></g><g fill="#fff" stroke="#fff" transform="matrix(.70710678 -.70710678 .70710678 .70710678 230 230)"><path d="m7.4-3.6c2.4 0 3.6 1.2 3.6 3.6 0 2.4-1.2 3.6-3.6 3.6h-14.8c-2.4 0-3.6-1.2-3.6-3.6 0-2.4 1.2-3.6 3.6-3.6z" stroke="none"/><path d="m7.4-3.6c2.4 0 3.6 1.2 3.6 3.6 0 2.4-1.2 3.6-3.6 3.6h-14.8c-2.4 0-3.6-1.2-3.6-3.6 0-2.4 1.2-3.6 3.6-3.6z" fill="none" stroke="#666"/></g><g fill="#fff" stroke="#fff" transform="matrix(.70710678 -.70710678 .70710678 .70710678 250 230)"><path d="m7.4-3.6c2.4 0 3.6 1.2 3.6 3.6 0 2.4-1.2 3.6-3.6 3.6h-14.8c-2.4 0-3.6-1.2-3.6-3.6 0-2.4 1.2-3.6 3.6-3.6z" stroke="none"/><path d="m7.4-3.6c2.4 0 3.6 1.2 3.6 3.6 0 2.4-1.2 3.6-3.6 3.6h-14.8c-2.4 0-3.6-1.2-3.6-3.6 0-2.4 1.2-3.6 3.6-3.6z" fill="none" stroke="#666"/></g><g fill="#fff" stroke="#fff" transform="matrix(.70710678 -.70710678 .70710678 .70710678 270 230)"><path d="m7.4-3.6c2.4 0 3.6 1.2 3.6 3.6 0 2.4-1.2 3.6-3.6 3.6h-14.8c-2.4 0-3.6-1.2-3.6-3.6 0-2.4 1.2-3.6 3.6-3.6z" stroke="none"/><path d="m7.4-3.6c2.4 0 3.6 1.2 3.6 3.6 0 2.4-1.2 3.6-3.6 3.6h-14.8c-2.4 0-3.6-1.2-3.6-3.6 0-2.4 1.2-3.6 3.6-3.6z" fill="none" stroke="#666"/></g><g fill="#3b3b3b" stroke="#3b3b3b" transform="matrix(.70710678 -.70710678 .70710678 .70710678 290 230)"><path d="m7.4-3.6c2.4 0 3.6 1.2 3.6 3.6 0 2.4-1.2 3.6-3.6 3.6h-14.8c-2.4 0-3.6-1.2-3.6-3.6 0-2.4 1.2-3.6 3.6-3.6z" stroke="none"/><path d="m7.4-3.6c2.4 0 3.6 1.2 3.6 3.6 0 2.4-1.2 3.6-3.6 3.6h-14.8c-2.4 0-3.6-1.2-3.6-3.6 0-2.4 1.2-3.6 3.6-3.6z" fill="none" stroke="#fff"/></g><g fill="#3b3b3b" stroke="#3b3b3b" transform="matrix(.70710678 -.70710678 .70710678 .70710678 310 230)"><path d="m7.4-3.6c2.4 0 3.6 1.2 3.6 3.6 0 2.4-1.2 3.6-3.6 3.6h-14.8c-2.4 0-3.6-1.2-3.6-3.6 0-2.4 1.2-3.6 3.6-3.6z" stroke="none"/><path d="m7.4-3.6c2.4 0 3.6 1.2 3.6 3.6 0 2.4-1.2 3.6-3.6 3.6h-14.8c-2.4 0-3.6-1.2-3.6-3.6 0-2.4 1.2-3.6 3.6-3.6z" fill="none" stroke="#fff"/></g><g fill="#3b3b3b" stroke="#3b3b3b" transform="matrix(.70710678 -.70710678 .70710678 .70710678 150 250)"><path d="m7.4-3.6c2.4 0 3.6 1.2 3.6 3.6 0 2.4-1.2 3.6-3.6 3.6h-14.8c-2.4 0-3.6-1.2-3.6-3.6 0-2.4 1.2-3.6 3.6-3.6z" stroke="none"/><path d="m7.4-3.6c2.4 0 3.6 1.2 3.6 3.6 0 2.4-1.2 3.6-3.6 3.6h-14.8c-2.4 0-3.6-1.2-3.6-3.6 0-2.4 1.2-3.6 3.6-3.6z" fill="none" stroke="#fff"/></g><g fill="#3b3b3b" stroke="#3b3b3b" transform="matrix(.70710678 -.70710678 .70710678 .70710678 170 250)"><path d="m7.4-3.6c2.4 0 3.6 1.2 3.6 3.6 0 2.4-1.2 3.6-3.6 3.6h-14.8c-2.4 0-3.6-1.2-3.6-3.6 0-2.4 1.2-3.6 3.6-3.6z" stroke="none"/><path d="m7.4-3.6c2.4 0 3.6 1.2 3.6 3.6 0 2.4-1.2 3.6-3.6 3.6h-14.8c-2.4 0-3.6-1.2-3.6-3.6 0-2.4 1.2-3.6 3.6-3.6z" fill="none" stroke="#fff"/></g><g fill="#3b3b3b" stroke="#3b3b3b" transform="matrix(.70710678 -.70710678 .70710678 .70710678 190 250)"><path d="m7.4-3.6c2.4 0 3.6 1.2 3.6 3.6 0 2.4-1.2 3.6-3.6 3.6h-14.8c-2.4 0-3.6-1.2-3.6-3.6 0-2.4 1.2-3.6 3.6-3.6z" stroke="none"/><path d="m7.4-3.6c2.4 0 3.6 1.2 3.6 3.6 0 2.4-1.2 3.6-3.6 3.6h-14.8c-2.4 0-3.6-1.2-3.6-3.6 0-2.4 1.2-3.6 3.6-3.6z" fill="none" stroke="#fff"/></g><g fill="#fff" stroke="#fff" transform="matrix(.70710678 -.70710678 .70710678 .70710678 210 250)"><path d="m7.4-3.6c2.4 0 3.6 1.2 3.6 3.6 0 2.4-1.2 3.6-3.6 3.6h-14.8c-2.4 0-3.6-1.2-3.6-3.6 0-2.4 1.2-3.6 3.6-3.6z" stroke="none"/><path d="m7.4-3.6c2.4 0 3.6 1.2 3.6 3.6 0 2.4-1.2 3.6-3.6 3.6h-14.8c-2.4 0-3.6-1.2-3.6-3.6 0-2.4 1.2-3.6 3.6-3.6z" fill="none" stroke="#666"/></g><g fill="#fff" stroke="#fff" transform="matrix(.70710678 -.70710678 .70710678 .70710678 230 250)"><path d="m7.4-3.6c2.4 0 3.6 1.2 3.6 3.6 0 2.4-1.2 3.6-3.6 3.6h-14.8c-2.4 0-3.6-1.2-3.6-3.6 0-2.4 1.2-3.6 3.6-3.6z" stroke="none"/><path d="m7.4-3.6c2.4 0 3.6 1.2 3.6 3.6 0 2.4-1.2 3.6-3.6 3.6h-14.8c-2.4 0-3.6-1.2-3.6-3.6 0-2.4 1.2-3.6 3.6-3.6z" fill="none" stroke="#666"/></g><g fill="#fff" stroke="#fff" transform="matrix(.70710678 -.70710678 .70710678 .70710678 250 250)"><path d="m7.4-3.6c2.4 0 3.6 1.2 3.6 3.6 0 2.4-1.2 3.6-3.6 3.6h-14.8c-2.4 0-3.6-1.2-3.6-3.6 0-2.4 1.2-3.6 3.6-3.6z" stroke="none"/><path d="m7.4-3.6c2.4 0 3.6 1.2 3.6 3.6 0 2.4-1.2 3.6-3.6 3.6h-14.8c-2.4 0-3.6-1.2-3.6-3.6 0-2.4 1.2-3.6 3.6-3.6z" fill="none" stroke="#666"/></g><g fill="#3b3b3b" stroke="#3b3b3b" transform="matrix(.70710678 -.70710678 .70710678 .70710678 270 250)"><path d="m7.4-3.6c2.4 0 3.6 1.2 3.6 3.6 0 2.4-1.2 3.6-3.6 3.6h-14.8c-2.4 0-3.6-1.2-3.6-3.6 0-2.4 1.2-3.6 3.6-3.6z" stroke="none"/><path d="m7.4-3.6c2.4 0 3.6 1.2 3.6 3.6 0 2.4-1.2 3.6-3.6 3.6h-14.8c-2.4 0-3.6-1.2-3.6-3.6 0-2.4 1.2-3.6 3.6-3.6z" fill="none" stroke="#fff"/></g><g fill="#3b3b3b" stroke="#3b3b3b" transform="matrix(.70710678 -.70710678 .70710678 .70710678 290 250)"><path d="m7.4-3.6c2.4 0 3.6 1.2 3.6 3.6 0 2.4-1.2 3.6-3.6 3.6h-14.8c-2.4 0-3.6-1.2-3.6-3.6 0-2.4 1.2-3.6 3.6-3.6z" stroke="none"/><path d="m7.4-3.6c2.4 0 3.6 1.2 3.6 3.6 0 2.4-1.2 3.6-3.6 3.6h-14.8c-2.4 0-3.6-1.2-3.6-3.6 0-2.4 1.2-3.6 3.6-3.6z" fill="none" stroke="#fff"/></g><g fill="#3b3b3b" stroke="#3b3b3b" transform="matrix(.70710678 -.70710678 .70710678 .70710678 310 250)"><path d="m7.4-3.6c2.4 0 3.6 1.2 3.6 3.6 0 2.4-1.2 3.6-3.6 3.6h-14.8c-2.4 0-3.6-1.2-3.6-3.6 0-2.4 1.2-3.6 3.6-3.6z" stroke="none"/><path d="m7.4-3.6c2.4 0 3.6 1.2 3.6 3.6 0 2.4-1.2 3.6-3.6 3.6h-14.8c-2.4 0-3.6-1.2-3.6-3.6 0-2.4 1.2-3.6 3.6-3.6z" fill="none" stroke="#fff"/></g><g fill="#3b3b3b" stroke="#3b3b3b" transform="matrix(.70710678 -.70710678 .70710678 .70710678 150 270)"><path d="m7.4-3.6c2.4 0 3.6 1.2 3.6 3.6 0 2.4-1.2 3.6-3.6 3.6h-14.8c-2.4 0-3.6-1.2-3.6-3.6 0-2.4 1.2-3.6 3.6-3.6z" stroke="none"/><path d="m7.4-3.6c2.4 0 3.6 1.2 3.6 3.6 0 2.4-1.2 3.6-3.6 3.6h-14.8c-2.4 0-3.6-1.2-3.6-3.6 0-2.4 1.2-3.6 3.6-3.6z" fill="none" stroke="#fff"/></g><g fill="#3b3b3b" stroke="#3b3b3b" transform="matrix(.70710678 -.70710678 .70710678 .70710678 170 270)"><path d="m7.4-3.6c2.4 0 3.6 1.2 3.6 3.6 0 2.4-1.2 3.6-3.6 3.6h-14.8c-2.4 0-3.6-1.2-3.6-3.6 0-2.4 1.2-3.6 3.6-3.6z" stroke="none"/><path d="m7.4-3.6c2.4 0 3.6 1.2 3.6 3.6 0 2.4-1.2 3.6-3.6 3.6h-14.8c-2.4 0-3.6-1.2-3.6-3.6 0-2.4 1.2-3.6 3.6-3.6z" fill="none" stroke="#fff"/></g><g fill="#3b3b3b" stroke="#3b3b3b" transform="matrix(.70710678 -.70710678 .70710678 .70710678 190 270)"><path d="m7.4-3.6c2.4 0 3.6 1.2 3.6 3.6 0 2.4-1.2 3.6-3.6 3.6h-14.8c-2.4 0-3.6-1.2-3.6-3.6 0-2.4 1.2-3.6 3.6-3.6z" stroke="none"/><path d="m7.4-3.6c2.4 0 3.6 1.2 3.6 3.6 0 2.4-1.2 3.6-3.6 3.6h-14.8c-2.4 0-3.6-1.2-3.6-3.6 0-2.4 1.2-3.6 3.6-3.6z" fill="none" stroke="#fff"/></g><g fill="#3b3b3b" stroke="#3b3b3b" transform="matrix(.70710678 -.70710678 .70710678 .70710678 210 270)"><path d="m7.4-3.6c2.4 0 3.6 1.2 3.6 3.6 0 2.4-1.2 3.6-3.6 3.6h-14.8c-2.4 0-3.6-1.2-3.6-3.6 0-2.4 1.2-3.6 3.6-3.6z" stroke="none"/><path d="m7.4-3.6c2.4 0 3.6 1.2 3.6 3.6 0 2.4-1.2 3.6-3.6 3.6h-14.8c-2.4 0-3.6-1.2-3.6-3.6 0-2.4 1.2-3.6 3.6-3.6z" fill="none" stroke="#fff"/></g><g fill="#3b3b3b" stroke="#3b3b3b" transform="matrix(.70710678 -.70710678 .70710678 .70710678 230 270)"><path d="m7.4-3.6c2.4 0 3.6 1.2 3.6 3.6 0 2.4-1.2 3.6-3.6 3.6h-14.8c-2.4 0-3.6-1.2-3.6-3.6 0-2.4 1.2-3.6 3.6-3.6z" stroke="none"/><path d="m7.4-3.6c2.4 0 3.6 1.2 3.6 3.6 0 2.4-1.2 3.6-3.6 3.6h-14.8c-2.4 0-3.6-1.2-3.6-3.6 0-2.4 1.2-3.6 3.6-3.6z" fill="none" stroke="#fff"/></g><g fill="#3b3b3b" stroke="#3b3b3b" transform="matrix(.70710678 -.70710678 .70710678 .70710678 250 270)"><path d="m7.4-3.6c2.4 0 3.6 1.2 3.6 3.6 0 2.4-1.2 3.6-3.6 3.6h-14.8c-2.4 0-3.6-1.2-3.6-3.6 0-2.4 1.2-3.6 3.6-3.6z" stroke="none"/><path d="m7.4-3.6c2.4 0 3.6 1.2 3.6 3.6 0 2.4-1.2 3.6-3.6 3.6h-14.8c-2.4 0-3.6-1.2-3.6-3.6 0-2.4 1.2-3.6 3.6-3.6z" fill="none" stroke="#fff"/></g><g fill="#3b3b3b" stroke="#3b3b3b" transform="matrix(.70710678 -.70710678 .70710678 .70710678 270 270)"><path d="m7.4-3.6c2.4 0 3.6 1.2 3.6 3.6 0 2.4-1.2 3.6-3.6 3.6h-14.8c-2.4 0-3.6-1.2-3.6-3.6 0-2.4 1.2-3.6 3.6-3.6z" stroke="none"/><path d="m7.4-3.6c2.4 0 3.6 1.2 3.6 3.6 0 2.4-1.2 3.6-3.6 3.6h-14.8c-2.4 0-3.6-1.2-3.6-3.6 0-2.4 1.2-3.6 3.6-3.6z" fill="none" stroke="#fff"/></g><g fill="#3b3b3b" stroke="#3b3b3b" transform="matrix(.70710678 -.70710678 .70710678 .70710678 290 270)"><path d="m7.4-3.6c2.4 0 3.6 1.2 3.6 3.6 0 2.4-1.2 3.6-3.6 3.6h-14.8c-2.4 0-3.6-1.2-3.6-3.6 0-2.4 1.2-3.6 3.6-3.6z" stroke="none"/><path d="m7.4-3.6c2.4 0 3.6 1.2 3.6 3.6 0 2.4-1.2 3.6-3.6 3.6h-14.8c-2.4 0-3.6-1.2-3.6-3.6 0-2.4 1.2-3.6 3.6-3.6z" fill="none" stroke="#fff"/></g><g fill="#3b3b3b" stroke="#3b3b3b" transform="matrix(.70710678 -.70710678 .70710678 .70710678 310 270)"><path d="m7.4-3.6c2.4 0 3.6 1.2 3.6 3.6 0 2.4-1.2 3.6-3.6 3.6h-14.8c-2.4 0-3.6-1.2-3.6-3.6 0-2.4 1.2-3.6 3.6-3.6z" stroke="none"/><path d="m7.4-3.6c2.4 0 3.6 1.2 3.6 3.6 0 2.4-1.2 3.6-3.6 3.6h-14.8c-2.4 0-3.6-1.2-3.6-3.6 0-2.4 1.2-3.6 3.6-3.6z" fill="none" stroke="#fff"/></g><g fill="#fff" stroke="#fff" transform="matrix(.70710678 -.70710678 .70710678 .70710678 150 290)"><path d="m7.4-3.6c2.4 0 3.6 1.2 3.6 3.6 0 2.4-1.2 3.6-3.6 3.6h-14.8c-2.4 0-3.6-1.2-3.6-3.6 0-2.4 1.2-3.6 3.6-3.6z" stroke="none"/><path d="m7.4-3.6c2.4 0 3.6 1.2 3.6 3.6 0 2.4-1.2 3.6-3.6 3.6h-14.8c-2.4 0-3.6-1.2-3.6-3.6 0-2.4 1.2-3.6 3.6-3.6z" fill="none" stroke="#666"/></g><g fill="#fff" stroke="#fff" transform="matrix(.70710678 -.70710678 .70710678 .70710678 170 290)"><path d="m7.4-3.6c2.4 0 3.6 1.2 3.6 3.6 0 2.4-1.2 3.6-3.6 3.6h-14.8c-2.4 0-3.6-1.2-3.6-3.6 0-2.4 1.2-3.6 3.6-3.6z" stroke="none"/><path d="m7.4-3.6c2.4 0 3.6 1.2 3.6 3.6 0 2.4-1.2 3.6-3.6 3.6h-14.8c-2.4 0-3.6-1.2-3.6-3.6 0-2.4 1.2-3.6 3.6-3.6z" fill="none" stroke="#666"/></g><g fill="#fff" stroke="#fff" transform="matrix(.70710678 -.70710678 .70710678 .70710678 190 290)"><path d="m7.4-3.6c2.4 0 3.6 1.2 3.6 3.6 0 2.4-1.2 3.6-3.6 3.6h-14.8c-2.4 0-3.6-1.2-3.6-3.6 0-2.4 1.2-3.6 3.6-3.6z" stroke="none"/><path d="m7.4-3.6c2.4 0 3.6 1.2 3.6 3.6 0 2.4-1.2 3.6-3.6 3.6h-14.8c-2.4 0-3.6-1.2-3.6-3.6 0-2.4 1.2-3.6 3.6-3.6z" fill="none" stroke="#666"/></g><g fill="#fff" stroke="#fff" transform="matrix(.70710678 -.70710678 .70710678 .70710678 210 290)"><path d="m7.4-3.6c2.4 0 3.6 1.2 3.6 3.6 0 2.4-1.2 3.6-3.6 3.6h-14.8c-2.4 0-3.6-1.2-3.6-3.6 0-2.4 1.2-3.6 3.6-3.6z" stroke="none"/><path d="m7.4-3.6c2.4 0 3.6 1.2 3.6 3.6 0 2.4-1.2 3.6-3.6 3.6h-14.8c-2.4 0-3.6-1.2-3.6-3.6 0-2.4 1.2-3.6 3.6-3.6z" fill="none" stroke="#666"/></g><g fill="#fff" stroke="#fff" transform="matrix(.70710678 -.70710678 .70710678 .70710678 230 290)"><path d="m7.4-3.6c2.4 0 3.6 1.2 3.6 3.6 0 2.4-1.2 3.6-3.6 3.6h-14.8c-2.4 0-3.6-1.2-3.6-3.6 0-2.4 1.2-3.6 3.6-3.6z" stroke="none"/><path d="m7.4-3.6c2.4 0 3.6 1.2 3.6 3.6 0 2.4-1.2 3.6-3.6 3.6h-14.8c-2.4 0-3.6-1.2-3.6-3.6 0-2.4 1.2-3.6 3.6-3.6z" fill="none" stroke="#666"/></g><g fill="#fff" stroke="#fff" transform="matrix(.70710678 -.70710678 .70710678 .70710678 250 290)"><path d="m7.4-3.6c2.4 0 3.6 1.2 3.6 3.6 0 2.4-1.2 3.6-3.6 3.6h-14.8c-2.4 0-3.6-1.2-3.6-3.6 0-2.4 1.2-3.6 3.6-3.6z" stroke="none"/><path d="m7.4-3.6c2.4 0 3.6 1.2 3.6 3.6 0 2.4-1.2 3.6-3.6 3.6h-14.8c-2.4 0-3.6-1.2-3.6-3.6 0-2.4 1.2-3.6 3.6-3.6z" fill="none" stroke="#666"/></g><g fill="#fff" stroke="#fff" transform="matrix(.70710678 -.70710678 .70710678 .70710678 270 290)"><path d="m7.4-3.6c2.4 0 3.6 1.2 3.6 3.6 0 2.4-1.2 3.6-3.6 3.6h-14.8c-2.4 0-3.6-1.2-3.6-3.6 0-2.4 1.2-3.6 3.6-3.6z" stroke="none"/><path d="m7.4-3.6c2.4 0 3.6 1.2 3.6 3.6 0 2.4-1.2 3.6-3.6 3.6h-14.8c-2.4 0-3.6-1.2-3.6-3.6 0-2.4 1.2-3.6 3.6-3.6z" fill="none" stroke="#666"/></g><g fill="#fff" stroke="#fff" transform="matrix(.70710678 -.70710678 .70710678 .70710678 290 290)"><path d="m7.4-3.6c2.4 0 3.6 1.2 3.6 3.6 0 2.4-1.2 3.6-3.6 3.6h-14.8c-2.4 0-3.6-1.2-3.6-3.6 0-2.4 1.2-3.6 3.6-3.6z" stroke="none"/><path d="m7.4-3.6c2.4 0 3.6 1.2 3.6 3.6 0 2.4-1.2 3.6-3.6 3.6h-14.8c-2.4 0-3.6-1.2-3.6-3.6 0-2.4 1.2-3.6 3.6-3.6z" fill="none" stroke="#666"/></g><g fill="#fff" stroke="#fff" transform="matrix(.70710678 -.70710678 .70710678 .70710678 310 290)"><path d="m7.4-3.6c2.4 0 3.6 1.2 3.6 3.6 0 2.4-1.2 3.6-3.6 3.6h-14.8c-2.4 0-3.6-1.2-3.6-3.6 0-2.4 1.2-3.6 3.6-3.6z" stroke="none"/><path d="m7.4-3.6c2.4 0 3.6 1.2 3.6 3.6 0 2.4-1.2 3.6-3.6 3.6h-14.8c-2.4 0-3.6-1.2-3.6-3.6 0-2.4 1.2-3.6 3.6-3.6z" fill="none" stroke="#666"/></g><g transform="matrix(.70710678 -.70710678 .70710678 .70710678 150 310)"><path d="m7.4-3.6c2.4 0 3.6 1.2 3.6 3.6 0 2.4-1.2 3.6-3.6 3.6h-14.8c-2.4 0-3.6-1.2-3.6-3.6 0-2.4 1.2-3.6 3.6-3.6z" stroke="none"/><path d="m7.4-3.6c2.4 0 3.6 1.2 3.6 3.6 0 2.4-1.2 3.6-3.6 3.6h-14.8c-2.4 0-3.6-1.2-3.6-3.6 0-2.4 1.2-3.6 3.6-3.6z" fill="none" stroke="#fff"/></g><g transform="matrix(.70710678 -.70710678 .70710678 .70710678 170 310)"><path d="m7.4-3.6c2.4 0 3.6 1.2 3.6 3.6 0 2.4-1.2 3.6-3.6 3.6h-14.8c-2.4 0-3.6-1.2-3.6-3.6 0-2.4 1.2-3.6 3.6-3.6z" stroke="none"/><path d="m7.4-3.6c2.4 0 3.6 1.2 3.6 3.6 0 2.4-1.2 3.6-3.6 3.6h-14.8c-2.4 0-3.6-1.2-3.6-3.6 0-2.4 1.2-3.6 3.6-3.6z" fill="none" stroke="#fff"/></g><g transform="matrix(.70710678 -.70710678 .70710678 .70710678 190 310)"><path d="m7.4-3.6c2.4 0 3.6 1.2 3.6 3.6 0 2.4-1.2 3.6-3.6 3.6h-14.8c-2.4 0-3.6-1.2-3.6-3.6 0-2.4 1.2-3.6 3.6-3.6z" stroke="none"/><path d="m7.4-3.6c2.4 0 3.6 1.2 3.6 3.6 0 2.4-1.2 3.6-3.6 3.6h-14.8c-2.4 0-3.6-1.2-3.6-3.6 0-2.4 1.2-3.6 3.6-3.6z" fill="none" stroke="#fff"/></g><g transform="matrix(.70710678 -.70710678 .70710678 .70710678 210 310)"><path d="m7.4-3.6c2.4 0 3.6 1.2 3.6 3.6 0 2.4-1.2 3.6-3.6 3.6h-14.8c-2.4 0-3.6-1.2-3.6-3.6 0-2.4 1.2-3.6 3.6-3.6z" stroke="none"/><path d="m7.4-3.6c2.4 0 3.6 1.2 3.6 3.6 0 2.4-1.2 3.6-3.6 3.6h-14.8c-2.4 0-3.6-1.2-3.6-3.6 0-2.4 1.2-3.6 3.6-3.6z" fill="none" stroke="#fff"/></g><g transform="matrix(.70710678 -.70710678 .70710678 .70710678 230 310)"><path d="m7.4-3.6c2.4 0 3.6 1.2 3.6 3.6 0 2.4-1.2 3.6-3.6 3.6h-14.8c-2.4 0-3.6-1.2-3.6-3.6 0-2.4 1.2-3.6 3.6-3.6z" stroke="none"/><path d="m7.4-3.6c2.4 0 3.6 1.2 3.6 3.6 0 2.4-1.2 3.6-3.6 3.6h-14.8c-2.4 0-3.6-1.2-3.6-3.6 0-2.4 1.2-3.6 3.6-3.6z" fill="none" stroke="#fff"/></g><g transform="matrix(.70710678 -.70710678 .70710678 .70710678 250 310)"><path d="m7.4-3.6c2.4 0 3.6 1.2 3.6 3.6 0 2.4-1.2 3.6-3.6 3.6h-14.8c-2.4 0-3.6-1.2-3.6-3.6 0-2.4 1.2-3.6 3.6-3.6z" stroke="none"/><path d="m7.4-3.6c2.4 0 3.6 1.2 3.6 3.6 0 2.4-1.2 3.6-3.6 3.6h-14.8c-2.4 0-3.6-1.2-3.6-3.6 0-2.4 1.2-3.6 3.6-3.6z" fill="none" stroke="#fff"/></g><g transform="matrix(.70710678 -.70710678 .70710678 .70710678 270 310)"><path d="m7.4-3.6c2.4 0 3.6 1.2 3.6 3.6 0 2.4-1.2 3.6-3.6 3.6h-14.8c-2.4 0-3.6-1.2-3.6-3.6 0-2.4 1.2-3.6 3.6-3.6z" stroke="none"/><path d="m7.4-3.6c2.4 0 3.6 1.2 3.6 3.6 0 2.4-1.2 3.6-3.6 3.6h-14.8c-2.4 0-3.6-1.2-3.6-3.6 0-2.4 1.2-3.6 3.6-3.6z" fill="none" stroke="#fff"/></g><g transform="matrix(.70710678 -.70710678 .70710678 .70710678 290 310)"><path d="m7.4-3.6c2.4 0 3.6 1.2 3.6 3.6 0 2.4-1.2 3.6-3.6 3.6h-14.8c-2.4 0-3.6-1.2-3.6-3.6 0-2.4 1.2-3.6 3.6-3.6z" stroke="none"/><path d="m7.4-3.6c2.4 0 3.6 1.2 3.6 3.6 0 2.4-1.2 3.6-3.6 3.6h-14.8c-2.4 0-3.6-1.2-3.6-3.6 0-2.4 1.2-3.6 3.6-3.6z" fill="none" stroke="#fff"/></g><g transform="matrix(.70710678 -.70710678 .70710678 .70710678 310 310)"><path d="m7.4-3.6c2.4 0 3.6 1.2 3.6 3.6 0 2.4-1.2 3.6-3.6 3.6h-14.8c-2.4 0-3.6-1.2-3.6-3.6 0-2.4 1.2-3.6 3.6-3.6z" stroke="none"/><path d="m7.4-3.6c2.4 0 3.6 1.2 3.6 3.6 0 2.4-1.2 3.6-3.6 3.6h-14.8c-2.4 0-3.6-1.2-3.6-3.6 0-2.4 1.2-3.6 3.6-3.6z" fill="none" stroke="#fff"/></g><g fill="#fff" stroke="#fff" transform="matrix(.70710678 -.70710678 .70710678 .70710678 150 330)"><path d="m7.4-3.6c2.4 0 3.6 1.2 3.6 3.6 0 2.4-1.2 3.6-3.6 3.6h-14.8c-2.4 0-3.6-1.2-3.6-3.6 0-2.4 1.2-3.6 3.6-3.6z" stroke="none"/><path d="m7.4-3.6c2.4 0 3.6 1.2 3.6 3.6 0 2.4-1.2 3.6-3.6 3.6h-14.8c-2.4 0-3.6-1.2-3.6-3.6 0-2.4 1.2-3.6 3.6-3.6z" fill="none" stroke="#666"/></g><g fill="#fff" stroke="#fff" transform="matrix(.70710678 -.70710678 .70710678 .70710678 170 330)"><path d="m7.4-3.6c2.4 0 3.6 1.2 3.6 3.6 0 2.4-1.2 3.6-3.6 3.6h-14.8c-2.4 0-3.6-1.2-3.6-3.6 0-2.4 1.2-3.6 3.6-3.6z" stroke="none"/><path d="m7.4-3.6c2.4 0 3.6 1.2 3.6 3.6 0 2.4-1.2 3.6-3.6 3.6h-14.8c-2.4 0-3.6-1.2-3.6-3.6 0-2.4 1.2-3.6 3.6-3.6z" fill="none" stroke="#666"/></g><g fill="#fff" stroke="#fff" transform="matrix(.70710678 -.70710678 .70710678 .70710678 190 330)"><path d="m7.4-3.6c2.4 0 3.6 1.2 3.6 3.6 0 2.4-1.2 3.6-3.6 3.6h-14.8c-2.4 0-3.6-1.2-3.6-3.6 0-2.4 1.2-3.6 3.6-3.6z" stroke="none"/><path d="m7.4-3.6c2.4 0 3.6 1.2 3.6 3.6 0 2.4-1.2 3.6-3.6 3.6h-14.8c-2.4 0-3.6-1.2-3.6-3.6 0-2.4 1.2-3.6 3.6-3.6z" fill="none" stroke="#666"/></g><g fill="#fff" stroke="#fff" transform="matrix(.70710678 -.70710678 .70710678 .70710678 210 330)"><path d="m7.4-3.6c2.4 0 3.6 1.2 3.6 3.6 0 2.4-1.2 3.6-3.6 3.6h-14.8c-2.4 0-3.6-1.2-3.6-3.6 0-2.4 1.2-3.6 3.6-3.6z" stroke="none"/><path d="m7.4-3.6c2.4 0 3.6 1.2 3.6 3.6 0 2.4-1.2 3.6-3.6 3.6h-14.8c-2.4 0-3.6-1.2-3.6-3.6 0-2.4 1.2-3.6 3.6-3.6z" fill="none" stroke="#666"/></g><g fill="#fff" stroke="#fff" transform="matrix(.70710678 -.70710678 .70710678 .70710678 230 330)"><path d="m7.4-3.6c2.4 0 3.6 1.2 3.6 3.6 0 2.4-1.2 3.6-3.6 3.6h-14.8c-2.4 0-3.6-1.2-3.6-3.6 0-2.4 1.2-3.6 3.6-3.6z" stroke="none"/><path d="m7.4-3.6c2.4 0 3.6 1.2 3.6 3.6 0 2.4-1.2 3.6-3.6 3.6h-14.8c-2.4 0-3.6-1.2-3.6-3.6 0-2.4 1.2-3.6 3.6-3.6z" fill="none" stroke="#666"/></g><g fill="#fff" stroke="#fff" transform="matrix(.70710678 -.70710678 .70710678 .70710678 250 330)"><path d="m7.4-3.6c2.4 0 3.6 1.2 3.6 3.6 0 2.4-1.2 3.6-3.6 3.6h-14.8c-2.4 0-3.6-1.2-3.6-3.6 0-2.4 1.2-3.6 3.6-3.6z" stroke="none"/><path d="m7.4-3.6c2.4 0 3.6 1.2 3.6 3.6 0 2.4-1.2 3.6-3.6 3.6h-14.8c-2.4 0-3.6-1.2-3.6-3.6 0-2.4 1.2-3.6 3.6-3.6z" fill="none" stroke="#666"/></g><g fill="#fff" stroke="#fff" transform="matrix(.70710678 -.70710678 .70710678 .70710678 270 330)"><path d="m7.4-3.6c2.4 0 3.6 1.2 3.6 3.6 0 2.4-1.2 3.6-3.6 3.6h-14.8c-2.4 0-3.6-1.2-3.6-3.6 0-2.4 1.2-3.6 3.6-3.6z" stroke="none"/><path d="m7.4-3.6c2.4 0 3.6 1.2 3.6 3.6 0 2.4-1.2 3.6-3.6 3.6h-14.8c-2.4 0-3.6-1.2-3.6-3.6 0-2.4 1.2-3.6 3.6-3.6z" fill="none" stroke="#666"/></g><g fill="#fff" stroke="#fff" transform="matrix(.70710678 -.70710678 .70710678 .70710678 290 330)"><path d="m7.4-3.6c2.4 0 3.6 1.2 3.6 3.6 0 2.4-1.2 3.6-3.6 3.6h-14.8c-2.4 0-3.6-1.2-3.6-3.6 0-2.4 1.2-3.6 3.6-3.6z" stroke="none"/><path d="m7.4-3.6c2.4 0 3.6 1.2 3.6 3.6 0 2.4-1.2 3.6-3.6 3.6h-14.8c-2.4 0-3.6-1.2-3.6-3.6 0-2.4 1.2-3.6 3.6-3.6z" fill="none" stroke="#666"/></g><g fill="#fff" stroke="#fff" transform="matrix(.70710678 -.70710678 .70710678 .70710678 310 330)"><path d="m7.4-3.6c2.4 0 3.6 1.2 3.6 3.6 0 2.4-1.2 3.6-3.6 3.6h-14.8c-2.4 0-3.6-1.2-3.6-3.6 0-2.4 1.2-3.6 3.6-3.6z" stroke="none"/><path d="m7.4-3.6c2.4 0 3.6 1.2 3.6 3.6 0 2.4-1.2 3.6-3.6 3.6h-14.8c-2.4 0-3.6-1.2-3.6-3.6 0-2.4 1.2-3.6 3.6-3.6z" fill="none" stroke="#666"/></g><g transform="matrix(.70710678 -.70710678 .70710678 .70710678 150 350)"><path d="m7.4-3.6c2.4 0 3.6 1.2 3.6 3.6 0 2.4-1.2 3.6-3.6 3.6h-14.8c-2.4 0-3.6-1.2-3.6-3.6 0-2.4 1.2-3.6 3.6-3.6z" stroke="none"/><path d="m7.4-3.6c2.4 0 3.6 1.2 3.6 3.6 0 2.4-1.2 3.6-3.6 3.6h-14.8c-2.4 0-3.6-1.2-3.6-3.6 0-2.4 1.2-3.6 3.6-3.6z" fill="none" stroke="#fff"/></g><g transform="matrix(.70710678 -.70710678 .70710678 .70710678 170 350)"><path d="m7.4-3.6c2.4 0 3.6 1.2 3.6 3.6 0 2.4-1.2 3.6-3.6 3.6h-14.8c-2.4 0-3.6-1.2-3.6-3.6 0-2.4 1.2-3.6 3.6-3.6z" stroke="none"/><path d="m7.4-3.6c2.4 0 3.6 1.2 3.6 3.6 0 2.4-1.2 3.6-3.6 3.6h-14.8c-2.4 0-3.6-1.2-3.6-3.6 0-2.4 1.2-3.6 3.6-3.6z" fill="none" stroke="#fff"/></g><g transform="matrix(.70710678 -.70710678 .70710678 .70710678 190 350)"><path d="m7.4-3.6c2.4 0 3.6 1.2 3.6 3.6 0 2.4-1.2 3.6-3.6 3.6h-14.8c-2.4 0-3.6-1.2-3.6-3.6 0-2.4 1.2-3.6 3.6-3.6z" stroke="none"/><path d="m7.4-3.6c2.4 0 3.6 1.2 3.6 3.6 0 2.4-1.2 3.6-3.6 3.6h-14.8c-2.4 0-3.6-1.2-3.6-3.6 0-2.4 1.2-3.6 3.6-3.6z" fill="none" stroke="#fff"/></g><g transform="matrix(.70710678 -.70710678 .70710678 .70710678 210 350)"><path d="m7.4-3.6c2.4 0 3.6 1.2 3.6 3.6 0 2.4-1.2 3.6-3.6 3.6h-14.8c-2.4 0-3.6-1.2-3.6-3.6 0-2.4 1.2-3.6 3.6-3.6z" stroke="none"/><path d="m7.4-3.6c2.4 0 3.6 1.2 3.6 3.6 0 2.4-1.2 3.6-3.6 3.6h-14.8c-2.4 0-3.6-1.2-3.6-3.6 0-2.4 1.2-3.6 3.6-3.6z" fill="none" stroke="#fff"/></g><g transform="matrix(.70710678 -.70710678 .70710678 .70710678 230 350)"><path d="m7.4-3.6c2.4 0 3.6 1.2 3.6 3.6 0 2.4-1.2 3.6-3.6 3.6h-14.8c-2.4 0-3.6-1.2-3.6-3.6 0-2.4 1.2-3.6 3.6-3.6z" stroke="none"/><path d="m7.4-3.6c2.4 0 3.6 1.2 3.6 3.6 0 2.4-1.2 3.6-3.6 3.6h-14.8c-2.4 0-3.6-1.2-3.6-3.6 0-2.4 1.2-3.6 3.6-3.6z" fill="none" stroke="#fff"/></g><g transform="matrix(.70710678 -.70710678 .70710678 .70710678 250 350)"><path d="m7.4-3.6c2.4 0 3.6 1.2 3.6 3.6 0 2.4-1.2 3.6-3.6 3.6h-14.8c-2.4 0-3.6-1.2-3.6-3.6 0-2.4 1.2-3.6 3.6-3.6z" stroke="none"/><path d="m7.4-3.6c2.4 0 3.6 1.2 3.6 3.6 0 2.4-1.2 3.6-3.6 3.6h-14.8c-2.4 0-3.6-1.2-3.6-3.6 0-2.4 1.2-3.6 3.6-3.6z" fill="none" stroke="#fff"/></g><g transform="matrix(.70710678 -.70710678 .70710678 .70710678 270 350)"><path d="m7.4-3.6c2.4 0 3.6 1.2 3.6 3.6 0 2.4-1.2 3.6-3.6 3.6h-14.8c-2.4 0-3.6-1.2-3.6-3.6 0-2.4 1.2-3.6 3.6-3.6z" stroke="none"/><path d="m7.4-3.6c2.4 0 3.6 1.2 3.6 3.6 0 2.4-1.2 3.6-3.6 3.6h-14.8c-2.4 0-3.6-1.2-3.6-3.6 0-2.4 1.2-3.6 3.6-3.6z" fill="none" stroke="#fff"/></g><g transform="matrix(.70710678 -.70710678 .70710678 .70710678 290 350)"><path d="m7.4-3.6c2.4 0 3.6 1.2 3.6 3.6 0 2.4-1.2 3.6-3.6 3.6h-14.8c-2.4 0-3.6-1.2-3.6-3.6 0-2.4 1.2-3.6 3.6-3.6z" stroke="none"/><path d="m7.4-3.6c2.4 0 3.6 1.2 3.6 3.6 0 2.4-1.2 3.6-3.6 3.6h-14.8c-2.4 0-3.6-1.2-3.6-3.6 0-2.4 1.2-3.6 3.6-3.6z" fill="none" stroke="#fff"/></g><g transform="matrix(.70710678 -.70710678 .70710678 .70710678 310 350)"><path d="m7.4-3.6c2.4 0 3.6 1.2 3.6 3.6 0 2.4-1.2 3.6-3.6 3.6h-14.8c-2.4 0-3.6-1.2-3.6-3.6 0-2.4 1.2-3.6 3.6-3.6z" stroke="none"/><path d="m7.4-3.6c2.4 0 3.6 1.2 3.6 3.6 0 2.4-1.2 3.6-3.6 3.6h-14.8c-2.4 0-3.6-1.2-3.6-3.6 0-2.4 1.2-3.6 3.6-3.6z" fill="none" stroke="#fff"/></g><g fill="#fff" stroke="#fff" transform="matrix(.70710678 -.70710678 .70710678 .70710678 150 370)"><path d="m7.4-3.6c2.4 0 3.6 1.2 3.6 3.6 0 2.4-1.2 3.6-3.6 3.6h-14.8c-2.4 0-3.6-1.2-3.6-3.6 0-2.4 1.2-3.6 3.6-3.6z" stroke="none"/><path d="m7.4-3.6c2.4 0 3.6 1.2 3.6 3.6 0 2.4-1.2 3.6-3.6 3.6h-14.8c-2.4 0-3.6-1.2-3.6-3.6 0-2.4 1.2-3.6 3.6-3.6z" fill="none" stroke="#666"/></g><g fill="#fff" stroke="#fff" transform="matrix(.70710678 -.70710678 .70710678 .70710678 170 370)"><path d="m7.4-3.6c2.4 0 3.6 1.2 3.6 3.6 0 2.4-1.2 3.6-3.6 3.6h-14.8c-2.4 0-3.6-1.2-3.6-3.6 0-2.4 1.2-3.6 3.6-3.6z" stroke="none"/><path d="m7.4-3.6c2.4 0 3.6 1.2 3.6 3.6 0 2.4-1.2 3.6-3.6 3.6h-14.8c-2.4 0-3.6-1.2-3.6-3.6 0-2.4 1.2-3.6 3.6-3.6z" fill="none" stroke="#666"/></g><g fill="#fff" stroke="#fff" transform="matrix(.70710678 -.70710678 .70710678 .70710678 190 370)"><path d="m7.4-3.6c2.4 0 3.6 1.2 3.6 3.6 0 2.4-1.2 3.6-3.6 3.6h-14.8c-2.4 0-3.6-1.2-3.6-3.6 0-2.4 1.2-3.6 3.6-3.6z" stroke="none"/><path d="m7.4-3.6c2.4 0 3.6 1.2 3.6 3.6 0 2.4-1.2 3.6-3.6 3.6h-14.8c-2.4 0-3.6-1.2-3.6-3.6 0-2.4 1.2-3.6 3.6-3.6z" fill="none" stroke="#666"/></g><g fill="#fff" stroke="#fff" transform="matrix(.70710678 -.70710678 .70710678 .70710678 210 370)"><path d="m7.4-3.6c2.4 0 3.6 1.2 3.6 3.6 0 2.4-1.2 3.6-3.6 3.6h-14.8c-2.4 0-3.6-1.2-3.6-3.6 0-2.4 1.2-3.6 3.6-3.6z" stroke="none"/><path d="m7.4-3.6c2.4 0 3.6 1.2 3.6 3.6 0 2.4-1.2 3.6-3.6 3.6h-14.8c-2.4 0-3.6-1.2-3.6-3.6 0-2.4 1.2-3.6 3.6-3.6z" fill="none" stroke="#666"/></g><g fill="#fff" stroke="#fff" transform="matrix(.70710678 -.70710678 .70710678 .70710678 230 370)"><path d="m7.4-3.6c2.4 0 3.6 1.2 3.6 3.6 0 2.4-1.2 3.6-3.6 3.6h-14.8c-2.4 0-3.6-1.2-3.6-3.6 0-2.4 1.2-3.6 3.6-3.6z" stroke="none"/><path d="m7.4-3.6c2.4 0 3.6 1.2 3.6 3.6 0 2.4-1.2 3.6-3.6 3.6h-14.8c-2.4 0-3.6-1.2-3.6-3.6 0-2.4 1.2-3.6 3.6-3.6z" fill="none" stroke="#666"/></g><g fill="#fff" stroke="#fff" transform="matrix(.70710678 -.70710678 .70710678 .70710678 250 370)"><path d="m7.4-3.6c2.4 0 3.6 1.2 3.6 3.6 0 2.4-1.2 3.6-3.6 3.6h-14.8c-2.4 0-3.6-1.2-3.6-3.6 0-2.4 1.2-3.6 3.6-3.6z" stroke="none"/><path d="m7.4-3.6c2.4 0 3.6 1.2 3.6 3.6 0 2.4-1.2 3.6-3.6 3.6h-14.8c-2.4 0-3.6-1.2-3.6-3.6 0-2.4 1.2-3.6 3.6-3.6z" fill="none" stroke="#666"/></g><g fill="#fff" stroke="#fff" transform="matrix(.70710678 -.70710678 .70710678 .70710678 270 370)"><path d="m7.4-3.6c2.4 0 3.6 1.2 3.6 3.6 0 2.4-1.2 3.6-3.6 3.6h-14.8c-2.4 0-3.6-1.2-3.6-3.6 0-2.4 1.2-3.6 3.6-3.6z" stroke="none"/><path d="m7.4-3.6c2.4 0 3.6 1.2 3.6 3.6 0 2.4-1.2 3.6-3.6 3.6h-14.8c-2.4 0-3.6-1.2-3.6-3.6 0-2.4 1.2-3.6 3.6-3.6z" fill="none" stroke="#666"/></g><g fill="#fff" stroke="#fff" transform="matrix(.70710678 -.70710678 .70710678 .70710678 290 370)"><path d="m7.4-3.6c2.4 0 3.6 1.2 3.6 3.6 0 2.4-1.2 3.6-3.6 3.6h-14.8c-2.4 0-3.6-1.2-3.6-3.6 0-2.4 1.2-3.6 3.6-3.6z" stroke="none"/><path d="m7.4-3.6c2.4 0 3.6 1.2 3.6 3.6 0 2.4-1.2 3.6-3.6 3.6h-14.8c-2.4 0-3.6-1.2-3.6-3.6 0-2.4 1.2-3.6 3.6-3.6z" fill="none" stroke="#666"/></g><g fill="#fff" stroke="#fff" transform="matrix(.70710678 -.70710678 .70710678 .70710678 310 370)"><path d="m7.4-3.6c2.4 0 3.6 1.2 3.6 3.6 0 2.4-1.2 3.6-3.6 3.6h-14.8c-2.4 0-3.6-1.2-3.6-3.6 0-2.4 1.2-3.6 3.6-3.6z" stroke="none"/><path d="m7.4-3.6c2.4 0 3.6 1.2 3.6 3.6 0 2.4-1.2 3.6-3.6 3.6h-14.8c-2.4 0-3.6-1.2-3.6-3.6 0-2.4 1.2-3.6 3.6-3.6z" fill="none" stroke="#666"/></g><g transform="matrix(.70710678 -.70710678 .70710678 .70710678 150 390)"><path d="m7.4-3.6c2.4 0 3.6 1.2 3.6 3.6 0 2.4-1.2 3.6-3.6 3.6h-14.8c-2.4 0-3.6-1.2-3.6-3.6 0-2.4 1.2-3.6 3.6-3.6z" stroke="none"/><path d="m7.4-3.6c2.4 0 3.6 1.2 3.6 3.6 0 2.4-1.2 3.6-3.6 3.6h-14.8c-2.4 0-3.6-1.2-3.6-3.6 0-2.4 1.2-3.6 3.6-3.6z" fill="none" stroke="#fff"/></g><g transform="matrix(.70710678 -.70710678 .70710678 .70710678 170 390)"><path d="m7.4-3.6c2.4 0 3.6 1.2 3.6 3.6 0 2.4-1.2 3.6-3.6 3.6h-14.8c-2.4 0-3.6-1.2-3.6-3.6 0-2.4 1.2-3.6 3.6-3.6z" stroke="none"/><path d="m7.4-3.6c2.4 0 3.6 1.2 3.6 3.6 0 2.4-1.2 3.6-3.6 3.6h-14.8c-2.4 0-3.6-1.2-3.6-3.6 0-2.4 1.2-3.6 3.6-3.6z" fill="none" stroke="#fff"/></g><g transform="matrix(.70710678 -.70710678 .70710678 .70710678 190 390)"><path d="m7.4-3.6c2.4 0 3.6 1.2 3.6 3.6 0 2.4-1.2 3.6-3.6 3.6h-14.8c-2.4 0-3.6-1.2-3.6-3.6 0-2.4 1.2-3.6 3.6-3.6z" stroke="none"/><path d="m7.4-3.6c2.4 0 3.6 1.2 3.6 3.6 0 2.4-1.2 3.6-3.6 3.6h-14.8c-2.4 0-3.6-1.2-3.6-3.6 0-2.4 1.2-3.6 3.6-3.6z" fill="none" stroke="#fff"/></g><g transform="matrix(.70710678 -.70710678 .70710678 .70710678 210 390)"><path d="m7.4-3.6c2.4 0 3.6 1.2 3.6 3.6 0 2.4-1.2 3.6-3.6 3.6h-14.8c-2.4 0-3.6-1.2-3.6-3.6 0-2.4 1.2-3.6 3.6-3.6z" stroke="none"/><path d="m7.4-3.6c2.4 0 3.6 1.2 3.6 3.6 0 2.4-1.2 3.6-3.6 3.6h-14.8c-2.4 0-3.6-1.2-3.6-3.6 0-2.4 1.2-3.6 3.6-3.6z" fill="none" stroke="#fff"/></g><g transform="matrix(.70710678 -.70710678 .70710678 .70710678 230 390)"><path d="m7.4-3.6c2.4 0 3.6 1.2 3.6 3.6 0 2.4-1.2 3.6-3.6 3.6h-14.8c-2.4 0-3.6-1.2-3.6-3.6 0-2.4 1.2-3.6 3.6-3.6z" stroke="none"/><path d="m7.4-3.6c2.4 0 3.6 1.2 3.6 3.6 0 2.4-1.2 3.6-3.6 3.6h-14.8c-2.4 0-3.6-1.2-3.6-3.6 0-2.4 1.2-3.6 3.6-3.6z" fill="none" stroke="#fff"/></g><g transform="matrix(.70710678 -.70710678 .70710678 .70710678 250 390)"><path d="m7.4-3.6c2.4 0 3.6 1.2 3.6 3.6 0 2.4-1.2 3.6-3.6 3.6h-14.8c-2.4 0-3.6-1.2-3.6-3.6 0-2.4 1.2-3.6 3.6-3.6z" stroke="none"/><path d="m7.4-3.6c2.4 0 3.6 1.2 3.6 3.6 0 2.4-1.2 3.6-3.6 3.6h-14.8c-2.4 0-3.6-1.2-3.6-3.6 0-2.4 1.2-3.6 3.6-3.6z" fill="none" stroke="#fff"/></g><g transform="matrix(.70710678 -.70710678 .70710678 .70710678 270 390)"><path d="m7.4-3.6c2.4 0 3.6 1.2 3.6 3.6 0 2.4-1.2 3.6-3.6 3.6h-14.8c-2.4 0-3.6-1.2-3.6-3.6 0-2.4 1.2-3.6 3.6-3.6z" stroke="none"/><path d="m7.4-3.6c2.4 0 3.6 1.2 3.6 3.6 0 2.4-1.2 3.6-3.6 3.6h-14.8c-2.4 0-3.6-1.2-3.6-3.6 0-2.4 1.2-3.6 3.6-3.6z" fill="none" stroke="#fff"/></g><g transform="matrix(.70710678 -.70710678 .70710678 .70710678 290 390)"><path d="m7.4-3.6c2.4 0 3.6 1.2 3.6 3.6 0 2.4-1.2 3.6-3.6 3.6h-14.8c-2.4 0-3.6-1.2-3.6-3.6 0-2.4 1.2-3.6 3.6-3.6z" stroke="none"/><path d="m7.4-3.6c2.4 0 3.6 1.2 3.6 3.6 0 2.4-1.2 3.6-3.6 3.6h-14.8c-2.4 0-3.6-1.2-3.6-3.6 0-2.4 1.2-3.6 3.6-3.6z" fill="none" stroke="#fff"/></g><g transform="matrix(.70710678 -.70710678 .70710678 .70710678 310 390)"><path d="m7.4-3.6c2.4 0 3.6 1.2 3.6 3.6 0 2.4-1.2 3.6-3.6 3.6h-14.8c-2.4 0-3.6-1.2-3.6-3.6 0-2.4 1.2-3.6 3.6-3.6z" stroke="none"/><path d="m7.4-3.6c2.4 0 3.6 1.2 3.6 3.6 0 2.4-1.2 3.6-3.6 3.6h-14.8c-2.4 0-3.6-1.2-3.6-3.6 0-2.4 1.2-3.6 3.6-3.6z" fill="none" stroke="#fff"/></g></g></svg>