<svg color-interpolation="auto" height="480" stroke="#000" stroke-linecap="square" stroke-miterlimit="10" width="480" xmlns="http://www.w3.org/2000/svg"><path d="m140 100h20v20h-20z" fill="#383838" stroke="none"/><g fill="#b4b4b4" stroke="#b4b4b4" stroke-linecap="round"><path d="m140 100h20v20h-20z" fill="none"/><path d="m160 100h20v20h-20z" fill="#383838" stroke="none"/><path d="m160 100h20v20h-20z" fill="none"/><path d="m180 100h20v20h-20z" fill="#383838" stroke="none"/><path d="m180 100h20v20h-20z" fill="none"/><path d="m200 100h20v20h-20z" fill="#383838" stroke="none"/><path d="m200 100h20v20h-20z" fill="none"/><path d="m220 100h20v20h-20z" fill="#383838" stroke="none"/><path d="m220 100h20v20h-20z" fill="none"/><path d="m240 100h20v20h-20z" fill="#383838" stroke="none"/><path d="m240 100h20v20h-20z" fill="none"/><path d="m260 100h20v20h-20z" fill="#383838" stroke="none"/><path d="m260 100h20v20h-20z" fill="none"/><path d="m280 100h20v20h-20z" fill="#383838" stroke="none"/><path d="m280 100h20v20h-20z" fill="none"/><path d="m300 100h20v20h-20z" fill="#383838" stroke="none"/><path d="m300 100h20v20h-20z" fill="none"/><path d="m140 120h20v20h-20z" fill="#383838" stroke="none"/><path d="m140 120h20v20h-20z" fill="none"/><path d="m160 120h20v20h-20z" fill="#383838" stroke="none"/><path d="m160 120h20v20h-20z" fill="none"/><path d="m180 120h20v20h-20z" fill="#383838" stroke="none"/><path d="m180 120h20v20h-20z" fill="none"/><path d="m200 120h20v20h-20z" fill="#f0f0f0" stroke="none"/><path d="m200 120h20v20h-20z" fill="none"/><path d="m220 120h20v20h-20z" fill="#f0f0f0" stroke="none"/><path d="m220 120h20v20h-20z" fill="none"/><path d="m240 120h20v20h-20z" fill="#f0f0f0" stroke="none"/><path d="m240 120h20v20h-20z" fill="none"/><path d="m260 120h20v20h-20z" fill="#383838" stroke="none"/><path d="m260 120h20v20h-20z" fill="none"/><path d="m280 120h20v20h-20z" fill="#383838" stroke="none"/><path d="m280 120h20v20h-20z" fill="none"/><path d="m300 120h20v20h-20z" fill="#383838" stroke="none"/><path d="m300 120h20v20h-20z" fill="none"/><path d="m140 140h20v20h-20z" fill="#383838" stroke="none"/><path d="m140 140h20v20h-20z" fill="none"/><path d="m160 140h20v20h-20z" fill="#383838" stroke="none"/><path d="m160 140h20v20h-20z" fill="none"/><path d="m180 140h20v20h-20z" fill="#f0f0f0" stroke="none"/><path d="m180 140h20v20h-20z" fill="none"/><path d="m200 140h20v20h-20z" fill="#f0f0f0" stroke="none"/><path d="m200 140h20v20h-20z" fill="none"/><path d="m220 140h20v20h-20z" fill="#f0f0f0" stroke="none"/><path d="m220 140h20v20h-20z" fill="none"/><path d="m240 140h20v20h-20z" fill="#f0f0f0" stroke="none"/><path d="m240 140h20v20h-20z" fill="none"/><path d="m260 140h20v20h-20z" fill="#f0f0f0" stroke="none"/><path d="m260 140h20v20h-20z" fill="none"/><path d="m280 140h20v20h-20z" fill="#383838" stroke="none"/><path d="m280 140h20v20h-20z" fill="none"/><path d="m300 140h20v20h-20z" fill="#383838" stroke="none"/><path d="m300 140h20v20h-20z" fill="none"/><path d="m140 160h20v20h-20z" fill="#383838" stroke="none"/><path d="m140 160h20v20h-20z" fill="none"/><path d="m160 160h20v20h-20z" fill="#f0f0f0" stroke="none"/><path d="m160 160h20v20h-20z" fill="none"/><path d="m180 160h20v20h-20z" fill="#f0f0f0" stroke="none"/><path d="m180 160h20v20h-20z" fill="none"/><path d="m200 160h20v20h-20z" fill="#f0f0f0" stroke="none"/><path d="m200 160h20v20h-20z" fill="none"/><path d="m220 160h20v20h-20z" fill="#f0f0f0" stroke="none"/><path d="m220 160h20v20h-20z" fill="none"/><path d="m240 160h20v20h-20z" fill="#f0f0f0" stroke="none"/><path d="m240 160h20v20h-20z" fill="none"/><path d="m260 160h20v20h-20z" fill="#f0f0f0" stroke="none"/><path d="m260 160h20v20h-20z" fill="none"/><path d="m280 160h20v20h-20z" fill="#f0f0f0" stroke="none"/><path d="m280 160h20v20h-20z" fill="none"/><path d="m300 160h20v20h-20z" fill="#383838" stroke="none"/><path d="m300 160h20v20h-20z" fill="none"/><path d="m140 180h20v20h-20z" fill="#383838" stroke="none"/><path d="m140 180h20v20h-20z" fill="none"/><path d="m160 180h20v20h-20z" fill="#f0f0f0" stroke="none"/><path d="m160 180h20v20h-20z" fill="none"/><path d="m180 180h20v20h-20z" fill="#f0f0f0" stroke="none"/><path d="m180 180h20v20h-20z" fill="none"/><path d="m200 180h20v20h-20z" fill="#f0f0f0" stroke="none"/><path d="m200 180h20v20h-20z" fill="none"/><path d="m220 180h20v20h-20z" fill="#f0f0f0" stroke="none"/><path d="m220 180h20v20h-20z" fill="none"/><path d="m240 180h20v20h-20z" fill="#f0f0f0" stroke="none"/><path d="m240 180h20v20h-20z" fill="none"/><path d="m260 180h20v20h-20z" fill="#f0f0f0" stroke="none"/><path d="m260 180h20v20h-20z" fill="none"/><path d="m280 180h20v20h-20z" fill="#f0f0f0" stroke="none"/><path d="m280 180h20v20h-20z" fill="none"/><path d="m300 180h20v20h-20z" fill="#383838" stroke="none"/><path d="m300 180h20v20h-20z" fill="none"/><path d="m140 200h20v20h-20z" fill="#383838" stroke="none"/><path d="m140 200h20v20h-20z" fill="none"/><path d="m160 200h20v20h-20z" fill="#f0f0f0" stroke="none"/><path d="m160 200h20v20h-20z" fill="none"/><path d="m180 200h20v20h-20z" fill="#f0f0f0" stroke="none"/><path d="m180 200h20v20h-20z" fill="none"/><path d="m200 200h20v20h-20z" fill="#f0f0f0" stroke="none"/><path d="m200 200h20v20h-20z" fill="none"/><path d="m220 200h20v20h-20z" fill="#f0f0f0" stroke="none"/><path d="m220 200h20v20h-20z" fill="none"/><path d="m240 200h20v20h-20z" fill="#f0f0f0" stroke="none"/><path d="m240 200h20v20h-20z" fill="none"/><path d="m260 200h20v20h-20z" fill="#f0f0f0" stroke="none"/><path d="m260 200h20v20h-20z" fill="none"/><path d="m280 200h20v20h-20z" fill="#f0f0f0" stroke="none"/><path d="m280 200h20v20h-20z" fill="none"/><path d="m300 200h20v20h-20z" fill="#383838" stroke="none"/><path d="m300 200h20v20h-20z" fill="none"/><path d="m140 220h20v20h-20z" fill="#383838" stroke="none"/><path d="m140 220h20v20h-20z" fill="none"/><path d="m160 220h20v20h-20z" fill="#383838" stroke="none"/><path d="m160 220h20v20h-20z" fill="none"/><path d="m180 220h20v20h-20z" fill="#f0f0f0" stroke="none"/><path d="m180 220h20v20h-20z" fill="none"/><path d="m200 220h20v20h-20z" fill="#f0f0f0" stroke="none"/><path d="m200 220h20v20h-20z" fill="none"/><path d="m220 220h20v20h-20z" fill="#f0f0f0" stroke="none"/><path d="m220 220h20v20h-20z" fill="none"/><path d="m240 220h20v20h-20z" fill="#f0f0f0" stroke="none"/><path d="m240 220h20v20h-20z" fill="none"/><path d="m260 220h20v20h-20z" fill="#f0f0f0" stroke="none"/><path d="m260 220h20v20h-20z" fill="none"/><path d="m280 220h20v20h-20z" fill="#383838" stroke="none"/><path d="m280 220h20v20h-20z" fill="none"/><path d="m300 220h20v20h-20z" fill="#383838" stroke="none"/><path d="m300 220h20v20h-20z" fill="none"/><path d="m140 240h20v20h-20z" fill="#383838" stroke="none"/><path d="m140 240h20v20h-20z" fill="none"/><path d="m160 240h20v20h-20z" fill="#383838" stroke="none"/><path d="m160 240h20v20h-20z" fill="none"/><path d="m180 240h20v20h-20z" fill="#383838" stroke="none"/><path d="m180 240h20v20h-20z" fill="none"/><path d="m200 240h20v20h-20z" fill="#f0f0f0" stroke="none"/><path d="m200 240h20v20h-20z" fill="none"/><path d="m220 240h20v20h-20z" fill="#f0f0f0" stroke="none"/><path d="m220 240h20v20h-20z" fill="none"/><path d="m240 240h20v20h-20z" fill="#f0f0f0" stroke="none"/><path d="m240 240h20v20h-20z" fill="none"/><path d="m260 240h20v20h-20z" fill="#383838" stroke="none"/><path d="m260 240h20v20h-20z" fill="none"/><path d="m280 240h20v20h-20z" fill="#383838" stroke="none"/><path d="m280 240h20v20h-20z" fill="none"/><path d="m300 240h20v20h-20z" fill="#383838" stroke="none"/><path d="m300 240h20v20h-20z" fill="none"/><path d="m140 260h20v20h-20z" fill="#383838" stroke="none"/><path d="m140 260h20v20h-20z" fill="none"/><path d="m160 260h20v20h-20z" fill="#383838" stroke="none"/><path d="m160 260h20v20h-20z" fill="none"/><path d="m180 260h20v20h-20z" fill="#383838" stroke="none"/><path d="m180 260h20v20h-20z" fill="none"/><path d="m200 260h20v20h-20z" fill="#383838" stroke="none"/><path d="m200 260h20v20h-20z" fill="none"/><path d="m220 260h20v20h-20z" fill="#383838" stroke="none"/><path d="m220 260h20v20h-20z" fill="none"/><path d="m240 260h20v20h-20z" fill="#383838" stroke="none"/><path d="m240 260h20v20h-20z" fill="none"/><path d="m260 260h20v20h-20z" fill="#383838" stroke="none"/><path d="m260 260h20v20h-20z" fill="none"/><path d="m280 260h20v20h-20z" fill="#383838" stroke="none"/><path d="m280 260h20v20h-20z" fill="none"/><path d="m300 260h20v20h-20z" fill="#383838" stroke="none"/><path d="m300 260h20v20h-20z" fill="none"/><path d="m140 280h20v20h-20z" fill="#f0f0f0" stroke="none"/><path d="m140 280h20v20h-20z" fill="none"/><path d="m160 280h20v20h-20z" fill="#f0f0f0" stroke="none"/><path d="m160 280h20v20h-20z" fill="none"/><path d="m180 280h20v20h-20z" fill="#f0f0f0" stroke="none"/><path d="m180 280h20v20h-20z" fill="none"/><path d="m200 280h20v20h-20z" fill="#f0f0f0" stroke="none"/><path d="m200 280h20v20h-20z" fill="none"/><path d="m220 280h20v20h-20z" fill="#f0f0f0" stroke="none"/><path d="m220 280h20v20h-20z" fill="none"/><path d="m240 280h20v20h-20z" fill="#f0f0f0" stroke="none"/><path d="m240 280h20v20h-20z" fill="none"/><path d="m260 280h20v20h-20z" fill="#f0f0f0" stroke="none"/><path d="m260 280h20v20h-20z" fill="none"/><path d="m280 280h20v20h-20z" fill="#f0f0f0" stroke="none"/><path d="m280 280h20v20h-20z" fill="none"/><path d="m300 280h20v20h-20z" fill="#f0f0f0" stroke="none"/><path d="m300 280h20v20h-20z" fill="none"/><path d="m140 300h20v20h-20z" fill="#000" stroke="none"/><path d="m140 300h20v20h-20z" fill="none"/><path d="m160 300h20v20h-20z" fill="#000" stroke="none"/><path d="m160 300h20v20h-20z" fill="none"/><path d="m180 300h20v20h-20z" fill="#000" stroke="none"/><path d="m180 300h20v20h-20z" fill="none"/><path d="m200 300h20v20h-20z" fill="#000" stroke="none"/><path d="m200 300h20v20h-20z" fill="none"/><path d="m220 300h20v20h-20z" fill="#000" stroke="none"/><path d="m220 300h20v20h-20z" fill="none"/><path d="m240 300h20v20h-20z" fill="#000" stroke="none"/><path d="m240 300h20v20h-20z" fill="none"/><path d="m260 300h20v20h-20z" fill="#000" stroke="none"/><path d="m260 300h20v20h-20z" fill="none"/><path d="m280 300h20v20h-20z" fill="#000" stroke="none"/><path d="m280 300h20v20h-20z" fill="none"/><path d="m300 300h20v20h-20z" fill="#000" stroke="none"/><path d="m300 300h20v20h-20z" fill="none"/><path d="m140 320h20v20h-20z" fill="#f0f0f0" stroke="none"/><path d="m140 320h20v20h-20z" fill="none"/><path d="m160 320h20v20h-20z" fill="#f0f0f0" stroke="none"/><path d="m160 320h20v20h-20z" fill="none"/><path d="m180 320h20v20h-20z" fill="#f0f0f0" stroke="none"/><path d="m180 320h20v20h-20z" fill="none"/><path d="m200 320h20v20h-20z" fill="#f0f0f0" stroke="none"/><path d="m200 320h20v20h-20z" fill="none"/><path d="m220 320h20v20h-20z" fill="#f0f0f0" stroke="none"/><path d="m220 320h20v20h-20z" fill="none"/><path d="m240 320h20v20h-20z" fill="#f0f0f0" stroke="none"/><path d="m240 320h20v20h-20z" fill="none"/><path d="m260 320h20v20h-20z" fill="#f0f0f0" stroke="none"/><path d="m260 320h20v20h-20z" fill="none"/><path d="m280 320h20v20h-20z" fill="#f0f0f0" stroke="none"/><path d="m280 320h20v20h-20z" fill="none"/><path d="m300 320h20v20h-20z" fill="#f0f0f0" stroke="none"/><path d="m300 320h20v20h-20z" fill="none"/><path d="m140 340h20v20h-20z" fill="#000" stroke="none"/><path d="m140 340h20v20h-20z" fill="none"/><path d="m160 340h20v20h-20z" fill="#000" stroke="none"/><path d="m160 340h20v20h-20z" fill="none"/><path d="m180 340h20v20h-20z" fill="#000" stroke="none"/><path d="m180 340h20v20h-20z" fill="none"/><path d="m200 340h20v20h-20z" fill="#000" stroke="none"/><path d="m200 340h20v20h-20z" fill="none"/><path d="m220 340h20v20h-20z" fill="#000" stroke="none"/><path d="m220 340h20v20h-20z" fill="none"/><path d="m240 340h20v20h-20z" fill="#000" stroke="none"/><path d="m240 340h20v20h-20z" fill="none"/><path d="m260 340h20v20h-20z" fill="#000" stroke="none"/><path d="m260 340h20v20h-20z" fill="none"/><path d="m280 340h20v20h-20z" fill="#000" stroke="none"/><path d="m280 340h20v20h-20z" fill="none"/><path d="m300 340h20v20h-20z" fill="#000" stroke="none"/><path d="m300 340h20v20h-20z" fill="none"/><path d="m140 360h20v20h-20z" fill="#f0f0f0" stroke="none"/><path d="m140 360h20v20h-20z" fill="none"/><path d="m160 360h20v20h-20z" fill="#f0f0f0" stroke="none"/><path d="m160 360h20v20h-20z" fill="none"/><path d="m180 360h20v20h-20z" fill="#f0f0f0" stroke="none"/><path d="m180 360h20v20h-20z" fill="none"/><path d="m200 360h20v20h-20z" fill="#f0f0f0" stroke="none"/><path d="m200 360h20v20h-20z" fill="none"/><path d="m220 360h20v20h-20z" fill="#f0f0f0" stroke="none"/><path d="m220 360h20v20h-20z" fill="none"/><path d="m240 360h20v20h-20z" fill="#f0f0f0" stroke="none"/><path d="m240 360h20v20h-20z" fill="none"/><path d="m260 360h20v20h-20z" fill="#f0f0f0" stroke="none"/><path d="m260 360h20v20h-20z" fill="none"/><path d="m280 360h20v20h-20z" fill="#f0f0f0" stroke="none"/><path d="m280 360h20v20h-20z" fill="none"/><path d="m300 360h20v20h-20z" fill="#f0f0f0" stroke="none"/><path d="m300 360h20v20h-20z" fill="none"/><path d="m140 380h20v20h-20z" fill="#000" stroke="none"/><path d="m140 380h20v20h-20z" fill="none"/><path d="m160 380h20v20h-20z" fill="#000" stroke="none"/><path d="m160 380h20v20h-20z" fill="none"/><path d="m180 380h20v20h-20z" fill="#000" stroke="none"/><path d="m180 380h20v20h-20z" fill="none"/><path d="m200 380h20v20h-20z" fill="#000" stroke="none"/><path d="m200 380h20v20h-20z" fill="none"/><path d="m220 380h20v20h-20z" fill="#000" stroke="none"/><path d="m220 380h20v20h-20z" fill="none"/><path d="m240 380h20v20h-20z" fill="#000" stroke="none"/><path d="m240 380h20v20h-20z" fill="none"/><path d="m260 380h20v20h-20z" fill="#000" stroke="none"/><path d="m260 380h20v20h-20z" fill="none"/><path d="m280 380h20v20h-20z" fill="#000" stroke="none"/><path d="m280 380h20v20h-20z" fill="none"/><path d="m300 380h20v20h-20z" fill="#000" stroke="none"/><path d="m300 380h20v20h-20z" fill="none"/></g></svg>