<svg color-interpolation="auto" height="480" stroke="#000" stroke-linecap="square" stroke-miterlimit="10" width="480" xmlns="http://www.w3.org/2000/svg"><g stroke-linecap="round" stroke-width="2"><path d="m143.6 103.6h12.8v12.8h-12.8z" fill="none"/><g><g fill="none"><path d="m163.6 103.6h12.8v12.8h-12.8z"/><path d="m183.6 103.6h12.8v12.8h-12.8z"/><path d="m203.6 103.6h12.8v12.8h-12.8z"/><path d="m223.6 103.6h12.8v12.8h-12.8z"/><path d="m243.6 103.6h12.8v12.8h-12.8z"/><path d="m263.6 103.6h12.8v12.8h-12.8z"/><path d="m283.6 103.6h12.8v12.8h-12.8z"/><path d="m303.6 103.6h12.8v12.8h-12.8z"/><path d="m143.6 123.6h12.8v12.8h-12.8z"/><path d="m163.6 123.6h12.8v12.8h-12.8z"/><path d="m183.6 123.6h12.8v12.8h-12.8z"/><path d="m210 130h6.4" stroke-width="1.5"/><path d="m210 130 3.2 5.5426" stroke-width="1.5"/><path d="m210 130-3.2 5.5426" stroke-width="1.5"/><path d="m210 130h-6.4" stroke-width="1.5"/><path d="m210 130-3.2-5.5426" stroke-width="1.5"/><path d="m210 130 3.2-5.5426" stroke-width="1.5"/><path d="m230 130h6.4" stroke-width="1.5"/><path d="m230 130 3.2 5.5426" stroke-width="1.5"/><path d="m230 130-3.2 5.5426" stroke-width="1.5"/><path d="m230 130h-6.4" stroke-width="1.5"/><path d="m230 130-3.2-5.5426" stroke-width="1.5"/><path d="m230 130 3.2-5.5426" stroke-width="1.5"/><path d="m250 130h6.4" stroke-width="1.5"/><path d="m250 130 3.2 5.5426" stroke-width="1.5"/><path d="m250 130-3.2 5.5426" stroke-width="1.5"/><path d="m250 130h-6.4" stroke-width="1.5"/><path d="m250 130-3.2-5.5426" stroke-width="1.5"/><path d="m250 130 3.2-5.5426" stroke-width="1.5"/><path d="m263.6 123.6h12.8v12.8h-12.8z"/><path d="m283.6 123.6h12.8v12.8h-12.8z"/><path d="m303.6 123.6h12.8v12.8h-12.8z"/><path d="m143.6 143.6h12.8v12.8h-12.8z"/><path d="m163.6 143.6h12.8v12.8h-12.8z"/><path d="m190 150h6.4" stroke-width="1.5"/><path d="m190 150 3.2 5.5426" stroke-width="1.5"/><path d="m190 150-3.2 5.5426" stroke-width="1.5"/><path d="m190 150h-6.4" stroke-width="1.5"/><path d="m190 150-3.2-5.5426" stroke-width="1.5"/><path d="m190 150 3.2-5.5426" stroke-width="1.5"/><path d="m210 150h6.4" stroke-width="1.5"/><path d="m210 150 3.2 5.5426" stroke-width="1.5"/><path d="m210 150-3.2 5.5426" stroke-width="1.5"/><path d="m210 150h-6.4" stroke-width="1.5"/><path d="m210 150-3.2-5.5426" stroke-width="1.5"/><path d="m210 150 3.2-5.5426" stroke-width="1.5"/><path d="m230 150h6.4" stroke-width="1.5"/><path d="m230 150 3.2 5.5426" stroke-width="1.5"/><path d="m230 150-3.2 5.5426" stroke-width="1.5"/><path d="m230 150h-6.4" stroke-width="1.5"/><path d="m230 150-3.2-5.5426" stroke-width="1.5"/><path d="m230 150 3.2-5.5426" stroke-width="1.5"/><path d="m250 150h6.4" stroke-width="1.5"/><path d="m250 150 3.2 5.5426" stroke-width="1.5"/><path d="m250 150-3.2 5.5426" stroke-width="1.5"/><path d="m250 150h-6.4" stroke-width="1.5"/><path d="m250 150-3.2-5.5426" stroke-width="1.5"/><path d="m250 150 3.2-5.5426" stroke-width="1.5"/><path d="m270 150h6.4" stroke-width="1.5"/><path d="m270 150 3.2 5.5426" stroke-width="1.5"/><path d="m270 150-3.2 5.5426" stroke-width="1.5"/><path d="m270 150h-6.4" stroke-width="1.5"/><path d="m270 150-3.2-5.5426" stroke-width="1.5"/><path d="m270 150 3.2-5.5426" stroke-width="1.5"/><path d="m283.6 143.6h12.8v12.8h-12.8z"/><path d="m303.6 143.6h12.8v12.8h-12.8z"/><path d="m143.6 163.6h12.8v12.8h-12.8z"/><path d="m170 170h6.4" stroke-width="1.5"/><path d="m170 170 3.2 5.5426" stroke-width="1.5"/><path d="m170 170-3.2 5.5426" stroke-width="1.5"/><path d="m170 170h-6.4" stroke-width="1.5"/><path d="m170 170-3.2-5.5426" stroke-width="1.5"/><path d="m170 170 3.2-5.5426" stroke-width="1.5"/><path d="m190 170h6.4" stroke-width="1.5"/><path d="m190 170 3.2 5.5426" stroke-width="1.5"/><path d="m190 170-3.2 5.5426" stroke-width="1.5"/><path d="m190 170h-6.4" stroke-width="1.5"/><path d="m190 170-3.2-5.5426" stroke-width="1.5"/><path d="m190 170 3.2-5.5426" stroke-width="1.5"/><path d="m210 170h6.4" stroke-width="1.5"/><path d="m210 170 3.2 5.5426" stroke-width="1.5"/><path d="m210 170-3.2 5.5426" stroke-width="1.5"/><path d="m210 170h-6.4" stroke-width="1.5"/><path d="m210 170-3.2-5.5426" stroke-width="1.5"/><path d="m210 170 3.2-5.5426" stroke-width="1.5"/><path d="m230 170h6.4" stroke-width="1.5"/><path d="m230 170 3.2 5.5426" stroke-width="1.5"/><path d="m230 170-3.2 5.5426" stroke-width="1.5"/><path d="m230 170h-6.4" stroke-width="1.5"/><path d="m230 170-3.2-5.5426" stroke-width="1.5"/><path d="m230 170 3.2-5.5426" stroke-width="1.5"/><path d="m250 170h6.4" stroke-width="1.5"/><path d="m250 170 3.2 5.5426" stroke-width="1.5"/><path d="m250 170-3.2 5.5426" stroke-width="1.5"/><path d="m250 170h-6.4" stroke-width="1.5"/><path d="m250 170-3.2-5.5426" stroke-width="1.5"/><path d="m250 170 3.2-5.5426" stroke-width="1.5"/><path d="m270 170h6.4" stroke-width="1.5"/><path d="m270 170 3.2 5.5426" stroke-width="1.5"/><path d="m270 170-3.2 5.5426" stroke-width="1.5"/><path d="m270 170h-6.4" stroke-width="1.5"/><path d="m270 170-3.2-5.5426" stroke-width="1.5"/><path d="m270 170 3.2-5.5426" stroke-width="1.5"/><path d="m290 170h6.4" stroke-width="1.5"/><path d="m290 170 3.2 5.5426" stroke-width="1.5"/><path d="m290 170-3.2 5.5426" stroke-width="1.5"/><path d="m290 170h-6.4" stroke-width="1.5"/><path d="m290 170-3.2-5.5426" stroke-width="1.5"/><path d="m290 170 3.2-5.5426" stroke-width="1.5"/><path d="m303.6 163.6h12.8v12.8h-12.8z"/><path d="m143.6 183.6h12.8v12.8h-12.8z"/><path d="m170 190h6.4" stroke-width="1.5"/><path d="m170 190 3.2 5.5426" stroke-width="1.5"/><path d="m170 190-3.2 5.5426" stroke-width="1.5"/><path d="m170 190h-6.4" stroke-width="1.5"/><path d="m170 190-3.2-5.5426" stroke-width="1.5"/><path d="m170 190 3.2-5.5426" stroke-width="1.5"/><path d="m190 190h6.4" stroke-width="1.5"/><path d="m190 190 3.2 5.5426" stroke-width="1.5"/><path d="m190 190-3.2 5.5426" stroke-width="1.5"/><path d="m190 190h-6.4" stroke-width="1.5"/><path d="m190 190-3.2-5.5426" stroke-width="1.5"/><path d="m190 190 3.2-5.5426" stroke-width="1.5"/><path d="m210 190h6.4" stroke-width="1.5"/><path d="m210 190 3.2 5.5426" stroke-width="1.5"/><path d="m210 190-3.2 5.5426" stroke-width="1.5"/><path d="m210 190h-6.4" stroke-width="1.5"/><path d="m210 190-3.2-5.5426" stroke-width="1.5"/><path d="m210 190 3.2-5.5426" stroke-width="1.5"/><path d="m230 190h6.4" stroke-width="1.5"/><path d="m230 190 3.2 5.5426" stroke-width="1.5"/><path d="m230 190-3.2 5.5426" stroke-width="1.5"/><path d="m230 190h-6.4" stroke-width="1.5"/><path d="m230 190-3.2-5.5426" stroke-width="1.5"/><path d="m230 190 3.2-5.5426" stroke-width="1.5"/><path d="m250 190h6.4" stroke-width="1.5"/><path d="m250 190 3.2 5.5426" stroke-width="1.5"/><path d="m250 190-3.2 5.5426" stroke-width="1.5"/><path d="m250 190h-6.4" stroke-width="1.5"/><path d="m250 190-3.2-5.5426" stroke-width="1.5"/><path d="m250 190 3.2-5.5426" stroke-width="1.5"/><path d="m270 190h6.4" stroke-width="1.5"/><path d="m270 190 3.2 5.5426" stroke-width="1.5"/><path d="m270 190-3.2 5.5426" stroke-width="1.5"/><path d="m270 190h-6.4" stroke-width="1.5"/><path d="m270 190-3.2-5.5426" stroke-width="1.5"/><path d="m270 190 3.2-5.5426" stroke-width="1.5"/><path d="m290 190h6.4" stroke-width="1.5"/><path d="m290 190 3.2 5.5426" stroke-width="1.5"/><path d="m290 190-3.2 5.5426" stroke-width="1.5"/><path d="m290 190h-6.4" stroke-width="1.5"/><path d="m290 190-3.2-5.5426" stroke-width="1.5"/><path d="m290 190 3.2-5.5426" stroke-width="1.5"/><path d="m303.6 183.6h12.8v12.8h-12.8z"/><path d="m143.6 203.6h12.8v12.8h-12.8z"/><path d="m170 210h6.4" stroke-width="1.5"/><path d="m170 210 3.2 5.5426" stroke-width="1.5"/><path d="m170 210-3.2 5.5426" stroke-width="1.5"/><path d="m170 210h-6.4" stroke-width="1.5"/><path d="m170 210-3.2-5.5426" stroke-width="1.5"/><path d="m170 210 3.2-5.5426" stroke-width="1.5"/><path d="m190 210h6.4" stroke-width="1.5"/><path d="m190 210 3.2 5.5426" stroke-width="1.5"/><path d="m190 210-3.2 5.5426" stroke-width="1.5"/><path d="m190 210h-6.4" stroke-width="1.5"/><path d="m190 210-3.2-5.5426" stroke-width="1.5"/><path d="m190 210 3.2-5.5426" stroke-width="1.5"/><path d="m210 210h6.4" stroke-width="1.5"/><path d="m210 210 3.2 5.5426" stroke-width="1.5"/><path d="m210 210-3.2 5.5426" stroke-width="1.5"/><path d="m210 210h-6.4" stroke-width="1.5"/><path d="m210 210-3.2-5.5426" stroke-width="1.5"/><path d="m210 210 3.2-5.5426" stroke-width="1.5"/><path d="m230 210h6.4" stroke-width="1.5"/><path d="m230 210 3.2 5.5426" stroke-width="1.5"/><path d="m230 210-3.2 5.5426" stroke-width="1.5"/><path d="m230 210h-6.4" stroke-width="1.5"/><path d="m230 210-3.2-5.5426" stroke-width="1.5"/><path d="m230 210 3.2-5.5426" stroke-width="1.5"/><path d="m250 210h6.4" stroke-width="1.5"/><path d="m250 210 3.2 5.5426" stroke-width="1.5"/><path d="m250 210-3.2 5.5426" stroke-width="1.5"/><path d="m250 210h-6.4" stroke-width="1.5"/><path d="m250 210-3.2-5.5426" stroke-width="1.5"/><path d="m250 210 3.2-5.5426" stroke-width="1.5"/><path d="m270 210h6.4" stroke-width="1.5"/><path d="m270 210 3.2 5.5426" stroke-width="1.5"/><path d="m270 210-3.2 5.5426" stroke-width="1.5"/><path d="m270 210h-6.4" stroke-width="1.5"/><path d="m270 210-3.2-5.5426" stroke-width="1.5"/><path d="m270 210 3.2-5.5426" stroke-width="1.5"/><path d="m290 210h6.4" stroke-width="1.5"/><path d="m290 210 3.2 5.5426" stroke-width="1.5"/><path d="m290 210-3.2 5.5426" stroke-width="1.5"/><path d="m290 210h-6.4" stroke-width="1.5"/><path d="m290 210-3.2-5.5426" stroke-width="1.5"/><path d="m290 210 3.2-5.5426" stroke-width="1.5"/><path d="m303.6 203.6h12.8v12.8h-12.8z"/><path d="m143.6 223.6h12.8v12.8h-12.8z"/><path d="m163.6 223.6h12.8v12.8h-12.8z"/><path d="m190 230h6.4" stroke-width="1.5"/><path d="m190 230 3.2 5.5426" stroke-width="1.5"/><path d="m190 230-3.2 5.5426" stroke-width="1.5"/><path d="m190 230h-6.4" stroke-width="1.5"/><path d="m190 230-3.2-5.5426" stroke-width="1.5"/><path d="m190 230 3.2-5.5426" stroke-width="1.5"/><path d="m210 230h6.4" stroke-width="1.5"/><path d="m210 230 3.2 5.5426" stroke-width="1.5"/><path d="m210 230-3.2 5.5426" stroke-width="1.5"/><path d="m210 230h-6.4" stroke-width="1.5"/><path d="m210 230-3.2-5.5426" stroke-width="1.5"/><path d="m210 230 3.2-5.5426" stroke-width="1.5"/><path d="m230 230h6.4" stroke-width="1.5"/><path d="m230 230 3.2 5.5426" stroke-width="1.5"/><path d="m230 230-3.2 5.5426" stroke-width="1.5"/><path d="m230 230h-6.4" stroke-width="1.5"/><path d="m230 230-3.2-5.5426" stroke-width="1.5"/><path d="m230 230 3.2-5.5426" stroke-width="1.5"/><path d="m250 230h6.4" stroke-width="1.5"/><path d="m250 230 3.2 5.5426" stroke-width="1.5"/><path d="m250 230-3.2 5.5426" stroke-width="1.5"/><path d="m250 230h-6.4" stroke-width="1.5"/><path d="m250 230-3.2-5.5426" stroke-width="1.5"/><path d="m250 230 3.2-5.5426" stroke-width="1.5"/><path d="m270 230h6.4" stroke-width="1.5"/><path d="m270 230 3.2 5.5426" stroke-width="1.5"/><path d="m270 230-3.2 5.5426" stroke-width="1.5"/><path d="m270 230h-6.4" stroke-width="1.5"/><path d="m270 230-3.2-5.5426" stroke-width="1.5"/><path d="m270 230 3.2-5.5426" stroke-width="1.5"/><path d="m283.6 223.6h12.8v12.8h-12.8z"/><path d="m303.6 223.6h12.8v12.8h-12.8z"/><path d="m143.6 243.6h12.8v12.8h-12.8z"/><path d="m163.6 243.6h12.8v12.8h-12.8z"/><path d="m183.6 243.6h12.8v12.8h-12.8z"/><path d="m210 250h6.4" stroke-width="1.5"/><path d="m210 250 3.2 5.5426" stroke-width="1.5"/><path d="m210 250-3.2 5.5426" stroke-width="1.5"/><path d="m210 250h-6.4" stroke-width="1.5"/><path d="m210 250-3.2-5.5426" stroke-width="1.5"/><path d="m210 250 3.2-5.5426" stroke-width="1.5"/><path d="m230 250h6.4" stroke-width="1.5"/><path d="m230 250 3.2 5.5426" stroke-width="1.5"/><path d="m230 250-3.2 5.5426" stroke-width="1.5"/><path d="m230 250h-6.4" stroke-width="1.5"/><path d="m230 250-3.2-5.5426" stroke-width="1.5"/><path d="m230 250 3.2-5.5426" stroke-width="1.5"/><path d="m250 250h6.4" stroke-width="1.5"/><path d="m250 250 3.2 5.5426" stroke-width="1.5"/><path d="m250 250-3.2 5.5426" stroke-width="1.5"/><path d="m250 250h-6.4" stroke-width="1.5"/><path d="m250 250-3.2-5.5426" stroke-width="1.5"/><path d="m250 250 3.2-5.5426" stroke-width="1.5"/><path d="m263.6 243.6h12.8v12.8h-12.8z"/><path d="m283.6 243.6h12.8v12.8h-12.8z"/><path d="m303.6 243.6h12.8v12.8h-12.8z"/><path d="m143.6 263.6h12.8v12.8h-12.8z"/><path d="m163.6 263.6h12.8v12.8h-12.8z"/><path d="m183.6 263.6h12.8v12.8h-12.8z"/><path d="m203.6 263.6h12.8v12.8h-12.8z"/><path d="m223.6 263.6h12.8v12.8h-12.8z"/><path d="m243.6 263.6h12.8v12.8h-12.8z"/><path d="m263.6 263.6h12.8v12.8h-12.8z"/><path d="m283.6 263.6h12.8v12.8h-12.8z"/><path d="m303.6 263.6h12.8v12.8h-12.8z"/><path d="m150 290h6.4" stroke-width="1.5"/><path d="m150 290 3.2 5.5426" stroke-width="1.5"/><path d="m150 290-3.2 5.5426" stroke-width="1.5"/><path d="m150 290h-6.4" stroke-width="1.5"/><path d="m150 290-3.2-5.5426" stroke-width="1.5"/><path d="m150 290 3.2-5.5426" stroke-width="1.5"/><path d="m170 290h6.4" stroke-width="1.5"/><path d="m170 290 3.2 5.5426" stroke-width="1.5"/><path d="m170 290-3.2 5.5426" stroke-width="1.5"/><path d="m170 290h-6.4" stroke-width="1.5"/><path d="m170 290-3.2-5.5426" stroke-width="1.5"/><path d="m170 290 3.2-5.5426" stroke-width="1.5"/><path d="m190 290h6.4" stroke-width="1.5"/><path d="m190 290 3.2 5.5426" stroke-width="1.5"/><path d="m190 290-3.2 5.5426" stroke-width="1.5"/><path d="m190 290h-6.4" stroke-width="1.5"/><path d="m190 290-3.2-5.5426" stroke-width="1.5"/><path d="m190 290 3.2-5.5426" stroke-width="1.5"/><path d="m210 290h6.4" stroke-width="1.5"/><path d="m210 290 3.2 5.5426" stroke-width="1.5"/><path d="m210 290-3.2 5.5426" stroke-width="1.5"/><path d="m210 290h-6.4" stroke-width="1.5"/><path d="m210 290-3.2-5.5426" stroke-width="1.5"/><path d="m210 290 3.2-5.5426" stroke-width="1.5"/><path d="m230 290h6.4" stroke-width="1.5"/><path d="m230 290 3.2 5.5426" stroke-width="1.5"/><path d="m230 290-3.2 5.5426" stroke-width="1.5"/><path d="m230 290h-6.4" stroke-width="1.5"/><path d="m230 290-3.2-5.5426" stroke-width="1.5"/><path d="m230 290 3.2-5.5426" stroke-width="1.5"/><path d="m250 290h6.4" stroke-width="1.5"/><path d="m250 290 3.2 5.5426" stroke-width="1.5"/><path d="m250 290-3.2 5.5426" stroke-width="1.5"/><path d="m250 290h-6.4" stroke-width="1.5"/><path d="m250 290-3.2-5.5426" stroke-width="1.5"/><path d="m250 290 3.2-5.5426" stroke-width="1.5"/><path d="m270 290h6.4" stroke-width="1.5"/><path d="m270 290 3.2 5.5426" stroke-width="1.5"/><path d="m270 290-3.2 5.5426" stroke-width="1.5"/><path d="m270 290h-6.4" stroke-width="1.5"/><path d="m270 290-3.2-5.5426" stroke-width="1.5"/><path d="m270 290 3.2-5.5426" stroke-width="1.5"/><path d="m290 290h6.4" stroke-width="1.5"/><path d="m290 290 3.2 5.5426" stroke-width="1.5"/><path d="m290 290-3.2 5.5426" stroke-width="1.5"/><path d="m290 290h-6.4" stroke-width="1.5"/><path d="m290 290-3.2-5.5426" stroke-width="1.5"/><path d="m290 290 3.2-5.5426" stroke-width="1.5"/><path d="m310 290h6.4" stroke-width="1.5"/><path d="m310 290 3.2 5.5426" stroke-width="1.5"/><path d="m310 290-3.2 5.5426" stroke-width="1.5"/><path d="m310 290h-6.4" stroke-width="1.5"/><path d="m310 290-3.2-5.5426" stroke-width="1.5"/><path d="m310 290 3.2-5.5426" stroke-width="1.5"/></g><path d="m150 304.2099-6.4 11.0851h12.8z" stroke="none"/><path d="m170 304.2099-6.4 11.0851h12.8z" stroke="none"/><path d="m190 304.2099-6.4 11.0851h12.8z" stroke="none"/><path d="m210 304.2099-6.4 11.0851h12.8z" stroke="none"/><path d="m230 304.2099-6.4 11.0851h12.8z" stroke="none"/><path d="m250 304.2099-6.4 11.0851h12.8z" stroke="none"/><path d="m270 304.2099-6.4 11.0851h12.8z" stroke="none"/><path d="m290 304.2099-6.4 11.0851h12.8z" stroke="none"/><path d="m310 304.2099-6.4 11.0851h12.8z" stroke="none"/><path d="m150 330h6.4" fill="none" stroke-width="1.5"/><path d="m150 330 3.2 5.5426" fill="none" stroke-width="1.5"/><path d="m150 330-3.2 5.5426" fill="none" stroke-width="1.5"/><path d="m150 330h-6.4" fill="none" stroke-width="1.5"/><path d="m150 330-3.2-5.5426" fill="none" stroke-width="1.5"/><path d="m150 330 3.2-5.5426" fill="none" stroke-width="1.5"/><path d="m170 330h6.4" fill="none" stroke-width="1.5"/><path d="m170 330 3.2 5.5426" fill="none" stroke-width="1.5"/><path d="m170 330-3.2 5.5426" fill="none" stroke-width="1.5"/><path d="m170 330h-6.4" fill="none" stroke-width="1.5"/><path d="m170 330-3.2-5.5426" fill="none" stroke-width="1.5"/><path d="m170 330 3.2-5.5426" fill="none" stroke-width="1.5"/><path d="m190 330h6.4" fill="none" stroke-width="1.5"/><path d="m190 330 3.2 5.5426" fill="none" stroke-width="1.5"/><path d="m190 330-3.2 5.5426" fill="none" stroke-width="1.5"/><path d="m190 330h-6.4" fill="none" stroke-width="1.5"/><path d="m190 330-3.2-5.5426" fill="none" stroke-width="1.5"/><path d="m190 330 3.2-5.5426" fill="none" stroke-width="1.5"/><path d="m210 330h6.4" fill="none" stroke-width="1.5"/><path d="m210 330 3.2 5.5426" fill="none" stroke-width="1.5"/><path d="m210 330-3.2 5.5426" fill="none" stroke-width="1.5"/><path d="m210 330h-6.4" fill="none" stroke-width="1.5"/><path d="m210 330-3.2-5.5426" fill="none" stroke-width="1.5"/><path d="m210 330 3.2-5.5426" fill="none" stroke-width="1.5"/><path d="m230 330h6.4" fill="none" stroke-width="1.5"/><path d="m230 330 3.2 5.5426" fill="none" stroke-width="1.5"/><path d="m230 330-3.2 5.5426" fill="none" stroke-width="1.5"/><path d="m230 330h-6.4" fill="none" stroke-width="1.5"/><path d="m230 330-3.2-5.5426" fill="none" stroke-width="1.5"/><path d="m230 330 3.2-5.5426" fill="none" stroke-width="1.5"/><path d="m250 330h6.4" fill="none" stroke-width="1.5"/><path d="m250 330 3.2 5.5426" fill="none" stroke-width="1.5"/><path d="m250 330-3.2 5.5426" fill="none" stroke-width="1.5"/><path d="m250 330h-6.4" fill="none" stroke-width="1.5"/><path d="m250 330-3.2-5.5426" fill="none" stroke-width="1.5"/><path d="m250 330 3.2-5.5426" fill="none" stroke-width="1.5"/><path d="m270 330h6.4" fill="none" stroke-width="1.5"/><path d="m270 330 3.2 5.5426" fill="none" stroke-width="1.5"/><path d="m270 330-3.2 5.5426" fill="none" stroke-width="1.5"/><path d="m270 330h-6.4" fill="none" stroke-width="1.5"/><path d="m270 330-3.2-5.5426" fill="none" stroke-width="1.5"/><path d="m270 330 3.2-5.5426" fill="none" stroke-width="1.5"/><path d="m290 330h6.4" fill="none" stroke-width="1.5"/><path d="m290 330 3.2 5.5426" fill="none" stroke-width="1.5"/><path d="m290 330-3.2 5.5426" fill="none" stroke-width="1.5"/><path d="m290 330h-6.4" fill="none" stroke-width="1.5"/><path d="m290 330-3.2-5.5426" fill="none" stroke-width="1.5"/><path d="m290 330 3.2-5.5426" fill="none" stroke-width="1.5"/><path d="m310 330h6.4" fill="none" stroke-width="1.5"/><path d="m310 330 3.2 5.5426" fill="none" stroke-width="1.5"/><path d="m310 330-3.2 5.5426" fill="none" stroke-width="1.5"/><path d="m310 330h-6.4" fill="none" stroke-width="1.5"/><path d="m310 330-3.2-5.5426" fill="none" stroke-width="1.5"/><path d="m310 330 3.2-5.5426" fill="none" stroke-width="1.5"/><path d="m150 344.2099-6.4 11.0851h12.8z" stroke="none"/><path d="m170 344.2099-6.4 11.0851h12.8z" stroke="none"/><path d="m190 344.2099-6.4 11.0851h12.8z" stroke="none"/><path d="m210 344.2099-6.4 11.0851h12.8z" stroke="none"/><path d="m230 344.2099-6.4 11.0851h12.8z" stroke="none"/><path d="m250 344.2099-6.4 11.0851h12.8z" stroke="none"/><path d="m270 344.2099-6.4 11.0851h12.8z" stroke="none"/><path d="m290 344.2099-6.4 11.0851h12.8z" stroke="none"/><path d="m310 344.2099-6.4 11.0851h12.8z" stroke="none"/><path d="m150 370h6.4" fill="none" stroke-width="1.5"/><path d="m150 370 3.2 5.5426" fill="none" stroke-width="1.5"/><path d="m150 370-3.2 5.5426" fill="none" stroke-width="1.5"/><path d="m150 370h-6.4" fill="none" stroke-width="1.5"/><path d="m150 370-3.2-5.5426" fill="none" stroke-width="1.5"/><path d="m150 370 3.2-5.5426" fill="none" stroke-width="1.5"/><path d="m170 370h6.4" fill="none" stroke-width="1.5"/><path d="m170 370 3.2 5.5426" fill="none" stroke-width="1.5"/><path d="m170 370-3.2 5.5426" fill="none" stroke-width="1.5"/><path d="m170 370h-6.4" fill="none" stroke-width="1.5"/><path d="m170 370-3.2-5.5426" fill="none" stroke-width="1.5"/><path d="m170 370 3.2-5.5426" fill="none" stroke-width="1.5"/><path d="m190 370h6.4" fill="none" stroke-width="1.5"/><path d="m190 370 3.2 5.5426" fill="none" stroke-width="1.5"/><path d="m190 370-3.2 5.5426" fill="none" stroke-width="1.5"/><path d="m190 370h-6.4" fill="none" stroke-width="1.5"/><path d="m190 370-3.2-5.5426" fill="none" stroke-width="1.5"/><path d="m190 370 3.2-5.5426" fill="none" stroke-width="1.5"/><path d="m210 370h6.4" fill="none" stroke-width="1.5"/><path d="m210 370 3.2 5.5426" fill="none" stroke-width="1.5"/><path d="m210 370-3.2 5.5426" fill="none" stroke-width="1.5"/><path d="m210 370h-6.4" fill="none" stroke-width="1.5"/><path d="m210 370-3.2-5.5426" fill="none" stroke-width="1.5"/><path d="m210 370 3.2-5.5426" fill="none" stroke-width="1.5"/><path d="m230 370h6.4" fill="none" stroke-width="1.5"/><path d="m230 370 3.2 5.5426" fill="none" stroke-width="1.5"/><path d="m230 370-3.2 5.5426" fill="none" stroke-width="1.5"/><path d="m230 370h-6.4" fill="none" stroke-width="1.5"/><path d="m230 370-3.2-5.5426" fill="none" stroke-width="1.5"/><path d="m230 370 3.2-5.5426" fill="none" stroke-width="1.5"/><path d="m250 370h6.4" fill="none" stroke-width="1.5"/><path d="m250 370 3.2 5.5426" fill="none" stroke-width="1.5"/><path d="m250 370-3.2 5.5426" fill="none" stroke-width="1.5"/><path d="m250 370h-6.4" fill="none" stroke-width="1.5"/><path d="m250 370-3.2-5.5426" fill="none" stroke-width="1.5"/><path d="m250 370 3.2-5.5426" fill="none" stroke-width="1.5"/><path d="m270 370h6.4" fill="none" stroke-width="1.5"/><path d="m270 370 3.2 5.5426" fill="none" stroke-width="1.5"/><path d="m270 370-3.2 5.5426" fill="none" stroke-width="1.5"/><path d="m270 370h-6.4" fill="none" stroke-width="1.5"/><path d="m270 370-3.2-5.5426" fill="none" stroke-width="1.5"/><path d="m270 370 3.2-5.5426" fill="none" stroke-width="1.5"/><path d="m290 370h6.4" fill="none" stroke-width="1.5"/><path d="m290 370 3.2 5.5426" fill="none" stroke-width="1.5"/><path d="m290 370-3.2 5.5426" fill="none" stroke-width="1.5"/><path d="m290 370h-6.4" fill="none" stroke-width="1.5"/><path d="m290 370-3.2-5.5426" fill="none" stroke-width="1.5"/><path d="m290 370 3.2-5.5426" fill="none" stroke-width="1.5"/><path d="m310 370h6.4" fill="none" stroke-width="1.5"/><path d="m310 370 3.2 5.5426" fill="none" stroke-width="1.5"/><path d="m310 370-3.2 5.5426" fill="none" stroke-width="1.5"/><path d="m310 370h-6.4" fill="none" stroke-width="1.5"/><path d="m310 370-3.2-5.5426" fill="none" stroke-width="1.5"/><path d="m310 370 3.2-5.5426" fill="none" stroke-width="1.5"/><path d="m150 384.2099-6.4 11.0851h12.8z" stroke="none"/><path d="m170 384.2099-6.4 11.0851h12.8z" stroke="none"/><path d="m190 384.2099-6.4 11.0851h12.8z" stroke="none"/><path d="m210 384.2099-6.4 11.0851h12.8z" stroke="none"/><path d="m230 384.2099-6.4 11.0851h12.8z" stroke="none"/><path d="m250 384.2099-6.4 11.0851h12.8z" stroke="none"/><path d="m270 384.2099-6.4 11.0851h12.8z" stroke="none"/><path d="m290 384.2099-6.4 11.0851h12.8z" stroke="none"/><path d="m310 384.2099-6.4 11.0851h12.8z" stroke="none"/><path d="m0 0v480" fill="none" stroke="#b4b4b4"/><path d="m20 0v480" fill="none" stroke="#b4b4b4" stroke-width="1"/><path d="m40 0v480" fill="none" stroke="#b4b4b4" stroke-width="1"/><path d="m60 0v480" fill="none" stroke="#b4b4b4" stroke-width="1"/><path d="m80 0v480" fill="none" stroke="#b4b4b4" stroke-width="1"/><path d="m100 0v480" fill="none" stroke="#b4b4b4" stroke-width="1"/><path d="m120 0v480" fill="none" stroke="#b4b4b4" stroke-width="1"/><path d="m140 0v480" fill="none" stroke="#b4b4b4" stroke-width="1"/><path d="m160 0v480" fill="none" stroke="#b4b4b4" stroke-width="1"/><path d="m180 0v480" fill="none" stroke="#b4b4b4" stroke-width="1"/><path d="m200 0v480" fill="none" stroke="#b4b4b4" stroke-width="1"/><path d="m220 0v480" fill="none" stroke="#b4b4b4" stroke-width="1"/><path d="m240 0v480" fill="none" stroke="#b4b4b4" stroke-width="1"/><path d="m260 0v480" fill="none" stroke="#b4b4b4" stroke-width="1"/><path d="m280 0v480" fill="none" stroke="#b4b4b4" stroke-width="1"/><path d="m300 0v480" fill="none" stroke="#b4b4b4" stroke-width="1"/><path d="m320 0v480" fill="none" stroke="#b4b4b4" stroke-width="1"/><path d="m340 0v480" fill="none" stroke="#b4b4b4" stroke-width="1"/><path d="m360 0v480" fill="none" stroke="#b4b4b4" stroke-width="1"/><path d="m380 0v480" fill="none" stroke="#b4b4b4" stroke-width="1"/><path d="m400 0v480" fill="none" stroke="#b4b4b4" stroke-width="1"/><path d="m420 0v480" fill="none" stroke="#b4b4b4" stroke-width="1"/><path d="m440 0v480" fill="none" stroke="#b4b4b4" stroke-width="1"/><path d="m460 0v480" fill="none" stroke="#b4b4b4" stroke-width="1"/><path d="m480 0v480" fill="none" stroke="#b4b4b4"/><path d="m0 0h480" fill="none" stroke="#b4b4b4"/><path d="m0 20h480" fill="none" stroke="#b4b4b4" stroke-width="1"/><path d="m0 40h480" fill="none" stroke="#b4b4b4" stroke-width="1"/><path d="m0 60h480" fill="none" stroke="#b4b4b4" stroke-width="1"/><path d="m0 80h480" fill="none" stroke="#b4b4b4" stroke-width="1"/><path d="m0 100h480" fill="none" stroke="#b4b4b4" stroke-width="1"/><path d="m0 120h480" fill="none" stroke="#b4b4b4" stroke-width="1"/><path d="m0 140h480" fill="none" stroke="#b4b4b4" stroke-width="1"/><path d="m0 160h480" fill="none" stroke="#b4b4b4" stroke-width="1"/><path d="m0 180h480" fill="none" stroke="#b4b4b4" stroke-width="1"/><path d="m0 200h480" fill="none" stroke="#b4b4b4" stroke-width="1"/><path d="m0 220h480" fill="none" stroke="#b4b4b4" stroke-width="1"/><path d="m0 240h480" fill="none" stroke="#b4b4b4" stroke-width="1"/><path d="m0 260h480" fill="none" stroke="#b4b4b4" stroke-width="1"/><path d="m0 280h480" fill="none" stroke="#b4b4b4" stroke-width="1"/><path d="m0 300h480" fill="none" stroke="#b4b4b4" stroke-width="1"/><path d="m0 320h480" fill="none" stroke="#b4b4b4" stroke-width="1"/><path d="m0 340h480" fill="none" stroke="#b4b4b4" stroke-width="1"/><path d="m0 360h480" fill="none" stroke="#b4b4b4" stroke-width="1"/><path d="m0 380h480" fill="none" stroke="#b4b4b4" stroke-width="1"/><path d="m0 400h480" fill="none" stroke="#b4b4b4" stroke-width="1"/><path d="m0 420h480" fill="none" stroke="#b4b4b4" stroke-width="1"/><path d="m0 440h480" fill="none" stroke="#b4b4b4" stroke-width="1"/><path d="m0 460h480" fill="none" stroke="#b4b4b4" stroke-width="1"/><path d="m0 480h480" fill="none" stroke="#b4b4b4"/></g></g></svg>