<svg color-interpolation="auto" height="320" stroke="#000" stroke-linecap="square" stroke-miterlimit="10" width="320" xmlns="http://www.w3.org/2000/svg"><g stroke-linecap="round" stroke-width="2"><path d="m10 3.6 6.4 6.4-6.4 6.4-6.4-6.4z" fill="none"/><g><g fill="none"><path d="m30 3.6 6.4 6.4-6.4 6.4-6.4-6.4z"/><path d="m50 3.6 6.4 6.4-6.4 6.4-6.4-6.4z"/><path d="m70 3.6 6.4 6.4-6.4 6.4-6.4-6.4z"/><path d="m90 3.6 6.4 6.4-6.4 6.4-6.4-6.4z"/><path d="m110 3.6 6.4 6.4-6.4 6.4-6.4-6.4z"/><path d="m130 3.6 6.4 6.4-6.4 6.4-6.4-6.4z"/><path d="m150 3.6 6.4 6.4-6.4 6.4-6.4-6.4z"/><path d="m170 3.6 6.4 6.4-6.4 6.4-6.4-6.4z"/><path d="m190 3.6 6.4 6.4-6.4 6.4-6.4-6.4z"/><path d="m210 3.6 6.4 6.4-6.4 6.4-6.4-6.4z"/><path d="m230 3.6 6.4 6.4-6.4 6.4-6.4-6.4z"/><path d="m250 3.6 6.4 6.4-6.4 6.4-6.4-6.4z"/><path d="m270 3.6 6.4 6.4-6.4 6.4-6.4-6.4z"/><path d="m290 3.6 6.4 6.4-6.4 6.4-6.4-6.4z"/><path d="m310 3.6 6.4 6.4-6.4 6.4-6.4-6.4z"/><path d="m10 23.6 6.4 6.4-6.4 6.4-6.4-6.4z"/><path d="m30 23.6 6.4 6.4-6.4 6.4-6.4-6.4z"/><path d="m50 23.6 6.4 6.4-6.4 6.4-6.4-6.4z"/><path d="m70 23.6 6.4 6.4-6.4 6.4-6.4-6.4z"/><path d="m90 23.6 6.4 6.4-6.4 6.4-6.4-6.4z"/><path d="m110 23.6 6.4 6.4-6.4 6.4-6.4-6.4z"/><path d="m130 23.6 6.4 6.4-6.4 6.4-6.4-6.4z"/><path d="m150 23.6 6.4 6.4-6.4 6.4-6.4-6.4z"/><path d="m170 23.6 6.4 6.4-6.4 6.4-6.4-6.4z"/><path d="m190 23.6 6.4 6.4-6.4 6.4-6.4-6.4z"/><path d="m210 23.6 6.4 6.4-6.4 6.4-6.4-6.4z"/><path d="m230 23.6 6.4 6.4-6.4 6.4-6.4-6.4z"/><path d="m250 23.6 6.4 6.4-6.4 6.4-6.4-6.4z"/><path d="m270 23.6 6.4 6.4-6.4 6.4-6.4-6.4z"/><path d="m290 23.6 6.4 6.4-6.4 6.4-6.4-6.4z"/><path d="m310 23.6 6.4 6.4-6.4 6.4-6.4-6.4z"/><path d="m10 43.6 6.4 6.4-6.4 6.4-6.4-6.4z"/><path d="m30 43.6 6.4 6.4-6.4 6.4-6.4-6.4z"/><path d="m50 43.6 6.4 6.4-6.4 6.4-6.4-6.4z"/><path d="m70 43.6 6.4 6.4-6.4 6.4-6.4-6.4z"/><path d="m90 43.6 6.4 6.4-6.4 6.4-6.4-6.4z"/><path d="m110 43.6 6.4 6.4-6.4 6.4-6.4-6.4z"/><path d="m130 43.6 6.4 6.4-6.4 6.4-6.4-6.4z"/><path d="m150 43.6 6.4 6.4-6.4 6.4-6.4-6.4z"/><path d="m170 43.6 6.4 6.4-6.4 6.4-6.4-6.4z"/><path d="m190 43.6 6.4 6.4-6.4 6.4-6.4-6.4z"/><path d="m210 43.6 6.4 6.4-6.4 6.4-6.4-6.4z"/><path d="m230 43.6 6.4 6.4-6.4 6.4-6.4-6.4z"/><path d="m250 43.6 6.4 6.4-6.4 6.4-6.4-6.4z"/><path d="m270 43.6 6.4 6.4-6.4 6.4-6.4-6.4z"/><path d="m290 43.6 6.4 6.4-6.4 6.4-6.4-6.4z"/><path d="m310 43.6 6.4 6.4-6.4 6.4-6.4-6.4z"/><path d="m10 63.6 6.4 6.4-6.4 6.4-6.4-6.4z"/><path d="m30 63.6 6.4 6.4-6.4 6.4-6.4-6.4z"/><path d="m50 63.6 6.4 6.4-6.4 6.4-6.4-6.4z"/><path d="m70 63.6 6.4 6.4-6.4 6.4-6.4-6.4z"/><path d="m90 63.6 6.4 6.4-6.4 6.4-6.4-6.4z"/><path d="m110 63.6 6.4 6.4-6.4 6.4-6.4-6.4z"/><path d="m130 63.6 6.4 6.4-6.4 6.4-6.4-6.4z"/><path d="m150 63.6 6.4 6.4-6.4 6.4-6.4-6.4z"/><path d="m170 63.6 6.4 6.4-6.4 6.4-6.4-6.4z"/><path d="m190 63.6 6.4 6.4-6.4 6.4-6.4-6.4z"/><path d="m210 63.6 6.4 6.4-6.4 6.4-6.4-6.4z"/><path d="m230 63.6 6.4 6.4-6.4 6.4-6.4-6.4z"/><path d="m250 63.6 6.4 6.4-6.4 6.4-6.4-6.4z"/><path d="m270 63.6 6.4 6.4-6.4 6.4-6.4-6.4z"/><path d="m290 63.6 6.4 6.4-6.4 6.4-6.4-6.4z"/><path d="m310 63.6 6.4 6.4-6.4 6.4-6.4-6.4z"/><path d="m10 83.6 6.4 6.4-6.4 6.4-6.4-6.4z"/><path d="m30 83.6 6.4 6.4-6.4 6.4-6.4-6.4z"/><path d="m50 83.6 6.4 6.4-6.4 6.4-6.4-6.4z"/><path d="m70 83.6 6.4 6.4-6.4 6.4-6.4-6.4z"/><path d="m90 83.6 6.4 6.4-6.4 6.4-6.4-6.4z"/></g><path d="m110 83.6 6.4 6.4-6.4 6.4-6.4-6.4z" stroke="none"/><path d="m130 83.6 6.4 6.4-6.4 6.4-6.4-6.4z" stroke="none"/><path d="m150 83.6 6.4 6.4-6.4 6.4-6.4-6.4z" fill="none"/><path d="m170 83.6 6.4 6.4-6.4 6.4-6.4-6.4z" fill="none"/><path d="m190 83.6 6.4 6.4-6.4 6.4-6.4-6.4z" fill="none"/><path d="m210 83.6 6.4 6.4-6.4 6.4-6.4-6.4z" fill="none"/><path d="m230 83.6 6.4 6.4-6.4 6.4-6.4-6.4z" fill="none"/><path d="m250 83.6 6.4 6.4-6.4 6.4-6.4-6.4z" fill="none"/><path d="m270 83.6 6.4 6.4-6.4 6.4-6.4-6.4z" fill="none"/><path d="m290 83.6 6.4 6.4-6.4 6.4-6.4-6.4z" fill="none"/><path d="m310 83.6 6.4 6.4-6.4 6.4-6.4-6.4z" fill="none"/><path d="m10 103.6 6.4 6.4-6.4 6.4-6.4-6.4z" fill="none"/><path d="m30 103.6 6.4 6.4-6.4 6.4-6.4-6.4z" fill="none"/><path d="m50 103.6 6.4 6.4-6.4 6.4-6.4-6.4z" fill="none"/><path d="m70 103.6 6.4 6.4-6.4 6.4-6.4-6.4z" fill="none"/><path d="m90 103.6 6.4 6.4-6.4 6.4-6.4-6.4z" stroke="none"/><path d="m110 103.6 6.4 6.4-6.4 6.4-6.4-6.4z" stroke="none"/><path d="m130 103.6 6.4 6.4-6.4 6.4-6.4-6.4z" fill="none"/><path d="m150 103.6 6.4 6.4-6.4 6.4-6.4-6.4z" fill="none"/><path d="m170 103.6 6.4 6.4-6.4 6.4-6.4-6.4z" fill="none"/><path d="m190 103.6 6.4 6.4-6.4 6.4-6.4-6.4z" fill="none"/><path d="m210 103.6 6.4 6.4-6.4 6.4-6.4-6.4z" fill="none"/><path d="m230 103.6 6.4 6.4-6.4 6.4-6.4-6.4z" fill="none"/><path d="m250 103.6 6.4 6.4-6.4 6.4-6.4-6.4z" fill="none"/><path d="m270 103.6 6.4 6.4-6.4 6.4-6.4-6.4z" fill="none"/><path d="m290 103.6 6.4 6.4-6.4 6.4-6.4-6.4z" fill="none"/><path d="m310 103.6 6.4 6.4-6.4 6.4-6.4-6.4z" fill="none"/><path d="m10 123.6 6.4 6.4-6.4 6.4-6.4-6.4z" fill="none"/><path d="m30 123.6 6.4 6.4-6.4 6.4-6.4-6.4z" fill="none"/><path d="m50 123.6 6.4 6.4-6.4 6.4-6.4-6.4z" fill="none"/><path d="m70 123.6 6.4 6.4-6.4 6.4-6.4-6.4z" fill="none"/><path d="m83.6 123.6h12.8v12.8h-12.8z" fill="none"/><path d="m110 123.6 6.4 6.4-6.4 6.4-6.4-6.4z" stroke="none"/><path d="m130 123.6 6.4 6.4-6.4 6.4-6.4-6.4z" fill="none"/><path d="m150 123.6 6.4 6.4-6.4 6.4-6.4-6.4z" fill="none"/><path d="m170 123.6 6.4 6.4-6.4 6.4-6.4-6.4z" fill="none"/><path d="m190 123.6 6.4 6.4-6.4 6.4-6.4-6.4z" fill="none"/><path d="m210 123.6 6.4 6.4-6.4 6.4-6.4-6.4z" fill="none"/><path d="m230 123.6 6.4 6.4-6.4 6.4-6.4-6.4z" fill="none"/><path d="m250 123.6 6.4 6.4-6.4 6.4-6.4-6.4z" fill="none"/><path d="m270 123.6 6.4 6.4-6.4 6.4-6.4-6.4z" fill="none"/><path d="m290 123.6 6.4 6.4-6.4 6.4-6.4-6.4z" fill="none"/><path d="m310 123.6 6.4 6.4-6.4 6.4-6.4-6.4z" fill="none"/><path d="m10 143.6 6.4 6.4-6.4 6.4-6.4-6.4z" fill="none"/><path d="m30 143.6 6.4 6.4-6.4 6.4-6.4-6.4z" fill="none"/><path d="m50 143.6 6.4 6.4-6.4 6.4-6.4-6.4z" fill="none"/><path d="m70 143.6 6.4 6.4-6.4 6.4-6.4-6.4z" fill="none"/><path d="m83.6 143.6h12.8v12.8h-12.8z" fill="none"/><path d="m110 143.6 6.4 6.4-6.4 6.4-6.4-6.4z" stroke="none"/><path d="m130 143.6 6.4 6.4-6.4 6.4-6.4-6.4z" fill="none"/><path d="m150 143.6 6.4 6.4-6.4 6.4-6.4-6.4z" fill="none"/><path d="m170 143.6 6.4 6.4-6.4 6.4-6.4-6.4z" fill="none"/><path d="m190 143.6 6.4 6.4-6.4 6.4-6.4-6.4z" fill="none"/><path d="m210 143.6 6.4 6.4-6.4 6.4-6.4-6.4z" fill="none"/><path d="m230 143.6 6.4 6.4-6.4 6.4-6.4-6.4z" fill="none"/><path d="m250 143.6 6.4 6.4-6.4 6.4-6.4-6.4z" fill="none"/><path d="m270 143.6 6.4 6.4-6.4 6.4-6.4-6.4z" fill="none"/><path d="m290 143.6 6.4 6.4-6.4 6.4-6.4-6.4z" fill="none"/><path d="m310 143.6 6.4 6.4-6.4 6.4-6.4-6.4z" fill="none"/><path d="m10 163.6 6.4 6.4-6.4 6.4-6.4-6.4z" fill="none"/><path d="m30 163.6 6.4 6.4-6.4 6.4-6.4-6.4z" fill="none"/><path d="m50 163.6 6.4 6.4-6.4 6.4-6.4-6.4z" fill="none"/><path d="m70 163.6 6.4 6.4-6.4 6.4-6.4-6.4z" fill="none"/><path d="m83.6 163.6h12.8v12.8h-12.8z" fill="none"/><path d="m103.6 163.6h12.8v12.8h-12.8z" fill="none"/><path d="m130 163.6 6.4 6.4-6.4 6.4-6.4-6.4z" stroke="none"/><path d="m150 163.6 6.4 6.4-6.4 6.4-6.4-6.4z" fill="none"/><path d="m170 163.6 6.4 6.4-6.4 6.4-6.4-6.4z" fill="none"/><path d="m190 163.6 6.4 6.4-6.4 6.4-6.4-6.4z" fill="none"/><path d="m210 163.6 6.4 6.4-6.4 6.4-6.4-6.4z" fill="none"/><path d="m230 163.6 6.4 6.4-6.4 6.4-6.4-6.4z" fill="none"/><path d="m250 163.6 6.4 6.4-6.4 6.4-6.4-6.4z" fill="none"/><path d="m270 163.6 6.4 6.4-6.4 6.4-6.4-6.4z" fill="none"/><path d="m290 163.6 6.4 6.4-6.4 6.4-6.4-6.4z" fill="none"/><path d="m310 163.6 6.4 6.4-6.4 6.4-6.4-6.4z" fill="none"/><path d="m10 183.6 6.4 6.4-6.4 6.4-6.4-6.4z" fill="none"/><path d="m30 183.6 6.4 6.4-6.4 6.4-6.4-6.4z" fill="none"/><path d="m50 183.6 6.4 6.4-6.4 6.4-6.4-6.4z" fill="none"/><path d="m70 183.6 6.4 6.4-6.4 6.4-6.4-6.4z" fill="none"/><path d="m83.6 183.6h12.8v12.8h-12.8z" fill="none"/><path d="m103.6 183.6h12.8v12.8h-12.8z" fill="none"/><path d="m130 183.6 6.4 6.4-6.4 6.4-6.4-6.4z" stroke="none"/><path d="m150 183.6 6.4 6.4-6.4 6.4-6.4-6.4z" fill="none"/><path d="m170 183.6 6.4 6.4-6.4 6.4-6.4-6.4z" fill="none"/><path d="m190 183.6 6.4 6.4-6.4 6.4-6.4-6.4z" fill="none"/><path d="m210 183.6 6.4 6.4-6.4 6.4-6.4-6.4z" fill="none"/><path d="m230 183.6 6.4 6.4-6.4 6.4-6.4-6.4z" fill="none"/><path d="m250 183.6 6.4 6.4-6.4 6.4-6.4-6.4z" fill="none"/><path d="m270 183.6 6.4 6.4-6.4 6.4-6.4-6.4z" fill="none"/><path d="m290 183.6 6.4 6.4-6.4 6.4-6.4-6.4z" fill="none"/><path d="m310 183.6 6.4 6.4-6.4 6.4-6.4-6.4z" fill="none"/><path d="m10 203.6 6.4 6.4-6.4 6.4-6.4-6.4z" fill="none"/><path d="m30 203.6 6.4 6.4-6.4 6.4-6.4-6.4z" fill="none"/><path d="m50 203.6 6.4 6.4-6.4 6.4-6.4-6.4z" fill="none"/><path d="m70 203.6 6.4 6.4-6.4 6.4-6.4-6.4z" fill="none"/><path d="m90 203.6 6.4 6.4-6.4 6.4-6.4-6.4z" fill="none"/><path d="m103.6 203.6h12.8v12.8h-12.8z" fill="none"/><path d="m130 203.6 6.4 6.4-6.4 6.4-6.4-6.4z" stroke="none"/><path d="m150 203.6 6.4 6.4-6.4 6.4-6.4-6.4z" fill="none"/><path d="m170 203.6 6.4 6.4-6.4 6.4-6.4-6.4z" fill="none"/><path d="m190 203.6 6.4 6.4-6.4 6.4-6.4-6.4z" fill="none"/><path d="m210 203.6 6.4 6.4-6.4 6.4-6.4-6.4z" fill="none"/><path d="m230 203.6 6.4 6.4-6.4 6.4-6.4-6.4z" fill="none"/><path d="m250 203.6 6.4 6.4-6.4 6.4-6.4-6.4z" fill="none"/><path d="m270 203.6 6.4 6.4-6.4 6.4-6.4-6.4z" fill="none"/><path d="m290 203.6 6.4 6.4-6.4 6.4-6.4-6.4z" fill="none"/><path d="m310 203.6 6.4 6.4-6.4 6.4-6.4-6.4z" fill="none"/><path d="m10 223.6 6.4 6.4-6.4 6.4-6.4-6.4z" fill="none"/><path d="m30 223.6 6.4 6.4-6.4 6.4-6.4-6.4z" fill="none"/><path d="m50 223.6 6.4 6.4-6.4 6.4-6.4-6.4z" fill="none"/><path d="m70 223.6 6.4 6.4-6.4 6.4-6.4-6.4z" fill="none"/><path d="m90 223.6 6.4 6.4-6.4 6.4-6.4-6.4z" fill="none"/><path d="m103.6 223.6h12.8v12.8h-12.8z" fill="none"/><path d="m123.6 223.6h12.8v12.8h-12.8z" fill="none"/><path d="m150 223.6 6.4 6.4-6.4 6.4-6.4-6.4z" stroke="none"/><path d="m170 223.6 6.4 6.4-6.4 6.4-6.4-6.4z" fill="none"/><path d="m190 223.6 6.4 6.4-6.4 6.4-6.4-6.4z" fill="none"/><path d="m210 223.6 6.4 6.4-6.4 6.4-6.4-6.4z" fill="none"/><path d="m230 223.6 6.4 6.4-6.4 6.4-6.4-6.4z" fill="none"/><path d="m250 223.6 6.4 6.4-6.4 6.4-6.4-6.4z" fill="none"/><path d="m270 223.6 6.4 6.4-6.4 6.4-6.4-6.4z" fill="none"/><path d="m290 223.6 6.4 6.4-6.4 6.4-6.4-6.4z" fill="none"/><path d="m310 223.6 6.4 6.4-6.4 6.4-6.4-6.4z" fill="none"/><path d="m10 243.6 6.4 6.4-6.4 6.4-6.4-6.4z" fill="none"/><path d="m30 243.6 6.4 6.4-6.4 6.4-6.4-6.4z" fill="none"/><path d="m50 243.6 6.4 6.4-6.4 6.4-6.4-6.4z" fill="none"/><path d="m70 243.6 6.4 6.4-6.4 6.4-6.4-6.4z" fill="none"/><path d="m90 243.6 6.4 6.4-6.4 6.4-6.4-6.4z" fill="none"/><path d="m103.6 243.6h12.8v12.8h-12.8z" fill="none"/><path d="m123.6 243.6h12.8v12.8h-12.8z" fill="none"/><path d="m150 243.6 6.4 6.4-6.4 6.4-6.4-6.4z" stroke="none"/><path d="m170 243.6 6.4 6.4-6.4 6.4-6.4-6.4z" fill="none"/><path d="m190 243.6 6.4 6.4-6.4 6.4-6.4-6.4z" fill="none"/><path d="m210 243.6 6.4 6.4-6.4 6.4-6.4-6.4z" fill="none"/><path d="m230 243.6 6.4 6.4-6.4 6.4-6.4-6.4z" fill="none"/><path d="m250 243.6 6.4 6.4-6.4 6.4-6.4-6.4z" fill="none"/><path d="m270 243.6 6.4 6.4-6.4 6.4-6.4-6.4z" fill="none"/><path d="m290 243.6 6.4 6.4-6.4 6.4-6.4-6.4z" fill="none"/><path d="m310 243.6 6.4 6.4-6.4 6.4-6.4-6.4z" fill="none"/><path d="m10 263.6 6.4 6.4-6.4 6.4-6.4-6.4z" fill="none"/><path d="m30 263.6 6.4 6.4-6.4 6.4-6.4-6.4z" fill="none"/><path d="m50 263.6 6.4 6.4-6.4 6.4-6.4-6.4z" fill="none"/><path d="m70 263.6 6.4 6.4-6.4 6.4-6.4-6.4z" fill="none"/><path d="m90 263.6 6.4 6.4-6.4 6.4-6.4-6.4z" fill="none"/><path d="m103.6 263.6h12.8v12.8h-12.8z" fill="none"/><path d="m123.6 263.6h12.8v12.8h-12.8z" fill="none"/><path d="m143.6 263.6h12.8v12.8h-12.8z" fill="none"/><path d="m170 263.6 6.4 6.4-6.4 6.4-6.4-6.4z" stroke="none"/><path d="m190 263.6 6.4 6.4-6.4 6.4-6.4-6.4z" fill="none"/><path d="m210 263.6 6.4 6.4-6.4 6.4-6.4-6.4z" stroke="none"/><path d="m230 263.6 6.4 6.4-6.4 6.4-6.4-6.4z" stroke="none"/><path d="m250 263.6 6.4 6.4-6.4 6.4-6.4-6.4z" fill="none"/><path d="m270 263.6 6.4 6.4-6.4 6.4-6.4-6.4z" fill="none"/><path d="m290 263.6 6.4 6.4-6.4 6.4-6.4-6.4z" fill="none"/><path d="m310 263.6 6.4 6.4-6.4 6.4-6.4-6.4z" fill="none"/><path d="m10 283.6 6.4 6.4-6.4 6.4-6.4-6.4z" fill="none"/><path d="m30 283.6 6.4 6.4-6.4 6.4-6.4-6.4z" fill="none"/><path d="m50 283.6 6.4 6.4-6.4 6.4-6.4-6.4z" fill="none"/><path d="m70 283.6 6.4 6.4-6.4 6.4-6.4-6.4z" fill="none"/><path d="m90 283.6 6.4 6.4-6.4 6.4-6.4-6.4z" fill="none"/><path d="m110 283.6 6.4 6.4-6.4 6.4-6.4-6.4z" fill="none"/><path d="m123.6 283.6h12.8v12.8h-12.8z" fill="none"/><path d="m143.6 283.6h12.8v12.8h-12.8z" fill="none"/><path d="m170 283.6 6.4 6.4-6.4 6.4-6.4-6.4z" stroke="none"/><path d="m183.6 283.6h12.8v12.8h-12.8z" fill="none"/><path d="m203.6 283.6h12.8v12.8h-12.8z" fill="none"/><path d="m230 283.6 6.4 6.4-6.4 6.4-6.4-6.4z" stroke="none"/><path d="m250 283.6 6.4 6.4-6.4 6.4-6.4-6.4z" stroke="none"/><path d="m270 283.6 6.4 6.4-6.4 6.4-6.4-6.4z" fill="none"/><path d="m290 283.6 6.4 6.4-6.4 6.4-6.4-6.4z" fill="none"/><path d="m310 283.6 6.4 6.4-6.4 6.4-6.4-6.4z" fill="none"/><path d="m10 303.6 6.4 6.4-6.4 6.4-6.4-6.4z" fill="none"/><path d="m30 303.6 6.4 6.4-6.4 6.4-6.4-6.4z" fill="none"/><path d="m50 303.6 6.4 6.4-6.4 6.4-6.4-6.4z" fill="none"/><path d="m70 303.6 6.4 6.4-6.4 6.4-6.4-6.4z" fill="none"/><path d="m83.6 303.6h12.8v12.8h-12.8z" fill="none"/><path d="m103.6 303.6h12.8v12.8h-12.8z" fill="none"/><path d="m123.6 303.6h12.8v12.8h-12.8z" fill="none"/><path d="m143.6 303.6h12.8v12.8h-12.8z" fill="none"/><path d="m163.6 303.6h12.8v12.8h-12.8z" fill="none"/><path d="m190 303.6 6.4 6.4-6.4 6.4-6.4-6.4z" stroke="none"/><path d="m203.6 303.6h12.8v12.8h-12.8z" fill="none"/><path d="m230 303.6 6.4 6.4-6.4 6.4-6.4-6.4z" stroke="none"/><path d="m250 303.6 6.4 6.4-6.4 6.4-6.4-6.4z" stroke="none"/><path d="m270 303.6 6.4 6.4-6.4 6.4-6.4-6.4z" fill="none"/><path d="m290 303.6 6.4 6.4-6.4 6.4-6.4-6.4z" fill="none"/><path d="m310 303.6 6.4 6.4-6.4 6.4-6.4-6.4z" fill="none"/><path d="m0 0v320" fill="none" stroke="#1c30d0"/><path d="m20 0v320" fill="none" stroke="#1c30d0" stroke-width="1"/><path d="m40 0v320" fill="none" stroke="#1c30d0" stroke-width="1"/><path d="m60 0v320" fill="none" stroke="#1c30d0" stroke-width="1"/><path d="m80 0v320" fill="none" stroke="#1c30d0" stroke-width="1"/><path d="m100 0v320" fill="none" stroke="#1c30d0" stroke-width="1"/><path d="m120 0v320" fill="none" stroke="#1c30d0" stroke-width="1"/><path d="m140 0v320" fill="none" stroke="#1c30d0" stroke-width="1"/><path d="m160 0v320" fill="none" stroke="#1c30d0" stroke-width="1"/><path d="m180 0v320" fill="none" stroke="#1c30d0" stroke-width="1"/><path d="m200 0v320" fill="none" stroke="#1c30d0" stroke-width="1"/><path d="m220 0v320" fill="none" stroke="#1c30d0" stroke-width="1"/><path d="m240 0v320" fill="none" stroke="#1c30d0" stroke-width="1"/><path d="m260 0v320" fill="none" stroke="#1c30d0" stroke-width="1"/><path d="m280 0v320" fill="none" stroke="#1c30d0" stroke-width="1"/><path d="m300 0v320" fill="none" stroke="#1c30d0" stroke-width="1"/><path d="m320 0v320" fill="none" stroke="#1c30d0"/><path d="m0 0h320" fill="none" stroke="#1c30d0"/><path d="m0 20h320" fill="none" stroke="#1c30d0" stroke-width="1"/><path d="m0 40h320" fill="none" stroke="#1c30d0" stroke-width="1"/><path d="m0 60h320" fill="none" stroke="#1c30d0" stroke-width="1"/><path d="m0 80h320" fill="none" stroke="#1c30d0" stroke-width="1"/><path d="m0 100h320" fill="none" stroke="#1c30d0" stroke-width="1"/><path d="m0 120h320" fill="none" stroke="#1c30d0" stroke-width="1"/><path d="m0 140h320" fill="none" stroke="#1c30d0" stroke-width="1"/><path d="m0 160h320" fill="none" stroke="#1c30d0" stroke-width="1"/><path d="m0 180h320" fill="none" stroke="#1c30d0" stroke-width="1"/><path d="m0 200h320" fill="none" stroke="#1c30d0" stroke-width="1"/><path d="m0 220h320" fill="none" stroke="#1c30d0" stroke-width="1"/><path d="m0 240h320" fill="none" stroke="#1c30d0" stroke-width="1"/><path d="m0 260h320" fill="none" stroke="#1c30d0" stroke-width="1"/><path d="m0 280h320" fill="none" stroke="#1c30d0" stroke-width="1"/><path d="m0 300h320" fill="none" stroke="#1c30d0" stroke-width="1"/><path d="m0 320h320" fill="none" stroke="#1c30d0"/></g></g></svg>