<svg color-interpolation="auto" height="320" stroke="#000" stroke-linecap="square" stroke-miterlimit="10" width="320" xmlns="http://www.w3.org/2000/svg"><g stroke-linecap="round" stroke-width="2"><path d="m10 5.2 4.8 4.8-4.8 4.8-4.8-4.8z" fill="none"/><g><g fill="none"><path d="m30 5.2 4.8 4.8-4.8 4.8-4.8-4.8z"/><path d="m50 5.2 4.8 4.8-4.8 4.8-4.8-4.8z"/><path d="m70 5.2 4.8 4.8-4.8 4.8-4.8-4.8z"/><path d="m90 5.2 4.8 4.8-4.8 4.8-4.8-4.8z"/><path d="m110 5.2 4.8 4.8-4.8 4.8-4.8-4.8z"/><path d="m130 5.2 4.8 4.8-4.8 4.8-4.8-4.8z"/><path d="m150 5.2 4.8 4.8-4.8 4.8-4.8-4.8z"/><path d="m170 5.2 4.8 4.8-4.8 4.8-4.8-4.8z"/><path d="m190 5.2 4.8 4.8-4.8 4.8-4.8-4.8z"/><path d="m210 5.2 4.8 4.8-4.8 4.8-4.8-4.8z"/><path d="m230 5.2 4.8 4.8-4.8 4.8-4.8-4.8z"/><path d="m250 5.2 4.8 4.8-4.8 4.8-4.8-4.8z"/><path d="m270 5.2 4.8 4.8-4.8 4.8-4.8-4.8z"/><path d="m290 5.2 4.8 4.8-4.8 4.8-4.8-4.8z"/><path d="m310 5.2 4.8 4.8-4.8 4.8-4.8-4.8z"/><path d="m10 25.2 4.8 4.8-4.8 4.8-4.8-4.8z"/><path d="m30 25.2 4.8 4.8-4.8 4.8-4.8-4.8z"/><path d="m50 25.2 4.8 4.8-4.8 4.8-4.8-4.8z"/><path d="m70 25.2 4.8 4.8-4.8 4.8-4.8-4.8z"/><path d="m90 25.2 4.8 4.8-4.8 4.8-4.8-4.8z"/><path d="m110 25.2 4.8 4.8-4.8 4.8-4.8-4.8z"/><path d="m130 25.2 4.8 4.8-4.8 4.8-4.8-4.8z"/><path d="m150 25.2 4.8 4.8-4.8 4.8-4.8-4.8z"/><path d="m170 25.2 4.8 4.8-4.8 4.8-4.8-4.8z"/><path d="m190 25.2 4.8 4.8-4.8 4.8-4.8-4.8z"/><path d="m210 25.2 4.8 4.8-4.8 4.8-4.8-4.8z"/><path d="m230 25.2 4.8 4.8-4.8 4.8-4.8-4.8z"/><path d="m250 25.2 4.8 4.8-4.8 4.8-4.8-4.8z"/><path d="m270 25.2 4.8 4.8-4.8 4.8-4.8-4.8z"/><path d="m290 25.2 4.8 4.8-4.8 4.8-4.8-4.8z"/><path d="m310 25.2 4.8 4.8-4.8 4.8-4.8-4.8z"/><path d="m10 45.2 4.8 4.8-4.8 4.8-4.8-4.8z"/><path d="m30 45.2 4.8 4.8-4.8 4.8-4.8-4.8z"/><path d="m50 45.2 4.8 4.8-4.8 4.8-4.8-4.8z"/><path d="m70 45.2 4.8 4.8-4.8 4.8-4.8-4.8z"/><path d="m90 45.2 4.8 4.8-4.8 4.8-4.8-4.8z"/><path d="m110 45.2 4.8 4.8-4.8 4.8-4.8-4.8z"/><path d="m130 45.2 4.8 4.8-4.8 4.8-4.8-4.8z"/><path d="m150 45.2 4.8 4.8-4.8 4.8-4.8-4.8z"/><path d="m170 45.2 4.8 4.8-4.8 4.8-4.8-4.8z"/><path d="m190 45.2 4.8 4.8-4.8 4.8-4.8-4.8z"/><path d="m210 45.2 4.8 4.8-4.8 4.8-4.8-4.8z"/><path d="m230 45.2 4.8 4.8-4.8 4.8-4.8-4.8z"/><path d="m250 45.2 4.8 4.8-4.8 4.8-4.8-4.8z"/><path d="m270 45.2 4.8 4.8-4.8 4.8-4.8-4.8z"/><path d="m290 45.2 4.8 4.8-4.8 4.8-4.8-4.8z"/><path d="m310 45.2 4.8 4.8-4.8 4.8-4.8-4.8z"/><path d="m10 65.2 4.8 4.8-4.8 4.8-4.8-4.8z"/><path d="m30 65.2 4.8 4.8-4.8 4.8-4.8-4.8z"/><path d="m50 65.2 4.8 4.8-4.8 4.8-4.8-4.8z"/><path d="m70 65.2 4.8 4.8-4.8 4.8-4.8-4.8z"/><path d="m90 65.2 4.8 4.8-4.8 4.8-4.8-4.8z"/><path d="m110 65.2 4.8 4.8-4.8 4.8-4.8-4.8z"/><path d="m130 65.2 4.8 4.8-4.8 4.8-4.8-4.8z"/><path d="m150 65.2 4.8 4.8-4.8 4.8-4.8-4.8z"/><path d="m170 65.2 4.8 4.8-4.8 4.8-4.8-4.8z"/><path d="m190 65.2 4.8 4.8-4.8 4.8-4.8-4.8z"/><path d="m210 65.2 4.8 4.8-4.8 4.8-4.8-4.8z"/><path d="m230 65.2 4.8 4.8-4.8 4.8-4.8-4.8z"/><path d="m250 65.2 4.8 4.8-4.8 4.8-4.8-4.8z"/><path d="m270 65.2 4.8 4.8-4.8 4.8-4.8-4.8z"/><path d="m290 65.2 4.8 4.8-4.8 4.8-4.8-4.8z"/><path d="m310 65.2 4.8 4.8-4.8 4.8-4.8-4.8z"/><path d="m10 85.2 4.8 4.8-4.8 4.8-4.8-4.8z"/><path d="m30 85.2 4.8 4.8-4.8 4.8-4.8-4.8z"/><path d="m50 85.2 4.8 4.8-4.8 4.8-4.8-4.8z"/><path d="m70 85.2 4.8 4.8-4.8 4.8-4.8-4.8z"/><path d="m90 85.2 4.8 4.8-4.8 4.8-4.8-4.8z"/></g><circle cx="110" cy="90" r="4.8" stroke="none"/><circle cx="130" cy="90" r="4.8" stroke="none"/><path d="m150 85.2 4.8 4.8-4.8 4.8-4.8-4.8z" fill="none"/><path d="m170 85.2 4.8 4.8-4.8 4.8-4.8-4.8z" fill="none"/><path d="m190 85.2 4.8 4.8-4.8 4.8-4.8-4.8z" fill="none"/><path d="m210 85.2 4.8 4.8-4.8 4.8-4.8-4.8z" fill="none"/><path d="m230 85.2 4.8 4.8-4.8 4.8-4.8-4.8z" fill="none"/><path d="m250 85.2 4.8 4.8-4.8 4.8-4.8-4.8z" fill="none"/><path d="m270 85.2 4.8 4.8-4.8 4.8-4.8-4.8z" fill="none"/><path d="m290 85.2 4.8 4.8-4.8 4.8-4.8-4.8z" fill="none"/><path d="m310 85.2 4.8 4.8-4.8 4.8-4.8-4.8z" fill="none"/><path d="m10 105.2 4.8 4.8-4.8 4.8-4.8-4.8z" fill="none"/><path d="m30 105.2 4.8 4.8-4.8 4.8-4.8-4.8z" fill="none"/><path d="m50 105.2 4.8 4.8-4.8 4.8-4.8-4.8z" fill="none"/><path d="m70 105.2 4.8 4.8-4.8 4.8-4.8-4.8z" fill="none"/><circle cx="90" cy="110" r="4.8" stroke="none"/><circle cx="110" cy="110" r="4.8" stroke="none"/><path d="m130 105.2 4.8 4.8-4.8 4.8-4.8-4.8z" fill="none"/><path d="m150 105.2 4.8 4.8-4.8 4.8-4.8-4.8z" fill="none"/><path d="m170 105.2 4.8 4.8-4.8 4.8-4.8-4.8z" fill="none"/><path d="m190 105.2 4.8 4.8-4.8 4.8-4.8-4.8z" fill="none"/><path d="m210 105.2 4.8 4.8-4.8 4.8-4.8-4.8z" fill="none"/><path d="m230 105.2 4.8 4.8-4.8 4.8-4.8-4.8z" fill="none"/><path d="m250 105.2 4.8 4.8-4.8 4.8-4.8-4.8z" fill="none"/><path d="m270 105.2 4.8 4.8-4.8 4.8-4.8-4.8z" fill="none"/><path d="m290 105.2 4.8 4.8-4.8 4.8-4.8-4.8z" fill="none"/><path d="m310 105.2 4.8 4.8-4.8 4.8-4.8-4.8z" fill="none"/><path d="m10 125.2 4.8 4.8-4.8 4.8-4.8-4.8z" fill="none"/><path d="m30 125.2 4.8 4.8-4.8 4.8-4.8-4.8z" fill="none"/><path d="m50 125.2 4.8 4.8-4.8 4.8-4.8-4.8z" fill="none"/><path d="m70 125.2 4.8 4.8-4.8 4.8-4.8-4.8z" fill="none"/><path d="m90 130h4.8" fill="none" stroke-width="1.5"/><path d="m90 130 2.4 4.1569" fill="none" stroke-width="1.5"/><path d="m90 130-2.4 4.1569" fill="none" stroke-width="1.5"/><path d="m90 130h-4.8" fill="none" stroke-width="1.5"/><path d="m90 130-2.4-4.1569" fill="none" stroke-width="1.5"/><path d="m90 130 2.4-4.1569" fill="none" stroke-width="1.5"/><circle cx="110" cy="130" r="4.8" stroke="none"/><path d="m130 125.2 4.8 4.8-4.8 4.8-4.8-4.8z" fill="none"/><path d="m150 125.2 4.8 4.8-4.8 4.8-4.8-4.8z" fill="none"/><path d="m170 125.2 4.8 4.8-4.8 4.8-4.8-4.8z" fill="none"/><path d="m190 125.2 4.8 4.8-4.8 4.8-4.8-4.8z" fill="none"/><path d="m210 125.2 4.8 4.8-4.8 4.8-4.8-4.8z" fill="none"/><path d="m230 125.2 4.8 4.8-4.8 4.8-4.8-4.8z" fill="none"/><path d="m250 125.2 4.8 4.8-4.8 4.8-4.8-4.8z" fill="none"/><path d="m270 125.2 4.8 4.8-4.8 4.8-4.8-4.8z" fill="none"/><path d="m290 125.2 4.8 4.8-4.8 4.8-4.8-4.8z" fill="none"/><path d="m310 125.2 4.8 4.8-4.8 4.8-4.8-4.8z" fill="none"/><path d="m10 145.2 4.8 4.8-4.8 4.8-4.8-4.8z" fill="none"/><path d="m30 145.2 4.8 4.8-4.8 4.8-4.8-4.8z" fill="none"/><path d="m50 145.2 4.8 4.8-4.8 4.8-4.8-4.8z" fill="none"/><path d="m70 145.2 4.8 4.8-4.8 4.8-4.8-4.8z" fill="none"/><path d="m90 150h4.8" fill="none" stroke-width="1.5"/><path d="m90 150 2.4 4.1569" fill="none" stroke-width="1.5"/><path d="m90 150-2.4 4.1569" fill="none" stroke-width="1.5"/><path d="m90 150h-4.8" fill="none" stroke-width="1.5"/><path d="m90 150-2.4-4.1569" fill="none" stroke-width="1.5"/><path d="m90 150 2.4-4.1569" fill="none" stroke-width="1.5"/><circle cx="110" cy="150" r="4.8" stroke="none"/><path d="m130 145.2 4.8 4.8-4.8 4.8-4.8-4.8z" fill="none"/><path d="m150 145.2 4.8 4.8-4.8 4.8-4.8-4.8z" fill="none"/><path d="m170 145.2 4.8 4.8-4.8 4.8-4.8-4.8z" fill="none"/><path d="m190 145.2 4.8 4.8-4.8 4.8-4.8-4.8z" fill="none"/><path d="m210 145.2 4.8 4.8-4.8 4.8-4.8-4.8z" fill="none"/><path d="m230 145.2 4.8 4.8-4.8 4.8-4.8-4.8z" fill="none"/><path d="m250 145.2 4.8 4.8-4.8 4.8-4.8-4.8z" fill="none"/><path d="m270 145.2 4.8 4.8-4.8 4.8-4.8-4.8z" fill="none"/><path d="m290 145.2 4.8 4.8-4.8 4.8-4.8-4.8z" fill="none"/><path d="m310 145.2 4.8 4.8-4.8 4.8-4.8-4.8z" fill="none"/><path d="m10 165.2 4.8 4.8-4.8 4.8-4.8-4.8z" fill="none"/><path d="m30 165.2 4.8 4.8-4.8 4.8-4.8-4.8z" fill="none"/><path d="m50 165.2 4.8 4.8-4.8 4.8-4.8-4.8z" fill="none"/><path d="m70 165.2 4.8 4.8-4.8 4.8-4.8-4.8z" fill="none"/><path d="m90 170h4.8" fill="none" stroke-width="1.5"/><path d="m90 170 2.4 4.1569" fill="none" stroke-width="1.5"/><path d="m90 170-2.4 4.1569" fill="none" stroke-width="1.5"/><path d="m90 170h-4.8" fill="none" stroke-width="1.5"/><path d="m90 170-2.4-4.1569" fill="none" stroke-width="1.5"/><path d="m90 170 2.4-4.1569" fill="none" stroke-width="1.5"/><path d="m110 170h4.8" fill="none" stroke-width="1.5"/><path d="m110 170 2.4 4.1569" fill="none" stroke-width="1.5"/><path d="m110 170-2.4 4.1569" fill="none" stroke-width="1.5"/><path d="m110 170h-4.8" fill="none" stroke-width="1.5"/><path d="m110 170-2.4-4.1569" fill="none" stroke-width="1.5"/><path d="m110 170 2.4-4.1569" fill="none" stroke-width="1.5"/><circle cx="130" cy="170" r="4.8" stroke="none"/><path d="m150 165.2 4.8 4.8-4.8 4.8-4.8-4.8z" fill="none"/><path d="m170 165.2 4.8 4.8-4.8 4.8-4.8-4.8z" fill="none"/><path d="m190 165.2 4.8 4.8-4.8 4.8-4.8-4.8z" fill="none"/><path d="m210 165.2 4.8 4.8-4.8 4.8-4.8-4.8z" fill="none"/><path d="m230 165.2 4.8 4.8-4.8 4.8-4.8-4.8z" fill="none"/><path d="m250 165.2 4.8 4.8-4.8 4.8-4.8-4.8z" fill="none"/><path d="m270 165.2 4.8 4.8-4.8 4.8-4.8-4.8z" fill="none"/><path d="m290 165.2 4.8 4.8-4.8 4.8-4.8-4.8z" fill="none"/><path d="m310 165.2 4.8 4.8-4.8 4.8-4.8-4.8z" fill="none"/><path d="m10 185.2 4.8 4.8-4.8 4.8-4.8-4.8z" fill="none"/><path d="m30 185.2 4.8 4.8-4.8 4.8-4.8-4.8z" fill="none"/><path d="m50 185.2 4.8 4.8-4.8 4.8-4.8-4.8z" fill="none"/><path d="m70 185.2 4.8 4.8-4.8 4.8-4.8-4.8z" fill="none"/><path d="m90 190h4.8" fill="none" stroke-width="1.5"/><path d="m90 190 2.4 4.1569" fill="none" stroke-width="1.5"/><path d="m90 190-2.4 4.1569" fill="none" stroke-width="1.5"/><path d="m90 190h-4.8" fill="none" stroke-width="1.5"/><path d="m90 190-2.4-4.1569" fill="none" stroke-width="1.5"/><path d="m90 190 2.4-4.1569" fill="none" stroke-width="1.5"/><path d="m110 190h4.8" fill="none" stroke-width="1.5"/><path d="m110 190 2.4 4.1569" fill="none" stroke-width="1.5"/><path d="m110 190-2.4 4.1569" fill="none" stroke-width="1.5"/><path d="m110 190h-4.8" fill="none" stroke-width="1.5"/><path d="m110 190-2.4-4.1569" fill="none" stroke-width="1.5"/><path d="m110 190 2.4-4.1569" fill="none" stroke-width="1.5"/><circle cx="130" cy="190" r="4.8" stroke="none"/><path d="m150 185.2 4.8 4.8-4.8 4.8-4.8-4.8z" fill="none"/><path d="m170 185.2 4.8 4.8-4.8 4.8-4.8-4.8z" fill="none"/><path d="m190 185.2 4.8 4.8-4.8 4.8-4.8-4.8z" fill="none"/><path d="m210 185.2 4.8 4.8-4.8 4.8-4.8-4.8z" fill="none"/><path d="m230 185.2 4.8 4.8-4.8 4.8-4.8-4.8z" fill="none"/><path d="m250 185.2 4.8 4.8-4.8 4.8-4.8-4.8z" fill="none"/><path d="m270 185.2 4.8 4.8-4.8 4.8-4.8-4.8z" fill="none"/><path d="m290 185.2 4.8 4.8-4.8 4.8-4.8-4.8z" fill="none"/><path d="m310 185.2 4.8 4.8-4.8 4.8-4.8-4.8z" fill="none"/><path d="m10 205.2 4.8 4.8-4.8 4.8-4.8-4.8z" fill="none"/><path d="m30 205.2 4.8 4.8-4.8 4.8-4.8-4.8z" fill="none"/><path d="m50 205.2 4.8 4.8-4.8 4.8-4.8-4.8z" fill="none"/><path d="m70 205.2 4.8 4.8-4.8 4.8-4.8-4.8z" fill="none"/><path d="m90 205.2 4.8 4.8-4.8 4.8-4.8-4.8z" fill="none"/><path d="m110 210h4.8" fill="none" stroke-width="1.5"/><path d="m110 210 2.4 4.1569" fill="none" stroke-width="1.5"/><path d="m110 210-2.4 4.1569" fill="none" stroke-width="1.5"/><path d="m110 210h-4.8" fill="none" stroke-width="1.5"/><path d="m110 210-2.4-4.1569" fill="none" stroke-width="1.5"/><path d="m110 210 2.4-4.1569" fill="none" stroke-width="1.5"/><circle cx="130" cy="210" r="4.8" stroke="none"/><path d="m150 205.2 4.8 4.8-4.8 4.8-4.8-4.8z" fill="none"/><path d="m170 205.2 4.8 4.8-4.8 4.8-4.8-4.8z" fill="none"/><path d="m190 205.2 4.8 4.8-4.8 4.8-4.8-4.8z" fill="none"/><path d="m210 205.2 4.8 4.8-4.8 4.8-4.8-4.8z" fill="none"/><path d="m230 205.2 4.8 4.8-4.8 4.8-4.8-4.8z" fill="none"/><path d="m250 205.2 4.8 4.8-4.8 4.8-4.8-4.8z" fill="none"/><path d="m270 205.2 4.8 4.8-4.8 4.8-4.8-4.8z" fill="none"/><path d="m290 205.2 4.8 4.8-4.8 4.8-4.8-4.8z" fill="none"/><path d="m310 205.2 4.8 4.8-4.8 4.8-4.8-4.8z" fill="none"/><path d="m10 225.2 4.8 4.8-4.8 4.8-4.8-4.8z" fill="none"/><path d="m30 225.2 4.8 4.8-4.8 4.8-4.8-4.8z" fill="none"/><path d="m50 225.2 4.8 4.8-4.8 4.8-4.8-4.8z" fill="none"/><path d="m70 225.2 4.8 4.8-4.8 4.8-4.8-4.8z" fill="none"/><path d="m90 225.2 4.8 4.8-4.8 4.8-4.8-4.8z" fill="none"/><path d="m110 230h4.8" fill="none" stroke-width="1.5"/><path d="m110 230 2.4 4.1569" fill="none" stroke-width="1.5"/><path d="m110 230-2.4 4.1569" fill="none" stroke-width="1.5"/><path d="m110 230h-4.8" fill="none" stroke-width="1.5"/><path d="m110 230-2.4-4.1569" fill="none" stroke-width="1.5"/><path d="m110 230 2.4-4.1569" fill="none" stroke-width="1.5"/><path d="m130 230h4.8" fill="none" stroke-width="1.5"/><path d="m130 230 2.4 4.1569" fill="none" stroke-width="1.5"/><path d="m130 230-2.4 4.1569" fill="none" stroke-width="1.5"/><path d="m130 230h-4.8" fill="none" stroke-width="1.5"/><path d="m130 230-2.4-4.1569" fill="none" stroke-width="1.5"/><path d="m130 230 2.4-4.1569" fill="none" stroke-width="1.5"/><circle cx="150" cy="230" r="4.8" stroke="none"/><path d="m170 225.2 4.8 4.8-4.8 4.8-4.8-4.8z" fill="none"/><path d="m190 225.2 4.8 4.8-4.8 4.8-4.8-4.8z" fill="none"/><path d="m210 225.2 4.8 4.8-4.8 4.8-4.8-4.8z" fill="none"/><path d="m230 225.2 4.8 4.8-4.8 4.8-4.8-4.8z" fill="none"/><path d="m250 225.2 4.8 4.8-4.8 4.8-4.8-4.8z" fill="none"/><path d="m270 225.2 4.8 4.8-4.8 4.8-4.8-4.8z" fill="none"/><path d="m290 225.2 4.8 4.8-4.8 4.8-4.8-4.8z" fill="none"/><path d="m310 225.2 4.8 4.8-4.8 4.8-4.8-4.8z" fill="none"/><path d="m10 245.2 4.8 4.8-4.8 4.8-4.8-4.8z" fill="none"/><path d="m30 245.2 4.8 4.8-4.8 4.8-4.8-4.8z" fill="none"/><path d="m50 245.2 4.8 4.8-4.8 4.8-4.8-4.8z" fill="none"/><path d="m70 245.2 4.8 4.8-4.8 4.8-4.8-4.8z" fill="none"/><path d="m90 245.2 4.8 4.8-4.8 4.8-4.8-4.8z" fill="none"/><path d="m110 250h4.8" fill="none" stroke-width="1.5"/><path d="m110 250 2.4 4.1569" fill="none" stroke-width="1.5"/><path d="m110 250-2.4 4.1569" fill="none" stroke-width="1.5"/><path d="m110 250h-4.8" fill="none" stroke-width="1.5"/><path d="m110 250-2.4-4.1569" fill="none" stroke-width="1.5"/><path d="m110 250 2.4-4.1569" fill="none" stroke-width="1.5"/><path d="m130 250h4.8" fill="none" stroke-width="1.5"/><path d="m130 250 2.4 4.1569" fill="none" stroke-width="1.5"/><path d="m130 250-2.4 4.1569" fill="none" stroke-width="1.5"/><path d="m130 250h-4.8" fill="none" stroke-width="1.5"/><path d="m130 250-2.4-4.1569" fill="none" stroke-width="1.5"/><path d="m130 250 2.4-4.1569" fill="none" stroke-width="1.5"/><circle cx="150" cy="250" r="4.8" stroke="none"/><path d="m170 245.2 4.8 4.8-4.8 4.8-4.8-4.8z" fill="none"/><path d="m190 245.2 4.8 4.8-4.8 4.8-4.8-4.8z" fill="none"/><path d="m210 245.2 4.8 4.8-4.8 4.8-4.8-4.8z" fill="none"/><path d="m230 245.2 4.8 4.8-4.8 4.8-4.8-4.8z" fill="none"/><path d="m250 245.2 4.8 4.8-4.8 4.8-4.8-4.8z" fill="none"/><path d="m270 245.2 4.8 4.8-4.8 4.8-4.8-4.8z" fill="none"/><path d="m290 245.2 4.8 4.8-4.8 4.8-4.8-4.8z" fill="none"/><path d="m310 245.2 4.8 4.8-4.8 4.8-4.8-4.8z" fill="none"/><path d="m10 265.2 4.8 4.8-4.8 4.8-4.8-4.8z" fill="none"/><path d="m30 265.2 4.8 4.8-4.8 4.8-4.8-4.8z" fill="none"/><path d="m50 265.2 4.8 4.8-4.8 4.8-4.8-4.8z" fill="none"/><path d="m70 265.2 4.8 4.8-4.8 4.8-4.8-4.8z" fill="none"/><path d="m90 265.2 4.8 4.8-4.8 4.8-4.8-4.8z" fill="none"/><path d="m110 270h4.8" fill="none" stroke-width="1.5"/><path d="m110 270 2.4 4.1569" fill="none" stroke-width="1.5"/><path d="m110 270-2.4 4.1569" fill="none" stroke-width="1.5"/><path d="m110 270h-4.8" fill="none" stroke-width="1.5"/><path d="m110 270-2.4-4.1569" fill="none" stroke-width="1.5"/><path d="m110 270 2.4-4.1569" fill="none" stroke-width="1.5"/><path d="m130 270h4.8" fill="none" stroke-width="1.5"/><path d="m130 270 2.4 4.1569" fill="none" stroke-width="1.5"/><path d="m130 270-2.4 4.1569" fill="none" stroke-width="1.5"/><path d="m130 270h-4.8" fill="none" stroke-width="1.5"/><path d="m130 270-2.4-4.1569" fill="none" stroke-width="1.5"/><path d="m130 270 2.4-4.1569" fill="none" stroke-width="1.5"/><path d="m150 270h4.8" fill="none" stroke-width="1.5"/><path d="m150 270 2.4 4.1569" fill="none" stroke-width="1.5"/><path d="m150 270-2.4 4.1569" fill="none" stroke-width="1.5"/><path d="m150 270h-4.8" fill="none" stroke-width="1.5"/><path d="m150 270-2.4-4.1569" fill="none" stroke-width="1.5"/><path d="m150 270 2.4-4.1569" fill="none" stroke-width="1.5"/><circle cx="170" cy="270" r="4.8" stroke="none"/><path d="m190 265.2 4.8 4.8-4.8 4.8-4.8-4.8z" fill="none"/><circle cx="210" cy="270" r="4.8" stroke="none"/><circle cx="230" cy="270" r="4.8" stroke="none"/><path d="m250 265.2 4.8 4.8-4.8 4.8-4.8-4.8z" fill="none"/><path d="m270 265.2 4.8 4.8-4.8 4.8-4.8-4.8z" fill="none"/><path d="m290 265.2 4.8 4.8-4.8 4.8-4.8-4.8z" fill="none"/><path d="m310 265.2 4.8 4.8-4.8 4.8-4.8-4.8z" fill="none"/><path d="m10 285.2 4.8 4.8-4.8 4.8-4.8-4.8z" fill="none"/><path d="m30 285.2 4.8 4.8-4.8 4.8-4.8-4.8z" fill="none"/><path d="m50 285.2 4.8 4.8-4.8 4.8-4.8-4.8z" fill="none"/><path d="m70 285.2 4.8 4.8-4.8 4.8-4.8-4.8z" fill="none"/><path d="m90 285.2 4.8 4.8-4.8 4.8-4.8-4.8z" fill="none"/><path d="m110 285.2 4.8 4.8-4.8 4.8-4.8-4.8z" fill="none"/><path d="m130 290h4.8" fill="none" stroke-width="1.5"/><path d="m130 290 2.4 4.1569" fill="none" stroke-width="1.5"/><path d="m130 290-2.4 4.1569" fill="none" stroke-width="1.5"/><path d="m130 290h-4.8" fill="none" stroke-width="1.5"/><path d="m130 290-2.4-4.1569" fill="none" stroke-width="1.5"/><path d="m130 290 2.4-4.1569" fill="none" stroke-width="1.5"/><path d="m150 290h4.8" fill="none" stroke-width="1.5"/><path d="m150 290 2.4 4.1569" fill="none" stroke-width="1.5"/><path d="m150 290-2.4 4.1569" fill="none" stroke-width="1.5"/><path d="m150 290h-4.8" fill="none" stroke-width="1.5"/><path d="m150 290-2.4-4.1569" fill="none" stroke-width="1.5"/><path d="m150 290 2.4-4.1569" fill="none" stroke-width="1.5"/><circle cx="170" cy="290" r="4.8" stroke="none"/><path d="m190 290h4.8" fill="none" stroke-width="1.5"/><path d="m190 290 2.4 4.1569" fill="none" stroke-width="1.5"/><path d="m190 290-2.4 4.1569" fill="none" stroke-width="1.5"/><path d="m190 290h-4.8" fill="none" stroke-width="1.5"/><path d="m190 290-2.4-4.1569" fill="none" stroke-width="1.5"/><path d="m190 290 2.4-4.1569" fill="none" stroke-width="1.5"/><path d="m210 290h4.8" fill="none" stroke-width="1.5"/><path d="m210 290 2.4 4.1569" fill="none" stroke-width="1.5"/><path d="m210 290-2.4 4.1569" fill="none" stroke-width="1.5"/><path d="m210 290h-4.8" fill="none" stroke-width="1.5"/><path d="m210 290-2.4-4.1569" fill="none" stroke-width="1.5"/><path d="m210 290 2.4-4.1569" fill="none" stroke-width="1.5"/><circle cx="230" cy="290" r="4.8" stroke="none"/><circle cx="250" cy="290" r="4.8" stroke="none"/><path d="m270 285.2 4.8 4.8-4.8 4.8-4.8-4.8z" fill="none"/><path d="m290 285.2 4.8 4.8-4.8 4.8-4.8-4.8z" fill="none"/><path d="m310 285.2 4.8 4.8-4.8 4.8-4.8-4.8z" fill="none"/><path d="m10 305.2 4.8 4.8-4.8 4.8-4.8-4.8z" fill="none"/><path d="m30 305.2 4.8 4.8-4.8 4.8-4.8-4.8z" fill="none"/><path d="m50 305.2 4.8 4.8-4.8 4.8-4.8-4.8z" fill="none"/><path d="m70 305.2 4.8 4.8-4.8 4.8-4.8-4.8z" fill="none"/><path d="m90 310h4.8" fill="none" stroke-width="1.5"/><path d="m90 310 2.4 4.1569" fill="none" stroke-width="1.5"/><path d="m90 310-2.4 4.1569" fill="none" stroke-width="1.5"/><path d="m90 310h-4.8" fill="none" stroke-width="1.5"/><path d="m90 310-2.4-4.1569" fill="none" stroke-width="1.5"/><path d="m90 310 2.4-4.1569" fill="none" stroke-width="1.5"/><path d="m110 310h4.8" fill="none" stroke-width="1.5"/><path d="m110 310 2.4 4.1569" fill="none" stroke-width="1.5"/><path d="m110 310-2.4 4.1569" fill="none" stroke-width="1.5"/><path d="m110 310h-4.8" fill="none" stroke-width="1.5"/><path d="m110 310-2.4-4.1569" fill="none" stroke-width="1.5"/><path d="m110 310 2.4-4.1569" fill="none" stroke-width="1.5"/><path d="m130 310h4.8" fill="none" stroke-width="1.5"/><path d="m130 310 2.4 4.1569" fill="none" stroke-width="1.5"/><path d="m130 310-2.4 4.1569" fill="none" stroke-width="1.5"/><path d="m130 310h-4.8" fill="none" stroke-width="1.5"/><path d="m130 310-2.4-4.1569" fill="none" stroke-width="1.5"/><path d="m130 310 2.4-4.1569" fill="none" stroke-width="1.5"/><path d="m150 310h4.8" fill="none" stroke-width="1.5"/><path d="m150 310 2.4 4.1569" fill="none" stroke-width="1.5"/><path d="m150 310-2.4 4.1569" fill="none" stroke-width="1.5"/><path d="m150 310h-4.8" fill="none" stroke-width="1.5"/><path d="m150 310-2.4-4.1569" fill="none" stroke-width="1.5"/><path d="m150 310 2.4-4.1569" fill="none" stroke-width="1.5"/><path d="m170 310h4.8" fill="none" stroke-width="1.5"/><path d="m170 310 2.4 4.1569" fill="none" stroke-width="1.5"/><path d="m170 310-2.4 4.1569" fill="none" stroke-width="1.5"/><path d="m170 310h-4.8" fill="none" stroke-width="1.5"/><path d="m170 310-2.4-4.1569" fill="none" stroke-width="1.5"/><path d="m170 310 2.4-4.1569" fill="none" stroke-width="1.5"/><circle cx="190" cy="310" r="4.8" stroke="none"/><path d="m210 310h4.8" fill="none" stroke-width="1.5"/><path d="m210 310 2.4 4.1569" fill="none" stroke-width="1.5"/><path d="m210 310-2.4 4.1569" fill="none" stroke-width="1.5"/><path d="m210 310h-4.8" fill="none" stroke-width="1.5"/><path d="m210 310-2.4-4.1569" fill="none" stroke-width="1.5"/><path d="m210 310 2.4-4.1569" fill="none" stroke-width="1.5"/><circle cx="230" cy="310" r="4.8" stroke="none"/><circle cx="250" cy="310" r="4.8" stroke="none"/><path d="m270 305.2 4.8 4.8-4.8 4.8-4.8-4.8z" fill="none"/><path d="m290 305.2 4.8 4.8-4.8 4.8-4.8-4.8z" fill="none"/><path d="m310 305.2 4.8 4.8-4.8 4.8-4.8-4.8z" fill="none"/><path d="m0 0v320" fill="none" stroke="#b4b4b4"/><path d="m20 0v320" fill="none" stroke="#b4b4b4" stroke-width="1"/><path d="m40 0v320" fill="none" stroke="#b4b4b4" stroke-width="1"/><path d="m60 0v320" fill="none" stroke="#b4b4b4" stroke-width="1"/><path d="m80 0v320" fill="none" stroke="#b4b4b4" stroke-width="1"/><path d="m100 0v320" fill="none" stroke="#b4b4b4" stroke-width="1"/><path d="m120 0v320" fill="none" stroke="#b4b4b4" stroke-width="1"/><path d="m140 0v320" fill="none" stroke="#b4b4b4" stroke-width="1"/><path d="m160 0v320" fill="none" stroke="#b4b4b4" stroke-width="1"/><path d="m180 0v320" fill="none" stroke="#b4b4b4" stroke-width="1"/><path d="m200 0v320" fill="none" stroke="#b4b4b4" stroke-width="1"/><path d="m220 0v320" fill="none" stroke="#b4b4b4" stroke-width="1"/><path d="m240 0v320" fill="none" stroke="#b4b4b4" stroke-width="1"/><path d="m260 0v320" fill="none" stroke="#b4b4b4" stroke-width="1"/><path d="m280 0v320" fill="none" stroke="#b4b4b4" stroke-width="1"/><path d="m300 0v320" fill="none" stroke="#b4b4b4" stroke-width="1"/><path d="m320 0v320" fill="none" stroke="#b4b4b4"/><path d="m0 0h320" fill="none" stroke="#b4b4b4"/><path d="m0 20h320" fill="none" stroke="#b4b4b4" stroke-width="1"/><path d="m0 40h320" fill="none" stroke="#b4b4b4" stroke-width="1"/><path d="m0 60h320" fill="none" stroke="#b4b4b4" stroke-width="1"/><path d="m0 80h320" fill="none" stroke="#b4b4b4" stroke-width="1"/><path d="m0 100h320" fill="none" stroke="#b4b4b4" stroke-width="1"/><path d="m0 120h320" fill="none" stroke="#b4b4b4" stroke-width="1"/><path d="m0 140h320" fill="none" stroke="#b4b4b4" stroke-width="1"/><path d="m0 160h320" fill="none" stroke="#b4b4b4" stroke-width="1"/><path d="m0 180h320" fill="none" stroke="#b4b4b4" stroke-width="1"/><path d="m0 200h320" fill="none" stroke="#b4b4b4" stroke-width="1"/><path d="m0 220h320" fill="none" stroke="#b4b4b4" stroke-width="1"/><path d="m0 240h320" fill="none" stroke="#b4b4b4" stroke-width="1"/><path d="m0 260h320" fill="none" stroke="#b4b4b4" stroke-width="1"/><path d="m0 280h320" fill="none" stroke="#b4b4b4" stroke-width="1"/><path d="m0 300h320" fill="none" stroke="#b4b4b4" stroke-width="1"/><path d="m0 320h320" fill="none" stroke="#b4b4b4"/></g></g></svg>