<svg color-interpolation="auto" height="320" stroke="#000" stroke-linecap="square" stroke-miterlimit="10" width="320" xmlns="http://www.w3.org/2000/svg"><g stroke-linecap="round" stroke-width="2"><circle cx="10" cy="10" fill="none" r="6.4"/><g><g fill="none"><circle cx="30" cy="10" r="6.4"/><circle cx="50" cy="10" r="6.4"/><circle cx="70" cy="10" r="6.4"/><circle cx="90" cy="10" r="6.4"/><circle cx="110" cy="10" r="6.4"/><circle cx="130" cy="10" r="6.4"/><circle cx="150" cy="10" r="6.4"/><circle cx="170" cy="10" r="6.4"/><circle cx="190" cy="10" r="6.4"/><circle cx="210" cy="10" r="6.4"/><circle cx="230" cy="10" r="6.4"/><circle cx="250" cy="10" r="6.4"/><circle cx="270" cy="10" r="6.4"/><circle cx="290" cy="10" r="6.4"/><circle cx="310" cy="10" r="6.4"/><circle cx="10" cy="30" r="6.4"/><circle cx="30" cy="30" r="6.4"/><circle cx="50" cy="30" r="6.4"/><circle cx="70" cy="30" r="6.4"/><circle cx="90" cy="30" r="6.4"/><circle cx="110" cy="30" r="6.4"/><circle cx="130" cy="30" r="6.4"/><circle cx="150" cy="30" r="6.4"/><circle cx="170" cy="30" r="6.4"/><circle cx="190" cy="30" r="6.4"/><circle cx="210" cy="30" r="6.4"/><circle cx="230" cy="30" r="6.4"/><circle cx="250" cy="30" r="6.4"/><circle cx="270" cy="30" r="6.4"/><circle cx="290" cy="30" r="6.4"/><circle cx="310" cy="30" r="6.4"/><circle cx="10" cy="50" r="6.4"/><circle cx="30" cy="50" r="6.4"/><circle cx="50" cy="50" r="6.4"/><circle cx="70" cy="50" r="6.4"/><circle cx="90" cy="50" r="6.4"/><circle cx="110" cy="50" r="6.4"/><circle cx="130" cy="50" r="6.4"/><circle cx="150" cy="50" r="6.4"/><circle cx="170" cy="50" r="6.4"/><circle cx="190" cy="50" r="6.4"/><circle cx="210" cy="50" r="6.4"/><circle cx="230" cy="50" r="6.4"/><circle cx="250" cy="50" r="6.4"/><circle cx="270" cy="50" r="6.4"/><circle cx="290" cy="50" r="6.4"/><circle cx="310" cy="50" r="6.4"/><circle cx="10" cy="70" r="6.4"/><circle cx="30" cy="70" r="6.4"/><circle cx="50" cy="70" r="6.4"/><circle cx="70" cy="70" r="6.4"/><circle cx="90" cy="70" r="6.4"/><circle cx="110" cy="70" r="6.4"/><circle cx="130" cy="70" r="6.4"/><circle cx="150" cy="70" r="6.4"/><circle cx="170" cy="70" r="6.4"/><circle cx="190" cy="70" r="6.4"/><circle cx="210" cy="70" r="6.4"/><circle cx="230" cy="70" r="6.4"/><circle cx="250" cy="70" r="6.4"/><circle cx="270" cy="70" r="6.4"/><circle cx="290" cy="70" r="6.4"/><circle cx="310" cy="70" r="6.4"/><circle cx="10" cy="90" r="6.4"/><circle cx="30" cy="90" r="6.4"/><circle cx="50" cy="90" r="6.4"/><circle cx="70" cy="90" r="6.4"/><circle cx="90" cy="90" r="6.4"/></g><path d="m110 84.2099-6.4 11.0851h12.8z" stroke="none"/><path d="m130 84.2099-6.4 11.0851h12.8z" stroke="none"/><circle cx="150" cy="90" fill="none" r="6.4"/><circle cx="170" cy="90" fill="none" r="6.4"/><circle cx="190" cy="90" fill="none" r="6.4"/><circle cx="210" cy="90" fill="none" r="6.4"/><circle cx="230" cy="90" fill="none" r="6.4"/><circle cx="250" cy="90" fill="none" r="6.4"/><circle cx="270" cy="90" fill="none" r="6.4"/><circle cx="290" cy="90" fill="none" r="6.4"/><circle cx="310" cy="90" fill="none" r="6.4"/><circle cx="10" cy="110" fill="none" r="6.4"/><circle cx="30" cy="110" fill="none" r="6.4"/><circle cx="50" cy="110" fill="none" r="6.4"/><circle cx="70" cy="110" fill="none" r="6.4"/><path d="m90 104.2099-6.4 11.0851h12.8z" stroke="none"/><path d="m110 104.2099-6.4 11.0851h12.8z" stroke="none"/><circle cx="130" cy="110" fill="none" r="6.4"/><circle cx="150" cy="110" fill="none" r="6.4"/><circle cx="170" cy="110" fill="none" r="6.4"/><circle cx="190" cy="110" fill="none" r="6.4"/><circle cx="210" cy="110" fill="none" r="6.4"/><circle cx="230" cy="110" fill="none" r="6.4"/><circle cx="250" cy="110" fill="none" r="6.4"/><circle cx="270" cy="110" fill="none" r="6.4"/><circle cx="290" cy="110" fill="none" r="6.4"/><circle cx="310" cy="110" fill="none" r="6.4"/><circle cx="10" cy="130" fill="none" r="6.4"/><circle cx="30" cy="130" fill="none" r="6.4"/><circle cx="50" cy="130" fill="none" r="6.4"/><circle cx="70" cy="130" fill="none" r="6.4"/><path d="m85.2 130h9.6" fill="none"/><path d="m90 125.2v9.6" fill="none"/><path d="m110 124.2099-6.4 11.0851h12.8z" stroke="none"/><circle cx="130" cy="130" fill="none" r="6.4"/><circle cx="150" cy="130" fill="none" r="6.4"/><circle cx="170" cy="130" fill="none" r="6.4"/><circle cx="190" cy="130" fill="none" r="6.4"/><circle cx="210" cy="130" fill="none" r="6.4"/><circle cx="230" cy="130" fill="none" r="6.4"/><circle cx="250" cy="130" fill="none" r="6.4"/><circle cx="270" cy="130" fill="none" r="6.4"/><circle cx="290" cy="130" fill="none" r="6.4"/><circle cx="310" cy="130" fill="none" r="6.4"/><circle cx="10" cy="150" fill="none" r="6.4"/><circle cx="30" cy="150" fill="none" r="6.4"/><circle cx="50" cy="150" fill="none" r="6.4"/><circle cx="70" cy="150" fill="none" r="6.4"/><path d="m85.2 150h9.6" fill="none"/><path d="m90 145.2v9.6" fill="none"/><path d="m110 144.2099-6.4 11.0851h12.8z" stroke="none"/><circle cx="130" cy="150" fill="none" r="6.4"/><circle cx="150" cy="150" fill="none" r="6.4"/><circle cx="170" cy="150" fill="none" r="6.4"/><circle cx="190" cy="150" fill="none" r="6.4"/><circle cx="210" cy="150" fill="none" r="6.4"/><circle cx="230" cy="150" fill="none" r="6.4"/><circle cx="250" cy="150" fill="none" r="6.4"/><circle cx="270" cy="150" fill="none" r="6.4"/><circle cx="290" cy="150" fill="none" r="6.4"/><circle cx="310" cy="150" fill="none" r="6.4"/><circle cx="10" cy="170" fill="none" r="6.4"/><circle cx="30" cy="170" fill="none" r="6.4"/><circle cx="50" cy="170" fill="none" r="6.4"/><circle cx="70" cy="170" fill="none" r="6.4"/><path d="m85.2 170h9.6" fill="none"/><path d="m90 165.2v9.6" fill="none"/><path d="m105.2 170h9.6" fill="none"/><path d="m110 165.2v9.6" fill="none"/><path d="m130 164.2099-6.4 11.0851h12.8z" stroke="none"/><circle cx="150" cy="170" fill="none" r="6.4"/><circle cx="170" cy="170" fill="none" r="6.4"/><circle cx="190" cy="170" fill="none" r="6.4"/><circle cx="210" cy="170" fill="none" r="6.4"/><circle cx="230" cy="170" fill="none" r="6.4"/><circle cx="250" cy="170" fill="none" r="6.4"/><circle cx="270" cy="170" fill="none" r="6.4"/><circle cx="290" cy="170" fill="none" r="6.4"/><circle cx="310" cy="170" fill="none" r="6.4"/><circle cx="10" cy="190" fill="none" r="6.4"/><circle cx="30" cy="190" fill="none" r="6.4"/><circle cx="50" cy="190" fill="none" r="6.4"/><circle cx="70" cy="190" fill="none" r="6.4"/><path d="m85.2 190h9.6" fill="none"/><path d="m90 185.2v9.6" fill="none"/><path d="m105.2 190h9.6" fill="none"/><path d="m110 185.2v9.6" fill="none"/><path d="m130 184.2099-6.4 11.0851h12.8z" stroke="none"/><circle cx="150" cy="190" fill="none" r="6.4"/><circle cx="170" cy="190" fill="none" r="6.4"/><circle cx="190" cy="190" fill="none" r="6.4"/><circle cx="210" cy="190" fill="none" r="6.4"/><circle cx="230" cy="190" fill="none" r="6.4"/><circle cx="250" cy="190" fill="none" r="6.4"/><circle cx="270" cy="190" fill="none" r="6.4"/><circle cx="290" cy="190" fill="none" r="6.4"/><circle cx="310" cy="190" fill="none" r="6.4"/><circle cx="10" cy="210" fill="none" r="6.4"/><circle cx="30" cy="210" fill="none" r="6.4"/><circle cx="50" cy="210" fill="none" r="6.4"/><circle cx="70" cy="210" fill="none" r="6.4"/><circle cx="90" cy="210" fill="none" r="6.4"/><path d="m105.2 210h9.6" fill="none"/><path d="m110 205.2v9.6" fill="none"/><path d="m130 204.2099-6.4 11.0851h12.8z" stroke="none"/><circle cx="150" cy="210" fill="none" r="6.4"/><circle cx="170" cy="210" fill="none" r="6.4"/><circle cx="190" cy="210" fill="none" r="6.4"/><circle cx="210" cy="210" fill="none" r="6.4"/><circle cx="230" cy="210" fill="none" r="6.4"/><circle cx="250" cy="210" fill="none" r="6.4"/><circle cx="270" cy="210" fill="none" r="6.4"/><circle cx="290" cy="210" fill="none" r="6.4"/><circle cx="310" cy="210" fill="none" r="6.4"/><circle cx="10" cy="230" fill="none" r="6.4"/><circle cx="30" cy="230" fill="none" r="6.4"/><circle cx="50" cy="230" fill="none" r="6.4"/><circle cx="70" cy="230" fill="none" r="6.4"/><circle cx="90" cy="230" fill="none" r="6.4"/><path d="m105.2 230h9.6" fill="none"/><path d="m110 225.2v9.6" fill="none"/><path d="m125.2 230h9.6" fill="none"/><path d="m130 225.2v9.6" fill="none"/><path d="m150 224.2099-6.4 11.0851h12.8z" stroke="none"/><circle cx="170" cy="230" fill="none" r="6.4"/><circle cx="190" cy="230" fill="none" r="6.4"/><circle cx="210" cy="230" fill="none" r="6.4"/><circle cx="230" cy="230" fill="none" r="6.4"/><circle cx="250" cy="230" fill="none" r="6.4"/><circle cx="270" cy="230" fill="none" r="6.4"/><circle cx="290" cy="230" fill="none" r="6.4"/><circle cx="310" cy="230" fill="none" r="6.4"/><circle cx="10" cy="250" fill="none" r="6.4"/><circle cx="30" cy="250" fill="none" r="6.4"/><circle cx="50" cy="250" fill="none" r="6.4"/><circle cx="70" cy="250" fill="none" r="6.4"/><circle cx="90" cy="250" fill="none" r="6.4"/><path d="m105.2 250h9.6" fill="none"/><path d="m110 245.2v9.6" fill="none"/><path d="m125.2 250h9.6" fill="none"/><path d="m130 245.2v9.6" fill="none"/><path d="m150 244.2099-6.4 11.0851h12.8z" stroke="none"/><circle cx="170" cy="250" fill="none" r="6.4"/><circle cx="190" cy="250" fill="none" r="6.4"/><circle cx="210" cy="250" fill="none" r="6.4"/><circle cx="230" cy="250" fill="none" r="6.4"/><circle cx="250" cy="250" fill="none" r="6.4"/><circle cx="270" cy="250" fill="none" r="6.4"/><circle cx="290" cy="250" fill="none" r="6.4"/><circle cx="310" cy="250" fill="none" r="6.4"/><circle cx="10" cy="270" fill="none" r="6.4"/><circle cx="30" cy="270" fill="none" r="6.4"/><circle cx="50" cy="270" fill="none" r="6.4"/><circle cx="70" cy="270" fill="none" r="6.4"/><circle cx="90" cy="270" fill="none" r="6.4"/><path d="m105.2 270h9.6" fill="none"/><path d="m110 265.2v9.6" fill="none"/><path d="m125.2 270h9.6" fill="none"/><path d="m130 265.2v9.6" fill="none"/><path d="m145.2 270h9.6" fill="none"/><path d="m150 265.2v9.6" fill="none"/><path d="m170 264.2099-6.4 11.0851h12.8z" stroke="none"/><circle cx="190" cy="270" fill="none" r="6.4"/><path d="m210 264.2099-6.4 11.0851h12.8z" stroke="none"/><path d="m230 264.2099-6.4 11.0851h12.8z" stroke="none"/><circle cx="250" cy="270" fill="none" r="6.4"/><circle cx="270" cy="270" fill="none" r="6.4"/><circle cx="290" cy="270" fill="none" r="6.4"/><circle cx="310" cy="270" fill="none" r="6.4"/><circle cx="10" cy="290" fill="none" r="6.4"/><circle cx="30" cy="290" fill="none" r="6.4"/><circle cx="50" cy="290" fill="none" r="6.4"/><circle cx="70" cy="290" fill="none" r="6.4"/><circle cx="90" cy="290" fill="none" r="6.4"/><circle cx="110" cy="290" fill="none" r="6.4"/><path d="m125.2 290h9.6" fill="none"/><path d="m130 285.2v9.6" fill="none"/><path d="m145.2 290h9.6" fill="none"/><path d="m150 285.2v9.6" fill="none"/><path d="m170 284.2099-6.4 11.0851h12.8z" stroke="none"/><path d="m185.2 290h9.6" fill="none"/><path d="m190 285.2v9.6" fill="none"/><path d="m205.2 290h9.6" fill="none"/><path d="m210 285.2v9.6" fill="none"/><path d="m230 284.2099-6.4 11.0851h12.8z" stroke="none"/><path d="m250 284.2099-6.4 11.0851h12.8z" stroke="none"/><circle cx="270" cy="290" fill="none" r="6.4"/><circle cx="290" cy="290" fill="none" r="6.4"/><circle cx="310" cy="290" fill="none" r="6.4"/><circle cx="10" cy="310" fill="none" r="6.4"/><circle cx="30" cy="310" fill="none" r="6.4"/><circle cx="50" cy="310" fill="none" r="6.4"/><circle cx="70" cy="310" fill="none" r="6.4"/><path d="m85.2 310h9.6" fill="none"/><path d="m90 305.2v9.6" fill="none"/><path d="m105.2 310h9.6" fill="none"/><path d="m110 305.2v9.6" fill="none"/><path d="m125.2 310h9.6" fill="none"/><path d="m130 305.2v9.6" fill="none"/><path d="m145.2 310h9.6" fill="none"/><path d="m150 305.2v9.6" fill="none"/><path d="m165.2 310h9.6" fill="none"/><path d="m170 305.2v9.6" fill="none"/><path d="m190 304.2099-6.4 11.0851h12.8z" stroke="none"/><path d="m205.2 310h9.6" fill="none"/><path d="m210 305.2v9.6" fill="none"/><path d="m230 304.2099-6.4 11.0851h12.8z" stroke="none"/><path d="m250 304.2099-6.4 11.0851h12.8z" stroke="none"/><circle cx="270" cy="310" fill="none" r="6.4"/><circle cx="290" cy="310" fill="none" r="6.4"/><circle cx="310" cy="310" fill="none" r="6.4"/><path d="m0 0v320" fill="none" stroke="#b4b4b4" stroke-width="3"/><path d="m20 0v320" fill="none" stroke="#b4b4b4" stroke-width="1.5"/><path d="m40 0v320" fill="none" stroke="#b4b4b4" stroke-width="1.5"/><path d="m60 0v320" fill="none" stroke="#b4b4b4" stroke-width="1.5"/><path d="m80 0v320" fill="none" stroke="#b4b4b4" stroke-width="1.5"/><path d="m100 0v320" fill="none" stroke="#b4b4b4" stroke-width="1.5"/><path d="m120 0v320" fill="none" stroke="#b4b4b4" stroke-width="1.5"/><path d="m140 0v320" fill="none" stroke="#b4b4b4" stroke-width="1.5"/><path d="m160 0v320" fill="none" stroke="#b4b4b4" stroke-width="1.5"/><path d="m180 0v320" fill="none" stroke="#b4b4b4" stroke-width="1.5"/><path d="m200 0v320" fill="none" stroke="#b4b4b4" stroke-width="1.5"/><path d="m220 0v320" fill="none" stroke="#b4b4b4" stroke-width="1.5"/><path d="m240 0v320" fill="none" stroke="#b4b4b4" stroke-width="1.5"/><path d="m260 0v320" fill="none" stroke="#b4b4b4" stroke-width="1.5"/><path d="m280 0v320" fill="none" stroke="#b4b4b4" stroke-width="1.5"/><path d="m300 0v320" fill="none" stroke="#b4b4b4" stroke-width="1.5"/><path d="m320 0v320" fill="none" stroke="#b4b4b4" stroke-width="3"/><path d="m0 0h320" fill="none" stroke="#b4b4b4" stroke-width="3"/><path d="m0 20h320" fill="none" stroke="#b4b4b4" stroke-width="1.5"/><path d="m0 40h320" fill="none" stroke="#b4b4b4" stroke-width="1.5"/><path d="m0 60h320" fill="none" stroke="#b4b4b4" stroke-width="1.5"/><path d="m0 80h320" fill="none" stroke="#b4b4b4" stroke-width="1.5"/><path d="m0 100h320" fill="none" stroke="#b4b4b4" stroke-width="1.5"/><path d="m0 120h320" fill="none" stroke="#b4b4b4" stroke-width="1.5"/><path d="m0 140h320" fill="none" stroke="#b4b4b4" stroke-width="1.5"/><path d="m0 160h320" fill="none" stroke="#b4b4b4" stroke-width="1.5"/><path d="m0 180h320" fill="none" stroke="#b4b4b4" stroke-width="1.5"/><path d="m0 200h320" fill="none" stroke="#b4b4b4" stroke-width="1.5"/><path d="m0 220h320" fill="none" stroke="#b4b4b4" stroke-width="1.5"/><path d="m0 240h320" fill="none" stroke="#b4b4b4" stroke-width="1.5"/><path d="m0 260h320" fill="none" stroke="#b4b4b4" stroke-width="1.5"/><path d="m0 280h320" fill="none" stroke="#b4b4b4" stroke-width="1.5"/><path d="m0 300h320" fill="none" stroke="#b4b4b4" stroke-width="1.5"/><path d="m0 320h320" fill="none" stroke="#b4b4b4" stroke-width="3"/></g></g></svg>