<svg color-interpolation="auto" height="480" stroke="#000" stroke-linecap="square" stroke-miterlimit="10" width="480" xmlns="http://www.w3.org/2000/svg"><g stroke-linecap="round" stroke-width="2"><path d="m170 63.6 6.4 6.4-6.4 6.4-6.4-6.4z" fill="none"/><g><g fill="none"><path d="m190 63.6 6.4 6.4-6.4 6.4-6.4-6.4z"/><path d="m210 63.6 6.4 6.4-6.4 6.4-6.4-6.4z"/><path d="m230 63.6 6.4 6.4-6.4 6.4-6.4-6.4z"/><path d="m250 63.6 6.4 6.4-6.4 6.4-6.4-6.4z"/><path d="m270 63.6 6.4 6.4-6.4 6.4-6.4-6.4z"/><path d="m290 63.6 6.4 6.4-6.4 6.4-6.4-6.4z"/><path d="m130 83.6 6.4 6.4-6.4 6.4-6.4-6.4z"/><path d="m150 83.6 6.4 6.4-6.4 6.4-6.4-6.4z"/><path d="m170 83.6 6.4 6.4-6.4 6.4-6.4-6.4z"/><path d="m190 83.6 6.4 6.4-6.4 6.4-6.4-6.4z"/><path d="m210 83.6 6.4 6.4-6.4 6.4-6.4-6.4z"/><path d="m230 83.6 6.4 6.4-6.4 6.4-6.4-6.4z"/><path d="m250 83.6 6.4 6.4-6.4 6.4-6.4-6.4z"/><path d="m270 83.6 6.4 6.4-6.4 6.4-6.4-6.4z"/><path d="m290 83.6 6.4 6.4-6.4 6.4-6.4-6.4z"/><path d="m310 83.6 6.4 6.4-6.4 6.4-6.4-6.4z"/><path d="m330 83.6 6.4 6.4-6.4 6.4-6.4-6.4z"/><path d="m103.6 103.6 12.8 12.8"/><path d="m103.6 116.4 12.8-12.8"/><path d="m130 103.6 6.4 6.4-6.4 6.4-6.4-6.4z"/><path d="m143.6 103.6 12.8 12.8"/><path d="m143.6 116.4 12.8-12.8"/><path d="m170 103.6 6.4 6.4-6.4 6.4-6.4-6.4z"/><path d="m190 103.6 6.4 6.4-6.4 6.4-6.4-6.4z"/><path d="m210 103.6 6.4 6.4-6.4 6.4-6.4-6.4z"/><path d="m230 103.6 6.4 6.4-6.4 6.4-6.4-6.4z"/><path d="m250 103.6 6.4 6.4-6.4 6.4-6.4-6.4z"/><path d="m270 103.6 6.4 6.4-6.4 6.4-6.4-6.4z"/><path d="m290 103.6 6.4 6.4-6.4 6.4-6.4-6.4z"/><path d="m310 103.6 6.4 6.4-6.4 6.4-6.4-6.4z"/><path d="m330 103.6 6.4 6.4-6.4 6.4-6.4-6.4z"/><path d="m350 103.6 6.4 6.4-6.4 6.4-6.4-6.4z"/><path d="m370 103.6 6.4 6.4-6.4 6.4-6.4-6.4z"/><path d="m83.6 123.6 12.8 12.8"/><path d="m83.6 136.4 12.8-12.8"/><path d="m103.6 123.6 12.8 12.8"/><path d="m103.6 136.4 12.8-12.8"/><path d="m123.6 123.6 12.8 12.8"/><path d="m123.6 136.4 12.8-12.8"/><path d="m143.6 123.6 12.8 12.8"/><path d="m143.6 136.4 12.8-12.8"/><path d="m170 123.6 6.4 6.4-6.4 6.4-6.4-6.4z"/><path d="m183.6 123.6 12.8 12.8"/><path d="m183.6 136.4 12.8-12.8"/><path d="m210 123.6 6.4 6.4-6.4 6.4-6.4-6.4z"/><path d="m230 123.6 6.4 6.4-6.4 6.4-6.4-6.4z"/><path d="m250 123.6 6.4 6.4-6.4 6.4-6.4-6.4z"/><path d="m270 123.6 6.4 6.4-6.4 6.4-6.4-6.4z"/><path d="m290 123.6 6.4 6.4-6.4 6.4-6.4-6.4z"/><path d="m310 123.6 6.4 6.4-6.4 6.4-6.4-6.4z"/><path d="m330 123.6 6.4 6.4-6.4 6.4-6.4-6.4z"/><path d="m350 123.6 6.4 6.4-6.4 6.4-6.4-6.4z"/><path d="m363.6 123.6 12.8 12.8"/><path d="m363.6 136.4 12.8-12.8"/><path d="m390 123.6 6.4 6.4-6.4 6.4-6.4-6.4z"/><path d="m70 143.6 6.4 6.4-6.4 6.4-6.4-6.4z"/><path d="m83.6 143.6 12.8 12.8"/><path d="m83.6 156.4 12.8-12.8"/><path d="m103.6 143.6 12.8 12.8"/><path d="m103.6 156.4 12.8-12.8"/><path d="m130 143.6 6.4 6.4-6.4 6.4-6.4-6.4z"/><path d="m143.6 143.6 12.8 12.8"/><path d="m143.6 156.4 12.8-12.8"/><path d="m170 143.6 6.4 6.4-6.4 6.4-6.4-6.4z"/><path d="m183.6 143.6 12.8 12.8"/><path d="m183.6 156.4 12.8-12.8"/><path d="m210 143.6 6.4 6.4-6.4 6.4-6.4-6.4z"/><path d="m230 143.6 6.4 6.4-6.4 6.4-6.4-6.4z"/><path d="m250 143.6 6.4 6.4-6.4 6.4-6.4-6.4z"/><path d="m270 143.6 6.4 6.4-6.4 6.4-6.4-6.4z"/><path d="m283.6 143.6 12.8 12.8"/><path d="m283.6 156.4 12.8-12.8"/><path d="m310 143.6 6.4 6.4-6.4 6.4-6.4-6.4z"/><path d="m323.6 143.6 12.8 12.8"/><path d="m323.6 156.4 12.8-12.8"/><path d="m350 143.6 6.4 6.4-6.4 6.4-6.4-6.4z"/><path d="m370 143.6 6.4 6.4-6.4 6.4-6.4-6.4z"/><path d="m383.6 143.6 12.8 12.8"/><path d="m383.6 156.4 12.8-12.8"/><path d="m410 143.6 6.4 6.4-6.4 6.4-6.4-6.4z"/><path d="m70 163.6 6.4 6.4-6.4 6.4-6.4-6.4z"/><path d="m90 163.6 6.4 6.4-6.4 6.4-6.4-6.4z"/><path d="m103.6 163.6 12.8 12.8"/><path d="m103.6 176.4 12.8-12.8"/><path d="m130 163.6 6.4 6.4-6.4 6.4-6.4-6.4z"/><path d="m150 163.6 6.4 6.4-6.4 6.4-6.4-6.4z"/><path d="m163.6 163.6 12.8 12.8"/><path d="m163.6 176.4 12.8-12.8"/><path d="m190 163.6 6.4 6.4-6.4 6.4-6.4-6.4z"/><path d="m203.6 163.6 12.8 12.8"/><path d="m203.6 176.4 12.8-12.8"/><path d="m230 163.6 6.4 6.4-6.4 6.4-6.4-6.4z"/><path d="m250 163.6 6.4 6.4-6.4 6.4-6.4-6.4z"/><path d="m270 163.6 6.4 6.4-6.4 6.4-6.4-6.4z"/><path d="m283.6 163.6 12.8 12.8"/><path d="m283.6 176.4 12.8-12.8"/><path d="m310 163.6 6.4 6.4-6.4 6.4-6.4-6.4z"/><path d="m330 163.6 6.4 6.4-6.4 6.4-6.4-6.4z"/><path d="m343.6 163.6 12.8 12.8"/><path d="m343.6 176.4 12.8-12.8"/><path d="m370 163.6 6.4 6.4-6.4 6.4-6.4-6.4z"/><path d="m390 163.6 6.4 6.4-6.4 6.4-6.4-6.4z"/><path d="m410 163.6 6.4 6.4-6.4 6.4-6.4-6.4z"/><path d="m50 183.6 6.4 6.4-6.4 6.4-6.4-6.4z"/><path d="m70 183.6 6.4 6.4-6.4 6.4-6.4-6.4z"/><path d="m90 183.6 6.4 6.4-6.4 6.4-6.4-6.4z"/><path d="m110 183.6 6.4 6.4-6.4 6.4-6.4-6.4z"/><path d="m130 183.6 6.4 6.4-6.4 6.4-6.4-6.4z"/><path d="m150 183.6 6.4 6.4-6.4 6.4-6.4-6.4z"/><path d="m170 183.6 6.4 6.4-6.4 6.4-6.4-6.4z"/><path d="m190 183.6 6.4 6.4-6.4 6.4-6.4-6.4z"/><path d="m210 183.6 6.4 6.4-6.4 6.4-6.4-6.4z"/><path d="m230 183.6 6.4 6.4-6.4 6.4-6.4-6.4z"/><path d="m250 183.6 6.4 6.4-6.4 6.4-6.4-6.4z"/><path d="m270 183.6 6.4 6.4-6.4 6.4-6.4-6.4z"/><path d="m290 183.6 6.4 6.4-6.4 6.4-6.4-6.4z"/><path d="m303.6 183.6 12.8 12.8"/><path d="m303.6 196.4 12.8-12.8"/><path d="m330 183.6 6.4 6.4-6.4 6.4-6.4-6.4z"/><path d="m350 183.6 6.4 6.4-6.4 6.4-6.4-6.4z"/><path d="m370 183.6 6.4 6.4-6.4 6.4-6.4-6.4z"/><path d="m390 183.6 6.4 6.4-6.4 6.4-6.4-6.4z"/><path d="m410 183.6 6.4 6.4-6.4 6.4-6.4-6.4z"/><path d="m430 183.6 6.4 6.4-6.4 6.4-6.4-6.4z"/><path d="m50 203.6 6.4 6.4-6.4 6.4-6.4-6.4z"/><path d="m70 203.6 6.4 6.4-6.4 6.4-6.4-6.4z"/><path d="m90 204.2099-6.4 11.0851h12.8z"/><path d="m110 203.6 6.4 6.4-6.4 6.4-6.4-6.4z"/><path d="m130 203.6 6.4 6.4-6.4 6.4-6.4-6.4z"/><path d="m150 203.6 6.4 6.4-6.4 6.4-6.4-6.4z"/><path d="m170 203.6 6.4 6.4-6.4 6.4-6.4-6.4z"/><path d="m190 203.6 6.4 6.4-6.4 6.4-6.4-6.4z"/><path d="m210 204.2099-6.4 11.0851h12.8z"/><path d="m230 203.6 6.4 6.4-6.4 6.4-6.4-6.4z"/><path d="m250 203.6 6.4 6.4-6.4 6.4-6.4-6.4z"/><path d="m270 203.6 6.4 6.4-6.4 6.4-6.4-6.4z"/><path d="m290 203.6 6.4 6.4-6.4 6.4-6.4-6.4z"/><path d="m310 203.6 6.4 6.4-6.4 6.4-6.4-6.4z"/><path d="m323.6 203.6 12.8 12.8"/><path d="m323.6 216.4 12.8-12.8"/><path d="m350 203.6 6.4 6.4-6.4 6.4-6.4-6.4z"/><path d="m370 203.6 6.4 6.4-6.4 6.4-6.4-6.4z"/><path d="m390 203.6 6.4 6.4-6.4 6.4-6.4-6.4z"/><path d="m410 203.6 6.4 6.4-6.4 6.4-6.4-6.4z"/><path d="m430 203.6 6.4 6.4-6.4 6.4-6.4-6.4z"/><path d="m50 223.6 6.4 6.4-6.4 6.4-6.4-6.4z"/><path d="m70 223.6 6.4 6.4-6.4 6.4-6.4-6.4z"/></g><path d="m90 223.6 6.4 6.4-6.4 6.4-6.4-6.4z" stroke="none"/><path d="m110 224.2099-6.4 11.0851h12.8z" fill="none"/><path d="m130 223.6 6.4 6.4-6.4 6.4-6.4-6.4z" fill="none"/><path d="m150 223.6 6.4 6.4-6.4 6.4-6.4-6.4z" fill="none"/><path d="m170 223.6 6.4 6.4-6.4 6.4-6.4-6.4z" fill="none"/><path d="m190 223.6 6.4 6.4-6.4 6.4-6.4-6.4z" fill="none"/><path d="m210 223.6 6.4 6.4-6.4 6.4-6.4-6.4z" stroke="none"/><path d="m230 223.6 6.4 6.4-6.4 6.4-6.4-6.4z" fill="none"/><path d="m250 223.6 6.4 6.4-6.4 6.4-6.4-6.4z" fill="none"/><path d="m270 223.6 6.4 6.4-6.4 6.4-6.4-6.4z" fill="none"/><path d="m290 223.6 6.4 6.4-6.4 6.4-6.4-6.4z" fill="none"/><path d="m310 223.6 6.4 6.4-6.4 6.4-6.4-6.4z" fill="none"/><path d="m330 223.6 6.4 6.4-6.4 6.4-6.4-6.4z" fill="none"/><path d="m350 223.6 6.4 6.4-6.4 6.4-6.4-6.4z" fill="none"/><path d="m370 223.6 6.4 6.4-6.4 6.4-6.4-6.4z" fill="none"/><path d="m390 223.6 6.4 6.4-6.4 6.4-6.4-6.4z" fill="none"/><path d="m410 223.6 6.4 6.4-6.4 6.4-6.4-6.4z" fill="none"/><path d="m430 223.6 6.4 6.4-6.4 6.4-6.4-6.4z" fill="none"/><path d="m50 243.6 6.4 6.4-6.4 6.4-6.4-6.4z" fill="none"/><path d="m70 244.2099-6.4 11.0851h12.8z" stroke="none"/><path d="m85.2 250h9.6" fill="none"/><path d="m90 245.2v9.6" fill="none"/><path d="m110 243.6 6.4 6.4-6.4 6.4-6.4-6.4z" stroke="none"/><path d="m130 244.2099-6.4 11.0851h12.8z" fill="none"/><path d="m150 243.6 6.4 6.4-6.4 6.4-6.4-6.4z" fill="none"/><path d="m170 243.6 6.4 6.4-6.4 6.4-6.4-6.4z" fill="none"/><path d="m190 244.2099-6.4 11.0851h12.8z" stroke="none"/><path d="m205.2 250h9.6" fill="none"/><path d="m210 245.2v9.6" fill="none"/><path d="m230 243.6 6.4 6.4-6.4 6.4-6.4-6.4z" stroke="none"/><path d="m250 243.6 6.4 6.4-6.4 6.4-6.4-6.4z" fill="none"/><path d="m270 243.6 6.4 6.4-6.4 6.4-6.4-6.4z" fill="none"/><path d="m290 244.2099-6.4 11.0851h12.8z" fill="none"/><path d="m310 243.6 6.4 6.4-6.4 6.4-6.4-6.4z" fill="none"/><path d="m330 243.6 6.4 6.4-6.4 6.4-6.4-6.4z" fill="none"/><path d="m350 243.6 6.4 6.4-6.4 6.4-6.4-6.4z" fill="none"/><path d="m370 243.6 6.4 6.4-6.4 6.4-6.4-6.4z" fill="none"/><path d="m390 243.6 6.4 6.4-6.4 6.4-6.4-6.4z" fill="none"/><path d="m410 243.6 6.4 6.4-6.4 6.4-6.4-6.4z" fill="none"/><path d="m430 243.6 6.4 6.4-6.4 6.4-6.4-6.4z" fill="none"/><path d="m50 263.6 6.4 6.4-6.4 6.4-6.4-6.4z" fill="none"/><path d="m70 264.2099-6.4 11.0851h12.8z" stroke="none"/><path d="m85.2 270h9.6" fill="none"/><path d="m90 265.2v9.6" fill="none"/><path d="m110 263.6 6.4 6.4-6.4 6.4-6.4-6.4z" stroke="none"/><path d="m130 264.2099-6.4 11.0851h12.8z" fill="none"/><path d="m150 263.6 6.4 6.4-6.4 6.4-6.4-6.4z" fill="none"/><path d="m170 263.6 6.4 6.4-6.4 6.4-6.4-6.4z" fill="none"/><path d="m190 264.2099-6.4 11.0851h12.8z" stroke="none"/><path d="m205.2 270h9.6" fill="none"/><path d="m210 265.2v9.6" fill="none"/><path d="m230 263.6 6.4 6.4-6.4 6.4-6.4-6.4z" stroke="none"/><path d="m250 264.2099-6.4 11.0851h12.8z" fill="none"/><path d="m270 263.6 6.4 6.4-6.4 6.4-6.4-6.4z" fill="none"/><path d="m290 264.2099-6.4 11.0851h12.8z" fill="none"/><path d="m310 263.6 6.4 6.4-6.4 6.4-6.4-6.4z" fill="none"/><path d="m330 263.6 6.4 6.4-6.4 6.4-6.4-6.4z" fill="none"/><path d="m350 263.6 6.4 6.4-6.4 6.4-6.4-6.4z" fill="none"/><path d="m370 263.6 6.4 6.4-6.4 6.4-6.4-6.4z" fill="none"/><path d="m390 263.6 6.4 6.4-6.4 6.4-6.4-6.4z" fill="none"/><path d="m410 263.6 6.4 6.4-6.4 6.4-6.4-6.4z" fill="none"/><path d="m50 283.6 6.4 6.4-6.4 6.4-6.4-6.4z" fill="none"/><path d="m70 284.2099-6.4 11.0851h12.8z" fill="none"/><path d="m90 284.2099-6.4 11.0851h12.8z" stroke="none"/><path d="m105.2 290h9.6" fill="none"/><path d="m110 285.2v9.6" fill="none"/><path d="m130 284.2099-6.4 11.0851h12.8z" fill="none"/><path d="m150 284.2099-6.4 11.0851h12.8z" fill="none"/><path d="m170 283.6 6.4 6.4-6.4 6.4-6.4-6.4z" fill="none"/><path d="m190 284.2099-6.4 11.0851h12.8z" fill="none"/><path d="m210 284.2099-6.4 11.0851h12.8z" stroke="none"/><path d="m225.2 290h9.6" fill="none"/><path d="m230 285.2v9.6" fill="none"/><path d="m250 284.2099-6.4 11.0851h12.8z" fill="none"/><path d="m270 284.2099-6.4 11.0851h12.8z" fill="none"/><path d="m290 283.6 6.4 6.4-6.4 6.4-6.4-6.4z" fill="none"/><path d="m310 283.6 6.4 6.4-6.4 6.4-6.4-6.4z" fill="none"/><path d="m330 284.2099-6.4 11.0851h12.8z" fill="none"/><path d="m350 284.2099-6.4 11.0851h12.8z" fill="none"/><path d="m370 283.6 6.4 6.4-6.4 6.4-6.4-6.4z" fill="none"/><path d="m390 283.6 6.4 6.4-6.4 6.4-6.4-6.4z" fill="none"/><path d="m410 283.6 6.4 6.4-6.4 6.4-6.4-6.4z" fill="none"/><path d="m70 303.6 6.4 6.4-6.4 6.4-6.4-6.4z" fill="none"/><path d="m90 304.2099-6.4 11.0851h12.8z" fill="none"/><path d="m110 304.2099-6.4 11.0851h12.8z" fill="none"/><path d="m130 304.2099-6.4 11.0851h12.8z" fill="none"/><path d="m150 304.2099-6.4 11.0851h12.8z" fill="none"/><path d="m170 304.2099-6.4 11.0851h12.8z" fill="none"/><path d="m190 304.2099-6.4 11.0851h12.8z" fill="none"/><path d="m210 304.2099-6.4 11.0851h12.8z" fill="none"/><path d="m230 304.2099-6.4 11.0851h12.8z" fill="none"/><path d="m250 304.2099-6.4 11.0851h12.8z" fill="none"/><path d="m270 304.2099-6.4 11.0851h12.8z" fill="none"/><path d="m290 303.6 6.4 6.4-6.4 6.4-6.4-6.4z" fill="none"/><path d="m310 303.6 6.4 6.4-6.4 6.4-6.4-6.4z" fill="none"/><path d="m330 304.2099-6.4 11.0851h12.8z" fill="none"/><path d="m350 303.6 6.4 6.4-6.4 6.4-6.4-6.4z" fill="none"/><path d="m370 303.6 6.4 6.4-6.4 6.4-6.4-6.4z" fill="none"/><path d="m390 303.6 6.4 6.4-6.4 6.4-6.4-6.4z" fill="none"/><path d="m70 323.6 6.4 6.4-6.4 6.4-6.4-6.4z" fill="none"/><path d="m90 324.2099-6.4 11.0851h12.8z" fill="none"/><path d="m110 324.2099-6.4 11.0851h12.8z" fill="none"/><path d="m130 324.2099-6.4 11.0851h12.8z" fill="none"/><path d="m150 324.2099-6.4 11.0851h12.8z" fill="none"/><path d="m170 324.2099-6.4 11.0851h12.8z" fill="none"/><path d="m190 324.2099-6.4 11.0851h12.8z" fill="none"/><path d="m210 324.2099-6.4 11.0851h12.8z" fill="none"/><path d="m230 324.2099-6.4 11.0851h12.8z" fill="none"/><path d="m250 324.2099-6.4 11.0851h12.8z" fill="none"/><path d="m270 323.6 6.4 6.4-6.4 6.4-6.4-6.4z" fill="none"/><path d="m290 323.6 6.4 6.4-6.4 6.4-6.4-6.4z" fill="none"/><path d="m310 323.6 6.4 6.4-6.4 6.4-6.4-6.4z" fill="none"/><path d="m330 323.6 6.4 6.4-6.4 6.4-6.4-6.4z" fill="none"/><path d="m350 323.6 6.4 6.4-6.4 6.4-6.4-6.4z" fill="none"/><path d="m370 323.6 6.4 6.4-6.4 6.4-6.4-6.4z" fill="none"/><path d="m110 344.2099-6.4 11.0851h12.8z" fill="none"/><path d="m130 344.2099-6.4 11.0851h12.8z" fill="none"/><path d="m150 343.6 6.4 6.4-6.4 6.4-6.4-6.4z" fill="none"/><path d="m170 343.6 6.4 6.4-6.4 6.4-6.4-6.4z" fill="none"/><path d="m190 344.2099-6.4 11.0851h12.8z" fill="none"/><path d="m210 344.2099-6.4 11.0851h12.8z" fill="none"/><path d="m230 344.2099-6.4 11.0851h12.8z" fill="none"/><path d="m250 344.2099-6.4 11.0851h12.8z" fill="none"/><path d="m270 343.6 6.4 6.4-6.4 6.4-6.4-6.4z" fill="none"/><path d="m290 343.6 6.4 6.4-6.4 6.4-6.4-6.4z" fill="none"/><path d="m310 344.2099-6.4 11.0851h12.8z" fill="none"/><path d="m330 343.6 6.4 6.4-6.4 6.4-6.4-6.4z" fill="none"/><path d="m350 343.6 1.8809 3.8111 4.2059.6112-3.0434 2.9666.7184 4.1888-3.7618-1.9777-3.7618 1.9777.7184-4.1888-3.0434-2.9666 4.2059-.6112z" stroke="none"/><path d="m130 364.2099-6.4 11.0851h12.8z" fill="none"/><path d="m150 364.2099-6.4 11.0851h12.8z" fill="none"/><path d="m170 364.2099-6.4 11.0851h12.8z" fill="none"/><path d="m190 364.2099-6.4 11.0851h12.8z" fill="none"/><path d="m210 364.2099-6.4 11.0851h12.8z" fill="none"/><path d="m230 364.2099-6.4 11.0851h12.8z" fill="none"/><path d="m250 363.6 6.4 6.4-6.4 6.4-6.4-6.4z" stroke="none"/><path d="m270 363.6 6.4 6.4-6.4 6.4-6.4-6.4z" stroke="none"/><path d="m290 364.2099-6.4 11.0851h12.8z" fill="none"/><path d="m310 364.2099-6.4 11.0851h12.8z" fill="none"/><path d="m330 363.6 1.8809 3.8111 4.2059.6112-3.0434 2.9666.7184 4.1888-3.7618-1.9777-3.7618 1.9777.7184-4.1888-3.0434-2.9666 4.2059-.6112z" stroke="none"/><path d="m350 363.6 1.8809 3.8111 4.2059.6112-3.0434 2.9666.7184 4.1888-3.7618-1.9777-3.7618 1.9777.7184-4.1888-3.0434-2.9666 4.2059-.6112z" stroke="none"/><path d="m250 384.2099-6.4 11.0851h12.8z" fill="none"/><path d="m270 384.2099-6.4 11.0851h12.8z" fill="none"/><path d="m290 384.2099-6.4 11.0851h12.8z" fill="none"/><path d="m310 384.2099-6.4 11.0851h12.8z" fill="none"/><path d="m330 383.6 1.8809 3.8111 4.2059.6112-3.0434 2.9666.7184 4.1888-3.7618-1.9777-3.7618 1.9777.7184-4.1888-3.0434-2.9666 4.2059-.6112z" stroke="none"/><path d="m250 404.2099-6.4 11.0851h12.8z" fill="none"/><path d="m270 404.2099-6.4 11.0851h12.8z" fill="none"/><path d="m285.2 410h9.6" fill="none"/><path d="m290 405.2v9.6" fill="none"/><path d="m305.2 410h9.6" fill="none"/><path d="m310 405.2v9.6" fill="none"/><path d="m325.2 410h9.6" fill="none"/><path d="m330 405.2v9.6" fill="none"/><path d="m350 403.6 1.8809 3.8111 4.2059.6112-3.0434 2.9666.7184 4.1888-3.7618-1.9777-3.7618 1.9777.7184-4.1888-3.0434-2.9666 4.2059-.6112z" stroke="none"/><path d="m225.2 430h9.6" fill="none"/><path d="m230 425.2v9.6" fill="none"/><path d="m245.2 430h9.6" fill="none"/><path d="m250 425.2v9.6" fill="none"/><path d="m265.2 430h9.6" fill="none"/><path d="m270 425.2v9.6" fill="none"/><path d="m285.2 430h9.6" fill="none"/><path d="m290 425.2v9.6" fill="none"/><path d="m0 0v480" fill="none" stroke="#1c30d0"/><path d="m20 0v480" fill="none" stroke="#1c30d0" stroke-width="1"/><path d="m40 0v480" fill="none" stroke="#1c30d0" stroke-width="1"/><path d="m60 0v480" fill="none" stroke="#1c30d0" stroke-width="1"/><path d="m80 0v480" fill="none" stroke="#1c30d0" stroke-width="1"/><path d="m100 0v480" fill="none" stroke="#1c30d0" stroke-width="1"/><path d="m120 0v480" fill="none" stroke="#1c30d0" stroke-width="1"/><path d="m140 0v480" fill="none" stroke="#1c30d0" stroke-width="1"/><path d="m160 0v480" fill="none" stroke="#1c30d0" stroke-width="1"/><path d="m180 0v480" fill="none" stroke="#1c30d0" stroke-width="1"/><path d="m200 0v480" fill="none" stroke="#1c30d0" stroke-width="1"/><path d="m220 0v480" fill="none" stroke="#1c30d0" stroke-width="1"/><path d="m240 0v480" fill="none" stroke="#1c30d0" stroke-width="1"/><path d="m260 0v480" fill="none" stroke="#1c30d0" stroke-width="1"/><path d="m280 0v480" fill="none" stroke="#1c30d0" stroke-width="1"/><path d="m300 0v480" fill="none" stroke="#1c30d0" stroke-width="1"/><path d="m320 0v480" fill="none" stroke="#1c30d0" stroke-width="1"/><path d="m340 0v480" fill="none" stroke="#1c30d0" stroke-width="1"/><path d="m360 0v480" fill="none" stroke="#1c30d0" stroke-width="1"/><path d="m380 0v480" fill="none" stroke="#1c30d0" stroke-width="1"/><path d="m400 0v480" fill="none" stroke="#1c30d0" stroke-width="1"/><path d="m420 0v480" fill="none" stroke="#1c30d0" stroke-width="1"/><path d="m440 0v480" fill="none" stroke="#1c30d0" stroke-width="1"/><path d="m460 0v480" fill="none" stroke="#1c30d0" stroke-width="1"/><path d="m480 0v480" fill="none" stroke="#1c30d0"/><path d="m0 0h480" fill="none" stroke="#1c30d0"/><path d="m0 20h480" fill="none" stroke="#1c30d0" stroke-width="1"/><path d="m0 40h480" fill="none" stroke="#1c30d0" stroke-width="1"/><path d="m0 60h480" fill="none" stroke="#1c30d0" stroke-width="1"/><path d="m0 80h480" fill="none" stroke="#1c30d0" stroke-width="1"/><path d="m0 100h480" fill="none" stroke="#1c30d0" stroke-width="1"/><path d="m0 120h480" fill="none" stroke="#1c30d0" stroke-width="1"/><path d="m0 140h480" fill="none" stroke="#1c30d0" stroke-width="1"/><path d="m0 160h480" fill="none" stroke="#1c30d0" stroke-width="1"/><path d="m0 180h480" fill="none" stroke="#1c30d0" stroke-width="1"/><path d="m0 200h480" fill="none" stroke="#1c30d0" stroke-width="1"/><path d="m0 220h480" fill="none" stroke="#1c30d0" stroke-width="1"/><path d="m0 240h480" fill="none" stroke="#1c30d0" stroke-width="1"/><path d="m0 260h480" fill="none" stroke="#1c30d0" stroke-width="1"/><path d="m0 280h480" fill="none" stroke="#1c30d0" stroke-width="1"/><path d="m0 300h480" fill="none" stroke="#1c30d0" stroke-width="1"/><path d="m0 320h480" fill="none" stroke="#1c30d0" stroke-width="1"/><path d="m0 340h480" fill="none" stroke="#1c30d0" stroke-width="1"/><path d="m0 360h480" fill="none" stroke="#1c30d0" stroke-width="1"/><path d="m0 380h480" fill="none" stroke="#1c30d0" stroke-width="1"/><path d="m0 400h480" fill="none" stroke="#1c30d0" stroke-width="1"/><path d="m0 420h480" fill="none" stroke="#1c30d0" stroke-width="1"/><path d="m0 440h480" fill="none" stroke="#1c30d0" stroke-width="1"/><path d="m0 460h480" fill="none" stroke="#1c30d0" stroke-width="1"/><path d="m0 480h480" fill="none" stroke="#1c30d0"/></g></g></svg>