<svg color-interpolation="auto" height="480" stroke="#000" stroke-linecap="square" stroke-miterlimit="10" width="480" xmlns="http://www.w3.org/2000/svg"><g stroke-linecap="round" stroke-width="1.5"><path d="m170 70h6.4" fill="none"/><g><g fill="none"><path d="m170 70 3.2 5.5426"/><path d="m170 70-3.2 5.5426"/><path d="m170 70h-6.4"/><path d="m170 70-3.2-5.5426"/><path d="m170 70 3.2-5.5426"/><path d="m190 70h6.4"/><path d="m190 70 3.2 5.5426"/><path d="m190 70-3.2 5.5426"/><path d="m190 70h-6.4"/><path d="m190 70-3.2-5.5426"/><path d="m190 70 3.2-5.5426"/><path d="m210 70h6.4"/><path d="m210 70 3.2 5.5426"/><path d="m210 70-3.2 5.5426"/><path d="m210 70h-6.4"/><path d="m210 70-3.2-5.5426"/><path d="m210 70 3.2-5.5426"/><path d="m230 70h6.4"/><path d="m230 70 3.2 5.5426"/><path d="m230 70-3.2 5.5426"/><path d="m230 70h-6.4"/><path d="m230 70-3.2-5.5426"/><path d="m230 70 3.2-5.5426"/><path d="m250 70h6.4"/><path d="m250 70 3.2 5.5426"/><path d="m250 70-3.2 5.5426"/><path d="m250 70h-6.4"/><path d="m250 70-3.2-5.5426"/><path d="m250 70 3.2-5.5426"/><path d="m270 70h6.4"/><path d="m270 70 3.2 5.5426"/><path d="m270 70-3.2 5.5426"/><path d="m270 70h-6.4"/><path d="m270 70-3.2-5.5426"/><path d="m270 70 3.2-5.5426"/><path d="m290 70h6.4"/><path d="m290 70 3.2 5.5426"/><path d="m290 70-3.2 5.5426"/><path d="m290 70h-6.4"/><path d="m290 70-3.2-5.5426"/><path d="m290 70 3.2-5.5426"/><path d="m130 90h6.4"/><path d="m130 90 3.2 5.5426"/><path d="m130 90-3.2 5.5426"/><path d="m130 90h-6.4"/><path d="m130 90-3.2-5.5426"/><path d="m130 90 3.2-5.5426"/><path d="m150 90h6.4"/><path d="m150 90 3.2 5.5426"/><path d="m150 90-3.2 5.5426"/><path d="m150 90h-6.4"/><path d="m150 90-3.2-5.5426"/><path d="m150 90 3.2-5.5426"/><path d="m170 90h6.4"/><path d="m170 90 3.2 5.5426"/><path d="m170 90-3.2 5.5426"/><path d="m170 90h-6.4"/><path d="m170 90-3.2-5.5426"/><path d="m170 90 3.2-5.5426"/><path d="m190 90h6.4"/><path d="m190 90 3.2 5.5426"/><path d="m190 90-3.2 5.5426"/><path d="m190 90h-6.4"/><path d="m190 90-3.2-5.5426"/><path d="m190 90 3.2-5.5426"/><path d="m210 90h6.4"/><path d="m210 90 3.2 5.5426"/><path d="m210 90-3.2 5.5426"/><path d="m210 90h-6.4"/><path d="m210 90-3.2-5.5426"/><path d="m210 90 3.2-5.5426"/><path d="m230 90h6.4"/><path d="m230 90 3.2 5.5426"/><path d="m230 90-3.2 5.5426"/><path d="m230 90h-6.4"/><path d="m230 90-3.2-5.5426"/><path d="m230 90 3.2-5.5426"/><path d="m250 90h6.4"/><path d="m250 90 3.2 5.5426"/><path d="m250 90-3.2 5.5426"/><path d="m250 90h-6.4"/><path d="m250 90-3.2-5.5426"/><path d="m250 90 3.2-5.5426"/><path d="m270 90h6.4"/><path d="m270 90 3.2 5.5426"/><path d="m270 90-3.2 5.5426"/><path d="m270 90h-6.4"/><path d="m270 90-3.2-5.5426"/><path d="m270 90 3.2-5.5426"/><path d="m290 90h6.4"/><path d="m290 90 3.2 5.5426"/><path d="m290 90-3.2 5.5426"/><path d="m290 90h-6.4"/><path d="m290 90-3.2-5.5426"/><path d="m290 90 3.2-5.5426"/><path d="m310 90h6.4"/><path d="m310 90 3.2 5.5426"/><path d="m310 90-3.2 5.5426"/><path d="m310 90h-6.4"/><path d="m310 90-3.2-5.5426"/><path d="m310 90 3.2-5.5426"/><path d="m330 90h6.4"/><path d="m330 90 3.2 5.5426"/><path d="m330 90-3.2 5.5426"/><path d="m330 90h-6.4"/><path d="m330 90-3.2-5.5426"/><path d="m330 90 3.2-5.5426"/><circle cx="110" cy="110" r="6.4" stroke-width="2"/><path d="m130 110h6.4"/><path d="m130 110 3.2 5.5426"/><path d="m130 110-3.2 5.5426"/><path d="m130 110h-6.4"/><path d="m130 110-3.2-5.5426"/><path d="m130 110 3.2-5.5426"/><circle cx="150" cy="110" r="6.4" stroke-width="2"/><path d="m170 110h6.4"/><path d="m170 110 3.2 5.5426"/><path d="m170 110-3.2 5.5426"/><path d="m170 110h-6.4"/><path d="m170 110-3.2-5.5426"/><path d="m170 110 3.2-5.5426"/><path d="m190 110h6.4"/><path d="m190 110 3.2 5.5426"/><path d="m190 110-3.2 5.5426"/><path d="m190 110h-6.4"/><path d="m190 110-3.2-5.5426"/><path d="m190 110 3.2-5.5426"/><path d="m210 110h6.4"/><path d="m210 110 3.2 5.5426"/><path d="m210 110-3.2 5.5426"/><path d="m210 110h-6.4"/><path d="m210 110-3.2-5.5426"/><path d="m210 110 3.2-5.5426"/><path d="m230 110h6.4"/><path d="m230 110 3.2 5.5426"/><path d="m230 110-3.2 5.5426"/><path d="m230 110h-6.4"/><path d="m230 110-3.2-5.5426"/><path d="m230 110 3.2-5.5426"/><path d="m250 110h6.4"/><path d="m250 110 3.2 5.5426"/><path d="m250 110-3.2 5.5426"/><path d="m250 110h-6.4"/><path d="m250 110-3.2-5.5426"/><path d="m250 110 3.2-5.5426"/><path d="m270 110h6.4"/><path d="m270 110 3.2 5.5426"/><path d="m270 110-3.2 5.5426"/><path d="m270 110h-6.4"/><path d="m270 110-3.2-5.5426"/><path d="m270 110 3.2-5.5426"/><path d="m290 110h6.4"/><path d="m290 110 3.2 5.5426"/><path d="m290 110-3.2 5.5426"/><path d="m290 110h-6.4"/><path d="m290 110-3.2-5.5426"/><path d="m290 110 3.2-5.5426"/><path d="m310 110h6.4"/><path d="m310 110 3.2 5.5426"/><path d="m310 110-3.2 5.5426"/><path d="m310 110h-6.4"/><path d="m310 110-3.2-5.5426"/><path d="m310 110 3.2-5.5426"/><path d="m330 110h6.4"/><path d="m330 110 3.2 5.5426"/><path d="m330 110-3.2 5.5426"/><path d="m330 110h-6.4"/><path d="m330 110-3.2-5.5426"/><path d="m330 110 3.2-5.5426"/><path d="m350 110h6.4"/><path d="m350 110 3.2 5.5426"/><path d="m350 110-3.2 5.5426"/><path d="m350 110h-6.4"/><path d="m350 110-3.2-5.5426"/><path d="m350 110 3.2-5.5426"/><path d="m370 110h6.4"/><path d="m370 110 3.2 5.5426"/><path d="m370 110-3.2 5.5426"/><path d="m370 110h-6.4"/><path d="m370 110-3.2-5.5426"/><path d="m370 110 3.2-5.5426"/><circle cx="90" cy="130" r="6.4" stroke-width="2"/><circle cx="110" cy="130" r="6.4" stroke-width="2"/><circle cx="130" cy="130" r="6.4" stroke-width="2"/><circle cx="150" cy="130" r="6.4" stroke-width="2"/><path d="m170 130h6.4"/><path d="m170 130 3.2 5.5426"/><path d="m170 130-3.2 5.5426"/><path d="m170 130h-6.4"/><path d="m170 130-3.2-5.5426"/><path d="m170 130 3.2-5.5426"/><circle cx="190" cy="130" r="6.4" stroke-width="2"/><path d="m210 130h6.4"/><path d="m210 130 3.2 5.5426"/><path d="m210 130-3.2 5.5426"/><path d="m210 130h-6.4"/><path d="m210 130-3.2-5.5426"/><path d="m210 130 3.2-5.5426"/><path d="m230 130h6.4"/><path d="m230 130 3.2 5.5426"/><path d="m230 130-3.2 5.5426"/><path d="m230 130h-6.4"/><path d="m230 130-3.2-5.5426"/><path d="m230 130 3.2-5.5426"/><path d="m250 130h6.4"/><path d="m250 130 3.2 5.5426"/><path d="m250 130-3.2 5.5426"/><path d="m250 130h-6.4"/><path d="m250 130-3.2-5.5426"/><path d="m250 130 3.2-5.5426"/><path d="m270 130h6.4"/><path d="m270 130 3.2 5.5426"/><path d="m270 130-3.2 5.5426"/><path d="m270 130h-6.4"/><path d="m270 130-3.2-5.5426"/><path d="m270 130 3.2-5.5426"/><path d="m290 130h6.4"/><path d="m290 130 3.2 5.5426"/><path d="m290 130-3.2 5.5426"/><path d="m290 130h-6.4"/><path d="m290 130-3.2-5.5426"/><path d="m290 130 3.2-5.5426"/><path d="m310 130h6.4"/><path d="m310 130 3.2 5.5426"/><path d="m310 130-3.2 5.5426"/><path d="m310 130h-6.4"/><path d="m310 130-3.2-5.5426"/><path d="m310 130 3.2-5.5426"/><path d="m330 130h6.4"/><path d="m330 130 3.2 5.5426"/><path d="m330 130-3.2 5.5426"/><path d="m330 130h-6.4"/><path d="m330 130-3.2-5.5426"/><path d="m330 130 3.2-5.5426"/><path d="m350 130h6.4"/><path d="m350 130 3.2 5.5426"/><path d="m350 130-3.2 5.5426"/><path d="m350 130h-6.4"/><path d="m350 130-3.2-5.5426"/><path d="m350 130 3.2-5.5426"/><circle cx="370" cy="130" r="6.4" stroke-width="2"/><path d="m390 130h6.4"/><path d="m390 130 3.2 5.5426"/><path d="m390 130-3.2 5.5426"/><path d="m390 130h-6.4"/><path d="m390 130-3.2-5.5426"/><path d="m390 130 3.2-5.5426"/><path d="m70 150h6.4"/><path d="m70 150 3.2 5.5426"/><path d="m70 150-3.2 5.5426"/><path d="m70 150h-6.4"/><path d="m70 150-3.2-5.5426"/><path d="m70 150 3.2-5.5426"/><circle cx="90" cy="150" r="6.4" stroke-width="2"/><circle cx="110" cy="150" r="6.4" stroke-width="2"/><path d="m130 150h6.4"/><path d="m130 150 3.2 5.5426"/><path d="m130 150-3.2 5.5426"/><path d="m130 150h-6.4"/><path d="m130 150-3.2-5.5426"/><path d="m130 150 3.2-5.5426"/><circle cx="150" cy="150" r="6.4" stroke-width="2"/><path d="m170 150h6.4"/><path d="m170 150 3.2 5.5426"/><path d="m170 150-3.2 5.5426"/><path d="m170 150h-6.4"/><path d="m170 150-3.2-5.5426"/><path d="m170 150 3.2-5.5426"/><circle cx="190" cy="150" r="6.4" stroke-width="2"/><path d="m210 150h6.4"/><path d="m210 150 3.2 5.5426"/><path d="m210 150-3.2 5.5426"/><path d="m210 150h-6.4"/><path d="m210 150-3.2-5.5426"/><path d="m210 150 3.2-5.5426"/><path d="m230 150h6.4"/><path d="m230 150 3.2 5.5426"/><path d="m230 150-3.2 5.5426"/><path d="m230 150h-6.4"/><path d="m230 150-3.2-5.5426"/><path d="m230 150 3.2-5.5426"/><path d="m250 150h6.4"/><path d="m250 150 3.2 5.5426"/><path d="m250 150-3.2 5.5426"/><path d="m250 150h-6.4"/><path d="m250 150-3.2-5.5426"/><path d="m250 150 3.2-5.5426"/><path d="m270 150h6.4"/><path d="m270 150 3.2 5.5426"/><path d="m270 150-3.2 5.5426"/><path d="m270 150h-6.4"/><path d="m270 150-3.2-5.5426"/><path d="m270 150 3.2-5.5426"/><circle cx="290" cy="150" r="6.4" stroke-width="2"/><path d="m310 150h6.4"/><path d="m310 150 3.2 5.5426"/><path d="m310 150-3.2 5.5426"/><path d="m310 150h-6.4"/><path d="m310 150-3.2-5.5426"/><path d="m310 150 3.2-5.5426"/><circle cx="330" cy="150" r="6.4" stroke-width="2"/><path d="m350 150h6.4"/><path d="m350 150 3.2 5.5426"/><path d="m350 150-3.2 5.5426"/><path d="m350 150h-6.4"/><path d="m350 150-3.2-5.5426"/><path d="m350 150 3.2-5.5426"/><path d="m370 150h6.4"/><path d="m370 150 3.2 5.5426"/><path d="m370 150-3.2 5.5426"/><path d="m370 150h-6.4"/><path d="m370 150-3.2-5.5426"/><path d="m370 150 3.2-5.5426"/><circle cx="390" cy="150" r="6.4" stroke-width="2"/><path d="m410 150h6.4"/><path d="m410 150 3.2 5.5426"/><path d="m410 150-3.2 5.5426"/><path d="m410 150h-6.4"/><path d="m410 150-3.2-5.5426"/><path d="m410 150 3.2-5.5426"/><path d="m70 170h6.4"/><path d="m70 170 3.2 5.5426"/><path d="m70 170-3.2 5.5426"/><path d="m70 170h-6.4"/><path d="m70 170-3.2-5.5426"/><path d="m70 170 3.2-5.5426"/><path d="m90 170h6.4"/><path d="m90 170 3.2 5.5426"/><path d="m90 170-3.2 5.5426"/><path d="m90 170h-6.4"/><path d="m90 170-3.2-5.5426"/><path d="m90 170 3.2-5.5426"/><circle cx="110" cy="170" r="6.4" stroke-width="2"/><path d="m130 170h6.4"/><path d="m130 170 3.2 5.5426"/><path d="m130 170-3.2 5.5426"/><path d="m130 170h-6.4"/><path d="m130 170-3.2-5.5426"/><path d="m130 170 3.2-5.5426"/><path d="m150 170h6.4"/><path d="m150 170 3.2 5.5426"/><path d="m150 170-3.2 5.5426"/><path d="m150 170h-6.4"/><path d="m150 170-3.2-5.5426"/><path d="m150 170 3.2-5.5426"/><circle cx="170" cy="170" r="6.4" stroke-width="2"/><path d="m190 170h6.4"/><path d="m190 170 3.2 5.5426"/><path d="m190 170-3.2 5.5426"/><path d="m190 170h-6.4"/><path d="m190 170-3.2-5.5426"/><path d="m190 170 3.2-5.5426"/><circle cx="210" cy="170" r="6.4" stroke-width="2"/><path d="m230 170h6.4"/><path d="m230 170 3.2 5.5426"/><path d="m230 170-3.2 5.5426"/><path d="m230 170h-6.4"/><path d="m230 170-3.2-5.5426"/><path d="m230 170 3.2-5.5426"/><path d="m250 170h6.4"/><path d="m250 170 3.2 5.5426"/><path d="m250 170-3.2 5.5426"/><path d="m250 170h-6.4"/><path d="m250 170-3.2-5.5426"/><path d="m250 170 3.2-5.5426"/><path d="m270 170h6.4"/><path d="m270 170 3.2 5.5426"/><path d="m270 170-3.2 5.5426"/><path d="m270 170h-6.4"/><path d="m270 170-3.2-5.5426"/><path d="m270 170 3.2-5.5426"/><circle cx="290" cy="170" r="6.4" stroke-width="2"/><path d="m310 170h6.4"/><path d="m310 170 3.2 5.5426"/><path d="m310 170-3.2 5.5426"/><path d="m310 170h-6.4"/><path d="m310 170-3.2-5.5426"/><path d="m310 170 3.2-5.5426"/><path d="m330 170h6.4"/><path d="m330 170 3.2 5.5426"/><path d="m330 170-3.2 5.5426"/><path d="m330 170h-6.4"/><path d="m330 170-3.2-5.5426"/><path d="m330 170 3.2-5.5426"/><circle cx="350" cy="170" r="6.4" stroke-width="2"/><path d="m370 170h6.4"/><path d="m370 170 3.2 5.5426"/><path d="m370 170-3.2 5.5426"/><path d="m370 170h-6.4"/><path d="m370 170-3.2-5.5426"/><path d="m370 170 3.2-5.5426"/><path d="m390 170h6.4"/><path d="m390 170 3.2 5.5426"/><path d="m390 170-3.2 5.5426"/><path d="m390 170h-6.4"/><path d="m390 170-3.2-5.5426"/><path d="m390 170 3.2-5.5426"/><path d="m410 170h6.4"/><path d="m410 170 3.2 5.5426"/><path d="m410 170-3.2 5.5426"/><path d="m410 170h-6.4"/><path d="m410 170-3.2-5.5426"/><path d="m410 170 3.2-5.5426"/><path d="m50 190h6.4"/><path d="m50 190 3.2 5.5426"/><path d="m50 190-3.2 5.5426"/><path d="m50 190h-6.4"/><path d="m50 190-3.2-5.5426"/><path d="m50 190 3.2-5.5426"/><path d="m70 190h6.4"/><path d="m70 190 3.2 5.5426"/><path d="m70 190-3.2 5.5426"/><path d="m70 190h-6.4"/><path d="m70 190-3.2-5.5426"/><path d="m70 190 3.2-5.5426"/><path d="m90 190h6.4"/><path d="m90 190 3.2 5.5426"/><path d="m90 190-3.2 5.5426"/><path d="m90 190h-6.4"/><path d="m90 190-3.2-5.5426"/><path d="m90 190 3.2-5.5426"/><path d="m110 190h6.4"/><path d="m110 190 3.2 5.5426"/><path d="m110 190-3.2 5.5426"/><path d="m110 190h-6.4"/><path d="m110 190-3.2-5.5426"/><path d="m110 190 3.2-5.5426"/><path d="m130 190h6.4"/><path d="m130 190 3.2 5.5426"/><path d="m130 190-3.2 5.5426"/><path d="m130 190h-6.4"/><path d="m130 190-3.2-5.5426"/><path d="m130 190 3.2-5.5426"/><path d="m150 190h6.4"/><path d="m150 190 3.2 5.5426"/><path d="m150 190-3.2 5.5426"/><path d="m150 190h-6.4"/><path d="m150 190-3.2-5.5426"/><path d="m150 190 3.2-5.5426"/><path d="m170 190h6.4"/><path d="m170 190 3.2 5.5426"/><path d="m170 190-3.2 5.5426"/><path d="m170 190h-6.4"/><path d="m170 190-3.2-5.5426"/><path d="m170 190 3.2-5.5426"/><path d="m190 190h6.4"/><path d="m190 190 3.2 5.5426"/><path d="m190 190-3.2 5.5426"/><path d="m190 190h-6.4"/><path d="m190 190-3.2-5.5426"/><path d="m190 190 3.2-5.5426"/><path d="m210 190h6.4"/><path d="m210 190 3.2 5.5426"/><path d="m210 190-3.2 5.5426"/><path d="m210 190h-6.4"/><path d="m210 190-3.2-5.5426"/><path d="m210 190 3.2-5.5426"/><path d="m230 190h6.4"/><path d="m230 190 3.2 5.5426"/><path d="m230 190-3.2 5.5426"/><path d="m230 190h-6.4"/><path d="m230 190-3.2-5.5426"/><path d="m230 190 3.2-5.5426"/><path d="m250 190h6.4"/><path d="m250 190 3.2 5.5426"/><path d="m250 190-3.2 5.5426"/><path d="m250 190h-6.4"/><path d="m250 190-3.2-5.5426"/><path d="m250 190 3.2-5.5426"/><path d="m270 190h6.4"/><path d="m270 190 3.2 5.5426"/><path d="m270 190-3.2 5.5426"/><path d="m270 190h-6.4"/><path d="m270 190-3.2-5.5426"/><path d="m270 190 3.2-5.5426"/><path d="m290 190h6.4"/><path d="m290 190 3.2 5.5426"/><path d="m290 190-3.2 5.5426"/><path d="m290 190h-6.4"/><path d="m290 190-3.2-5.5426"/><path d="m290 190 3.2-5.5426"/><circle cx="310" cy="190" r="6.4" stroke-width="2"/><path d="m330 190h6.4"/><path d="m330 190 3.2 5.5426"/><path d="m330 190-3.2 5.5426"/><path d="m330 190h-6.4"/><path d="m330 190-3.2-5.5426"/><path d="m330 190 3.2-5.5426"/><path d="m350 190h6.4"/><path d="m350 190 3.2 5.5426"/><path d="m350 190-3.2 5.5426"/><path d="m350 190h-6.4"/><path d="m350 190-3.2-5.5426"/><path d="m350 190 3.2-5.5426"/><path d="m370 190h6.4"/><path d="m370 190 3.2 5.5426"/><path d="m370 190-3.2 5.5426"/><path d="m370 190h-6.4"/><path d="m370 190-3.2-5.5426"/><path d="m370 190 3.2-5.5426"/><path d="m390 190h6.4"/><path d="m390 190 3.2 5.5426"/><path d="m390 190-3.2 5.5426"/><path d="m390 190h-6.4"/><path d="m390 190-3.2-5.5426"/><path d="m390 190 3.2-5.5426"/><path d="m410 190h6.4"/><path d="m410 190 3.2 5.5426"/><path d="m410 190-3.2 5.5426"/><path d="m410 190h-6.4"/><path d="m410 190-3.2-5.5426"/><path d="m410 190 3.2-5.5426"/><path d="m430 190h6.4"/><path d="m430 190 3.2 5.5426"/><path d="m430 190-3.2 5.5426"/><path d="m430 190h-6.4"/><path d="m430 190-3.2-5.5426"/><path d="m430 190 3.2-5.5426"/><path d="m50 210h6.4"/><path d="m50 210 3.2 5.5426"/><path d="m50 210-3.2 5.5426"/><path d="m50 210h-6.4"/><path d="m50 210-3.2-5.5426"/><path d="m50 210 3.2-5.5426"/><path d="m70 210h6.4"/><path d="m70 210 3.2 5.5426"/><path d="m70 210-3.2 5.5426"/><path d="m70 210h-6.4"/><path d="m70 210-3.2-5.5426"/><path d="m70 210 3.2-5.5426"/><path d="m90 203.6 6.4 6.4-6.4 6.4-6.4-6.4z" stroke-width="2"/><path d="m110 210h6.4"/><path d="m110 210 3.2 5.5426"/><path d="m110 210-3.2 5.5426"/><path d="m110 210h-6.4"/><path d="m110 210-3.2-5.5426"/><path d="m110 210 3.2-5.5426"/><path d="m130 210h6.4"/><path d="m130 210 3.2 5.5426"/><path d="m130 210-3.2 5.5426"/><path d="m130 210h-6.4"/><path d="m130 210-3.2-5.5426"/><path d="m130 210 3.2-5.5426"/><path d="m150 210h6.4"/><path d="m150 210 3.2 5.5426"/><path d="m150 210-3.2 5.5426"/><path d="m150 210h-6.4"/><path d="m150 210-3.2-5.5426"/><path d="m150 210 3.2-5.5426"/><path d="m170 210h6.4"/><path d="m170 210 3.2 5.5426"/><path d="m170 210-3.2 5.5426"/><path d="m170 210h-6.4"/><path d="m170 210-3.2-5.5426"/><path d="m170 210 3.2-5.5426"/><path d="m190 210h6.4"/><path d="m190 210 3.2 5.5426"/><path d="m190 210-3.2 5.5426"/><path d="m190 210h-6.4"/><path d="m190 210-3.2-5.5426"/><path d="m190 210 3.2-5.5426"/><path d="m210 203.6 6.4 6.4-6.4 6.4-6.4-6.4z" stroke-width="2"/><path d="m230 210h6.4"/><path d="m230 210 3.2 5.5426"/><path d="m230 210-3.2 5.5426"/><path d="m230 210h-6.4"/><path d="m230 210-3.2-5.5426"/><path d="m230 210 3.2-5.5426"/><path d="m250 210h6.4"/><path d="m250 210 3.2 5.5426"/><path d="m250 210-3.2 5.5426"/><path d="m250 210h-6.4"/><path d="m250 210-3.2-5.5426"/><path d="m250 210 3.2-5.5426"/><path d="m270 210h6.4"/><path d="m270 210 3.2 5.5426"/><path d="m270 210-3.2 5.5426"/><path d="m270 210h-6.4"/><path d="m270 210-3.2-5.5426"/><path d="m270 210 3.2-5.5426"/><path d="m290 210h6.4"/><path d="m290 210 3.2 5.5426"/><path d="m290 210-3.2 5.5426"/><path d="m290 210h-6.4"/><path d="m290 210-3.2-5.5426"/><path d="m290 210 3.2-5.5426"/><path d="m310 210h6.4"/><path d="m310 210 3.2 5.5426"/><path d="m310 210-3.2 5.5426"/><path d="m310 210h-6.4"/><path d="m310 210-3.2-5.5426"/><path d="m310 210 3.2-5.5426"/><circle cx="330" cy="210" r="6.4" stroke-width="2"/><path d="m350 210h6.4"/><path d="m350 210 3.2 5.5426"/><path d="m350 210-3.2 5.5426"/><path d="m350 210h-6.4"/><path d="m350 210-3.2-5.5426"/><path d="m350 210 3.2-5.5426"/><path d="m370 210h6.4"/><path d="m370 210 3.2 5.5426"/><path d="m370 210-3.2 5.5426"/><path d="m370 210h-6.4"/><path d="m370 210-3.2-5.5426"/><path d="m370 210 3.2-5.5426"/><path d="m390 210h6.4"/><path d="m390 210 3.2 5.5426"/><path d="m390 210-3.2 5.5426"/><path d="m390 210h-6.4"/><path d="m390 210-3.2-5.5426"/><path d="m390 210 3.2-5.5426"/><path d="m410 210h6.4"/><path d="m410 210 3.2 5.5426"/><path d="m410 210-3.2 5.5426"/><path d="m410 210h-6.4"/><path d="m410 210-3.2-5.5426"/><path d="m410 210 3.2-5.5426"/><path d="m430 210h6.4"/><path d="m430 210 3.2 5.5426"/><path d="m430 210-3.2 5.5426"/><path d="m430 210h-6.4"/><path d="m430 210-3.2-5.5426"/><path d="m430 210 3.2-5.5426"/><path d="m50 230h6.4"/><path d="m50 230 3.2 5.5426"/><path d="m50 230-3.2 5.5426"/><path d="m50 230h-6.4"/><path d="m50 230-3.2-5.5426"/><path d="m50 230 3.2-5.5426"/><path d="m70 230h6.4"/><path d="m70 230 3.2 5.5426"/><path d="m70 230-3.2 5.5426"/><path d="m70 230h-6.4"/><path d="m70 230-3.2-5.5426"/><path d="m70 230 3.2-5.5426"/></g><path d="m90 224.2099-6.4 11.0851h12.8z" stroke="none"/><path d="m110 223.6 6.4 6.4-6.4 6.4-6.4-6.4z" fill="none" stroke-width="2"/><path d="m130 230h6.4" fill="none"/><path d="m130 230 3.2 5.5426" fill="none"/><path d="m130 230-3.2 5.5426" fill="none"/><path d="m130 230h-6.4" fill="none"/><path d="m130 230-3.2-5.5426" fill="none"/><path d="m130 230 3.2-5.5426" fill="none"/><path d="m150 230h6.4" fill="none"/><path d="m150 230 3.2 5.5426" fill="none"/><path d="m150 230-3.2 5.5426" fill="none"/><path d="m150 230h-6.4" fill="none"/><path d="m150 230-3.2-5.5426" fill="none"/><path d="m150 230 3.2-5.5426" fill="none"/><path d="m170 230h6.4" fill="none"/><path d="m170 230 3.2 5.5426" fill="none"/><path d="m170 230-3.2 5.5426" fill="none"/><path d="m170 230h-6.4" fill="none"/><path d="m170 230-3.2-5.5426" fill="none"/><path d="m170 230 3.2-5.5426" fill="none"/><path d="m190 230h6.4" fill="none"/><path d="m190 230 3.2 5.5426" fill="none"/><path d="m190 230-3.2 5.5426" fill="none"/><path d="m190 230h-6.4" fill="none"/><path d="m190 230-3.2-5.5426" fill="none"/><path d="m190 230 3.2-5.5426" fill="none"/><path d="m210 224.2099-6.4 11.0851h12.8z" stroke="none"/><path d="m230 230h6.4" fill="none"/><path d="m230 230 3.2 5.5426" fill="none"/><path d="m230 230-3.2 5.5426" fill="none"/><path d="m230 230h-6.4" fill="none"/><path d="m230 230-3.2-5.5426" fill="none"/><path d="m230 230 3.2-5.5426" fill="none"/><path d="m250 230h6.4" fill="none"/><path d="m250 230 3.2 5.5426" fill="none"/><path d="m250 230-3.2 5.5426" fill="none"/><path d="m250 230h-6.4" fill="none"/><path d="m250 230-3.2-5.5426" fill="none"/><path d="m250 230 3.2-5.5426" fill="none"/><path d="m270 230h6.4" fill="none"/><path d="m270 230 3.2 5.5426" fill="none"/><path d="m270 230-3.2 5.5426" fill="none"/><path d="m270 230h-6.4" fill="none"/><path d="m270 230-3.2-5.5426" fill="none"/><path d="m270 230 3.2-5.5426" fill="none"/><path d="m290 230h6.4" fill="none"/><path d="m290 230 3.2 5.5426" fill="none"/><path d="m290 230-3.2 5.5426" fill="none"/><path d="m290 230h-6.4" fill="none"/><path d="m290 230-3.2-5.5426" fill="none"/><path d="m290 230 3.2-5.5426" fill="none"/><path d="m310 230h6.4" fill="none"/><path d="m310 230 3.2 5.5426" fill="none"/><path d="m310 230-3.2 5.5426" fill="none"/><path d="m310 230h-6.4" fill="none"/><path d="m310 230-3.2-5.5426" fill="none"/><path d="m310 230 3.2-5.5426" fill="none"/><path d="m330 230h6.4" fill="none"/><path d="m330 230 3.2 5.5426" fill="none"/><path d="m330 230-3.2 5.5426" fill="none"/><path d="m330 230h-6.4" fill="none"/><path d="m330 230-3.2-5.5426" fill="none"/><path d="m330 230 3.2-5.5426" fill="none"/><path d="m350 230h6.4" fill="none"/><path d="m350 230 3.2 5.5426" fill="none"/><path d="m350 230-3.2 5.5426" fill="none"/><path d="m350 230h-6.4" fill="none"/><path d="m350 230-3.2-5.5426" fill="none"/><path d="m350 230 3.2-5.5426" fill="none"/><path d="m370 230h6.4" fill="none"/><path d="m370 230 3.2 5.5426" fill="none"/><path d="m370 230-3.2 5.5426" fill="none"/><path d="m370 230h-6.4" fill="none"/><path d="m370 230-3.2-5.5426" fill="none"/><path d="m370 230 3.2-5.5426" fill="none"/><path d="m390 230h6.4" fill="none"/><path d="m390 230 3.2 5.5426" fill="none"/><path d="m390 230-3.2 5.5426" fill="none"/><path d="m390 230h-6.4" fill="none"/><path d="m390 230-3.2-5.5426" fill="none"/><path d="m390 230 3.2-5.5426" fill="none"/><path d="m410 230h6.4" fill="none"/><path d="m410 230 3.2 5.5426" fill="none"/><path d="m410 230-3.2 5.5426" fill="none"/><path d="m410 230h-6.4" fill="none"/><path d="m410 230-3.2-5.5426" fill="none"/><path d="m410 230 3.2-5.5426" fill="none"/><path d="m430 230h6.4" fill="none"/><path d="m430 230 3.2 5.5426" fill="none"/><path d="m430 230-3.2 5.5426" fill="none"/><path d="m430 230h-6.4" fill="none"/><path d="m430 230-3.2-5.5426" fill="none"/><path d="m430 230 3.2-5.5426" fill="none"/><path d="m50 250h6.4" fill="none"/><path d="m50 250 3.2 5.5426" fill="none"/><path d="m50 250-3.2 5.5426" fill="none"/><path d="m50 250h-6.4" fill="none"/><path d="m50 250-3.2-5.5426" fill="none"/><path d="m50 250 3.2-5.5426" fill="none"/><path d="m70 243.6 6.4 6.4-6.4 6.4-6.4-6.4z" stroke="none"/><path d="m85.2 250h9.6" fill="none" stroke-width="2"/><path d="m90 245.2v9.6" fill="none" stroke-width="2"/><path d="m110 244.2099-6.4 11.0851h12.8z" stroke="none"/><path d="m130 243.6 6.4 6.4-6.4 6.4-6.4-6.4z" fill="none" stroke-width="2"/><path d="m150 250h6.4" fill="none"/><path d="m150 250 3.2 5.5426" fill="none"/><path d="m150 250-3.2 5.5426" fill="none"/><path d="m150 250h-6.4" fill="none"/><path d="m150 250-3.2-5.5426" fill="none"/><path d="m150 250 3.2-5.5426" fill="none"/><path d="m170 250h6.4" fill="none"/><path d="m170 250 3.2 5.5426" fill="none"/><path d="m170 250-3.2 5.5426" fill="none"/><path d="m170 250h-6.4" fill="none"/><path d="m170 250-3.2-5.5426" fill="none"/><path d="m170 250 3.2-5.5426" fill="none"/><path d="m190 243.6 6.4 6.4-6.4 6.4-6.4-6.4z" stroke="none"/><path d="m205.2 250h9.6" fill="none" stroke-width="2"/><path d="m210 245.2v9.6" fill="none" stroke-width="2"/><path d="m230 244.2099-6.4 11.0851h12.8z" stroke="none"/><path d="m250 250h6.4" fill="none"/><path d="m250 250 3.2 5.5426" fill="none"/><path d="m250 250-3.2 5.5426" fill="none"/><path d="m250 250h-6.4" fill="none"/><path d="m250 250-3.2-5.5426" fill="none"/><path d="m250 250 3.2-5.5426" fill="none"/><path d="m270 250h6.4" fill="none"/><path d="m270 250 3.2 5.5426" fill="none"/><path d="m270 250-3.2 5.5426" fill="none"/><path d="m270 250h-6.4" fill="none"/><path d="m270 250-3.2-5.5426" fill="none"/><path d="m270 250 3.2-5.5426" fill="none"/><path d="m290 243.6 6.4 6.4-6.4 6.4-6.4-6.4z" fill="none" stroke-width="2"/><path d="m310 250h6.4" fill="none"/><path d="m310 250 3.2 5.5426" fill="none"/><path d="m310 250-3.2 5.5426" fill="none"/><path d="m310 250h-6.4" fill="none"/><path d="m310 250-3.2-5.5426" fill="none"/><path d="m310 250 3.2-5.5426" fill="none"/><path d="m330 250h6.4" fill="none"/><path d="m330 250 3.2 5.5426" fill="none"/><path d="m330 250-3.2 5.5426" fill="none"/><path d="m330 250h-6.4" fill="none"/><path d="m330 250-3.2-5.5426" fill="none"/><path d="m330 250 3.2-5.5426" fill="none"/><path d="m350 250h6.4" fill="none"/><path d="m350 250 3.2 5.5426" fill="none"/><path d="m350 250-3.2 5.5426" fill="none"/><path d="m350 250h-6.4" fill="none"/><path d="m350 250-3.2-5.5426" fill="none"/><path d="m350 250 3.2-5.5426" fill="none"/><path d="m370 250h6.4" fill="none"/><path d="m370 250 3.2 5.5426" fill="none"/><path d="m370 250-3.2 5.5426" fill="none"/><path d="m370 250h-6.4" fill="none"/><path d="m370 250-3.2-5.5426" fill="none"/><path d="m370 250 3.2-5.5426" fill="none"/><path d="m390 250h6.4" fill="none"/><path d="m390 250 3.2 5.5426" fill="none"/><path d="m390 250-3.2 5.5426" fill="none"/><path d="m390 250h-6.4" fill="none"/><path d="m390 250-3.2-5.5426" fill="none"/><path d="m390 250 3.2-5.5426" fill="none"/><path d="m410 250h6.4" fill="none"/><path d="m410 250 3.2 5.5426" fill="none"/><path d="m410 250-3.2 5.5426" fill="none"/><path d="m410 250h-6.4" fill="none"/><path d="m410 250-3.2-5.5426" fill="none"/><path d="m410 250 3.2-5.5426" fill="none"/><path d="m430 250h6.4" fill="none"/><path d="m430 250 3.2 5.5426" fill="none"/><path d="m430 250-3.2 5.5426" fill="none"/><path d="m430 250h-6.4" fill="none"/><path d="m430 250-3.2-5.5426" fill="none"/><path d="m430 250 3.2-5.5426" fill="none"/><path d="m50 270h6.4" fill="none"/><path d="m50 270 3.2 5.5426" fill="none"/><path d="m50 270-3.2 5.5426" fill="none"/><path d="m50 270h-6.4" fill="none"/><path d="m50 270-3.2-5.5426" fill="none"/><path d="m50 270 3.2-5.5426" fill="none"/><path d="m70 263.6 6.4 6.4-6.4 6.4-6.4-6.4z" stroke="none"/><path d="m85.2 270h9.6" fill="none" stroke-width="2"/><path d="m90 265.2v9.6" fill="none" stroke-width="2"/><path d="m110 264.2099-6.4 11.0851h12.8z" stroke="none"/><path d="m130 263.6 6.4 6.4-6.4 6.4-6.4-6.4z" fill="none" stroke-width="2"/><path d="m150 270h6.4" fill="none"/><path d="m150 270 3.2 5.5426" fill="none"/><path d="m150 270-3.2 5.5426" fill="none"/><path d="m150 270h-6.4" fill="none"/><path d="m150 270-3.2-5.5426" fill="none"/><path d="m150 270 3.2-5.5426" fill="none"/><path d="m170 270h6.4" fill="none"/><path d="m170 270 3.2 5.5426" fill="none"/><path d="m170 270-3.2 5.5426" fill="none"/><path d="m170 270h-6.4" fill="none"/><path d="m170 270-3.2-5.5426" fill="none"/><path d="m170 270 3.2-5.5426" fill="none"/><path d="m190 263.6 6.4 6.4-6.4 6.4-6.4-6.4z" stroke="none"/><path d="m205.2 270h9.6" fill="none" stroke-width="2"/><path d="m210 265.2v9.6" fill="none" stroke-width="2"/><path d="m230 264.2099-6.4 11.0851h12.8z" stroke="none"/><path d="m250 263.6 6.4 6.4-6.4 6.4-6.4-6.4z" fill="none" stroke-width="2"/><path d="m270 270h6.4" fill="none"/><path d="m270 270 3.2 5.5426" fill="none"/><path d="m270 270-3.2 5.5426" fill="none"/><path d="m270 270h-6.4" fill="none"/><path d="m270 270-3.2-5.5426" fill="none"/><path d="m270 270 3.2-5.5426" fill="none"/><path d="m290 263.6 6.4 6.4-6.4 6.4-6.4-6.4z" fill="none" stroke-width="2"/><path d="m310 270h6.4" fill="none"/><path d="m310 270 3.2 5.5426" fill="none"/><path d="m310 270-3.2 5.5426" fill="none"/><path d="m310 270h-6.4" fill="none"/><path d="m310 270-3.2-5.5426" fill="none"/><path d="m310 270 3.2-5.5426" fill="none"/><path d="m330 270h6.4" fill="none"/><path d="m330 270 3.2 5.5426" fill="none"/><path d="m330 270-3.2 5.5426" fill="none"/><path d="m330 270h-6.4" fill="none"/><path d="m330 270-3.2-5.5426" fill="none"/><path d="m330 270 3.2-5.5426" fill="none"/><path d="m350 270h6.4" fill="none"/><path d="m350 270 3.2 5.5426" fill="none"/><path d="m350 270-3.2 5.5426" fill="none"/><path d="m350 270h-6.4" fill="none"/><path d="m350 270-3.2-5.5426" fill="none"/><path d="m350 270 3.2-5.5426" fill="none"/><path d="m370 270h6.4" fill="none"/><path d="m370 270 3.2 5.5426" fill="none"/><path d="m370 270-3.2 5.5426" fill="none"/><path d="m370 270h-6.4" fill="none"/><path d="m370 270-3.2-5.5426" fill="none"/><path d="m370 270 3.2-5.5426" fill="none"/><path d="m390 270h6.4" fill="none"/><path d="m390 270 3.2 5.5426" fill="none"/><path d="m390 270-3.2 5.5426" fill="none"/><path d="m390 270h-6.4" fill="none"/><path d="m390 270-3.2-5.5426" fill="none"/><path d="m390 270 3.2-5.5426" fill="none"/><path d="m410 270h6.4" fill="none"/><path d="m410 270 3.2 5.5426" fill="none"/><path d="m410 270-3.2 5.5426" fill="none"/><path d="m410 270h-6.4" fill="none"/><path d="m410 270-3.2-5.5426" fill="none"/><path d="m410 270 3.2-5.5426" fill="none"/><path d="m50 290h6.4" fill="none"/><path d="m50 290 3.2 5.5426" fill="none"/><path d="m50 290-3.2 5.5426" fill="none"/><path d="m50 290h-6.4" fill="none"/><path d="m50 290-3.2-5.5426" fill="none"/><path d="m50 290 3.2-5.5426" fill="none"/><path d="m70 283.6 6.4 6.4-6.4 6.4-6.4-6.4z" fill="none" stroke-width="2"/><path d="m90 283.6 6.4 6.4-6.4 6.4-6.4-6.4z" stroke="none"/><path d="m105.2 290h9.6" fill="none" stroke-width="2"/><path d="m110 285.2v9.6" fill="none" stroke-width="2"/><path d="m130 283.6 6.4 6.4-6.4 6.4-6.4-6.4z" fill="none" stroke-width="2"/><path d="m150 283.6 6.4 6.4-6.4 6.4-6.4-6.4z" fill="none" stroke-width="2"/><path d="m170 290h6.4" fill="none"/><path d="m170 290 3.2 5.5426" fill="none"/><path d="m170 290-3.2 5.5426" fill="none"/><path d="m170 290h-6.4" fill="none"/><path d="m170 290-3.2-5.5426" fill="none"/><path d="m170 290 3.2-5.5426" fill="none"/><path d="m190 283.6 6.4 6.4-6.4 6.4-6.4-6.4z" fill="none" stroke-width="2"/><path d="m210 283.6 6.4 6.4-6.4 6.4-6.4-6.4z" stroke="none"/><path d="m225.2 290h9.6" fill="none" stroke-width="2"/><path d="m230 285.2v9.6" fill="none" stroke-width="2"/><path d="m250 283.6 6.4 6.4-6.4 6.4-6.4-6.4z" fill="none" stroke-width="2"/><path d="m270 283.6 6.4 6.4-6.4 6.4-6.4-6.4z" fill="none" stroke-width="2"/><path d="m290 290h6.4" fill="none"/><path d="m290 290 3.2 5.5426" fill="none"/><path d="m290 290-3.2 5.5426" fill="none"/><path d="m290 290h-6.4" fill="none"/><path d="m290 290-3.2-5.5426" fill="none"/><path d="m290 290 3.2-5.5426" fill="none"/><path d="m310 290h6.4" fill="none"/><path d="m310 290 3.2 5.5426" fill="none"/><path d="m310 290-3.2 5.5426" fill="none"/><path d="m310 290h-6.4" fill="none"/><path d="m310 290-3.2-5.5426" fill="none"/><path d="m310 290 3.2-5.5426" fill="none"/><path d="m330 283.6 6.4 6.4-6.4 6.4-6.4-6.4z" fill="none" stroke-width="2"/><path d="m350 283.6 6.4 6.4-6.4 6.4-6.4-6.4z" fill="none" stroke-width="2"/><path d="m370 290h6.4" fill="none"/><path d="m370 290 3.2 5.5426" fill="none"/><path d="m370 290-3.2 5.5426" fill="none"/><path d="m370 290h-6.4" fill="none"/><path d="m370 290-3.2-5.5426" fill="none"/><path d="m370 290 3.2-5.5426" fill="none"/><path d="m390 290h6.4" fill="none"/><path d="m390 290 3.2 5.5426" fill="none"/><path d="m390 290-3.2 5.5426" fill="none"/><path d="m390 290h-6.4" fill="none"/><path d="m390 290-3.2-5.5426" fill="none"/><path d="m390 290 3.2-5.5426" fill="none"/><path d="m410 290h6.4" fill="none"/><path d="m410 290 3.2 5.5426" fill="none"/><path d="m410 290-3.2 5.5426" fill="none"/><path d="m410 290h-6.4" fill="none"/><path d="m410 290-3.2-5.5426" fill="none"/><path d="m410 290 3.2-5.5426" fill="none"/><path d="m70 310h6.4" fill="none"/><path d="m70 310 3.2 5.5426" fill="none"/><path d="m70 310-3.2 5.5426" fill="none"/><path d="m70 310h-6.4" fill="none"/><path d="m70 310-3.2-5.5426" fill="none"/><path d="m70 310 3.2-5.5426" fill="none"/><path d="m90 303.6 6.4 6.4-6.4 6.4-6.4-6.4z" fill="none" stroke-width="2"/><path d="m110 303.6 6.4 6.4-6.4 6.4-6.4-6.4z" fill="none" stroke-width="2"/><path d="m130 303.6 6.4 6.4-6.4 6.4-6.4-6.4z" fill="none" stroke-width="2"/><path d="m150 303.6 6.4 6.4-6.4 6.4-6.4-6.4z" fill="none" stroke-width="2"/><path d="m170 303.6 6.4 6.4-6.4 6.4-6.4-6.4z" fill="none" stroke-width="2"/><path d="m190 303.6 6.4 6.4-6.4 6.4-6.4-6.4z" fill="none" stroke-width="2"/><path d="m210 303.6 6.4 6.4-6.4 6.4-6.4-6.4z" fill="none" stroke-width="2"/><path d="m230 303.6 6.4 6.4-6.4 6.4-6.4-6.4z" fill="none" stroke-width="2"/><path d="m250 303.6 6.4 6.4-6.4 6.4-6.4-6.4z" fill="none" stroke-width="2"/><path d="m270 303.6 6.4 6.4-6.4 6.4-6.4-6.4z" fill="none" stroke-width="2"/><path d="m290 310h6.4" fill="none"/><path d="m290 310 3.2 5.5426" fill="none"/><path d="m290 310-3.2 5.5426" fill="none"/><path d="m290 310h-6.4" fill="none"/><path d="m290 310-3.2-5.5426" fill="none"/><path d="m290 310 3.2-5.5426" fill="none"/><path d="m310 310h6.4" fill="none"/><path d="m310 310 3.2 5.5426" fill="none"/><path d="m310 310-3.2 5.5426" fill="none"/><path d="m310 310h-6.4" fill="none"/><path d="m310 310-3.2-5.5426" fill="none"/><path d="m310 310 3.2-5.5426" fill="none"/><path d="m330 303.6 6.4 6.4-6.4 6.4-6.4-6.4z" fill="none" stroke-width="2"/><path d="m350 310h6.4" fill="none"/><path d="m350 310 3.2 5.5426" fill="none"/><path d="m350 310-3.2 5.5426" fill="none"/><path d="m350 310h-6.4" fill="none"/><path d="m350 310-3.2-5.5426" fill="none"/><path d="m350 310 3.2-5.5426" fill="none"/><path d="m370 310h6.4" fill="none"/><path d="m370 310 3.2 5.5426" fill="none"/><path d="m370 310-3.2 5.5426" fill="none"/><path d="m370 310h-6.4" fill="none"/><path d="m370 310-3.2-5.5426" fill="none"/><path d="m370 310 3.2-5.5426" fill="none"/><path d="m390 310h6.4" fill="none"/><path d="m390 310 3.2 5.5426" fill="none"/><path d="m390 310-3.2 5.5426" fill="none"/><path d="m390 310h-6.4" fill="none"/><path d="m390 310-3.2-5.5426" fill="none"/><path d="m390 310 3.2-5.5426" fill="none"/><path d="m70 330h6.4" fill="none"/><path d="m70 330 3.2 5.5426" fill="none"/><path d="m70 330-3.2 5.5426" fill="none"/><path d="m70 330h-6.4" fill="none"/><path d="m70 330-3.2-5.5426" fill="none"/><path d="m70 330 3.2-5.5426" fill="none"/><path d="m90 323.6 6.4 6.4-6.4 6.4-6.4-6.4z" fill="none" stroke-width="2"/><path d="m110 323.6 6.4 6.4-6.4 6.4-6.4-6.4z" fill="none" stroke-width="2"/><path d="m130 323.6 6.4 6.4-6.4 6.4-6.4-6.4z" fill="none" stroke-width="2"/><path d="m150 323.6 6.4 6.4-6.4 6.4-6.4-6.4z" fill="none" stroke-width="2"/><path d="m170 323.6 6.4 6.4-6.4 6.4-6.4-6.4z" fill="none" stroke-width="2"/><path d="m190 323.6 6.4 6.4-6.4 6.4-6.4-6.4z" fill="none" stroke-width="2"/><path d="m210 323.6 6.4 6.4-6.4 6.4-6.4-6.4z" fill="none" stroke-width="2"/><path d="m230 323.6 6.4 6.4-6.4 6.4-6.4-6.4z" fill="none" stroke-width="2"/><path d="m250 323.6 6.4 6.4-6.4 6.4-6.4-6.4z" fill="none" stroke-width="2"/><path d="m270 330h6.4" fill="none"/><path d="m270 330 3.2 5.5426" fill="none"/><path d="m270 330-3.2 5.5426" fill="none"/><path d="m270 330h-6.4" fill="none"/><path d="m270 330-3.2-5.5426" fill="none"/><path d="m270 330 3.2-5.5426" fill="none"/><path d="m290 330h6.4" fill="none"/><path d="m290 330 3.2 5.5426" fill="none"/><path d="m290 330-3.2 5.5426" fill="none"/><path d="m290 330h-6.4" fill="none"/><path d="m290 330-3.2-5.5426" fill="none"/><path d="m290 330 3.2-5.5426" fill="none"/><path d="m310 330h6.4" fill="none"/><path d="m310 330 3.2 5.5426" fill="none"/><path d="m310 330-3.2 5.5426" fill="none"/><path d="m310 330h-6.4" fill="none"/><path d="m310 330-3.2-5.5426" fill="none"/><path d="m310 330 3.2-5.5426" fill="none"/><path d="m330 330h6.4" fill="none"/><path d="m330 330 3.2 5.5426" fill="none"/><path d="m330 330-3.2 5.5426" fill="none"/><path d="m330 330h-6.4" fill="none"/><path d="m330 330-3.2-5.5426" fill="none"/><path d="m330 330 3.2-5.5426" fill="none"/><path d="m350 330h6.4" fill="none"/><path d="m350 330 3.2 5.5426" fill="none"/><path d="m350 330-3.2 5.5426" fill="none"/><path d="m350 330h-6.4" fill="none"/><path d="m350 330-3.2-5.5426" fill="none"/><path d="m350 330 3.2-5.5426" fill="none"/><path d="m370 330h6.4" fill="none"/><path d="m370 330 3.2 5.5426" fill="none"/><path d="m370 330-3.2 5.5426" fill="none"/><path d="m370 330h-6.4" fill="none"/><path d="m370 330-3.2-5.5426" fill="none"/><path d="m370 330 3.2-5.5426" fill="none"/><path d="m110 343.6 6.4 6.4-6.4 6.4-6.4-6.4z" fill="none" stroke-width="2"/><path d="m130 343.6 6.4 6.4-6.4 6.4-6.4-6.4z" fill="none" stroke-width="2"/><path d="m150 350h6.4" fill="none"/><path d="m150 350 3.2 5.5426" fill="none"/><path d="m150 350-3.2 5.5426" fill="none"/><path d="m150 350h-6.4" fill="none"/><path d="m150 350-3.2-5.5426" fill="none"/><path d="m150 350 3.2-5.5426" fill="none"/><path d="m170 350h6.4" fill="none"/><path d="m170 350 3.2 5.5426" fill="none"/><path d="m170 350-3.2 5.5426" fill="none"/><path d="m170 350h-6.4" fill="none"/><path d="m170 350-3.2-5.5426" fill="none"/><path d="m170 350 3.2-5.5426" fill="none"/><path d="m190 343.6 6.4 6.4-6.4 6.4-6.4-6.4z" fill="none" stroke-width="2"/><path d="m210 343.6 6.4 6.4-6.4 6.4-6.4-6.4z" fill="none" stroke-width="2"/><path d="m230 343.6 6.4 6.4-6.4 6.4-6.4-6.4z" fill="none" stroke-width="2"/><path d="m250 343.6 6.4 6.4-6.4 6.4-6.4-6.4z" fill="none" stroke-width="2"/><path d="m270 350h6.4" fill="none"/><path d="m270 350 3.2 5.5426" fill="none"/><path d="m270 350-3.2 5.5426" fill="none"/><path d="m270 350h-6.4" fill="none"/><path d="m270 350-3.2-5.5426" fill="none"/><path d="m270 350 3.2-5.5426" fill="none"/><path d="m290 350h6.4" fill="none"/><path d="m290 350 3.2 5.5426" fill="none"/><path d="m290 350-3.2 5.5426" fill="none"/><path d="m290 350h-6.4" fill="none"/><path d="m290 350-3.2-5.5426" fill="none"/><path d="m290 350 3.2-5.5426" fill="none"/><path d="m310 343.6 6.4 6.4-6.4 6.4-6.4-6.4z" fill="none" stroke-width="2"/><path d="m330 350h6.4" fill="none"/><path d="m330 350 3.2 5.5426" fill="none"/><path d="m330 350-3.2 5.5426" fill="none"/><path d="m330 350h-6.4" fill="none"/><path d="m330 350-3.2-5.5426" fill="none"/><path d="m330 350 3.2-5.5426" fill="none"/><circle cx="350" cy="350" r="6.4" stroke="none"/><path d="m130 363.6 6.4 6.4-6.4 6.4-6.4-6.4z" fill="none" stroke-width="2"/><path d="m150 363.6 6.4 6.4-6.4 6.4-6.4-6.4z" fill="none" stroke-width="2"/><path d="m170 363.6 6.4 6.4-6.4 6.4-6.4-6.4z" fill="none" stroke-width="2"/><path d="m190 363.6 6.4 6.4-6.4 6.4-6.4-6.4z" fill="none" stroke-width="2"/><path d="m210 363.6 6.4 6.4-6.4 6.4-6.4-6.4z" fill="none" stroke-width="2"/><path d="m230 363.6 6.4 6.4-6.4 6.4-6.4-6.4z" fill="none" stroke-width="2"/><path d="m250 364.2099-6.4 11.0851h12.8z" stroke="none"/><path d="m270 364.2099-6.4 11.0851h12.8z" stroke="none"/><path d="m290 363.6 6.4 6.4-6.4 6.4-6.4-6.4z" fill="none" stroke-width="2"/><path d="m310 363.6 6.4 6.4-6.4 6.4-6.4-6.4z" fill="none" stroke-width="2"/><circle cx="330" cy="370" r="6.4" stroke="none"/><circle cx="350" cy="370" r="6.4" stroke="none"/><path d="m250 383.6 6.4 6.4-6.4 6.4-6.4-6.4z" fill="none" stroke-width="2"/><path d="m270 383.6 6.4 6.4-6.4 6.4-6.4-6.4z" fill="none" stroke-width="2"/><path d="m290 383.6 6.4 6.4-6.4 6.4-6.4-6.4z" fill="none" stroke-width="2"/><path d="m310 383.6 6.4 6.4-6.4 6.4-6.4-6.4z" fill="none" stroke-width="2"/><circle cx="330" cy="390" r="6.4" stroke="none"/><path d="m250 403.6 6.4 6.4-6.4 6.4-6.4-6.4z" fill="none" stroke-width="2"/><path d="m270 403.6 6.4 6.4-6.4 6.4-6.4-6.4z" fill="none" stroke-width="2"/><path d="m285.2 410h9.6" fill="none" stroke-width="2"/><path d="m290 405.2v9.6" fill="none" stroke-width="2"/><path d="m305.2 410h9.6" fill="none" stroke-width="2"/><path d="m310 405.2v9.6" fill="none" stroke-width="2"/><path d="m325.2 410h9.6" fill="none" stroke-width="2"/><path d="m330 405.2v9.6" fill="none" stroke-width="2"/><circle cx="350" cy="410" r="6.4" stroke="none"/><path d="m225.2 430h9.6" fill="none" stroke-width="2"/><path d="m230 425.2v9.6" fill="none" stroke-width="2"/><path d="m245.2 430h9.6" fill="none" stroke-width="2"/><path d="m250 425.2v9.6" fill="none" stroke-width="2"/><path d="m265.2 430h9.6" fill="none" stroke-width="2"/><path d="m270 425.2v9.6" fill="none" stroke-width="2"/><path d="m285.2 430h9.6" fill="none" stroke-width="2"/><path d="m290 425.2v9.6" fill="none" stroke-width="2"/><path d="m0 0v480" fill="none" stroke="#b4b4b4" stroke-width="3"/><path d="m20 0v480" fill="none" stroke="#b4b4b4"/><path d="m40 0v480" fill="none" stroke="#b4b4b4"/><path d="m60 0v480" fill="none" stroke="#b4b4b4"/><path d="m80 0v480" fill="none" stroke="#b4b4b4"/><path d="m100 0v480" fill="none" stroke="#b4b4b4"/><path d="m120 0v480" fill="none" stroke="#b4b4b4"/><path d="m140 0v480" fill="none" stroke="#b4b4b4"/><path d="m160 0v480" fill="none" stroke="#b4b4b4"/><path d="m180 0v480" fill="none" stroke="#b4b4b4"/><path d="m200 0v480" fill="none" stroke="#b4b4b4"/><path d="m220 0v480" fill="none" stroke="#b4b4b4"/><path d="m240 0v480" fill="none" stroke="#b4b4b4"/><path d="m260 0v480" fill="none" stroke="#b4b4b4"/><path d="m280 0v480" fill="none" stroke="#b4b4b4"/><path d="m300 0v480" fill="none" stroke="#b4b4b4"/><path d="m320 0v480" fill="none" stroke="#b4b4b4"/><path d="m340 0v480" fill="none" stroke="#b4b4b4"/><path d="m360 0v480" fill="none" stroke="#b4b4b4"/><path d="m380 0v480" fill="none" stroke="#b4b4b4"/><path d="m400 0v480" fill="none" stroke="#b4b4b4"/><path d="m420 0v480" fill="none" stroke="#b4b4b4"/><path d="m440 0v480" fill="none" stroke="#b4b4b4"/><path d="m460 0v480" fill="none" stroke="#b4b4b4"/><path d="m480 0v480" fill="none" stroke="#b4b4b4" stroke-width="3"/><path d="m0 0h480" fill="none" stroke="#b4b4b4" stroke-width="3"/><path d="m0 20h480" fill="none" stroke="#b4b4b4"/><path d="m0 40h480" fill="none" stroke="#b4b4b4"/><path d="m0 60h480" fill="none" stroke="#b4b4b4"/><path d="m0 80h480" fill="none" stroke="#b4b4b4"/><path d="m0 100h480" fill="none" stroke="#b4b4b4"/><path d="m0 120h480" fill="none" stroke="#b4b4b4"/><path d="m0 140h480" fill="none" stroke="#b4b4b4"/><path d="m0 160h480" fill="none" stroke="#b4b4b4"/><path d="m0 180h480" fill="none" stroke="#b4b4b4"/><path d="m0 200h480" fill="none" stroke="#b4b4b4"/><path d="m0 220h480" fill="none" stroke="#b4b4b4"/><path d="m0 240h480" fill="none" stroke="#b4b4b4"/><path d="m0 260h480" fill="none" stroke="#b4b4b4"/><path d="m0 280h480" fill="none" stroke="#b4b4b4"/><path d="m0 300h480" fill="none" stroke="#b4b4b4"/><path d="m0 320h480" fill="none" stroke="#b4b4b4"/><path d="m0 340h480" fill="none" stroke="#b4b4b4"/><path d="m0 360h480" fill="none" stroke="#b4b4b4"/><path d="m0 380h480" fill="none" stroke="#b4b4b4"/><path d="m0 400h480" fill="none" stroke="#b4b4b4"/><path d="m0 420h480" fill="none" stroke="#b4b4b4"/><path d="m0 440h480" fill="none" stroke="#b4b4b4"/><path d="m0 460h480" fill="none" stroke="#b4b4b4"/><path d="m0 480h480" fill="none" stroke="#b4b4b4" stroke-width="3"/></g></g></svg>