<svg color-interpolation="auto" height="480" stroke="#000" stroke-linecap="square" stroke-miterlimit="10" width="480" xmlns="http://www.w3.org/2000/svg"><g stroke-linecap="round" stroke-width="2"><path d="m166.4 70h7.2" fill="none"/><g><g fill="none"><path d="m170 66.4v7.2"/><path d="m186.4 70h7.2"/><path d="m190 66.4v7.2"/><path d="m206.4 70h7.2"/><path d="m210 66.4v7.2"/><path d="m226.4 70h7.2"/><path d="m230 66.4v7.2"/><path d="m246.4 70h7.2"/><path d="m250 66.4v7.2"/><path d="m266.4 70h7.2"/><path d="m270 66.4v7.2"/><path d="m286.4 70h7.2"/><path d="m290 66.4v7.2"/><path d="m126.4 90h7.2"/><path d="m130 86.4v7.2"/><path d="m146.4 90h7.2"/><path d="m150 86.4v7.2"/><path d="m166.4 90h7.2"/><path d="m170 86.4v7.2"/><path d="m186.4 90h7.2"/><path d="m190 86.4v7.2"/><path d="m206.4 90h7.2"/><path d="m210 86.4v7.2"/><path d="m226.4 90h7.2"/><path d="m230 86.4v7.2"/><path d="m246.4 90h7.2"/><path d="m250 86.4v7.2"/><path d="m266.4 90h7.2"/><path d="m270 86.4v7.2"/><path d="m286.4 90h7.2"/><path d="m290 86.4v7.2"/><path d="m306.4 90h7.2"/><path d="m310 86.4v7.2"/><path d="m326.4 90h7.2"/><path d="m330 86.4v7.2"/><path d="m105.2 105.2h9.6v9.6h-9.6z"/><path d="m126.4 110h7.2"/><path d="m130 106.4v7.2"/><path d="m145.2 105.2h9.6v9.6h-9.6z"/><path d="m166.4 110h7.2"/><path d="m170 106.4v7.2"/><path d="m186.4 110h7.2"/><path d="m190 106.4v7.2"/><path d="m206.4 110h7.2"/><path d="m210 106.4v7.2"/><path d="m226.4 110h7.2"/><path d="m230 106.4v7.2"/><path d="m246.4 110h7.2"/><path d="m250 106.4v7.2"/><path d="m266.4 110h7.2"/><path d="m270 106.4v7.2"/><path d="m286.4 110h7.2"/><path d="m290 106.4v7.2"/><path d="m306.4 110h7.2"/><path d="m310 106.4v7.2"/><path d="m326.4 110h7.2"/><path d="m330 106.4v7.2"/><path d="m346.4 110h7.2"/><path d="m350 106.4v7.2"/><path d="m366.4 110h7.2"/><path d="m370 106.4v7.2"/><path d="m85.2 125.2h9.6v9.6h-9.6z"/><path d="m105.2 125.2h9.6v9.6h-9.6z"/><path d="m125.2 125.2h9.6v9.6h-9.6z"/><path d="m145.2 125.2h9.6v9.6h-9.6z"/><path d="m166.4 130h7.2"/><path d="m170 126.4v7.2"/><path d="m185.2 125.2h9.6v9.6h-9.6z"/><path d="m206.4 130h7.2"/><path d="m210 126.4v7.2"/><path d="m226.4 130h7.2"/><path d="m230 126.4v7.2"/><path d="m246.4 130h7.2"/><path d="m250 126.4v7.2"/><path d="m266.4 130h7.2"/><path d="m270 126.4v7.2"/><path d="m286.4 130h7.2"/><path d="m290 126.4v7.2"/><path d="m306.4 130h7.2"/><path d="m310 126.4v7.2"/><path d="m326.4 130h7.2"/><path d="m330 126.4v7.2"/><path d="m346.4 130h7.2"/><path d="m350 126.4v7.2"/><path d="m365.2 125.2h9.6v9.6h-9.6z"/><path d="m386.4 130h7.2"/><path d="m390 126.4v7.2"/><path d="m66.4 150h7.2"/><path d="m70 146.4v7.2"/><path d="m85.2 145.2h9.6v9.6h-9.6z"/><path d="m105.2 145.2h9.6v9.6h-9.6z"/><path d="m126.4 150h7.2"/><path d="m130 146.4v7.2"/><path d="m145.2 145.2h9.6v9.6h-9.6z"/><path d="m166.4 150h7.2"/><path d="m170 146.4v7.2"/><path d="m185.2 145.2h9.6v9.6h-9.6z"/><path d="m206.4 150h7.2"/><path d="m210 146.4v7.2"/><path d="m226.4 150h7.2"/><path d="m230 146.4v7.2"/><path d="m246.4 150h7.2"/><path d="m250 146.4v7.2"/><path d="m266.4 150h7.2"/><path d="m270 146.4v7.2"/><path d="m285.2 145.2h9.6v9.6h-9.6z"/><path d="m306.4 150h7.2"/><path d="m310 146.4v7.2"/><path d="m325.2 145.2h9.6v9.6h-9.6z"/><path d="m346.4 150h7.2"/><path d="m350 146.4v7.2"/><path d="m366.4 150h7.2"/><path d="m370 146.4v7.2"/><path d="m385.2 145.2h9.6v9.6h-9.6z"/><path d="m406.4 150h7.2"/><path d="m410 146.4v7.2"/><path d="m66.4 170h7.2"/><path d="m70 166.4v7.2"/><path d="m86.4 170h7.2"/><path d="m90 166.4v7.2"/><path d="m105.2 165.2h9.6v9.6h-9.6z"/><path d="m126.4 170h7.2"/><path d="m130 166.4v7.2"/><path d="m146.4 170h7.2"/><path d="m150 166.4v7.2"/><path d="m165.2 165.2h9.6v9.6h-9.6z"/><path d="m186.4 170h7.2"/><path d="m190 166.4v7.2"/><path d="m205.2 165.2h9.6v9.6h-9.6z"/><path d="m226.4 170h7.2"/><path d="m230 166.4v7.2"/><path d="m246.4 170h7.2"/><path d="m250 166.4v7.2"/><path d="m266.4 170h7.2"/><path d="m270 166.4v7.2"/><path d="m285.2 165.2h9.6v9.6h-9.6z"/><path d="m306.4 170h7.2"/><path d="m310 166.4v7.2"/><path d="m326.4 170h7.2"/><path d="m330 166.4v7.2"/><path d="m345.2 165.2h9.6v9.6h-9.6z"/><path d="m366.4 170h7.2"/><path d="m370 166.4v7.2"/><path d="m386.4 170h7.2"/><path d="m390 166.4v7.2"/><path d="m406.4 170h7.2"/><path d="m410 166.4v7.2"/><path d="m46.4 190h7.2"/><path d="m50 186.4v7.2"/><path d="m66.4 190h7.2"/><path d="m70 186.4v7.2"/><path d="m86.4 190h7.2"/><path d="m90 186.4v7.2"/><path d="m106.4 190h7.2"/><path d="m110 186.4v7.2"/><path d="m126.4 190h7.2"/><path d="m130 186.4v7.2"/><path d="m146.4 190h7.2"/><path d="m150 186.4v7.2"/><path d="m166.4 190h7.2"/><path d="m170 186.4v7.2"/><path d="m186.4 190h7.2"/><path d="m190 186.4v7.2"/><path d="m206.4 190h7.2"/><path d="m210 186.4v7.2"/><path d="m226.4 190h7.2"/><path d="m230 186.4v7.2"/><path d="m246.4 190h7.2"/><path d="m250 186.4v7.2"/><path d="m266.4 190h7.2"/><path d="m270 186.4v7.2"/><path d="m286.4 190h7.2"/><path d="m290 186.4v7.2"/><path d="m305.2 185.2h9.6v9.6h-9.6z"/><path d="m326.4 190h7.2"/><path d="m330 186.4v7.2"/><path d="m346.4 190h7.2"/><path d="m350 186.4v7.2"/><path d="m366.4 190h7.2"/><path d="m370 186.4v7.2"/><path d="m386.4 190h7.2"/><path d="m390 186.4v7.2"/><path d="m406.4 190h7.2"/><path d="m410 186.4v7.2"/><path d="m426.4 190h7.2"/><path d="m430 186.4v7.2"/><path d="m46.4 210h7.2"/><path d="m50 206.4v7.2"/><path d="m66.4 210h7.2"/><path d="m70 206.4v7.2"/><circle cx="90" cy="210" r="4.8"/><path d="m106.4 210h7.2"/><path d="m110 206.4v7.2"/><path d="m126.4 210h7.2"/><path d="m130 206.4v7.2"/><path d="m146.4 210h7.2"/><path d="m150 206.4v7.2"/><path d="m166.4 210h7.2"/><path d="m170 206.4v7.2"/><path d="m186.4 210h7.2"/><path d="m190 206.4v7.2"/><circle cx="210" cy="210" r="4.8"/><path d="m226.4 210h7.2"/><path d="m230 206.4v7.2"/><path d="m246.4 210h7.2"/><path d="m250 206.4v7.2"/><path d="m266.4 210h7.2"/><path d="m270 206.4v7.2"/><path d="m286.4 210h7.2"/><path d="m290 206.4v7.2"/><path d="m306.4 210h7.2"/><path d="m310 206.4v7.2"/><path d="m325.2 205.2h9.6v9.6h-9.6z"/><path d="m346.4 210h7.2"/><path d="m350 206.4v7.2"/><path d="m366.4 210h7.2"/><path d="m370 206.4v7.2"/><path d="m386.4 210h7.2"/><path d="m390 206.4v7.2"/><path d="m406.4 210h7.2"/><path d="m410 206.4v7.2"/><path d="m426.4 210h7.2"/><path d="m430 206.4v7.2"/><path d="m46.4 230h7.2"/><path d="m50 226.4v7.2"/><path d="m66.4 230h7.2"/><path d="m70 226.4v7.2"/></g><path d="m90 225.2 1.4107 2.8584 3.1544.4583-2.2826 2.2249.5389 3.1417-2.8214-1.4833-2.8214 1.4833.5389-3.1417-2.2826-2.2249 3.1544-.4583z" stroke="none"/><circle cx="110" cy="230" fill="none" r="4.8"/><path d="m126.4 230h7.2" fill="none"/><path d="m130 226.4v7.2" fill="none"/><path d="m146.4 230h7.2" fill="none"/><path d="m150 226.4v7.2" fill="none"/><path d="m166.4 230h7.2" fill="none"/><path d="m170 226.4v7.2" fill="none"/><path d="m186.4 230h7.2" fill="none"/><path d="m190 226.4v7.2" fill="none"/><path d="m210 225.2 1.4107 2.8584 3.1544.4583-2.2826 2.2249.5389 3.1417-2.8214-1.4833-2.8214 1.4833.5389-3.1417-2.2826-2.2249 3.1544-.4583z" stroke="none"/><path d="m226.4 230h7.2" fill="none"/><path d="m230 226.4v7.2" fill="none"/><path d="m246.4 230h7.2" fill="none"/><path d="m250 226.4v7.2" fill="none"/><path d="m266.4 230h7.2" fill="none"/><path d="m270 226.4v7.2" fill="none"/><path d="m286.4 230h7.2" fill="none"/><path d="m290 226.4v7.2" fill="none"/><path d="m306.4 230h7.2" fill="none"/><path d="m310 226.4v7.2" fill="none"/><path d="m326.4 230h7.2" fill="none"/><path d="m330 226.4v7.2" fill="none"/><path d="m346.4 230h7.2" fill="none"/><path d="m350 226.4v7.2" fill="none"/><path d="m366.4 230h7.2" fill="none"/><path d="m370 226.4v7.2" fill="none"/><path d="m386.4 230h7.2" fill="none"/><path d="m390 226.4v7.2" fill="none"/><path d="m406.4 230h7.2" fill="none"/><path d="m410 226.4v7.2" fill="none"/><path d="m426.4 230h7.2" fill="none"/><path d="m430 226.4v7.2" fill="none"/><path d="m46.4 250h7.2" fill="none"/><path d="m50 246.4v7.2" fill="none"/><circle cx="70" cy="250" r="4.8" stroke="none"/><path d="m85.2 245.2 9.6 9.6" fill="none"/><path d="m85.2 254.8 9.6-9.6" fill="none"/><path d="m110 245.2 1.4107 2.8584 3.1544.4583-2.2826 2.2249.5389 3.1417-2.8214-1.4833-2.8214 1.4833.5389-3.1417-2.2826-2.2249 3.1544-.4583z" stroke="none"/><circle cx="130" cy="250" fill="none" r="4.8"/><path d="m146.4 250h7.2" fill="none"/><path d="m150 246.4v7.2" fill="none"/><path d="m166.4 250h7.2" fill="none"/><path d="m170 246.4v7.2" fill="none"/><circle cx="190" cy="250" r="4.8" stroke="none"/><path d="m205.2 245.2 9.6 9.6" fill="none"/><path d="m205.2 254.8 9.6-9.6" fill="none"/><path d="m230 245.2 1.4107 2.8584 3.1544.4583-2.2826 2.2249.5389 3.1417-2.8214-1.4833-2.8214 1.4833.5389-3.1417-2.2826-2.2249 3.1544-.4583z" stroke="none"/><path d="m246.4 250h7.2" fill="none"/><path d="m250 246.4v7.2" fill="none"/><path d="m266.4 250h7.2" fill="none"/><path d="m270 246.4v7.2" fill="none"/><circle cx="290" cy="250" fill="none" r="4.8"/><path d="m306.4 250h7.2" fill="none"/><path d="m310 246.4v7.2" fill="none"/><path d="m326.4 250h7.2" fill="none"/><path d="m330 246.4v7.2" fill="none"/><path d="m346.4 250h7.2" fill="none"/><path d="m350 246.4v7.2" fill="none"/><path d="m366.4 250h7.2" fill="none"/><path d="m370 246.4v7.2" fill="none"/><path d="m386.4 250h7.2" fill="none"/><path d="m390 246.4v7.2" fill="none"/><path d="m406.4 250h7.2" fill="none"/><path d="m410 246.4v7.2" fill="none"/><path d="m426.4 250h7.2" fill="none"/><path d="m430 246.4v7.2" fill="none"/><path d="m46.4 270h7.2" fill="none"/><path d="m50 266.4v7.2" fill="none"/><circle cx="70" cy="270" r="4.8" stroke="none"/><path d="m85.2 265.2 9.6 9.6" fill="none"/><path d="m85.2 274.8 9.6-9.6" fill="none"/><path d="m110 265.2 1.4107 2.8583 3.1544.4584-2.2826 2.2249.5389 3.1417-2.8214-1.4833-2.8214 1.4833.5389-3.1417-2.2826-2.2249 3.1544-.4584z" stroke="none"/><circle cx="130" cy="270" fill="none" r="4.8"/><path d="m146.4 270h7.2" fill="none"/><path d="m150 266.4v7.2" fill="none"/><path d="m166.4 270h7.2" fill="none"/><path d="m170 266.4v7.2" fill="none"/><circle cx="190" cy="270" r="4.8" stroke="none"/><path d="m205.2 265.2 9.6 9.6" fill="none"/><path d="m205.2 274.8 9.6-9.6" fill="none"/><path d="m230 265.2 1.4107 2.8583 3.1544.4584-2.2826 2.2249.5389 3.1417-2.8214-1.4833-2.8214 1.4833.5389-3.1417-2.2826-2.2249 3.1544-.4584z" stroke="none"/><circle cx="250" cy="270" fill="none" r="4.8"/><path d="m266.4 270h7.2" fill="none"/><path d="m270 266.4v7.2" fill="none"/><circle cx="290" cy="270" fill="none" r="4.8"/><path d="m306.4 270h7.2" fill="none"/><path d="m310 266.4v7.2" fill="none"/><path d="m326.4 270h7.2" fill="none"/><path d="m330 266.4v7.2" fill="none"/><path d="m346.4 270h7.2" fill="none"/><path d="m350 266.4v7.2" fill="none"/><path d="m366.4 270h7.2" fill="none"/><path d="m370 266.4v7.2" fill="none"/><path d="m386.4 270h7.2" fill="none"/><path d="m390 266.4v7.2" fill="none"/><path d="m406.4 270h7.2" fill="none"/><path d="m410 266.4v7.2" fill="none"/><path d="m46.4 290h7.2" fill="none"/><path d="m50 286.4v7.2" fill="none"/><circle cx="70" cy="290" fill="none" r="4.8"/><circle cx="90" cy="290" r="4.8" stroke="none"/><path d="m105.2 285.2 9.6 9.6" fill="none"/><path d="m105.2 294.8 9.6-9.6" fill="none"/><circle cx="130" cy="290" fill="none" r="4.8"/><circle cx="150" cy="290" fill="none" r="4.8"/><path d="m166.4 290h7.2" fill="none"/><path d="m170 286.4v7.2" fill="none"/><circle cx="190" cy="290" fill="none" r="4.8"/><circle cx="210" cy="290" r="4.8" stroke="none"/><path d="m225.2 285.2 9.6 9.6" fill="none"/><path d="m225.2 294.8 9.6-9.6" fill="none"/><circle cx="250" cy="290" fill="none" r="4.8"/><circle cx="270" cy="290" fill="none" r="4.8"/><path d="m286.4 290h7.2" fill="none"/><path d="m290 286.4v7.2" fill="none"/><path d="m306.4 290h7.2" fill="none"/><path d="m310 286.4v7.2" fill="none"/><circle cx="330" cy="290" fill="none" r="4.8"/><circle cx="350" cy="290" fill="none" r="4.8"/><path d="m366.4 290h7.2" fill="none"/><path d="m370 286.4v7.2" fill="none"/><path d="m386.4 290h7.2" fill="none"/><path d="m390 286.4v7.2" fill="none"/><path d="m406.4 290h7.2" fill="none"/><path d="m410 286.4v7.2" fill="none"/><path d="m66.4 310h7.2" fill="none"/><path d="m70 306.4v7.2" fill="none"/><circle cx="90" cy="310" fill="none" r="4.8"/><circle cx="110" cy="310" fill="none" r="4.8"/><circle cx="130" cy="310" fill="none" r="4.8"/><circle cx="150" cy="310" fill="none" r="4.8"/><circle cx="170" cy="310" fill="none" r="4.8"/><circle cx="190" cy="310" fill="none" r="4.8"/><circle cx="210" cy="310" fill="none" r="4.8"/><circle cx="230" cy="310" fill="none" r="4.8"/><circle cx="250" cy="310" fill="none" r="4.8"/><circle cx="270" cy="310" fill="none" r="4.8"/><path d="m286.4 310h7.2" fill="none"/><path d="m290 306.4v7.2" fill="none"/><path d="m306.4 310h7.2" fill="none"/><path d="m310 306.4v7.2" fill="none"/><circle cx="330" cy="310" fill="none" r="4.8"/><path d="m346.4 310h7.2" fill="none"/><path d="m350 306.4v7.2" fill="none"/><path d="m366.4 310h7.2" fill="none"/><path d="m370 306.4v7.2" fill="none"/><path d="m386.4 310h7.2" fill="none"/><path d="m390 306.4v7.2" fill="none"/><path d="m66.4 330h7.2" fill="none"/><path d="m70 326.4v7.2" fill="none"/><circle cx="90" cy="330" fill="none" r="4.8"/><circle cx="110" cy="330" fill="none" r="4.8"/><circle cx="130" cy="330" fill="none" r="4.8"/><circle cx="150" cy="330" fill="none" r="4.8"/><circle cx="170" cy="330" fill="none" r="4.8"/><circle cx="190" cy="330" fill="none" r="4.8"/><circle cx="210" cy="330" fill="none" r="4.8"/><circle cx="230" cy="330" fill="none" r="4.8"/><circle cx="250" cy="330" fill="none" r="4.8"/><path d="m266.4 330h7.2" fill="none"/><path d="m270 326.4v7.2" fill="none"/><path d="m286.4 330h7.2" fill="none"/><path d="m290 326.4v7.2" fill="none"/><path d="m306.4 330h7.2" fill="none"/><path d="m310 326.4v7.2" fill="none"/><path d="m326.4 330h7.2" fill="none"/><path d="m330 326.4v7.2" fill="none"/><path d="m346.4 330h7.2" fill="none"/><path d="m350 326.4v7.2" fill="none"/><path d="m366.4 330h7.2" fill="none"/><path d="m370 326.4v7.2" fill="none"/><circle cx="110" cy="350" fill="none" r="4.8"/><circle cx="130" cy="350" fill="none" r="4.8"/><path d="m146.4 350h7.2" fill="none"/><path d="m150 346.4v7.2" fill="none"/><path d="m166.4 350h7.2" fill="none"/><path d="m170 346.4v7.2" fill="none"/><circle cx="190" cy="350" fill="none" r="4.8"/><circle cx="210" cy="350" fill="none" r="4.8"/><circle cx="230" cy="350" fill="none" r="4.8"/><circle cx="250" cy="350" fill="none" r="4.8"/><path d="m266.4 350h7.2" fill="none"/><path d="m270 346.4v7.2" fill="none"/><path d="m286.4 350h7.2" fill="none"/><path d="m290 346.4v7.2" fill="none"/><circle cx="310" cy="350" fill="none" r="4.8"/><path d="m326.4 350h7.2" fill="none"/><path d="m330 346.4v7.2" fill="none"/><path d="m350 345.2 4.8 4.8-4.8 4.8-4.8-4.8z" stroke="none"/><circle cx="130" cy="370" fill="none" r="4.8"/><circle cx="150" cy="370" fill="none" r="4.8"/><circle cx="170" cy="370" fill="none" r="4.8"/><circle cx="190" cy="370" fill="none" r="4.8"/><circle cx="210" cy="370" fill="none" r="4.8"/><circle cx="230" cy="370" fill="none" r="4.8"/><path d="m250 365.2 1.4107 2.8583 3.1544.4584-2.2826 2.2249.5389 3.1417-2.8214-1.4833-2.8214 1.4833.5389-3.1417-2.2826-2.2249 3.1544-.4584z" stroke="none"/><path d="m270 365.2 1.4107 2.8583 3.1544.4584-2.2826 2.2249.5389 3.1417-2.8214-1.4833-2.8214 1.4833.5389-3.1417-2.2826-2.2249 3.1544-.4584z" stroke="none"/><circle cx="290" cy="370" fill="none" r="4.8"/><circle cx="310" cy="370" fill="none" r="4.8"/><path d="m330 365.2 4.8 4.8-4.8 4.8-4.8-4.8z" stroke="none"/><path d="m350 365.2 4.8 4.8-4.8 4.8-4.8-4.8z" stroke="none"/><circle cx="250" cy="390" fill="none" r="4.8"/><circle cx="270" cy="390" fill="none" r="4.8"/><circle cx="290" cy="390" fill="none" r="4.8"/><circle cx="310" cy="390" fill="none" r="4.8"/><path d="m330 385.2 4.8 4.8-4.8 4.8-4.8-4.8z" stroke="none"/><circle cx="250" cy="410" fill="none" r="4.8"/><circle cx="270" cy="410" fill="none" r="4.8"/><path d="m285.2 405.2 9.6 9.6" fill="none"/><path d="m285.2 414.8 9.6-9.6" fill="none"/><path d="m305.2 405.2 9.6 9.6" fill="none"/><path d="m305.2 414.8 9.6-9.6" fill="none"/><path d="m325.2 405.2 9.6 9.6" fill="none"/><path d="m325.2 414.8 9.6-9.6" fill="none"/><path d="m350 405.2 4.8 4.8-4.8 4.8-4.8-4.8z" stroke="none"/><path d="m225.2 425.2 9.6 9.6" fill="none"/><path d="m225.2 434.8 9.6-9.6" fill="none"/><path d="m245.2 425.2 9.6 9.6" fill="none"/><path d="m245.2 434.8 9.6-9.6" fill="none"/><path d="m265.2 425.2 9.6 9.6" fill="none"/><path d="m265.2 434.8 9.6-9.6" fill="none"/><path d="m285.2 425.2 9.6 9.6" fill="none"/><path d="m285.2 434.8 9.6-9.6" fill="none"/><path d="m0 0v480" fill="none" stroke="#1c30d0"/><path d="m20 0v480" fill="none" stroke="#1c30d0" stroke-width="1"/><path d="m40 0v480" fill="none" stroke="#1c30d0" stroke-width="1"/><path d="m60 0v480" fill="none" stroke="#1c30d0" stroke-width="1"/><path d="m80 0v480" fill="none" stroke="#1c30d0" stroke-width="1"/><path d="m100 0v480" fill="none" stroke="#1c30d0" stroke-width="1"/><path d="m120 0v480" fill="none" stroke="#1c30d0" stroke-width="1"/><path d="m140 0v480" fill="none" stroke="#1c30d0" stroke-width="1"/><path d="m160 0v480" fill="none" stroke="#1c30d0" stroke-width="1"/><path d="m180 0v480" fill="none" stroke="#1c30d0" stroke-width="1"/><path d="m200 0v480" fill="none" stroke="#1c30d0" stroke-width="1"/><path d="m220 0v480" fill="none" stroke="#1c30d0" stroke-width="1"/><path d="m240 0v480" fill="none" stroke="#1c30d0" stroke-width="1"/><path d="m260 0v480" fill="none" stroke="#1c30d0" stroke-width="1"/><path d="m280 0v480" fill="none" stroke="#1c30d0" stroke-width="1"/><path d="m300 0v480" fill="none" stroke="#1c30d0" stroke-width="1"/><path d="m320 0v480" fill="none" stroke="#1c30d0" stroke-width="1"/><path d="m340 0v480" fill="none" stroke="#1c30d0" stroke-width="1"/><path d="m360 0v480" fill="none" stroke="#1c30d0" stroke-width="1"/><path d="m380 0v480" fill="none" stroke="#1c30d0" stroke-width="1"/><path d="m400 0v480" fill="none" stroke="#1c30d0" stroke-width="1"/><path d="m420 0v480" fill="none" stroke="#1c30d0" stroke-width="1"/><path d="m440 0v480" fill="none" stroke="#1c30d0" stroke-width="1"/><path d="m460 0v480" fill="none" stroke="#1c30d0" stroke-width="1"/><path d="m480 0v480" fill="none" stroke="#1c30d0"/><path d="m0 0h480" fill="none" stroke="#1c30d0"/><path d="m0 20h480" fill="none" stroke="#1c30d0" stroke-width="1"/><path d="m0 40h480" fill="none" stroke="#1c30d0" stroke-width="1"/><path d="m0 60h480" fill="none" stroke="#1c30d0" stroke-width="1"/><path d="m0 80h480" fill="none" stroke="#1c30d0" stroke-width="1"/><path d="m0 100h480" fill="none" stroke="#1c30d0" stroke-width="1"/><path d="m0 120h480" fill="none" stroke="#1c30d0" stroke-width="1"/><path d="m0 140h480" fill="none" stroke="#1c30d0" stroke-width="1"/><path d="m0 160h480" fill="none" stroke="#1c30d0" stroke-width="1"/><path d="m0 180h480" fill="none" stroke="#1c30d0" stroke-width="1"/><path d="m0 200h480" fill="none" stroke="#1c30d0" stroke-width="1"/><path d="m0 220h480" fill="none" stroke="#1c30d0" stroke-width="1"/><path d="m0 240h480" fill="none" stroke="#1c30d0" stroke-width="1"/><path d="m0 260h480" fill="none" stroke="#1c30d0" stroke-width="1"/><path d="m0 280h480" fill="none" stroke="#1c30d0" stroke-width="1"/><path d="m0 300h480" fill="none" stroke="#1c30d0" stroke-width="1"/><path d="m0 320h480" fill="none" stroke="#1c30d0" stroke-width="1"/><path d="m0 340h480" fill="none" stroke="#1c30d0" stroke-width="1"/><path d="m0 360h480" fill="none" stroke="#1c30d0" stroke-width="1"/><path d="m0 380h480" fill="none" stroke="#1c30d0" stroke-width="1"/><path d="m0 400h480" fill="none" stroke="#1c30d0" stroke-width="1"/><path d="m0 420h480" fill="none" stroke="#1c30d0" stroke-width="1"/><path d="m0 440h480" fill="none" stroke="#1c30d0" stroke-width="1"/><path d="m0 460h480" fill="none" stroke="#1c30d0" stroke-width="1"/><path d="m0 480h480" fill="none" stroke="#1c30d0"/></g></g></svg>