<svg color-interpolation="auto" height="480" stroke="#000" stroke-linecap="square" stroke-miterlimit="10" width="480" xmlns="http://www.w3.org/2000/svg"><g stroke-linecap="round" stroke-width="1.5"><path d="m210 30h4.8" fill="none"/><g><g fill="none"><path d="m210 30 2.4 4.1569"/><path d="m210 30-2.4 4.1569"/><path d="m210 30h-4.8"/><path d="m210 30-2.4-4.1569"/><path d="m210 30 2.4-4.1569"/><path d="m230 30h4.8"/><path d="m230 30 2.4 4.1569"/><path d="m230 30-2.4 4.1569"/><path d="m230 30h-4.8"/><path d="m230 30-2.4-4.1569"/><path d="m230 30 2.4-4.1569"/><path d="m250 30h4.8"/><path d="m250 30 2.4 4.1569"/><path d="m250 30-2.4 4.1569"/><path d="m250 30h-4.8"/><path d="m250 30-2.4-4.1569"/><path d="m250 30 2.4-4.1569"/><path d="m270 30h4.8"/><path d="m270 30 2.4 4.1569"/><path d="m270 30-2.4 4.1569"/><path d="m270 30h-4.8"/><path d="m270 30-2.4-4.1569"/><path d="m270 30 2.4-4.1569"/><path d="m290 30h4.8"/><path d="m290 30 2.4 4.1569"/><path d="m290 30-2.4 4.1569"/><path d="m290 30h-4.8"/><path d="m290 30-2.4-4.1569"/><path d="m290 30 2.4-4.1569"/><path d="m170 50h4.8"/><path d="m170 50 2.4 4.1569"/><path d="m170 50-2.4 4.1569"/><path d="m170 50h-4.8"/><path d="m170 50-2.4-4.1569"/><path d="m170 50 2.4-4.1569"/><path d="m190 50h4.8"/><path d="m190 50 2.4 4.1569"/><path d="m190 50-2.4 4.1569"/><path d="m190 50h-4.8"/><path d="m190 50-2.4-4.1569"/><path d="m190 50 2.4-4.1569"/><circle cx="210" cy="50" r="4.8" stroke-width="2"/><circle cx="230" cy="50" r="4.8" stroke-width="2"/><circle cx="250" cy="50" r="4.8" stroke-width="2"/><circle cx="270" cy="50" r="4.8" stroke-width="2"/><circle cx="290" cy="50" r="4.8" stroke-width="2"/><path d="m310 50h4.8"/><path d="m310 50 2.4 4.1569"/><path d="m310 50-2.4 4.1569"/><path d="m310 50h-4.8"/><path d="m310 50-2.4-4.1569"/><path d="m310 50 2.4-4.1569"/><path d="m330 50h4.8"/><path d="m330 50 2.4 4.1569"/><path d="m330 50-2.4 4.1569"/><path d="m330 50h-4.8"/><path d="m330 50-2.4-4.1569"/><path d="m330 50 2.4-4.1569"/><path d="m130 70h4.8"/><path d="m130 70 2.4 4.1569"/><path d="m130 70-2.4 4.1569"/><path d="m130 70h-4.8"/><path d="m130 70-2.4-4.1569"/><path d="m130 70 2.4-4.1569"/><path d="m150 70h4.8"/><path d="m150 70 2.4 4.1569"/><path d="m150 70-2.4 4.1569"/><path d="m150 70h-4.8"/><path d="m150 70-2.4-4.1569"/><path d="m150 70 2.4-4.1569"/><circle cx="170" cy="70" r="4.8" stroke-width="2"/><circle cx="190" cy="70" r="4.8" stroke-width="2"/><circle cx="210" cy="70" r="4.8" stroke-width="2"/><circle cx="230" cy="70" r="4.8" stroke-width="2"/><circle cx="250" cy="70" r="4.8" stroke-width="2"/><circle cx="270" cy="70" r="4.8" stroke-width="2"/><circle cx="290" cy="70" r="4.8" stroke-width="2"/><circle cx="310" cy="70" r="4.8" stroke-width="2"/><circle cx="330" cy="70" r="4.8" stroke-width="2"/><path d="m350 70h4.8"/><path d="m350 70 2.4 4.1569"/><path d="m350 70-2.4 4.1569"/><path d="m350 70h-4.8"/><path d="m350 70-2.4-4.1569"/><path d="m350 70 2.4-4.1569"/><path d="m370 70h4.8"/><path d="m370 70 2.4 4.1569"/><path d="m370 70-2.4 4.1569"/><path d="m370 70h-4.8"/><path d="m370 70-2.4-4.1569"/><path d="m370 70 2.4-4.1569"/><path d="m110 90h4.8"/><path d="m110 90 2.4 4.1569"/><path d="m110 90-2.4 4.1569"/><path d="m110 90h-4.8"/><path d="m110 90-2.4-4.1569"/><path d="m110 90 2.4-4.1569"/><circle cx="130" cy="90" r="4.8" stroke-width="2"/><circle cx="150" cy="90" r="4.8" stroke-width="2"/><circle cx="170" cy="90" r="4.8" stroke-width="2"/><circle cx="190" cy="90" r="4.8" stroke-width="2"/><circle cx="210" cy="90" r="4.8" stroke-width="2"/><circle cx="230" cy="90" r="4.8" stroke-width="2"/><circle cx="250" cy="90" r="4.8" stroke-width="2"/><circle cx="270" cy="90" r="4.8" stroke-width="2"/><circle cx="290" cy="90" r="4.8" stroke-width="2"/><circle cx="310" cy="90" r="4.8" stroke-width="2"/><circle cx="330" cy="90" r="4.8" stroke-width="2"/><circle cx="350" cy="90" r="4.8" stroke-width="2"/><circle cx="370" cy="90" r="4.8" stroke-width="2"/><path d="m390 90h4.8"/><path d="m390 90 2.4 4.1569"/><path d="m390 90-2.4 4.1569"/><path d="m390 90h-4.8"/><path d="m390 90-2.4-4.1569"/><path d="m390 90 2.4-4.1569"/><path d="m110 110h4.8"/><path d="m110 110 2.4 4.1569"/><path d="m110 110-2.4 4.1569"/><path d="m110 110h-4.8"/><path d="m110 110-2.4-4.1569"/><path d="m110 110 2.4-4.1569"/><circle cx="130" cy="110" r="4.8" stroke-width="2"/><circle cx="150" cy="110" r="4.8" stroke-width="2"/><circle cx="170" cy="110" r="4.8" stroke-width="2"/><circle cx="190" cy="110" r="4.8" stroke-width="2"/><circle cx="210" cy="110" r="4.8" stroke-width="2"/><circle cx="230" cy="110" r="4.8" stroke-width="2"/><circle cx="250" cy="110" r="4.8" stroke-width="2"/><circle cx="270" cy="110" r="4.8" stroke-width="2"/><circle cx="290" cy="110" r="4.8" stroke-width="2"/><circle cx="310" cy="110" r="4.8" stroke-width="2"/><circle cx="330" cy="110" r="4.8" stroke-width="2"/><circle cx="350" cy="110" r="4.8" stroke-width="2"/><circle cx="370" cy="110" r="4.8" stroke-width="2"/><path d="m390 110h4.8"/><path d="m390 110 2.4 4.1569"/><path d="m390 110-2.4 4.1569"/><path d="m390 110h-4.8"/><path d="m390 110-2.4-4.1569"/><path d="m390 110 2.4-4.1569"/><path d="m90 130h4.8"/><path d="m90 130 2.4 4.1569"/><path d="m90 130-2.4 4.1569"/><path d="m90 130h-4.8"/><path d="m90 130-2.4-4.1569"/><path d="m90 130 2.4-4.1569"/><circle cx="110" cy="130" r="4.8" stroke-width="2"/><circle cx="130" cy="130" r="4.8" stroke-width="2"/><circle cx="150" cy="130" r="4.8" stroke-width="2"/><circle cx="170" cy="130" r="4.8" stroke-width="2"/><circle cx="190" cy="130" r="4.8" stroke-width="2"/></g><path d="m210 125.2 4.8 4.8-4.8 4.8-4.8-4.8z" stroke="none"/><path d="m230 125.2 4.8 4.8-4.8 4.8-4.8-4.8z" stroke="none"/><circle cx="250" cy="130" fill="none" r="4.8" stroke-width="2"/><circle cx="270" cy="130" fill="none" r="4.8" stroke-width="2"/><circle cx="290" cy="130" fill="none" r="4.8" stroke-width="2"/><circle cx="310" cy="130" fill="none" r="4.8" stroke-width="2"/><circle cx="330" cy="130" fill="none" r="4.8" stroke-width="2"/><circle cx="350" cy="130" fill="none" r="4.8" stroke-width="2"/><circle cx="370" cy="130" fill="none" r="4.8" stroke-width="2"/><circle cx="390" cy="130" fill="none" r="4.8" stroke-width="2"/><path d="m410 130h4.8" fill="none"/><path d="m410 130 2.4 4.1569" fill="none"/><path d="m410 130-2.4 4.1569" fill="none"/><path d="m410 130h-4.8" fill="none"/><path d="m410 130-2.4-4.1569" fill="none"/><path d="m410 130 2.4-4.1569" fill="none"/><path d="m90 150h4.8" fill="none"/><path d="m90 150 2.4 4.1569" fill="none"/><path d="m90 150-2.4 4.1569" fill="none"/><path d="m90 150h-4.8" fill="none"/><path d="m90 150-2.4-4.1569" fill="none"/><path d="m90 150 2.4-4.1569" fill="none"/><circle cx="110" cy="150" fill="none" r="4.8" stroke-width="2"/><circle cx="130" cy="150" fill="none" r="4.8" stroke-width="2"/><circle cx="150" cy="150" fill="none" r="4.8" stroke-width="2"/><circle cx="170" cy="150" fill="none" r="4.8" stroke-width="2"/><path d="m190 145.2 4.8 4.8-4.8 4.8-4.8-4.8z" stroke="none"/><path d="m210 145.2 4.8 4.8-4.8 4.8-4.8-4.8z" stroke="none"/><path d="m230 145.2 4.8 4.8-4.8 4.8-4.8-4.8z" stroke="none"/><circle cx="250" cy="150" fill="none" r="4.8" stroke-width="2"/><circle cx="270" cy="150" fill="none" r="4.8" stroke-width="2"/><circle cx="290" cy="150" fill="none" r="4.8" stroke-width="2"/><circle cx="310" cy="150" fill="none" r="4.8" stroke-width="2"/><circle cx="330" cy="150" fill="none" r="4.8" stroke-width="2"/><circle cx="350" cy="150" fill="none" r="4.8" stroke-width="2"/><circle cx="370" cy="150" fill="none" r="4.8" stroke-width="2"/><circle cx="390" cy="150" fill="none" r="4.8" stroke-width="2"/><path d="m410 150h4.8" fill="none"/><path d="m410 150 2.4 4.1569" fill="none"/><path d="m410 150-2.4 4.1569" fill="none"/><path d="m410 150h-4.8" fill="none"/><path d="m410 150-2.4-4.1569" fill="none"/><path d="m410 150 2.4-4.1569" fill="none"/><path d="m70 170h4.8" fill="none"/><path d="m70 170 2.4 4.1569" fill="none"/><path d="m70 170-2.4 4.1569" fill="none"/><path d="m70 170h-4.8" fill="none"/><path d="m70 170-2.4-4.1569" fill="none"/><path d="m70 170 2.4-4.1569" fill="none"/><circle cx="90" cy="170" fill="none" r="4.8" stroke-width="2"/><circle cx="110" cy="170" fill="none" r="4.8" stroke-width="2"/><circle cx="130" cy="170" fill="none" r="4.8" stroke-width="2"/><circle cx="150" cy="170" fill="none" r="4.8" stroke-width="2"/><circle cx="170" cy="170" fill="none" r="4.8" stroke-width="2"/><path d="m190 165.2 4.8 4.8-4.8 4.8-4.8-4.8z" stroke="none"/><path d="m210 165.2 4.8 4.8-4.8 4.8-4.8-4.8z" stroke="none"/><circle cx="230" cy="170" fill="none" r="4.8" stroke-width="2"/><circle cx="250" cy="170" fill="none" r="4.8" stroke-width="2"/><circle cx="270" cy="170" fill="none" r="4.8" stroke-width="2"/><circle cx="290" cy="170" fill="none" r="4.8" stroke-width="2"/><circle cx="310" cy="170" fill="none" r="4.8" stroke-width="2"/><circle cx="330" cy="170" fill="none" r="4.8" stroke-width="2"/><circle cx="350" cy="170" fill="none" r="4.8" stroke-width="2"/><circle cx="370" cy="170" fill="none" r="4.8" stroke-width="2"/><circle cx="390" cy="170" fill="none" r="4.8" stroke-width="2"/><circle cx="410" cy="170" fill="none" r="4.8" stroke-width="2"/><path d="m430 170h4.8" fill="none"/><path d="m430 170 2.4 4.1569" fill="none"/><path d="m430 170-2.4 4.1569" fill="none"/><path d="m430 170h-4.8" fill="none"/><path d="m430 170-2.4-4.1569" fill="none"/><path d="m430 170 2.4-4.1569" fill="none"/><path d="m70 190h4.8" fill="none"/><path d="m70 190 2.4 4.1569" fill="none"/><path d="m70 190-2.4 4.1569" fill="none"/><path d="m70 190h-4.8" fill="none"/><path d="m70 190-2.4-4.1569" fill="none"/><path d="m70 190 2.4-4.1569" fill="none"/><circle cx="90" cy="190" fill="none" r="4.8" stroke-width="2"/><circle cx="110" cy="190" fill="none" r="4.8" stroke-width="2"/><circle cx="130" cy="190" fill="none" r="4.8" stroke-width="2"/><circle cx="150" cy="190" fill="none" r="4.8" stroke-width="2"/><circle cx="170" cy="190" fill="none" r="4.8" stroke-width="2"/><circle cx="190" cy="190" fill="none" r="4.8" stroke-width="2"/><circle cx="210" cy="190" fill="none" r="4.8" stroke-width="2"/><circle cx="230" cy="190" fill="none" r="4.8" stroke-width="2"/><circle cx="250" cy="190" fill="none" r="4.8" stroke-width="2"/><circle cx="270" cy="190" fill="none" r="4.8" stroke-width="2"/><circle cx="290" cy="190" fill="none" r="4.8" stroke-width="2"/><circle cx="310" cy="190" fill="none" r="4.8" stroke-width="2"/><circle cx="330" cy="190" fill="none" r="4.8" stroke-width="2"/><circle cx="350" cy="190" fill="none" r="4.8" stroke-width="2"/><circle cx="370" cy="190" fill="none" r="4.8" stroke-width="2"/><circle cx="390" cy="190" fill="none" r="4.8" stroke-width="2"/><circle cx="410" cy="190" fill="none" r="4.8" stroke-width="2"/><path d="m430 190h4.8" fill="none"/><path d="m430 190 2.4 4.1569" fill="none"/><path d="m430 190-2.4 4.1569" fill="none"/><path d="m430 190h-4.8" fill="none"/><path d="m430 190-2.4-4.1569" fill="none"/><path d="m430 190 2.4-4.1569" fill="none"/><path d="m70 210h4.8" fill="none"/><path d="m70 210 2.4 4.1569" fill="none"/><path d="m70 210-2.4 4.1569" fill="none"/><path d="m70 210h-4.8" fill="none"/><path d="m70 210-2.4-4.1569" fill="none"/><path d="m70 210 2.4-4.1569" fill="none"/><circle cx="90" cy="210" fill="none" r="4.8" stroke-width="2"/><circle cx="110" cy="210" fill="none" r="4.8" stroke-width="2"/><circle cx="130" cy="210" fill="none" r="4.8" stroke-width="2"/><path d="m150 205.2 4.8 4.8-4.8 4.8-4.8-4.8z" stroke="none"/><circle cx="170" cy="210" fill="none" r="4.8" stroke-width="2"/><circle cx="190" cy="210" fill="none" r="4.8" stroke-width="2"/><circle cx="210" cy="210" fill="none" r="4.8" stroke-width="2"/><circle cx="230" cy="210" fill="none" r="4.8" stroke-width="2"/><circle cx="250" cy="210" fill="none" r="4.8" stroke-width="2"/><circle cx="270" cy="210" fill="none" r="4.8" stroke-width="2"/><circle cx="290" cy="210" fill="none" r="4.8" stroke-width="2"/><path d="m310 205.2 4.8 4.8-4.8 4.8-4.8-4.8z" stroke="none"/><path d="m330 205.2 4.8 4.8-4.8 4.8-4.8-4.8z" stroke="none"/><circle cx="350" cy="210" fill="none" r="4.8" stroke-width="2"/><circle cx="370" cy="210" fill="none" r="4.8" stroke-width="2"/><circle cx="390" cy="210" fill="none" r="4.8" stroke-width="2"/><circle cx="410" cy="210" fill="none" r="4.8" stroke-width="2"/><path d="m430 210h4.8" fill="none"/><path d="m430 210 2.4 4.1569" fill="none"/><path d="m430 210-2.4 4.1569" fill="none"/><path d="m430 210h-4.8" fill="none"/><path d="m430 210-2.4-4.1569" fill="none"/><path d="m430 210 2.4-4.1569" fill="none"/><path d="m70 230h4.8" fill="none"/><path d="m70 230 2.4 4.1569" fill="none"/><path d="m70 230-2.4 4.1569" fill="none"/><path d="m70 230h-4.8" fill="none"/><path d="m70 230-2.4-4.1569" fill="none"/><path d="m70 230 2.4-4.1569" fill="none"/><circle cx="90" cy="230" fill="none" r="4.8" stroke-width="2"/><circle cx="110" cy="230" fill="none" r="4.8" stroke-width="2"/><circle cx="130" cy="230" fill="none" r="4.8" stroke-width="2"/><path d="m150 225.2 4.8 4.8-4.8 4.8-4.8-4.8z" stroke="none"/><path d="m170 225.2 4.8 4.8-4.8 4.8-4.8-4.8z" stroke="none"/><circle cx="190" cy="230" fill="none" r="4.8" stroke-width="2"/><circle cx="210" cy="230" fill="none" r="4.8" stroke-width="2"/><circle cx="230" cy="230" fill="none" r="4.8" stroke-width="2"/><circle cx="250" cy="230" fill="none" r="4.8" stroke-width="2"/><circle cx="270" cy="230" fill="none" r="4.8" stroke-width="2"/><path d="m290 225.2 4.8 4.8-4.8 4.8-4.8-4.8z" stroke="none"/><path d="m310 225.2 4.8 4.8-4.8 4.8-4.8-4.8z" stroke="none"/><path d="m330 225.2 4.8 4.8-4.8 4.8-4.8-4.8z" stroke="none"/><circle cx="350" cy="230" fill="none" r="4.8" stroke-width="2"/><circle cx="370" cy="230" fill="none" r="4.8" stroke-width="2"/><circle cx="390" cy="230" fill="none" r="4.8" stroke-width="2"/><circle cx="410" cy="230" fill="none" r="4.8" stroke-width="2"/><path d="m430 230h4.8" fill="none"/><path d="m430 230 2.4 4.1569" fill="none"/><path d="m430 230-2.4 4.1569" fill="none"/><path d="m430 230h-4.8" fill="none"/><path d="m430 230-2.4-4.1569" fill="none"/><path d="m430 230 2.4-4.1569" fill="none"/><path d="m70 250h4.8" fill="none"/><path d="m70 250 2.4 4.1569" fill="none"/><path d="m70 250-2.4 4.1569" fill="none"/><path d="m70 250h-4.8" fill="none"/><path d="m70 250-2.4-4.1569" fill="none"/><path d="m70 250 2.4-4.1569" fill="none"/><circle cx="90" cy="250" fill="none" r="4.8" stroke-width="2"/><circle cx="110" cy="250" fill="none" r="4.8" stroke-width="2"/><circle cx="130" cy="250" fill="none" r="4.8" stroke-width="2"/><path d="m150 245.2 4.8 4.8-4.8 4.8-4.8-4.8z" stroke="none"/><path d="m170 245.2 4.8 4.8-4.8 4.8-4.8-4.8z" stroke="none"/><path d="m190 245.2 4.8 4.8-4.8 4.8-4.8-4.8z" stroke="none"/><circle cx="210" cy="250" fill="none" r="4.8" stroke-width="2"/><circle cx="230" cy="250" fill="none" r="4.8" stroke-width="2"/><circle cx="250" cy="250" fill="none" r="4.8" stroke-width="2"/><circle cx="270" cy="250" fill="none" r="4.8" stroke-width="2"/><path d="m290 245.2 4.8 4.8-4.8 4.8-4.8-4.8z" stroke="none"/><path d="m310 245.2 4.8 4.8-4.8 4.8-4.8-4.8z" stroke="none"/><circle cx="330" cy="250" fill="none" r="4.8" stroke-width="2"/><circle cx="350" cy="250" fill="none" r="4.8" stroke-width="2"/><circle cx="370" cy="250" fill="none" r="4.8" stroke-width="2"/><circle cx="390" cy="250" fill="none" r="4.8" stroke-width="2"/><circle cx="410" cy="250" fill="none" r="4.8" stroke-width="2"/><path d="m430 250h4.8" fill="none"/><path d="m430 250 2.4 4.1569" fill="none"/><path d="m430 250-2.4 4.1569" fill="none"/><path d="m430 250h-4.8" fill="none"/><path d="m430 250-2.4-4.1569" fill="none"/><path d="m430 250 2.4-4.1569" fill="none"/><circle cx="50" cy="270" fill="none" r="4.8" stroke-width="2"/><path d="m70 270h4.8" fill="none"/><path d="m70 270 2.4 4.1569" fill="none"/><path d="m70 270-2.4 4.1569" fill="none"/><path d="m70 270h-4.8" fill="none"/><path d="m70 270-2.4-4.1569" fill="none"/><path d="m70 270 2.4-4.1569" fill="none"/><circle cx="90" cy="270" fill="none" r="4.8" stroke-width="2"/><circle cx="110" cy="270" fill="none" r="4.8" stroke-width="2"/><circle cx="130" cy="270" fill="none" r="4.8" stroke-width="2"/><circle cx="150" cy="270" fill="none" r="4.8" stroke-width="2"/><path d="m170 265.2 4.8 4.8-4.8 4.8-4.8-4.8z" stroke="none"/><path d="m190 265.2 4.8 4.8-4.8 4.8-4.8-4.8z" stroke="none"/><path d="m210 265.2 4.8 4.8-4.8 4.8-4.8-4.8z" stroke="none"/><circle cx="230" cy="270" fill="none" r="4.8" stroke-width="2"/><circle cx="250" cy="270" fill="none" r="4.8" stroke-width="2"/><circle cx="270" cy="270" fill="none" r="4.8" stroke-width="2"/><circle cx="290" cy="270" fill="none" r="4.8" stroke-width="2"/><circle cx="310" cy="270" fill="none" r="4.8" stroke-width="2"/><circle cx="330" cy="270" fill="none" r="4.8" stroke-width="2"/><circle cx="350" cy="270" fill="none" r="4.8" stroke-width="2"/><circle cx="370" cy="270" fill="none" r="4.8" stroke-width="2"/><path d="m390 270h4.8" fill="none"/><path d="m390 270 2.4 4.1569" fill="none"/><path d="m390 270-2.4 4.1569" fill="none"/><path d="m390 270h-4.8" fill="none"/><path d="m390 270-2.4-4.1569" fill="none"/><path d="m390 270 2.4-4.1569" fill="none"/><circle cx="410" cy="270" fill="none" r="4.8" stroke-width="2"/><path d="m430 270h4.8" fill="none"/><path d="m430 270 2.4 4.1569" fill="none"/><path d="m430 270-2.4 4.1569" fill="none"/><path d="m430 270h-4.8" fill="none"/><path d="m430 270-2.4-4.1569" fill="none"/><path d="m430 270 2.4-4.1569" fill="none"/><circle cx="450" cy="270" fill="none" r="4.8" stroke-width="2"/><circle cx="30" cy="290" fill="none" r="4.8" stroke-width="2"/><path d="m50 290h4.8" fill="none"/><path d="m50 290 2.4 4.1569" fill="none"/><path d="m50 290-2.4 4.1569" fill="none"/><path d="m50 290h-4.8" fill="none"/><path d="m50 290-2.4-4.1569" fill="none"/><path d="m50 290 2.4-4.1569" fill="none"/><circle cx="70" cy="290" fill="none" r="4.8" stroke-width="2"/><path d="m90 290h4.8" fill="none"/><path d="m90 290 2.4 4.1569" fill="none"/><path d="m90 290-2.4 4.1569" fill="none"/><path d="m90 290h-4.8" fill="none"/><path d="m90 290-2.4-4.1569" fill="none"/><path d="m90 290 2.4-4.1569" fill="none"/><circle cx="110" cy="290" fill="none" r="4.8" stroke-width="2"/><circle cx="130" cy="290" fill="none" r="4.8" stroke-width="2"/><circle cx="150" cy="290" fill="none" r="4.8" stroke-width="2"/><circle cx="170" cy="290" fill="none" r="4.8" stroke-width="2"/><path d="m190 285.2 4.8 4.8-4.8 4.8-4.8-4.8z" stroke="none"/><path d="m210 285.2 4.8 4.8-4.8 4.8-4.8-4.8z" stroke="none"/><path d="m230 285.2 4.8 4.8-4.8 4.8-4.8-4.8z" stroke="none"/><path d="m250 285.2 4.8 4.8-4.8 4.8-4.8-4.8z" stroke="none"/><circle cx="270" cy="290" fill="none" r="4.8" stroke-width="2"/><circle cx="290" cy="290" fill="none" r="4.8" stroke-width="2"/><circle cx="310" cy="290" fill="none" r="4.8" stroke-width="2"/><circle cx="330" cy="290" fill="none" r="4.8" stroke-width="2"/><circle cx="350" cy="290" fill="none" r="4.8" stroke-width="2"/><path d="m370 290h4.8" fill="none"/><path d="m370 290 2.4 4.1569" fill="none"/><path d="m370 290-2.4 4.1569" fill="none"/><path d="m370 290h-4.8" fill="none"/><path d="m370 290-2.4-4.1569" fill="none"/><path d="m370 290 2.4-4.1569" fill="none"/><circle cx="390" cy="290" fill="none" r="4.8" stroke-width="2"/><path d="m410 290h4.8" fill="none"/><path d="m410 290 2.4 4.1569" fill="none"/><path d="m410 290-2.4 4.1569" fill="none"/><path d="m410 290h-4.8" fill="none"/><path d="m410 290-2.4-4.1569" fill="none"/><path d="m410 290 2.4-4.1569" fill="none"/><circle cx="430" cy="290" fill="none" r="4.8" stroke-width="2"/><path d="m450 290h4.8" fill="none"/><path d="m450 290 2.4 4.1569" fill="none"/><path d="m450 290-2.4 4.1569" fill="none"/><path d="m450 290h-4.8" fill="none"/><path d="m450 290-2.4-4.1569" fill="none"/><path d="m450 290 2.4-4.1569" fill="none"/><path d="m30 310h4.8" fill="none"/><path d="m30 310 2.4 4.1569" fill="none"/><path d="m30 310-2.4 4.1569" fill="none"/><path d="m30 310h-4.8" fill="none"/><path d="m30 310-2.4-4.1569" fill="none"/><path d="m30 310 2.4-4.1569" fill="none"/><circle cx="50" cy="310" fill="none" r="4.8" stroke-width="2"/><path d="m70 310h4.8" fill="none"/><path d="m70 310 2.4 4.1569" fill="none"/><path d="m70 310-2.4 4.1569" fill="none"/><path d="m70 310h-4.8" fill="none"/><path d="m70 310-2.4-4.1569" fill="none"/><path d="m70 310 2.4-4.1569" fill="none"/><circle cx="90" cy="310" fill="none" r="4.8" stroke-width="2"/><path d="m110 310h4.8" fill="none"/><path d="m110 310 2.4 4.1569" fill="none"/><path d="m110 310-2.4 4.1569" fill="none"/><path d="m110 310h-4.8" fill="none"/><path d="m110 310-2.4-4.1569" fill="none"/><path d="m110 310 2.4-4.1569" fill="none"/><circle cx="130" cy="310" fill="none" r="4.8" stroke-width="2"/><circle cx="150" cy="310" fill="none" r="4.8" stroke-width="2"/><circle cx="170" cy="310" fill="none" r="4.8" stroke-width="2"/><circle cx="190" cy="310" fill="none" r="4.8" stroke-width="2"/><circle cx="210" cy="310" fill="none" r="4.8" stroke-width="2"/><path d="m230 305.2 4.8 4.8-4.8 4.8-4.8-4.8z" stroke="none"/><path d="m250 305.2 4.8 4.8-4.8 4.8-4.8-4.8z" stroke="none"/><path d="m270 305.2 4.8 4.8-4.8 4.8-4.8-4.8z" stroke="none"/><path d="m290 305.2 4.8 4.8-4.8 4.8-4.8-4.8z" stroke="none"/><path d="m310 310h4.8" fill="none"/><path d="m310 310 2.4 4.1569" fill="none"/><path d="m310 310-2.4 4.1569" fill="none"/><path d="m310 310h-4.8" fill="none"/><path d="m310 310-2.4-4.1569" fill="none"/><path d="m310 310 2.4-4.1569" fill="none"/><circle cx="330" cy="310" fill="none" r="4.8" stroke-width="2"/><path d="m350 310h4.8" fill="none"/><path d="m350 310 2.4 4.1569" fill="none"/><path d="m350 310-2.4 4.1569" fill="none"/><path d="m350 310h-4.8" fill="none"/><path d="m350 310-2.4-4.1569" fill="none"/><path d="m350 310 2.4-4.1569" fill="none"/><circle cx="370" cy="310" fill="none" r="4.8" stroke-width="2"/><path d="m390 310h4.8" fill="none"/><path d="m390 310 2.4 4.1569" fill="none"/><path d="m390 310-2.4 4.1569" fill="none"/><path d="m390 310h-4.8" fill="none"/><path d="m390 310-2.4-4.1569" fill="none"/><path d="m390 310 2.4-4.1569" fill="none"/><circle cx="410" cy="310" fill="none" r="4.8" stroke-width="2"/><path d="m430 305.2 4.8 4.8-4.8 4.8-4.8-4.8z" stroke="none"/><path d="m50 325.2 4.8 4.8-4.8 4.8-4.8-4.8z" stroke="none"/><circle cx="70" cy="330" fill="none" r="4.8" stroke-width="2"/><path d="m90 330h4.8" fill="none"/><path d="m90 330 2.4 4.1569" fill="none"/><path d="m90 330-2.4 4.1569" fill="none"/><path d="m90 330h-4.8" fill="none"/><path d="m90 330-2.4-4.1569" fill="none"/><path d="m90 330 2.4-4.1569" fill="none"/><circle cx="110" cy="330" fill="none" r="4.8" stroke-width="2"/><path d="m130 330h4.8" fill="none"/><path d="m130 330 2.4 4.1569" fill="none"/><path d="m130 330-2.4 4.1569" fill="none"/><path d="m130 330h-4.8" fill="none"/><path d="m130 330-2.4-4.1569" fill="none"/><path d="m130 330 2.4-4.1569" fill="none"/><circle cx="150" cy="330" fill="none" r="4.8" stroke-width="2"/><path d="m170 330h4.8" fill="none"/><path d="m170 330 2.4 4.1569" fill="none"/><path d="m170 330-2.4 4.1569" fill="none"/><path d="m170 330h-4.8" fill="none"/><path d="m170 330-2.4-4.1569" fill="none"/><path d="m170 330 2.4-4.1569" fill="none"/><circle cx="190" cy="330" fill="none" r="4.8" stroke-width="2"/><path d="m210 330h4.8" fill="none"/><path d="m210 330 2.4 4.1569" fill="none"/><path d="m210 330-2.4 4.1569" fill="none"/><path d="m210 330h-4.8" fill="none"/><path d="m210 330-2.4-4.1569" fill="none"/><path d="m210 330 2.4-4.1569" fill="none"/><circle cx="230" cy="330" fill="none" r="4.8" stroke-width="2"/><path d="m250 330h4.8" fill="none"/><path d="m250 330 2.4 4.1569" fill="none"/><path d="m250 330-2.4 4.1569" fill="none"/><path d="m250 330h-4.8" fill="none"/><path d="m250 330-2.4-4.1569" fill="none"/><path d="m250 330 2.4-4.1569" fill="none"/><circle cx="270" cy="330" fill="none" r="4.8" stroke-width="2"/><path d="m290 330h4.8" fill="none"/><path d="m290 330 2.4 4.1569" fill="none"/><path d="m290 330-2.4 4.1569" fill="none"/><path d="m290 330h-4.8" fill="none"/><path d="m290 330-2.4-4.1569" fill="none"/><path d="m290 330 2.4-4.1569" fill="none"/><path d="m310 325.2 4.8 4.8-4.8 4.8-4.8-4.8z" stroke="none"/><path d="m330 325.2 4.8 4.8-4.8 4.8-4.8-4.8z" stroke="none"/><path d="m350 325.2 4.8 4.8-4.8 4.8-4.8-4.8z" stroke="none"/><path d="m370 330h4.8" fill="none"/><path d="m370 330 2.4 4.1569" fill="none"/><path d="m370 330-2.4 4.1569" fill="none"/><path d="m370 330h-4.8" fill="none"/><path d="m370 330-2.4-4.1569" fill="none"/><path d="m370 330 2.4-4.1569" fill="none"/><circle cx="390" cy="330" fill="none" r="4.8" stroke-width="2"/><path d="m410 330h4.8" fill="none"/><path d="m410 330 2.4 4.1569" fill="none"/><path d="m410 330-2.4 4.1569" fill="none"/><path d="m410 330h-4.8" fill="none"/><path d="m410 330-2.4-4.1569" fill="none"/><path d="m410 330 2.4-4.1569" fill="none"/><circle cx="430" cy="330" fill="none" r="4.8" stroke-width="2"/><path d="m70 345.2 4.8 4.8-4.8 4.8-4.8-4.8z" stroke="none"/><path d="m90 345.2 4.8 4.8-4.8 4.8-4.8-4.8z" stroke="none"/><path d="m110 350h4.8" fill="none"/><path d="m110 350 2.4 4.1569" fill="none"/><path d="m110 350-2.4 4.1569" fill="none"/><path d="m110 350h-4.8" fill="none"/><path d="m110 350-2.4-4.1569" fill="none"/><path d="m110 350 2.4-4.1569" fill="none"/><circle cx="130" cy="350" fill="none" r="4.8" stroke-width="2"/><path d="m150 350h4.8" fill="none"/><path d="m150 350 2.4 4.1569" fill="none"/><path d="m150 350-2.4 4.1569" fill="none"/><path d="m150 350h-4.8" fill="none"/><path d="m150 350-2.4-4.1569" fill="none"/><path d="m150 350 2.4-4.1569" fill="none"/><circle cx="170" cy="350" fill="none" r="4.8" stroke-width="2"/><path d="m190 350h4.8" fill="none"/><path d="m190 350 2.4 4.1569" fill="none"/><path d="m190 350-2.4 4.1569" fill="none"/><path d="m190 350h-4.8" fill="none"/><path d="m190 350-2.4-4.1569" fill="none"/><path d="m190 350 2.4-4.1569" fill="none"/><circle cx="210" cy="350" fill="none" r="4.8" stroke-width="2"/><path d="m230 350h4.8" fill="none"/><path d="m230 350 2.4 4.1569" fill="none"/><path d="m230 350-2.4 4.1569" fill="none"/><path d="m230 350h-4.8" fill="none"/><path d="m230 350-2.4-4.1569" fill="none"/><path d="m230 350 2.4-4.1569" fill="none"/><circle cx="250" cy="350" fill="none" r="4.8" stroke-width="2"/><path d="m270 350h4.8" fill="none"/><path d="m270 350 2.4 4.1569" fill="none"/><path d="m270 350-2.4 4.1569" fill="none"/><path d="m270 350h-4.8" fill="none"/><path d="m270 350-2.4-4.1569" fill="none"/><path d="m270 350 2.4-4.1569" fill="none"/><circle cx="290" cy="350" fill="none" r="4.8" stroke-width="2"/><path d="m310 350h4.8" fill="none"/><path d="m310 350 2.4 4.1569" fill="none"/><path d="m310 350-2.4 4.1569" fill="none"/><path d="m310 350h-4.8" fill="none"/><path d="m310 350-2.4-4.1569" fill="none"/><path d="m310 350 2.4-4.1569" fill="none"/><circle cx="330" cy="350" fill="none" r="4.8" stroke-width="2"/><path d="m350 345.2 4.8 4.8-4.8 4.8-4.8-4.8z" stroke="none"/><path d="m370 345.2 4.8 4.8-4.8 4.8-4.8-4.8z" stroke="none"/><path d="m390 350h4.8" fill="none"/><path d="m390 350 2.4 4.1569" fill="none"/><path d="m390 350-2.4 4.1569" fill="none"/><path d="m390 350h-4.8" fill="none"/><path d="m390 350-2.4-4.1569" fill="none"/><path d="m390 350 2.4-4.1569" fill="none"/><circle cx="410" cy="350" fill="none" r="4.8" stroke-width="2"/><path d="m430 345.2 4.8 4.8-4.8 4.8-4.8-4.8z" stroke="none"/><circle cx="70" cy="370" fill="none" r="4.8" stroke-width="2"/><path d="m90 370h4.8" fill="none"/><path d="m90 370 2.4 4.1569" fill="none"/><path d="m90 370-2.4 4.1569" fill="none"/><path d="m90 370h-4.8" fill="none"/><path d="m90 370-2.4-4.1569" fill="none"/><path d="m90 370 2.4-4.1569" fill="none"/><circle cx="110" cy="370" fill="none" r="4.8" stroke-width="2"/><circle cx="130" cy="370" fill="none" r="4.8" stroke-width="2"/><circle cx="150" cy="370" fill="none" r="4.8" stroke-width="2"/><path d="m170 370h4.8" fill="none"/><path d="m170 370 2.4 4.1569" fill="none"/><path d="m170 370-2.4 4.1569" fill="none"/><path d="m170 370h-4.8" fill="none"/><path d="m170 370-2.4-4.1569" fill="none"/><path d="m170 370 2.4-4.1569" fill="none"/><circle cx="190" cy="370" fill="none" r="4.8" stroke-width="2"/><circle cx="210" cy="370" fill="none" r="4.8" stroke-width="2"/><circle cx="230" cy="370" fill="none" r="4.8" stroke-width="2"/><path d="m250 370h4.8" fill="none"/><path d="m250 370 2.4 4.1569" fill="none"/><path d="m250 370-2.4 4.1569" fill="none"/><path d="m250 370h-4.8" fill="none"/><path d="m250 370-2.4-4.1569" fill="none"/><path d="m250 370 2.4-4.1569" fill="none"/><circle cx="270" cy="370" fill="none" r="4.8" stroke-width="2"/><path d="m290 365.2 4.8 4.8-4.8 4.8-4.8-4.8z" stroke="none"/><path d="m310 365.2 4.8 4.8-4.8 4.8-4.8-4.8z" stroke="none"/><path d="m330 365.2 4.8 4.8-4.8 4.8-4.8-4.8z" stroke="none"/><circle cx="350" cy="370" fill="none" r="4.8" stroke-width="2"/><circle cx="370" cy="370" fill="none" r="4.8" stroke-width="2"/><circle cx="390" cy="370" fill="none" r="4.8" stroke-width="2"/><path d="m410 365.2 4.8 4.8-4.8 4.8-4.8-4.8z" stroke="none"/><path d="m70 390h4.8" fill="none"/><path d="m70 390 2.4 4.1569" fill="none"/><path d="m70 390-2.4 4.1569" fill="none"/><path d="m70 390h-4.8" fill="none"/><path d="m70 390-2.4-4.1569" fill="none"/><path d="m70 390 2.4-4.1569" fill="none"/><circle cx="90" cy="390" fill="none" r="4.8" stroke-width="2"/><path d="m110 390h4.8" fill="none"/><path d="m110 390 2.4 4.1569" fill="none"/><path d="m110 390-2.4 4.1569" fill="none"/><path d="m110 390h-4.8" fill="none"/><path d="m110 390-2.4-4.1569" fill="none"/><path d="m110 390 2.4-4.1569" fill="none"/><circle cx="130" cy="390" fill="none" r="4.8" stroke-width="2"/><path d="m150 390h4.8" fill="none"/><path d="m150 390 2.4 4.1569" fill="none"/><path d="m150 390-2.4 4.1569" fill="none"/><path d="m150 390h-4.8" fill="none"/><path d="m150 390-2.4-4.1569" fill="none"/><path d="m150 390 2.4-4.1569" fill="none"/><circle cx="170" cy="390" fill="none" r="4.8" stroke-width="2"/><path d="m190 390h4.8" fill="none"/><path d="m190 390 2.4 4.1569" fill="none"/><path d="m190 390-2.4 4.1569" fill="none"/><path d="m190 390h-4.8" fill="none"/><path d="m190 390-2.4-4.1569" fill="none"/><path d="m190 390 2.4-4.1569" fill="none"/><circle cx="210" cy="390" fill="none" r="4.8" stroke-width="2"/><path d="m230 390h4.8" fill="none"/><path d="m230 390 2.4 4.1569" fill="none"/><path d="m230 390-2.4 4.1569" fill="none"/><path d="m230 390h-4.8" fill="none"/><path d="m230 390-2.4-4.1569" fill="none"/><path d="m230 390 2.4-4.1569" fill="none"/><circle cx="250" cy="390" fill="none" r="4.8" stroke-width="2"/><path d="m270 390h4.8" fill="none"/><path d="m270 390 2.4 4.1569" fill="none"/><path d="m270 390-2.4 4.1569" fill="none"/><path d="m270 390h-4.8" fill="none"/><path d="m270 390-2.4-4.1569" fill="none"/><path d="m270 390 2.4-4.1569" fill="none"/><circle cx="290" cy="390" fill="none" r="4.8" stroke-width="2"/><path d="m310 390h4.8" fill="none"/><path d="m310 390 2.4 4.1569" fill="none"/><path d="m310 390-2.4 4.1569" fill="none"/><path d="m310 390h-4.8" fill="none"/><path d="m310 390-2.4-4.1569" fill="none"/><path d="m310 390 2.4-4.1569" fill="none"/><circle cx="330" cy="390" fill="none" r="4.8" stroke-width="2"/><path d="m350 390h4.8" fill="none"/><path d="m350 390 2.4 4.1569" fill="none"/><path d="m350 390-2.4 4.1569" fill="none"/><path d="m350 390h-4.8" fill="none"/><path d="m350 390-2.4-4.1569" fill="none"/><path d="m350 390 2.4-4.1569" fill="none"/><circle cx="370" cy="390" fill="none" r="4.8" stroke-width="2"/><path d="m390 390h4.8" fill="none"/><path d="m390 390 2.4 4.1569" fill="none"/><path d="m390 390-2.4 4.1569" fill="none"/><path d="m390 390h-4.8" fill="none"/><path d="m390 390-2.4-4.1569" fill="none"/><path d="m390 390 2.4-4.1569" fill="none"/><circle cx="410" cy="390" fill="none" r="4.8" stroke-width="2"/><path d="m430 390h4.8" fill="none"/><path d="m430 390 2.4 4.1569" fill="none"/><path d="m430 390-2.4 4.1569" fill="none"/><path d="m430 390h-4.8" fill="none"/><path d="m430 390-2.4-4.1569" fill="none"/><path d="m430 390 2.4-4.1569" fill="none"/><path d="m90 405.2 4.8 4.8-4.8 4.8-4.8-4.8z" stroke="none"/><path d="m110 405.2 4.8 4.8-4.8 4.8-4.8-4.8z" stroke="none"/><path d="m130 405.2 4.8 4.8-4.8 4.8-4.8-4.8z" stroke="none"/><circle cx="150" cy="410" fill="none" r="4.8" stroke-width="2"/><path d="m170 410h4.8" fill="none"/><path d="m170 410 2.4 4.1569" fill="none"/><path d="m170 410-2.4 4.1569" fill="none"/><path d="m170 410h-4.8" fill="none"/><path d="m170 410-2.4-4.1569" fill="none"/><path d="m170 410 2.4-4.1569" fill="none"/><circle cx="190" cy="410" fill="none" r="4.8" stroke-width="2"/><path d="m210 410h4.8" fill="none"/><path d="m210 410 2.4 4.1569" fill="none"/><path d="m210 410-2.4 4.1569" fill="none"/><path d="m210 410h-4.8" fill="none"/><path d="m210 410-2.4-4.1569" fill="none"/><path d="m210 410 2.4-4.1569" fill="none"/><path d="m230 405.2 4.8 4.8-4.8 4.8-4.8-4.8z" stroke="none"/><path d="m250 405.2 4.8 4.8-4.8 4.8-4.8-4.8z" stroke="none"/><path d="m270 405.2 4.8 4.8-4.8 4.8-4.8-4.8z" stroke="none"/><path d="m290 405.2 4.8 4.8-4.8 4.8-4.8-4.8z" stroke="none"/><circle cx="310" cy="410" fill="none" r="4.8" stroke-width="2"/><path d="m330 410h4.8" fill="none"/><path d="m330 410 2.4 4.1569" fill="none"/><path d="m330 410-2.4 4.1569" fill="none"/><path d="m330 410h-4.8" fill="none"/><path d="m330 410-2.4-4.1569" fill="none"/><path d="m330 410 2.4-4.1569" fill="none"/><circle cx="350" cy="410" fill="none" r="4.8" stroke-width="2"/><path d="m370 410h4.8" fill="none"/><path d="m370 410 2.4 4.1569" fill="none"/><path d="m370 410-2.4 4.1569" fill="none"/><path d="m370 410h-4.8" fill="none"/><path d="m370 410-2.4-4.1569" fill="none"/><path d="m370 410 2.4-4.1569" fill="none"/><circle cx="390" cy="410" fill="none" r="4.8" stroke-width="2"/><path d="m410 410h4.8" fill="none"/><path d="m410 410 2.4 4.1569" fill="none"/><path d="m410 410-2.4 4.1569" fill="none"/><path d="m410 410h-4.8" fill="none"/><path d="m410 410-2.4-4.1569" fill="none"/><path d="m410 410 2.4-4.1569" fill="none"/><circle cx="430" cy="410" fill="none" r="4.8" stroke-width="2"/><path d="m450 410h4.8" fill="none"/><path d="m450 410 2.4 4.1569" fill="none"/><path d="m450 410-2.4 4.1569" fill="none"/><path d="m450 410h-4.8" fill="none"/><path d="m450 410-2.4-4.1569" fill="none"/><path d="m450 410 2.4-4.1569" fill="none"/><path d="m150 425.2 4.8 4.8-4.8 4.8-4.8-4.8z" stroke="none"/><path d="m170 425.2 4.8 4.8-4.8 4.8-4.8-4.8z" stroke="none"/><path d="m190 425.2 4.8 4.8-4.8 4.8-4.8-4.8z" stroke="none"/><path d="m210 425.2 4.8 4.8-4.8 4.8-4.8-4.8z" stroke="none"/><path d="m310 425.2 4.8 4.8-4.8 4.8-4.8-4.8z" stroke="none"/><path d="m330 425.2 4.8 4.8-4.8 4.8-4.8-4.8z" stroke="none"/><path d="m350 425.2 4.8 4.8-4.8 4.8-4.8-4.8z" stroke="none"/><circle cx="370" cy="430" fill="none" r="4.8" stroke-width="2"/><path d="m390 430h4.8" fill="none"/><path d="m390 430 2.4 4.1569" fill="none"/><path d="m390 430-2.4 4.1569" fill="none"/><path d="m390 430h-4.8" fill="none"/><path d="m390 430-2.4-4.1569" fill="none"/><path d="m390 430 2.4-4.1569" fill="none"/><circle cx="410" cy="430" fill="none" r="4.8" stroke-width="2"/><path d="m430 430h4.8" fill="none"/><path d="m430 430 2.4 4.1569" fill="none"/><path d="m430 430-2.4 4.1569" fill="none"/><path d="m430 430h-4.8" fill="none"/><path d="m430 430-2.4-4.1569" fill="none"/><path d="m430 430 2.4-4.1569" fill="none"/><circle cx="450" cy="430" fill="none" r="4.8" stroke-width="2"/><path d="m370 445.2 4.8 4.8-4.8 4.8-4.8-4.8z" stroke="none"/><path d="m390 445.2 4.8 4.8-4.8 4.8-4.8-4.8z" stroke="none"/><path d="m410 445.2 4.8 4.8-4.8 4.8-4.8-4.8z" stroke="none"/><path d="m430 445.2 4.8 4.8-4.8 4.8-4.8-4.8z" stroke="none"/><path d="m0 0v480" fill="none" stroke="#1c30d0" stroke-width="2"/><path d="m20 0v480" fill="none" stroke="#1c30d0" stroke-width="1"/><path d="m40 0v480" fill="none" stroke="#1c30d0" stroke-width="1"/><path d="m60 0v480" fill="none" stroke="#1c30d0" stroke-width="1"/><path d="m80 0v480" fill="none" stroke="#1c30d0" stroke-width="1"/><path d="m100 0v480" fill="none" stroke="#1c30d0" stroke-width="1"/><path d="m120 0v480" fill="none" stroke="#1c30d0" stroke-width="1"/><path d="m140 0v480" fill="none" stroke="#1c30d0" stroke-width="1"/><path d="m160 0v480" fill="none" stroke="#1c30d0" stroke-width="1"/><path d="m180 0v480" fill="none" stroke="#1c30d0" stroke-width="1"/><path d="m200 0v480" fill="none" stroke="#1c30d0" stroke-width="1"/><path d="m220 0v480" fill="none" stroke="#1c30d0" stroke-width="1"/><path d="m240 0v480" fill="none" stroke="#1c30d0" stroke-width="1"/><path d="m260 0v480" fill="none" stroke="#1c30d0" stroke-width="1"/><path d="m280 0v480" fill="none" stroke="#1c30d0" stroke-width="1"/><path d="m300 0v480" fill="none" stroke="#1c30d0" stroke-width="1"/><path d="m320 0v480" fill="none" stroke="#1c30d0" stroke-width="1"/><path d="m340 0v480" fill="none" stroke="#1c30d0" stroke-width="1"/><path d="m360 0v480" fill="none" stroke="#1c30d0" stroke-width="1"/><path d="m380 0v480" fill="none" stroke="#1c30d0" stroke-width="1"/><path d="m400 0v480" fill="none" stroke="#1c30d0" stroke-width="1"/><path d="m420 0v480" fill="none" stroke="#1c30d0" stroke-width="1"/><path d="m440 0v480" fill="none" stroke="#1c30d0" stroke-width="1"/><path d="m460 0v480" fill="none" stroke="#1c30d0" stroke-width="1"/><path d="m480 0v480" fill="none" stroke="#1c30d0" stroke-width="2"/><path d="m0 0h480" fill="none" stroke="#1c30d0" stroke-width="2"/><path d="m0 20h480" fill="none" stroke="#1c30d0" stroke-width="1"/><path d="m0 40h480" fill="none" stroke="#1c30d0" stroke-width="1"/><path d="m0 60h480" fill="none" stroke="#1c30d0" stroke-width="1"/><path d="m0 80h480" fill="none" stroke="#1c30d0" stroke-width="1"/><path d="m0 100h480" fill="none" stroke="#1c30d0" stroke-width="1"/><path d="m0 120h480" fill="none" stroke="#1c30d0" stroke-width="1"/><path d="m0 140h480" fill="none" stroke="#1c30d0" stroke-width="1"/><path d="m0 160h480" fill="none" stroke="#1c30d0" stroke-width="1"/><path d="m0 180h480" fill="none" stroke="#1c30d0" stroke-width="1"/><path d="m0 200h480" fill="none" stroke="#1c30d0" stroke-width="1"/><path d="m0 220h480" fill="none" stroke="#1c30d0" stroke-width="1"/><path d="m0 240h480" fill="none" stroke="#1c30d0" stroke-width="1"/><path d="m0 260h480" fill="none" stroke="#1c30d0" stroke-width="1"/><path d="m0 280h480" fill="none" stroke="#1c30d0" stroke-width="1"/><path d="m0 300h480" fill="none" stroke="#1c30d0" stroke-width="1"/><path d="m0 320h480" fill="none" stroke="#1c30d0" stroke-width="1"/><path d="m0 340h480" fill="none" stroke="#1c30d0" stroke-width="1"/><path d="m0 360h480" fill="none" stroke="#1c30d0" stroke-width="1"/><path d="m0 380h480" fill="none" stroke="#1c30d0" stroke-width="1"/><path d="m0 400h480" fill="none" stroke="#1c30d0" stroke-width="1"/><path d="m0 420h480" fill="none" stroke="#1c30d0" stroke-width="1"/><path d="m0 440h480" fill="none" stroke="#1c30d0" stroke-width="1"/><path d="m0 460h480" fill="none" stroke="#1c30d0" stroke-width="1"/><path d="m0 480h480" fill="none" stroke="#1c30d0" stroke-width="2"/></g></g></svg>