<svg color-interpolation="auto" height="480" stroke="#000" stroke-linecap="square" stroke-miterlimit="10" width="480" xmlns="http://www.w3.org/2000/svg"><g stroke-linecap="round" stroke-width="1.5"><path d="m210 30h6.4" fill="none"/><g><g fill="none"><path d="m210 30 3.2 5.5426"/><path d="m210 30-3.2 5.5426"/><path d="m210 30h-6.4"/><path d="m210 30-3.2-5.5426"/><path d="m210 30 3.2-5.5426"/><path d="m230 30h6.4"/><path d="m230 30 3.2 5.5426"/><path d="m230 30-3.2 5.5426"/><path d="m230 30h-6.4"/><path d="m230 30-3.2-5.5426"/><path d="m230 30 3.2-5.5426"/><path d="m250 30h6.4"/><path d="m250 30 3.2 5.5426"/><path d="m250 30-3.2 5.5426"/><path d="m250 30h-6.4"/><path d="m250 30-3.2-5.5426"/><path d="m250 30 3.2-5.5426"/><path d="m270 30h6.4"/><path d="m270 30 3.2 5.5426"/><path d="m270 30-3.2 5.5426"/><path d="m270 30h-6.4"/><path d="m270 30-3.2-5.5426"/><path d="m270 30 3.2-5.5426"/><path d="m290 30h6.4"/><path d="m290 30 3.2 5.5426"/><path d="m290 30-3.2 5.5426"/><path d="m290 30h-6.4"/><path d="m290 30-3.2-5.5426"/><path d="m290 30 3.2-5.5426"/><path d="m170 50h6.4"/><path d="m170 50 3.2 5.5426"/><path d="m170 50-3.2 5.5426"/><path d="m170 50h-6.4"/><path d="m170 50-3.2-5.5426"/><path d="m170 50 3.2-5.5426"/><path d="m190 50h6.4"/><path d="m190 50 3.2 5.5426"/><path d="m190 50-3.2 5.5426"/><path d="m190 50h-6.4"/><path d="m190 50-3.2-5.5426"/><path d="m190 50 3.2-5.5426"/><path d="m203.6 43.6 12.8 12.8" stroke-width="2"/><path d="m203.6 56.4 12.8-12.8" stroke-width="2"/><path d="m223.6 43.6 12.8 12.8" stroke-width="2"/><path d="m223.6 56.4 12.8-12.8" stroke-width="2"/><path d="m243.6 43.6 12.8 12.8" stroke-width="2"/><path d="m243.6 56.4 12.8-12.8" stroke-width="2"/><path d="m263.6 43.6 12.8 12.8" stroke-width="2"/><path d="m263.6 56.4 12.8-12.8" stroke-width="2"/><path d="m283.6 43.6 12.8 12.8" stroke-width="2"/><path d="m283.6 56.4 12.8-12.8" stroke-width="2"/><path d="m310 50h6.4"/><path d="m310 50 3.2 5.5426"/><path d="m310 50-3.2 5.5426"/><path d="m310 50h-6.4"/><path d="m310 50-3.2-5.5426"/><path d="m310 50 3.2-5.5426"/><path d="m330 50h6.4"/><path d="m330 50 3.2 5.5426"/><path d="m330 50-3.2 5.5426"/><path d="m330 50h-6.4"/><path d="m330 50-3.2-5.5426"/><path d="m330 50 3.2-5.5426"/><path d="m130 70h6.4"/><path d="m130 70 3.2 5.5426"/><path d="m130 70-3.2 5.5426"/><path d="m130 70h-6.4"/><path d="m130 70-3.2-5.5426"/><path d="m130 70 3.2-5.5426"/><path d="m150 70h6.4"/><path d="m150 70 3.2 5.5426"/><path d="m150 70-3.2 5.5426"/><path d="m150 70h-6.4"/><path d="m150 70-3.2-5.5426"/><path d="m150 70 3.2-5.5426"/><path d="m163.6 63.6 12.8 12.8" stroke-width="2"/><path d="m163.6 76.4 12.8-12.8" stroke-width="2"/><path d="m183.6 63.6 12.8 12.8" stroke-width="2"/><path d="m183.6 76.4 12.8-12.8" stroke-width="2"/><path d="m203.6 63.6 12.8 12.8" stroke-width="2"/><path d="m203.6 76.4 12.8-12.8" stroke-width="2"/><path d="m223.6 63.6 12.8 12.8" stroke-width="2"/><path d="m223.6 76.4 12.8-12.8" stroke-width="2"/><path d="m243.6 63.6 12.8 12.8" stroke-width="2"/><path d="m243.6 76.4 12.8-12.8" stroke-width="2"/><path d="m263.6 63.6 12.8 12.8" stroke-width="2"/><path d="m263.6 76.4 12.8-12.8" stroke-width="2"/><path d="m283.6 63.6 12.8 12.8" stroke-width="2"/><path d="m283.6 76.4 12.8-12.8" stroke-width="2"/><path d="m303.6 63.6 12.8 12.8" stroke-width="2"/><path d="m303.6 76.4 12.8-12.8" stroke-width="2"/><path d="m323.6 63.6 12.8 12.8" stroke-width="2"/><path d="m323.6 76.4 12.8-12.8" stroke-width="2"/><path d="m350 70h6.4"/><path d="m350 70 3.2 5.5426"/><path d="m350 70-3.2 5.5426"/><path d="m350 70h-6.4"/><path d="m350 70-3.2-5.5426"/><path d="m350 70 3.2-5.5426"/><path d="m370 70h6.4"/><path d="m370 70 3.2 5.5426"/><path d="m370 70-3.2 5.5426"/><path d="m370 70h-6.4"/><path d="m370 70-3.2-5.5426"/><path d="m370 70 3.2-5.5426"/><path d="m110 90h6.4"/><path d="m110 90 3.2 5.5426"/><path d="m110 90-3.2 5.5426"/><path d="m110 90h-6.4"/><path d="m110 90-3.2-5.5426"/><path d="m110 90 3.2-5.5426"/><path d="m123.6 83.6 12.8 12.8" stroke-width="2"/><path d="m123.6 96.4 12.8-12.8" stroke-width="2"/><path d="m143.6 83.6 12.8 12.8" stroke-width="2"/><path d="m143.6 96.4 12.8-12.8" stroke-width="2"/><path d="m163.6 83.6 12.8 12.8" stroke-width="2"/><path d="m163.6 96.4 12.8-12.8" stroke-width="2"/><path d="m183.6 83.6 12.8 12.8" stroke-width="2"/><path d="m183.6 96.4 12.8-12.8" stroke-width="2"/><path d="m203.6 83.6 12.8 12.8" stroke-width="2"/><path d="m203.6 96.4 12.8-12.8" stroke-width="2"/><path d="m223.6 83.6 12.8 12.8" stroke-width="2"/><path d="m223.6 96.4 12.8-12.8" stroke-width="2"/><path d="m243.6 83.6 12.8 12.8" stroke-width="2"/><path d="m243.6 96.4 12.8-12.8" stroke-width="2"/><path d="m263.6 83.6 12.8 12.8" stroke-width="2"/><path d="m263.6 96.4 12.8-12.8" stroke-width="2"/><path d="m283.6 83.6 12.8 12.8" stroke-width="2"/><path d="m283.6 96.4 12.8-12.8" stroke-width="2"/><path d="m303.6 83.6 12.8 12.8" stroke-width="2"/><path d="m303.6 96.4 12.8-12.8" stroke-width="2"/><path d="m323.6 83.6 12.8 12.8" stroke-width="2"/><path d="m323.6 96.4 12.8-12.8" stroke-width="2"/><path d="m343.6 83.6 12.8 12.8" stroke-width="2"/><path d="m343.6 96.4 12.8-12.8" stroke-width="2"/><path d="m363.6 83.6 12.8 12.8" stroke-width="2"/><path d="m363.6 96.4 12.8-12.8" stroke-width="2"/><path d="m390 90h6.4"/><path d="m390 90 3.2 5.5426"/><path d="m390 90-3.2 5.5426"/><path d="m390 90h-6.4"/><path d="m390 90-3.2-5.5426"/><path d="m390 90 3.2-5.5426"/><path d="m110 110h6.4"/><path d="m110 110 3.2 5.5426"/><path d="m110 110-3.2 5.5426"/><path d="m110 110h-6.4"/><path d="m110 110-3.2-5.5426"/><path d="m110 110 3.2-5.5426"/><path d="m123.6 103.6 12.8 12.8" stroke-width="2"/><path d="m123.6 116.4 12.8-12.8" stroke-width="2"/><path d="m143.6 103.6 12.8 12.8" stroke-width="2"/><path d="m143.6 116.4 12.8-12.8" stroke-width="2"/><path d="m163.6 103.6 12.8 12.8" stroke-width="2"/><path d="m163.6 116.4 12.8-12.8" stroke-width="2"/><path d="m183.6 103.6 12.8 12.8" stroke-width="2"/><path d="m183.6 116.4 12.8-12.8" stroke-width="2"/><path d="m203.6 103.6 12.8 12.8" stroke-width="2"/><path d="m203.6 116.4 12.8-12.8" stroke-width="2"/><path d="m223.6 103.6 12.8 12.8" stroke-width="2"/><path d="m223.6 116.4 12.8-12.8" stroke-width="2"/><path d="m243.6 103.6 12.8 12.8" stroke-width="2"/><path d="m243.6 116.4 12.8-12.8" stroke-width="2"/><path d="m263.6 103.6 12.8 12.8" stroke-width="2"/><path d="m263.6 116.4 12.8-12.8" stroke-width="2"/><path d="m283.6 103.6 12.8 12.8" stroke-width="2"/><path d="m283.6 116.4 12.8-12.8" stroke-width="2"/><path d="m303.6 103.6 12.8 12.8" stroke-width="2"/><path d="m303.6 116.4 12.8-12.8" stroke-width="2"/><path d="m323.6 103.6 12.8 12.8" stroke-width="2"/><path d="m323.6 116.4 12.8-12.8" stroke-width="2"/><path d="m343.6 103.6 12.8 12.8" stroke-width="2"/><path d="m343.6 116.4 12.8-12.8" stroke-width="2"/><path d="m363.6 103.6 12.8 12.8" stroke-width="2"/><path d="m363.6 116.4 12.8-12.8" stroke-width="2"/><path d="m390 110h6.4"/><path d="m390 110 3.2 5.5426"/><path d="m390 110-3.2 5.5426"/><path d="m390 110h-6.4"/><path d="m390 110-3.2-5.5426"/><path d="m390 110 3.2-5.5426"/><path d="m90 130h6.4"/><path d="m90 130 3.2 5.5426"/><path d="m90 130-3.2 5.5426"/><path d="m90 130h-6.4"/><path d="m90 130-3.2-5.5426"/><path d="m90 130 3.2-5.5426"/><path d="m103.6 123.6 12.8 12.8" stroke-width="2"/><path d="m103.6 136.4 12.8-12.8" stroke-width="2"/><path d="m123.6 123.6 12.8 12.8" stroke-width="2"/><path d="m123.6 136.4 12.8-12.8" stroke-width="2"/><path d="m143.6 123.6 12.8 12.8" stroke-width="2"/><path d="m143.6 136.4 12.8-12.8" stroke-width="2"/><path d="m163.6 123.6 12.8 12.8" stroke-width="2"/><path d="m163.6 136.4 12.8-12.8" stroke-width="2"/><path d="m183.6 123.6 12.8 12.8" stroke-width="2"/><path d="m183.6 136.4 12.8-12.8" stroke-width="2"/></g><path d="m210 123.6 6.4 6.4-6.4 6.4-6.4-6.4z" stroke="none"/><path d="m230 123.6 6.4 6.4-6.4 6.4-6.4-6.4z" stroke="none"/><path d="m243.6 123.6 12.8 12.8" fill="none" stroke-width="2"/><path d="m243.6 136.4 12.8-12.8" fill="none" stroke-width="2"/><path d="m263.6 123.6 12.8 12.8" fill="none" stroke-width="2"/><path d="m263.6 136.4 12.8-12.8" fill="none" stroke-width="2"/><path d="m283.6 123.6 12.8 12.8" fill="none" stroke-width="2"/><path d="m283.6 136.4 12.8-12.8" fill="none" stroke-width="2"/><path d="m303.6 123.6 12.8 12.8" fill="none" stroke-width="2"/><path d="m303.6 136.4 12.8-12.8" fill="none" stroke-width="2"/><path d="m323.6 123.6 12.8 12.8" fill="none" stroke-width="2"/><path d="m323.6 136.4 12.8-12.8" fill="none" stroke-width="2"/><path d="m343.6 123.6 12.8 12.8" fill="none" stroke-width="2"/><path d="m343.6 136.4 12.8-12.8" fill="none" stroke-width="2"/><path d="m363.6 123.6 12.8 12.8" fill="none" stroke-width="2"/><path d="m363.6 136.4 12.8-12.8" fill="none" stroke-width="2"/><path d="m383.6 123.6 12.8 12.8" fill="none" stroke-width="2"/><path d="m383.6 136.4 12.8-12.8" fill="none" stroke-width="2"/><path d="m410 130h6.4" fill="none"/><path d="m410 130 3.2 5.5426" fill="none"/><path d="m410 130-3.2 5.5426" fill="none"/><path d="m410 130h-6.4" fill="none"/><path d="m410 130-3.2-5.5426" fill="none"/><path d="m410 130 3.2-5.5426" fill="none"/><path d="m90 150h6.4" fill="none"/><path d="m90 150 3.2 5.5426" fill="none"/><path d="m90 150-3.2 5.5426" fill="none"/><path d="m90 150h-6.4" fill="none"/><path d="m90 150-3.2-5.5426" fill="none"/><path d="m90 150 3.2-5.5426" fill="none"/><path d="m103.6 143.6 12.8 12.8" fill="none" stroke-width="2"/><path d="m103.6 156.4 12.8-12.8" fill="none" stroke-width="2"/><path d="m123.6 143.6 12.8 12.8" fill="none" stroke-width="2"/><path d="m123.6 156.4 12.8-12.8" fill="none" stroke-width="2"/><path d="m143.6 143.6 12.8 12.8" fill="none" stroke-width="2"/><path d="m143.6 156.4 12.8-12.8" fill="none" stroke-width="2"/><path d="m163.6 143.6 12.8 12.8" fill="none" stroke-width="2"/><path d="m163.6 156.4 12.8-12.8" fill="none" stroke-width="2"/><path d="m190 143.6 6.4 6.4-6.4 6.4-6.4-6.4z" stroke="none"/><path d="m210 143.6 6.4 6.4-6.4 6.4-6.4-6.4z" stroke="none"/><path d="m230 143.6 6.4 6.4-6.4 6.4-6.4-6.4z" stroke="none"/><path d="m243.6 143.6 12.8 12.8" fill="none" stroke-width="2"/><path d="m243.6 156.4 12.8-12.8" fill="none" stroke-width="2"/><path d="m263.6 143.6 12.8 12.8" fill="none" stroke-width="2"/><path d="m263.6 156.4 12.8-12.8" fill="none" stroke-width="2"/><path d="m283.6 143.6 12.8 12.8" fill="none" stroke-width="2"/><path d="m283.6 156.4 12.8-12.8" fill="none" stroke-width="2"/><path d="m303.6 143.6 12.8 12.8" fill="none" stroke-width="2"/><path d="m303.6 156.4 12.8-12.8" fill="none" stroke-width="2"/><path d="m323.6 143.6 12.8 12.8" fill="none" stroke-width="2"/><path d="m323.6 156.4 12.8-12.8" fill="none" stroke-width="2"/><path d="m343.6 143.6 12.8 12.8" fill="none" stroke-width="2"/><path d="m343.6 156.4 12.8-12.8" fill="none" stroke-width="2"/><path d="m363.6 143.6 12.8 12.8" fill="none" stroke-width="2"/><path d="m363.6 156.4 12.8-12.8" fill="none" stroke-width="2"/><path d="m383.6 143.6 12.8 12.8" fill="none" stroke-width="2"/><path d="m383.6 156.4 12.8-12.8" fill="none" stroke-width="2"/><path d="m410 150h6.4" fill="none"/><path d="m410 150 3.2 5.5426" fill="none"/><path d="m410 150-3.2 5.5426" fill="none"/><path d="m410 150h-6.4" fill="none"/><path d="m410 150-3.2-5.5426" fill="none"/><path d="m410 150 3.2-5.5426" fill="none"/><path d="m70 170h6.4" fill="none"/><path d="m70 170 3.2 5.5426" fill="none"/><path d="m70 170-3.2 5.5426" fill="none"/><path d="m70 170h-6.4" fill="none"/><path d="m70 170-3.2-5.5426" fill="none"/><path d="m70 170 3.2-5.5426" fill="none"/><path d="m83.6 163.6 12.8 12.8" fill="none" stroke-width="2"/><path d="m83.6 176.4 12.8-12.8" fill="none" stroke-width="2"/><path d="m103.6 163.6 12.8 12.8" fill="none" stroke-width="2"/><path d="m103.6 176.4 12.8-12.8" fill="none" stroke-width="2"/><path d="m123.6 163.6 12.8 12.8" fill="none" stroke-width="2"/><path d="m123.6 176.4 12.8-12.8" fill="none" stroke-width="2"/><path d="m143.6 163.6 12.8 12.8" fill="none" stroke-width="2"/><path d="m143.6 176.4 12.8-12.8" fill="none" stroke-width="2"/><path d="m163.6 163.6 12.8 12.8" fill="none" stroke-width="2"/><path d="m163.6 176.4 12.8-12.8" fill="none" stroke-width="2"/><path d="m190 163.6 6.4 6.4-6.4 6.4-6.4-6.4z" stroke="none"/><path d="m210 163.6 6.4 6.4-6.4 6.4-6.4-6.4z" stroke="none"/><path d="m223.6 163.6 12.8 12.8" fill="none" stroke-width="2"/><path d="m223.6 176.4 12.8-12.8" fill="none" stroke-width="2"/><path d="m243.6 163.6 12.8 12.8" fill="none" stroke-width="2"/><path d="m243.6 176.4 12.8-12.8" fill="none" stroke-width="2"/><path d="m263.6 163.6 12.8 12.8" fill="none" stroke-width="2"/><path d="m263.6 176.4 12.8-12.8" fill="none" stroke-width="2"/><path d="m283.6 163.6 12.8 12.8" fill="none" stroke-width="2"/><path d="m283.6 176.4 12.8-12.8" fill="none" stroke-width="2"/><path d="m303.6 163.6 12.8 12.8" fill="none" stroke-width="2"/><path d="m303.6 176.4 12.8-12.8" fill="none" stroke-width="2"/><path d="m323.6 163.6 12.8 12.8" fill="none" stroke-width="2"/><path d="m323.6 176.4 12.8-12.8" fill="none" stroke-width="2"/><path d="m343.6 163.6 12.8 12.8" fill="none" stroke-width="2"/><path d="m343.6 176.4 12.8-12.8" fill="none" stroke-width="2"/><path d="m363.6 163.6 12.8 12.8" fill="none" stroke-width="2"/><path d="m363.6 176.4 12.8-12.8" fill="none" stroke-width="2"/><path d="m383.6 163.6 12.8 12.8" fill="none" stroke-width="2"/><path d="m383.6 176.4 12.8-12.8" fill="none" stroke-width="2"/><path d="m403.6 163.6 12.8 12.8" fill="none" stroke-width="2"/><path d="m403.6 176.4 12.8-12.8" fill="none" stroke-width="2"/><path d="m430 170h6.4" fill="none"/><path d="m430 170 3.2 5.5426" fill="none"/><path d="m430 170-3.2 5.5426" fill="none"/><path d="m430 170h-6.4" fill="none"/><path d="m430 170-3.2-5.5426" fill="none"/><path d="m430 170 3.2-5.5426" fill="none"/><path d="m70 190h6.4" fill="none"/><path d="m70 190 3.2 5.5426" fill="none"/><path d="m70 190-3.2 5.5426" fill="none"/><path d="m70 190h-6.4" fill="none"/><path d="m70 190-3.2-5.5426" fill="none"/><path d="m70 190 3.2-5.5426" fill="none"/><path d="m83.6 183.6 12.8 12.8" fill="none" stroke-width="2"/><path d="m83.6 196.4 12.8-12.8" fill="none" stroke-width="2"/><path d="m103.6 183.6 12.8 12.8" fill="none" stroke-width="2"/><path d="m103.6 196.4 12.8-12.8" fill="none" stroke-width="2"/><path d="m123.6 183.6 12.8 12.8" fill="none" stroke-width="2"/><path d="m123.6 196.4 12.8-12.8" fill="none" stroke-width="2"/><path d="m143.6 183.6 12.8 12.8" fill="none" stroke-width="2"/><path d="m143.6 196.4 12.8-12.8" fill="none" stroke-width="2"/><path d="m163.6 183.6 12.8 12.8" fill="none" stroke-width="2"/><path d="m163.6 196.4 12.8-12.8" fill="none" stroke-width="2"/><path d="m183.6 183.6 12.8 12.8" fill="none" stroke-width="2"/><path d="m183.6 196.4 12.8-12.8" fill="none" stroke-width="2"/><path d="m203.6 183.6 12.8 12.8" fill="none" stroke-width="2"/><path d="m203.6 196.4 12.8-12.8" fill="none" stroke-width="2"/><path d="m223.6 183.6 12.8 12.8" fill="none" stroke-width="2"/><path d="m223.6 196.4 12.8-12.8" fill="none" stroke-width="2"/><path d="m243.6 183.6 12.8 12.8" fill="none" stroke-width="2"/><path d="m243.6 196.4 12.8-12.8" fill="none" stroke-width="2"/><path d="m263.6 183.6 12.8 12.8" fill="none" stroke-width="2"/><path d="m263.6 196.4 12.8-12.8" fill="none" stroke-width="2"/><path d="m283.6 183.6 12.8 12.8" fill="none" stroke-width="2"/><path d="m283.6 196.4 12.8-12.8" fill="none" stroke-width="2"/><path d="m303.6 183.6 12.8 12.8" fill="none" stroke-width="2"/><path d="m303.6 196.4 12.8-12.8" fill="none" stroke-width="2"/><path d="m323.6 183.6 12.8 12.8" fill="none" stroke-width="2"/><path d="m323.6 196.4 12.8-12.8" fill="none" stroke-width="2"/><path d="m343.6 183.6 12.8 12.8" fill="none" stroke-width="2"/><path d="m343.6 196.4 12.8-12.8" fill="none" stroke-width="2"/><path d="m363.6 183.6 12.8 12.8" fill="none" stroke-width="2"/><path d="m363.6 196.4 12.8-12.8" fill="none" stroke-width="2"/><path d="m383.6 183.6 12.8 12.8" fill="none" stroke-width="2"/><path d="m383.6 196.4 12.8-12.8" fill="none" stroke-width="2"/><path d="m403.6 183.6 12.8 12.8" fill="none" stroke-width="2"/><path d="m403.6 196.4 12.8-12.8" fill="none" stroke-width="2"/><path d="m430 190h6.4" fill="none"/><path d="m430 190 3.2 5.5426" fill="none"/><path d="m430 190-3.2 5.5426" fill="none"/><path d="m430 190h-6.4" fill="none"/><path d="m430 190-3.2-5.5426" fill="none"/><path d="m430 190 3.2-5.5426" fill="none"/><path d="m70 210h6.4" fill="none"/><path d="m70 210 3.2 5.5426" fill="none"/><path d="m70 210-3.2 5.5426" fill="none"/><path d="m70 210h-6.4" fill="none"/><path d="m70 210-3.2-5.5426" fill="none"/><path d="m70 210 3.2-5.5426" fill="none"/><path d="m83.6 203.6 12.8 12.8" fill="none" stroke-width="2"/><path d="m83.6 216.4 12.8-12.8" fill="none" stroke-width="2"/><path d="m103.6 203.6 12.8 12.8" fill="none" stroke-width="2"/><path d="m103.6 216.4 12.8-12.8" fill="none" stroke-width="2"/><path d="m123.6 203.6 12.8 12.8" fill="none" stroke-width="2"/><path d="m123.6 216.4 12.8-12.8" fill="none" stroke-width="2"/><path d="m150 203.6 6.4 6.4-6.4 6.4-6.4-6.4z" stroke="none"/><path d="m163.6 203.6 12.8 12.8" fill="none" stroke-width="2"/><path d="m163.6 216.4 12.8-12.8" fill="none" stroke-width="2"/><path d="m183.6 203.6 12.8 12.8" fill="none" stroke-width="2"/><path d="m183.6 216.4 12.8-12.8" fill="none" stroke-width="2"/><path d="m203.6 203.6 12.8 12.8" fill="none" stroke-width="2"/><path d="m203.6 216.4 12.8-12.8" fill="none" stroke-width="2"/><path d="m223.6 203.6 12.8 12.8" fill="none" stroke-width="2"/><path d="m223.6 216.4 12.8-12.8" fill="none" stroke-width="2"/><path d="m243.6 203.6 12.8 12.8" fill="none" stroke-width="2"/><path d="m243.6 216.4 12.8-12.8" fill="none" stroke-width="2"/><path d="m263.6 203.6 12.8 12.8" fill="none" stroke-width="2"/><path d="m263.6 216.4 12.8-12.8" fill="none" stroke-width="2"/><path d="m283.6 203.6 12.8 12.8" fill="none" stroke-width="2"/><path d="m283.6 216.4 12.8-12.8" fill="none" stroke-width="2"/><path d="m310 203.6 6.4 6.4-6.4 6.4-6.4-6.4z" stroke="none"/><path d="m330 203.6 6.4 6.4-6.4 6.4-6.4-6.4z" stroke="none"/><path d="m343.6 203.6 12.8 12.8" fill="none" stroke-width="2"/><path d="m343.6 216.4 12.8-12.8" fill="none" stroke-width="2"/><path d="m363.6 203.6 12.8 12.8" fill="none" stroke-width="2"/><path d="m363.6 216.4 12.8-12.8" fill="none" stroke-width="2"/><path d="m383.6 203.6 12.8 12.8" fill="none" stroke-width="2"/><path d="m383.6 216.4 12.8-12.8" fill="none" stroke-width="2"/><path d="m403.6 203.6 12.8 12.8" fill="none" stroke-width="2"/><path d="m403.6 216.4 12.8-12.8" fill="none" stroke-width="2"/><path d="m430 210h6.4" fill="none"/><path d="m430 210 3.2 5.5426" fill="none"/><path d="m430 210-3.2 5.5426" fill="none"/><path d="m430 210h-6.4" fill="none"/><path d="m430 210-3.2-5.5426" fill="none"/><path d="m430 210 3.2-5.5426" fill="none"/><path d="m70 230h6.4" fill="none"/><path d="m70 230 3.2 5.5426" fill="none"/><path d="m70 230-3.2 5.5426" fill="none"/><path d="m70 230h-6.4" fill="none"/><path d="m70 230-3.2-5.5426" fill="none"/><path d="m70 230 3.2-5.5426" fill="none"/><path d="m83.6 223.6 12.8 12.8" fill="none" stroke-width="2"/><path d="m83.6 236.4 12.8-12.8" fill="none" stroke-width="2"/><path d="m103.6 223.6 12.8 12.8" fill="none" stroke-width="2"/><path d="m103.6 236.4 12.8-12.8" fill="none" stroke-width="2"/><path d="m123.6 223.6 12.8 12.8" fill="none" stroke-width="2"/><path d="m123.6 236.4 12.8-12.8" fill="none" stroke-width="2"/><path d="m150 223.6 6.4 6.4-6.4 6.4-6.4-6.4z" stroke="none"/><path d="m170 223.6 6.4 6.4-6.4 6.4-6.4-6.4z" stroke="none"/><path d="m183.6 223.6 12.8 12.8" fill="none" stroke-width="2"/><path d="m183.6 236.4 12.8-12.8" fill="none" stroke-width="2"/><path d="m203.6 223.6 12.8 12.8" fill="none" stroke-width="2"/><path d="m203.6 236.4 12.8-12.8" fill="none" stroke-width="2"/><path d="m223.6 223.6 12.8 12.8" fill="none" stroke-width="2"/><path d="m223.6 236.4 12.8-12.8" fill="none" stroke-width="2"/><path d="m243.6 223.6 12.8 12.8" fill="none" stroke-width="2"/><path d="m243.6 236.4 12.8-12.8" fill="none" stroke-width="2"/><path d="m263.6 223.6 12.8 12.8" fill="none" stroke-width="2"/><path d="m263.6 236.4 12.8-12.8" fill="none" stroke-width="2"/><path d="m290 223.6 6.4 6.4-6.4 6.4-6.4-6.4z" stroke="none"/><path d="m310 223.6 6.4 6.4-6.4 6.4-6.4-6.4z" stroke="none"/><path d="m330 223.6 6.4 6.4-6.4 6.4-6.4-6.4z" stroke="none"/><path d="m343.6 223.6 12.8 12.8" fill="none" stroke-width="2"/><path d="m343.6 236.4 12.8-12.8" fill="none" stroke-width="2"/><path d="m363.6 223.6 12.8 12.8" fill="none" stroke-width="2"/><path d="m363.6 236.4 12.8-12.8" fill="none" stroke-width="2"/><path d="m383.6 223.6 12.8 12.8" fill="none" stroke-width="2"/><path d="m383.6 236.4 12.8-12.8" fill="none" stroke-width="2"/><path d="m403.6 223.6 12.8 12.8" fill="none" stroke-width="2"/><path d="m403.6 236.4 12.8-12.8" fill="none" stroke-width="2"/><path d="m430 230h6.4" fill="none"/><path d="m430 230 3.2 5.5426" fill="none"/><path d="m430 230-3.2 5.5426" fill="none"/><path d="m430 230h-6.4" fill="none"/><path d="m430 230-3.2-5.5426" fill="none"/><path d="m430 230 3.2-5.5426" fill="none"/><path d="m70 250h6.4" fill="none"/><path d="m70 250 3.2 5.5426" fill="none"/><path d="m70 250-3.2 5.5426" fill="none"/><path d="m70 250h-6.4" fill="none"/><path d="m70 250-3.2-5.5426" fill="none"/><path d="m70 250 3.2-5.5426" fill="none"/><path d="m83.6 243.6 12.8 12.8" fill="none" stroke-width="2"/><path d="m83.6 256.4 12.8-12.8" fill="none" stroke-width="2"/><path d="m103.6 243.6 12.8 12.8" fill="none" stroke-width="2"/><path d="m103.6 256.4 12.8-12.8" fill="none" stroke-width="2"/><path d="m123.6 243.6 12.8 12.8" fill="none" stroke-width="2"/><path d="m123.6 256.4 12.8-12.8" fill="none" stroke-width="2"/><path d="m150 243.6 6.4 6.4-6.4 6.4-6.4-6.4z" stroke="none"/><path d="m170 243.6 6.4 6.4-6.4 6.4-6.4-6.4z" stroke="none"/><path d="m190 243.6 6.4 6.4-6.4 6.4-6.4-6.4z" stroke="none"/><path d="m203.6 243.6 12.8 12.8" fill="none" stroke-width="2"/><path d="m203.6 256.4 12.8-12.8" fill="none" stroke-width="2"/><path d="m223.6 243.6 12.8 12.8" fill="none" stroke-width="2"/><path d="m223.6 256.4 12.8-12.8" fill="none" stroke-width="2"/><path d="m243.6 243.6 12.8 12.8" fill="none" stroke-width="2"/><path d="m243.6 256.4 12.8-12.8" fill="none" stroke-width="2"/><path d="m263.6 243.6 12.8 12.8" fill="none" stroke-width="2"/><path d="m263.6 256.4 12.8-12.8" fill="none" stroke-width="2"/><path d="m290 243.6 6.4 6.4-6.4 6.4-6.4-6.4z" stroke="none"/><path d="m310 243.6 6.4 6.4-6.4 6.4-6.4-6.4z" stroke="none"/><path d="m323.6 243.6 12.8 12.8" fill="none" stroke-width="2"/><path d="m323.6 256.4 12.8-12.8" fill="none" stroke-width="2"/><path d="m343.6 243.6 12.8 12.8" fill="none" stroke-width="2"/><path d="m343.6 256.4 12.8-12.8" fill="none" stroke-width="2"/><path d="m363.6 243.6 12.8 12.8" fill="none" stroke-width="2"/><path d="m363.6 256.4 12.8-12.8" fill="none" stroke-width="2"/><path d="m383.6 243.6 12.8 12.8" fill="none" stroke-width="2"/><path d="m383.6 256.4 12.8-12.8" fill="none" stroke-width="2"/><path d="m403.6 243.6 12.8 12.8" fill="none" stroke-width="2"/><path d="m403.6 256.4 12.8-12.8" fill="none" stroke-width="2"/><path d="m430 250h6.4" fill="none"/><path d="m430 250 3.2 5.5426" fill="none"/><path d="m430 250-3.2 5.5426" fill="none"/><path d="m430 250h-6.4" fill="none"/><path d="m430 250-3.2-5.5426" fill="none"/><path d="m430 250 3.2-5.5426" fill="none"/><path d="m43.6 263.6 12.8 12.8" fill="none" stroke-width="2"/><path d="m43.6 276.4 12.8-12.8" fill="none" stroke-width="2"/><path d="m70 270h6.4" fill="none"/><path d="m70 270 3.2 5.5426" fill="none"/><path d="m70 270-3.2 5.5426" fill="none"/><path d="m70 270h-6.4" fill="none"/><path d="m70 270-3.2-5.5426" fill="none"/><path d="m70 270 3.2-5.5426" fill="none"/><path d="m83.6 263.6 12.8 12.8" fill="none" stroke-width="2"/><path d="m83.6 276.4 12.8-12.8" fill="none" stroke-width="2"/><path d="m103.6 263.6 12.8 12.8" fill="none" stroke-width="2"/><path d="m103.6 276.4 12.8-12.8" fill="none" stroke-width="2"/><path d="m123.6 263.6 12.8 12.8" fill="none" stroke-width="2"/><path d="m123.6 276.4 12.8-12.8" fill="none" stroke-width="2"/><path d="m143.6 263.6 12.8 12.8" fill="none" stroke-width="2"/><path d="m143.6 276.4 12.8-12.8" fill="none" stroke-width="2"/><path d="m170 263.6 6.4 6.4-6.4 6.4-6.4-6.4z" stroke="none"/><path d="m190 263.6 6.4 6.4-6.4 6.4-6.4-6.4z" stroke="none"/><path d="m210 263.6 6.4 6.4-6.4 6.4-6.4-6.4z" stroke="none"/><path d="m223.6 263.6 12.8 12.8" fill="none" stroke-width="2"/><path d="m223.6 276.4 12.8-12.8" fill="none" stroke-width="2"/><path d="m243.6 263.6 12.8 12.8" fill="none" stroke-width="2"/><path d="m243.6 276.4 12.8-12.8" fill="none" stroke-width="2"/><path d="m263.6 263.6 12.8 12.8" fill="none" stroke-width="2"/><path d="m263.6 276.4 12.8-12.8" fill="none" stroke-width="2"/><path d="m283.6 263.6 12.8 12.8" fill="none" stroke-width="2"/><path d="m283.6 276.4 12.8-12.8" fill="none" stroke-width="2"/><path d="m303.6 263.6 12.8 12.8" fill="none" stroke-width="2"/><path d="m303.6 276.4 12.8-12.8" fill="none" stroke-width="2"/><path d="m323.6 263.6 12.8 12.8" fill="none" stroke-width="2"/><path d="m323.6 276.4 12.8-12.8" fill="none" stroke-width="2"/><path d="m343.6 263.6 12.8 12.8" fill="none" stroke-width="2"/><path d="m343.6 276.4 12.8-12.8" fill="none" stroke-width="2"/><path d="m363.6 263.6 12.8 12.8" fill="none" stroke-width="2"/><path d="m363.6 276.4 12.8-12.8" fill="none" stroke-width="2"/><path d="m390 270h6.4" fill="none"/><path d="m390 270 3.2 5.5426" fill="none"/><path d="m390 270-3.2 5.5426" fill="none"/><path d="m390 270h-6.4" fill="none"/><path d="m390 270-3.2-5.5426" fill="none"/><path d="m390 270 3.2-5.5426" fill="none"/><path d="m403.6 263.6 12.8 12.8" fill="none" stroke-width="2"/><path d="m403.6 276.4 12.8-12.8" fill="none" stroke-width="2"/><path d="m430 270h6.4" fill="none"/><path d="m430 270 3.2 5.5426" fill="none"/><path d="m430 270-3.2 5.5426" fill="none"/><path d="m430 270h-6.4" fill="none"/><path d="m430 270-3.2-5.5426" fill="none"/><path d="m430 270 3.2-5.5426" fill="none"/><path d="m443.6 263.6 12.8 12.8" fill="none" stroke-width="2"/><path d="m443.6 276.4 12.8-12.8" fill="none" stroke-width="2"/><path d="m23.6 283.6 12.8 12.8" fill="none" stroke-width="2"/><path d="m23.6 296.4 12.8-12.8" fill="none" stroke-width="2"/><path d="m50 290h6.4" fill="none"/><path d="m50 290 3.2 5.5426" fill="none"/><path d="m50 290-3.2 5.5426" fill="none"/><path d="m50 290h-6.4" fill="none"/><path d="m50 290-3.2-5.5426" fill="none"/><path d="m50 290 3.2-5.5426" fill="none"/><path d="m63.6 283.6 12.8 12.8" fill="none" stroke-width="2"/><path d="m63.6 296.4 12.8-12.8" fill="none" stroke-width="2"/><path d="m90 290h6.4" fill="none"/><path d="m90 290 3.2 5.5426" fill="none"/><path d="m90 290-3.2 5.5426" fill="none"/><path d="m90 290h-6.4" fill="none"/><path d="m90 290-3.2-5.5426" fill="none"/><path d="m90 290 3.2-5.5426" fill="none"/><path d="m103.6 283.6 12.8 12.8" fill="none" stroke-width="2"/><path d="m103.6 296.4 12.8-12.8" fill="none" stroke-width="2"/><path d="m123.6 283.6 12.8 12.8" fill="none" stroke-width="2"/><path d="m123.6 296.4 12.8-12.8" fill="none" stroke-width="2"/><path d="m143.6 283.6 12.8 12.8" fill="none" stroke-width="2"/><path d="m143.6 296.4 12.8-12.8" fill="none" stroke-width="2"/><path d="m163.6 283.6 12.8 12.8" fill="none" stroke-width="2"/><path d="m163.6 296.4 12.8-12.8" fill="none" stroke-width="2"/><path d="m190 283.6 6.4 6.4-6.4 6.4-6.4-6.4z" stroke="none"/><path d="m210 283.6 6.4 6.4-6.4 6.4-6.4-6.4z" stroke="none"/><path d="m230 283.6 6.4 6.4-6.4 6.4-6.4-6.4z" stroke="none"/><path d="m250 283.6 6.4 6.4-6.4 6.4-6.4-6.4z" stroke="none"/><path d="m263.6 283.6 12.8 12.8" fill="none" stroke-width="2"/><path d="m263.6 296.4 12.8-12.8" fill="none" stroke-width="2"/><path d="m283.6 283.6 12.8 12.8" fill="none" stroke-width="2"/><path d="m283.6 296.4 12.8-12.8" fill="none" stroke-width="2"/><path d="m303.6 283.6 12.8 12.8" fill="none" stroke-width="2"/><path d="m303.6 296.4 12.8-12.8" fill="none" stroke-width="2"/><path d="m323.6 283.6 12.8 12.8" fill="none" stroke-width="2"/><path d="m323.6 296.4 12.8-12.8" fill="none" stroke-width="2"/><path d="m343.6 283.6 12.8 12.8" fill="none" stroke-width="2"/><path d="m343.6 296.4 12.8-12.8" fill="none" stroke-width="2"/><path d="m370 290h6.4" fill="none"/><path d="m370 290 3.2 5.5426" fill="none"/><path d="m370 290-3.2 5.5426" fill="none"/><path d="m370 290h-6.4" fill="none"/><path d="m370 290-3.2-5.5426" fill="none"/><path d="m370 290 3.2-5.5426" fill="none"/><path d="m383.6 283.6 12.8 12.8" fill="none" stroke-width="2"/><path d="m383.6 296.4 12.8-12.8" fill="none" stroke-width="2"/><path d="m410 290h6.4" fill="none"/><path d="m410 290 3.2 5.5426" fill="none"/><path d="m410 290-3.2 5.5426" fill="none"/><path d="m410 290h-6.4" fill="none"/><path d="m410 290-3.2-5.5426" fill="none"/><path d="m410 290 3.2-5.5426" fill="none"/><path d="m423.6 283.6 12.8 12.8" fill="none" stroke-width="2"/><path d="m423.6 296.4 12.8-12.8" fill="none" stroke-width="2"/><path d="m450 290h6.4" fill="none"/><path d="m450 290 3.2 5.5426" fill="none"/><path d="m450 290-3.2 5.5426" fill="none"/><path d="m450 290h-6.4" fill="none"/><path d="m450 290-3.2-5.5426" fill="none"/><path d="m450 290 3.2-5.5426" fill="none"/><path d="m30 310h6.4" fill="none"/><path d="m30 310 3.2 5.5426" fill="none"/><path d="m30 310-3.2 5.5426" fill="none"/><path d="m30 310h-6.4" fill="none"/><path d="m30 310-3.2-5.5426" fill="none"/><path d="m30 310 3.2-5.5426" fill="none"/><path d="m43.6 303.6 12.8 12.8" fill="none" stroke-width="2"/><path d="m43.6 316.4 12.8-12.8" fill="none" stroke-width="2"/><path d="m70 310h6.4" fill="none"/><path d="m70 310 3.2 5.5426" fill="none"/><path d="m70 310-3.2 5.5426" fill="none"/><path d="m70 310h-6.4" fill="none"/><path d="m70 310-3.2-5.5426" fill="none"/><path d="m70 310 3.2-5.5426" fill="none"/><path d="m83.6 303.6 12.8 12.8" fill="none" stroke-width="2"/><path d="m83.6 316.4 12.8-12.8" fill="none" stroke-width="2"/><path d="m110 310h6.4" fill="none"/><path d="m110 310 3.2 5.5426" fill="none"/><path d="m110 310-3.2 5.5426" fill="none"/><path d="m110 310h-6.4" fill="none"/><path d="m110 310-3.2-5.5426" fill="none"/><path d="m110 310 3.2-5.5426" fill="none"/><path d="m123.6 303.6 12.8 12.8" fill="none" stroke-width="2"/><path d="m123.6 316.4 12.8-12.8" fill="none" stroke-width="2"/><path d="m143.6 303.6 12.8 12.8" fill="none" stroke-width="2"/><path d="m143.6 316.4 12.8-12.8" fill="none" stroke-width="2"/><path d="m163.6 303.6 12.8 12.8" fill="none" stroke-width="2"/><path d="m163.6 316.4 12.8-12.8" fill="none" stroke-width="2"/><path d="m183.6 303.6 12.8 12.8" fill="none" stroke-width="2"/><path d="m183.6 316.4 12.8-12.8" fill="none" stroke-width="2"/><path d="m203.6 303.6 12.8 12.8" fill="none" stroke-width="2"/><path d="m203.6 316.4 12.8-12.8" fill="none" stroke-width="2"/><path d="m230 303.6 6.4 6.4-6.4 6.4-6.4-6.4z" stroke="none"/><path d="m250 303.6 6.4 6.4-6.4 6.4-6.4-6.4z" stroke="none"/><path d="m270 303.6 6.4 6.4-6.4 6.4-6.4-6.4z" stroke="none"/><path d="m290 303.6 6.4 6.4-6.4 6.4-6.4-6.4z" stroke="none"/><path d="m310 310h6.4" fill="none"/><path d="m310 310 3.2 5.5426" fill="none"/><path d="m310 310-3.2 5.5426" fill="none"/><path d="m310 310h-6.4" fill="none"/><path d="m310 310-3.2-5.5426" fill="none"/><path d="m310 310 3.2-5.5426" fill="none"/><path d="m323.6 303.6 12.8 12.8" fill="none" stroke-width="2"/><path d="m323.6 316.4 12.8-12.8" fill="none" stroke-width="2"/><path d="m350 310h6.4" fill="none"/><path d="m350 310 3.2 5.5426" fill="none"/><path d="m350 310-3.2 5.5426" fill="none"/><path d="m350 310h-6.4" fill="none"/><path d="m350 310-3.2-5.5426" fill="none"/><path d="m350 310 3.2-5.5426" fill="none"/><path d="m363.6 303.6 12.8 12.8" fill="none" stroke-width="2"/><path d="m363.6 316.4 12.8-12.8" fill="none" stroke-width="2"/><path d="m390 310h6.4" fill="none"/><path d="m390 310 3.2 5.5426" fill="none"/><path d="m390 310-3.2 5.5426" fill="none"/><path d="m390 310h-6.4" fill="none"/><path d="m390 310-3.2-5.5426" fill="none"/><path d="m390 310 3.2-5.5426" fill="none"/><path d="m403.6 303.6 12.8 12.8" fill="none" stroke-width="2"/><path d="m403.6 316.4 12.8-12.8" fill="none" stroke-width="2"/><path d="m430 303.6 6.4 6.4-6.4 6.4-6.4-6.4z" stroke="none"/><path d="m50 323.6 6.4 6.4-6.4 6.4-6.4-6.4z" stroke="none"/><path d="m63.6 323.6 12.8 12.8" fill="none" stroke-width="2"/><path d="m63.6 336.4 12.8-12.8" fill="none" stroke-width="2"/><path d="m90 330h6.4" fill="none"/><path d="m90 330 3.2 5.5426" fill="none"/><path d="m90 330-3.2 5.5426" fill="none"/><path d="m90 330h-6.4" fill="none"/><path d="m90 330-3.2-5.5426" fill="none"/><path d="m90 330 3.2-5.5426" fill="none"/><path d="m103.6 323.6 12.8 12.8" fill="none" stroke-width="2"/><path d="m103.6 336.4 12.8-12.8" fill="none" stroke-width="2"/><path d="m130 330h6.4" fill="none"/><path d="m130 330 3.2 5.5426" fill="none"/><path d="m130 330-3.2 5.5426" fill="none"/><path d="m130 330h-6.4" fill="none"/><path d="m130 330-3.2-5.5426" fill="none"/><path d="m130 330 3.2-5.5426" fill="none"/><path d="m143.6 323.6 12.8 12.8" fill="none" stroke-width="2"/><path d="m143.6 336.4 12.8-12.8" fill="none" stroke-width="2"/><path d="m170 330h6.4" fill="none"/><path d="m170 330 3.2 5.5426" fill="none"/><path d="m170 330-3.2 5.5426" fill="none"/><path d="m170 330h-6.4" fill="none"/><path d="m170 330-3.2-5.5426" fill="none"/><path d="m170 330 3.2-5.5426" fill="none"/><path d="m183.6 323.6 12.8 12.8" fill="none" stroke-width="2"/><path d="m183.6 336.4 12.8-12.8" fill="none" stroke-width="2"/><path d="m210 330h6.4" fill="none"/><path d="m210 330 3.2 5.5426" fill="none"/><path d="m210 330-3.2 5.5426" fill="none"/><path d="m210 330h-6.4" fill="none"/><path d="m210 330-3.2-5.5426" fill="none"/><path d="m210 330 3.2-5.5426" fill="none"/><path d="m223.6 323.6 12.8 12.8" fill="none" stroke-width="2"/><path d="m223.6 336.4 12.8-12.8" fill="none" stroke-width="2"/><path d="m250 330h6.4" fill="none"/><path d="m250 330 3.2 5.5426" fill="none"/><path d="m250 330-3.2 5.5426" fill="none"/><path d="m250 330h-6.4" fill="none"/><path d="m250 330-3.2-5.5426" fill="none"/><path d="m250 330 3.2-5.5426" fill="none"/><path d="m263.6 323.6 12.8 12.8" fill="none" stroke-width="2"/><path d="m263.6 336.4 12.8-12.8" fill="none" stroke-width="2"/><path d="m290 330h6.4" fill="none"/><path d="m290 330 3.2 5.5426" fill="none"/><path d="m290 330-3.2 5.5426" fill="none"/><path d="m290 330h-6.4" fill="none"/><path d="m290 330-3.2-5.5426" fill="none"/><path d="m290 330 3.2-5.5426" fill="none"/><path d="m310 323.6 6.4 6.4-6.4 6.4-6.4-6.4z" stroke="none"/><path d="m330 323.6 6.4 6.4-6.4 6.4-6.4-6.4z" stroke="none"/><path d="m350 323.6 6.4 6.4-6.4 6.4-6.4-6.4z" stroke="none"/><path d="m370 330h6.4" fill="none"/><path d="m370 330 3.2 5.5426" fill="none"/><path d="m370 330-3.2 5.5426" fill="none"/><path d="m370 330h-6.4" fill="none"/><path d="m370 330-3.2-5.5426" fill="none"/><path d="m370 330 3.2-5.5426" fill="none"/><path d="m383.6 323.6 12.8 12.8" fill="none" stroke-width="2"/><path d="m383.6 336.4 12.8-12.8" fill="none" stroke-width="2"/><path d="m410 330h6.4" fill="none"/><path d="m410 330 3.2 5.5426" fill="none"/><path d="m410 330-3.2 5.5426" fill="none"/><path d="m410 330h-6.4" fill="none"/><path d="m410 330-3.2-5.5426" fill="none"/><path d="m410 330 3.2-5.5426" fill="none"/><path d="m423.6 323.6 12.8 12.8" fill="none" stroke-width="2"/><path d="m423.6 336.4 12.8-12.8" fill="none" stroke-width="2"/><path d="m70 343.6 6.4 6.4-6.4 6.4-6.4-6.4z" stroke="none"/><path d="m90 343.6 6.4 6.4-6.4 6.4-6.4-6.4z" stroke="none"/><path d="m110 350h6.4" fill="none"/><path d="m110 350 3.2 5.5426" fill="none"/><path d="m110 350-3.2 5.5426" fill="none"/><path d="m110 350h-6.4" fill="none"/><path d="m110 350-3.2-5.5426" fill="none"/><path d="m110 350 3.2-5.5426" fill="none"/><path d="m123.6 343.6 12.8 12.8" fill="none" stroke-width="2"/><path d="m123.6 356.4 12.8-12.8" fill="none" stroke-width="2"/><path d="m150 350h6.4" fill="none"/><path d="m150 350 3.2 5.5426" fill="none"/><path d="m150 350-3.2 5.5426" fill="none"/><path d="m150 350h-6.4" fill="none"/><path d="m150 350-3.2-5.5426" fill="none"/><path d="m150 350 3.2-5.5426" fill="none"/><path d="m163.6 343.6 12.8 12.8" fill="none" stroke-width="2"/><path d="m163.6 356.4 12.8-12.8" fill="none" stroke-width="2"/><path d="m190 350h6.4" fill="none"/><path d="m190 350 3.2 5.5426" fill="none"/><path d="m190 350-3.2 5.5426" fill="none"/><path d="m190 350h-6.4" fill="none"/><path d="m190 350-3.2-5.5426" fill="none"/><path d="m190 350 3.2-5.5426" fill="none"/><path d="m203.6 343.6 12.8 12.8" fill="none" stroke-width="2"/><path d="m203.6 356.4 12.8-12.8" fill="none" stroke-width="2"/><path d="m230 350h6.4" fill="none"/><path d="m230 350 3.2 5.5426" fill="none"/><path d="m230 350-3.2 5.5426" fill="none"/><path d="m230 350h-6.4" fill="none"/><path d="m230 350-3.2-5.5426" fill="none"/><path d="m230 350 3.2-5.5426" fill="none"/><path d="m243.6 343.6 12.8 12.8" fill="none" stroke-width="2"/><path d="m243.6 356.4 12.8-12.8" fill="none" stroke-width="2"/><path d="m270 350h6.4" fill="none"/><path d="m270 350 3.2 5.5426" fill="none"/><path d="m270 350-3.2 5.5426" fill="none"/><path d="m270 350h-6.4" fill="none"/><path d="m270 350-3.2-5.5426" fill="none"/><path d="m270 350 3.2-5.5426" fill="none"/><path d="m283.6 343.6 12.8 12.8" fill="none" stroke-width="2"/><path d="m283.6 356.4 12.8-12.8" fill="none" stroke-width="2"/><path d="m310 350h6.4" fill="none"/><path d="m310 350 3.2 5.5426" fill="none"/><path d="m310 350-3.2 5.5426" fill="none"/><path d="m310 350h-6.4" fill="none"/><path d="m310 350-3.2-5.5426" fill="none"/><path d="m310 350 3.2-5.5426" fill="none"/><path d="m323.6 343.6 12.8 12.8" fill="none" stroke-width="2"/><path d="m323.6 356.4 12.8-12.8" fill="none" stroke-width="2"/><path d="m350 343.6 6.4 6.4-6.4 6.4-6.4-6.4z" stroke="none"/><path d="m370 343.6 6.4 6.4-6.4 6.4-6.4-6.4z" stroke="none"/><path d="m390 350h6.4" fill="none"/><path d="m390 350 3.2 5.5426" fill="none"/><path d="m390 350-3.2 5.5426" fill="none"/><path d="m390 350h-6.4" fill="none"/><path d="m390 350-3.2-5.5426" fill="none"/><path d="m390 350 3.2-5.5426" fill="none"/><path d="m403.6 343.6 12.8 12.8" fill="none" stroke-width="2"/><path d="m403.6 356.4 12.8-12.8" fill="none" stroke-width="2"/><path d="m430 343.6 6.4 6.4-6.4 6.4-6.4-6.4z" stroke="none"/><path d="m63.6 363.6 12.8 12.8" fill="none" stroke-width="2"/><path d="m63.6 376.4 12.8-12.8" fill="none" stroke-width="2"/><path d="m90 370h6.4" fill="none"/><path d="m90 370 3.2 5.5426" fill="none"/><path d="m90 370-3.2 5.5426" fill="none"/><path d="m90 370h-6.4" fill="none"/><path d="m90 370-3.2-5.5426" fill="none"/><path d="m90 370 3.2-5.5426" fill="none"/><path d="m103.6 363.6 12.8 12.8" fill="none" stroke-width="2"/><path d="m103.6 376.4 12.8-12.8" fill="none" stroke-width="2"/><path d="m123.6 363.6 12.8 12.8" fill="none" stroke-width="2"/><path d="m123.6 376.4 12.8-12.8" fill="none" stroke-width="2"/><path d="m143.6 363.6 12.8 12.8" fill="none" stroke-width="2"/><path d="m143.6 376.4 12.8-12.8" fill="none" stroke-width="2"/><path d="m170 370h6.4" fill="none"/><path d="m170 370 3.2 5.5426" fill="none"/><path d="m170 370-3.2 5.5426" fill="none"/><path d="m170 370h-6.4" fill="none"/><path d="m170 370-3.2-5.5426" fill="none"/><path d="m170 370 3.2-5.5426" fill="none"/><path d="m183.6 363.6 12.8 12.8" fill="none" stroke-width="2"/><path d="m183.6 376.4 12.8-12.8" fill="none" stroke-width="2"/><path d="m203.6 363.6 12.8 12.8" fill="none" stroke-width="2"/><path d="m203.6 376.4 12.8-12.8" fill="none" stroke-width="2"/><path d="m223.6 363.6 12.8 12.8" fill="none" stroke-width="2"/><path d="m223.6 376.4 12.8-12.8" fill="none" stroke-width="2"/><path d="m250 370h6.4" fill="none"/><path d="m250 370 3.2 5.5426" fill="none"/><path d="m250 370-3.2 5.5426" fill="none"/><path d="m250 370h-6.4" fill="none"/><path d="m250 370-3.2-5.5426" fill="none"/><path d="m250 370 3.2-5.5426" fill="none"/><path d="m263.6 363.6 12.8 12.8" fill="none" stroke-width="2"/><path d="m263.6 376.4 12.8-12.8" fill="none" stroke-width="2"/><path d="m290 363.6 6.4 6.4-6.4 6.4-6.4-6.4z" stroke="none"/><path d="m310 363.6 6.4 6.4-6.4 6.4-6.4-6.4z" stroke="none"/><path d="m330 363.6 6.4 6.4-6.4 6.4-6.4-6.4z" stroke="none"/><path d="m343.6 363.6 12.8 12.8" fill="none" stroke-width="2"/><path d="m343.6 376.4 12.8-12.8" fill="none" stroke-width="2"/><path d="m363.6 363.6 12.8 12.8" fill="none" stroke-width="2"/><path d="m363.6 376.4 12.8-12.8" fill="none" stroke-width="2"/><path d="m383.6 363.6 12.8 12.8" fill="none" stroke-width="2"/><path d="m383.6 376.4 12.8-12.8" fill="none" stroke-width="2"/><path d="m410 363.6 6.4 6.4-6.4 6.4-6.4-6.4z" stroke="none"/><path d="m70 390h6.4" fill="none"/><path d="m70 390 3.2 5.5426" fill="none"/><path d="m70 390-3.2 5.5426" fill="none"/><path d="m70 390h-6.4" fill="none"/><path d="m70 390-3.2-5.5426" fill="none"/><path d="m70 390 3.2-5.5426" fill="none"/><path d="m83.6 383.6 12.8 12.8" fill="none" stroke-width="2"/><path d="m83.6 396.4 12.8-12.8" fill="none" stroke-width="2"/><path d="m110 390h6.4" fill="none"/><path d="m110 390 3.2 5.5426" fill="none"/><path d="m110 390-3.2 5.5426" fill="none"/><path d="m110 390h-6.4" fill="none"/><path d="m110 390-3.2-5.5426" fill="none"/><path d="m110 390 3.2-5.5426" fill="none"/><path d="m123.6 383.6 12.8 12.8" fill="none" stroke-width="2"/><path d="m123.6 396.4 12.8-12.8" fill="none" stroke-width="2"/><path d="m150 390h6.4" fill="none"/><path d="m150 390 3.2 5.5426" fill="none"/><path d="m150 390-3.2 5.5426" fill="none"/><path d="m150 390h-6.4" fill="none"/><path d="m150 390-3.2-5.5426" fill="none"/><path d="m150 390 3.2-5.5426" fill="none"/><path d="m163.6 383.6 12.8 12.8" fill="none" stroke-width="2"/><path d="m163.6 396.4 12.8-12.8" fill="none" stroke-width="2"/><path d="m190 390h6.4" fill="none"/><path d="m190 390 3.2 5.5426" fill="none"/><path d="m190 390-3.2 5.5426" fill="none"/><path d="m190 390h-6.4" fill="none"/><path d="m190 390-3.2-5.5426" fill="none"/><path d="m190 390 3.2-5.5426" fill="none"/><path d="m203.6 383.6 12.8 12.8" fill="none" stroke-width="2"/><path d="m203.6 396.4 12.8-12.8" fill="none" stroke-width="2"/><path d="m230 390h6.4" fill="none"/><path d="m230 390 3.2 5.5426" fill="none"/><path d="m230 390-3.2 5.5426" fill="none"/><path d="m230 390h-6.4" fill="none"/><path d="m230 390-3.2-5.5426" fill="none"/><path d="m230 390 3.2-5.5426" fill="none"/><path d="m243.6 383.6 12.8 12.8" fill="none" stroke-width="2"/><path d="m243.6 396.4 12.8-12.8" fill="none" stroke-width="2"/><path d="m270 390h6.4" fill="none"/><path d="m270 390 3.2 5.5426" fill="none"/><path d="m270 390-3.2 5.5426" fill="none"/><path d="m270 390h-6.4" fill="none"/><path d="m270 390-3.2-5.5426" fill="none"/><path d="m270 390 3.2-5.5426" fill="none"/><path d="m283.6 383.6 12.8 12.8" fill="none" stroke-width="2"/><path d="m283.6 396.4 12.8-12.8" fill="none" stroke-width="2"/><path d="m310 390h6.4" fill="none"/><path d="m310 390 3.2 5.5426" fill="none"/><path d="m310 390-3.2 5.5426" fill="none"/><path d="m310 390h-6.4" fill="none"/><path d="m310 390-3.2-5.5426" fill="none"/><path d="m310 390 3.2-5.5426" fill="none"/><path d="m323.6 383.6 12.8 12.8" fill="none" stroke-width="2"/><path d="m323.6 396.4 12.8-12.8" fill="none" stroke-width="2"/><path d="m350 390h6.4" fill="none"/><path d="m350 390 3.2 5.5426" fill="none"/><path d="m350 390-3.2 5.5426" fill="none"/><path d="m350 390h-6.4" fill="none"/><path d="m350 390-3.2-5.5426" fill="none"/><path d="m350 390 3.2-5.5426" fill="none"/><path d="m363.6 383.6 12.8 12.8" fill="none" stroke-width="2"/><path d="m363.6 396.4 12.8-12.8" fill="none" stroke-width="2"/><path d="m390 390h6.4" fill="none"/><path d="m390 390 3.2 5.5426" fill="none"/><path d="m390 390-3.2 5.5426" fill="none"/><path d="m390 390h-6.4" fill="none"/><path d="m390 390-3.2-5.5426" fill="none"/><path d="m390 390 3.2-5.5426" fill="none"/><path d="m403.6 383.6 12.8 12.8" fill="none" stroke-width="2"/><path d="m403.6 396.4 12.8-12.8" fill="none" stroke-width="2"/><path d="m430 390h6.4" fill="none"/><path d="m430 390 3.2 5.5426" fill="none"/><path d="m430 390-3.2 5.5426" fill="none"/><path d="m430 390h-6.4" fill="none"/><path d="m430 390-3.2-5.5426" fill="none"/><path d="m430 390 3.2-5.5426" fill="none"/><path d="m90 403.6 6.4 6.4-6.4 6.4-6.4-6.4z" stroke="none"/><path d="m110 403.6 6.4 6.4-6.4 6.4-6.4-6.4z" stroke="none"/><path d="m130 403.6 6.4 6.4-6.4 6.4-6.4-6.4z" stroke="none"/><path d="m143.6 403.6 12.8 12.8" fill="none" stroke-width="2"/><path d="m143.6 416.4 12.8-12.8" fill="none" stroke-width="2"/><path d="m170 410h6.4" fill="none"/><path d="m170 410 3.2 5.5426" fill="none"/><path d="m170 410-3.2 5.5426" fill="none"/><path d="m170 410h-6.4" fill="none"/><path d="m170 410-3.2-5.5426" fill="none"/><path d="m170 410 3.2-5.5426" fill="none"/><path d="m183.6 403.6 12.8 12.8" fill="none" stroke-width="2"/><path d="m183.6 416.4 12.8-12.8" fill="none" stroke-width="2"/><path d="m210 410h6.4" fill="none"/><path d="m210 410 3.2 5.5426" fill="none"/><path d="m210 410-3.2 5.5426" fill="none"/><path d="m210 410h-6.4" fill="none"/><path d="m210 410-3.2-5.5426" fill="none"/><path d="m210 410 3.2-5.5426" fill="none"/><path d="m230 403.6 6.4 6.4-6.4 6.4-6.4-6.4z" stroke="none"/><path d="m250 403.6 6.4 6.4-6.4 6.4-6.4-6.4z" stroke="none"/><path d="m270 403.6 6.4 6.4-6.4 6.4-6.4-6.4z" stroke="none"/><path d="m290 403.6 6.4 6.4-6.4 6.4-6.4-6.4z" stroke="none"/><path d="m303.6 403.6 12.8 12.8" fill="none" stroke-width="2"/><path d="m303.6 416.4 12.8-12.8" fill="none" stroke-width="2"/><path d="m330 410h6.4" fill="none"/><path d="m330 410 3.2 5.5426" fill="none"/><path d="m330 410-3.2 5.5426" fill="none"/><path d="m330 410h-6.4" fill="none"/><path d="m330 410-3.2-5.5426" fill="none"/><path d="m330 410 3.2-5.5426" fill="none"/><path d="m343.6 403.6 12.8 12.8" fill="none" stroke-width="2"/><path d="m343.6 416.4 12.8-12.8" fill="none" stroke-width="2"/><path d="m370 410h6.4" fill="none"/><path d="m370 410 3.2 5.5426" fill="none"/><path d="m370 410-3.2 5.5426" fill="none"/><path d="m370 410h-6.4" fill="none"/><path d="m370 410-3.2-5.5426" fill="none"/><path d="m370 410 3.2-5.5426" fill="none"/><path d="m383.6 403.6 12.8 12.8" fill="none" stroke-width="2"/><path d="m383.6 416.4 12.8-12.8" fill="none" stroke-width="2"/><path d="m410 410h6.4" fill="none"/><path d="m410 410 3.2 5.5426" fill="none"/><path d="m410 410-3.2 5.5426" fill="none"/><path d="m410 410h-6.4" fill="none"/><path d="m410 410-3.2-5.5426" fill="none"/><path d="m410 410 3.2-5.5426" fill="none"/><path d="m423.6 403.6 12.8 12.8" fill="none" stroke-width="2"/><path d="m423.6 416.4 12.8-12.8" fill="none" stroke-width="2"/><path d="m450 410h6.4" fill="none"/><path d="m450 410 3.2 5.5426" fill="none"/><path d="m450 410-3.2 5.5426" fill="none"/><path d="m450 410h-6.4" fill="none"/><path d="m450 410-3.2-5.5426" fill="none"/><path d="m450 410 3.2-5.5426" fill="none"/><path d="m150 423.6 6.4 6.4-6.4 6.4-6.4-6.4z" stroke="none"/><path d="m170 423.6 6.4 6.4-6.4 6.4-6.4-6.4z" stroke="none"/><path d="m190 423.6 6.4 6.4-6.4 6.4-6.4-6.4z" stroke="none"/><path d="m210 423.6 6.4 6.4-6.4 6.4-6.4-6.4z" stroke="none"/><path d="m310 423.6 6.4 6.4-6.4 6.4-6.4-6.4z" stroke="none"/><path d="m330 423.6 6.4 6.4-6.4 6.4-6.4-6.4z" stroke="none"/><path d="m350 423.6 6.4 6.4-6.4 6.4-6.4-6.4z" stroke="none"/><path d="m363.6 423.6 12.8 12.8" fill="none" stroke-width="2"/><path d="m363.6 436.4 12.8-12.8" fill="none" stroke-width="2"/><path d="m390 430h6.4" fill="none"/><path d="m390 430 3.2 5.5426" fill="none"/><path d="m390 430-3.2 5.5426" fill="none"/><path d="m390 430h-6.4" fill="none"/><path d="m390 430-3.2-5.5426" fill="none"/><path d="m390 430 3.2-5.5426" fill="none"/><path d="m403.6 423.6 12.8 12.8" fill="none" stroke-width="2"/><path d="m403.6 436.4 12.8-12.8" fill="none" stroke-width="2"/><path d="m430 430h6.4" fill="none"/><path d="m430 430 3.2 5.5426" fill="none"/><path d="m430 430-3.2 5.5426" fill="none"/><path d="m430 430h-6.4" fill="none"/><path d="m430 430-3.2-5.5426" fill="none"/><path d="m430 430 3.2-5.5426" fill="none"/><path d="m443.6 423.6 12.8 12.8" fill="none" stroke-width="2"/><path d="m443.6 436.4 12.8-12.8" fill="none" stroke-width="2"/><path d="m370 443.6 6.4 6.4-6.4 6.4-6.4-6.4z" stroke="none"/><path d="m390 443.6 6.4 6.4-6.4 6.4-6.4-6.4z" stroke="none"/><path d="m410 443.6 6.4 6.4-6.4 6.4-6.4-6.4z" stroke="none"/><path d="m430 443.6 6.4 6.4-6.4 6.4-6.4-6.4z" stroke="none"/><path d="m0 0v480" fill="none" stroke="#b4b4b4" stroke-width="3"/><path d="m20 0v480" fill="none" stroke="#b4b4b4"/><path d="m40 0v480" fill="none" stroke="#b4b4b4"/><path d="m60 0v480" fill="none" stroke="#b4b4b4"/><path d="m80 0v480" fill="none" stroke="#b4b4b4"/><path d="m100 0v480" fill="none" stroke="#b4b4b4"/><path d="m120 0v480" fill="none" stroke="#b4b4b4"/><path d="m140 0v480" fill="none" stroke="#b4b4b4"/><path d="m160 0v480" fill="none" stroke="#b4b4b4"/><path d="m180 0v480" fill="none" stroke="#b4b4b4"/><path d="m200 0v480" fill="none" stroke="#b4b4b4"/><path d="m220 0v480" fill="none" stroke="#b4b4b4"/><path d="m240 0v480" fill="none" stroke="#b4b4b4"/><path d="m260 0v480" fill="none" stroke="#b4b4b4"/><path d="m280 0v480" fill="none" stroke="#b4b4b4"/><path d="m300 0v480" fill="none" stroke="#b4b4b4"/><path d="m320 0v480" fill="none" stroke="#b4b4b4"/><path d="m340 0v480" fill="none" stroke="#b4b4b4"/><path d="m360 0v480" fill="none" stroke="#b4b4b4"/><path d="m380 0v480" fill="none" stroke="#b4b4b4"/><path d="m400 0v480" fill="none" stroke="#b4b4b4"/><path d="m420 0v480" fill="none" stroke="#b4b4b4"/><path d="m440 0v480" fill="none" stroke="#b4b4b4"/><path d="m460 0v480" fill="none" stroke="#b4b4b4"/><path d="m480 0v480" fill="none" stroke="#b4b4b4" stroke-width="3"/><path d="m0 0h480" fill="none" stroke="#b4b4b4" stroke-width="3"/><path d="m0 20h480" fill="none" stroke="#b4b4b4"/><path d="m0 40h480" fill="none" stroke="#b4b4b4"/><path d="m0 60h480" fill="none" stroke="#b4b4b4"/><path d="m0 80h480" fill="none" stroke="#b4b4b4"/><path d="m0 100h480" fill="none" stroke="#b4b4b4"/><path d="m0 120h480" fill="none" stroke="#b4b4b4"/><path d="m0 140h480" fill="none" stroke="#b4b4b4"/><path d="m0 160h480" fill="none" stroke="#b4b4b4"/><path d="m0 180h480" fill="none" stroke="#b4b4b4"/><path d="m0 200h480" fill="none" stroke="#b4b4b4"/><path d="m0 220h480" fill="none" stroke="#b4b4b4"/><path d="m0 240h480" fill="none" stroke="#b4b4b4"/><path d="m0 260h480" fill="none" stroke="#b4b4b4"/><path d="m0 280h480" fill="none" stroke="#b4b4b4"/><path d="m0 300h480" fill="none" stroke="#b4b4b4"/><path d="m0 320h480" fill="none" stroke="#b4b4b4"/><path d="m0 340h480" fill="none" stroke="#b4b4b4"/><path d="m0 360h480" fill="none" stroke="#b4b4b4"/><path d="m0 380h480" fill="none" stroke="#b4b4b4"/><path d="m0 400h480" fill="none" stroke="#b4b4b4"/><path d="m0 420h480" fill="none" stroke="#b4b4b4"/><path d="m0 440h480" fill="none" stroke="#b4b4b4"/><path d="m0 460h480" fill="none" stroke="#b4b4b4"/><path d="m0 480h480" fill="none" stroke="#b4b4b4" stroke-width="3"/></g></g></svg>