<svg xmlns:xlink="http://www.w3.org/1999/xlink" style="fill-opacity:1;color-rendering:auto;color-interpolation:auto;text-rendering:auto;stroke:#000;stroke-linecap:square;stroke-miterlimit:10;shape-rendering:auto;stroke-opacity:1;fill:#000;stroke-dasharray:none;font-weight:400;stroke-width:1;font-family:&quot;Dialog&quot;;font-style:normal;stroke-linejoin:miter;font-size:12px;stroke-dashoffset:0;image-rendering:auto" width="480" height="480" xmlns="http://www.w3.org/2000/svg"><defs/><g style="stroke-linecap:round;fill:#ff6700;stroke:#ff6700"><path style="stroke:none" d="M200 20h20v20h-20z"/></g><g style="stroke-linecap:round;fill:#ff6700;stroke:#ff6700"><path style="stroke:none" d="M220 20h20v20h-20zm20 0h20v20h-20zm20 0h20v20h-20zm20 0h20v20h-20zM160 40h20v20h-20zm20 0h20v20h-20z"/><path style="fill:#fbf236;stroke:none" d="M200 40h20v20h-20zm20 0h20v20h-20zm20 0h20v20h-20zm20 0h20v20h-20zm20 0h20v20h-20z"/><path style="stroke:none" d="M300 40h20v20h-20zm20 0h20v20h-20zM120 60h20v20h-20zm20 0h20v20h-20z"/><path style="fill:#fbf236;stroke:none" d="M160 60h20v20h-20zm20 0h20v20h-20zm20 0h20v20h-20zm20 0h20v20h-20zm20 0h20v20h-20zm20 0h20v20h-20zm20 0h20v20h-20zm20 0h20v20h-20zm20 0h20v20h-20z"/><path style="stroke:none" d="M340 60h20v20h-20zm20 0h20v20h-20zM100 80h20v20h-20z"/><path style="fill:#fbf236;stroke:none" d="M120 80h20v20h-20zm20 0h20v20h-20zm20 0h20v20h-20zm20 0h20v20h-20zm20 0h20v20h-20zm20 0h20v20h-20zm20 0h20v20h-20zm20 0h20v20h-20zm20 0h20v20h-20zm20 0h20v20h-20zm20 0h20v20h-20zm20 0h20v20h-20zm20 0h20v20h-20z"/><path style="stroke:none" d="M380 80h20v20h-20zm-280 20h20v20h-20z"/><path style="fill:#fbf236;stroke:none" d="M120 100h20v20h-20zm20 0h20v20h-20zm20 0h20v20h-20zm20 0h20v20h-20zm20 0h20v20h-20zm20 0h20v20h-20zm20 0h20v20h-20zm20 0h20v20h-20zm20 0h20v20h-20zm20 0h20v20h-20zm20 0h20v20h-20zm20 0h20v20h-20zm20 0h20v20h-20z"/><path style="stroke:none" d="M380 100h20v20h-20zM80 120h20v20H80z"/><path style="fill:#fbf236;stroke:none" d="M100 120h20v20h-20zm20 0h20v20h-20zm20 0h20v20h-20zm20 0h20v20h-20zm20 0h20v20h-20z"/><path style="fill:#663931;stroke:none" d="M200 120h20v20h-20zm20 0h20v20h-20z"/><path style="fill:#fbf236;stroke:none" d="M240 120h20v20h-20zm20 0h20v20h-20zm20 0h20v20h-20zm20 0h20v20h-20zm20 0h20v20h-20zm20 0h20v20h-20zm20 0h20v20h-20zm20 0h20v20h-20z"/><path style="stroke:none" d="M400 120h20v20h-20zM80 140h20v20H80z"/><path style="fill:#fbf236;stroke:none" d="M100 140h20v20h-20zm20 0h20v20h-20zm20 0h20v20h-20zm20 0h20v20h-20z"/><path style="fill:#663931;stroke:none" d="M180 140h20v20h-20zm20 0h20v20h-20zm20 0h20v20h-20z"/><path style="fill:#fbf236;stroke:none" d="M240 140h20v20h-20zm20 0h20v20h-20zm20 0h20v20h-20zm20 0h20v20h-20zm20 0h20v20h-20zm20 0h20v20h-20zm20 0h20v20h-20zm20 0h20v20h-20z"/><path style="stroke:none" d="M400 140h20v20h-20zM60 160h20v20H60z"/><path style="fill:#fbf236;stroke:none" d="M80 160h20v20H80zm20 0h20v20h-20zm20 0h20v20h-20zm20 0h20v20h-20zm20 0h20v20h-20z"/><path style="fill:#663931;stroke:none" d="M180 160h20v20h-20zm20 0h20v20h-20z"/><path style="fill:#fbf236;stroke:none" d="M220 160h20v20h-20zm20 0h20v20h-20zm20 0h20v20h-20zm20 0h20v20h-20zm20 0h20v20h-20zm20 0h20v20h-20zm20 0h20v20h-20zm20 0h20v20h-20zm20 0h20v20h-20zm20 0h20v20h-20z"/><path style="stroke:none" d="M420 160h20v20h-20zM60 180h20v20H60z"/><path style="fill:#fbf236;stroke:none" d="M80 180h20v20H80zm20 0h20v20h-20zm20 0h20v20h-20zm20 0h20v20h-20zm20 0h20v20h-20zm20 0h20v20h-20zm20 0h20v20h-20zm20 0h20v20h-20zm20 0h20v20h-20zm20 0h20v20h-20zm20 0h20v20h-20zm20 0h20v20h-20zm20 0h20v20h-20zm20 0h20v20h-20zm20 0h20v20h-20zm20 0h20v20h-20zm20 0h20v20h-20z"/><path style="stroke:none" d="M420 180h20v20h-20zM60 200h20v20H60z"/><path style="fill:#fbf236;stroke:none" d="M80 200h20v20H80zm20 0h20v20h-20zm20 0h20v20h-20z"/><path style="fill:#663931;stroke:none" d="M140 200h20v20h-20z"/><path style="fill:#fbf236;stroke:none" d="M160 200h20v20h-20zm20 0h20v20h-20zm20 0h20v20h-20zm20 0h20v20h-20zm20 0h20v20h-20zm20 0h20v20h-20zm20 0h20v20h-20z"/><path style="fill:#663931;stroke:none" d="M300 200h20v20h-20zm20 0h20v20h-20z"/><path style="fill:#fbf236;stroke:none" d="M340 200h20v20h-20zm20 0h20v20h-20zm20 0h20v20h-20zm20 0h20v20h-20z"/><path style="stroke:none" d="M420 200h20v20h-20zM60 220h20v20H60z"/><path style="fill:#fbf236;stroke:none" d="M80 220h20v20H80zm20 0h20v20h-20zm20 0h20v20h-20z"/><path style="fill:#663931;stroke:none" d="M140 220h20v20h-20zm20 0h20v20h-20z"/><path style="fill:#fbf236;stroke:none" d="M180 220h20v20h-20zm20 0h20v20h-20zm20 0h20v20h-20zm20 0h20v20h-20zm20 0h20v20h-20z"/><path style="fill:#663931;stroke:none" d="M280 220h20v20h-20zm20 0h20v20h-20zm20 0h20v20h-20z"/><path style="fill:#fbf236;stroke:none" d="M340 220h20v20h-20zm20 0h20v20h-20zm20 0h20v20h-20zm20 0h20v20h-20z"/><path style="stroke:none" d="M420 220h20v20h-20zM60 240h20v20H60z"/><path style="fill:#fbf236;stroke:none" d="M80 240h20v20H80zm20 0h20v20h-20zm20 0h20v20h-20z"/><path style="fill:#663931;stroke:none" d="M140 240h20v20h-20zm20 0h20v20h-20zm20 0h20v20h-20z"/><path style="fill:#fbf236;stroke:none" d="M200 240h20v20h-20zm20 0h20v20h-20zm20 0h20v20h-20zm20 0h20v20h-20z"/><path style="fill:#663931;stroke:none" d="M280 240h20v20h-20zm20 0h20v20h-20z"/><path style="fill:#fbf236;stroke:none" d="M320 240h20v20h-20zm20 0h20v20h-20zm20 0h20v20h-20zm20 0h20v20h-20zm20 0h20v20h-20z"/><path style="stroke:none" d="M420 240h20v20h-20z"/><path style="fill:#fbf236;stroke:none" d="M40 260h20v20H40z"/><path style="stroke:none" d="M60 260h20v20H60z"/><path style="fill:#fbf236;stroke:none" d="M80 260h20v20H80zm20 0h20v20h-20zm20 0h20v20h-20zm20 0h20v20h-20z"/><path style="fill:#663931;stroke:none" d="M160 260h20v20h-20zm20 0h20v20h-20zm20 0h20v20h-20z"/><path style="fill:#fbf236;stroke:none" d="M220 260h20v20h-20zm20 0h20v20h-20zm20 0h20v20h-20zm20 0h20v20h-20zm20 0h20v20h-20zm20 0h20v20h-20zm20 0h20v20h-20zm20 0h20v20h-20z"/><path style="stroke:none" d="M380 260h20v20h-20z"/><path style="fill:#fbf236;stroke:none" d="M400 260h20v20h-20z"/><path style="stroke:none" d="M420 260h20v20h-20z"/><path style="fill:#fbf236;stroke:none" d="M440 260h20v20h-20zM20 280h20v20H20z"/><path style="stroke:none" d="M40 280h20v20H40z"/><path style="fill:#fbf236;stroke:none" d="M60 280h20v20H60z"/><path style="stroke:none" d="M80 280h20v20H80z"/><path style="fill:#fbf236;stroke:none" d="M100 280h20v20h-20zm20 0h20v20h-20zm20 0h20v20h-20zm20 0h20v20h-20z"/><path style="fill:#663931;stroke:none" d="M180 280h20v20h-20zm20 0h20v20h-20zm20 0h20v20h-20zm20 0h20v20h-20z"/><path style="fill:#fbf236;stroke:none" d="M260 280h20v20h-20zm20 0h20v20h-20zm20 0h20v20h-20zm20 0h20v20h-20zm20 0h20v20h-20z"/><path style="stroke:none" d="M360 280h20v20h-20z"/><path style="fill:#fbf236;stroke:none" d="M380 280h20v20h-20z"/><path style="stroke:none" d="M400 280h20v20h-20z"/><path style="fill:#fbf236;stroke:none" d="M420 280h20v20h-20z"/><path style="stroke:none" d="M440 280h20v20h-20zM20 300h20v20H20z"/><path style="fill:#fbf236;stroke:none" d="M40 300h20v20H40z"/><path style="stroke:none" d="M60 300h20v20H60z"/><path style="fill:#fbf236;stroke:none" d="M80 300h20v20H80z"/><path style="stroke:none" d="M100 300h20v20h-20z"/><path style="fill:#fbf236;stroke:none" d="M120 300h20v20h-20zm20 0h20v20h-20zm20 0h20v20h-20zm20 0h20v20h-20zm20 0h20v20h-20z"/><path style="fill:#663931;stroke:none" d="M220 300h20v20h-20zm20 0h20v20h-20zm20 0h20v20h-20zm20 0h20v20h-20z"/><path style="stroke:none" d="M300 300h20v20h-20z"/><path style="fill:#fbf236;stroke:none" d="M320 300h20v20h-20z"/><path style="stroke:none" d="M340 300h20v20h-20z"/><path style="fill:#fbf236;stroke:none" d="M360 300h20v20h-20z"/><path style="stroke:none" d="M380 300h20v20h-20z"/><path style="fill:#fbf236;stroke:none" d="M400 300h20v20h-20z"/><path style="fill:#663931;stroke:none" d="M420 300h20v20h-20zM40 320h20v20H40z"/><path style="fill:#fbf236;stroke:none" d="M60 320h20v20H60z"/><path style="stroke:none" d="M80 320h20v20H80z"/><path style="fill:#fbf236;stroke:none" d="M100 320h20v20h-20z"/><path style="stroke:none" d="M120 320h20v20h-20z"/><path style="fill:#fbf236;stroke:none" d="M140 320h20v20h-20z"/><path style="stroke:none" d="M160 320h20v20h-20z"/><path style="fill:#fbf236;stroke:none" d="M180 320h20v20h-20z"/><path style="stroke:none" d="M200 320h20v20h-20z"/><path style="fill:#fbf236;stroke:none" d="M220 320h20v20h-20z"/><path style="stroke:none" d="M240 320h20v20h-20z"/><path style="fill:#fbf236;stroke:none" d="M260 320h20v20h-20z"/><path style="stroke:none" d="M280 320h20v20h-20z"/><path style="fill:#663931;stroke:none" d="M300 320h20v20h-20zm20 0h20v20h-20zm20 0h20v20h-20z"/><path style="stroke:none" d="M360 320h20v20h-20z"/><path style="fill:#fbf236;stroke:none" d="M380 320h20v20h-20z"/><path style="stroke:none" d="M400 320h20v20h-20z"/><path style="fill:#fbf236;stroke:none" d="M420 320h20v20h-20z"/><path style="fill:#663931;stroke:none" d="M60 340h20v20H60zm20 0h20v20H80z"/><path style="stroke:none" d="M100 340h20v20h-20z"/><path style="fill:#fbf236;stroke:none" d="M120 340h20v20h-20z"/><path style="stroke:none" d="M140 340h20v20h-20z"/><path style="fill:#fbf236;stroke:none" d="M160 340h20v20h-20z"/><path style="stroke:none" d="M180 340h20v20h-20z"/><path style="fill:#fbf236;stroke:none" d="M200 340h20v20h-20z"/><path style="stroke:none" d="M220 340h20v20h-20z"/><path style="fill:#fbf236;stroke:none" d="M240 340h20v20h-20z"/><path style="stroke:none" d="M260 340h20v20h-20z"/><path style="fill:#fbf236;stroke:none" d="M280 340h20v20h-20z"/><path style="stroke:none" d="M300 340h20v20h-20z"/><path style="fill:#fbf236;stroke:none" d="M320 340h20v20h-20z"/><path style="fill:#663931;stroke:none" d="M340 340h20v20h-20zm20 0h20v20h-20z"/><path style="stroke:none" d="M380 340h20v20h-20z"/><path style="fill:#fbf236;stroke:none" d="M400 340h20v20h-20z"/><path style="fill:#663931;stroke:none" d="M420 340h20v20h-20z"/><path style="fill:#fbf236;stroke:none" d="M60 360h20v20H60z"/><path style="stroke:none" d="M80 360h20v20H80z"/><path style="fill:#fbf236;stroke:none" d="M100 360h20v20h-20zm20 0h20v20h-20zm20 0h20v20h-20z"/><path style="stroke:none" d="M160 360h20v20h-20z"/><path style="fill:#fbf236;stroke:none" d="M180 360h20v20h-20zm20 0h20v20h-20zm20 0h20v20h-20z"/><path style="stroke:none" d="M240 360h20v20h-20z"/><path style="fill:#fbf236;stroke:none" d="M260 360h20v20h-20z"/><path style="fill:#663931;stroke:none" d="M280 360h20v20h-20zm20 0h20v20h-20zm20 0h20v20h-20z"/><path style="fill:#fbf236;stroke:none" d="M340 360h20v20h-20zm20 0h20v20h-20zm20 0h20v20h-20z"/><path style="fill:#663931;stroke:none" d="M400 360h20v20h-20z"/><path style="stroke:none" d="M60 380h20v20H60z"/><path style="fill:#fbf236;stroke:none" d="M80 380h20v20H80z"/><path style="stroke:none" d="M100 380h20v20h-20z"/><path style="fill:#fbf236;stroke:none" d="M120 380h20v20h-20z"/><path style="stroke:none" d="M140 380h20v20h-20z"/><path style="fill:#fbf236;stroke:none" d="M160 380h20v20h-20z"/><path style="stroke:none" d="M180 380h20v20h-20z"/><path style="fill:#fbf236;stroke:none" d="M200 380h20v20h-20z"/><path style="stroke:none" d="M220 380h20v20h-20z"/><path style="fill:#fbf236;stroke:none" d="M240 380h20v20h-20z"/><path style="stroke:none" d="M260 380h20v20h-20z"/><path style="fill:#fbf236;stroke:none" d="M280 380h20v20h-20z"/><path style="stroke:none" d="M300 380h20v20h-20z"/><path style="fill:#fbf236;stroke:none" d="M320 380h20v20h-20z"/><path style="stroke:none" d="M340 380h20v20h-20z"/><path style="fill:#fbf236;stroke:none" d="M360 380h20v20h-20z"/><path style="stroke:none" d="M380 380h20v20h-20z"/><path style="fill:#fbf236;stroke:none" d="M400 380h20v20h-20z"/><path style="stroke:none" d="M420 380h20v20h-20z"/><path style="fill:#663931;stroke:none" d="M80 400h20v20H80zm20 0h20v20h-20zm20 0h20v20h-20z"/><path style="fill:#fbf236;stroke:none" d="M140 400h20v20h-20z"/><path style="stroke:none" d="M160 400h20v20h-20z"/><path style="fill:#fbf236;stroke:none" d="M180 400h20v20h-20z"/><path style="stroke:none" d="M200 400h20v20h-20z"/><path style="fill:#663931;stroke:none" d="M220 400h20v20h-20zm20 0h20v20h-20zm20 0h20v20h-20zm20 0h20v20h-20z"/><path style="fill:#fbf236;stroke:none" d="M300 400h20v20h-20z"/><path style="stroke:none" d="M320 400h20v20h-20z"/><path style="fill:#fbf236;stroke:none" d="M340 400h20v20h-20z"/><path style="stroke:none" d="M360 400h20v20h-20z"/><path style="fill:#fbf236;stroke:none" d="M380 400h20v20h-20z"/><path style="stroke:none" d="M400 400h20v20h-20z"/><path style="fill:#fbf236;stroke:none" d="M420 400h20v20h-20z"/><path style="stroke:none" d="M440 400h20v20h-20z"/><path style="fill:#663931;stroke:none" d="M140 420h20v20h-20zm20 0h20v20h-20zm20 0h20v20h-20zm20 0h20v20h-20zm100 0h20v20h-20zm20 0h20v20h-20zm20 0h20v20h-20z"/><path style="fill:#fbf236;stroke:none" d="M360 420h20v20h-20z"/><path style="stroke:none" d="M380 420h20v20h-20z"/><path style="fill:#fbf236;stroke:none" d="M400 420h20v20h-20z"/><path style="stroke:none" d="M420 420h20v20h-20z"/><path style="fill:#fbf236;stroke:none" d="M440 420h20v20h-20z"/><path style="fill:#663931;stroke:none" d="M360 440h20v20h-20zm20 0h20v20h-20zm20 0h20v20h-20zm20 0h20v20h-20z"/></g></svg>