<svg color-interpolation="auto" height="480" stroke="#000" stroke-linecap="square" stroke-miterlimit="10" width="480" xmlns="http://www.w3.org/2000/svg"><path d="m200 20h20v20h-20z" fill="#6f6f6f" stroke="none"/><g fill="#b4b4b4" stroke="#b4b4b4" stroke-linecap="round"><path d="m200 20h20v20h-20z" fill="none"/><path d="m220 20h20v20h-20z" fill="#6f6f6f" stroke="none"/><path d="m220 20h20v20h-20z" fill="none"/><path d="m240 20h20v20h-20z" fill="#6f6f6f" stroke="none"/><path d="m240 20h20v20h-20z" fill="none"/><path d="m260 20h20v20h-20z" fill="#6f6f6f" stroke="none"/><path d="m260 20h20v20h-20z" fill="none"/><path d="m280 20h20v20h-20z" fill="#6f6f6f" stroke="none"/><path d="m280 20h20v20h-20z" fill="none"/><path d="m160 40h20v20h-20z" fill="#6f6f6f" stroke="none"/><path d="m160 40h20v20h-20z" fill="none"/><path d="m180 40h20v20h-20z" fill="#6f6f6f" stroke="none"/><path d="m180 40h20v20h-20z" fill="none"/><path d="m200 40h20v20h-20z" fill="#fff" stroke="none"/><path d="m200 40h20v20h-20z" fill="none"/><path d="m220 40h20v20h-20z" fill="#fff" stroke="none"/><path d="m220 40h20v20h-20z" fill="none"/><path d="m240 40h20v20h-20z" fill="#fff" stroke="none"/><path d="m240 40h20v20h-20z" fill="none"/><path d="m260 40h20v20h-20z" fill="#fff" stroke="none"/><path d="m260 40h20v20h-20z" fill="none"/><path d="m280 40h20v20h-20z" fill="#fff" stroke="none"/><path d="m280 40h20v20h-20z" fill="none"/><path d="m300 40h20v20h-20z" fill="#6f6f6f" stroke="none"/><path d="m300 40h20v20h-20z" fill="none"/><path d="m320 40h20v20h-20z" fill="#6f6f6f" stroke="none"/><path d="m320 40h20v20h-20z" fill="none"/><path d="m120 60h20v20h-20z" fill="#6f6f6f" stroke="none"/><path d="m120 60h20v20h-20z" fill="none"/><path d="m140 60h20v20h-20z" fill="#6f6f6f" stroke="none"/><path d="m140 60h20v20h-20z" fill="none"/><path d="m160 60h20v20h-20z" fill="#fff" stroke="none"/><path d="m160 60h20v20h-20z" fill="none"/><path d="m180 60h20v20h-20z" fill="#fff" stroke="none"/><path d="m180 60h20v20h-20z" fill="none"/><path d="m200 60h20v20h-20z" fill="#fff" stroke="none"/><path d="m200 60h20v20h-20z" fill="none"/><path d="m220 60h20v20h-20z" fill="#fff" stroke="none"/><path d="m220 60h20v20h-20z" fill="none"/><path d="m240 60h20v20h-20z" fill="#fff" stroke="none"/><path d="m240 60h20v20h-20z" fill="none"/><path d="m260 60h20v20h-20z" fill="#fff" stroke="none"/><path d="m260 60h20v20h-20z" fill="none"/><path d="m280 60h20v20h-20z" fill="#fff" stroke="none"/><path d="m280 60h20v20h-20z" fill="none"/><path d="m300 60h20v20h-20z" fill="#fff" stroke="none"/><path d="m300 60h20v20h-20z" fill="none"/><path d="m320 60h20v20h-20z" fill="#fff" stroke="none"/><path d="m320 60h20v20h-20z" fill="none"/><path d="m340 60h20v20h-20z" fill="#6f6f6f" stroke="none"/><path d="m340 60h20v20h-20z" fill="none"/><path d="m360 60h20v20h-20z" fill="#6f6f6f" stroke="none"/><path d="m360 60h20v20h-20z" fill="none"/><path d="m100 80h20v20h-20z" fill="#6f6f6f" stroke="none"/><path d="m100 80h20v20h-20z" fill="none"/><path d="m120 80h20v20h-20z" fill="#fff" stroke="none"/><path d="m120 80h20v20h-20z" fill="none"/><path d="m140 80h20v20h-20z" fill="#fff" stroke="none"/><path d="m140 80h20v20h-20z" fill="none"/><path d="m160 80h20v20h-20z" fill="#fff" stroke="none"/><path d="m160 80h20v20h-20z" fill="none"/><path d="m180 80h20v20h-20z" fill="#fff" stroke="none"/><path d="m180 80h20v20h-20z" fill="none"/><path d="m200 80h20v20h-20z" fill="#fff" stroke="none"/><path d="m200 80h20v20h-20z" fill="none"/><path d="m220 80h20v20h-20z" fill="#fff" stroke="none"/><path d="m220 80h20v20h-20z" fill="none"/><path d="m240 80h20v20h-20z" fill="#fff" stroke="none"/><path d="m240 80h20v20h-20z" fill="none"/><path d="m260 80h20v20h-20z" fill="#fff" stroke="none"/><path d="m260 80h20v20h-20z" fill="none"/><path d="m280 80h20v20h-20z" fill="#fff" stroke="none"/><path d="m280 80h20v20h-20z" fill="none"/><path d="m300 80h20v20h-20z" fill="#fff" stroke="none"/><path d="m300 80h20v20h-20z" fill="none"/><path d="m320 80h20v20h-20z" fill="#fff" stroke="none"/><path d="m320 80h20v20h-20z" fill="none"/><path d="m340 80h20v20h-20z" fill="#fff" stroke="none"/><path d="m340 80h20v20h-20z" fill="none"/><path d="m360 80h20v20h-20z" fill="#fff" stroke="none"/><path d="m360 80h20v20h-20z" fill="none"/><path d="m380 80h20v20h-20z" fill="#6f6f6f" stroke="none"/><path d="m380 80h20v20h-20z" fill="none"/><path d="m100 100h20v20h-20z" fill="#6f6f6f" stroke="none"/><path d="m100 100h20v20h-20z" fill="none"/><path d="m120 100h20v20h-20z" fill="#fff" stroke="none"/><path d="m120 100h20v20h-20z" fill="none"/><path d="m140 100h20v20h-20z" fill="#fff" stroke="none"/><path d="m140 100h20v20h-20z" fill="none"/><path d="m160 100h20v20h-20z" fill="#fff" stroke="none"/><path d="m160 100h20v20h-20z" fill="none"/><path d="m180 100h20v20h-20z" fill="#fff" stroke="none"/><path d="m180 100h20v20h-20z" fill="none"/><path d="m200 100h20v20h-20z" fill="#fff" stroke="none"/><path d="m200 100h20v20h-20z" fill="none"/><path d="m220 100h20v20h-20z" fill="#fff" stroke="none"/><path d="m220 100h20v20h-20z" fill="none"/><path d="m240 100h20v20h-20z" fill="#fff" stroke="none"/><path d="m240 100h20v20h-20z" fill="none"/><path d="m260 100h20v20h-20z" fill="#fff" stroke="none"/><path d="m260 100h20v20h-20z" fill="none"/><path d="m280 100h20v20h-20z" fill="#fff" stroke="none"/><path d="m280 100h20v20h-20z" fill="none"/><path d="m300 100h20v20h-20z" fill="#fff" stroke="none"/><path d="m300 100h20v20h-20z" fill="none"/><path d="m320 100h20v20h-20z" fill="#fff" stroke="none"/><path d="m320 100h20v20h-20z" fill="none"/><path d="m340 100h20v20h-20z" fill="#fff" stroke="none"/><path d="m340 100h20v20h-20z" fill="none"/><path d="m360 100h20v20h-20z" fill="#fff" stroke="none"/><path d="m360 100h20v20h-20z" fill="none"/><path d="m380 100h20v20h-20z" fill="#6f6f6f" stroke="none"/><path d="m380 100h20v20h-20z" fill="none"/><path d="m80 120h20v20h-20z" fill="#6f6f6f" stroke="none"/><path d="m80 120h20v20h-20z" fill="none"/><path d="m100 120h20v20h-20z" fill="#fff" stroke="none"/><path d="m100 120h20v20h-20z" fill="none"/><path d="m120 120h20v20h-20z" fill="#fff" stroke="none"/><path d="m120 120h20v20h-20z" fill="none"/><path d="m140 120h20v20h-20z" fill="#fff" stroke="none"/><path d="m140 120h20v20h-20z" fill="none"/><path d="m160 120h20v20h-20z" fill="#fff" stroke="none"/><path d="m160 120h20v20h-20z" fill="none"/><path d="m180 120h20v20h-20z" fill="#fff" stroke="none"/><path d="m180 120h20v20h-20z" fill="none"/><path d="m200 120h20v20h-20z" fill="#000" stroke="none"/><path d="m200 120h20v20h-20z" fill="none"/><path d="m220 120h20v20h-20z" fill="#000" stroke="none"/><path d="m220 120h20v20h-20z" fill="none"/><path d="m240 120h20v20h-20z" fill="#fff" stroke="none"/><path d="m240 120h20v20h-20z" fill="none"/><path d="m260 120h20v20h-20z" fill="#fff" stroke="none"/><path d="m260 120h20v20h-20z" fill="none"/><path d="m280 120h20v20h-20z" fill="#fff" stroke="none"/><path d="m280 120h20v20h-20z" fill="none"/><path d="m300 120h20v20h-20z" fill="#fff" stroke="none"/><path d="m300 120h20v20h-20z" fill="none"/><path d="m320 120h20v20h-20z" fill="#fff" stroke="none"/><path d="m320 120h20v20h-20z" fill="none"/><path d="m340 120h20v20h-20z" fill="#fff" stroke="none"/><path d="m340 120h20v20h-20z" fill="none"/><path d="m360 120h20v20h-20z" fill="#fff" stroke="none"/><path d="m360 120h20v20h-20z" fill="none"/><path d="m380 120h20v20h-20z" fill="#fff" stroke="none"/><path d="m380 120h20v20h-20z" fill="none"/><path d="m400 120h20v20h-20z" fill="#6f6f6f" stroke="none"/><path d="m400 120h20v20h-20z" fill="none"/><path d="m80 140h20v20h-20z" fill="#6f6f6f" stroke="none"/><path d="m80 140h20v20h-20z" fill="none"/><path d="m100 140h20v20h-20z" fill="#fff" stroke="none"/><path d="m100 140h20v20h-20z" fill="none"/><path d="m120 140h20v20h-20z" fill="#fff" stroke="none"/><path d="m120 140h20v20h-20z" fill="none"/><path d="m140 140h20v20h-20z" fill="#fff" stroke="none"/><path d="m140 140h20v20h-20z" fill="none"/><path d="m160 140h20v20h-20z" fill="#fff" stroke="none"/><path d="m160 140h20v20h-20z" fill="none"/><path d="m180 140h20v20h-20z" fill="#000" stroke="none"/><path d="m180 140h20v20h-20z" fill="none"/><path d="m200 140h20v20h-20z" fill="#000" stroke="none"/><path d="m200 140h20v20h-20z" fill="none"/><path d="m220 140h20v20h-20z" fill="#000" stroke="none"/><path d="m220 140h20v20h-20z" fill="none"/><path d="m240 140h20v20h-20z" fill="#fff" stroke="none"/><path d="m240 140h20v20h-20z" fill="none"/><path d="m260 140h20v20h-20z" fill="#fff" stroke="none"/><path d="m260 140h20v20h-20z" fill="none"/><path d="m280 140h20v20h-20z" fill="#fff" stroke="none"/><path d="m280 140h20v20h-20z" fill="none"/><path d="m300 140h20v20h-20z" fill="#fff" stroke="none"/><path d="m300 140h20v20h-20z" fill="none"/><path d="m320 140h20v20h-20z" fill="#fff" stroke="none"/><path d="m320 140h20v20h-20z" fill="none"/><path d="m340 140h20v20h-20z" fill="#fff" stroke="none"/><path d="m340 140h20v20h-20z" fill="none"/><path d="m360 140h20v20h-20z" fill="#fff" stroke="none"/><path d="m360 140h20v20h-20z" fill="none"/><path d="m380 140h20v20h-20z" fill="#fff" stroke="none"/><path d="m380 140h20v20h-20z" fill="none"/><path d="m400 140h20v20h-20z" fill="#6f6f6f" stroke="none"/><path d="m400 140h20v20h-20z" fill="none"/><path d="m60 160h20v20h-20z" fill="#6f6f6f" stroke="none"/><path d="m60 160h20v20h-20z" fill="none"/><path d="m80 160h20v20h-20z" fill="#fff" stroke="none"/><path d="m80 160h20v20h-20z" fill="none"/><path d="m100 160h20v20h-20z" fill="#fff" stroke="none"/><path d="m100 160h20v20h-20z" fill="none"/><path d="m120 160h20v20h-20z" fill="#fff" stroke="none"/><path d="m120 160h20v20h-20z" fill="none"/><path d="m140 160h20v20h-20z" fill="#fff" stroke="none"/><path d="m140 160h20v20h-20z" fill="none"/><path d="m160 160h20v20h-20z" fill="#fff" stroke="none"/><path d="m160 160h20v20h-20z" fill="none"/><path d="m180 160h20v20h-20z" fill="#000" stroke="none"/><path d="m180 160h20v20h-20z" fill="none"/><path d="m200 160h20v20h-20z" fill="#000" stroke="none"/><path d="m200 160h20v20h-20z" fill="none"/><path d="m220 160h20v20h-20z" fill="#fff" stroke="none"/><path d="m220 160h20v20h-20z" fill="none"/><path d="m240 160h20v20h-20z" fill="#fff" stroke="none"/><path d="m240 160h20v20h-20z" fill="none"/><path d="m260 160h20v20h-20z" fill="#fff" stroke="none"/><path d="m260 160h20v20h-20z" fill="none"/><path d="m280 160h20v20h-20z" fill="#fff" stroke="none"/><path d="m280 160h20v20h-20z" fill="none"/><path d="m300 160h20v20h-20z" fill="#fff" stroke="none"/><path d="m300 160h20v20h-20z" fill="none"/><path d="m320 160h20v20h-20z" fill="#fff" stroke="none"/><path d="m320 160h20v20h-20z" fill="none"/><path d="m340 160h20v20h-20z" fill="#fff" stroke="none"/><path d="m340 160h20v20h-20z" fill="none"/><path d="m360 160h20v20h-20z" fill="#fff" stroke="none"/><path d="m360 160h20v20h-20z" fill="none"/><path d="m380 160h20v20h-20z" fill="#fff" stroke="none"/><path d="m380 160h20v20h-20z" fill="none"/><path d="m400 160h20v20h-20z" fill="#fff" stroke="none"/><path d="m400 160h20v20h-20z" fill="none"/><path d="m420 160h20v20h-20z" fill="#6f6f6f" stroke="none"/><path d="m420 160h20v20h-20z" fill="none"/><path d="m60 180h20v20h-20z" fill="#6f6f6f" stroke="none"/><path d="m60 180h20v20h-20z" fill="none"/><path d="m80 180h20v20h-20z" fill="#fff" stroke="none"/><path d="m80 180h20v20h-20z" fill="none"/><path d="m100 180h20v20h-20z" fill="#fff" stroke="none"/><path d="m100 180h20v20h-20z" fill="none"/><path d="m120 180h20v20h-20z" fill="#fff" stroke="none"/><path d="m120 180h20v20h-20z" fill="none"/><path d="m140 180h20v20h-20z" fill="#fff" stroke="none"/><path d="m140 180h20v20h-20z" fill="none"/><path d="m160 180h20v20h-20z" fill="#fff" stroke="none"/><path d="m160 180h20v20h-20z" fill="none"/><path d="m180 180h20v20h-20z" fill="#fff" stroke="none"/><path d="m180 180h20v20h-20z" fill="none"/><path d="m200 180h20v20h-20z" fill="#fff" stroke="none"/><path d="m200 180h20v20h-20z" fill="none"/><path d="m220 180h20v20h-20z" fill="#fff" stroke="none"/><path d="m220 180h20v20h-20z" fill="none"/><path d="m240 180h20v20h-20z" fill="#fff" stroke="none"/><path d="m240 180h20v20h-20z" fill="none"/><path d="m260 180h20v20h-20z" fill="#fff" stroke="none"/><path d="m260 180h20v20h-20z" fill="none"/><path d="m280 180h20v20h-20z" fill="#fff" stroke="none"/><path d="m280 180h20v20h-20z" fill="none"/><path d="m300 180h20v20h-20z" fill="#fff" stroke="none"/><path d="m300 180h20v20h-20z" fill="none"/><path d="m320 180h20v20h-20z" fill="#fff" stroke="none"/><path d="m320 180h20v20h-20z" fill="none"/><path d="m340 180h20v20h-20z" fill="#fff" stroke="none"/><path d="m340 180h20v20h-20z" fill="none"/><path d="m360 180h20v20h-20z" fill="#fff" stroke="none"/><path d="m360 180h20v20h-20z" fill="none"/><path d="m380 180h20v20h-20z" fill="#fff" stroke="none"/><path d="m380 180h20v20h-20z" fill="none"/><path d="m400 180h20v20h-20z" fill="#fff" stroke="none"/><path d="m400 180h20v20h-20z" fill="none"/><path d="m420 180h20v20h-20z" fill="#6f6f6f" stroke="none"/><path d="m420 180h20v20h-20z" fill="none"/><path d="m60 200h20v20h-20z" fill="#6f6f6f" stroke="none"/><path d="m60 200h20v20h-20z" fill="none"/><path d="m80 200h20v20h-20z" fill="#fff" stroke="none"/><path d="m80 200h20v20h-20z" fill="none"/><path d="m100 200h20v20h-20z" fill="#fff" stroke="none"/><path d="m100 200h20v20h-20z" fill="none"/><path d="m120 200h20v20h-20z" fill="#fff" stroke="none"/><path d="m120 200h20v20h-20z" fill="none"/><path d="m140 200h20v20h-20z" fill="#000" stroke="none"/><path d="m140 200h20v20h-20z" fill="none"/><path d="m160 200h20v20h-20z" fill="#fff" stroke="none"/><path d="m160 200h20v20h-20z" fill="none"/><path d="m180 200h20v20h-20z" fill="#fff" stroke="none"/><path d="m180 200h20v20h-20z" fill="none"/><path d="m200 200h20v20h-20z" fill="#fff" stroke="none"/><path d="m200 200h20v20h-20z" fill="none"/><path d="m220 200h20v20h-20z" fill="#fff" stroke="none"/><path d="m220 200h20v20h-20z" fill="none"/><path d="m240 200h20v20h-20z" fill="#fff" stroke="none"/><path d="m240 200h20v20h-20z" fill="none"/><path d="m260 200h20v20h-20z" fill="#fff" stroke="none"/><path d="m260 200h20v20h-20z" fill="none"/><path d="m280 200h20v20h-20z" fill="#fff" stroke="none"/><path d="m280 200h20v20h-20z" fill="none"/><path d="m300 200h20v20h-20z" fill="#000" stroke="none"/><path d="m300 200h20v20h-20z" fill="none"/><path d="m320 200h20v20h-20z" fill="#000" stroke="none"/><path d="m320 200h20v20h-20z" fill="none"/><path d="m340 200h20v20h-20z" fill="#fff" stroke="none"/><path d="m340 200h20v20h-20z" fill="none"/><path d="m360 200h20v20h-20z" fill="#fff" stroke="none"/><path d="m360 200h20v20h-20z" fill="none"/><path d="m380 200h20v20h-20z" fill="#fff" stroke="none"/><path d="m380 200h20v20h-20z" fill="none"/><path d="m400 200h20v20h-20z" fill="#fff" stroke="none"/><path d="m400 200h20v20h-20z" fill="none"/><path d="m420 200h20v20h-20z" fill="#6f6f6f" stroke="none"/><path d="m420 200h20v20h-20z" fill="none"/><path d="m60 220h20v20h-20z" fill="#6f6f6f" stroke="none"/><path d="m60 220h20v20h-20z" fill="none"/><path d="m80 220h20v20h-20z" fill="#fff" stroke="none"/><path d="m80 220h20v20h-20z" fill="none"/><path d="m100 220h20v20h-20z" fill="#fff" stroke="none"/><path d="m100 220h20v20h-20z" fill="none"/><path d="m120 220h20v20h-20z" fill="#fff" stroke="none"/><path d="m120 220h20v20h-20z" fill="none"/><path d="m140 220h20v20h-20z" fill="#000" stroke="none"/><path d="m140 220h20v20h-20z" fill="none"/><path d="m160 220h20v20h-20z" fill="#000" stroke="none"/><path d="m160 220h20v20h-20z" fill="none"/><path d="m180 220h20v20h-20z" fill="#fff" stroke="none"/><path d="m180 220h20v20h-20z" fill="none"/><path d="m200 220h20v20h-20z" fill="#fff" stroke="none"/><path d="m200 220h20v20h-20z" fill="none"/><path d="m220 220h20v20h-20z" fill="#fff" stroke="none"/><path d="m220 220h20v20h-20z" fill="none"/><path d="m240 220h20v20h-20z" fill="#fff" stroke="none"/><path d="m240 220h20v20h-20z" fill="none"/><path d="m260 220h20v20h-20z" fill="#fff" stroke="none"/><path d="m260 220h20v20h-20z" fill="none"/><path d="m280 220h20v20h-20z" fill="#000" stroke="none"/><path d="m280 220h20v20h-20z" fill="none"/><path d="m300 220h20v20h-20z" fill="#000" stroke="none"/><path d="m300 220h20v20h-20z" fill="none"/><path d="m320 220h20v20h-20z" fill="#000" stroke="none"/><path d="m320 220h20v20h-20z" fill="none"/><path d="m340 220h20v20h-20z" fill="#fff" stroke="none"/><path d="m340 220h20v20h-20z" fill="none"/><path d="m360 220h20v20h-20z" fill="#fff" stroke="none"/><path d="m360 220h20v20h-20z" fill="none"/><path d="m380 220h20v20h-20z" fill="#fff" stroke="none"/><path d="m380 220h20v20h-20z" fill="none"/><path d="m400 220h20v20h-20z" fill="#fff" stroke="none"/><path d="m400 220h20v20h-20z" fill="none"/><path d="m420 220h20v20h-20z" fill="#6f6f6f" stroke="none"/><path d="m420 220h20v20h-20z" fill="none"/><path d="m60 240h20v20h-20z" fill="#6f6f6f" stroke="none"/><path d="m60 240h20v20h-20z" fill="none"/><path d="m80 240h20v20h-20z" fill="#fff" stroke="none"/><path d="m80 240h20v20h-20z" fill="none"/><path d="m100 240h20v20h-20z" fill="#fff" stroke="none"/><path d="m100 240h20v20h-20z" fill="none"/><path d="m120 240h20v20h-20z" fill="#fff" stroke="none"/><path d="m120 240h20v20h-20z" fill="none"/><path d="m140 240h20v20h-20z" fill="#000" stroke="none"/><path d="m140 240h20v20h-20z" fill="none"/><path d="m160 240h20v20h-20z" fill="#000" stroke="none"/><path d="m160 240h20v20h-20z" fill="none"/><path d="m180 240h20v20h-20z" fill="#000" stroke="none"/><path d="m180 240h20v20h-20z" fill="none"/><path d="m200 240h20v20h-20z" fill="#fff" stroke="none"/><path d="m200 240h20v20h-20z" fill="none"/><path d="m220 240h20v20h-20z" fill="#fff" stroke="none"/><path d="m220 240h20v20h-20z" fill="none"/><path d="m240 240h20v20h-20z" fill="#fff" stroke="none"/><path d="m240 240h20v20h-20z" fill="none"/><path d="m260 240h20v20h-20z" fill="#fff" stroke="none"/><path d="m260 240h20v20h-20z" fill="none"/><path d="m280 240h20v20h-20z" fill="#000" stroke="none"/><path d="m280 240h20v20h-20z" fill="none"/><path d="m300 240h20v20h-20z" fill="#000" stroke="none"/><path d="m300 240h20v20h-20z" fill="none"/><path d="m320 240h20v20h-20z" fill="#fff" stroke="none"/><path d="m320 240h20v20h-20z" fill="none"/><path d="m340 240h20v20h-20z" fill="#fff" stroke="none"/><path d="m340 240h20v20h-20z" fill="none"/><path d="m360 240h20v20h-20z" fill="#fff" stroke="none"/><path d="m360 240h20v20h-20z" fill="none"/><path d="m380 240h20v20h-20z" fill="#fff" stroke="none"/><path d="m380 240h20v20h-20z" fill="none"/><path d="m400 240h20v20h-20z" fill="#fff" stroke="none"/><path d="m400 240h20v20h-20z" fill="none"/><path d="m420 240h20v20h-20z" fill="#6f6f6f" stroke="none"/><path d="m420 240h20v20h-20z" fill="none"/><path d="m40 260h20v20h-20z" fill="#fff" stroke="none"/><path d="m40 260h20v20h-20z" fill="none"/><path d="m60 260h20v20h-20z" fill="#6f6f6f" stroke="none"/><path d="m60 260h20v20h-20z" fill="none"/><path d="m80 260h20v20h-20z" fill="#fff" stroke="none"/><path d="m80 260h20v20h-20z" fill="none"/><path d="m100 260h20v20h-20z" fill="#fff" stroke="none"/><path d="m100 260h20v20h-20z" fill="none"/><path d="m120 260h20v20h-20z" fill="#fff" stroke="none"/><path d="m120 260h20v20h-20z" fill="none"/><path d="m140 260h20v20h-20z" fill="#fff" stroke="none"/><path d="m140 260h20v20h-20z" fill="none"/><path d="m160 260h20v20h-20z" fill="#000" stroke="none"/><path d="m160 260h20v20h-20z" fill="none"/><path d="m180 260h20v20h-20z" fill="#000" stroke="none"/><path d="m180 260h20v20h-20z" fill="none"/><path d="m200 260h20v20h-20z" fill="#000" stroke="none"/><path d="m200 260h20v20h-20z" fill="none"/><path d="m220 260h20v20h-20z" fill="#fff" stroke="none"/><path d="m220 260h20v20h-20z" fill="none"/><path d="m240 260h20v20h-20z" fill="#fff" stroke="none"/><path d="m240 260h20v20h-20z" fill="none"/><path d="m260 260h20v20h-20z" fill="#fff" stroke="none"/><path d="m260 260h20v20h-20z" fill="none"/><path d="m280 260h20v20h-20z" fill="#fff" stroke="none"/><path d="m280 260h20v20h-20z" fill="none"/><path d="m300 260h20v20h-20z" fill="#fff" stroke="none"/><path d="m300 260h20v20h-20z" fill="none"/><path d="m320 260h20v20h-20z" fill="#fff" stroke="none"/><path d="m320 260h20v20h-20z" fill="none"/><path d="m340 260h20v20h-20z" fill="#fff" stroke="none"/><path d="m340 260h20v20h-20z" fill="none"/><path d="m360 260h20v20h-20z" fill="#fff" stroke="none"/><path d="m360 260h20v20h-20z" fill="none"/><path d="m380 260h20v20h-20z" fill="#6f6f6f" stroke="none"/><path d="m380 260h20v20h-20z" fill="none"/><path d="m400 260h20v20h-20z" fill="#fff" stroke="none"/><path d="m400 260h20v20h-20z" fill="none"/><path d="m420 260h20v20h-20z" fill="#6f6f6f" stroke="none"/><path d="m420 260h20v20h-20z" fill="none"/><path d="m440 260h20v20h-20z" fill="#fff" stroke="none"/><path d="m440 260h20v20h-20z" fill="none"/><path d="m20 280h20v20h-20z" fill="#fff" stroke="none"/><path d="m20 280h20v20h-20z" fill="none"/><path d="m40 280h20v20h-20z" fill="#6f6f6f" stroke="none"/><path d="m40 280h20v20h-20z" fill="none"/><path d="m60 280h20v20h-20z" fill="#fff" stroke="none"/><path d="m60 280h20v20h-20z" fill="none"/><path d="m80 280h20v20h-20z" fill="#6f6f6f" stroke="none"/><path d="m80 280h20v20h-20z" fill="none"/><path d="m100 280h20v20h-20z" fill="#fff" stroke="none"/><path d="m100 280h20v20h-20z" fill="none"/><path d="m120 280h20v20h-20z" fill="#fff" stroke="none"/><path d="m120 280h20v20h-20z" fill="none"/><path d="m140 280h20v20h-20z" fill="#fff" stroke="none"/><path d="m140 280h20v20h-20z" fill="none"/><path d="m160 280h20v20h-20z" fill="#fff" stroke="none"/><path d="m160 280h20v20h-20z" fill="none"/><path d="m180 280h20v20h-20z" fill="#000" stroke="none"/><path d="m180 280h20v20h-20z" fill="none"/><path d="m200 280h20v20h-20z" fill="#000" stroke="none"/><path d="m200 280h20v20h-20z" fill="none"/><path d="m220 280h20v20h-20z" fill="#000" stroke="none"/><path d="m220 280h20v20h-20z" fill="none"/><path d="m240 280h20v20h-20z" fill="#000" stroke="none"/><path d="m240 280h20v20h-20z" fill="none"/><path d="m260 280h20v20h-20z" fill="#fff" stroke="none"/><path d="m260 280h20v20h-20z" fill="none"/><path d="m280 280h20v20h-20z" fill="#fff" stroke="none"/><path d="m280 280h20v20h-20z" fill="none"/><path d="m300 280h20v20h-20z" fill="#fff" stroke="none"/><path d="m300 280h20v20h-20z" fill="none"/><path d="m320 280h20v20h-20z" fill="#fff" stroke="none"/><path d="m320 280h20v20h-20z" fill="none"/><path d="m340 280h20v20h-20z" fill="#fff" stroke="none"/><path d="m340 280h20v20h-20z" fill="none"/><path d="m360 280h20v20h-20z" fill="#6f6f6f" stroke="none"/><path d="m360 280h20v20h-20z" fill="none"/><path d="m380 280h20v20h-20z" fill="#fff" stroke="none"/><path d="m380 280h20v20h-20z" fill="none"/><path d="m400 280h20v20h-20z" fill="#6f6f6f" stroke="none"/><path d="m400 280h20v20h-20z" fill="none"/><path d="m420 280h20v20h-20z" fill="#fff" stroke="none"/><path d="m420 280h20v20h-20z" fill="none"/><path d="m440 280h20v20h-20z" fill="#6f6f6f" stroke="none"/><path d="m440 280h20v20h-20z" fill="none"/><path d="m20 300h20v20h-20z" fill="#6f6f6f" stroke="none"/><path d="m20 300h20v20h-20z" fill="none"/><path d="m40 300h20v20h-20z" fill="#fff" stroke="none"/><path d="m40 300h20v20h-20z" fill="none"/><path d="m60 300h20v20h-20z" fill="#6f6f6f" stroke="none"/><path d="m60 300h20v20h-20z" fill="none"/><path d="m80 300h20v20h-20z" fill="#fff" stroke="none"/><path d="m80 300h20v20h-20z" fill="none"/><path d="m100 300h20v20h-20z" fill="#6f6f6f" stroke="none"/><path d="m100 300h20v20h-20z" fill="none"/><path d="m120 300h20v20h-20z" fill="#fff" stroke="none"/><path d="m120 300h20v20h-20z" fill="none"/><path d="m140 300h20v20h-20z" fill="#fff" stroke="none"/><path d="m140 300h20v20h-20z" fill="none"/><path d="m160 300h20v20h-20z" fill="#fff" stroke="none"/><path d="m160 300h20v20h-20z" fill="none"/><path d="m180 300h20v20h-20z" fill="#fff" stroke="none"/><path d="m180 300h20v20h-20z" fill="none"/><path d="m200 300h20v20h-20z" fill="#fff" stroke="none"/><path d="m200 300h20v20h-20z" fill="none"/><path d="m220 300h20v20h-20z" fill="#000" stroke="none"/><path d="m220 300h20v20h-20z" fill="none"/><path d="m240 300h20v20h-20z" fill="#000" stroke="none"/><path d="m240 300h20v20h-20z" fill="none"/><path d="m260 300h20v20h-20z" fill="#000" stroke="none"/><path d="m260 300h20v20h-20z" fill="none"/><path d="m280 300h20v20h-20z" fill="#000" stroke="none"/><path d="m280 300h20v20h-20z" fill="none"/><path d="m300 300h20v20h-20z" fill="#6f6f6f" stroke="none"/><path d="m300 300h20v20h-20z" fill="none"/><path d="m320 300h20v20h-20z" fill="#fff" stroke="none"/><path d="m320 300h20v20h-20z" fill="none"/><path d="m340 300h20v20h-20z" fill="#6f6f6f" stroke="none"/><path d="m340 300h20v20h-20z" fill="none"/><path d="m360 300h20v20h-20z" fill="#fff" stroke="none"/><path d="m360 300h20v20h-20z" fill="none"/><path d="m380 300h20v20h-20z" fill="#6f6f6f" stroke="none"/><path d="m380 300h20v20h-20z" fill="none"/><path d="m400 300h20v20h-20z" fill="#fff" stroke="none"/><path d="m400 300h20v20h-20z" fill="none"/><path d="m420 300h20v20h-20z" fill="#000" stroke="none"/><path d="m420 300h20v20h-20z" fill="none"/><path d="m40 320h20v20h-20z" fill="#000" stroke="none"/><path d="m40 320h20v20h-20z" fill="none"/><path d="m60 320h20v20h-20z" fill="#fff" stroke="none"/><path d="m60 320h20v20h-20z" fill="none"/><path d="m80 320h20v20h-20z" fill="#6f6f6f" stroke="none"/><path d="m80 320h20v20h-20z" fill="none"/><path d="m100 320h20v20h-20z" fill="#fff" stroke="none"/><path d="m100 320h20v20h-20z" fill="none"/><path d="m120 320h20v20h-20z" fill="#6f6f6f" stroke="none"/><path d="m120 320h20v20h-20z" fill="none"/><path d="m140 320h20v20h-20z" fill="#fff" stroke="none"/><path d="m140 320h20v20h-20z" fill="none"/><path d="m160 320h20v20h-20z" fill="#6f6f6f" stroke="none"/><path d="m160 320h20v20h-20z" fill="none"/><path d="m180 320h20v20h-20z" fill="#fff" stroke="none"/><path d="m180 320h20v20h-20z" fill="none"/><path d="m200 320h20v20h-20z" fill="#6f6f6f" stroke="none"/><path d="m200 320h20v20h-20z" fill="none"/><path d="m220 320h20v20h-20z" fill="#fff" stroke="none"/><path d="m220 320h20v20h-20z" fill="none"/><path d="m240 320h20v20h-20z" fill="#6f6f6f" stroke="none"/><path d="m240 320h20v20h-20z" fill="none"/><path d="m260 320h20v20h-20z" fill="#fff" stroke="none"/><path d="m260 320h20v20h-20z" fill="none"/><path d="m280 320h20v20h-20z" fill="#6f6f6f" stroke="none"/><path d="m280 320h20v20h-20z" fill="none"/><path d="m300 320h20v20h-20z" fill="#000" stroke="none"/><path d="m300 320h20v20h-20z" fill="none"/><path d="m320 320h20v20h-20z" fill="#000" stroke="none"/><path d="m320 320h20v20h-20z" fill="none"/><path d="m340 320h20v20h-20z" fill="#000" stroke="none"/><path d="m340 320h20v20h-20z" fill="none"/><path d="m360 320h20v20h-20z" fill="#6f6f6f" stroke="none"/><path d="m360 320h20v20h-20z" fill="none"/><path d="m380 320h20v20h-20z" fill="#fff" stroke="none"/><path d="m380 320h20v20h-20z" fill="none"/><path d="m400 320h20v20h-20z" fill="#6f6f6f" stroke="none"/><path d="m400 320h20v20h-20z" fill="none"/><path d="m420 320h20v20h-20z" fill="#fff" stroke="none"/><path d="m420 320h20v20h-20z" fill="none"/><path d="m60 340h20v20h-20z" fill="#000" stroke="none"/><path d="m60 340h20v20h-20z" fill="none"/><path d="m80 340h20v20h-20z" fill="#000" stroke="none"/><path d="m80 340h20v20h-20z" fill="none"/><path d="m100 340h20v20h-20z" fill="#6f6f6f" stroke="none"/><path d="m100 340h20v20h-20z" fill="none"/><path d="m120 340h20v20h-20z" fill="#fff" stroke="none"/><path d="m120 340h20v20h-20z" fill="none"/><path d="m140 340h20v20h-20z" fill="#6f6f6f" stroke="none"/><path d="m140 340h20v20h-20z" fill="none"/><path d="m160 340h20v20h-20z" fill="#fff" stroke="none"/><path d="m160 340h20v20h-20z" fill="none"/><path d="m180 340h20v20h-20z" fill="#6f6f6f" stroke="none"/><path d="m180 340h20v20h-20z" fill="none"/><path d="m200 340h20v20h-20z" fill="#fff" stroke="none"/><path d="m200 340h20v20h-20z" fill="none"/><path d="m220 340h20v20h-20z" fill="#6f6f6f" stroke="none"/><path d="m220 340h20v20h-20z" fill="none"/><path d="m240 340h20v20h-20z" fill="#fff" stroke="none"/><path d="m240 340h20v20h-20z" fill="none"/><path d="m260 340h20v20h-20z" fill="#6f6f6f" stroke="none"/><path d="m260 340h20v20h-20z" fill="none"/><path d="m280 340h20v20h-20z" fill="#fff" stroke="none"/><path d="m280 340h20v20h-20z" fill="none"/><path d="m300 340h20v20h-20z" fill="#6f6f6f" stroke="none"/><path d="m300 340h20v20h-20z" fill="none"/><path d="m320 340h20v20h-20z" fill="#fff" stroke="none"/><path d="m320 340h20v20h-20z" fill="none"/><path d="m340 340h20v20h-20z" fill="#000" stroke="none"/><path d="m340 340h20v20h-20z" fill="none"/><path d="m360 340h20v20h-20z" fill="#000" stroke="none"/><path d="m360 340h20v20h-20z" fill="none"/><path d="m380 340h20v20h-20z" fill="#6f6f6f" stroke="none"/><path d="m380 340h20v20h-20z" fill="none"/><path d="m400 340h20v20h-20z" fill="#fff" stroke="none"/><path d="m400 340h20v20h-20z" fill="none"/><path d="m420 340h20v20h-20z" fill="#000" stroke="none"/><path d="m420 340h20v20h-20z" fill="none"/><path d="m60 360h20v20h-20z" fill="#fff" stroke="none"/><path d="m60 360h20v20h-20z" fill="none"/><path d="m80 360h20v20h-20z" fill="#6f6f6f" stroke="none"/><path d="m80 360h20v20h-20z" fill="none"/><path d="m100 360h20v20h-20z" fill="#fff" stroke="none"/><path d="m100 360h20v20h-20z" fill="none"/><path d="m120 360h20v20h-20z" fill="#fff" stroke="none"/><path d="m120 360h20v20h-20z" fill="none"/><path d="m140 360h20v20h-20z" fill="#fff" stroke="none"/><path d="m140 360h20v20h-20z" fill="none"/><path d="m160 360h20v20h-20z" fill="#6f6f6f" stroke="none"/><path d="m160 360h20v20h-20z" fill="none"/><path d="m180 360h20v20h-20z" fill="#fff" stroke="none"/><path d="m180 360h20v20h-20z" fill="none"/><path d="m200 360h20v20h-20z" fill="#fff" stroke="none"/><path d="m200 360h20v20h-20z" fill="none"/><path d="m220 360h20v20h-20z" fill="#fff" stroke="none"/><path d="m220 360h20v20h-20z" fill="none"/><path d="m240 360h20v20h-20z" fill="#6f6f6f" stroke="none"/><path d="m240 360h20v20h-20z" fill="none"/><path d="m260 360h20v20h-20z" fill="#fff" stroke="none"/><path d="m260 360h20v20h-20z" fill="none"/><path d="m280 360h20v20h-20z" fill="#000" stroke="none"/><path d="m280 360h20v20h-20z" fill="none"/><path d="m300 360h20v20h-20z" fill="#000" stroke="none"/><path d="m300 360h20v20h-20z" fill="none"/><path d="m320 360h20v20h-20z" fill="#000" stroke="none"/><path d="m320 360h20v20h-20z" fill="none"/><path d="m340 360h20v20h-20z" fill="#fff" stroke="none"/><path d="m340 360h20v20h-20z" fill="none"/><path d="m360 360h20v20h-20z" fill="#fff" stroke="none"/><path d="m360 360h20v20h-20z" fill="none"/><path d="m380 360h20v20h-20z" fill="#fff" stroke="none"/><path d="m380 360h20v20h-20z" fill="none"/><path d="m400 360h20v20h-20z" fill="#000" stroke="none"/><path d="m400 360h20v20h-20z" fill="none"/><path d="m60 380h20v20h-20z" fill="#6f6f6f" stroke="none"/><path d="m60 380h20v20h-20z" fill="none"/><path d="m80 380h20v20h-20z" fill="#fff" stroke="none"/><path d="m80 380h20v20h-20z" fill="none"/><path d="m100 380h20v20h-20z" fill="#6f6f6f" stroke="none"/><path d="m100 380h20v20h-20z" fill="none"/><path d="m120 380h20v20h-20z" fill="#fff" stroke="none"/><path d="m120 380h20v20h-20z" fill="none"/><path d="m140 380h20v20h-20z" fill="#6f6f6f" stroke="none"/><path d="m140 380h20v20h-20z" fill="none"/><path d="m160 380h20v20h-20z" fill="#fff" stroke="none"/><path d="m160 380h20v20h-20z" fill="none"/><path d="m180 380h20v20h-20z" fill="#6f6f6f" stroke="none"/><path d="m180 380h20v20h-20z" fill="none"/><path d="m200 380h20v20h-20z" fill="#fff" stroke="none"/><path d="m200 380h20v20h-20z" fill="none"/><path d="m220 380h20v20h-20z" fill="#6f6f6f" stroke="none"/><path d="m220 380h20v20h-20z" fill="none"/><path d="m240 380h20v20h-20z" fill="#fff" stroke="none"/><path d="m240 380h20v20h-20z" fill="none"/><path d="m260 380h20v20h-20z" fill="#6f6f6f" stroke="none"/><path d="m260 380h20v20h-20z" fill="none"/><path d="m280 380h20v20h-20z" fill="#fff" stroke="none"/><path d="m280 380h20v20h-20z" fill="none"/><path d="m300 380h20v20h-20z" fill="#6f6f6f" stroke="none"/><path d="m300 380h20v20h-20z" fill="none"/><path d="m320 380h20v20h-20z" fill="#fff" stroke="none"/><path d="m320 380h20v20h-20z" fill="none"/><path d="m340 380h20v20h-20z" fill="#6f6f6f" stroke="none"/><path d="m340 380h20v20h-20z" fill="none"/><path d="m360 380h20v20h-20z" fill="#fff" stroke="none"/><path d="m360 380h20v20h-20z" fill="none"/><path d="m380 380h20v20h-20z" fill="#6f6f6f" stroke="none"/><path d="m380 380h20v20h-20z" fill="none"/><path d="m400 380h20v20h-20z" fill="#fff" stroke="none"/><path d="m400 380h20v20h-20z" fill="none"/><path d="m420 380h20v20h-20z" fill="#6f6f6f" stroke="none"/><path d="m420 380h20v20h-20z" fill="none"/><path d="m80 400h20v20h-20z" fill="#000" stroke="none"/><path d="m80 400h20v20h-20z" fill="none"/><path d="m100 400h20v20h-20z" fill="#000" stroke="none"/><path d="m100 400h20v20h-20z" fill="none"/><path d="m120 400h20v20h-20z" fill="#000" stroke="none"/><path d="m120 400h20v20h-20z" fill="none"/><path d="m140 400h20v20h-20z" fill="#fff" stroke="none"/><path d="m140 400h20v20h-20z" fill="none"/><path d="m160 400h20v20h-20z" fill="#6f6f6f" stroke="none"/><path d="m160 400h20v20h-20z" fill="none"/><path d="m180 400h20v20h-20z" fill="#fff" stroke="none"/><path d="m180 400h20v20h-20z" fill="none"/><path d="m200 400h20v20h-20z" fill="#6f6f6f" stroke="none"/><path d="m200 400h20v20h-20z" fill="none"/><path d="m220 400h20v20h-20z" fill="#000" stroke="none"/><path d="m220 400h20v20h-20z" fill="none"/><path d="m240 400h20v20h-20z" fill="#000" stroke="none"/><path d="m240 400h20v20h-20z" fill="none"/><path d="m260 400h20v20h-20z" fill="#000" stroke="none"/><path d="m260 400h20v20h-20z" fill="none"/><path d="m280 400h20v20h-20z" fill="#000" stroke="none"/><path d="m280 400h20v20h-20z" fill="none"/><path d="m300 400h20v20h-20z" fill="#fff" stroke="none"/><path d="m300 400h20v20h-20z" fill="none"/><path d="m320 400h20v20h-20z" fill="#6f6f6f" stroke="none"/><path d="m320 400h20v20h-20z" fill="none"/><path d="m340 400h20v20h-20z" fill="#fff" stroke="none"/><path d="m340 400h20v20h-20z" fill="none"/><path d="m360 400h20v20h-20z" fill="#6f6f6f" stroke="none"/><path d="m360 400h20v20h-20z" fill="none"/><path d="m380 400h20v20h-20z" fill="#fff" stroke="none"/><path d="m380 400h20v20h-20z" fill="none"/><path d="m400 400h20v20h-20z" fill="#6f6f6f" stroke="none"/><path d="m400 400h20v20h-20z" fill="none"/><path d="m420 400h20v20h-20z" fill="#fff" stroke="none"/><path d="m420 400h20v20h-20z" fill="none"/><path d="m440 400h20v20h-20z" fill="#6f6f6f" stroke="none"/><path d="m440 400h20v20h-20z" fill="none"/><path d="m140 420h20v20h-20z" fill="#000" stroke="none"/><path d="m140 420h20v20h-20z" fill="none"/><path d="m160 420h20v20h-20z" fill="#000" stroke="none"/><path d="m160 420h20v20h-20z" fill="none"/><path d="m180 420h20v20h-20z" fill="#000" stroke="none"/><path d="m180 420h20v20h-20z" fill="none"/><path d="m200 420h20v20h-20z" fill="#000" stroke="none"/><path d="m200 420h20v20h-20z" fill="none"/><path d="m300 420h20v20h-20z" fill="#000" stroke="none"/><path d="m300 420h20v20h-20z" fill="none"/><path d="m320 420h20v20h-20z" fill="#000" stroke="none"/><path d="m320 420h20v20h-20z" fill="none"/><path d="m340 420h20v20h-20z" fill="#000" stroke="none"/><path d="m340 420h20v20h-20z" fill="none"/><path d="m360 420h20v20h-20z" fill="#fff" stroke="none"/><path d="m360 420h20v20h-20z" fill="none"/><path d="m380 420h20v20h-20z" fill="#6f6f6f" stroke="none"/><path d="m380 420h20v20h-20z" fill="none"/><path d="m400 420h20v20h-20z" fill="#fff" stroke="none"/><path d="m400 420h20v20h-20z" fill="none"/><path d="m420 420h20v20h-20z" fill="#6f6f6f" stroke="none"/><path d="m420 420h20v20h-20z" fill="none"/><path d="m440 420h20v20h-20z" fill="#fff" stroke="none"/><path d="m440 420h20v20h-20z" fill="none"/><path d="m360 440h20v20h-20z" fill="#000" stroke="none"/><path d="m360 440h20v20h-20z" fill="none"/><path d="m380 440h20v20h-20z" fill="#000" stroke="none"/><path d="m380 440h20v20h-20z" fill="none"/><path d="m400 440h20v20h-20z" fill="#000" stroke="none"/><path d="m400 440h20v20h-20z" fill="none"/><path d="m420 440h20v20h-20z" fill="#000" stroke="none"/><path d="m420 440h20v20h-20z" fill="none"/></g></svg>