<svg color-interpolation="auto" height="480" stroke="#000" stroke-linecap="square" stroke-miterlimit="10" width="480" xmlns="http://www.w3.org/2000/svg"><g stroke-linecap="round" stroke-width="1.5"><path d="m210 30h6.4" fill="none"/><g><g fill="none"><path d="m210 30 3.2 5.5426"/><path d="m210 30-3.2 5.5426"/><path d="m210 30h-6.4"/><path d="m210 30-3.2-5.5426"/><path d="m210 30 3.2-5.5426"/><path d="m230 30h6.4"/><path d="m230 30 3.2 5.5426"/><path d="m230 30-3.2 5.5426"/><path d="m230 30h-6.4"/><path d="m230 30-3.2-5.5426"/><path d="m230 30 3.2-5.5426"/><path d="m250 30h6.4"/><path d="m250 30 3.2 5.5426"/><path d="m250 30-3.2 5.5426"/><path d="m250 30h-6.4"/><path d="m250 30-3.2-5.5426"/><path d="m250 30 3.2-5.5426"/><path d="m270 30h6.4"/><path d="m270 30 3.2 5.5426"/><path d="m270 30-3.2 5.5426"/><path d="m270 30h-6.4"/><path d="m270 30-3.2-5.5426"/><path d="m270 30 3.2-5.5426"/><path d="m290 30h6.4"/><path d="m290 30 3.2 5.5426"/><path d="m290 30-3.2 5.5426"/><path d="m290 30h-6.4"/><path d="m290 30-3.2-5.5426"/><path d="m290 30 3.2-5.5426"/><path d="m170 50h6.4"/><path d="m170 50 3.2 5.5426"/><path d="m170 50-3.2 5.5426"/><path d="m170 50h-6.4"/><path d="m170 50-3.2-5.5426"/><path d="m170 50 3.2-5.5426"/><path d="m190 50h6.4"/><path d="m190 50 3.2 5.5426"/><path d="m190 50-3.2 5.5426"/><path d="m190 50h-6.4"/><path d="m190 50-3.2-5.5426"/><path d="m190 50 3.2-5.5426"/><path d="m205.2 50h9.6" stroke-width="2"/><path d="m210 45.2v9.6" stroke-width="2"/><path d="m225.2 50h9.6" stroke-width="2"/><path d="m230 45.2v9.6" stroke-width="2"/><path d="m245.2 50h9.6" stroke-width="2"/><path d="m250 45.2v9.6" stroke-width="2"/><path d="m265.2 50h9.6" stroke-width="2"/><path d="m270 45.2v9.6" stroke-width="2"/><path d="m285.2 50h9.6" stroke-width="2"/><path d="m290 45.2v9.6" stroke-width="2"/><path d="m310 50h6.4"/><path d="m310 50 3.2 5.5426"/><path d="m310 50-3.2 5.5426"/><path d="m310 50h-6.4"/><path d="m310 50-3.2-5.5426"/><path d="m310 50 3.2-5.5426"/><path d="m330 50h6.4"/><path d="m330 50 3.2 5.5426"/><path d="m330 50-3.2 5.5426"/><path d="m330 50h-6.4"/><path d="m330 50-3.2-5.5426"/><path d="m330 50 3.2-5.5426"/><path d="m130 70h6.4"/><path d="m130 70 3.2 5.5426"/><path d="m130 70-3.2 5.5426"/><path d="m130 70h-6.4"/><path d="m130 70-3.2-5.5426"/><path d="m130 70 3.2-5.5426"/><path d="m150 70h6.4"/><path d="m150 70 3.2 5.5426"/><path d="m150 70-3.2 5.5426"/><path d="m150 70h-6.4"/><path d="m150 70-3.2-5.5426"/><path d="m150 70 3.2-5.5426"/><path d="m165.2 70h9.6" stroke-width="2"/><path d="m170 65.2v9.6" stroke-width="2"/><path d="m185.2 70h9.6" stroke-width="2"/><path d="m190 65.2v9.6" stroke-width="2"/><path d="m205.2 70h9.6" stroke-width="2"/><path d="m210 65.2v9.6" stroke-width="2"/><path d="m225.2 70h9.6" stroke-width="2"/><path d="m230 65.2v9.6" stroke-width="2"/><path d="m245.2 70h9.6" stroke-width="2"/><path d="m250 65.2v9.6" stroke-width="2"/><path d="m265.2 70h9.6" stroke-width="2"/><path d="m270 65.2v9.6" stroke-width="2"/><path d="m285.2 70h9.6" stroke-width="2"/><path d="m290 65.2v9.6" stroke-width="2"/><path d="m305.2 70h9.6" stroke-width="2"/><path d="m310 65.2v9.6" stroke-width="2"/><path d="m325.2 70h9.6" stroke-width="2"/><path d="m330 65.2v9.6" stroke-width="2"/><path d="m350 70h6.4"/><path d="m350 70 3.2 5.5426"/><path d="m350 70-3.2 5.5426"/><path d="m350 70h-6.4"/><path d="m350 70-3.2-5.5426"/><path d="m350 70 3.2-5.5426"/><path d="m370 70h6.4"/><path d="m370 70 3.2 5.5426"/><path d="m370 70-3.2 5.5426"/><path d="m370 70h-6.4"/><path d="m370 70-3.2-5.5426"/><path d="m370 70 3.2-5.5426"/><path d="m110 90h6.4"/><path d="m110 90 3.2 5.5426"/><path d="m110 90-3.2 5.5426"/><path d="m110 90h-6.4"/><path d="m110 90-3.2-5.5426"/><path d="m110 90 3.2-5.5426"/><path d="m125.2 90h9.6" stroke-width="2"/><path d="m130 85.2v9.6" stroke-width="2"/><path d="m145.2 90h9.6" stroke-width="2"/><path d="m150 85.2v9.6" stroke-width="2"/><path d="m165.2 90h9.6" stroke-width="2"/><path d="m170 85.2v9.6" stroke-width="2"/><path d="m185.2 90h9.6" stroke-width="2"/><path d="m190 85.2v9.6" stroke-width="2"/><path d="m205.2 90h9.6" stroke-width="2"/><path d="m210 85.2v9.6" stroke-width="2"/><path d="m225.2 90h9.6" stroke-width="2"/><path d="m230 85.2v9.6" stroke-width="2"/><path d="m245.2 90h9.6" stroke-width="2"/><path d="m250 85.2v9.6" stroke-width="2"/><path d="m265.2 90h9.6" stroke-width="2"/><path d="m270 85.2v9.6" stroke-width="2"/><path d="m285.2 90h9.6" stroke-width="2"/><path d="m290 85.2v9.6" stroke-width="2"/><path d="m305.2 90h9.6" stroke-width="2"/><path d="m310 85.2v9.6" stroke-width="2"/><path d="m325.2 90h9.6" stroke-width="2"/><path d="m330 85.2v9.6" stroke-width="2"/><path d="m345.2 90h9.6" stroke-width="2"/><path d="m350 85.2v9.6" stroke-width="2"/><path d="m365.2 90h9.6" stroke-width="2"/><path d="m370 85.2v9.6" stroke-width="2"/><path d="m390 90h6.4"/><path d="m390 90 3.2 5.5426"/><path d="m390 90-3.2 5.5426"/><path d="m390 90h-6.4"/><path d="m390 90-3.2-5.5426"/><path d="m390 90 3.2-5.5426"/><path d="m110 110h6.4"/><path d="m110 110 3.2 5.5426"/><path d="m110 110-3.2 5.5426"/><path d="m110 110h-6.4"/><path d="m110 110-3.2-5.5426"/><path d="m110 110 3.2-5.5426"/><path d="m125.2 110h9.6" stroke-width="2"/><path d="m130 105.2v9.6" stroke-width="2"/><path d="m145.2 110h9.6" stroke-width="2"/><path d="m150 105.2v9.6" stroke-width="2"/><path d="m165.2 110h9.6" stroke-width="2"/><path d="m170 105.2v9.6" stroke-width="2"/><path d="m185.2 110h9.6" stroke-width="2"/><path d="m190 105.2v9.6" stroke-width="2"/><path d="m205.2 110h9.6" stroke-width="2"/><path d="m210 105.2v9.6" stroke-width="2"/><path d="m225.2 110h9.6" stroke-width="2"/><path d="m230 105.2v9.6" stroke-width="2"/><path d="m245.2 110h9.6" stroke-width="2"/><path d="m250 105.2v9.6" stroke-width="2"/><path d="m265.2 110h9.6" stroke-width="2"/><path d="m270 105.2v9.6" stroke-width="2"/><path d="m285.2 110h9.6" stroke-width="2"/><path d="m290 105.2v9.6" stroke-width="2"/><path d="m305.2 110h9.6" stroke-width="2"/><path d="m310 105.2v9.6" stroke-width="2"/><path d="m325.2 110h9.6" stroke-width="2"/><path d="m330 105.2v9.6" stroke-width="2"/><path d="m345.2 110h9.6" stroke-width="2"/><path d="m350 105.2v9.6" stroke-width="2"/><path d="m365.2 110h9.6" stroke-width="2"/><path d="m370 105.2v9.6" stroke-width="2"/><path d="m390 110h6.4"/><path d="m390 110 3.2 5.5426"/><path d="m390 110-3.2 5.5426"/><path d="m390 110h-6.4"/><path d="m390 110-3.2-5.5426"/><path d="m390 110 3.2-5.5426"/><path d="m90 130h6.4"/><path d="m90 130 3.2 5.5426"/><path d="m90 130-3.2 5.5426"/><path d="m90 130h-6.4"/><path d="m90 130-3.2-5.5426"/><path d="m90 130 3.2-5.5426"/><path d="m105.2 130h9.6" stroke-width="2"/><path d="m110 125.2v9.6" stroke-width="2"/><path d="m125.2 130h9.6" stroke-width="2"/><path d="m130 125.2v9.6" stroke-width="2"/><path d="m145.2 130h9.6" stroke-width="2"/><path d="m150 125.2v9.6" stroke-width="2"/><path d="m165.2 130h9.6" stroke-width="2"/><path d="m170 125.2v9.6" stroke-width="2"/><path d="m185.2 130h9.6" stroke-width="2"/><path d="m190 125.2v9.6" stroke-width="2"/></g><circle cx="210" cy="130" r="6.4" stroke="none"/><circle cx="230" cy="130" r="6.4" stroke="none"/><path d="m245.2 130h9.6" fill="none" stroke-width="2"/><path d="m250 125.2v9.6" fill="none" stroke-width="2"/><path d="m265.2 130h9.6" fill="none" stroke-width="2"/><path d="m270 125.2v9.6" fill="none" stroke-width="2"/><path d="m285.2 130h9.6" fill="none" stroke-width="2"/><path d="m290 125.2v9.6" fill="none" stroke-width="2"/><path d="m305.2 130h9.6" fill="none" stroke-width="2"/><path d="m310 125.2v9.6" fill="none" stroke-width="2"/><path d="m325.2 130h9.6" fill="none" stroke-width="2"/><path d="m330 125.2v9.6" fill="none" stroke-width="2"/><path d="m345.2 130h9.6" fill="none" stroke-width="2"/><path d="m350 125.2v9.6" fill="none" stroke-width="2"/><path d="m365.2 130h9.6" fill="none" stroke-width="2"/><path d="m370 125.2v9.6" fill="none" stroke-width="2"/><path d="m385.2 130h9.6" fill="none" stroke-width="2"/><path d="m390 125.2v9.6" fill="none" stroke-width="2"/><path d="m410 130h6.4" fill="none"/><path d="m410 130 3.2 5.5426" fill="none"/><path d="m410 130-3.2 5.5426" fill="none"/><path d="m410 130h-6.4" fill="none"/><path d="m410 130-3.2-5.5426" fill="none"/><path d="m410 130 3.2-5.5426" fill="none"/><path d="m90 150h6.4" fill="none"/><path d="m90 150 3.2 5.5426" fill="none"/><path d="m90 150-3.2 5.5426" fill="none"/><path d="m90 150h-6.4" fill="none"/><path d="m90 150-3.2-5.5426" fill="none"/><path d="m90 150 3.2-5.5426" fill="none"/><path d="m105.2 150h9.6" fill="none" stroke-width="2"/><path d="m110 145.2v9.6" fill="none" stroke-width="2"/><path d="m125.2 150h9.6" fill="none" stroke-width="2"/><path d="m130 145.2v9.6" fill="none" stroke-width="2"/><path d="m145.2 150h9.6" fill="none" stroke-width="2"/><path d="m150 145.2v9.6" fill="none" stroke-width="2"/><path d="m165.2 150h9.6" fill="none" stroke-width="2"/><path d="m170 145.2v9.6" fill="none" stroke-width="2"/><circle cx="190" cy="150" r="6.4" stroke="none"/><circle cx="210" cy="150" r="6.4" stroke="none"/><circle cx="230" cy="150" r="6.4" stroke="none"/><path d="m245.2 150h9.6" fill="none" stroke-width="2"/><path d="m250 145.2v9.6" fill="none" stroke-width="2"/><path d="m265.2 150h9.6" fill="none" stroke-width="2"/><path d="m270 145.2v9.6" fill="none" stroke-width="2"/><path d="m285.2 150h9.6" fill="none" stroke-width="2"/><path d="m290 145.2v9.6" fill="none" stroke-width="2"/><path d="m305.2 150h9.6" fill="none" stroke-width="2"/><path d="m310 145.2v9.6" fill="none" stroke-width="2"/><path d="m325.2 150h9.6" fill="none" stroke-width="2"/><path d="m330 145.2v9.6" fill="none" stroke-width="2"/><path d="m345.2 150h9.6" fill="none" stroke-width="2"/><path d="m350 145.2v9.6" fill="none" stroke-width="2"/><path d="m365.2 150h9.6" fill="none" stroke-width="2"/><path d="m370 145.2v9.6" fill="none" stroke-width="2"/><path d="m385.2 150h9.6" fill="none" stroke-width="2"/><path d="m390 145.2v9.6" fill="none" stroke-width="2"/><path d="m410 150h6.4" fill="none"/><path d="m410 150 3.2 5.5426" fill="none"/><path d="m410 150-3.2 5.5426" fill="none"/><path d="m410 150h-6.4" fill="none"/><path d="m410 150-3.2-5.5426" fill="none"/><path d="m410 150 3.2-5.5426" fill="none"/><path d="m70 170h6.4" fill="none"/><path d="m70 170 3.2 5.5426" fill="none"/><path d="m70 170-3.2 5.5426" fill="none"/><path d="m70 170h-6.4" fill="none"/><path d="m70 170-3.2-5.5426" fill="none"/><path d="m70 170 3.2-5.5426" fill="none"/><path d="m85.2 170h9.6" fill="none" stroke-width="2"/><path d="m90 165.2v9.6" fill="none" stroke-width="2"/><path d="m105.2 170h9.6" fill="none" stroke-width="2"/><path d="m110 165.2v9.6" fill="none" stroke-width="2"/><path d="m125.2 170h9.6" fill="none" stroke-width="2"/><path d="m130 165.2v9.6" fill="none" stroke-width="2"/><path d="m145.2 170h9.6" fill="none" stroke-width="2"/><path d="m150 165.2v9.6" fill="none" stroke-width="2"/><path d="m165.2 170h9.6" fill="none" stroke-width="2"/><path d="m170 165.2v9.6" fill="none" stroke-width="2"/><circle cx="190" cy="170" r="6.4" stroke="none"/><circle cx="210" cy="170" r="6.4" stroke="none"/><path d="m225.2 170h9.6" fill="none" stroke-width="2"/><path d="m230 165.2v9.6" fill="none" stroke-width="2"/><path d="m245.2 170h9.6" fill="none" stroke-width="2"/><path d="m250 165.2v9.6" fill="none" stroke-width="2"/><path d="m265.2 170h9.6" fill="none" stroke-width="2"/><path d="m270 165.2v9.6" fill="none" stroke-width="2"/><path d="m285.2 170h9.6" fill="none" stroke-width="2"/><path d="m290 165.2v9.6" fill="none" stroke-width="2"/><path d="m305.2 170h9.6" fill="none" stroke-width="2"/><path d="m310 165.2v9.6" fill="none" stroke-width="2"/><path d="m325.2 170h9.6" fill="none" stroke-width="2"/><path d="m330 165.2v9.6" fill="none" stroke-width="2"/><path d="m345.2 170h9.6" fill="none" stroke-width="2"/><path d="m350 165.2v9.6" fill="none" stroke-width="2"/><path d="m365.2 170h9.6" fill="none" stroke-width="2"/><path d="m370 165.2v9.6" fill="none" stroke-width="2"/><path d="m385.2 170h9.6" fill="none" stroke-width="2"/><path d="m390 165.2v9.6" fill="none" stroke-width="2"/><path d="m405.2 170h9.6" fill="none" stroke-width="2"/><path d="m410 165.2v9.6" fill="none" stroke-width="2"/><path d="m430 170h6.4" fill="none"/><path d="m430 170 3.2 5.5426" fill="none"/><path d="m430 170-3.2 5.5426" fill="none"/><path d="m430 170h-6.4" fill="none"/><path d="m430 170-3.2-5.5426" fill="none"/><path d="m430 170 3.2-5.5426" fill="none"/><path d="m70 190h6.4" fill="none"/><path d="m70 190 3.2 5.5426" fill="none"/><path d="m70 190-3.2 5.5426" fill="none"/><path d="m70 190h-6.4" fill="none"/><path d="m70 190-3.2-5.5426" fill="none"/><path d="m70 190 3.2-5.5426" fill="none"/><path d="m85.2 190h9.6" fill="none" stroke-width="2"/><path d="m90 185.2v9.6" fill="none" stroke-width="2"/><path d="m105.2 190h9.6" fill="none" stroke-width="2"/><path d="m110 185.2v9.6" fill="none" stroke-width="2"/><path d="m125.2 190h9.6" fill="none" stroke-width="2"/><path d="m130 185.2v9.6" fill="none" stroke-width="2"/><path d="m145.2 190h9.6" fill="none" stroke-width="2"/><path d="m150 185.2v9.6" fill="none" stroke-width="2"/><path d="m165.2 190h9.6" fill="none" stroke-width="2"/><path d="m170 185.2v9.6" fill="none" stroke-width="2"/><path d="m185.2 190h9.6" fill="none" stroke-width="2"/><path d="m190 185.2v9.6" fill="none" stroke-width="2"/><path d="m205.2 190h9.6" fill="none" stroke-width="2"/><path d="m210 185.2v9.6" fill="none" stroke-width="2"/><path d="m225.2 190h9.6" fill="none" stroke-width="2"/><path d="m230 185.2v9.6" fill="none" stroke-width="2"/><path d="m245.2 190h9.6" fill="none" stroke-width="2"/><path d="m250 185.2v9.6" fill="none" stroke-width="2"/><path d="m265.2 190h9.6" fill="none" stroke-width="2"/><path d="m270 185.2v9.6" fill="none" stroke-width="2"/><path d="m285.2 190h9.6" fill="none" stroke-width="2"/><path d="m290 185.2v9.6" fill="none" stroke-width="2"/><path d="m305.2 190h9.6" fill="none" stroke-width="2"/><path d="m310 185.2v9.6" fill="none" stroke-width="2"/><path d="m325.2 190h9.6" fill="none" stroke-width="2"/><path d="m330 185.2v9.6" fill="none" stroke-width="2"/><path d="m345.2 190h9.6" fill="none" stroke-width="2"/><path d="m350 185.2v9.6" fill="none" stroke-width="2"/><path d="m365.2 190h9.6" fill="none" stroke-width="2"/><path d="m370 185.2v9.6" fill="none" stroke-width="2"/><path d="m385.2 190h9.6" fill="none" stroke-width="2"/><path d="m390 185.2v9.6" fill="none" stroke-width="2"/><path d="m405.2 190h9.6" fill="none" stroke-width="2"/><path d="m410 185.2v9.6" fill="none" stroke-width="2"/><path d="m430 190h6.4" fill="none"/><path d="m430 190 3.2 5.5426" fill="none"/><path d="m430 190-3.2 5.5426" fill="none"/><path d="m430 190h-6.4" fill="none"/><path d="m430 190-3.2-5.5426" fill="none"/><path d="m430 190 3.2-5.5426" fill="none"/><path d="m70 210h6.4" fill="none"/><path d="m70 210 3.2 5.5426" fill="none"/><path d="m70 210-3.2 5.5426" fill="none"/><path d="m70 210h-6.4" fill="none"/><path d="m70 210-3.2-5.5426" fill="none"/><path d="m70 210 3.2-5.5426" fill="none"/><path d="m85.2 210h9.6" fill="none" stroke-width="2"/><path d="m90 205.2v9.6" fill="none" stroke-width="2"/><path d="m105.2 210h9.6" fill="none" stroke-width="2"/><path d="m110 205.2v9.6" fill="none" stroke-width="2"/><path d="m125.2 210h9.6" fill="none" stroke-width="2"/><path d="m130 205.2v9.6" fill="none" stroke-width="2"/><circle cx="150" cy="210" r="6.4" stroke="none"/><path d="m165.2 210h9.6" fill="none" stroke-width="2"/><path d="m170 205.2v9.6" fill="none" stroke-width="2"/><path d="m185.2 210h9.6" fill="none" stroke-width="2"/><path d="m190 205.2v9.6" fill="none" stroke-width="2"/><path d="m205.2 210h9.6" fill="none" stroke-width="2"/><path d="m210 205.2v9.6" fill="none" stroke-width="2"/><path d="m225.2 210h9.6" fill="none" stroke-width="2"/><path d="m230 205.2v9.6" fill="none" stroke-width="2"/><path d="m245.2 210h9.6" fill="none" stroke-width="2"/><path d="m250 205.2v9.6" fill="none" stroke-width="2"/><path d="m265.2 210h9.6" fill="none" stroke-width="2"/><path d="m270 205.2v9.6" fill="none" stroke-width="2"/><path d="m285.2 210h9.6" fill="none" stroke-width="2"/><path d="m290 205.2v9.6" fill="none" stroke-width="2"/><circle cx="310" cy="210" r="6.4" stroke="none"/><circle cx="330" cy="210" r="6.4" stroke="none"/><path d="m345.2 210h9.6" fill="none" stroke-width="2"/><path d="m350 205.2v9.6" fill="none" stroke-width="2"/><path d="m365.2 210h9.6" fill="none" stroke-width="2"/><path d="m370 205.2v9.6" fill="none" stroke-width="2"/><path d="m385.2 210h9.6" fill="none" stroke-width="2"/><path d="m390 205.2v9.6" fill="none" stroke-width="2"/><path d="m405.2 210h9.6" fill="none" stroke-width="2"/><path d="m410 205.2v9.6" fill="none" stroke-width="2"/><path d="m430 210h6.4" fill="none"/><path d="m430 210 3.2 5.5426" fill="none"/><path d="m430 210-3.2 5.5426" fill="none"/><path d="m430 210h-6.4" fill="none"/><path d="m430 210-3.2-5.5426" fill="none"/><path d="m430 210 3.2-5.5426" fill="none"/><path d="m70 230h6.4" fill="none"/><path d="m70 230 3.2 5.5426" fill="none"/><path d="m70 230-3.2 5.5426" fill="none"/><path d="m70 230h-6.4" fill="none"/><path d="m70 230-3.2-5.5426" fill="none"/><path d="m70 230 3.2-5.5426" fill="none"/><path d="m85.2 230h9.6" fill="none" stroke-width="2"/><path d="m90 225.2v9.6" fill="none" stroke-width="2"/><path d="m105.2 230h9.6" fill="none" stroke-width="2"/><path d="m110 225.2v9.6" fill="none" stroke-width="2"/><path d="m125.2 230h9.6" fill="none" stroke-width="2"/><path d="m130 225.2v9.6" fill="none" stroke-width="2"/><circle cx="150" cy="230" r="6.4" stroke="none"/><circle cx="170" cy="230" r="6.4" stroke="none"/><path d="m185.2 230h9.6" fill="none" stroke-width="2"/><path d="m190 225.2v9.6" fill="none" stroke-width="2"/><path d="m205.2 230h9.6" fill="none" stroke-width="2"/><path d="m210 225.2v9.6" fill="none" stroke-width="2"/><path d="m225.2 230h9.6" fill="none" stroke-width="2"/><path d="m230 225.2v9.6" fill="none" stroke-width="2"/><path d="m245.2 230h9.6" fill="none" stroke-width="2"/><path d="m250 225.2v9.6" fill="none" stroke-width="2"/><path d="m265.2 230h9.6" fill="none" stroke-width="2"/><path d="m270 225.2v9.6" fill="none" stroke-width="2"/><circle cx="290" cy="230" r="6.4" stroke="none"/><circle cx="310" cy="230" r="6.4" stroke="none"/><circle cx="330" cy="230" r="6.4" stroke="none"/><path d="m345.2 230h9.6" fill="none" stroke-width="2"/><path d="m350 225.2v9.6" fill="none" stroke-width="2"/><path d="m365.2 230h9.6" fill="none" stroke-width="2"/><path d="m370 225.2v9.6" fill="none" stroke-width="2"/><path d="m385.2 230h9.6" fill="none" stroke-width="2"/><path d="m390 225.2v9.6" fill="none" stroke-width="2"/><path d="m405.2 230h9.6" fill="none" stroke-width="2"/><path d="m410 225.2v9.6" fill="none" stroke-width="2"/><path d="m430 230h6.4" fill="none"/><path d="m430 230 3.2 5.5426" fill="none"/><path d="m430 230-3.2 5.5426" fill="none"/><path d="m430 230h-6.4" fill="none"/><path d="m430 230-3.2-5.5426" fill="none"/><path d="m430 230 3.2-5.5426" fill="none"/><path d="m70 250h6.4" fill="none"/><path d="m70 250 3.2 5.5426" fill="none"/><path d="m70 250-3.2 5.5426" fill="none"/><path d="m70 250h-6.4" fill="none"/><path d="m70 250-3.2-5.5426" fill="none"/><path d="m70 250 3.2-5.5426" fill="none"/><path d="m85.2 250h9.6" fill="none" stroke-width="2"/><path d="m90 245.2v9.6" fill="none" stroke-width="2"/><path d="m105.2 250h9.6" fill="none" stroke-width="2"/><path d="m110 245.2v9.6" fill="none" stroke-width="2"/><path d="m125.2 250h9.6" fill="none" stroke-width="2"/><path d="m130 245.2v9.6" fill="none" stroke-width="2"/><circle cx="150" cy="250" r="6.4" stroke="none"/><circle cx="170" cy="250" r="6.4" stroke="none"/><circle cx="190" cy="250" r="6.4" stroke="none"/><path d="m205.2 250h9.6" fill="none" stroke-width="2"/><path d="m210 245.2v9.6" fill="none" stroke-width="2"/><path d="m225.2 250h9.6" fill="none" stroke-width="2"/><path d="m230 245.2v9.6" fill="none" stroke-width="2"/><path d="m245.2 250h9.6" fill="none" stroke-width="2"/><path d="m250 245.2v9.6" fill="none" stroke-width="2"/><path d="m265.2 250h9.6" fill="none" stroke-width="2"/><path d="m270 245.2v9.6" fill="none" stroke-width="2"/><circle cx="290" cy="250" r="6.4" stroke="none"/><circle cx="310" cy="250" r="6.4" stroke="none"/><path d="m325.2 250h9.6" fill="none" stroke-width="2"/><path d="m330 245.2v9.6" fill="none" stroke-width="2"/><path d="m345.2 250h9.6" fill="none" stroke-width="2"/><path d="m350 245.2v9.6" fill="none" stroke-width="2"/><path d="m365.2 250h9.6" fill="none" stroke-width="2"/><path d="m370 245.2v9.6" fill="none" stroke-width="2"/><path d="m385.2 250h9.6" fill="none" stroke-width="2"/><path d="m390 245.2v9.6" fill="none" stroke-width="2"/><path d="m405.2 250h9.6" fill="none" stroke-width="2"/><path d="m410 245.2v9.6" fill="none" stroke-width="2"/><path d="m430 250h6.4" fill="none"/><path d="m430 250 3.2 5.5426" fill="none"/><path d="m430 250-3.2 5.5426" fill="none"/><path d="m430 250h-6.4" fill="none"/><path d="m430 250-3.2-5.5426" fill="none"/><path d="m430 250 3.2-5.5426" fill="none"/><path d="m45.2 270h9.6" fill="none" stroke-width="2"/><path d="m50 265.2v9.6" fill="none" stroke-width="2"/><path d="m70 270h6.4" fill="none"/><path d="m70 270 3.2 5.5426" fill="none"/><path d="m70 270-3.2 5.5426" fill="none"/><path d="m70 270h-6.4" fill="none"/><path d="m70 270-3.2-5.5426" fill="none"/><path d="m70 270 3.2-5.5426" fill="none"/><path d="m85.2 270h9.6" fill="none" stroke-width="2"/><path d="m90 265.2v9.6" fill="none" stroke-width="2"/><path d="m105.2 270h9.6" fill="none" stroke-width="2"/><path d="m110 265.2v9.6" fill="none" stroke-width="2"/><path d="m125.2 270h9.6" fill="none" stroke-width="2"/><path d="m130 265.2v9.6" fill="none" stroke-width="2"/><path d="m145.2 270h9.6" fill="none" stroke-width="2"/><path d="m150 265.2v9.6" fill="none" stroke-width="2"/><circle cx="170" cy="270" r="6.4" stroke="none"/><circle cx="190" cy="270" r="6.4" stroke="none"/><circle cx="210" cy="270" r="6.4" stroke="none"/><path d="m225.2 270h9.6" fill="none" stroke-width="2"/><path d="m230 265.2v9.6" fill="none" stroke-width="2"/><path d="m245.2 270h9.6" fill="none" stroke-width="2"/><path d="m250 265.2v9.6" fill="none" stroke-width="2"/><path d="m265.2 270h9.6" fill="none" stroke-width="2"/><path d="m270 265.2v9.6" fill="none" stroke-width="2"/><path d="m285.2 270h9.6" fill="none" stroke-width="2"/><path d="m290 265.2v9.6" fill="none" stroke-width="2"/><path d="m305.2 270h9.6" fill="none" stroke-width="2"/><path d="m310 265.2v9.6" fill="none" stroke-width="2"/><path d="m325.2 270h9.6" fill="none" stroke-width="2"/><path d="m330 265.2v9.6" fill="none" stroke-width="2"/><path d="m345.2 270h9.6" fill="none" stroke-width="2"/><path d="m350 265.2v9.6" fill="none" stroke-width="2"/><path d="m365.2 270h9.6" fill="none" stroke-width="2"/><path d="m370 265.2v9.6" fill="none" stroke-width="2"/><path d="m390 270h6.4" fill="none"/><path d="m390 270 3.2 5.5426" fill="none"/><path d="m390 270-3.2 5.5426" fill="none"/><path d="m390 270h-6.4" fill="none"/><path d="m390 270-3.2-5.5426" fill="none"/><path d="m390 270 3.2-5.5426" fill="none"/><path d="m405.2 270h9.6" fill="none" stroke-width="2"/><path d="m410 265.2v9.6" fill="none" stroke-width="2"/><path d="m430 270h6.4" fill="none"/><path d="m430 270 3.2 5.5426" fill="none"/><path d="m430 270-3.2 5.5426" fill="none"/><path d="m430 270h-6.4" fill="none"/><path d="m430 270-3.2-5.5426" fill="none"/><path d="m430 270 3.2-5.5426" fill="none"/><path d="m445.2 270h9.6" fill="none" stroke-width="2"/><path d="m450 265.2v9.6" fill="none" stroke-width="2"/><path d="m25.2 290h9.6" fill="none" stroke-width="2"/><path d="m30 285.2v9.6" fill="none" stroke-width="2"/><path d="m50 290h6.4" fill="none"/><path d="m50 290 3.2 5.5426" fill="none"/><path d="m50 290-3.2 5.5426" fill="none"/><path d="m50 290h-6.4" fill="none"/><path d="m50 290-3.2-5.5426" fill="none"/><path d="m50 290 3.2-5.5426" fill="none"/><path d="m65.2 290h9.6" fill="none" stroke-width="2"/><path d="m70 285.2v9.6" fill="none" stroke-width="2"/><path d="m90 290h6.4" fill="none"/><path d="m90 290 3.2 5.5426" fill="none"/><path d="m90 290-3.2 5.5426" fill="none"/><path d="m90 290h-6.4" fill="none"/><path d="m90 290-3.2-5.5426" fill="none"/><path d="m90 290 3.2-5.5426" fill="none"/><path d="m105.2 290h9.6" fill="none" stroke-width="2"/><path d="m110 285.2v9.6" fill="none" stroke-width="2"/><path d="m125.2 290h9.6" fill="none" stroke-width="2"/><path d="m130 285.2v9.6" fill="none" stroke-width="2"/><path d="m145.2 290h9.6" fill="none" stroke-width="2"/><path d="m150 285.2v9.6" fill="none" stroke-width="2"/><path d="m165.2 290h9.6" fill="none" stroke-width="2"/><path d="m170 285.2v9.6" fill="none" stroke-width="2"/><circle cx="190" cy="290" r="6.4" stroke="none"/><circle cx="210" cy="290" r="6.4" stroke="none"/><circle cx="230" cy="290" r="6.4" stroke="none"/><circle cx="250" cy="290" r="6.4" stroke="none"/><path d="m265.2 290h9.6" fill="none" stroke-width="2"/><path d="m270 285.2v9.6" fill="none" stroke-width="2"/><path d="m285.2 290h9.6" fill="none" stroke-width="2"/><path d="m290 285.2v9.6" fill="none" stroke-width="2"/><path d="m305.2 290h9.6" fill="none" stroke-width="2"/><path d="m310 285.2v9.6" fill="none" stroke-width="2"/><path d="m325.2 290h9.6" fill="none" stroke-width="2"/><path d="m330 285.2v9.6" fill="none" stroke-width="2"/><path d="m345.2 290h9.6" fill="none" stroke-width="2"/><path d="m350 285.2v9.6" fill="none" stroke-width="2"/><path d="m370 290h6.4" fill="none"/><path d="m370 290 3.2 5.5426" fill="none"/><path d="m370 290-3.2 5.5426" fill="none"/><path d="m370 290h-6.4" fill="none"/><path d="m370 290-3.2-5.5426" fill="none"/><path d="m370 290 3.2-5.5426" fill="none"/><path d="m385.2 290h9.6" fill="none" stroke-width="2"/><path d="m390 285.2v9.6" fill="none" stroke-width="2"/><path d="m410 290h6.4" fill="none"/><path d="m410 290 3.2 5.5426" fill="none"/><path d="m410 290-3.2 5.5426" fill="none"/><path d="m410 290h-6.4" fill="none"/><path d="m410 290-3.2-5.5426" fill="none"/><path d="m410 290 3.2-5.5426" fill="none"/><path d="m425.2 290h9.6" fill="none" stroke-width="2"/><path d="m430 285.2v9.6" fill="none" stroke-width="2"/><path d="m450 290h6.4" fill="none"/><path d="m450 290 3.2 5.5426" fill="none"/><path d="m450 290-3.2 5.5426" fill="none"/><path d="m450 290h-6.4" fill="none"/><path d="m450 290-3.2-5.5426" fill="none"/><path d="m450 290 3.2-5.5426" fill="none"/><path d="m30 310h6.4" fill="none"/><path d="m30 310 3.2 5.5426" fill="none"/><path d="m30 310-3.2 5.5426" fill="none"/><path d="m30 310h-6.4" fill="none"/><path d="m30 310-3.2-5.5426" fill="none"/><path d="m30 310 3.2-5.5426" fill="none"/><path d="m45.2 310h9.6" fill="none" stroke-width="2"/><path d="m50 305.2v9.6" fill="none" stroke-width="2"/><path d="m70 310h6.4" fill="none"/><path d="m70 310 3.2 5.5426" fill="none"/><path d="m70 310-3.2 5.5426" fill="none"/><path d="m70 310h-6.4" fill="none"/><path d="m70 310-3.2-5.5426" fill="none"/><path d="m70 310 3.2-5.5426" fill="none"/><path d="m85.2 310h9.6" fill="none" stroke-width="2"/><path d="m90 305.2v9.6" fill="none" stroke-width="2"/><path d="m110 310h6.4" fill="none"/><path d="m110 310 3.2 5.5426" fill="none"/><path d="m110 310-3.2 5.5426" fill="none"/><path d="m110 310h-6.4" fill="none"/><path d="m110 310-3.2-5.5426" fill="none"/><path d="m110 310 3.2-5.5426" fill="none"/><path d="m125.2 310h9.6" fill="none" stroke-width="2"/><path d="m130 305.2v9.6" fill="none" stroke-width="2"/><path d="m145.2 310h9.6" fill="none" stroke-width="2"/><path d="m150 305.2v9.6" fill="none" stroke-width="2"/><path d="m165.2 310h9.6" fill="none" stroke-width="2"/><path d="m170 305.2v9.6" fill="none" stroke-width="2"/><path d="m185.2 310h9.6" fill="none" stroke-width="2"/><path d="m190 305.2v9.6" fill="none" stroke-width="2"/><path d="m205.2 310h9.6" fill="none" stroke-width="2"/><path d="m210 305.2v9.6" fill="none" stroke-width="2"/><circle cx="230" cy="310" r="6.4" stroke="none"/><circle cx="250" cy="310" r="6.4" stroke="none"/><circle cx="270" cy="310" r="6.4" stroke="none"/><circle cx="290" cy="310" r="6.4" stroke="none"/><path d="m310 310h6.4" fill="none"/><path d="m310 310 3.2 5.5426" fill="none"/><path d="m310 310-3.2 5.5426" fill="none"/><path d="m310 310h-6.4" fill="none"/><path d="m310 310-3.2-5.5426" fill="none"/><path d="m310 310 3.2-5.5426" fill="none"/><path d="m325.2 310h9.6" fill="none" stroke-width="2"/><path d="m330 305.2v9.6" fill="none" stroke-width="2"/><path d="m350 310h6.4" fill="none"/><path d="m350 310 3.2 5.5426" fill="none"/><path d="m350 310-3.2 5.5426" fill="none"/><path d="m350 310h-6.4" fill="none"/><path d="m350 310-3.2-5.5426" fill="none"/><path d="m350 310 3.2-5.5426" fill="none"/><path d="m365.2 310h9.6" fill="none" stroke-width="2"/><path d="m370 305.2v9.6" fill="none" stroke-width="2"/><path d="m390 310h6.4" fill="none"/><path d="m390 310 3.2 5.5426" fill="none"/><path d="m390 310-3.2 5.5426" fill="none"/><path d="m390 310h-6.4" fill="none"/><path d="m390 310-3.2-5.5426" fill="none"/><path d="m390 310 3.2-5.5426" fill="none"/><path d="m405.2 310h9.6" fill="none" stroke-width="2"/><path d="m410 305.2v9.6" fill="none" stroke-width="2"/><circle cx="430" cy="310" r="6.4" stroke="none"/><circle cx="50" cy="330" r="6.4" stroke="none"/><path d="m65.2 330h9.6" fill="none" stroke-width="2"/><path d="m70 325.2v9.6" fill="none" stroke-width="2"/><path d="m90 330h6.4" fill="none"/><path d="m90 330 3.2 5.5426" fill="none"/><path d="m90 330-3.2 5.5426" fill="none"/><path d="m90 330h-6.4" fill="none"/><path d="m90 330-3.2-5.5426" fill="none"/><path d="m90 330 3.2-5.5426" fill="none"/><path d="m105.2 330h9.6" fill="none" stroke-width="2"/><path d="m110 325.2v9.6" fill="none" stroke-width="2"/><path d="m130 330h6.4" fill="none"/><path d="m130 330 3.2 5.5426" fill="none"/><path d="m130 330-3.2 5.5426" fill="none"/><path d="m130 330h-6.4" fill="none"/><path d="m130 330-3.2-5.5426" fill="none"/><path d="m130 330 3.2-5.5426" fill="none"/><path d="m145.2 330h9.6" fill="none" stroke-width="2"/><path d="m150 325.2v9.6" fill="none" stroke-width="2"/><path d="m170 330h6.4" fill="none"/><path d="m170 330 3.2 5.5426" fill="none"/><path d="m170 330-3.2 5.5426" fill="none"/><path d="m170 330h-6.4" fill="none"/><path d="m170 330-3.2-5.5426" fill="none"/><path d="m170 330 3.2-5.5426" fill="none"/><path d="m185.2 330h9.6" fill="none" stroke-width="2"/><path d="m190 325.2v9.6" fill="none" stroke-width="2"/><path d="m210 330h6.4" fill="none"/><path d="m210 330 3.2 5.5426" fill="none"/><path d="m210 330-3.2 5.5426" fill="none"/><path d="m210 330h-6.4" fill="none"/><path d="m210 330-3.2-5.5426" fill="none"/><path d="m210 330 3.2-5.5426" fill="none"/><path d="m225.2 330h9.6" fill="none" stroke-width="2"/><path d="m230 325.2v9.6" fill="none" stroke-width="2"/><path d="m250 330h6.4" fill="none"/><path d="m250 330 3.2 5.5426" fill="none"/><path d="m250 330-3.2 5.5426" fill="none"/><path d="m250 330h-6.4" fill="none"/><path d="m250 330-3.2-5.5426" fill="none"/><path d="m250 330 3.2-5.5426" fill="none"/><path d="m265.2 330h9.6" fill="none" stroke-width="2"/><path d="m270 325.2v9.6" fill="none" stroke-width="2"/><path d="m290 330h6.4" fill="none"/><path d="m290 330 3.2 5.5426" fill="none"/><path d="m290 330-3.2 5.5426" fill="none"/><path d="m290 330h-6.4" fill="none"/><path d="m290 330-3.2-5.5426" fill="none"/><path d="m290 330 3.2-5.5426" fill="none"/><circle cx="310" cy="330" r="6.4" stroke="none"/><circle cx="330" cy="330" r="6.4" stroke="none"/><circle cx="350" cy="330" r="6.4" stroke="none"/><path d="m370 330h6.4" fill="none"/><path d="m370 330 3.2 5.5426" fill="none"/><path d="m370 330-3.2 5.5426" fill="none"/><path d="m370 330h-6.4" fill="none"/><path d="m370 330-3.2-5.5426" fill="none"/><path d="m370 330 3.2-5.5426" fill="none"/><path d="m385.2 330h9.6" fill="none" stroke-width="2"/><path d="m390 325.2v9.6" fill="none" stroke-width="2"/><path d="m410 330h6.4" fill="none"/><path d="m410 330 3.2 5.5426" fill="none"/><path d="m410 330-3.2 5.5426" fill="none"/><path d="m410 330h-6.4" fill="none"/><path d="m410 330-3.2-5.5426" fill="none"/><path d="m410 330 3.2-5.5426" fill="none"/><path d="m425.2 330h9.6" fill="none" stroke-width="2"/><path d="m430 325.2v9.6" fill="none" stroke-width="2"/><circle cx="70" cy="350" r="6.4" stroke="none"/><circle cx="90" cy="350" r="6.4" stroke="none"/><path d="m110 350h6.4" fill="none"/><path d="m110 350 3.2 5.5426" fill="none"/><path d="m110 350-3.2 5.5426" fill="none"/><path d="m110 350h-6.4" fill="none"/><path d="m110 350-3.2-5.5426" fill="none"/><path d="m110 350 3.2-5.5426" fill="none"/><path d="m125.2 350h9.6" fill="none" stroke-width="2"/><path d="m130 345.2v9.6" fill="none" stroke-width="2"/><path d="m150 350h6.4" fill="none"/><path d="m150 350 3.2 5.5426" fill="none"/><path d="m150 350-3.2 5.5426" fill="none"/><path d="m150 350h-6.4" fill="none"/><path d="m150 350-3.2-5.5426" fill="none"/><path d="m150 350 3.2-5.5426" fill="none"/><path d="m165.2 350h9.6" fill="none" stroke-width="2"/><path d="m170 345.2v9.6" fill="none" stroke-width="2"/><path d="m190 350h6.4" fill="none"/><path d="m190 350 3.2 5.5426" fill="none"/><path d="m190 350-3.2 5.5426" fill="none"/><path d="m190 350h-6.4" fill="none"/><path d="m190 350-3.2-5.5426" fill="none"/><path d="m190 350 3.2-5.5426" fill="none"/><path d="m205.2 350h9.6" fill="none" stroke-width="2"/><path d="m210 345.2v9.6" fill="none" stroke-width="2"/><path d="m230 350h6.4" fill="none"/><path d="m230 350 3.2 5.5426" fill="none"/><path d="m230 350-3.2 5.5426" fill="none"/><path d="m230 350h-6.4" fill="none"/><path d="m230 350-3.2-5.5426" fill="none"/><path d="m230 350 3.2-5.5426" fill="none"/><path d="m245.2 350h9.6" fill="none" stroke-width="2"/><path d="m250 345.2v9.6" fill="none" stroke-width="2"/><path d="m270 350h6.4" fill="none"/><path d="m270 350 3.2 5.5426" fill="none"/><path d="m270 350-3.2 5.5426" fill="none"/><path d="m270 350h-6.4" fill="none"/><path d="m270 350-3.2-5.5426" fill="none"/><path d="m270 350 3.2-5.5426" fill="none"/><path d="m285.2 350h9.6" fill="none" stroke-width="2"/><path d="m290 345.2v9.6" fill="none" stroke-width="2"/><path d="m310 350h6.4" fill="none"/><path d="m310 350 3.2 5.5426" fill="none"/><path d="m310 350-3.2 5.5426" fill="none"/><path d="m310 350h-6.4" fill="none"/><path d="m310 350-3.2-5.5426" fill="none"/><path d="m310 350 3.2-5.5426" fill="none"/><path d="m325.2 350h9.6" fill="none" stroke-width="2"/><path d="m330 345.2v9.6" fill="none" stroke-width="2"/><circle cx="350" cy="350" r="6.4" stroke="none"/><circle cx="370" cy="350" r="6.4" stroke="none"/><path d="m390 350h6.4" fill="none"/><path d="m390 350 3.2 5.5426" fill="none"/><path d="m390 350-3.2 5.5426" fill="none"/><path d="m390 350h-6.4" fill="none"/><path d="m390 350-3.2-5.5426" fill="none"/><path d="m390 350 3.2-5.5426" fill="none"/><path d="m405.2 350h9.6" fill="none" stroke-width="2"/><path d="m410 345.2v9.6" fill="none" stroke-width="2"/><circle cx="430" cy="350" r="6.4" stroke="none"/><path d="m65.2 370h9.6" fill="none" stroke-width="2"/><path d="m70 365.2v9.6" fill="none" stroke-width="2"/><path d="m90 370h6.4" fill="none"/><path d="m90 370 3.2 5.5426" fill="none"/><path d="m90 370-3.2 5.5426" fill="none"/><path d="m90 370h-6.4" fill="none"/><path d="m90 370-3.2-5.5426" fill="none"/><path d="m90 370 3.2-5.5426" fill="none"/><path d="m105.2 370h9.6" fill="none" stroke-width="2"/><path d="m110 365.2v9.6" fill="none" stroke-width="2"/><path d="m125.2 370h9.6" fill="none" stroke-width="2"/><path d="m130 365.2v9.6" fill="none" stroke-width="2"/><path d="m145.2 370h9.6" fill="none" stroke-width="2"/><path d="m150 365.2v9.6" fill="none" stroke-width="2"/><path d="m170 370h6.4" fill="none"/><path d="m170 370 3.2 5.5426" fill="none"/><path d="m170 370-3.2 5.5426" fill="none"/><path d="m170 370h-6.4" fill="none"/><path d="m170 370-3.2-5.5426" fill="none"/><path d="m170 370 3.2-5.5426" fill="none"/><path d="m185.2 370h9.6" fill="none" stroke-width="2"/><path d="m190 365.2v9.6" fill="none" stroke-width="2"/><path d="m205.2 370h9.6" fill="none" stroke-width="2"/><path d="m210 365.2v9.6" fill="none" stroke-width="2"/><path d="m225.2 370h9.6" fill="none" stroke-width="2"/><path d="m230 365.2v9.6" fill="none" stroke-width="2"/><path d="m250 370h6.4" fill="none"/><path d="m250 370 3.2 5.5426" fill="none"/><path d="m250 370-3.2 5.5426" fill="none"/><path d="m250 370h-6.4" fill="none"/><path d="m250 370-3.2-5.5426" fill="none"/><path d="m250 370 3.2-5.5426" fill="none"/><path d="m265.2 370h9.6" fill="none" stroke-width="2"/><path d="m270 365.2v9.6" fill="none" stroke-width="2"/><circle cx="290" cy="370" r="6.4" stroke="none"/><circle cx="310" cy="370" r="6.4" stroke="none"/><circle cx="330" cy="370" r="6.4" stroke="none"/><path d="m345.2 370h9.6" fill="none" stroke-width="2"/><path d="m350 365.2v9.6" fill="none" stroke-width="2"/><path d="m365.2 370h9.6" fill="none" stroke-width="2"/><path d="m370 365.2v9.6" fill="none" stroke-width="2"/><path d="m385.2 370h9.6" fill="none" stroke-width="2"/><path d="m390 365.2v9.6" fill="none" stroke-width="2"/><circle cx="410" cy="370" r="6.4" stroke="none"/><path d="m70 390h6.4" fill="none"/><path d="m70 390 3.2 5.5426" fill="none"/><path d="m70 390-3.2 5.5426" fill="none"/><path d="m70 390h-6.4" fill="none"/><path d="m70 390-3.2-5.5426" fill="none"/><path d="m70 390 3.2-5.5426" fill="none"/><path d="m85.2 390h9.6" fill="none" stroke-width="2"/><path d="m90 385.2v9.6" fill="none" stroke-width="2"/><path d="m110 390h6.4" fill="none"/><path d="m110 390 3.2 5.5426" fill="none"/><path d="m110 390-3.2 5.5426" fill="none"/><path d="m110 390h-6.4" fill="none"/><path d="m110 390-3.2-5.5426" fill="none"/><path d="m110 390 3.2-5.5426" fill="none"/><path d="m125.2 390h9.6" fill="none" stroke-width="2"/><path d="m130 385.2v9.6" fill="none" stroke-width="2"/><path d="m150 390h6.4" fill="none"/><path d="m150 390 3.2 5.5426" fill="none"/><path d="m150 390-3.2 5.5426" fill="none"/><path d="m150 390h-6.4" fill="none"/><path d="m150 390-3.2-5.5426" fill="none"/><path d="m150 390 3.2-5.5426" fill="none"/><path d="m165.2 390h9.6" fill="none" stroke-width="2"/><path d="m170 385.2v9.6" fill="none" stroke-width="2"/><path d="m190 390h6.4" fill="none"/><path d="m190 390 3.2 5.5426" fill="none"/><path d="m190 390-3.2 5.5426" fill="none"/><path d="m190 390h-6.4" fill="none"/><path d="m190 390-3.2-5.5426" fill="none"/><path d="m190 390 3.2-5.5426" fill="none"/><path d="m205.2 390h9.6" fill="none" stroke-width="2"/><path d="m210 385.2v9.6" fill="none" stroke-width="2"/><path d="m230 390h6.4" fill="none"/><path d="m230 390 3.2 5.5426" fill="none"/><path d="m230 390-3.2 5.5426" fill="none"/><path d="m230 390h-6.4" fill="none"/><path d="m230 390-3.2-5.5426" fill="none"/><path d="m230 390 3.2-5.5426" fill="none"/><path d="m245.2 390h9.6" fill="none" stroke-width="2"/><path d="m250 385.2v9.6" fill="none" stroke-width="2"/><path d="m270 390h6.4" fill="none"/><path d="m270 390 3.2 5.5426" fill="none"/><path d="m270 390-3.2 5.5426" fill="none"/><path d="m270 390h-6.4" fill="none"/><path d="m270 390-3.2-5.5426" fill="none"/><path d="m270 390 3.2-5.5426" fill="none"/><path d="m285.2 390h9.6" fill="none" stroke-width="2"/><path d="m290 385.2v9.6" fill="none" stroke-width="2"/><path d="m310 390h6.4" fill="none"/><path d="m310 390 3.2 5.5426" fill="none"/><path d="m310 390-3.2 5.5426" fill="none"/><path d="m310 390h-6.4" fill="none"/><path d="m310 390-3.2-5.5426" fill="none"/><path d="m310 390 3.2-5.5426" fill="none"/><path d="m325.2 390h9.6" fill="none" stroke-width="2"/><path d="m330 385.2v9.6" fill="none" stroke-width="2"/><path d="m350 390h6.4" fill="none"/><path d="m350 390 3.2 5.5426" fill="none"/><path d="m350 390-3.2 5.5426" fill="none"/><path d="m350 390h-6.4" fill="none"/><path d="m350 390-3.2-5.5426" fill="none"/><path d="m350 390 3.2-5.5426" fill="none"/><path d="m365.2 390h9.6" fill="none" stroke-width="2"/><path d="m370 385.2v9.6" fill="none" stroke-width="2"/><path d="m390 390h6.4" fill="none"/><path d="m390 390 3.2 5.5426" fill="none"/><path d="m390 390-3.2 5.5426" fill="none"/><path d="m390 390h-6.4" fill="none"/><path d="m390 390-3.2-5.5426" fill="none"/><path d="m390 390 3.2-5.5426" fill="none"/><path d="m405.2 390h9.6" fill="none" stroke-width="2"/><path d="m410 385.2v9.6" fill="none" stroke-width="2"/><path d="m430 390h6.4" fill="none"/><path d="m430 390 3.2 5.5426" fill="none"/><path d="m430 390-3.2 5.5426" fill="none"/><path d="m430 390h-6.4" fill="none"/><path d="m430 390-3.2-5.5426" fill="none"/><path d="m430 390 3.2-5.5426" fill="none"/><circle cx="90" cy="410" r="6.4" stroke="none"/><circle cx="110" cy="410" r="6.4" stroke="none"/><circle cx="130" cy="410" r="6.4" stroke="none"/><path d="m145.2 410h9.6" fill="none" stroke-width="2"/><path d="m150 405.2v9.6" fill="none" stroke-width="2"/><path d="m170 410h6.4" fill="none"/><path d="m170 410 3.2 5.5426" fill="none"/><path d="m170 410-3.2 5.5426" fill="none"/><path d="m170 410h-6.4" fill="none"/><path d="m170 410-3.2-5.5426" fill="none"/><path d="m170 410 3.2-5.5426" fill="none"/><path d="m185.2 410h9.6" fill="none" stroke-width="2"/><path d="m190 405.2v9.6" fill="none" stroke-width="2"/><path d="m210 410h6.4" fill="none"/><path d="m210 410 3.2 5.5426" fill="none"/><path d="m210 410-3.2 5.5426" fill="none"/><path d="m210 410h-6.4" fill="none"/><path d="m210 410-3.2-5.5426" fill="none"/><path d="m210 410 3.2-5.5426" fill="none"/><circle cx="230" cy="410" r="6.4" stroke="none"/><circle cx="250" cy="410" r="6.4" stroke="none"/><circle cx="270" cy="410" r="6.4" stroke="none"/><circle cx="290" cy="410" r="6.4" stroke="none"/><path d="m305.2 410h9.6" fill="none" stroke-width="2"/><path d="m310 405.2v9.6" fill="none" stroke-width="2"/><path d="m330 410h6.4" fill="none"/><path d="m330 410 3.2 5.5426" fill="none"/><path d="m330 410-3.2 5.5426" fill="none"/><path d="m330 410h-6.4" fill="none"/><path d="m330 410-3.2-5.5426" fill="none"/><path d="m330 410 3.2-5.5426" fill="none"/><path d="m345.2 410h9.6" fill="none" stroke-width="2"/><path d="m350 405.2v9.6" fill="none" stroke-width="2"/><path d="m370 410h6.4" fill="none"/><path d="m370 410 3.2 5.5426" fill="none"/><path d="m370 410-3.2 5.5426" fill="none"/><path d="m370 410h-6.4" fill="none"/><path d="m370 410-3.2-5.5426" fill="none"/><path d="m370 410 3.2-5.5426" fill="none"/><path d="m385.2 410h9.6" fill="none" stroke-width="2"/><path d="m390 405.2v9.6" fill="none" stroke-width="2"/><path d="m410 410h6.4" fill="none"/><path d="m410 410 3.2 5.5426" fill="none"/><path d="m410 410-3.2 5.5426" fill="none"/><path d="m410 410h-6.4" fill="none"/><path d="m410 410-3.2-5.5426" fill="none"/><path d="m410 410 3.2-5.5426" fill="none"/><path d="m425.2 410h9.6" fill="none" stroke-width="2"/><path d="m430 405.2v9.6" fill="none" stroke-width="2"/><path d="m450 410h6.4" fill="none"/><path d="m450 410 3.2 5.5426" fill="none"/><path d="m450 410-3.2 5.5426" fill="none"/><path d="m450 410h-6.4" fill="none"/><path d="m450 410-3.2-5.5426" fill="none"/><path d="m450 410 3.2-5.5426" fill="none"/><circle cx="150" cy="430" r="6.4" stroke="none"/><circle cx="170" cy="430" r="6.4" stroke="none"/><circle cx="190" cy="430" r="6.4" stroke="none"/><circle cx="210" cy="430" r="6.4" stroke="none"/><circle cx="310" cy="430" r="6.4" stroke="none"/><circle cx="330" cy="430" r="6.4" stroke="none"/><circle cx="350" cy="430" r="6.4" stroke="none"/><path d="m365.2 430h9.6" fill="none" stroke-width="2"/><path d="m370 425.2v9.6" fill="none" stroke-width="2"/><path d="m390 430h6.4" fill="none"/><path d="m390 430 3.2 5.5426" fill="none"/><path d="m390 430-3.2 5.5426" fill="none"/><path d="m390 430h-6.4" fill="none"/><path d="m390 430-3.2-5.5426" fill="none"/><path d="m390 430 3.2-5.5426" fill="none"/><path d="m405.2 430h9.6" fill="none" stroke-width="2"/><path d="m410 425.2v9.6" fill="none" stroke-width="2"/><path d="m430 430h6.4" fill="none"/><path d="m430 430 3.2 5.5426" fill="none"/><path d="m430 430-3.2 5.5426" fill="none"/><path d="m430 430h-6.4" fill="none"/><path d="m430 430-3.2-5.5426" fill="none"/><path d="m430 430 3.2-5.5426" fill="none"/><path d="m445.2 430h9.6" fill="none" stroke-width="2"/><path d="m450 425.2v9.6" fill="none" stroke-width="2"/><circle cx="370" cy="450" r="6.4" stroke="none"/><circle cx="390" cy="450" r="6.4" stroke="none"/><circle cx="410" cy="450" r="6.4" stroke="none"/><circle cx="430" cy="450" r="6.4" stroke="none"/><path d="m0 0v480" fill="none" stroke="#1c30d0" stroke-width="2"/><path d="m20 0v480" fill="none" stroke="#1c30d0" stroke-width="1"/><path d="m40 0v480" fill="none" stroke="#1c30d0" stroke-width="1"/><path d="m60 0v480" fill="none" stroke="#1c30d0" stroke-width="1"/><path d="m80 0v480" fill="none" stroke="#1c30d0" stroke-width="1"/><path d="m100 0v480" fill="none" stroke="#1c30d0" stroke-width="1"/><path d="m120 0v480" fill="none" stroke="#1c30d0" stroke-width="1"/><path d="m140 0v480" fill="none" stroke="#1c30d0" stroke-width="1"/><path d="m160 0v480" fill="none" stroke="#1c30d0" stroke-width="1"/><path d="m180 0v480" fill="none" stroke="#1c30d0" stroke-width="1"/><path d="m200 0v480" fill="none" stroke="#1c30d0" stroke-width="1"/><path d="m220 0v480" fill="none" stroke="#1c30d0" stroke-width="1"/><path d="m240 0v480" fill="none" stroke="#1c30d0" stroke-width="1"/><path d="m260 0v480" fill="none" stroke="#1c30d0" stroke-width="1"/><path d="m280 0v480" fill="none" stroke="#1c30d0" stroke-width="1"/><path d="m300 0v480" fill="none" stroke="#1c30d0" stroke-width="1"/><path d="m320 0v480" fill="none" stroke="#1c30d0" stroke-width="1"/><path d="m340 0v480" fill="none" stroke="#1c30d0" stroke-width="1"/><path d="m360 0v480" fill="none" stroke="#1c30d0" stroke-width="1"/><path d="m380 0v480" fill="none" stroke="#1c30d0" stroke-width="1"/><path d="m400 0v480" fill="none" stroke="#1c30d0" stroke-width="1"/><path d="m420 0v480" fill="none" stroke="#1c30d0" stroke-width="1"/><path d="m440 0v480" fill="none" stroke="#1c30d0" stroke-width="1"/><path d="m460 0v480" fill="none" stroke="#1c30d0" stroke-width="1"/><path d="m480 0v480" fill="none" stroke="#1c30d0" stroke-width="2"/><path d="m0 0h480" fill="none" stroke="#1c30d0" stroke-width="2"/><path d="m0 20h480" fill="none" stroke="#1c30d0" stroke-width="1"/><path d="m0 40h480" fill="none" stroke="#1c30d0" stroke-width="1"/><path d="m0 60h480" fill="none" stroke="#1c30d0" stroke-width="1"/><path d="m0 80h480" fill="none" stroke="#1c30d0" stroke-width="1"/><path d="m0 100h480" fill="none" stroke="#1c30d0" stroke-width="1"/><path d="m0 120h480" fill="none" stroke="#1c30d0" stroke-width="1"/><path d="m0 140h480" fill="none" stroke="#1c30d0" stroke-width="1"/><path d="m0 160h480" fill="none" stroke="#1c30d0" stroke-width="1"/><path d="m0 180h480" fill="none" stroke="#1c30d0" stroke-width="1"/><path d="m0 200h480" fill="none" stroke="#1c30d0" stroke-width="1"/><path d="m0 220h480" fill="none" stroke="#1c30d0" stroke-width="1"/><path d="m0 240h480" fill="none" stroke="#1c30d0" stroke-width="1"/><path d="m0 260h480" fill="none" stroke="#1c30d0" stroke-width="1"/><path d="m0 280h480" fill="none" stroke="#1c30d0" stroke-width="1"/><path d="m0 300h480" fill="none" stroke="#1c30d0" stroke-width="1"/><path d="m0 320h480" fill="none" stroke="#1c30d0" stroke-width="1"/><path d="m0 340h480" fill="none" stroke="#1c30d0" stroke-width="1"/><path d="m0 360h480" fill="none" stroke="#1c30d0" stroke-width="1"/><path d="m0 380h480" fill="none" stroke="#1c30d0" stroke-width="1"/><path d="m0 400h480" fill="none" stroke="#1c30d0" stroke-width="1"/><path d="m0 420h480" fill="none" stroke="#1c30d0" stroke-width="1"/><path d="m0 440h480" fill="none" stroke="#1c30d0" stroke-width="1"/><path d="m0 460h480" fill="none" stroke="#1c30d0" stroke-width="1"/><path d="m0 480h480" fill="none" stroke="#1c30d0" stroke-width="2"/></g></g></svg>