<svg xmlns:xlink="http://www.w3.org/1999/xlink" style="fill-opacity:1;color-rendering:auto;color-interpolation:auto;text-rendering:auto;stroke:#000;stroke-linecap:square;stroke-miterlimit:10;shape-rendering:auto;stroke-opacity:1;fill:#000;stroke-dasharray:none;font-weight:400;stroke-width:1;font-family:&quot;Dialog&quot;;font-style:normal;stroke-linejoin:miter;font-size:12px;stroke-dashoffset:0;image-rendering:auto" width="480" height="480" xmlns="http://www.w3.org/2000/svg"><defs/><g style="stroke-linecap:round;stroke-width:2"><path style="fill:none" d="M203.6 23.6h12.8v12.8h-12.8z"/></g><g style="stroke-linecap:round;stroke-width:2"><path style="fill:none" d="M223.6 23.6h12.8v12.8h-12.8zm20 0h12.8v12.8h-12.8zm20 0h12.8v12.8h-12.8zm20 0h12.8v12.8h-12.8zm-120 20h12.8v12.8h-12.8zm20 0h12.8v12.8h-12.8z"/><path style="fill:none;stroke-width:1.5" d="M210 50h6.4m-6.4 0 3.2 5.543M210 50l-3.2 5.543M210 50h-6.4m6.4 0-3.2-5.543M210 50l3.2-5.543M230 50h6.4m-6.4 0 3.2 5.543M230 50l-3.2 5.543M230 50h-6.4m6.4 0-3.2-5.543M230 50l3.2-5.543M250 50h6.4m-6.4 0 3.2 5.543M250 50l-3.2 5.543M250 50h-6.4m6.4 0-3.2-5.543M250 50l3.2-5.543M270 50h6.4m-6.4 0 3.2 5.543M270 50l-3.2 5.543M270 50h-6.4m6.4 0-3.2-5.543M270 50l3.2-5.543M290 50h6.4m-6.4 0 3.2 5.543M290 50l-3.2 5.543M290 50h-6.4m6.4 0-3.2-5.543M290 50l3.2-5.543"/><path style="fill:none" d="M303.6 43.6h12.8v12.8h-12.8zm20 0h12.8v12.8h-12.8zm-200 20h12.8v12.8h-12.8zm20 0h12.8v12.8h-12.8z"/><path style="fill:none;stroke-width:1.5" d="M170 70h6.4m-6.4 0 3.2 5.543M170 70l-3.2 5.543M170 70h-6.4m6.4 0-3.2-5.543M170 70l3.2-5.543M190 70h6.4m-6.4 0 3.2 5.543M190 70l-3.2 5.543M190 70h-6.4m6.4 0-3.2-5.543M190 70l3.2-5.543M210 70h6.4m-6.4 0 3.2 5.543M210 70l-3.2 5.543M210 70h-6.4m6.4 0-3.2-5.543M210 70l3.2-5.543M230 70h6.4m-6.4 0 3.2 5.543M230 70l-3.2 5.543M230 70h-6.4m6.4 0-3.2-5.543M230 70l3.2-5.543M250 70h6.4m-6.4 0 3.2 5.543M250 70l-3.2 5.543M250 70h-6.4m6.4 0-3.2-5.543M250 70l3.2-5.543M270 70h6.4m-6.4 0 3.2 5.543M270 70l-3.2 5.543M270 70h-6.4m6.4 0-3.2-5.543M270 70l3.2-5.543M290 70h6.4m-6.4 0 3.2 5.543M290 70l-3.2 5.543M290 70h-6.4m6.4 0-3.2-5.543M290 70l3.2-5.543M310 70h6.4m-6.4 0 3.2 5.543M310 70l-3.2 5.543M310 70h-6.4m6.4 0-3.2-5.543M310 70l3.2-5.543M330 70h6.4m-6.4 0 3.2 5.543M330 70l-3.2 5.543M330 70h-6.4m6.4 0-3.2-5.543M330 70l3.2-5.543"/><path style="fill:none" d="M343.6 63.6h12.8v12.8h-12.8zm20 0h12.8v12.8h-12.8zm-260 20h12.8v12.8h-12.8z"/><path style="fill:none;stroke-width:1.5" d="M130 90h6.4m-6.4 0 3.2 5.543M130 90l-3.2 5.543M130 90h-6.4m6.4 0-3.2-5.543M130 90l3.2-5.543M150 90h6.4m-6.4 0 3.2 5.543M150 90l-3.2 5.543M150 90h-6.4m6.4 0-3.2-5.543M150 90l3.2-5.543M170 90h6.4m-6.4 0 3.2 5.543M170 90l-3.2 5.543M170 90h-6.4m6.4 0-3.2-5.543M170 90l3.2-5.543M190 90h6.4m-6.4 0 3.2 5.543M190 90l-3.2 5.543M190 90h-6.4m6.4 0-3.2-5.543M190 90l3.2-5.543M210 90h6.4m-6.4 0 3.2 5.543M210 90l-3.2 5.543M210 90h-6.4m6.4 0-3.2-5.543M210 90l3.2-5.543M230 90h6.4m-6.4 0 3.2 5.543M230 90l-3.2 5.543M230 90h-6.4m6.4 0-3.2-5.543M230 90l3.2-5.543M250 90h6.4m-6.4 0 3.2 5.543M250 90l-3.2 5.543M250 90h-6.4m6.4 0-3.2-5.543M250 90l3.2-5.543M270 90h6.4m-6.4 0 3.2 5.543M270 90l-3.2 5.543M270 90h-6.4m6.4 0-3.2-5.543M270 90l3.2-5.543M290 90h6.4m-6.4 0 3.2 5.543M290 90l-3.2 5.543M290 90h-6.4m6.4 0-3.2-5.543M290 90l3.2-5.543M310 90h6.4m-6.4 0 3.2 5.543M310 90l-3.2 5.543M310 90h-6.4m6.4 0-3.2-5.543M310 90l3.2-5.543M330 90h6.4m-6.4 0 3.2 5.543M330 90l-3.2 5.543M330 90h-6.4m6.4 0-3.2-5.543M330 90l3.2-5.543M350 90h6.4m-6.4 0 3.2 5.543M350 90l-3.2 5.543M350 90h-6.4m6.4 0-3.2-5.543M350 90l3.2-5.543M370 90h6.4m-6.4 0 3.2 5.543M370 90l-3.2 5.543M370 90h-6.4m6.4 0-3.2-5.543M370 90l3.2-5.543"/><path style="fill:none" d="M383.6 83.6h12.8v12.8h-12.8zm-280 20h12.8v12.8h-12.8z"/><path style="fill:none;stroke-width:1.5" d="M130 110h6.4m-6.4 0 3.2 5.543M130 110l-3.2 5.543M130 110h-6.4m6.4 0-3.2-5.543M130 110l3.2-5.543M150 110h6.4m-6.4 0 3.2 5.543M150 110l-3.2 5.543M150 110h-6.4m6.4 0-3.2-5.543M150 110l3.2-5.543M170 110h6.4m-6.4 0 3.2 5.543M170 110l-3.2 5.543M170 110h-6.4m6.4 0-3.2-5.543M170 110l3.2-5.543M190 110h6.4m-6.4 0 3.2 5.543M190 110l-3.2 5.543M190 110h-6.4m6.4 0-3.2-5.543M190 110l3.2-5.543M210 110h6.4m-6.4 0 3.2 5.543M210 110l-3.2 5.543M210 110h-6.4m6.4 0-3.2-5.543M210 110l3.2-5.543M230 110h6.4m-6.4 0 3.2 5.543M230 110l-3.2 5.543M230 110h-6.4m6.4 0-3.2-5.543M230 110l3.2-5.543M250 110h6.4m-6.4 0 3.2 5.543M250 110l-3.2 5.543M250 110h-6.4m6.4 0-3.2-5.543M250 110l3.2-5.543M270 110h6.4m-6.4 0 3.2 5.543M270 110l-3.2 5.543M270 110h-6.4m6.4 0-3.2-5.543M270 110l3.2-5.543M290 110h6.4m-6.4 0 3.2 5.543M290 110l-3.2 5.543M290 110h-6.4m6.4 0-3.2-5.543M290 110l3.2-5.543M310 110h6.4m-6.4 0 3.2 5.543M310 110l-3.2 5.543M310 110h-6.4m6.4 0-3.2-5.543M310 110l3.2-5.543M330 110h6.4m-6.4 0 3.2 5.543M330 110l-3.2 5.543M330 110h-6.4m6.4 0-3.2-5.543M330 110l3.2-5.543M350 110h6.4m-6.4 0 3.2 5.543M350 110l-3.2 5.543M350 110h-6.4m6.4 0-3.2-5.543M350 110l3.2-5.543M370 110h6.4m-6.4 0 3.2 5.543M370 110l-3.2 5.543M370 110h-6.4m6.4 0-3.2-5.543M370 110l3.2-5.543"/><path style="fill:none" d="M383.6 103.6h12.8v12.8h-12.8zm-300 20h12.8v12.8H83.6z"/><path style="fill:none;stroke-width:1.5" d="M110 130h6.4m-6.4 0 3.2 5.543M110 130l-3.2 5.543M110 130h-6.4m6.4 0-3.2-5.543M110 130l3.2-5.543M130 130h6.4m-6.4 0 3.2 5.543M130 130l-3.2 5.543M130 130h-6.4m6.4 0-3.2-5.543M130 130l3.2-5.543M150 130h6.4m-6.4 0 3.2 5.543M150 130l-3.2 5.543M150 130h-6.4m6.4 0-3.2-5.543M150 130l3.2-5.543M170 130h6.4m-6.4 0 3.2 5.543M170 130l-3.2 5.543M170 130h-6.4m6.4 0-3.2-5.543M170 130l3.2-5.543M190 130h6.4m-6.4 0 3.2 5.543M190 130l-3.2 5.543M190 130h-6.4m6.4 0-3.2-5.543M190 130l3.2-5.543"/><path style="stroke-width:1;stroke:none" d="M203.6 123.6h12.8v12.8h-12.8zm20 0h12.8v12.8h-12.8z"/><path style="fill:none;stroke-width:1.5" d="M250 130h6.4m-6.4 0 3.2 5.543M250 130l-3.2 5.543M250 130h-6.4m6.4 0-3.2-5.543M250 130l3.2-5.543M270 130h6.4m-6.4 0 3.2 5.543M270 130l-3.2 5.543M270 130h-6.4m6.4 0-3.2-5.543M270 130l3.2-5.543M290 130h6.4m-6.4 0 3.2 5.543M290 130l-3.2 5.543M290 130h-6.4m6.4 0-3.2-5.543M290 130l3.2-5.543M310 130h6.4m-6.4 0 3.2 5.543M310 130l-3.2 5.543M310 130h-6.4m6.4 0-3.2-5.543M310 130l3.2-5.543M330 130h6.4m-6.4 0 3.2 5.543M330 130l-3.2 5.543M330 130h-6.4m6.4 0-3.2-5.543M330 130l3.2-5.543M350 130h6.4m-6.4 0 3.2 5.543M350 130l-3.2 5.543M350 130h-6.4m6.4 0-3.2-5.543M350 130l3.2-5.543M370 130h6.4m-6.4 0 3.2 5.543M370 130l-3.2 5.543M370 130h-6.4m6.4 0-3.2-5.543M370 130l3.2-5.543M390 130h6.4m-6.4 0 3.2 5.543M390 130l-3.2 5.543M390 130h-6.4m6.4 0-3.2-5.543M390 130l3.2-5.543"/><path style="fill:none" d="M403.6 123.6h12.8v12.8h-12.8zm-320 20h12.8v12.8H83.6z"/><path style="fill:none;stroke-width:1.5" d="M110 150h6.4m-6.4 0 3.2 5.543M110 150l-3.2 5.543M110 150h-6.4m6.4 0-3.2-5.543M110 150l3.2-5.543M130 150h6.4m-6.4 0 3.2 5.543M130 150l-3.2 5.543M130 150h-6.4m6.4 0-3.2-5.543M130 150l3.2-5.543M150 150h6.4m-6.4 0 3.2 5.543M150 150l-3.2 5.543M150 150h-6.4m6.4 0-3.2-5.543M150 150l3.2-5.543M170 150h6.4m-6.4 0 3.2 5.543M170 150l-3.2 5.543M170 150h-6.4m6.4 0-3.2-5.543M170 150l3.2-5.543"/><path style="stroke-width:1;stroke:none" d="M183.6 143.6h12.8v12.8h-12.8zm20 0h12.8v12.8h-12.8zm20 0h12.8v12.8h-12.8z"/><path style="fill:none;stroke-width:1.5" d="M250 150h6.4m-6.4 0 3.2 5.543M250 150l-3.2 5.543M250 150h-6.4m6.4 0-3.2-5.543M250 150l3.2-5.543M270 150h6.4m-6.4 0 3.2 5.543M270 150l-3.2 5.543M270 150h-6.4m6.4 0-3.2-5.543M270 150l3.2-5.543M290 150h6.4m-6.4 0 3.2 5.543M290 150l-3.2 5.543M290 150h-6.4m6.4 0-3.2-5.543M290 150l3.2-5.543M310 150h6.4m-6.4 0 3.2 5.543M310 150l-3.2 5.543M310 150h-6.4m6.4 0-3.2-5.543M310 150l3.2-5.543M330 150h6.4m-6.4 0 3.2 5.543M330 150l-3.2 5.543M330 150h-6.4m6.4 0-3.2-5.543M330 150l3.2-5.543M350 150h6.4m-6.4 0 3.2 5.543M350 150l-3.2 5.543M350 150h-6.4m6.4 0-3.2-5.543M350 150l3.2-5.543M370 150h6.4m-6.4 0 3.2 5.543M370 150l-3.2 5.543M370 150h-6.4m6.4 0-3.2-5.543M370 150l3.2-5.543M390 150h6.4m-6.4 0 3.2 5.543M390 150l-3.2 5.543M390 150h-6.4m6.4 0-3.2-5.543M390 150l3.2-5.543"/><path style="fill:none" d="M403.6 143.6h12.8v12.8h-12.8zm-340 20h12.8v12.8H63.6z"/><path style="fill:none;stroke-width:1.5" d="M90 170h6.4m-6.4 0 3.2 5.543M90 170l-3.2 5.543M90 170h-6.4m6.4 0-3.2-5.543M90 170l3.2-5.543M110 170h6.4m-6.4 0 3.2 5.543M110 170l-3.2 5.543M110 170h-6.4m6.4 0-3.2-5.543M110 170l3.2-5.543M130 170h6.4m-6.4 0 3.2 5.543M130 170l-3.2 5.543M130 170h-6.4m6.4 0-3.2-5.543M130 170l3.2-5.543M150 170h6.4m-6.4 0 3.2 5.543M150 170l-3.2 5.543M150 170h-6.4m6.4 0-3.2-5.543M150 170l3.2-5.543M170 170h6.4m-6.4 0 3.2 5.543M170 170l-3.2 5.543M170 170h-6.4m6.4 0-3.2-5.543M170 170l3.2-5.543"/><path style="stroke-width:1;stroke:none" d="M183.6 163.6h12.8v12.8h-12.8zm20 0h12.8v12.8h-12.8z"/><path style="fill:none;stroke-width:1.5" d="M230 170h6.4m-6.4 0 3.2 5.543M230 170l-3.2 5.543M230 170h-6.4m6.4 0-3.2-5.543M230 170l3.2-5.543M250 170h6.4m-6.4 0 3.2 5.543M250 170l-3.2 5.543M250 170h-6.4m6.4 0-3.2-5.543M250 170l3.2-5.543M270 170h6.4m-6.4 0 3.2 5.543M270 170l-3.2 5.543M270 170h-6.4m6.4 0-3.2-5.543M270 170l3.2-5.543M290 170h6.4m-6.4 0 3.2 5.543M290 170l-3.2 5.543M290 170h-6.4m6.4 0-3.2-5.543M290 170l3.2-5.543M310 170h6.4m-6.4 0 3.2 5.543M310 170l-3.2 5.543M310 170h-6.4m6.4 0-3.2-5.543M310 170l3.2-5.543M330 170h6.4m-6.4 0 3.2 5.543M330 170l-3.2 5.543M330 170h-6.4m6.4 0-3.2-5.543M330 170l3.2-5.543M350 170h6.4m-6.4 0 3.2 5.543M350 170l-3.2 5.543M350 170h-6.4m6.4 0-3.2-5.543M350 170l3.2-5.543M370 170h6.4m-6.4 0 3.2 5.543M370 170l-3.2 5.543M370 170h-6.4m6.4 0-3.2-5.543M370 170l3.2-5.543M390 170h6.4m-6.4 0 3.2 5.543M390 170l-3.2 5.543M390 170h-6.4m6.4 0-3.2-5.543M390 170l3.2-5.543M410 170h6.4m-6.4 0 3.2 5.543M410 170l-3.2 5.543M410 170h-6.4m6.4 0-3.2-5.543M410 170l3.2-5.543"/><path style="fill:none" d="M423.6 163.6h12.8v12.8h-12.8zm-360 20h12.8v12.8H63.6z"/><path style="fill:none;stroke-width:1.5" d="M90 190h6.4m-6.4 0 3.2 5.543M90 190l-3.2 5.543M90 190h-6.4m6.4 0-3.2-5.543M90 190l3.2-5.543M110 190h6.4m-6.4 0 3.2 5.543M110 190l-3.2 5.543M110 190h-6.4m6.4 0-3.2-5.543M110 190l3.2-5.543M130 190h6.4m-6.4 0 3.2 5.543M130 190l-3.2 5.543M130 190h-6.4m6.4 0-3.2-5.543M130 190l3.2-5.543M150 190h6.4m-6.4 0 3.2 5.543M150 190l-3.2 5.543M150 190h-6.4m6.4 0-3.2-5.543M150 190l3.2-5.543M170 190h6.4m-6.4 0 3.2 5.543M170 190l-3.2 5.543M170 190h-6.4m6.4 0-3.2-5.543M170 190l3.2-5.543M190 190h6.4m-6.4 0 3.2 5.543M190 190l-3.2 5.543M190 190h-6.4m6.4 0-3.2-5.543M190 190l3.2-5.543M210 190h6.4m-6.4 0 3.2 5.543M210 190l-3.2 5.543M210 190h-6.4m6.4 0-3.2-5.543M210 190l3.2-5.543M230 190h6.4m-6.4 0 3.2 5.543M230 190l-3.2 5.543M230 190h-6.4m6.4 0-3.2-5.543M230 190l3.2-5.543M250 190h6.4m-6.4 0 3.2 5.543M250 190l-3.2 5.543M250 190h-6.4m6.4 0-3.2-5.543M250 190l3.2-5.543M270 190h6.4m-6.4 0 3.2 5.543M270 190l-3.2 5.543M270 190h-6.4m6.4 0-3.2-5.543M270 190l3.2-5.543M290 190h6.4m-6.4 0 3.2 5.543M290 190l-3.2 5.543M290 190h-6.4m6.4 0-3.2-5.543M290 190l3.2-5.543M310 190h6.4m-6.4 0 3.2 5.543M310 190l-3.2 5.543M310 190h-6.4m6.4 0-3.2-5.543M310 190l3.2-5.543M330 190h6.4m-6.4 0 3.2 5.543M330 190l-3.2 5.543M330 190h-6.4m6.4 0-3.2-5.543M330 190l3.2-5.543M350 190h6.4m-6.4 0 3.2 5.543M350 190l-3.2 5.543M350 190h-6.4m6.4 0-3.2-5.543M350 190l3.2-5.543M370 190h6.4m-6.4 0 3.2 5.543M370 190l-3.2 5.543M370 190h-6.4m6.4 0-3.2-5.543M370 190l3.2-5.543M390 190h6.4m-6.4 0 3.2 5.543M390 190l-3.2 5.543M390 190h-6.4m6.4 0-3.2-5.543M390 190l3.2-5.543M410 190h6.4m-6.4 0 3.2 5.543M410 190l-3.2 5.543M410 190h-6.4m6.4 0-3.2-5.543M410 190l3.2-5.543"/><path style="fill:none" d="M423.6 183.6h12.8v12.8h-12.8zm-360 20h12.8v12.8H63.6z"/><path style="fill:none;stroke-width:1.5" d="M90 210h6.4m-6.4 0 3.2 5.543M90 210l-3.2 5.543M90 210h-6.4m6.4 0-3.2-5.543M90 210l3.2-5.543M110 210h6.4m-6.4 0 3.2 5.543M110 210l-3.2 5.543M110 210h-6.4m6.4 0-3.2-5.543M110 210l3.2-5.543M130 210h6.4m-6.4 0 3.2 5.543M130 210l-3.2 5.543M130 210h-6.4m6.4 0-3.2-5.543M130 210l3.2-5.543"/><path style="stroke-width:1;stroke:none" d="M143.6 203.6h12.8v12.8h-12.8z"/><path style="fill:none;stroke-width:1.5" d="M170 210h6.4m-6.4 0 3.2 5.543M170 210l-3.2 5.543M170 210h-6.4m6.4 0-3.2-5.543M170 210l3.2-5.543M190 210h6.4m-6.4 0 3.2 5.543M190 210l-3.2 5.543M190 210h-6.4m6.4 0-3.2-5.543M190 210l3.2-5.543M210 210h6.4m-6.4 0 3.2 5.543M210 210l-3.2 5.543M210 210h-6.4m6.4 0-3.2-5.543M210 210l3.2-5.543M230 210h6.4m-6.4 0 3.2 5.543M230 210l-3.2 5.543M230 210h-6.4m6.4 0-3.2-5.543M230 210l3.2-5.543M250 210h6.4m-6.4 0 3.2 5.543M250 210l-3.2 5.543M250 210h-6.4m6.4 0-3.2-5.543M250 210l3.2-5.543M270 210h6.4m-6.4 0 3.2 5.543M270 210l-3.2 5.543M270 210h-6.4m6.4 0-3.2-5.543M270 210l3.2-5.543M290 210h6.4m-6.4 0 3.2 5.543M290 210l-3.2 5.543M290 210h-6.4m6.4 0-3.2-5.543M290 210l3.2-5.543"/><path style="stroke-width:1;stroke:none" d="M303.6 203.6h12.8v12.8h-12.8zm20 0h12.8v12.8h-12.8z"/><path style="fill:none;stroke-width:1.5" d="M350 210h6.4m-6.4 0 3.2 5.543M350 210l-3.2 5.543M350 210h-6.4m6.4 0-3.2-5.543M350 210l3.2-5.543M370 210h6.4m-6.4 0 3.2 5.543M370 210l-3.2 5.543M370 210h-6.4m6.4 0-3.2-5.543M370 210l3.2-5.543M390 210h6.4m-6.4 0 3.2 5.543M390 210l-3.2 5.543M390 210h-6.4m6.4 0-3.2-5.543M390 210l3.2-5.543M410 210h6.4m-6.4 0 3.2 5.543M410 210l-3.2 5.543M410 210h-6.4m6.4 0-3.2-5.543M410 210l3.2-5.543"/><path style="fill:none" d="M423.6 203.6h12.8v12.8h-12.8zm-360 20h12.8v12.8H63.6z"/><path style="fill:none;stroke-width:1.5" d="M90 230h6.4m-6.4 0 3.2 5.543M90 230l-3.2 5.543M90 230h-6.4m6.4 0-3.2-5.543M90 230l3.2-5.543M110 230h6.4m-6.4 0 3.2 5.543M110 230l-3.2 5.543M110 230h-6.4m6.4 0-3.2-5.543M110 230l3.2-5.543M130 230h6.4m-6.4 0 3.2 5.543M130 230l-3.2 5.543M130 230h-6.4m6.4 0-3.2-5.543M130 230l3.2-5.543"/><path style="stroke-width:1;stroke:none" d="M143.6 223.6h12.8v12.8h-12.8zm20 0h12.8v12.8h-12.8z"/><path style="fill:none;stroke-width:1.5" d="M190 230h6.4m-6.4 0 3.2 5.543M190 230l-3.2 5.543M190 230h-6.4m6.4 0-3.2-5.543M190 230l3.2-5.543M210 230h6.4m-6.4 0 3.2 5.543M210 230l-3.2 5.543M210 230h-6.4m6.4 0-3.2-5.543M210 230l3.2-5.543M230 230h6.4m-6.4 0 3.2 5.543M230 230l-3.2 5.543M230 230h-6.4m6.4 0-3.2-5.543M230 230l3.2-5.543M250 230h6.4m-6.4 0 3.2 5.543M250 230l-3.2 5.543M250 230h-6.4m6.4 0-3.2-5.543M250 230l3.2-5.543M270 230h6.4m-6.4 0 3.2 5.543M270 230l-3.2 5.543M270 230h-6.4m6.4 0-3.2-5.543M270 230l3.2-5.543"/><path style="stroke-width:1;stroke:none" d="M283.6 223.6h12.8v12.8h-12.8zm20 0h12.8v12.8h-12.8zm20 0h12.8v12.8h-12.8z"/><path style="fill:none;stroke-width:1.5" d="M350 230h6.4m-6.4 0 3.2 5.543M350 230l-3.2 5.543M350 230h-6.4m6.4 0-3.2-5.543M350 230l3.2-5.543M370 230h6.4m-6.4 0 3.2 5.543M370 230l-3.2 5.543M370 230h-6.4m6.4 0-3.2-5.543M370 230l3.2-5.543M390 230h6.4m-6.4 0 3.2 5.543M390 230l-3.2 5.543M390 230h-6.4m6.4 0-3.2-5.543M390 230l3.2-5.543M410 230h6.4m-6.4 0 3.2 5.543M410 230l-3.2 5.543M410 230h-6.4m6.4 0-3.2-5.543M410 230l3.2-5.543"/><path style="fill:none" d="M423.6 223.6h12.8v12.8h-12.8zm-360 20h12.8v12.8H63.6z"/><path style="fill:none;stroke-width:1.5" d="M90 250h6.4m-6.4 0 3.2 5.543M90 250l-3.2 5.543M90 250h-6.4m6.4 0-3.2-5.543M90 250l3.2-5.543M110 250h6.4m-6.4 0 3.2 5.543M110 250l-3.2 5.543M110 250h-6.4m6.4 0-3.2-5.543M110 250l3.2-5.543M130 250h6.4m-6.4 0 3.2 5.543M130 250l-3.2 5.543M130 250h-6.4m6.4 0-3.2-5.543M130 250l3.2-5.543"/><path style="stroke-width:1;stroke:none" d="M143.6 243.6h12.8v12.8h-12.8zm20 0h12.8v12.8h-12.8zm20 0h12.8v12.8h-12.8z"/><path style="fill:none;stroke-width:1.5" d="M210 250h6.4m-6.4 0 3.2 5.543M210 250l-3.2 5.543M210 250h-6.4m6.4 0-3.2-5.543M210 250l3.2-5.543M230 250h6.4m-6.4 0 3.2 5.543M230 250l-3.2 5.543M230 250h-6.4m6.4 0-3.2-5.543M230 250l3.2-5.543M250 250h6.4m-6.4 0 3.2 5.543M250 250l-3.2 5.543M250 250h-6.4m6.4 0-3.2-5.543M250 250l3.2-5.543M270 250h6.4m-6.4 0 3.2 5.543M270 250l-3.2 5.543M270 250h-6.4m6.4 0-3.2-5.543M270 250l3.2-5.543"/><path style="stroke-width:1;stroke:none" d="M283.6 243.6h12.8v12.8h-12.8zm20 0h12.8v12.8h-12.8z"/><path style="fill:none;stroke-width:1.5" d="M330 250h6.4m-6.4 0 3.2 5.543M330 250l-3.2 5.543M330 250h-6.4m6.4 0-3.2-5.543M330 250l3.2-5.543M350 250h6.4m-6.4 0 3.2 5.543M350 250l-3.2 5.543M350 250h-6.4m6.4 0-3.2-5.543M350 250l3.2-5.543M370 250h6.4m-6.4 0 3.2 5.543M370 250l-3.2 5.543M370 250h-6.4m6.4 0-3.2-5.543M370 250l3.2-5.543M390 250h6.4m-6.4 0 3.2 5.543M390 250l-3.2 5.543M390 250h-6.4m6.4 0-3.2-5.543M390 250l3.2-5.543M410 250h6.4m-6.4 0 3.2 5.543M410 250l-3.2 5.543M410 250h-6.4m6.4 0-3.2-5.543M410 250l3.2-5.543"/><path style="fill:none" d="M423.6 243.6h12.8v12.8h-12.8z"/><path style="fill:none;stroke-width:1.5" d="M50 270h6.4m-6.4 0 3.2 5.543M50 270l-3.2 5.543M50 270h-6.4m6.4 0-3.2-5.543M50 270l3.2-5.543"/><path style="fill:none" d="M63.6 263.6h12.8v12.8H63.6z"/><path style="fill:none;stroke-width:1.5" d="M90 270h6.4m-6.4 0 3.2 5.543M90 270l-3.2 5.543M90 270h-6.4m6.4 0-3.2-5.543M90 270l3.2-5.543M110 270h6.4m-6.4 0 3.2 5.543M110 270l-3.2 5.543M110 270h-6.4m6.4 0-3.2-5.543M110 270l3.2-5.543M130 270h6.4m-6.4 0 3.2 5.543M130 270l-3.2 5.543M130 270h-6.4m6.4 0-3.2-5.543M130 270l3.2-5.543M150 270h6.4m-6.4 0 3.2 5.543M150 270l-3.2 5.543M150 270h-6.4m6.4 0-3.2-5.543M150 270l3.2-5.543"/><path style="stroke-width:1;stroke:none" d="M163.6 263.6h12.8v12.8h-12.8zm20 0h12.8v12.8h-12.8zm20 0h12.8v12.8h-12.8z"/><path style="fill:none;stroke-width:1.5" d="M230 270h6.4m-6.4 0 3.2 5.543M230 270l-3.2 5.543M230 270h-6.4m6.4 0-3.2-5.543M230 270l3.2-5.543M250 270h6.4m-6.4 0 3.2 5.543M250 270l-3.2 5.543M250 270h-6.4m6.4 0-3.2-5.543M250 270l3.2-5.543M270 270h6.4m-6.4 0 3.2 5.543M270 270l-3.2 5.543M270 270h-6.4m6.4 0-3.2-5.543M270 270l3.2-5.543M290 270h6.4m-6.4 0 3.2 5.543M290 270l-3.2 5.543M290 270h-6.4m6.4 0-3.2-5.543M290 270l3.2-5.543M310 270h6.4m-6.4 0 3.2 5.543M310 270l-3.2 5.543M310 270h-6.4m6.4 0-3.2-5.543M310 270l3.2-5.543M330 270h6.4m-6.4 0 3.2 5.543M330 270l-3.2 5.543M330 270h-6.4m6.4 0-3.2-5.543M330 270l3.2-5.543M350 270h6.4m-6.4 0 3.2 5.543M350 270l-3.2 5.543M350 270h-6.4m6.4 0-3.2-5.543M350 270l3.2-5.543M370 270h6.4m-6.4 0 3.2 5.543M370 270l-3.2 5.543M370 270h-6.4m6.4 0-3.2-5.543M370 270l3.2-5.543"/><path style="fill:none" d="M383.6 263.6h12.8v12.8h-12.8z"/><path style="fill:none;stroke-width:1.5" d="M410 270h6.4m-6.4 0 3.2 5.543M410 270l-3.2 5.543M410 270h-6.4m6.4 0-3.2-5.543M410 270l3.2-5.543"/><path style="fill:none" d="M423.6 263.6h12.8v12.8h-12.8z"/><path style="fill:none;stroke-width:1.5" d="M450 270h6.4m-6.4 0 3.2 5.543M450 270l-3.2 5.543M450 270h-6.4m6.4 0-3.2-5.543M450 270l3.2-5.543M30 290h6.4m-6.4 0 3.2 5.543M30 290l-3.2 5.543M30 290h-6.4m6.4 0-3.2-5.543M30 290l3.2-5.543"/><path style="fill:none" d="M43.6 283.6h12.8v12.8H43.6z"/><path style="fill:none;stroke-width:1.5" d="M70 290h6.4m-6.4 0 3.2 5.543M70 290l-3.2 5.543M70 290h-6.4m6.4 0-3.2-5.543M70 290l3.2-5.543"/><path style="fill:none" d="M83.6 283.6h12.8v12.8H83.6z"/><path style="fill:none;stroke-width:1.5" d="M110 290h6.4m-6.4 0 3.2 5.543M110 290l-3.2 5.543M110 290h-6.4m6.4 0-3.2-5.543M110 290l3.2-5.543M130 290h6.4m-6.4 0 3.2 5.543M130 290l-3.2 5.543M130 290h-6.4m6.4 0-3.2-5.543M130 290l3.2-5.543M150 290h6.4m-6.4 0 3.2 5.543M150 290l-3.2 5.543M150 290h-6.4m6.4 0-3.2-5.543M150 290l3.2-5.543M170 290h6.4m-6.4 0 3.2 5.543M170 290l-3.2 5.543M170 290h-6.4m6.4 0-3.2-5.543M170 290l3.2-5.543"/><path style="stroke-width:1;stroke:none" d="M183.6 283.6h12.8v12.8h-12.8zm20 0h12.8v12.8h-12.8zm20 0h12.8v12.8h-12.8zm20 0h12.8v12.8h-12.8z"/><path style="fill:none;stroke-width:1.5" d="M270 290h6.4m-6.4 0 3.2 5.543M270 290l-3.2 5.543M270 290h-6.4m6.4 0-3.2-5.543M270 290l3.2-5.543M290 290h6.4m-6.4 0 3.2 5.543M290 290l-3.2 5.543M290 290h-6.4m6.4 0-3.2-5.543M290 290l3.2-5.543M310 290h6.4m-6.4 0 3.2 5.543M310 290l-3.2 5.543M310 290h-6.4m6.4 0-3.2-5.543M310 290l3.2-5.543M330 290h6.4m-6.4 0 3.2 5.543M330 290l-3.2 5.543M330 290h-6.4m6.4 0-3.2-5.543M330 290l3.2-5.543M350 290h6.4m-6.4 0 3.2 5.543M350 290l-3.2 5.543M350 290h-6.4m6.4 0-3.2-5.543M350 290l3.2-5.543"/><path style="fill:none" d="M363.6 283.6h12.8v12.8h-12.8z"/><path style="fill:none;stroke-width:1.5" d="M390 290h6.4m-6.4 0 3.2 5.543M390 290l-3.2 5.543M390 290h-6.4m6.4 0-3.2-5.543M390 290l3.2-5.543"/><path style="fill:none" d="M403.6 283.6h12.8v12.8h-12.8z"/><path style="fill:none;stroke-width:1.5" d="M430 290h6.4m-6.4 0 3.2 5.543M430 290l-3.2 5.543M430 290h-6.4m6.4 0-3.2-5.543M430 290l3.2-5.543"/><path style="fill:none" d="M443.6 283.6h12.8v12.8h-12.8zm-420 20h12.8v12.8H23.6z"/><path style="fill:none;stroke-width:1.5" d="M50 310h6.4m-6.4 0 3.2 5.543M50 310l-3.2 5.543M50 310h-6.4m6.4 0-3.2-5.543M50 310l3.2-5.543"/><path style="fill:none" d="M63.6 303.6h12.8v12.8H63.6z"/><path style="fill:none;stroke-width:1.5" d="M90 310h6.4m-6.4 0 3.2 5.543M90 310l-3.2 5.543M90 310h-6.4m6.4 0-3.2-5.543M90 310l3.2-5.543"/><path style="fill:none" d="M103.6 303.6h12.8v12.8h-12.8z"/><path style="fill:none;stroke-width:1.5" d="M130 310h6.4m-6.4 0 3.2 5.543M130 310l-3.2 5.543M130 310h-6.4m6.4 0-3.2-5.543M130 310l3.2-5.543M150 310h6.4m-6.4 0 3.2 5.543M150 310l-3.2 5.543M150 310h-6.4m6.4 0-3.2-5.543M150 310l3.2-5.543M170 310h6.4m-6.4 0 3.2 5.543M170 310l-3.2 5.543M170 310h-6.4m6.4 0-3.2-5.543M170 310l3.2-5.543M190 310h6.4m-6.4 0 3.2 5.543M190 310l-3.2 5.543M190 310h-6.4m6.4 0-3.2-5.543M190 310l3.2-5.543M210 310h6.4m-6.4 0 3.2 5.543M210 310l-3.2 5.543M210 310h-6.4m6.4 0-3.2-5.543M210 310l3.2-5.543"/><path style="stroke-width:1;stroke:none" d="M223.6 303.6h12.8v12.8h-12.8zm20 0h12.8v12.8h-12.8zm20 0h12.8v12.8h-12.8zm20 0h12.8v12.8h-12.8z"/><path style="fill:none" d="M303.6 303.6h12.8v12.8h-12.8z"/><path style="fill:none;stroke-width:1.5" d="M330 310h6.4m-6.4 0 3.2 5.543M330 310l-3.2 5.543M330 310h-6.4m6.4 0-3.2-5.543M330 310l3.2-5.543"/><path style="fill:none" d="M343.6 303.6h12.8v12.8h-12.8z"/><path style="fill:none;stroke-width:1.5" d="M370 310h6.4m-6.4 0 3.2 5.543M370 310l-3.2 5.543M370 310h-6.4m6.4 0-3.2-5.543M370 310l3.2-5.543"/><path style="fill:none" d="M383.6 303.6h12.8v12.8h-12.8z"/><path style="fill:none;stroke-width:1.5" d="M410 310h6.4m-6.4 0 3.2 5.543M410 310l-3.2 5.543M410 310h-6.4m6.4 0-3.2-5.543M410 310l3.2-5.543"/><path style="stroke-width:1;stroke:none" d="M423.6 303.6h12.8v12.8h-12.8zm-380 20h12.8v12.8H43.6z"/><path style="fill:none;stroke-width:1.5" d="M70 330h6.4m-6.4 0 3.2 5.543M70 330l-3.2 5.543M70 330h-6.4m6.4 0-3.2-5.543M70 330l3.2-5.543"/><path style="fill:none" d="M83.6 323.6h12.8v12.8H83.6z"/><path style="fill:none;stroke-width:1.5" d="M110 330h6.4m-6.4 0 3.2 5.543M110 330l-3.2 5.543M110 330h-6.4m6.4 0-3.2-5.543M110 330l3.2-5.543"/><path style="fill:none" d="M123.6 323.6h12.8v12.8h-12.8z"/><path style="fill:none;stroke-width:1.5" d="M150 330h6.4m-6.4 0 3.2 5.543M150 330l-3.2 5.543M150 330h-6.4m6.4 0-3.2-5.543M150 330l3.2-5.543"/><path style="fill:none" d="M163.6 323.6h12.8v12.8h-12.8z"/><path style="fill:none;stroke-width:1.5" d="M190 330h6.4m-6.4 0 3.2 5.543M190 330l-3.2 5.543M190 330h-6.4m6.4 0-3.2-5.543M190 330l3.2-5.543"/><path style="fill:none" d="M203.6 323.6h12.8v12.8h-12.8z"/><path style="fill:none;stroke-width:1.5" d="M230 330h6.4m-6.4 0 3.2 5.543M230 330l-3.2 5.543M230 330h-6.4m6.4 0-3.2-5.543M230 330l3.2-5.543"/><path style="fill:none" d="M243.6 323.6h12.8v12.8h-12.8z"/><path style="fill:none;stroke-width:1.5" d="M270 330h6.4m-6.4 0 3.2 5.543M270 330l-3.2 5.543M270 330h-6.4m6.4 0-3.2-5.543M270 330l3.2-5.543"/><path style="fill:none" d="M283.6 323.6h12.8v12.8h-12.8z"/><path style="stroke-width:1;stroke:none" d="M303.6 323.6h12.8v12.8h-12.8zm20 0h12.8v12.8h-12.8zm20 0h12.8v12.8h-12.8z"/><path style="fill:none" d="M363.6 323.6h12.8v12.8h-12.8z"/><path style="fill:none;stroke-width:1.5" d="M390 330h6.4m-6.4 0 3.2 5.543M390 330l-3.2 5.543M390 330h-6.4m6.4 0-3.2-5.543M390 330l3.2-5.543"/><path style="fill:none" d="M403.6 323.6h12.8v12.8h-12.8z"/><path style="fill:none;stroke-width:1.5" d="M430 330h6.4m-6.4 0 3.2 5.543M430 330l-3.2 5.543M430 330h-6.4m6.4 0-3.2-5.543M430 330l3.2-5.543"/><path style="stroke-width:1;stroke:none" d="M63.6 343.6h12.8v12.8H63.6zm20 0h12.8v12.8H83.6z"/><path style="fill:none" d="M103.6 343.6h12.8v12.8h-12.8z"/><path style="fill:none;stroke-width:1.5" d="M130 350h6.4m-6.4 0 3.2 5.543M130 350l-3.2 5.543M130 350h-6.4m6.4 0-3.2-5.543M130 350l3.2-5.543"/><path style="fill:none" d="M143.6 343.6h12.8v12.8h-12.8z"/><path style="fill:none;stroke-width:1.5" d="M170 350h6.4m-6.4 0 3.2 5.543M170 350l-3.2 5.543M170 350h-6.4m6.4 0-3.2-5.543M170 350l3.2-5.543"/><path style="fill:none" d="M183.6 343.6h12.8v12.8h-12.8z"/><path style="fill:none;stroke-width:1.5" d="M210 350h6.4m-6.4 0 3.2 5.543M210 350l-3.2 5.543M210 350h-6.4m6.4 0-3.2-5.543M210 350l3.2-5.543"/><path style="fill:none" d="M223.6 343.6h12.8v12.8h-12.8z"/><path style="fill:none;stroke-width:1.5" d="M250 350h6.4m-6.4 0 3.2 5.543M250 350l-3.2 5.543M250 350h-6.4m6.4 0-3.2-5.543M250 350l3.2-5.543"/><path style="fill:none" d="M263.6 343.6h12.8v12.8h-12.8z"/><path style="fill:none;stroke-width:1.5" d="M290 350h6.4m-6.4 0 3.2 5.543M290 350l-3.2 5.543M290 350h-6.4m6.4 0-3.2-5.543M290 350l3.2-5.543"/><path style="fill:none" d="M303.6 343.6h12.8v12.8h-12.8z"/><path style="fill:none;stroke-width:1.5" d="M330 350h6.4m-6.4 0 3.2 5.543M330 350l-3.2 5.543M330 350h-6.4m6.4 0-3.2-5.543M330 350l3.2-5.543"/><path style="stroke-width:1;stroke:none" d="M343.6 343.6h12.8v12.8h-12.8zm20 0h12.8v12.8h-12.8z"/><path style="fill:none" d="M383.6 343.6h12.8v12.8h-12.8z"/><path style="fill:none;stroke-width:1.5" d="M410 350h6.4m-6.4 0 3.2 5.543M410 350l-3.2 5.543M410 350h-6.4m6.4 0-3.2-5.543M410 350l3.2-5.543"/><path style="stroke-width:1;stroke:none" d="M423.6 343.6h12.8v12.8h-12.8z"/><path style="fill:none;stroke-width:1.5" d="M70 370h6.4m-6.4 0 3.2 5.543M70 370l-3.2 5.543M70 370h-6.4m6.4 0-3.2-5.543M70 370l3.2-5.543"/><path style="fill:none" d="M83.6 363.6h12.8v12.8H83.6z"/><path style="fill:none;stroke-width:1.5" d="M110 370h6.4m-6.4 0 3.2 5.543M110 370l-3.2 5.543M110 370h-6.4m6.4 0-3.2-5.543M110 370l3.2-5.543M130 370h6.4m-6.4 0 3.2 5.543M130 370l-3.2 5.543M130 370h-6.4m6.4 0-3.2-5.543M130 370l3.2-5.543M150 370h6.4m-6.4 0 3.2 5.543M150 370l-3.2 5.543M150 370h-6.4m6.4 0-3.2-5.543M150 370l3.2-5.543"/><path style="fill:none" d="M163.6 363.6h12.8v12.8h-12.8z"/><path style="fill:none;stroke-width:1.5" d="M190 370h6.4m-6.4 0 3.2 5.543M190 370l-3.2 5.543M190 370h-6.4m6.4 0-3.2-5.543M190 370l3.2-5.543M210 370h6.4m-6.4 0 3.2 5.543M210 370l-3.2 5.543M210 370h-6.4m6.4 0-3.2-5.543M210 370l3.2-5.543M230 370h6.4m-6.4 0 3.2 5.543M230 370l-3.2 5.543M230 370h-6.4m6.4 0-3.2-5.543M230 370l3.2-5.543"/><path style="fill:none" d="M243.6 363.6h12.8v12.8h-12.8z"/><path style="fill:none;stroke-width:1.5" d="M270 370h6.4m-6.4 0 3.2 5.543M270 370l-3.2 5.543M270 370h-6.4m6.4 0-3.2-5.543M270 370l3.2-5.543"/><path style="stroke-width:1;stroke:none" d="M283.6 363.6h12.8v12.8h-12.8zm20 0h12.8v12.8h-12.8zm20 0h12.8v12.8h-12.8z"/><path style="fill:none;stroke-width:1.5" d="M350 370h6.4m-6.4 0 3.2 5.543M350 370l-3.2 5.543M350 370h-6.4m6.4 0-3.2-5.543M350 370l3.2-5.543M370 370h6.4m-6.4 0 3.2 5.543M370 370l-3.2 5.543M370 370h-6.4m6.4 0-3.2-5.543M370 370l3.2-5.543M390 370h6.4m-6.4 0 3.2 5.543M390 370l-3.2 5.543M390 370h-6.4m6.4 0-3.2-5.543M390 370l3.2-5.543"/><path style="stroke-width:1;stroke:none" d="M403.6 363.6h12.8v12.8h-12.8z"/><path style="fill:none" d="M63.6 383.6h12.8v12.8H63.6z"/><path style="fill:none;stroke-width:1.5" d="M90 390h6.4m-6.4 0 3.2 5.543M90 390l-3.2 5.543M90 390h-6.4m6.4 0-3.2-5.543M90 390l3.2-5.543"/><path style="fill:none" d="M103.6 383.6h12.8v12.8h-12.8z"/><path style="fill:none;stroke-width:1.5" d="M130 390h6.4m-6.4 0 3.2 5.543M130 390l-3.2 5.543M130 390h-6.4m6.4 0-3.2-5.543M130 390l3.2-5.543"/><path style="fill:none" d="M143.6 383.6h12.8v12.8h-12.8z"/><path style="fill:none;stroke-width:1.5" d="M170 390h6.4m-6.4 0 3.2 5.543M170 390l-3.2 5.543M170 390h-6.4m6.4 0-3.2-5.543M170 390l3.2-5.543"/><path style="fill:none" d="M183.6 383.6h12.8v12.8h-12.8z"/><path style="fill:none;stroke-width:1.5" d="M210 390h6.4m-6.4 0 3.2 5.543M210 390l-3.2 5.543M210 390h-6.4m6.4 0-3.2-5.543M210 390l3.2-5.543"/><path style="fill:none" d="M223.6 383.6h12.8v12.8h-12.8z"/><path style="fill:none;stroke-width:1.5" d="M250 390h6.4m-6.4 0 3.2 5.543M250 390l-3.2 5.543M250 390h-6.4m6.4 0-3.2-5.543M250 390l3.2-5.543"/><path style="fill:none" d="M263.6 383.6h12.8v12.8h-12.8z"/><path style="fill:none;stroke-width:1.5" d="M290 390h6.4m-6.4 0 3.2 5.543M290 390l-3.2 5.543M290 390h-6.4m6.4 0-3.2-5.543M290 390l3.2-5.543"/><path style="fill:none" d="M303.6 383.6h12.8v12.8h-12.8z"/><path style="fill:none;stroke-width:1.5" d="M330 390h6.4m-6.4 0 3.2 5.543M330 390l-3.2 5.543M330 390h-6.4m6.4 0-3.2-5.543M330 390l3.2-5.543"/><path style="fill:none" d="M343.6 383.6h12.8v12.8h-12.8z"/><path style="fill:none;stroke-width:1.5" d="M370 390h6.4m-6.4 0 3.2 5.543M370 390l-3.2 5.543M370 390h-6.4m6.4 0-3.2-5.543M370 390l3.2-5.543"/><path style="fill:none" d="M383.6 383.6h12.8v12.8h-12.8z"/><path style="fill:none;stroke-width:1.5" d="M410 390h6.4m-6.4 0 3.2 5.543M410 390l-3.2 5.543M410 390h-6.4m6.4 0-3.2-5.543M410 390l3.2-5.543"/><path style="fill:none" d="M423.6 383.6h12.8v12.8h-12.8z"/><path style="stroke-width:1;stroke:none" d="M83.6 403.6h12.8v12.8H83.6zm20 0h12.8v12.8h-12.8zm20 0h12.8v12.8h-12.8z"/><path style="fill:none;stroke-width:1.5" d="M150 410h6.4m-6.4 0 3.2 5.543M150 410l-3.2 5.543M150 410h-6.4m6.4 0-3.2-5.543M150 410l3.2-5.543"/><path style="fill:none" d="M163.6 403.6h12.8v12.8h-12.8z"/><path style="fill:none;stroke-width:1.5" d="M190 410h6.4m-6.4 0 3.2 5.543M190 410l-3.2 5.543M190 410h-6.4m6.4 0-3.2-5.543M190 410l3.2-5.543"/><path style="fill:none" d="M203.6 403.6h12.8v12.8h-12.8z"/><path style="stroke-width:1;stroke:none" d="M223.6 403.6h12.8v12.8h-12.8zm20 0h12.8v12.8h-12.8zm20 0h12.8v12.8h-12.8zm20 0h12.8v12.8h-12.8z"/><path style="fill:none;stroke-width:1.5" d="M310 410h6.4m-6.4 0 3.2 5.543M310 410l-3.2 5.543M310 410h-6.4m6.4 0-3.2-5.543M310 410l3.2-5.543"/><path style="fill:none" d="M323.6 403.6h12.8v12.8h-12.8z"/><path style="fill:none;stroke-width:1.5" d="M350 410h6.4m-6.4 0 3.2 5.543M350 410l-3.2 5.543M350 410h-6.4m6.4 0-3.2-5.543M350 410l3.2-5.543"/><path style="fill:none" d="M363.6 403.6h12.8v12.8h-12.8z"/><path style="fill:none;stroke-width:1.5" d="M390 410h6.4m-6.4 0 3.2 5.543M390 410l-3.2 5.543M390 410h-6.4m6.4 0-3.2-5.543M390 410l3.2-5.543"/><path style="fill:none" d="M403.6 403.6h12.8v12.8h-12.8z"/><path style="fill:none;stroke-width:1.5" d="M430 410h6.4m-6.4 0 3.2 5.543M430 410l-3.2 5.543M430 410h-6.4m6.4 0-3.2-5.543M430 410l3.2-5.543"/><path style="fill:none" d="M443.6 403.6h12.8v12.8h-12.8z"/><path style="stroke-width:1;stroke:none" d="M143.6 423.6h12.8v12.8h-12.8zm20 0h12.8v12.8h-12.8zm20 0h12.8v12.8h-12.8zm20 0h12.8v12.8h-12.8zm100 0h12.8v12.8h-12.8zm20 0h12.8v12.8h-12.8zm20 0h12.8v12.8h-12.8z"/><path style="fill:none;stroke-width:1.5" d="M370 430h6.4m-6.4 0 3.2 5.543M370 430l-3.2 5.543M370 430h-6.4m6.4 0-3.2-5.543M370 430l3.2-5.543"/><path style="fill:none" d="M383.6 423.6h12.8v12.8h-12.8z"/><path style="fill:none;stroke-width:1.5" d="M410 430h6.4m-6.4 0 3.2 5.543M410 430l-3.2 5.543M410 430h-6.4m6.4 0-3.2-5.543M410 430l3.2-5.543"/><path style="fill:none" d="M423.6 423.6h12.8v12.8h-12.8z"/><path style="fill:none;stroke-width:1.5" d="M450 430h6.4m-6.4 0 3.2 5.543M450 430l-3.2 5.543M450 430h-6.4m6.4 0-3.2-5.543M450 430l3.2-5.543"/><path style="stroke-width:1;stroke:none" d="M363.6 443.6h12.8v12.8h-12.8zm20 0h12.8v12.8h-12.8zm20 0h12.8v12.8h-12.8zm20 0h12.8v12.8h-12.8z"/><path style="fill:none;stroke:#b4b4b4;stroke-width:1" d="M20 0v480M40 0v480M60 0v480M80 0v480M100 0v480M120 0v480M140 0v480M160 0v480M180 0v480M200 0v480M220 0v480M240 0v480M260 0v480M280 0v480M300 0v480M320 0v480M340 0v480M360 0v480M380 0v480M400 0v480M420 0v480M440 0v480M460 0v480M0 20h480M0 40h480M0 60h480M0 80h480M0 100h480M0 120h480M0 140h480M0 160h480M0 180h480M0 200h480M0 220h480M0 240h480M0 260h480M0 280h480M0 300h480M0 320h480M0 340h480M0 360h480M0 380h480M0 400h480M0 420h480M0 440h480M0 460h480"/></g></svg>