<svg color-interpolation="auto" height="640" stroke="#000" stroke-linecap="square" stroke-miterlimit="10" width="640" xmlns="http://www.w3.org/2000/svg"><path d="m180 20h20v20h-20z" fill="#f0f0f0" stroke="none"/><g fill="#b4b4b4" stroke="#b4b4b4" stroke-linecap="round"><path d="m180 20h20v20h-20z" fill="none"/><path d="m200 20h20v20h-20z" fill="#f0f0f0" stroke="none"/><path d="m200 20h20v20h-20z" fill="none"/><path d="m220 20h20v20h-20z" fill="#f0f0f0" stroke="none"/><path d="m220 20h20v20h-20z" fill="none"/><path d="m240 20h20v20h-20z" fill="#f0f0f0" stroke="none"/><path d="m240 20h20v20h-20z" fill="none"/><path d="m260 20h20v20h-20z" fill="#f0f0f0" stroke="none"/><path d="m260 20h20v20h-20z" fill="none"/><path d="m280 20h20v20h-20z" fill="#f0f0f0" stroke="none"/><path d="m280 20h20v20h-20z" fill="none"/><path d="m300 20h20v20h-20z" fill="#f0f0f0" stroke="none"/><path d="m300 20h20v20h-20z" fill="none"/><path d="m320 20h20v20h-20z" fill="#f0f0f0" stroke="none"/><path d="m320 20h20v20h-20z" fill="none"/><path d="m340 20h20v20h-20z" fill="#f0f0f0" stroke="none"/><path d="m340 20h20v20h-20z" fill="none"/><path d="m360 20h20v20h-20z" fill="#f0f0f0" stroke="none"/><path d="m360 20h20v20h-20z" fill="none"/><path d="m380 20h20v20h-20z" fill="#f0f0f0" stroke="none"/><path d="m380 20h20v20h-20z" fill="none"/><path d="m400 20h20v20h-20z" fill="#000" stroke="none"/><path d="m400 20h20v20h-20z" fill="none"/><path d="m420 20h20v20h-20z" fill="#f0f0f0" stroke="none"/><path d="m420 20h20v20h-20z" fill="none"/><path d="m180 40h20v20h-20z" fill="#f0f0f0" stroke="none"/><path d="m180 40h20v20h-20z" fill="none"/><path d="m200 40h20v20h-20z" fill="#f0f0f0" stroke="none"/><path d="m200 40h20v20h-20z" fill="none"/><path d="m220 40h20v20h-20z" fill="#f0f0f0" stroke="none"/><path d="m220 40h20v20h-20z" fill="none"/><path d="m240 40h20v20h-20z" fill="#f0f0f0" stroke="none"/><path d="m240 40h20v20h-20z" fill="none"/><path d="m260 40h20v20h-20z" fill="#f0f0f0" stroke="none"/><path d="m260 40h20v20h-20z" fill="none"/><path d="m280 40h20v20h-20z" fill="#f0f0f0" stroke="none"/><path d="m280 40h20v20h-20z" fill="none"/><path d="m300 40h20v20h-20z" fill="#f0f0f0" stroke="none"/><path d="m300 40h20v20h-20z" fill="none"/><path d="m320 40h20v20h-20z" fill="#f0f0f0" stroke="none"/><path d="m320 40h20v20h-20z" fill="none"/><path d="m340 40h20v20h-20z" fill="#f0f0f0" stroke="none"/><path d="m340 40h20v20h-20z" fill="none"/><path d="m360 40h20v20h-20z" fill="#000" stroke="none"/><path d="m360 40h20v20h-20z" fill="none"/><path d="m380 40h20v20h-20z" fill="#000" stroke="none"/><path d="m380 40h20v20h-20z" fill="none"/><path d="m400 40h20v20h-20z" fill="#000" stroke="none"/><path d="m400 40h20v20h-20z" fill="none"/><path d="m420 40h20v20h-20z" fill="#000" stroke="none"/><path d="m420 40h20v20h-20z" fill="none"/><path d="m180 60h20v20h-20z" fill="#f0f0f0" stroke="none"/><path d="m180 60h20v20h-20z" fill="none"/><path d="m200 60h20v20h-20z" fill="#f0f0f0" stroke="none"/><path d="m200 60h20v20h-20z" fill="none"/><path d="m220 60h20v20h-20z" fill="#f0f0f0" stroke="none"/><path d="m220 60h20v20h-20z" fill="none"/><path d="m240 60h20v20h-20z" fill="#f0f0f0" stroke="none"/><path d="m240 60h20v20h-20z" fill="none"/><path d="m260 60h20v20h-20z" fill="#f0f0f0" stroke="none"/><path d="m260 60h20v20h-20z" fill="none"/><path d="m280 60h20v20h-20z" fill="#f0f0f0" stroke="none"/><path d="m280 60h20v20h-20z" fill="none"/><path d="m300 60h20v20h-20z" fill="#f0f0f0" stroke="none"/><path d="m300 60h20v20h-20z" fill="none"/><path d="m320 60h20v20h-20z" fill="#f0f0f0" stroke="none"/><path d="m320 60h20v20h-20z" fill="none"/><path d="m340 60h20v20h-20z" fill="#f0f0f0" stroke="none"/><path d="m340 60h20v20h-20z" fill="none"/><path d="m360 60h20v20h-20z" fill="#f0f0f0" stroke="none"/><path d="m360 60h20v20h-20z" fill="none"/><path d="m380 60h20v20h-20z" fill="#f0f0f0" stroke="none"/><path d="m380 60h20v20h-20z" fill="none"/><path d="m400 60h20v20h-20z" fill="#000" stroke="none"/><path d="m400 60h20v20h-20z" fill="none"/><path d="m420 60h20v20h-20z" fill="#f0f0f0" stroke="none"/><path d="m420 60h20v20h-20z" fill="none"/><path d="m180 80h20v20h-20z" fill="#000" stroke="none"/><path d="m180 80h20v20h-20z" fill="none"/><path d="m200 80h20v20h-20z" fill="#000" stroke="none"/><path d="m200 80h20v20h-20z" fill="none"/><path d="m220 80h20v20h-20z" fill="#000" stroke="none"/><path d="m220 80h20v20h-20z" fill="none"/><path d="m240 80h20v20h-20z" fill="#000" stroke="none"/><path d="m240 80h20v20h-20z" fill="none"/><path d="m260 80h20v20h-20z" fill="#000" stroke="none"/><path d="m260 80h20v20h-20z" fill="none"/><path d="m280 80h20v20h-20z" fill="#000" stroke="none"/><path d="m280 80h20v20h-20z" fill="none"/><path d="m300 80h20v20h-20z" fill="#000" stroke="none"/><path d="m300 80h20v20h-20z" fill="none"/><path d="m320 80h20v20h-20z" fill="#000" stroke="none"/><path d="m320 80h20v20h-20z" fill="none"/><path d="m340 80h20v20h-20z" fill="#000" stroke="none"/><path d="m340 80h20v20h-20z" fill="none"/><path d="m360 80h20v20h-20z" fill="#000" stroke="none"/><path d="m360 80h20v20h-20z" fill="none"/><path d="m380 80h20v20h-20z" fill="#000" stroke="none"/><path d="m380 80h20v20h-20z" fill="none"/><path d="m400 80h20v20h-20z" fill="#000" stroke="none"/><path d="m400 80h20v20h-20z" fill="none"/><path d="m420 80h20v20h-20z" fill="#000" stroke="none"/><path d="m420 80h20v20h-20z" fill="none"/><path d="m180 100h20v20h-20z" fill="#000" stroke="none"/><path d="m180 100h20v20h-20z" fill="none"/><path d="m200 100h20v20h-20z" fill="#000" stroke="none"/><path d="m200 100h20v20h-20z" fill="none"/><path d="m220 100h20v20h-20z" fill="#000" stroke="none"/><path d="m220 100h20v20h-20z" fill="none"/><path d="m240 100h20v20h-20z" fill="#000" stroke="none"/><path d="m240 100h20v20h-20z" fill="none"/><path d="m260 100h20v20h-20z" fill="#000" stroke="none"/><path d="m260 100h20v20h-20z" fill="none"/><path d="m280 100h20v20h-20z" fill="#000" stroke="none"/><path d="m280 100h20v20h-20z" fill="none"/><path d="m300 100h20v20h-20z" fill="#000" stroke="none"/><path d="m300 100h20v20h-20z" fill="none"/><path d="m320 100h20v20h-20z" fill="#000" stroke="none"/><path d="m320 100h20v20h-20z" fill="none"/><path d="m340 100h20v20h-20z" fill="#000" stroke="none"/><path d="m340 100h20v20h-20z" fill="none"/><path d="m360 100h20v20h-20z" fill="#000" stroke="none"/><path d="m360 100h20v20h-20z" fill="none"/><path d="m380 100h20v20h-20z" fill="#000" stroke="none"/><path d="m380 100h20v20h-20z" fill="none"/><path d="m400 100h20v20h-20z" fill="#000" stroke="none"/><path d="m400 100h20v20h-20z" fill="none"/><path d="m420 100h20v20h-20z" fill="#000" stroke="none"/><path d="m420 100h20v20h-20z" fill="none"/><path d="m180 120h20v20h-20z" fill="#000" stroke="none"/><path d="m180 120h20v20h-20z" fill="none"/><path d="m200 120h20v20h-20z" fill="#000" stroke="none"/><path d="m200 120h20v20h-20z" fill="none"/><path d="m220 120h20v20h-20z" fill="#000" stroke="none"/><path d="m220 120h20v20h-20z" fill="none"/><path d="m240 120h20v20h-20z" fill="#000" stroke="none"/><path d="m240 120h20v20h-20z" fill="none"/><path d="m260 120h20v20h-20z" fill="#000" stroke="none"/><path d="m260 120h20v20h-20z" fill="none"/><path d="m280 120h20v20h-20z" fill="#000" stroke="none"/><path d="m280 120h20v20h-20z" fill="none"/><path d="m300 120h20v20h-20z" fill="#000" stroke="none"/><path d="m300 120h20v20h-20z" fill="none"/><path d="m320 120h20v20h-20z" fill="#000" stroke="none"/><path d="m320 120h20v20h-20z" fill="none"/><path d="m340 120h20v20h-20z" fill="#000" stroke="none"/><path d="m340 120h20v20h-20z" fill="none"/><path d="m360 120h20v20h-20z" fill="#000" stroke="none"/><path d="m360 120h20v20h-20z" fill="none"/><path d="m380 120h20v20h-20z" fill="#000" stroke="none"/><path d="m380 120h20v20h-20z" fill="none"/><path d="m400 120h20v20h-20z" fill="#000" stroke="none"/><path d="m400 120h20v20h-20z" fill="none"/><path d="m420 120h20v20h-20z" fill="#000" stroke="none"/><path d="m420 120h20v20h-20z" fill="none"/><path d="m180 140h20v20h-20z" fill="#000" stroke="none"/><path d="m180 140h20v20h-20z" fill="none"/><path d="m200 140h20v20h-20z" fill="#000" stroke="none"/><path d="m200 140h20v20h-20z" fill="none"/><path d="m220 140h20v20h-20z" fill="#000" stroke="none"/><path d="m220 140h20v20h-20z" fill="none"/><path d="m240 140h20v20h-20z" fill="#000" stroke="none"/><path d="m240 140h20v20h-20z" fill="none"/><path d="m260 140h20v20h-20z" fill="#000" stroke="none"/><path d="m260 140h20v20h-20z" fill="none"/><path d="m280 140h20v20h-20z" fill="#000" stroke="none"/><path d="m280 140h20v20h-20z" fill="none"/><path d="m300 140h20v20h-20z" fill="#000" stroke="none"/><path d="m300 140h20v20h-20z" fill="none"/><path d="m320 140h20v20h-20z" fill="#000" stroke="none"/><path d="m320 140h20v20h-20z" fill="none"/><path d="m340 140h20v20h-20z" fill="#000" stroke="none"/><path d="m340 140h20v20h-20z" fill="none"/><path d="m360 140h20v20h-20z" fill="#000" stroke="none"/><path d="m360 140h20v20h-20z" fill="none"/><path d="m380 140h20v20h-20z" fill="#000" stroke="none"/><path d="m380 140h20v20h-20z" fill="none"/><path d="m400 140h20v20h-20z" fill="#000" stroke="none"/><path d="m400 140h20v20h-20z" fill="none"/><path d="m420 140h20v20h-20z" fill="#000" stroke="none"/><path d="m420 140h20v20h-20z" fill="none"/><path d="m180 160h20v20h-20z" fill="#000" stroke="none"/><path d="m180 160h20v20h-20z" fill="none"/><path d="m200 160h20v20h-20z" fill="#000" stroke="none"/><path d="m200 160h20v20h-20z" fill="none"/><path d="m220 160h20v20h-20z" fill="#000" stroke="none"/><path d="m220 160h20v20h-20z" fill="none"/><path d="m240 160h20v20h-20z" fill="#000" stroke="none"/><path d="m240 160h20v20h-20z" fill="none"/><path d="m260 160h20v20h-20z" fill="#000" stroke="none"/><path d="m260 160h20v20h-20z" fill="none"/><path d="m280 160h20v20h-20z" fill="#000" stroke="none"/><path d="m280 160h20v20h-20z" fill="none"/><path d="m300 160h20v20h-20z" fill="#000" stroke="none"/><path d="m300 160h20v20h-20z" fill="none"/><path d="m320 160h20v20h-20z" fill="#000" stroke="none"/><path d="m320 160h20v20h-20z" fill="none"/><path d="m340 160h20v20h-20z" fill="#000" stroke="none"/><path d="m340 160h20v20h-20z" fill="none"/><path d="m360 160h20v20h-20z" fill="#000" stroke="none"/><path d="m360 160h20v20h-20z" fill="none"/><path d="m380 160h20v20h-20z" fill="#000" stroke="none"/><path d="m380 160h20v20h-20z" fill="none"/><path d="m400 160h20v20h-20z" fill="#000" stroke="none"/><path d="m400 160h20v20h-20z" fill="none"/><path d="m420 160h20v20h-20z" fill="#000" stroke="none"/><path d="m420 160h20v20h-20z" fill="none"/><path d="m180 180h20v20h-20z" fill="#000" stroke="none"/><path d="m180 180h20v20h-20z" fill="none"/><path d="m200 180h20v20h-20z" fill="#f0f0f0" stroke="none"/><path d="m200 180h20v20h-20z" fill="none"/><path d="m220 180h20v20h-20z" fill="#f0f0f0" stroke="none"/><path d="m220 180h20v20h-20z" fill="none"/><path d="m240 180h20v20h-20z" fill="#f0f0f0" stroke="none"/><path d="m240 180h20v20h-20z" fill="none"/><path d="m260 180h20v20h-20z" fill="#000" stroke="none"/><path d="m260 180h20v20h-20z" fill="none"/><path d="m280 180h20v20h-20z" fill="#000" stroke="none"/><path d="m280 180h20v20h-20z" fill="none"/><path d="m300 180h20v20h-20z" fill="#f0f0f0" stroke="none"/><path d="m300 180h20v20h-20z" fill="none"/><path d="m320 180h20v20h-20z" fill="#000" stroke="none"/><path d="m320 180h20v20h-20z" fill="none"/><path d="m340 180h20v20h-20z" fill="#f0f0f0" stroke="none"/><path d="m340 180h20v20h-20z" fill="none"/><path d="m360 180h20v20h-20z" fill="#000" stroke="none"/><path d="m360 180h20v20h-20z" fill="none"/><path d="m380 180h20v20h-20z" fill="#f0f0f0" stroke="none"/><path d="m380 180h20v20h-20z" fill="none"/><path d="m400 180h20v20h-20z" fill="#000" stroke="none"/><path d="m400 180h20v20h-20z" fill="none"/><path d="m420 180h20v20h-20z" fill="#000" stroke="none"/><path d="m420 180h20v20h-20z" fill="none"/><path d="m180 200h20v20h-20z" fill="#000" stroke="none"/><path d="m180 200h20v20h-20z" fill="none"/><path d="m200 200h20v20h-20z" fill="#f0f0f0" stroke="none"/><path d="m200 200h20v20h-20z" fill="none"/><path d="m220 200h20v20h-20z" fill="#000" stroke="none"/><path d="m220 200h20v20h-20z" fill="none"/><path d="m240 200h20v20h-20z" fill="#000" stroke="none"/><path d="m240 200h20v20h-20z" fill="none"/><path d="m260 200h20v20h-20z" fill="#f0f0f0" stroke="none"/><path d="m260 200h20v20h-20z" fill="none"/><path d="m280 200h20v20h-20z" fill="#f0f0f0" stroke="none"/><path d="m280 200h20v20h-20z" fill="none"/><path d="m300 200h20v20h-20z" fill="#000" stroke="none"/><path d="m300 200h20v20h-20z" fill="none"/><path d="m320 200h20v20h-20z" fill="#f0f0f0" stroke="none"/><path d="m320 200h20v20h-20z" fill="none"/><path d="m340 200h20v20h-20z" fill="#f0f0f0" stroke="none"/><path d="m340 200h20v20h-20z" fill="none"/><path d="m360 200h20v20h-20z" fill="#f0f0f0" stroke="none"/><path d="m360 200h20v20h-20z" fill="none"/><path d="m380 200h20v20h-20z" fill="#f0f0f0" stroke="none"/><path d="m380 200h20v20h-20z" fill="none"/><path d="m400 200h20v20h-20z" fill="#f0f0f0" stroke="none"/><path d="m400 200h20v20h-20z" fill="none"/><path d="m420 200h20v20h-20z" fill="#000" stroke="none"/><path d="m420 200h20v20h-20z" fill="none"/><path d="m180 220h20v20h-20z" fill="#000" stroke="none"/><path d="m180 220h20v20h-20z" fill="none"/><path d="m200 220h20v20h-20z" fill="#000" stroke="none"/><path d="m200 220h20v20h-20z" fill="none"/><path d="m220 220h20v20h-20z" fill="#000" stroke="none"/><path d="m220 220h20v20h-20z" fill="none"/><path d="m240 220h20v20h-20z" fill="#000" stroke="none"/><path d="m240 220h20v20h-20z" fill="none"/><path d="m260 220h20v20h-20z" fill="#000" stroke="none"/><path d="m260 220h20v20h-20z" fill="none"/><path d="m280 220h20v20h-20z" fill="#000" stroke="none"/><path d="m280 220h20v20h-20z" fill="none"/><path d="m300 220h20v20h-20z" fill="#000" stroke="none"/><path d="m300 220h20v20h-20z" fill="none"/><path d="m320 220h20v20h-20z" fill="#000" stroke="none"/><path d="m320 220h20v20h-20z" fill="none"/><path d="m340 220h20v20h-20z" fill="#000" stroke="none"/><path d="m340 220h20v20h-20z" fill="none"/><path d="m360 220h20v20h-20z" fill="#000" stroke="none"/><path d="m360 220h20v20h-20z" fill="none"/><path d="m380 220h20v20h-20z" fill="#000" stroke="none"/><path d="m380 220h20v20h-20z" fill="none"/><path d="m400 220h20v20h-20z" fill="#000" stroke="none"/><path d="m400 220h20v20h-20z" fill="none"/><path d="m420 220h20v20h-20z" fill="#000" stroke="none"/><path d="m420 220h20v20h-20z" fill="none"/><path d="m180 240h20v20h-20z" fill="#f0f0f0" stroke="none"/><path d="m180 240h20v20h-20z" fill="none"/><path d="m200 240h20v20h-20z" fill="#f0f0f0" stroke="none"/><path d="m200 240h20v20h-20z" fill="none"/><path d="m220 240h20v20h-20z" fill="#000" stroke="none"/><path d="m220 240h20v20h-20z" fill="none"/><path d="m240 240h20v20h-20z" fill="#000" stroke="none"/><path d="m240 240h20v20h-20z" fill="none"/><path d="m260 240h20v20h-20z" fill="#000" stroke="none"/><path d="m260 240h20v20h-20z" fill="none"/><path d="m280 240h20v20h-20z" fill="#f0f0f0" stroke="none"/><path d="m280 240h20v20h-20z" fill="none"/><path d="m300 240h20v20h-20z" fill="#f0f0f0" stroke="none"/><path d="m300 240h20v20h-20z" fill="none"/><path d="m320 240h20v20h-20z" fill="#f0f0f0" stroke="none"/><path d="m320 240h20v20h-20z" fill="none"/><path d="m340 240h20v20h-20z" fill="#000" stroke="none"/><path d="m340 240h20v20h-20z" fill="none"/><path d="m360 240h20v20h-20z" fill="#000" stroke="none"/><path d="m360 240h20v20h-20z" fill="none"/><path d="m380 240h20v20h-20z" fill="#000" stroke="none"/><path d="m380 240h20v20h-20z" fill="none"/><path d="m400 240h20v20h-20z" fill="#f0f0f0" stroke="none"/><path d="m400 240h20v20h-20z" fill="none"/><path d="m420 240h20v20h-20z" fill="#f0f0f0" stroke="none"/><path d="m420 240h20v20h-20z" fill="none"/><path d="m180 260h20v20h-20z" fill="#f0f0f0" stroke="none"/><path d="m180 260h20v20h-20z" fill="none"/><path d="m200 260h20v20h-20z" fill="#f0f0f0" stroke="none"/><path d="m200 260h20v20h-20z" fill="none"/><path d="m220 260h20v20h-20z" fill="#f0f0f0" stroke="none"/><path d="m220 260h20v20h-20z" fill="none"/><path d="m240 260h20v20h-20z" fill="#000" stroke="none"/><path d="m240 260h20v20h-20z" fill="none"/><path d="m260 260h20v20h-20z" fill="#000" stroke="none"/><path d="m260 260h20v20h-20z" fill="none"/><path d="m280 260h20v20h-20z" fill="#f0f0f0" stroke="none"/><path d="m280 260h20v20h-20z" fill="none"/><path d="m300 260h20v20h-20z" fill="#f0f0f0" stroke="none"/><path d="m300 260h20v20h-20z" fill="none"/><path d="m320 260h20v20h-20z" fill="#f0f0f0" stroke="none"/><path d="m320 260h20v20h-20z" fill="none"/><path d="m340 260h20v20h-20z" fill="#000" stroke="none"/><path d="m340 260h20v20h-20z" fill="none"/><path d="m360 260h20v20h-20z" fill="#000" stroke="none"/><path d="m360 260h20v20h-20z" fill="none"/><path d="m380 260h20v20h-20z" fill="#f0f0f0" stroke="none"/><path d="m380 260h20v20h-20z" fill="none"/><path d="m400 260h20v20h-20z" fill="#f0f0f0" stroke="none"/><path d="m400 260h20v20h-20z" fill="none"/><path d="m420 260h20v20h-20z" fill="#f0f0f0" stroke="none"/><path d="m420 260h20v20h-20z" fill="none"/><path d="m180 280h20v20h-20z" fill="#f0f0f0" stroke="none"/><path d="m180 280h20v20h-20z" fill="none"/><path d="m200 280h20v20h-20z" fill="#f0f0f0" stroke="none"/><path d="m200 280h20v20h-20z" fill="none"/><path d="m220 280h20v20h-20z" fill="#f0f0f0" stroke="none"/><path d="m220 280h20v20h-20z" fill="none"/><path d="m240 280h20v20h-20z" fill="#f0f0f0" stroke="none"/><path d="m240 280h20v20h-20z" fill="none"/><path d="m260 280h20v20h-20z" fill="#000" stroke="none"/><path d="m260 280h20v20h-20z" fill="none"/><path d="m280 280h20v20h-20z" fill="#000" stroke="none"/><path d="m280 280h20v20h-20z" fill="none"/><path d="m300 280h20v20h-20z" fill="#000" stroke="none"/><path d="m300 280h20v20h-20z" fill="none"/><path d="m320 280h20v20h-20z" fill="#000" stroke="none"/><path d="m320 280h20v20h-20z" fill="none"/><path d="m340 280h20v20h-20z" fill="#000" stroke="none"/><path d="m340 280h20v20h-20z" fill="none"/><path d="m360 280h20v20h-20z" fill="#f0f0f0" stroke="none"/><path d="m360 280h20v20h-20z" fill="none"/><path d="m380 280h20v20h-20z" fill="#f0f0f0" stroke="none"/><path d="m380 280h20v20h-20z" fill="none"/><path d="m400 280h20v20h-20z" fill="#f0f0f0" stroke="none"/><path d="m400 280h20v20h-20z" fill="none"/><path d="m420 280h20v20h-20z" fill="#f0f0f0" stroke="none"/><path d="m420 280h20v20h-20z" fill="none"/><path d="m180 300h20v20h-20z" fill="#f0f0f0" stroke="none"/><path d="m180 300h20v20h-20z" fill="none"/><path d="m200 300h20v20h-20z" fill="#f0f0f0" stroke="none"/><path d="m200 300h20v20h-20z" fill="none"/><path d="m220 300h20v20h-20z" fill="#f0f0f0" stroke="none"/><path d="m220 300h20v20h-20z" fill="none"/><path d="m240 300h20v20h-20z" fill="#f0f0f0" stroke="none"/><path d="m240 300h20v20h-20z" fill="none"/><path d="m260 300h20v20h-20z" fill="#f0f0f0" stroke="none"/><path d="m260 300h20v20h-20z" fill="none"/><path d="m280 300h20v20h-20z" fill="#f0f0f0" stroke="none"/><path d="m280 300h20v20h-20z" fill="none"/><path d="m300 300h20v20h-20z" fill="#f0f0f0" stroke="none"/><path d="m300 300h20v20h-20z" fill="none"/><path d="m320 300h20v20h-20z" fill="#f0f0f0" stroke="none"/><path d="m320 300h20v20h-20z" fill="none"/><path d="m340 300h20v20h-20z" fill="#f0f0f0" stroke="none"/><path d="m340 300h20v20h-20z" fill="none"/><path d="m360 300h20v20h-20z" fill="#f0f0f0" stroke="none"/><path d="m360 300h20v20h-20z" fill="none"/><path d="m380 300h20v20h-20z" fill="#f0f0f0" stroke="none"/><path d="m380 300h20v20h-20z" fill="none"/><path d="m400 300h20v20h-20z" fill="#f0f0f0" stroke="none"/><path d="m400 300h20v20h-20z" fill="none"/><path d="m420 300h20v20h-20z" fill="#f0f0f0" stroke="none"/><path d="m420 300h20v20h-20z" fill="none"/><path d="m180 320h20v20h-20z" fill="#f0f0f0" stroke="none"/><path d="m180 320h20v20h-20z" fill="none"/><path d="m200 320h20v20h-20z" fill="#000" stroke="none"/><path d="m200 320h20v20h-20z" fill="none"/><path d="m220 320h20v20h-20z" fill="#f0f0f0" stroke="none"/><path d="m220 320h20v20h-20z" fill="none"/><path d="m240 320h20v20h-20z" fill="#000" stroke="none"/><path d="m240 320h20v20h-20z" fill="none"/><path d="m260 320h20v20h-20z" fill="#000" stroke="none"/><path d="m260 320h20v20h-20z" fill="none"/><path d="m280 320h20v20h-20z" fill="#f0f0f0" stroke="none"/><path d="m280 320h20v20h-20z" fill="none"/><path d="m300 320h20v20h-20z" fill="#000" stroke="none"/><path d="m300 320h20v20h-20z" fill="none"/><path d="m320 320h20v20h-20z" fill="#000" stroke="none"/><path d="m320 320h20v20h-20z" fill="none"/><path d="m340 320h20v20h-20z" fill="#f0f0f0" stroke="none"/><path d="m340 320h20v20h-20z" fill="none"/><path d="m360 320h20v20h-20z" fill="#000" stroke="none"/><path d="m360 320h20v20h-20z" fill="none"/><path d="m380 320h20v20h-20z" fill="#f0f0f0" stroke="none"/><path d="m380 320h20v20h-20z" fill="none"/><path d="m400 320h20v20h-20z" fill="#000" stroke="none"/><path d="m400 320h20v20h-20z" fill="none"/><path d="m420 320h20v20h-20z" fill="#f0f0f0" stroke="none"/><path d="m420 320h20v20h-20z" fill="none"/><path d="m180 340h20v20h-20z" fill="#f0f0f0" stroke="none"/><path d="m180 340h20v20h-20z" fill="none"/><path d="m200 340h20v20h-20z" fill="#000" stroke="none"/><path d="m200 340h20v20h-20z" fill="none"/><path d="m220 340h20v20h-20z" fill="#000" stroke="none"/><path d="m220 340h20v20h-20z" fill="none"/><path d="m240 340h20v20h-20z" fill="#000" stroke="none"/><path d="m240 340h20v20h-20z" fill="none"/><path d="m260 340h20v20h-20z" fill="#f0f0f0" stroke="none"/><path d="m260 340h20v20h-20z" fill="none"/><path d="m280 340h20v20h-20z" fill="#000" stroke="none"/><path d="m280 340h20v20h-20z" fill="none"/><path d="m300 340h20v20h-20z" fill="#f0f0f0" stroke="none"/><path d="m300 340h20v20h-20z" fill="none"/><path d="m320 340h20v20h-20z" fill="#000" stroke="none"/><path d="m320 340h20v20h-20z" fill="none"/><path d="m340 340h20v20h-20z" fill="#000" stroke="none"/><path d="m340 340h20v20h-20z" fill="none"/><path d="m360 340h20v20h-20z" fill="#000" stroke="none"/><path d="m360 340h20v20h-20z" fill="none"/><path d="m380 340h20v20h-20z" fill="#000" stroke="none"/><path d="m380 340h20v20h-20z" fill="none"/><path d="m400 340h20v20h-20z" fill="#f0f0f0" stroke="none"/><path d="m400 340h20v20h-20z" fill="none"/><path d="m420 340h20v20h-20z" fill="#f0f0f0" stroke="none"/><path d="m420 340h20v20h-20z" fill="none"/><path d="m180 360h20v20h-20z" fill="#f0f0f0" stroke="none"/><path d="m180 360h20v20h-20z" fill="none"/><path d="m200 360h20v20h-20z" fill="#000" stroke="none"/><path d="m200 360h20v20h-20z" fill="none"/><path d="m220 360h20v20h-20z" fill="#f0f0f0" stroke="none"/><path d="m220 360h20v20h-20z" fill="none"/><path d="m240 360h20v20h-20z" fill="#000" stroke="none"/><path d="m240 360h20v20h-20z" fill="none"/><path d="m260 360h20v20h-20z" fill="#f0f0f0" stroke="none"/><path d="m260 360h20v20h-20z" fill="none"/><path d="m280 360h20v20h-20z" fill="#000" stroke="none"/><path d="m280 360h20v20h-20z" fill="none"/><path d="m300 360h20v20h-20z" fill="#f0f0f0" stroke="none"/><path d="m300 360h20v20h-20z" fill="none"/><path d="m320 360h20v20h-20z" fill="#000" stroke="none"/><path d="m320 360h20v20h-20z" fill="none"/><path d="m340 360h20v20h-20z" fill="#000" stroke="none"/><path d="m340 360h20v20h-20z" fill="none"/><path d="m360 360h20v20h-20z" fill="#000" stroke="none"/><path d="m360 360h20v20h-20z" fill="none"/><path d="m380 360h20v20h-20z" fill="#f0f0f0" stroke="none"/><path d="m380 360h20v20h-20z" fill="none"/><path d="m400 360h20v20h-20z" fill="#000" stroke="none"/><path d="m400 360h20v20h-20z" fill="none"/><path d="m420 360h20v20h-20z" fill="#f0f0f0" stroke="none"/><path d="m420 360h20v20h-20z" fill="none"/><path d="m180 380h20v20h-20z" fill="#f0f0f0" stroke="none"/><path d="m180 380h20v20h-20z" fill="none"/><path d="m200 380h20v20h-20z" fill="#f0f0f0" stroke="none"/><path d="m200 380h20v20h-20z" fill="none"/><path d="m220 380h20v20h-20z" fill="#f0f0f0" stroke="none"/><path d="m220 380h20v20h-20z" fill="none"/><path d="m240 380h20v20h-20z" fill="#f0f0f0" stroke="none"/><path d="m240 380h20v20h-20z" fill="none"/><path d="m260 380h20v20h-20z" fill="#f0f0f0" stroke="none"/><path d="m260 380h20v20h-20z" fill="none"/><path d="m280 380h20v20h-20z" fill="#f0f0f0" stroke="none"/><path d="m280 380h20v20h-20z" fill="none"/><path d="m300 380h20v20h-20z" fill="#f0f0f0" stroke="none"/><path d="m300 380h20v20h-20z" fill="none"/><path d="m320 380h20v20h-20z" fill="#f0f0f0" stroke="none"/><path d="m320 380h20v20h-20z" fill="none"/><path d="m340 380h20v20h-20z" fill="#f0f0f0" stroke="none"/><path d="m340 380h20v20h-20z" fill="none"/><path d="m360 380h20v20h-20z" fill="#f0f0f0" stroke="none"/><path d="m360 380h20v20h-20z" fill="none"/><path d="m380 380h20v20h-20z" fill="#f0f0f0" stroke="none"/><path d="m380 380h20v20h-20z" fill="none"/><path d="m400 380h20v20h-20z" fill="#f0f0f0" stroke="none"/><path d="m400 380h20v20h-20z" fill="none"/><path d="m420 380h20v20h-20z" fill="#f0f0f0" stroke="none"/><path d="m420 380h20v20h-20z" fill="none"/><path d="m180 400h20v20h-20z" fill="#f0f0f0" stroke="none"/><path d="m180 400h20v20h-20z" fill="none"/><path d="m200 400h20v20h-20z" fill="#f0f0f0" stroke="none"/><path d="m200 400h20v20h-20z" fill="none"/><path d="m220 400h20v20h-20z" fill="#f0f0f0" stroke="none"/><path d="m220 400h20v20h-20z" fill="none"/><path d="m240 400h20v20h-20z" fill="#f0f0f0" stroke="none"/><path d="m240 400h20v20h-20z" fill="none"/><path d="m260 400h20v20h-20z" fill="#f0f0f0" stroke="none"/><path d="m260 400h20v20h-20z" fill="none"/><path d="m280 400h20v20h-20z" fill="#f0f0f0" stroke="none"/><path d="m280 400h20v20h-20z" fill="none"/><path d="m300 400h20v20h-20z" fill="#f0f0f0" stroke="none"/><path d="m300 400h20v20h-20z" fill="none"/><path d="m320 400h20v20h-20z" fill="#f0f0f0" stroke="none"/><path d="m320 400h20v20h-20z" fill="none"/><path d="m340 400h20v20h-20z" fill="#f0f0f0" stroke="none"/><path d="m340 400h20v20h-20z" fill="none"/><path d="m360 400h20v20h-20z" fill="#f0f0f0" stroke="none"/><path d="m360 400h20v20h-20z" fill="none"/><path d="m380 400h20v20h-20z" fill="#f0f0f0" stroke="none"/><path d="m380 400h20v20h-20z" fill="none"/><path d="m400 400h20v20h-20z" fill="#f0f0f0" stroke="none"/><path d="m400 400h20v20h-20z" fill="none"/><path d="m420 400h20v20h-20z" fill="#f0f0f0" stroke="none"/><path d="m420 400h20v20h-20z" fill="none"/><path d="m180 420h20v20h-20z" fill="#f0f0f0" stroke="none"/><path d="m180 420h20v20h-20z" fill="none"/><path d="m200 420h20v20h-20z" fill="#f0f0f0" stroke="none"/><path d="m200 420h20v20h-20z" fill="none"/><path d="m220 420h20v20h-20z" fill="#f0f0f0" stroke="none"/><path d="m220 420h20v20h-20z" fill="none"/><path d="m240 420h20v20h-20z" fill="#f0f0f0" stroke="none"/><path d="m240 420h20v20h-20z" fill="none"/><path d="m260 420h20v20h-20z" fill="#f0f0f0" stroke="none"/><path d="m260 420h20v20h-20z" fill="none"/><path d="m280 420h20v20h-20z" fill="#f0f0f0" stroke="none"/><path d="m280 420h20v20h-20z" fill="none"/><path d="m300 420h20v20h-20z" fill="#f0f0f0" stroke="none"/><path d="m300 420h20v20h-20z" fill="none"/><path d="m320 420h20v20h-20z" fill="#f0f0f0" stroke="none"/><path d="m320 420h20v20h-20z" fill="none"/><path d="m340 420h20v20h-20z" fill="#f0f0f0" stroke="none"/><path d="m340 420h20v20h-20z" fill="none"/><path d="m360 420h20v20h-20z" fill="#f0f0f0" stroke="none"/><path d="m360 420h20v20h-20z" fill="none"/><path d="m380 420h20v20h-20z" fill="#f0f0f0" stroke="none"/><path d="m380 420h20v20h-20z" fill="none"/><path d="m400 420h20v20h-20z" fill="#f0f0f0" stroke="none"/><path d="m400 420h20v20h-20z" fill="none"/><path d="m420 420h20v20h-20z" fill="#f0f0f0" stroke="none"/><path d="m420 420h20v20h-20z" fill="none"/><path d="m180 440h20v20h-20z" fill="#000" stroke="none"/><path d="m180 440h20v20h-20z" fill="none"/><path d="m200 440h20v20h-20z" fill="#000" stroke="none"/><path d="m200 440h20v20h-20z" fill="none"/><path d="m220 440h20v20h-20z" fill="#000" stroke="none"/><path d="m220 440h20v20h-20z" fill="none"/><path d="m240 440h20v20h-20z" fill="#f0f0f0" stroke="none"/><path d="m240 440h20v20h-20z" fill="none"/><path d="m260 440h20v20h-20z" fill="#f0f0f0" stroke="none"/><path d="m260 440h20v20h-20z" fill="none"/><path d="m280 440h20v20h-20z" fill="#f0f0f0" stroke="none"/><path d="m280 440h20v20h-20z" fill="none"/><path d="m300 440h20v20h-20z" fill="#f0f0f0" stroke="none"/><path d="m300 440h20v20h-20z" fill="none"/><path d="m320 440h20v20h-20z" fill="#f0f0f0" stroke="none"/><path d="m320 440h20v20h-20z" fill="none"/><path d="m340 440h20v20h-20z" fill="#f0f0f0" stroke="none"/><path d="m340 440h20v20h-20z" fill="none"/><path d="m360 440h20v20h-20z" fill="#f0f0f0" stroke="none"/><path d="m360 440h20v20h-20z" fill="none"/><path d="m380 440h20v20h-20z" fill="#000" stroke="none"/><path d="m380 440h20v20h-20z" fill="none"/><path d="m400 440h20v20h-20z" fill="#000" stroke="none"/><path d="m400 440h20v20h-20z" fill="none"/><path d="m420 440h20v20h-20z" fill="#000" stroke="none"/><path d="m420 440h20v20h-20z" fill="none"/><path d="m180 460h20v20h-20z" fill="#000" stroke="none"/><path d="m180 460h20v20h-20z" fill="none"/><path d="m200 460h20v20h-20z" fill="#000" stroke="none"/><path d="m200 460h20v20h-20z" fill="none"/><path d="m220 460h20v20h-20z" fill="#000" stroke="none"/><path d="m220 460h20v20h-20z" fill="none"/><path d="m240 460h20v20h-20z" fill="#000" stroke="none"/><path d="m240 460h20v20h-20z" fill="none"/><path d="m260 460h20v20h-20z" fill="#f0f0f0" stroke="none"/><path d="m260 460h20v20h-20z" fill="none"/><path d="m280 460h20v20h-20z" fill="#f0f0f0" stroke="none"/><path d="m280 460h20v20h-20z" fill="none"/><path d="m300 460h20v20h-20z" fill="#f0f0f0" stroke="none"/><path d="m300 460h20v20h-20z" fill="none"/><path d="m320 460h20v20h-20z" fill="#f0f0f0" stroke="none"/><path d="m320 460h20v20h-20z" fill="none"/><path d="m340 460h20v20h-20z" fill="#f0f0f0" stroke="none"/><path d="m340 460h20v20h-20z" fill="none"/><path d="m360 460h20v20h-20z" fill="#000" stroke="none"/><path d="m360 460h20v20h-20z" fill="none"/><path d="m380 460h20v20h-20z" fill="#000" stroke="none"/><path d="m380 460h20v20h-20z" fill="none"/><path d="m400 460h20v20h-20z" fill="#000" stroke="none"/><path d="m400 460h20v20h-20z" fill="none"/><path d="m420 460h20v20h-20z" fill="#000" stroke="none"/><path d="m420 460h20v20h-20z" fill="none"/><path d="m180 480h20v20h-20z" fill="#000" stroke="none"/><path d="m180 480h20v20h-20z" fill="none"/><path d="m200 480h20v20h-20z" fill="#000" stroke="none"/><path d="m200 480h20v20h-20z" fill="none"/><path d="m220 480h20v20h-20z" fill="#000" stroke="none"/><path d="m220 480h20v20h-20z" fill="none"/><path d="m240 480h20v20h-20z" fill="#000" stroke="none"/><path d="m240 480h20v20h-20z" fill="none"/><path d="m260 480h20v20h-20z" fill="#000" stroke="none"/><path d="m260 480h20v20h-20z" fill="none"/><path d="m280 480h20v20h-20z" fill="#f0f0f0" stroke="none"/><path d="m280 480h20v20h-20z" fill="none"/><path d="m300 480h20v20h-20z" fill="#f0f0f0" stroke="none"/><path d="m300 480h20v20h-20z" fill="none"/><path d="m320 480h20v20h-20z" fill="#f0f0f0" stroke="none"/><path d="m320 480h20v20h-20z" fill="none"/><path d="m340 480h20v20h-20z" fill="#000" stroke="none"/><path d="m340 480h20v20h-20z" fill="none"/><path d="m360 480h20v20h-20z" fill="#000" stroke="none"/><path d="m360 480h20v20h-20z" fill="none"/><path d="m380 480h20v20h-20z" fill="#000" stroke="none"/><path d="m380 480h20v20h-20z" fill="none"/><path d="m400 480h20v20h-20z" fill="#000" stroke="none"/><path d="m400 480h20v20h-20z" fill="none"/><path d="m420 480h20v20h-20z" fill="#000" stroke="none"/><path d="m420 480h20v20h-20z" fill="none"/><path d="m180 500h20v20h-20z" fill="#000" stroke="none"/><path d="m180 500h20v20h-20z" fill="none"/><path d="m200 500h20v20h-20z" fill="#000" stroke="none"/><path d="m200 500h20v20h-20z" fill="none"/><path d="m220 500h20v20h-20z" fill="#000" stroke="none"/><path d="m220 500h20v20h-20z" fill="none"/><path d="m240 500h20v20h-20z" fill="#000" stroke="none"/><path d="m240 500h20v20h-20z" fill="none"/><path d="m260 500h20v20h-20z" fill="#000" stroke="none"/><path d="m260 500h20v20h-20z" fill="none"/><path d="m280 500h20v20h-20z" fill="#000" stroke="none"/><path d="m280 500h20v20h-20z" fill="none"/><path d="m300 500h20v20h-20z" fill="#000" stroke="none"/><path d="m300 500h20v20h-20z" fill="none"/><path d="m320 500h20v20h-20z" fill="#000" stroke="none"/><path d="m320 500h20v20h-20z" fill="none"/><path d="m340 500h20v20h-20z" fill="#000" stroke="none"/><path d="m340 500h20v20h-20z" fill="none"/><path d="m360 500h20v20h-20z" fill="#000" stroke="none"/><path d="m360 500h20v20h-20z" fill="none"/><path d="m380 500h20v20h-20z" fill="#000" stroke="none"/><path d="m380 500h20v20h-20z" fill="none"/><path d="m400 500h20v20h-20z" fill="#000" stroke="none"/><path d="m400 500h20v20h-20z" fill="none"/><path d="m420 500h20v20h-20z" fill="#000" stroke="none"/><path d="m420 500h20v20h-20z" fill="none"/><path d="m180 520h20v20h-20z" fill="#000" stroke="none"/><path d="m180 520h20v20h-20z" fill="none"/><path d="m200 520h20v20h-20z" fill="#000" stroke="none"/><path d="m200 520h20v20h-20z" fill="none"/><path d="m220 520h20v20h-20z" fill="#000" stroke="none"/><path d="m220 520h20v20h-20z" fill="none"/><path d="m240 520h20v20h-20z" fill="#f0f0f0" stroke="none"/><path d="m240 520h20v20h-20z" fill="none"/><path d="m260 520h20v20h-20z" fill="#000" stroke="none"/><path d="m260 520h20v20h-20z" fill="none"/><path d="m280 520h20v20h-20z" fill="#f0f0f0" stroke="none"/><path d="m280 520h20v20h-20z" fill="none"/><path d="m300 520h20v20h-20z" fill="#f0f0f0" stroke="none"/><path d="m300 520h20v20h-20z" fill="none"/><path d="m320 520h20v20h-20z" fill="#000" stroke="none"/><path d="m320 520h20v20h-20z" fill="none"/><path d="m340 520h20v20h-20z" fill="#f0f0f0" stroke="none"/><path d="m340 520h20v20h-20z" fill="none"/><path d="m360 520h20v20h-20z" fill="#000" stroke="none"/><path d="m360 520h20v20h-20z" fill="none"/><path d="m380 520h20v20h-20z" fill="#000" stroke="none"/><path d="m380 520h20v20h-20z" fill="none"/><path d="m400 520h20v20h-20z" fill="#000" stroke="none"/><path d="m400 520h20v20h-20z" fill="none"/><path d="m420 520h20v20h-20z" fill="#000" stroke="none"/><path d="m420 520h20v20h-20z" fill="none"/><path d="m180 540h20v20h-20z" fill="#f0f0f0" stroke="none"/><path d="m180 540h20v20h-20z" fill="none"/><path d="m200 540h20v20h-20z" fill="#f0f0f0" stroke="none"/><path d="m200 540h20v20h-20z" fill="none"/><path d="m220 540h20v20h-20z" fill="#000" stroke="none"/><path d="m220 540h20v20h-20z" fill="none"/><path d="m240 540h20v20h-20z" fill="#000" stroke="none"/><path d="m240 540h20v20h-20z" fill="none"/><path d="m260 540h20v20h-20z" fill="#f0f0f0" stroke="none"/><path d="m260 540h20v20h-20z" fill="none"/><path d="m280 540h20v20h-20z" fill="#000" stroke="none"/><path d="m280 540h20v20h-20z" fill="none"/><path d="m300 540h20v20h-20z" fill="#000" stroke="none"/><path d="m300 540h20v20h-20z" fill="none"/><path d="m320 540h20v20h-20z" fill="#f0f0f0" stroke="none"/><path d="m320 540h20v20h-20z" fill="none"/><path d="m340 540h20v20h-20z" fill="#000" stroke="none"/><path d="m340 540h20v20h-20z" fill="none"/><path d="m360 540h20v20h-20z" fill="#f0f0f0" stroke="none"/><path d="m360 540h20v20h-20z" fill="none"/><path d="m380 540h20v20h-20z" fill="#000" stroke="none"/><path d="m380 540h20v20h-20z" fill="none"/><path d="m400 540h20v20h-20z" fill="#f0f0f0" stroke="none"/><path d="m400 540h20v20h-20z" fill="none"/><path d="m420 540h20v20h-20z" fill="#f0f0f0" stroke="none"/><path d="m420 540h20v20h-20z" fill="none"/><path d="m180 560h20v20h-20z" fill="#f0f0f0" stroke="none"/><path d="m180 560h20v20h-20z" fill="none"/><path d="m200 560h20v20h-20z" fill="#f0f0f0" stroke="none"/><path d="m200 560h20v20h-20z" fill="none"/><path d="m220 560h20v20h-20z" fill="#f0f0f0" stroke="none"/><path d="m220 560h20v20h-20z" fill="none"/><path d="m240 560h20v20h-20z" fill="#000" stroke="none"/><path d="m240 560h20v20h-20z" fill="none"/><path d="m260 560h20v20h-20z" fill="#000" stroke="none"/><path d="m260 560h20v20h-20z" fill="none"/><path d="m280 560h20v20h-20z" fill="#000" stroke="none"/><path d="m280 560h20v20h-20z" fill="none"/><path d="m300 560h20v20h-20z" fill="#000" stroke="none"/><path d="m300 560h20v20h-20z" fill="none"/><path d="m320 560h20v20h-20z" fill="#000" stroke="none"/><path d="m320 560h20v20h-20z" fill="none"/><path d="m340 560h20v20h-20z" fill="#000" stroke="none"/><path d="m340 560h20v20h-20z" fill="none"/><path d="m360 560h20v20h-20z" fill="#000" stroke="none"/><path d="m360 560h20v20h-20z" fill="none"/><path d="m380 560h20v20h-20z" fill="#f0f0f0" stroke="none"/><path d="m380 560h20v20h-20z" fill="none"/><path d="m400 560h20v20h-20z" fill="#f0f0f0" stroke="none"/><path d="m400 560h20v20h-20z" fill="none"/><path d="m420 560h20v20h-20z" fill="#f0f0f0" stroke="none"/><path d="m420 560h20v20h-20z" fill="none"/><path d="m180 580h20v20h-20z" fill="#f0f0f0" stroke="none"/><path d="m180 580h20v20h-20z" fill="none"/><path d="m200 580h20v20h-20z" fill="#f0f0f0" stroke="none"/><path d="m200 580h20v20h-20z" fill="none"/><path d="m220 580h20v20h-20z" fill="#f0f0f0" stroke="none"/><path d="m220 580h20v20h-20z" fill="none"/><path d="m240 580h20v20h-20z" fill="#f0f0f0" stroke="none"/><path d="m240 580h20v20h-20z" fill="none"/><path d="m260 580h20v20h-20z" fill="#000" stroke="none"/><path d="m260 580h20v20h-20z" fill="none"/><path d="m280 580h20v20h-20z" fill="#000" stroke="none"/><path d="m280 580h20v20h-20z" fill="none"/><path d="m300 580h20v20h-20z" fill="#000" stroke="none"/><path d="m300 580h20v20h-20z" fill="none"/><path d="m320 580h20v20h-20z" fill="#000" stroke="none"/><path d="m320 580h20v20h-20z" fill="none"/><path d="m340 580h20v20h-20z" fill="#000" stroke="none"/><path d="m340 580h20v20h-20z" fill="none"/><path d="m360 580h20v20h-20z" fill="#f0f0f0" stroke="none"/><path d="m360 580h20v20h-20z" fill="none"/><path d="m380 580h20v20h-20z" fill="#f0f0f0" stroke="none"/><path d="m380 580h20v20h-20z" fill="none"/><path d="m400 580h20v20h-20z" fill="#f0f0f0" stroke="none"/><path d="m400 580h20v20h-20z" fill="none"/><path d="m420 580h20v20h-20z" fill="#f0f0f0" stroke="none"/><path d="m420 580h20v20h-20z" fill="none"/><path d="m180 600h20v20h-20z" fill="#f0f0f0" stroke="none"/><path d="m180 600h20v20h-20z" fill="none"/><path d="m200 600h20v20h-20z" fill="#f0f0f0" stroke="none"/><path d="m200 600h20v20h-20z" fill="none"/><path d="m220 600h20v20h-20z" fill="#f0f0f0" stroke="none"/><path d="m220 600h20v20h-20z" fill="none"/><path d="m240 600h20v20h-20z" fill="#f0f0f0" stroke="none"/><path d="m240 600h20v20h-20z" fill="none"/><path d="m260 600h20v20h-20z" fill="#f0f0f0" stroke="none"/><path d="m260 600h20v20h-20z" fill="none"/><path d="m280 600h20v20h-20z" fill="#f0f0f0" stroke="none"/><path d="m280 600h20v20h-20z" fill="none"/><path d="m300 600h20v20h-20z" fill="#f0f0f0" stroke="none"/><path d="m300 600h20v20h-20z" fill="none"/><path d="m320 600h20v20h-20z" fill="#f0f0f0" stroke="none"/><path d="m320 600h20v20h-20z" fill="none"/><path d="m340 600h20v20h-20z" fill="#f0f0f0" stroke="none"/><path d="m340 600h20v20h-20z" fill="none"/><path d="m360 600h20v20h-20z" fill="#f0f0f0" stroke="none"/><path d="m360 600h20v20h-20z" fill="none"/><path d="m380 600h20v20h-20z" fill="#f0f0f0" stroke="none"/><path d="m380 600h20v20h-20z" fill="none"/><path d="m400 600h20v20h-20z" fill="#f0f0f0" stroke="none"/><path d="m400 600h20v20h-20z" fill="none"/><path d="m420 600h20v20h-20z" fill="#f0f0f0" stroke="none"/><path d="m420 600h20v20h-20z" fill="none"/></g></svg>