<svg color-interpolation="auto" height="640" stroke="#000" stroke-linecap="square" stroke-miterlimit="10" width="640" xmlns="http://www.w3.org/2000/svg"><path d="m190 24.2099-6.4 11.0851h12.8z" stroke="none"/><g stroke-linecap="round"><path d="m210 24.2099-6.4 11.0851h12.8z" stroke="none"/><path d="m230 24.2099-6.4 11.0851h12.8z" stroke="none"/><path d="m250 24.2099-6.4 11.0851h12.8z" stroke="none"/><path d="m270 24.2099-6.4 11.0851h12.8z" stroke="none"/><path d="m290 24.2099-6.4 11.0851h12.8z" stroke="none"/><path d="m310 24.2099-6.4 11.0851h12.8z" stroke="none"/><path d="m330 24.2099-6.4 11.0851h12.8z" stroke="none"/><path d="m350 24.2099-6.4 11.0851h12.8z" stroke="none"/><path d="m370 24.2099-6.4 11.0851h12.8z" stroke="none"/><path d="m390 24.2099-6.4 11.0851h12.8z" stroke="none"/><path d="m403.6 23.6h12.8v12.8h-12.8z" fill="none" stroke-width="2"/><path d="m430 24.2099-6.4 11.0851h12.8z" stroke="none"/><path d="m190 44.2099-6.4 11.0851h12.8z" stroke="none"/><path d="m210 44.2099-6.4 11.0851h12.8z" stroke="none"/><path d="m230 44.2099-6.4 11.0851h12.8z" stroke="none"/><path d="m250 44.2099-6.4 11.0851h12.8z" stroke="none"/><path d="m270 44.2099-6.4 11.0851h12.8z" stroke="none"/><path d="m290 44.2099-6.4 11.0851h12.8z" stroke="none"/><path d="m310 44.2099-6.4 11.0851h12.8z" stroke="none"/><path d="m330 44.2099-6.4 11.0851h12.8z" stroke="none"/><path d="m350 44.2099-6.4 11.0851h12.8z" stroke="none"/><path d="m363.6 43.6h12.8v12.8h-12.8z" fill="none" stroke-width="2"/><path d="m383.6 43.6h12.8v12.8h-12.8z" fill="none" stroke-width="2"/><path d="m403.6 43.6h12.8v12.8h-12.8z" fill="none" stroke-width="2"/><path d="m423.6 43.6h12.8v12.8h-12.8z" fill="none" stroke-width="2"/><path d="m190 64.2099-6.4 11.0851h12.8z" stroke="none"/><path d="m210 64.2099-6.4 11.0851h12.8z" stroke="none"/><path d="m230 64.2099-6.4 11.0851h12.8z" stroke="none"/><path d="m250 64.2099-6.4 11.0851h12.8z" stroke="none"/><path d="m270 64.2099-6.4 11.0851h12.8z" stroke="none"/><path d="m290 64.2099-6.4 11.0851h12.8z" stroke="none"/><path d="m310 64.2099-6.4 11.0851h12.8z" stroke="none"/><path d="m330 64.2099-6.4 11.0851h12.8z" stroke="none"/><path d="m350 64.2099-6.4 11.0851h12.8z" stroke="none"/><path d="m370 64.2099-6.4 11.0851h12.8z" stroke="none"/><path d="m390 64.2099-6.4 11.0851h12.8z" stroke="none"/><path d="m403.6 63.6h12.8v12.8h-12.8z" fill="none" stroke-width="2"/><path d="m430 64.2099-6.4 11.0851h12.8z" stroke="none"/><g fill="none"><path d="m183.6 83.6h12.8v12.8h-12.8z" stroke-width="2"/><path d="m203.6 83.6h12.8v12.8h-12.8z" stroke-width="2"/><path d="m223.6 83.6h12.8v12.8h-12.8z" stroke-width="2"/><path d="m243.6 83.6h12.8v12.8h-12.8z" stroke-width="2"/><path d="m263.6 83.6h12.8v12.8h-12.8z" stroke-width="2"/><path d="m283.6 83.6h12.8v12.8h-12.8z" stroke-width="2"/><path d="m303.6 83.6h12.8v12.8h-12.8z" stroke-width="2"/><path d="m323.6 83.6h12.8v12.8h-12.8z" stroke-width="2"/><path d="m343.6 83.6h12.8v12.8h-12.8z" stroke-width="2"/><path d="m363.6 83.6h12.8v12.8h-12.8z" stroke-width="2"/><path d="m383.6 83.6h12.8v12.8h-12.8z" stroke-width="2"/><path d="m403.6 83.6h12.8v12.8h-12.8z" stroke-width="2"/><path d="m423.6 83.6h12.8v12.8h-12.8z" stroke-width="2"/><path d="m183.6 103.6h12.8v12.8h-12.8z" stroke-width="2"/><path d="m203.6 103.6h12.8v12.8h-12.8z" stroke-width="2"/><path d="m223.6 103.6h12.8v12.8h-12.8z" stroke-width="2"/><path d="m243.6 103.6h12.8v12.8h-12.8z" stroke-width="2"/><path d="m263.6 103.6h12.8v12.8h-12.8z" stroke-width="2"/><path d="m283.6 103.6h12.8v12.8h-12.8z" stroke-width="2"/><path d="m303.6 103.6h12.8v12.8h-12.8z" stroke-width="2"/><path d="m323.6 103.6h12.8v12.8h-12.8z" stroke-width="2"/><path d="m343.6 103.6h12.8v12.8h-12.8z" stroke-width="2"/><path d="m363.6 103.6h12.8v12.8h-12.8z" stroke-width="2"/><path d="m383.6 103.6h12.8v12.8h-12.8z" stroke-width="2"/><path d="m403.6 103.6h12.8v12.8h-12.8z" stroke-width="2"/><path d="m423.6 103.6h12.8v12.8h-12.8z" stroke-width="2"/><path d="m183.6 123.6h12.8v12.8h-12.8z" stroke-width="2"/><path d="m203.6 123.6h12.8v12.8h-12.8z" stroke-width="2"/><path d="m223.6 123.6h12.8v12.8h-12.8z" stroke-width="2"/><path d="m243.6 123.6h12.8v12.8h-12.8z" stroke-width="2"/><path d="m263.6 123.6h12.8v12.8h-12.8z" stroke-width="2"/><path d="m283.6 123.6h12.8v12.8h-12.8z" stroke-width="2"/><path d="m303.6 123.6h12.8v12.8h-12.8z" stroke-width="2"/><path d="m323.6 123.6h12.8v12.8h-12.8z" stroke-width="2"/><path d="m343.6 123.6h12.8v12.8h-12.8z" stroke-width="2"/><path d="m363.6 123.6h12.8v12.8h-12.8z" stroke-width="2"/><path d="m383.6 123.6h12.8v12.8h-12.8z" stroke-width="2"/><path d="m403.6 123.6h12.8v12.8h-12.8z" stroke-width="2"/><path d="m423.6 123.6h12.8v12.8h-12.8z" stroke-width="2"/><path d="m183.6 143.6h12.8v12.8h-12.8z" stroke-width="2"/><path d="m203.6 143.6h12.8v12.8h-12.8z" stroke-width="2"/><path d="m223.6 143.6h12.8v12.8h-12.8z" stroke-width="2"/><path d="m243.6 143.6h12.8v12.8h-12.8z" stroke-width="2"/><path d="m263.6 143.6h12.8v12.8h-12.8z" stroke-width="2"/><path d="m283.6 143.6h12.8v12.8h-12.8z" stroke-width="2"/><path d="m303.6 143.6h12.8v12.8h-12.8z" stroke-width="2"/><path d="m323.6 143.6h12.8v12.8h-12.8z" stroke-width="2"/><path d="m343.6 143.6h12.8v12.8h-12.8z" stroke-width="2"/><path d="m363.6 143.6h12.8v12.8h-12.8z" stroke-width="2"/><path d="m383.6 143.6h12.8v12.8h-12.8z" stroke-width="2"/><path d="m403.6 143.6h12.8v12.8h-12.8z" stroke-width="2"/><path d="m423.6 143.6h12.8v12.8h-12.8z" stroke-width="2"/><path d="m183.6 163.6h12.8v12.8h-12.8z" stroke-width="2"/><path d="m203.6 163.6h12.8v12.8h-12.8z" stroke-width="2"/><path d="m223.6 163.6h12.8v12.8h-12.8z" stroke-width="2"/><path d="m243.6 163.6h12.8v12.8h-12.8z" stroke-width="2"/><path d="m263.6 163.6h12.8v12.8h-12.8z" stroke-width="2"/><path d="m283.6 163.6h12.8v12.8h-12.8z" stroke-width="2"/><path d="m303.6 163.6h12.8v12.8h-12.8z" stroke-width="2"/><path d="m323.6 163.6h12.8v12.8h-12.8z" stroke-width="2"/><path d="m343.6 163.6h12.8v12.8h-12.8z" stroke-width="2"/><path d="m363.6 163.6h12.8v12.8h-12.8z" stroke-width="2"/><path d="m383.6 163.6h12.8v12.8h-12.8z" stroke-width="2"/><path d="m403.6 163.6h12.8v12.8h-12.8z" stroke-width="2"/><path d="m423.6 163.6h12.8v12.8h-12.8z" stroke-width="2"/><path d="m183.6 183.6h12.8v12.8h-12.8z" stroke-width="2"/></g><path d="m210 184.2099-6.4 11.0851h12.8z" stroke="none"/><path d="m230 184.2099-6.4 11.0851h12.8z" stroke="none"/><path d="m250 184.2099-6.4 11.0851h12.8z" stroke="none"/><path d="m263.6 183.6h12.8v12.8h-12.8z" fill="none" stroke-width="2"/><path d="m283.6 183.6h12.8v12.8h-12.8z" fill="none" stroke-width="2"/><path d="m310 184.2099-6.4 11.0851h12.8z" stroke="none"/><path d="m323.6 183.6h12.8v12.8h-12.8z" fill="none" stroke-width="2"/><path d="m350 184.2099-6.4 11.0851h12.8z" stroke="none"/><path d="m363.6 183.6h12.8v12.8h-12.8z" fill="none" stroke-width="2"/><path d="m390 184.2099-6.4 11.0851h12.8z" stroke="none"/><path d="m403.6 183.6h12.8v12.8h-12.8z" fill="none" stroke-width="2"/><path d="m423.6 183.6h12.8v12.8h-12.8z" fill="none" stroke-width="2"/><path d="m183.6 203.6h12.8v12.8h-12.8z" fill="none" stroke-width="2"/><path d="m210 204.2099-6.4 11.0851h12.8z" stroke="none"/><path d="m223.6 203.6h12.8v12.8h-12.8z" fill="none" stroke-width="2"/><path d="m243.6 203.6h12.8v12.8h-12.8z" fill="none" stroke-width="2"/><path d="m270 204.2099-6.4 11.0851h12.8z" stroke="none"/><path d="m290 204.2099-6.4 11.0851h12.8z" stroke="none"/><path d="m303.6 203.6h12.8v12.8h-12.8z" fill="none" stroke-width="2"/><path d="m330 204.2099-6.4 11.0851h12.8z" stroke="none"/><path d="m350 204.2099-6.4 11.0851h12.8z" stroke="none"/><path d="m370 204.2099-6.4 11.0851h12.8z" stroke="none"/><path d="m390 204.2099-6.4 11.0851h12.8z" stroke="none"/><path d="m410 204.2099-6.4 11.0851h12.8z" stroke="none"/><path d="m423.6 203.6h12.8v12.8h-12.8z" fill="none" stroke-width="2"/><path d="m183.6 223.6h12.8v12.8h-12.8z" fill="none" stroke-width="2"/><path d="m203.6 223.6h12.8v12.8h-12.8z" fill="none" stroke-width="2"/><path d="m223.6 223.6h12.8v12.8h-12.8z" fill="none" stroke-width="2"/><path d="m243.6 223.6h12.8v12.8h-12.8z" fill="none" stroke-width="2"/><path d="m263.6 223.6h12.8v12.8h-12.8z" fill="none" stroke-width="2"/><path d="m283.6 223.6h12.8v12.8h-12.8z" fill="none" stroke-width="2"/><path d="m303.6 223.6h12.8v12.8h-12.8z" fill="none" stroke-width="2"/><path d="m323.6 223.6h12.8v12.8h-12.8z" fill="none" stroke-width="2"/><path d="m343.6 223.6h12.8v12.8h-12.8z" fill="none" stroke-width="2"/><path d="m363.6 223.6h12.8v12.8h-12.8z" fill="none" stroke-width="2"/><path d="m383.6 223.6h12.8v12.8h-12.8z" fill="none" stroke-width="2"/><path d="m403.6 223.6h12.8v12.8h-12.8z" fill="none" stroke-width="2"/><path d="m423.6 223.6h12.8v12.8h-12.8z" fill="none" stroke-width="2"/><path d="m190 244.2099-6.4 11.0851h12.8z" stroke="none"/><path d="m210 244.2099-6.4 11.0851h12.8z" stroke="none"/><path d="m223.6 243.6h12.8v12.8h-12.8z" fill="none" stroke-width="2"/><path d="m243.6 243.6h12.8v12.8h-12.8z" fill="none" stroke-width="2"/><path d="m263.6 243.6h12.8v12.8h-12.8z" fill="none" stroke-width="2"/><path d="m290 244.2099-6.4 11.0851h12.8z" stroke="none"/><path d="m310 244.2099-6.4 11.0851h12.8z" stroke="none"/><path d="m330 244.2099-6.4 11.0851h12.8z" stroke="none"/><path d="m343.6 243.6h12.8v12.8h-12.8z" fill="none" stroke-width="2"/><path d="m363.6 243.6h12.8v12.8h-12.8z" fill="none" stroke-width="2"/><path d="m383.6 243.6h12.8v12.8h-12.8z" fill="none" stroke-width="2"/><path d="m410 244.2099-6.4 11.0851h12.8z" stroke="none"/><path d="m430 244.2099-6.4 11.0851h12.8z" stroke="none"/><path d="m190 264.2099-6.4 11.0851h12.8z" stroke="none"/><path d="m210 264.2099-6.4 11.0851h12.8z" stroke="none"/><path d="m230 264.2099-6.4 11.0851h12.8z" stroke="none"/><path d="m243.6 263.6h12.8v12.8h-12.8z" fill="none" stroke-width="2"/><path d="m263.6 263.6h12.8v12.8h-12.8z" fill="none" stroke-width="2"/><path d="m290 264.2099-6.4 11.0851h12.8z" stroke="none"/><path d="m310 264.2099-6.4 11.0851h12.8z" stroke="none"/><path d="m330 264.2099-6.4 11.0851h12.8z" stroke="none"/><path d="m343.6 263.6h12.8v12.8h-12.8z" fill="none" stroke-width="2"/><path d="m363.6 263.6h12.8v12.8h-12.8z" fill="none" stroke-width="2"/><path d="m390 264.2099-6.4 11.0851h12.8z" stroke="none"/><path d="m410 264.2099-6.4 11.0851h12.8z" stroke="none"/><path d="m430 264.2099-6.4 11.0851h12.8z" stroke="none"/><path d="m190 284.2099-6.4 11.0851h12.8z" stroke="none"/><path d="m210 284.2099-6.4 11.0851h12.8z" stroke="none"/><path d="m230 284.2099-6.4 11.0851h12.8z" stroke="none"/><path d="m250 284.2099-6.4 11.0851h12.8z" stroke="none"/><path d="m263.6 283.6h12.8v12.8h-12.8z" fill="none" stroke-width="2"/><path d="m283.6 283.6h12.8v12.8h-12.8z" fill="none" stroke-width="2"/><path d="m303.6 283.6h12.8v12.8h-12.8z" fill="none" stroke-width="2"/><path d="m323.6 283.6h12.8v12.8h-12.8z" fill="none" stroke-width="2"/><path d="m343.6 283.6h12.8v12.8h-12.8z" fill="none" stroke-width="2"/><path d="m370 284.2099-6.4 11.0851h12.8z" stroke="none"/><path d="m390 284.2099-6.4 11.0851h12.8z" stroke="none"/><path d="m410 284.2099-6.4 11.0851h12.8z" stroke="none"/><path d="m430 284.2099-6.4 11.0851h12.8z" stroke="none"/><path d="m190 304.2099-6.4 11.0851h12.8z" stroke="none"/><path d="m210 304.2099-6.4 11.0851h12.8z" stroke="none"/><path d="m230 304.2099-6.4 11.0851h12.8z" stroke="none"/><path d="m250 304.2099-6.4 11.0851h12.8z" stroke="none"/><path d="m270 304.2099-6.4 11.0851h12.8z" stroke="none"/><path d="m290 304.2099-6.4 11.0851h12.8z" stroke="none"/><path d="m310 304.2099-6.4 11.0851h12.8z" stroke="none"/><path d="m330 304.2099-6.4 11.0851h12.8z" stroke="none"/><path d="m350 304.2099-6.4 11.0851h12.8z" stroke="none"/><path d="m370 304.2099-6.4 11.0851h12.8z" stroke="none"/><path d="m390 304.2099-6.4 11.0851h12.8z" stroke="none"/><path d="m410 304.2099-6.4 11.0851h12.8z" stroke="none"/><path d="m430 304.2099-6.4 11.0851h12.8z" stroke="none"/><path d="m190 324.2099-6.4 11.0851h12.8z" stroke="none"/><path d="m203.6 323.6h12.8v12.8h-12.8z" fill="none" stroke-width="2"/><path d="m230 324.2099-6.4 11.0851h12.8z" stroke="none"/><path d="m243.6 323.6h12.8v12.8h-12.8z" fill="none" stroke-width="2"/><path d="m263.6 323.6h12.8v12.8h-12.8z" fill="none" stroke-width="2"/><path d="m290 324.2099-6.4 11.0851h12.8z" stroke="none"/><path d="m303.6 323.6h12.8v12.8h-12.8z" fill="none" stroke-width="2"/><path d="m323.6 323.6h12.8v12.8h-12.8z" fill="none" stroke-width="2"/><path d="m350 324.2099-6.4 11.0851h12.8z" stroke="none"/><path d="m363.6 323.6h12.8v12.8h-12.8z" fill="none" stroke-width="2"/><path d="m390 324.2099-6.4 11.0851h12.8z" stroke="none"/><path d="m403.6 323.6h12.8v12.8h-12.8z" fill="none" stroke-width="2"/><path d="m430 324.2099-6.4 11.0851h12.8z" stroke="none"/><path d="m190 344.2099-6.4 11.0851h12.8z" stroke="none"/><path d="m203.6 343.6h12.8v12.8h-12.8z" fill="none" stroke-width="2"/><path d="m223.6 343.6h12.8v12.8h-12.8z" fill="none" stroke-width="2"/><path d="m243.6 343.6h12.8v12.8h-12.8z" fill="none" stroke-width="2"/><path d="m270 344.2099-6.4 11.0851h12.8z" stroke="none"/><path d="m283.6 343.6h12.8v12.8h-12.8z" fill="none" stroke-width="2"/><path d="m310 344.2099-6.4 11.0851h12.8z" stroke="none"/><path d="m323.6 343.6h12.8v12.8h-12.8z" fill="none" stroke-width="2"/><path d="m343.6 343.6h12.8v12.8h-12.8z" fill="none" stroke-width="2"/><path d="m363.6 343.6h12.8v12.8h-12.8z" fill="none" stroke-width="2"/><path d="m383.6 343.6h12.8v12.8h-12.8z" fill="none" stroke-width="2"/><path d="m410 344.2099-6.4 11.0851h12.8z" stroke="none"/><path d="m430 344.2099-6.4 11.0851h12.8z" stroke="none"/><path d="m190 364.2099-6.4 11.0851h12.8z" stroke="none"/><path d="m203.6 363.6h12.8v12.8h-12.8z" fill="none" stroke-width="2"/><path d="m230 364.2099-6.4 11.0851h12.8z" stroke="none"/><path d="m243.6 363.6h12.8v12.8h-12.8z" fill="none" stroke-width="2"/><path d="m270 364.2099-6.4 11.0851h12.8z" stroke="none"/><path d="m283.6 363.6h12.8v12.8h-12.8z" fill="none" stroke-width="2"/><path d="m310 364.2099-6.4 11.0851h12.8z" stroke="none"/><path d="m323.6 363.6h12.8v12.8h-12.8z" fill="none" stroke-width="2"/><path d="m343.6 363.6h12.8v12.8h-12.8z" fill="none" stroke-width="2"/><path d="m363.6 363.6h12.8v12.8h-12.8z" fill="none" stroke-width="2"/><path d="m390 364.2099-6.4 11.0851h12.8z" stroke="none"/><path d="m403.6 363.6h12.8v12.8h-12.8z" fill="none" stroke-width="2"/><path d="m430 364.2099-6.4 11.0851h12.8z" stroke="none"/><path d="m190 384.2099-6.4 11.0851h12.8z" stroke="none"/><path d="m210 384.2099-6.4 11.0851h12.8z" stroke="none"/><path d="m230 384.2099-6.4 11.0851h12.8z" stroke="none"/><path d="m250 384.2099-6.4 11.0851h12.8z" stroke="none"/><path d="m270 384.2099-6.4 11.0851h12.8z" stroke="none"/><path d="m290 384.2099-6.4 11.0851h12.8z" stroke="none"/><path d="m310 384.2099-6.4 11.0851h12.8z" stroke="none"/><path d="m330 384.2099-6.4 11.0851h12.8z" stroke="none"/><path d="m350 384.2099-6.4 11.0851h12.8z" stroke="none"/><path d="m370 384.2099-6.4 11.0851h12.8z" stroke="none"/><path d="m390 384.2099-6.4 11.0851h12.8z" stroke="none"/><path d="m410 384.2099-6.4 11.0851h12.8z" stroke="none"/><path d="m430 384.2099-6.4 11.0851h12.8z" stroke="none"/><path d="m190 404.2099-6.4 11.0851h12.8z" stroke="none"/><path d="m210 404.2099-6.4 11.0851h12.8z" stroke="none"/><path d="m230 404.2099-6.4 11.0851h12.8z" stroke="none"/><path d="m250 404.2099-6.4 11.0851h12.8z" stroke="none"/><path d="m270 404.2099-6.4 11.0851h12.8z" stroke="none"/><path d="m290 404.2099-6.4 11.0851h12.8z" stroke="none"/><path d="m310 404.2099-6.4 11.0851h12.8z" stroke="none"/><path d="m330 404.2099-6.4 11.0851h12.8z" stroke="none"/><path d="m350 404.2099-6.4 11.0851h12.8z" stroke="none"/><path d="m370 404.2099-6.4 11.0851h12.8z" stroke="none"/><path d="m390 404.2099-6.4 11.0851h12.8z" stroke="none"/><path d="m410 404.2099-6.4 11.0851h12.8z" stroke="none"/><path d="m430 404.2099-6.4 11.0851h12.8z" stroke="none"/><path d="m190 424.2099-6.4 11.0851h12.8z" stroke="none"/><path d="m210 424.2099-6.4 11.0851h12.8z" stroke="none"/><path d="m230 424.2099-6.4 11.0851h12.8z" stroke="none"/><path d="m250 424.2099-6.4 11.0851h12.8z" stroke="none"/><path d="m270 424.2099-6.4 11.0851h12.8z" stroke="none"/><path d="m290 424.2099-6.4 11.0851h12.8z" stroke="none"/><path d="m310 424.2099-6.4 11.0851h12.8z" stroke="none"/><path d="m330 424.2099-6.4 11.0851h12.8z" stroke="none"/><path d="m350 424.2099-6.4 11.0851h12.8z" stroke="none"/><path d="m370 424.2099-6.4 11.0851h12.8z" stroke="none"/><path d="m390 424.2099-6.4 11.0851h12.8z" stroke="none"/><path d="m410 424.2099-6.4 11.0851h12.8z" stroke="none"/><path d="m430 424.2099-6.4 11.0851h12.8z" stroke="none"/><path d="m183.6 443.6h12.8v12.8h-12.8z" fill="none" stroke-width="2"/><path d="m203.6 443.6h12.8v12.8h-12.8z" fill="none" stroke-width="2"/><path d="m223.6 443.6h12.8v12.8h-12.8z" fill="none" stroke-width="2"/><path d="m250 444.2099-6.4 11.0851h12.8z" stroke="none"/><path d="m270 444.2099-6.4 11.0851h12.8z" stroke="none"/><path d="m290 444.2099-6.4 11.0851h12.8z" stroke="none"/><path d="m310 444.2099-6.4 11.0851h12.8z" stroke="none"/><path d="m330 444.2099-6.4 11.0851h12.8z" stroke="none"/><path d="m350 444.2099-6.4 11.0851h12.8z" stroke="none"/><path d="m370 444.2099-6.4 11.0851h12.8z" stroke="none"/><path d="m383.6 443.6h12.8v12.8h-12.8z" fill="none" stroke-width="2"/><path d="m403.6 443.6h12.8v12.8h-12.8z" fill="none" stroke-width="2"/><path d="m423.6 443.6h12.8v12.8h-12.8z" fill="none" stroke-width="2"/><path d="m183.6 463.6h12.8v12.8h-12.8z" fill="none" stroke-width="2"/><path d="m203.6 463.6h12.8v12.8h-12.8z" fill="none" stroke-width="2"/><path d="m223.6 463.6h12.8v12.8h-12.8z" fill="none" stroke-width="2"/><path d="m243.6 463.6h12.8v12.8h-12.8z" fill="none" stroke-width="2"/><path d="m270 464.2099-6.4 11.0851h12.8z" stroke="none"/><path d="m290 464.2099-6.4 11.0851h12.8z" stroke="none"/><path d="m310 464.2099-6.4 11.0851h12.8z" stroke="none"/><path d="m330 464.2099-6.4 11.0851h12.8z" stroke="none"/><path d="m350 464.2099-6.4 11.0851h12.8z" stroke="none"/><path d="m363.6 463.6h12.8v12.8h-12.8z" fill="none" stroke-width="2"/><path d="m383.6 463.6h12.8v12.8h-12.8z" fill="none" stroke-width="2"/><path d="m403.6 463.6h12.8v12.8h-12.8z" fill="none" stroke-width="2"/><path d="m423.6 463.6h12.8v12.8h-12.8z" fill="none" stroke-width="2"/><path d="m183.6 483.6h12.8v12.8h-12.8z" fill="none" stroke-width="2"/><path d="m203.6 483.6h12.8v12.8h-12.8z" fill="none" stroke-width="2"/><path d="m223.6 483.6h12.8v12.8h-12.8z" fill="none" stroke-width="2"/><path d="m243.6 483.6h12.8v12.8h-12.8z" fill="none" stroke-width="2"/><path d="m263.6 483.6h12.8v12.8h-12.8z" fill="none" stroke-width="2"/><path d="m290 484.2099-6.4 11.0851h12.8z" stroke="none"/><path d="m310 484.2099-6.4 11.0851h12.8z" stroke="none"/><path d="m330 484.2099-6.4 11.0851h12.8z" stroke="none"/><path d="m343.6 483.6h12.8v12.8h-12.8z" fill="none" stroke-width="2"/><path d="m363.6 483.6h12.8v12.8h-12.8z" fill="none" stroke-width="2"/><path d="m383.6 483.6h12.8v12.8h-12.8z" fill="none" stroke-width="2"/><path d="m403.6 483.6h12.8v12.8h-12.8z" fill="none" stroke-width="2"/><path d="m423.6 483.6h12.8v12.8h-12.8z" fill="none" stroke-width="2"/><path d="m183.6 503.6h12.8v12.8h-12.8z" fill="none" stroke-width="2"/><path d="m203.6 503.6h12.8v12.8h-12.8z" fill="none" stroke-width="2"/><path d="m223.6 503.6h12.8v12.8h-12.8z" fill="none" stroke-width="2"/><path d="m243.6 503.6h12.8v12.8h-12.8z" fill="none" stroke-width="2"/><path d="m263.6 503.6h12.8v12.8h-12.8z" fill="none" stroke-width="2"/><path d="m283.6 503.6h12.8v12.8h-12.8z" fill="none" stroke-width="2"/><path d="m303.6 503.6h12.8v12.8h-12.8z" fill="none" stroke-width="2"/><path d="m323.6 503.6h12.8v12.8h-12.8z" fill="none" stroke-width="2"/><path d="m343.6 503.6h12.8v12.8h-12.8z" fill="none" stroke-width="2"/><path d="m363.6 503.6h12.8v12.8h-12.8z" fill="none" stroke-width="2"/><path d="m383.6 503.6h12.8v12.8h-12.8z" fill="none" stroke-width="2"/><path d="m403.6 503.6h12.8v12.8h-12.8z" fill="none" stroke-width="2"/><path d="m423.6 503.6h12.8v12.8h-12.8z" fill="none" stroke-width="2"/><path d="m183.6 523.6h12.8v12.8h-12.8z" fill="none" stroke-width="2"/><path d="m203.6 523.6h12.8v12.8h-12.8z" fill="none" stroke-width="2"/><path d="m223.6 523.6h12.8v12.8h-12.8z" fill="none" stroke-width="2"/><path d="m250 524.2099-6.4 11.0851h12.8z" stroke="none"/><path d="m263.6 523.6h12.8v12.8h-12.8z" fill="none" stroke-width="2"/><path d="m290 524.2099-6.4 11.0851h12.8z" stroke="none"/><path d="m310 524.2099-6.4 11.0851h12.8z" stroke="none"/><path d="m323.6 523.6h12.8v12.8h-12.8z" fill="none" stroke-width="2"/><path d="m350 524.2099-6.4 11.0851h12.8z" stroke="none"/><path d="m363.6 523.6h12.8v12.8h-12.8z" fill="none" stroke-width="2"/><path d="m383.6 523.6h12.8v12.8h-12.8z" fill="none" stroke-width="2"/><path d="m403.6 523.6h12.8v12.8h-12.8z" fill="none" stroke-width="2"/><path d="m423.6 523.6h12.8v12.8h-12.8z" fill="none" stroke-width="2"/><path d="m190 544.2099-6.4 11.0851h12.8z" stroke="none"/><path d="m210 544.2099-6.4 11.0851h12.8z" stroke="none"/><path d="m223.6 543.6h12.8v12.8h-12.8z" fill="none" stroke-width="2"/><path d="m243.6 543.6h12.8v12.8h-12.8z" fill="none" stroke-width="2"/><path d="m270 544.2099-6.4 11.0851h12.8z" stroke="none"/><path d="m283.6 543.6h12.8v12.8h-12.8z" fill="none" stroke-width="2"/><path d="m303.6 543.6h12.8v12.8h-12.8z" fill="none" stroke-width="2"/><path d="m330 544.2099-6.4 11.0851h12.8z" stroke="none"/><path d="m343.6 543.6h12.8v12.8h-12.8z" fill="none" stroke-width="2"/><path d="m370 544.2099-6.4 11.0851h12.8z" stroke="none"/><path d="m383.6 543.6h12.8v12.8h-12.8z" fill="none" stroke-width="2"/><path d="m410 544.2099-6.4 11.0851h12.8z" stroke="none"/><path d="m430 544.2099-6.4 11.0851h12.8z" stroke="none"/><path d="m190 564.2099-6.4 11.0851h12.8z" stroke="none"/><path d="m210 564.2099-6.4 11.0851h12.8z" stroke="none"/><path d="m230 564.2099-6.4 11.0851h12.8z" stroke="none"/><path d="m243.6 563.6h12.8v12.8h-12.8z" fill="none" stroke-width="2"/><path d="m263.6 563.6h12.8v12.8h-12.8z" fill="none" stroke-width="2"/><path d="m283.6 563.6h12.8v12.8h-12.8z" fill="none" stroke-width="2"/><path d="m303.6 563.6h12.8v12.8h-12.8z" fill="none" stroke-width="2"/><path d="m323.6 563.6h12.8v12.8h-12.8z" fill="none" stroke-width="2"/><path d="m343.6 563.6h12.8v12.8h-12.8z" fill="none" stroke-width="2"/><path d="m363.6 563.6h12.8v12.8h-12.8z" fill="none" stroke-width="2"/><path d="m390 564.2099-6.4 11.0851h12.8z" stroke="none"/><path d="m410 564.2099-6.4 11.0851h12.8z" stroke="none"/><path d="m430 564.2099-6.4 11.0851h12.8z" stroke="none"/><path d="m190 584.2099-6.4 11.0851h12.8z" stroke="none"/><path d="m210 584.2099-6.4 11.0851h12.8z" stroke="none"/><path d="m230 584.2099-6.4 11.0851h12.8z" stroke="none"/><path d="m250 584.2099-6.4 11.0851h12.8z" stroke="none"/><path d="m263.6 583.6h12.8v12.8h-12.8z" fill="none" stroke-width="2"/><path d="m283.6 583.6h12.8v12.8h-12.8z" fill="none" stroke-width="2"/><path d="m303.6 583.6h12.8v12.8h-12.8z" fill="none" stroke-width="2"/><path d="m323.6 583.6h12.8v12.8h-12.8z" fill="none" stroke-width="2"/><path d="m343.6 583.6h12.8v12.8h-12.8z" fill="none" stroke-width="2"/><path d="m370 584.2099-6.4 11.0851h12.8z" stroke="none"/><path d="m390 584.2099-6.4 11.0851h12.8z" stroke="none"/><path d="m410 584.2099-6.4 11.0851h12.8z" stroke="none"/><path d="m430 584.2099-6.4 11.0851h12.8z" stroke="none"/><path d="m190 604.2099-6.4 11.0851h12.8z" stroke="none"/><path d="m210 604.2099-6.4 11.0851h12.8z" stroke="none"/><path d="m230 604.2099-6.4 11.0851h12.8z" stroke="none"/><path d="m250 604.2099-6.4 11.0851h12.8z" stroke="none"/><path d="m270 604.2099-6.4 11.0851h12.8z" stroke="none"/><path d="m290 604.2099-6.4 11.0851h12.8z" stroke="none"/><path d="m310 604.2099-6.4 11.0851h12.8z" stroke="none"/><path d="m330 604.2099-6.4 11.0851h12.8z" stroke="none"/><path d="m350 604.2099-6.4 11.0851h12.8z" stroke="none"/><path d="m370 604.2099-6.4 11.0851h12.8z" stroke="none"/><path d="m390 604.2099-6.4 11.0851h12.8z" stroke="none"/><path d="m410 604.2099-6.4 11.0851h12.8z" stroke="none"/><path d="m430 604.2099-6.4 11.0851h12.8z" stroke="none"/><path d="m0 0v640" fill="none" stroke="#b4b4b4" stroke-width="2"/><path d="m20 0v640" fill="none" stroke="#b4b4b4"/><path d="m40 0v640" fill="none" stroke="#b4b4b4"/><path d="m60 0v640" fill="none" stroke="#b4b4b4"/><path d="m80 0v640" fill="none" stroke="#b4b4b4"/><path d="m100 0v640" fill="none" stroke="#b4b4b4"/><path d="m120 0v640" fill="none" stroke="#b4b4b4"/><path d="m140 0v640" fill="none" stroke="#b4b4b4"/><path d="m160 0v640" fill="none" stroke="#b4b4b4"/><path d="m180 0v640" fill="none" stroke="#b4b4b4"/><path d="m200 0v640" fill="none" stroke="#b4b4b4"/><path d="m220 0v640" fill="none" stroke="#b4b4b4"/><path d="m240 0v640" fill="none" stroke="#b4b4b4"/><path d="m260 0v640" fill="none" stroke="#b4b4b4"/><path d="m280 0v640" fill="none" stroke="#b4b4b4"/><path d="m300 0v640" fill="none" stroke="#b4b4b4"/><path d="m320 0v640" fill="none" stroke="#b4b4b4"/><path d="m340 0v640" fill="none" stroke="#b4b4b4"/><path d="m360 0v640" fill="none" stroke="#b4b4b4"/><path d="m380 0v640" fill="none" stroke="#b4b4b4"/><path d="m400 0v640" fill="none" stroke="#b4b4b4"/><path d="m420 0v640" fill="none" stroke="#b4b4b4"/><path d="m440 0v640" fill="none" stroke="#b4b4b4"/><path d="m460 0v640" fill="none" stroke="#b4b4b4"/><path d="m480 0v640" fill="none" stroke="#b4b4b4"/><path d="m500 0v640" fill="none" stroke="#b4b4b4"/><path d="m520 0v640" fill="none" stroke="#b4b4b4"/><path d="m540 0v640" fill="none" stroke="#b4b4b4"/><path d="m560 0v640" fill="none" stroke="#b4b4b4"/><path d="m580 0v640" fill="none" stroke="#b4b4b4"/><path d="m600 0v640" fill="none" stroke="#b4b4b4"/><path d="m620 0v640" fill="none" stroke="#b4b4b4"/><path d="m640 0v640" fill="none" stroke="#b4b4b4" stroke-width="2"/><path d="m0 0h640" fill="none" stroke="#b4b4b4" stroke-width="2"/><path d="m0 20h640" fill="none" stroke="#b4b4b4"/><path d="m0 40h640" fill="none" stroke="#b4b4b4"/><path d="m0 60h640" fill="none" stroke="#b4b4b4"/><path d="m0 80h640" fill="none" stroke="#b4b4b4"/><path d="m0 100h640" fill="none" stroke="#b4b4b4"/><path d="m0 120h640" fill="none" stroke="#b4b4b4"/><path d="m0 140h640" fill="none" stroke="#b4b4b4"/><path d="m0 160h640" fill="none" stroke="#b4b4b4"/><path d="m0 180h640" fill="none" stroke="#b4b4b4"/><path d="m0 200h640" fill="none" stroke="#b4b4b4"/><path d="m0 220h640" fill="none" stroke="#b4b4b4"/><path d="m0 240h640" fill="none" stroke="#b4b4b4"/><path d="m0 260h640" fill="none" stroke="#b4b4b4"/><path d="m0 280h640" fill="none" stroke="#b4b4b4"/><path d="m0 300h640" fill="none" stroke="#b4b4b4"/><path d="m0 320h640" fill="none" stroke="#b4b4b4"/><path d="m0 340h640" fill="none" stroke="#b4b4b4"/><path d="m0 360h640" fill="none" stroke="#b4b4b4"/><path d="m0 380h640" fill="none" stroke="#b4b4b4"/><path d="m0 400h640" fill="none" stroke="#b4b4b4"/><path d="m0 420h640" fill="none" stroke="#b4b4b4"/><path d="m0 440h640" fill="none" stroke="#b4b4b4"/><path d="m0 460h640" fill="none" stroke="#b4b4b4"/><path d="m0 480h640" fill="none" stroke="#b4b4b4"/><path d="m0 500h640" fill="none" stroke="#b4b4b4"/><path d="m0 520h640" fill="none" stroke="#b4b4b4"/><path d="m0 540h640" fill="none" stroke="#b4b4b4"/><path d="m0 560h640" fill="none" stroke="#b4b4b4"/><path d="m0 580h640" fill="none" stroke="#b4b4b4"/><path d="m0 600h640" fill="none" stroke="#b4b4b4"/><path d="m0 620h640" fill="none" stroke="#b4b4b4"/><path d="m0 640h640" fill="none" stroke="#b4b4b4" stroke-width="2"/></g></svg>