<svg xmlns:xlink="http://www.w3.org/1999/xlink" style="fill-opacity:1;color-rendering:auto;color-interpolation:auto;text-rendering:auto;stroke:#000;stroke-linecap:square;stroke-miterlimit:10;shape-rendering:auto;stroke-opacity:1;fill:#000;stroke-dasharray:none;font-weight:400;stroke-width:1;font-family:&quot;Dialog&quot;;font-style:normal;stroke-linejoin:miter;font-size:12px;stroke-dashoffset:0;image-rendering:auto" width="640" height="640" xmlns="http://www.w3.org/2000/svg"><defs/><g style="stroke-linecap:round;fill:#198f81;stroke:#198f81"><path style="stroke:none" d="M180 80h20v20h-20z"/></g><g style="stroke-linecap:round;fill:#198f81;stroke:#198f81"><path style="stroke:none" d="M200 80h20v20h-20zm20 0h20v20h-20zm160 0h20v20h-20zm20 0h20v20h-20zm-240 20h20v20h-20z"/><path style="fill:#21c59c;stroke:none" d="M180 100h20v20h-20zm20 0h20v20h-20zm20 0h20v20h-20z"/><path style="stroke:none" d="M240 100h20v20h-20zm20 0h20v20h-20zm100 0h20v20h-20z"/><path style="fill:#21c59c;stroke:none" d="M380 100h20v20h-20z"/><path style="fill:#0aa78e;stroke:none" d="M400 100h20v20h-20z"/><path style="stroke:none" d="M420 100h20v20h-20zm-280 20h20v20h-20z"/><path style="fill:#0aa78e;stroke:none" d="M160 120h20v20h-20zm20 0h20v20h-20zm20 0h20v20h-20zm20 0h20v20h-20z"/><path style="fill:#21c59c;stroke:none" d="M240 120h20v20h-20zm20 0h20v20h-20z"/><path style="stroke:none" d="M280 120h20v20h-20zm80 0h20v20h-20z"/><path style="fill:#21c59c;stroke:none" d="M380 120h20v20h-20z"/><path style="fill:#0aa78e;stroke:none" d="M400 120h20v20h-20z"/><path style="stroke:none" d="M420 120h20v20h-20zm60 0h20v20h-20zm20 0h20v20h-20zm20 0h20v20h-20zm-420 20h20v20h-20z"/><path style="fill:#21c59c;stroke:none" d="M120 140h20v20h-20zm20 0h20v20h-20zm20 0h20v20h-20zm20 0h20v20h-20z"/><path style="fill:#0aa78e;stroke:none" d="M200 140h20v20h-20zm20 0h20v20h-20zm20 0h20v20h-20zm20 0h20v20h-20z"/><path style="fill:#21c59c;stroke:none" d="M280 140h20v20h-20z"/><path style="stroke:none" d="M300 140h20v20h-20zm40 0h20v20h-20z"/><path style="fill:#21c59c;stroke:none" d="M360 140h20v20h-20z"/><path style="fill:#0aa78e;stroke:none" d="M380 140h20v20h-20zm20 0h20v20h-20zm20 0h20v20h-20z"/><path style="stroke:none" d="M440 140h20v20h-20zm20 0h20v20h-20z"/><path style="fill:#0aa78e;stroke:none" d="M480 140h20v20h-20zm20 0h20v20h-20zm20 0h20v20h-20z"/><path style="stroke:none" d="M540 140h20v20h-20zM80 160h20v20H80z"/><path style="fill:#0aa78e;stroke:none" d="M100 160h20v20h-20zm20 0h20v20h-20zm20 0h20v20h-20zm20 0h20v20h-20zm20 0h20v20h-20z"/><path style="fill:#21c59c;stroke:none" d="M200 160h20v20h-20zm20 0h20v20h-20zm20 0h20v20h-20z"/><path style="fill:#0aa78e;stroke:none" d="M260 160h20v20h-20zm20 0h20v20h-20z"/><path style="fill:#21c59c;stroke:none" d="M300 160h20v20h-20z"/><path style="stroke:none" d="M320 160h20v20h-20zm20 0h20v20h-20z"/><path style="fill:#21c59c;stroke:none" d="M360 160h20v20h-20z"/><path style="fill:#0aa78e;stroke:none" d="M380 160h20v20h-20zm20 0h20v20h-20z"/><path style="fill:#21c59c;stroke:none" d="M420 160h20v20h-20z"/><path style="fill:#0aa78e;stroke:none" d="M440 160h20v20h-20zm20 0h20v20h-20zm20 0h20v20h-20zm20 0h20v20h-20zm20 0h20v20h-20z"/><path style="stroke:none" d="M540 160h20v20h-20zM80 180h20v20H80z"/><path style="fill:#0aa78e;stroke:none" d="M100 180h20v20h-20zm20 0h20v20h-20zm20 0h20v20h-20zm20 0h20v20h-20zm20 0h20v20h-20zm20 0h20v20h-20zm20 0h20v20h-20zm20 0h20v20h-20z"/><path style="fill:#21c59c;stroke:none" d="M260 180h20v20h-20zm20 0h20v20h-20z"/><path style="fill:#0aa78e;stroke:none" d="M300 180h20v20h-20z"/><path style="stroke:none" d="M320 180h20v20h-20z"/><path style="fill:#21c59c;stroke:none" d="M340 180h20v20h-20z"/><path style="fill:#0aa78e;stroke:none" d="M360 180h20v20h-20zm20 0h20v20h-20z"/><path style="fill:#21c59c;stroke:none" d="M400 180h20v20h-20z"/><path style="fill:#0aa78e;stroke:none" d="M420 180h20v20h-20zm20 0h20v20h-20zm20 0h20v20h-20zm20 0h20v20h-20zm20 0h20v20h-20zm20 0h20v20h-20z"/><path style="stroke:none" d="M540 180h20v20h-20zM80 200h20v20H80z"/><path style="fill:#0aa78e;stroke:none" d="M100 200h20v20h-20zm20 0h20v20h-20zm20 0h20v20h-20zm20 0h20v20h-20zm20 0h20v20h-20zm20 0h20v20h-20zm20 0h20v20h-20zm20 0h20v20h-20zm20 0h20v20h-20zm20 0h20v20h-20z"/><path style="fill:#21c59c;stroke:none" d="M300 200h20v20h-20z"/><path style="stroke:none" d="M320 200h20v20h-20z"/><path style="fill:#0aa78e;stroke:none" d="M340 200h20v20h-20zm20 0h20v20h-20z"/><path style="fill:#21c59c;stroke:none" d="M380 200h20v20h-20z"/><path style="fill:#0aa78e;stroke:none" d="M400 200h20v20h-20zm20 0h20v20h-20zm20 0h20v20h-20zm20 0h20v20h-20zm20 0h20v20h-20zm20 0h20v20h-20z"/><path style="stroke:none" d="M520 200h20v20h-20zm-420 20h20v20h-20z"/><path style="fill:#0aa78e;stroke:none" d="M120 220h20v20h-20zm20 0h20v20h-20zm20 0h20v20h-20zm20 0h20v20h-20zm20 0h20v20h-20zm20 0h20v20h-20zm20 0h20v20h-20zm20 0h20v20h-20zm20 0h20v20h-20zm20 0h20v20h-20zm20 0h20v20h-20zm20 0h20v20h-20zm20 0h20v20h-20zm20 0h20v20h-20zm20 0h20v20h-20zm20 0h20v20h-20zm20 0h20v20h-20zm20 0h20v20h-20zm20 0h20v20h-20zm20 0h20v20h-20z"/><path style="stroke:none" d="M520 220h20v20h-20zm-400 20h20v20h-20zm20 0h20v20h-20z"/><path style="fill:#0aa78e;stroke:none" d="M160 240h20v20h-20zm20 0h20v20h-20zm20 0h20v20h-20zm20 0h20v20h-20zm20 0h20v20h-20zm20 0h20v20h-20zm20 0h20v20h-20zm20 0h20v20h-20zm20 0h20v20h-20zm20 0h20v20h-20zm20 0h20v20h-20zm20 0h20v20h-20zm20 0h20v20h-20zm20 0h20v20h-20zm20 0h20v20h-20zm20 0h20v20h-20zm20 0h20v20h-20z"/><path style="stroke:none" d="M500 240h20v20h-20zm-340 20h20v20h-20zm20 0h20v20h-20z"/><path style="fill:#0aa78e;stroke:none" d="M200 260h20v20h-20zm20 0h20v20h-20zm20 0h20v20h-20zm20 0h20v20h-20zm20 0h20v20h-20zm20 0h20v20h-20zm20 0h20v20h-20zm20 0h20v20h-20zm20 0h20v20h-20zm20 0h20v20h-20zm20 0h20v20h-20zm20 0h20v20h-20zm20 0h20v20h-20zm20 0h20v20h-20z"/><path style="stroke:none" d="M480 260h20v20h-20zm-280 20h20v20h-20zm20 0h20v20h-20z"/><path style="fill:#0aa78e;stroke:none" d="M240 280h20v20h-20zm20 0h20v20h-20zm20 0h20v20h-20zm20 0h20v20h-20zm20 0h20v20h-20zm20 0h20v20h-20zm20 0h20v20h-20zm20 0h20v20h-20zm20 0h20v20h-20zm20 0h20v20h-20zm20 0h20v20h-20z"/><path style="stroke:none" d="M460 280h20v20h-20z"/><path style="fill:#0e3199;stroke:none" d="M180 300h20v20h-20zm20 0h20v20h-20z"/><path style="fill:#1083a0;stroke:none" d="M220 300h20v20h-20z"/><path style="stroke:none" d="M240 300h20v20h-20zm20 0h20v20h-20zm20 0h20v20h-20zm20 0h20v20h-20z"/><path style="fill:#0aa78e;stroke:none" d="M320 300h20v20h-20zm20 0h20v20h-20z"/><path style="stroke:none" d="M360 300h20v20h-20z"/><path style="fill:#0aa78e;stroke:none" d="M380 300h20v20h-20zm20 0h20v20h-20z"/><path style="stroke:none" d="M420 300h20v20h-20z"/><path style="fill:#0e3199;stroke:none" d="M440 300h20v20h-20zm-280 20h20v20h-20z"/><path style="fill:#1083a0;stroke:none" d="M180 320h20v20h-20zm20 0h20v20h-20zm20 0h20v20h-20zm20 0h20v20h-20zm20 0h20v20h-20zm20 0h20v20h-20zm20 0h20v20h-20zm20 0h20v20h-20zm20 0h20v20h-20zm20 0h20v20h-20zm20 0h20v20h-20zm20 0h20v20h-20zm20 0h20v20h-20zm20 0h20v20h-20z"/><path style="fill:#0e3199;stroke:none" d="M460 320h20v20h-20zm-320 20h20v20h-20z"/><path style="fill:#1083a0;stroke:none" d="M160 340h20v20h-20zm20 0h20v20h-20zm20 0h20v20h-20zm20 0h20v20h-20zm20 0h20v20h-20zm20 0h20v20h-20zm20 0h20v20h-20zm20 0h20v20h-20zm20 0h20v20h-20zm20 0h20v20h-20zm20 0h20v20h-20zm20 0h20v20h-20zm20 0h20v20h-20zm20 0h20v20h-20zm20 0h20v20h-20zm20 0h20v20h-20z"/><path style="fill:#0e3199;stroke:none" d="M480 340h20v20h-20zm-340 20h20v20h-20z"/><path style="fill:#1083a0;stroke:none" d="M160 360h20v20h-20zm20 0h20v20h-20zm20 0h20v20h-20zm20 0h20v20h-20zm20 0h20v20h-20zm20 0h20v20h-20zm20 0h20v20h-20zm20 0h20v20h-20zm20 0h20v20h-20zm20 0h20v20h-20zm20 0h20v20h-20zm20 0h20v20h-20zm20 0h20v20h-20zm20 0h20v20h-20zm20 0h20v20h-20zm20 0h20v20h-20z"/><path style="fill:#0e3199;stroke:none" d="M480 360h20v20h-20zm-360 20h20v20h-20z"/><path style="fill:#1083a0;stroke:none" d="M140 380h20v20h-20zm20 0h20v20h-20zm20 0h20v20h-20zm20 0h20v20h-20zm20 0h20v20h-20zm20 0h20v20h-20zm20 0h20v20h-20zm20 0h20v20h-20zm20 0h20v20h-20zm20 0h20v20h-20zm20 0h20v20h-20z"/><path style="fill:#ff11a7;stroke:none" d="M360 380h20v20h-20zm20 0h20v20h-20z"/><path style="fill:#1083a0;stroke:none" d="M400 380h20v20h-20zm20 0h20v20h-20zm20 0h20v20h-20z"/><path style="fill:#ff11a7;stroke:none" d="M460 380h20v20h-20z"/><path style="fill:#1083a0;stroke:none" d="M480 380h20v20h-20z"/><path style="fill:#0e3199;stroke:none" d="M500 380h20v20h-20zm-380 20h20v20h-20z"/><path style="fill:#1083a0;stroke:none" d="M140 400h20v20h-20zm20 0h20v20h-20zm20 0h20v20h-20zm20 0h20v20h-20zm20 0h20v20h-20zm20 0h20v20h-20zm20 0h20v20h-20zm20 0h20v20h-20zm20 0h20v20h-20zm20 0h20v20h-20zm20 0h20v20h-20z"/><path style="fill:#fff;stroke:none" d="M360 400h20v20h-20z"/><path style="fill:#ff11a7;stroke:none" d="M380 400h20v20h-20zm20 0h20v20h-20z"/><path style="fill:#1083a0;stroke:none" d="M420 400h20v20h-20zm20 0h20v20h-20z"/><path style="fill:#fff;stroke:none" d="M460 400h20v20h-20z"/><path style="fill:#ff11a7;stroke:none" d="M480 400h20v20h-20z"/><path style="fill:#0e3199;stroke:none" d="M500 400h20v20h-20zm-380 20h20v20h-20z"/><path style="fill:#1083a0;stroke:none" d="M140 420h20v20h-20zm20 0h20v20h-20zm20 0h20v20h-20zm20 0h20v20h-20zm20 0h20v20h-20zm20 0h20v20h-20zm20 0h20v20h-20zm20 0h20v20h-20zm20 0h20v20h-20zm20 0h20v20h-20zm20 0h20v20h-20z"/><path style="fill:#ff11a7;stroke:none" d="M360 420h20v20h-20zm20 0h20v20h-20z"/><path style="fill:#1083a0;stroke:none" d="M400 420h20v20h-20zm20 0h20v20h-20zm20 0h20v20h-20z"/><path style="fill:#ff11a7;stroke:none" d="M460 420h20v20h-20z"/><path style="fill:#1083a0;stroke:none" d="M480 420h20v20h-20z"/><path style="fill:#0e3199;stroke:none" d="M500 420h20v20h-20zm-380 20h20v20h-20z"/><path style="fill:#294cb4;stroke:none" d="M140 440h20v20h-20z"/><path style="fill:#1083a0;stroke:none" d="M160 440h20v20h-20zm20 0h20v20h-20zm20 0h20v20h-20zm20 0h20v20h-20zm20 0h20v20h-20zm20 0h20v20h-20zm20 0h20v20h-20zm20 0h20v20h-20zm20 0h20v20h-20zm20 0h20v20h-20zm20 0h20v20h-20zm20 0h20v20h-20zm20 0h20v20h-20zm20 0h20v20h-20zm20 0h20v20h-20zm20 0h20v20h-20zm20 0h20v20h-20z"/><path style="fill:#0e3199;stroke:none" d="M500 440h20v20h-20zm-380 20h20v20h-20z"/><path style="fill:#294cb4;stroke:none" d="M140 460h20v20h-20zm20 0h20v20h-20z"/><path style="fill:#1083a0;stroke:none" d="M180 460h20v20h-20zm20 0h20v20h-20zm20 0h20v20h-20zm20 0h20v20h-20zm20 0h20v20h-20zm20 0h20v20h-20zm20 0h20v20h-20zm20 0h20v20h-20zm20 0h20v20h-20zm20 0h20v20h-20zm20 0h20v20h-20zm20 0h20v20h-20z"/><path style="fill:#0e3199;stroke:none" d="M420 460h20v20h-20z"/><path style="fill:#1083a0;stroke:none" d="M440 460h20v20h-20zm20 0h20v20h-20zm20 0h20v20h-20z"/><path style="fill:#0e3199;stroke:none" d="M500 460h20v20h-20zm-360 20h20v20h-20z"/><path style="fill:#294cb4;stroke:none" d="M160 480h20v20h-20zm20 0h20v20h-20zm20 0h20v20h-20z"/><path style="fill:#1083a0;stroke:none" d="M220 480h20v20h-20zm20 0h20v20h-20zm20 0h20v20h-20zm20 0h20v20h-20zm20 0h20v20h-20zm20 0h20v20h-20zm20 0h20v20h-20zm20 0h20v20h-20zm20 0h20v20h-20zm20 0h20v20h-20zm20 0h20v20h-20zm20 0h20v20h-20zm20 0h20v20h-20z"/><path style="fill:#0e3199;stroke:none" d="M480 480h20v20h-20zm-320 20h20v20h-20z"/><path style="fill:#294cb4;stroke:none" d="M180 500h20v20h-20zm20 0h20v20h-20zm20 0h20v20h-20zm20 0h20v20h-20zm20 0h20v20h-20zm20 0h20v20h-20zm20 0h20v20h-20z"/><path style="fill:#1083a0;stroke:none" d="M320 500h20v20h-20zm20 0h20v20h-20zm20 0h20v20h-20zm20 0h20v20h-20zm20 0h20v20h-20zm20 0h20v20h-20zm20 0h20v20h-20z"/><path style="fill:#0e3199;stroke:none" d="M460 500h20v20h-20zm20 0h20v20h-20zm20 0h20v20h-20zm-320 20h20v20h-20zm20 0h20v20h-20z"/><path style="fill:#294cb4;stroke:none" d="M220 520h20v20h-20zm20 0h20v20h-20z"/><path style="fill:#0e3199;stroke:none" d="M260 520h20v20h-20zm20 0h20v20h-20zm20 0h20v20h-20zm20 0h20v20h-20zm20 0h20v20h-20z"/><path style="fill:#294cb4;stroke:none" d="M360 520h20v20h-20zm20 0h20v20h-20zm20 0h20v20h-20z"/><path style="fill:#0e3199;stroke:none" d="M420 520h20v20h-20zm20 0h20v20h-20z"/><path style="fill:#1083a0;stroke:none" d="M460 520h20v20h-20zm20 0h20v20h-20zm20 0h20v20h-20z"/><path style="fill:#0e3199;stroke:none" d="M520 520h20v20h-20zm-300 20h20v20h-20zm20 0h20v20h-20z"/><path style="fill:#294cb4;stroke:none" d="M260 540h20v20h-20z"/><path style="fill:#1083a0;stroke:none" d="M280 540h20v20h-20zm20 0h20v20h-20zm20 0h20v20h-20zm20 0h20v20h-20z"/><path style="fill:#0e3199;stroke:none" d="M360 540h20v20h-20zm20 0h20v20h-20zm20 0h20v20h-20z"/><path style="fill:#294cb4;stroke:none" d="M420 540h20v20h-20z"/><path style="fill:#1083a0;stroke:none" d="M440 540h20v20h-20zm20 0h20v20h-20zm20 0h20v20h-20z"/><path style="fill:#294cb4;stroke:none" d="M500 540h20v20h-20z"/><path style="fill:#0e3199;stroke:none" d="M520 540h20v20h-20zm-280 20h20v20h-20z"/><path style="fill:#294cb4;stroke:none" d="M260 560h20v20h-20zm20 0h20v20h-20zm20 0h20v20h-20zm20 0h20v20h-20zm20 0h20v20h-20z"/><path style="fill:#0e3199;stroke:none" d="M360 560h20v20h-20zm40 0h20v20h-20z"/><path style="fill:#294cb4;stroke:none" d="M420 560h20v20h-20zm20 0h20v20h-20zm20 0h20v20h-20z"/><path style="fill:#0e3199;stroke:none" d="M480 560h20v20h-20zm20 0h20v20h-20zm-240 20h20v20h-20zm20 0h20v20h-20zm20 0h20v20h-20zm20 0h20v20h-20zm20 0h20v20h-20zm80 0h20v20h-20zm20 0h20v20h-20zm20 0h20v20h-20z"/></g></svg>