<svg color-interpolation="auto" height="640" stroke="#000" stroke-linecap="square" stroke-miterlimit="10" width="640" xmlns="http://www.w3.org/2000/svg"><g stroke-linecap="round" stroke-width="2"><path d="m190 85.6574-4.8 8.3139h9.6z" fill="none"/><g><path d="m210 85.6574-4.8 8.3139h9.6z" fill="none"/><path d="m230 85.6574-4.8 8.3139h9.6z" fill="none"/><path d="m390 85.6574-4.8 8.3139h9.6z" fill="none"/><path d="m410 85.6574-4.8 8.3139h9.6z" fill="none"/><path d="m170 105.6574-4.8 8.3139h9.6z" fill="none"/><path d="m190 105.6574-4.8 8.3139h9.6z" stroke="none"/><path d="m210 105.6574-4.8 8.3139h9.6z" stroke="none"/><path d="m230 105.6574-4.8 8.3139h9.6z" stroke="none"/><path d="m250 105.6574-4.8 8.3139h9.6z" fill="none"/><path d="m270 105.6574-4.8 8.3139h9.6z" fill="none"/><path d="m370 105.6574-4.8 8.3139h9.6z" fill="none"/><path d="m390 105.6574-4.8 8.3139h9.6z" stroke="none"/><path d="m410 105.2 4.8 4.8-4.8 4.8-4.8-4.8z" fill="none"/><path d="m430 105.6574-4.8 8.3139h9.6z" fill="none"/><path d="m150 125.6574-4.8 8.3139h9.6z" fill="none"/><path d="m170 125.2 4.8 4.8-4.8 4.8-4.8-4.8z" fill="none"/><path d="m190 125.2 4.8 4.8-4.8 4.8-4.8-4.8z" fill="none"/><path d="m210 125.2 4.8 4.8-4.8 4.8-4.8-4.8z" fill="none"/><path d="m230 125.2 4.8 4.8-4.8 4.8-4.8-4.8z" fill="none"/><path d="m250 125.6574-4.8 8.3139h9.6z" stroke="none"/><path d="m270 125.6574-4.8 8.3139h9.6z" stroke="none"/><path d="m290 125.6574-4.8 8.3139h9.6z" fill="none"/><path d="m370 125.6574-4.8 8.3139h9.6z" fill="none"/><path d="m390 125.6574-4.8 8.3139h9.6z" stroke="none"/><path d="m410 125.2 4.8 4.8-4.8 4.8-4.8-4.8z" fill="none"/><path d="m430 125.6574-4.8 8.3139h9.6z" fill="none"/><path d="m490 125.6574-4.8 8.3139h9.6z" fill="none"/><path d="m510 125.6574-4.8 8.3139h9.6z" fill="none"/><path d="m530 125.6574-4.8 8.3139h9.6z" fill="none"/><path d="m110 145.6574-4.8 8.3139h9.6z" fill="none"/><path d="m130 145.6574-4.8 8.3139h9.6z" stroke="none"/><path d="m150 145.6574-4.8 8.3139h9.6z" stroke="none"/><path d="m170 145.6574-4.8 8.3139h9.6z" stroke="none"/><path d="m190 145.6574-4.8 8.3139h9.6z" stroke="none"/><path d="m210 145.2 4.8 4.8-4.8 4.8-4.8-4.8z" fill="none"/><path d="m230 145.2 4.8 4.8-4.8 4.8-4.8-4.8z" fill="none"/><path d="m250 145.2 4.8 4.8-4.8 4.8-4.8-4.8z" fill="none"/><path d="m270 145.2 4.8 4.8-4.8 4.8-4.8-4.8z" fill="none"/><path d="m290 145.6574-4.8 8.3139h9.6z" stroke="none"/><path d="m310 145.6574-4.8 8.3139h9.6z" fill="none"/><path d="m350 145.6574-4.8 8.3139h9.6z" fill="none"/><path d="m370 145.6574-4.8 8.3139h9.6z" stroke="none"/><path d="m390 145.2 4.8 4.8-4.8 4.8-4.8-4.8z" fill="none"/><path d="m410 145.2 4.8 4.8-4.8 4.8-4.8-4.8z" fill="none"/><path d="m430 145.2 4.8 4.8-4.8 4.8-4.8-4.8z" fill="none"/><path d="m450 145.6574-4.8 8.3139h9.6z" fill="none"/><path d="m470 145.6574-4.8 8.3139h9.6z" fill="none"/><path d="m490 145.2 4.8 4.8-4.8 4.8-4.8-4.8z" fill="none"/><path d="m510 145.2 4.8 4.8-4.8 4.8-4.8-4.8z" fill="none"/><path d="m530 145.2 4.8 4.8-4.8 4.8-4.8-4.8z" fill="none"/><path d="m550 145.6574-4.8 8.3139h9.6z" fill="none"/><path d="m90 165.6574-4.8 8.3139h9.6z" fill="none"/><path d="m110 165.2 4.8 4.8-4.8 4.8-4.8-4.8z" fill="none"/><path d="m130 165.2 4.8 4.8-4.8 4.8-4.8-4.8z" fill="none"/><path d="m150 165.2 4.8 4.8-4.8 4.8-4.8-4.8z" fill="none"/><path d="m170 165.2 4.8 4.8-4.8 4.8-4.8-4.8z" fill="none"/><path d="m190 165.2 4.8 4.8-4.8 4.8-4.8-4.8z" fill="none"/><path d="m210 165.6574-4.8 8.3139h9.6z" stroke="none"/><path d="m230 165.6574-4.8 8.3139h9.6z" stroke="none"/><path d="m250 165.6574-4.8 8.3139h9.6z" stroke="none"/><path d="m270 165.2 4.8 4.8-4.8 4.8-4.8-4.8z" fill="none"/><path d="m290 165.2 4.8 4.8-4.8 4.8-4.8-4.8z" fill="none"/><path d="m310 165.6574-4.8 8.3139h9.6z" stroke="none"/><path d="m330 165.6574-4.8 8.3139h9.6z" fill="none"/><path d="m350 165.6574-4.8 8.3139h9.6z" fill="none"/><path d="m370 165.6574-4.8 8.3139h9.6z" stroke="none"/><path d="m390 165.2 4.8 4.8-4.8 4.8-4.8-4.8z" fill="none"/><path d="m410 165.2 4.8 4.8-4.8 4.8-4.8-4.8z" fill="none"/><path d="m430 165.6574-4.8 8.3139h9.6z" stroke="none"/><path d="m450 165.2 4.8 4.8-4.8 4.8-4.8-4.8z" fill="none"/><path d="m470 165.2 4.8 4.8-4.8 4.8-4.8-4.8z" fill="none"/><path d="m490 165.2 4.8 4.8-4.8 4.8-4.8-4.8z" fill="none"/><path d="m510 165.2 4.8 4.8-4.8 4.8-4.8-4.8z" fill="none"/><path d="m530 165.2 4.8 4.8-4.8 4.8-4.8-4.8z" fill="none"/><path d="m550 165.6574-4.8 8.3139h9.6z" fill="none"/><path d="m90 185.6574-4.8 8.3139h9.6z" fill="none"/><path d="m110 185.2 4.8 4.8-4.8 4.8-4.8-4.8z" fill="none"/><path d="m130 185.2 4.8 4.8-4.8 4.8-4.8-4.8z" fill="none"/><path d="m150 185.2 4.8 4.8-4.8 4.8-4.8-4.8z" fill="none"/><path d="m170 185.2 4.8 4.8-4.8 4.8-4.8-4.8z" fill="none"/><path d="m190 185.2 4.8 4.8-4.8 4.8-4.8-4.8z" fill="none"/><path d="m210 185.2 4.8 4.8-4.8 4.8-4.8-4.8z" fill="none"/><path d="m230 185.2 4.8 4.8-4.8 4.8-4.8-4.8z" fill="none"/><path d="m250 185.2 4.8 4.8-4.8 4.8-4.8-4.8z" fill="none"/><path d="m270 185.6574-4.8 8.3139h9.6z" stroke="none"/><path d="m290 185.6574-4.8 8.3139h9.6z" stroke="none"/><path d="m310 185.2 4.8 4.8-4.8 4.8-4.8-4.8z" fill="none"/><path d="m330 185.6574-4.8 8.3139h9.6z" fill="none"/><path d="m350 185.6574-4.8 8.3139h9.6z" stroke="none"/><path d="m370 185.2 4.8 4.8-4.8 4.8-4.8-4.8z" fill="none"/><path d="m390 185.2 4.8 4.8-4.8 4.8-4.8-4.8z" fill="none"/><path d="m410 185.6574-4.8 8.3139h9.6z" stroke="none"/><path d="m430 185.2 4.8 4.8-4.8 4.8-4.8-4.8z" fill="none"/><path d="m450 185.2 4.8 4.8-4.8 4.8-4.8-4.8z" fill="none"/><path d="m470 185.2 4.8 4.8-4.8 4.8-4.8-4.8z" fill="none"/><path d="m490 185.2 4.8 4.8-4.8 4.8-4.8-4.8z" fill="none"/><path d="m510 185.2 4.8 4.8-4.8 4.8-4.8-4.8z" fill="none"/><path d="m530 185.2 4.8 4.8-4.8 4.8-4.8-4.8z" fill="none"/><path d="m550 185.6574-4.8 8.3139h9.6z" fill="none"/><path d="m90 205.6574-4.8 8.3139h9.6z" fill="none"/><path d="m110 205.2 4.8 4.8-4.8 4.8-4.8-4.8z" fill="none"/><path d="m130 205.2 4.8 4.8-4.8 4.8-4.8-4.8z" fill="none"/><path d="m150 205.2 4.8 4.8-4.8 4.8-4.8-4.8z" fill="none"/><path d="m170 205.2 4.8 4.8-4.8 4.8-4.8-4.8z" fill="none"/><path d="m190 205.2 4.8 4.8-4.8 4.8-4.8-4.8z" fill="none"/><path d="m210 205.2 4.8 4.8-4.8 4.8-4.8-4.8z" fill="none"/><path d="m230 205.2 4.8 4.8-4.8 4.8-4.8-4.8z" fill="none"/><path d="m250 205.2 4.8 4.8-4.8 4.8-4.8-4.8z" fill="none"/><path d="m270 205.2 4.8 4.8-4.8 4.8-4.8-4.8z" fill="none"/><path d="m290 205.2 4.8 4.8-4.8 4.8-4.8-4.8z" fill="none"/><path d="m310 205.6574-4.8 8.3139h9.6z" stroke="none"/><path d="m330 205.6574-4.8 8.3139h9.6z" fill="none"/><path d="m350 205.2 4.8 4.8-4.8 4.8-4.8-4.8z" fill="none"/><path d="m370 205.2 4.8 4.8-4.8 4.8-4.8-4.8z" fill="none"/><path d="m390 205.6574-4.8 8.3139h9.6z" stroke="none"/><g fill="none"><path d="m410 205.2 4.8 4.8-4.8 4.8-4.8-4.8z"/><path d="m430 205.2 4.8 4.8-4.8 4.8-4.8-4.8z"/><path d="m450 205.2 4.8 4.8-4.8 4.8-4.8-4.8z"/><path d="m470 205.2 4.8 4.8-4.8 4.8-4.8-4.8z"/><path d="m490 205.2 4.8 4.8-4.8 4.8-4.8-4.8z"/><path d="m510 205.2 4.8 4.8-4.8 4.8-4.8-4.8z"/><path d="m530 205.6574-4.8 8.3139h9.6z"/><path d="m110 225.6574-4.8 8.3139h9.6z"/><path d="m130 225.2 4.8 4.8-4.8 4.8-4.8-4.8z"/><path d="m150 225.2 4.8 4.8-4.8 4.8-4.8-4.8z"/><path d="m170 225.2 4.8 4.8-4.8 4.8-4.8-4.8z"/><path d="m190 225.2 4.8 4.8-4.8 4.8-4.8-4.8z"/><path d="m210 225.2 4.8 4.8-4.8 4.8-4.8-4.8z"/><path d="m230 225.2 4.8 4.8-4.8 4.8-4.8-4.8z"/><path d="m250 225.2 4.8 4.8-4.8 4.8-4.8-4.8z"/><path d="m270 225.2 4.8 4.8-4.8 4.8-4.8-4.8z"/><path d="m290 225.2 4.8 4.8-4.8 4.8-4.8-4.8z"/><path d="m310 225.2 4.8 4.8-4.8 4.8-4.8-4.8z"/><path d="m330 225.2 4.8 4.8-4.8 4.8-4.8-4.8z"/><path d="m350 225.2 4.8 4.8-4.8 4.8-4.8-4.8z"/><path d="m370 225.2 4.8 4.8-4.8 4.8-4.8-4.8z"/><path d="m390 225.2 4.8 4.8-4.8 4.8-4.8-4.8z"/><path d="m410 225.2 4.8 4.8-4.8 4.8-4.8-4.8z"/><path d="m430 225.2 4.8 4.8-4.8 4.8-4.8-4.8z"/><path d="m450 225.2 4.8 4.8-4.8 4.8-4.8-4.8z"/><path d="m470 225.2 4.8 4.8-4.8 4.8-4.8-4.8z"/><path d="m490 225.2 4.8 4.8-4.8 4.8-4.8-4.8z"/><path d="m510 225.2 4.8 4.8-4.8 4.8-4.8-4.8z"/><path d="m530 225.6574-4.8 8.3139h9.6z"/><path d="m130 245.6574-4.8 8.3139h9.6z"/><path d="m150 245.6574-4.8 8.3139h9.6z"/><path d="m170 245.2 4.8 4.8-4.8 4.8-4.8-4.8z"/><path d="m190 245.2 4.8 4.8-4.8 4.8-4.8-4.8z"/><path d="m210 245.2 4.8 4.8-4.8 4.8-4.8-4.8z"/><path d="m230 245.2 4.8 4.8-4.8 4.8-4.8-4.8z"/><path d="m250 245.2 4.8 4.8-4.8 4.8-4.8-4.8z"/><path d="m270 245.2 4.8 4.8-4.8 4.8-4.8-4.8z"/><path d="m290 245.2 4.8 4.8-4.8 4.8-4.8-4.8z"/><path d="m310 245.2 4.8 4.8-4.8 4.8-4.8-4.8z"/><path d="m330 245.2 4.8 4.8-4.8 4.8-4.8-4.8z"/><path d="m350 245.2 4.8 4.8-4.8 4.8-4.8-4.8z"/><path d="m370 245.2 4.8 4.8-4.8 4.8-4.8-4.8z"/><path d="m390 245.2 4.8 4.8-4.8 4.8-4.8-4.8z"/><path d="m410 245.2 4.8 4.8-4.8 4.8-4.8-4.8z"/><path d="m430 245.2 4.8 4.8-4.8 4.8-4.8-4.8z"/><path d="m450 245.2 4.8 4.8-4.8 4.8-4.8-4.8z"/><path d="m470 245.2 4.8 4.8-4.8 4.8-4.8-4.8z"/><path d="m490 245.2 4.8 4.8-4.8 4.8-4.8-4.8z"/><path d="m510 245.6574-4.8 8.3139h9.6z"/><path d="m170 265.6574-4.8 8.3139h9.6z"/><path d="m190 265.6574-4.8 8.3139h9.6z"/><path d="m210 265.2 4.8 4.8-4.8 4.8-4.8-4.8z"/><path d="m230 265.2 4.8 4.8-4.8 4.8-4.8-4.8z"/><path d="m250 265.2 4.8 4.8-4.8 4.8-4.8-4.8z"/><path d="m270 265.2 4.8 4.8-4.8 4.8-4.8-4.8z"/><path d="m290 265.2 4.8 4.8-4.8 4.8-4.8-4.8z"/><path d="m310 265.2 4.8 4.8-4.8 4.8-4.8-4.8z"/><path d="m330 265.2 4.8 4.8-4.8 4.8-4.8-4.8z"/><path d="m350 265.2 4.8 4.8-4.8 4.8-4.8-4.8z"/><path d="m370 265.2 4.8 4.8-4.8 4.8-4.8-4.8z"/><path d="m390 265.2 4.8 4.8-4.8 4.8-4.8-4.8z"/><path d="m410 265.2 4.8 4.8-4.8 4.8-4.8-4.8z"/><path d="m430 265.2 4.8 4.8-4.8 4.8-4.8-4.8z"/><path d="m450 265.2 4.8 4.8-4.8 4.8-4.8-4.8z"/><path d="m470 265.2 4.8 4.8-4.8 4.8-4.8-4.8z"/><path d="m490 265.6574-4.8 8.3139h9.6z"/><path d="m210 285.6574-4.8 8.3139h9.6z"/><path d="m230 285.6574-4.8 8.3139h9.6z"/><path d="m250 285.2 4.8 4.8-4.8 4.8-4.8-4.8z"/><path d="m270 285.2 4.8 4.8-4.8 4.8-4.8-4.8z"/><path d="m290 285.2 4.8 4.8-4.8 4.8-4.8-4.8z"/><path d="m310 285.2 4.8 4.8-4.8 4.8-4.8-4.8z"/><path d="m330 285.2 4.8 4.8-4.8 4.8-4.8-4.8z"/><path d="m350 285.2 4.8 4.8-4.8 4.8-4.8-4.8z"/><path d="m370 285.2 4.8 4.8-4.8 4.8-4.8-4.8z"/><path d="m390 285.2 4.8 4.8-4.8 4.8-4.8-4.8z"/><path d="m410 285.2 4.8 4.8-4.8 4.8-4.8-4.8z"/><path d="m430 285.2 4.8 4.8-4.8 4.8-4.8-4.8z"/><path d="m450 285.2 4.8 4.8-4.8 4.8-4.8-4.8z"/><path d="m470 285.6574-4.8 8.3139h9.6z"/><path d="m185.2 305.2 9.6 9.6"/><path d="m185.2 314.8 9.6-9.6"/><path d="m205.2 305.2 9.6 9.6"/><path d="m205.2 314.8 9.6-9.6"/><path d="m225.2 305.2h9.6v9.6h-9.6z"/><path d="m250 305.6574-4.8 8.3139h9.6z"/><path d="m270 305.6574-4.8 8.3139h9.6z"/><path d="m290 305.6574-4.8 8.3139h9.6z"/><path d="m310 305.6574-4.8 8.3139h9.6z"/><path d="m330 305.2 4.8 4.8-4.8 4.8-4.8-4.8z"/><path d="m350 305.2 4.8 4.8-4.8 4.8-4.8-4.8z"/><path d="m370 305.6574-4.8 8.3139h9.6z"/><path d="m390 305.2 4.8 4.8-4.8 4.8-4.8-4.8z"/><path d="m410 305.2 4.8 4.8-4.8 4.8-4.8-4.8z"/><path d="m430 305.6574-4.8 8.3139h9.6z"/><path d="m445.2 305.2 9.6 9.6"/><path d="m445.2 314.8 9.6-9.6"/><path d="m165.2 325.2 9.6 9.6"/><path d="m165.2 334.8 9.6-9.6"/><path d="m185.2 325.2h9.6v9.6h-9.6z"/><path d="m205.2 325.2h9.6v9.6h-9.6z"/><path d="m225.2 325.2h9.6v9.6h-9.6z"/><path d="m245.2 325.2h9.6v9.6h-9.6z"/><path d="m265.2 325.2h9.6v9.6h-9.6z"/><path d="m285.2 325.2h9.6v9.6h-9.6z"/><path d="m305.2 325.2h9.6v9.6h-9.6z"/><path d="m325.2 325.2h9.6v9.6h-9.6z"/><path d="m345.2 325.2h9.6v9.6h-9.6z"/><path d="m365.2 325.2h9.6v9.6h-9.6z"/><path d="m385.2 325.2h9.6v9.6h-9.6z"/><path d="m405.2 325.2h9.6v9.6h-9.6z"/><path d="m425.2 325.2h9.6v9.6h-9.6z"/><path d="m445.2 325.2h9.6v9.6h-9.6z"/><path d="m465.2 325.2 9.6 9.6"/><path d="m465.2 334.8 9.6-9.6"/><path d="m145.2 345.2 9.6 9.6"/><path d="m145.2 354.8 9.6-9.6"/><path d="m165.2 345.2h9.6v9.6h-9.6z"/><path d="m185.2 345.2h9.6v9.6h-9.6z"/><path d="m205.2 345.2h9.6v9.6h-9.6z"/><path d="m225.2 345.2h9.6v9.6h-9.6z"/><path d="m245.2 345.2h9.6v9.6h-9.6z"/><path d="m265.2 345.2h9.6v9.6h-9.6z"/><path d="m285.2 345.2h9.6v9.6h-9.6z"/><path d="m305.2 345.2h9.6v9.6h-9.6z"/><path d="m325.2 345.2h9.6v9.6h-9.6z"/><path d="m345.2 345.2h9.6v9.6h-9.6z"/><path d="m365.2 345.2h9.6v9.6h-9.6z"/><path d="m385.2 345.2h9.6v9.6h-9.6z"/><path d="m405.2 345.2h9.6v9.6h-9.6z"/><path d="m425.2 345.2h9.6v9.6h-9.6z"/><path d="m445.2 345.2h9.6v9.6h-9.6z"/><path d="m465.2 345.2h9.6v9.6h-9.6z"/><path d="m485.2 345.2 9.6 9.6"/><path d="m485.2 354.8 9.6-9.6"/><path d="m145.2 365.2 9.6 9.6"/><path d="m145.2 374.8 9.6-9.6"/><path d="m165.2 365.2h9.6v9.6h-9.6z"/><path d="m185.2 365.2h9.6v9.6h-9.6z"/><path d="m205.2 365.2h9.6v9.6h-9.6z"/><path d="m225.2 365.2h9.6v9.6h-9.6z"/><path d="m245.2 365.2h9.6v9.6h-9.6z"/><path d="m265.2 365.2h9.6v9.6h-9.6z"/><path d="m285.2 365.2h9.6v9.6h-9.6z"/><path d="m305.2 365.2h9.6v9.6h-9.6z"/><path d="m325.2 365.2h9.6v9.6h-9.6z"/><path d="m345.2 365.2h9.6v9.6h-9.6z"/><path d="m365.2 365.2h9.6v9.6h-9.6z"/><path d="m385.2 365.2h9.6v9.6h-9.6z"/><path d="m405.2 365.2h9.6v9.6h-9.6z"/><path d="m425.2 365.2h9.6v9.6h-9.6z"/><path d="m445.2 365.2h9.6v9.6h-9.6z"/><path d="m465.2 365.2h9.6v9.6h-9.6z"/><path d="m485.2 365.2 9.6 9.6"/><path d="m485.2 374.8 9.6-9.6"/><path d="m125.2 385.2 9.6 9.6"/><path d="m125.2 394.8 9.6-9.6"/><path d="m145.2 385.2h9.6v9.6h-9.6z"/><path d="m165.2 385.2h9.6v9.6h-9.6z"/><path d="m185.2 385.2h9.6v9.6h-9.6z"/><path d="m205.2 385.2h9.6v9.6h-9.6z"/><path d="m225.2 385.2h9.6v9.6h-9.6z"/><path d="m245.2 385.2h9.6v9.6h-9.6z"/><path d="m265.2 385.2h9.6v9.6h-9.6z"/><path d="m285.2 385.2h9.6v9.6h-9.6z"/><path d="m305.2 385.2h9.6v9.6h-9.6z"/><path d="m325.2 385.2h9.6v9.6h-9.6z"/><path d="m345.2 385.2h9.6v9.6h-9.6z"/></g><circle cx="370" cy="390" r="4.8" stroke="none"/><circle cx="390" cy="390" r="4.8" stroke="none"/><path d="m405.2 385.2h9.6v9.6h-9.6z" fill="none"/><path d="m425.2 385.2h9.6v9.6h-9.6z" fill="none"/><path d="m445.2 385.2h9.6v9.6h-9.6z" fill="none"/><circle cx="470" cy="390" r="4.8" stroke="none"/><path d="m485.2 385.2h9.6v9.6h-9.6z" fill="none"/><path d="m505.2 385.2 9.6 9.6" fill="none"/><path d="m505.2 394.8 9.6-9.6" fill="none"/><path d="m125.2 405.2 9.6 9.6" fill="none"/><path d="m125.2 414.8 9.6-9.6" fill="none"/><path d="m145.2 405.2h9.6v9.6h-9.6z" fill="none"/><path d="m165.2 405.2h9.6v9.6h-9.6z" fill="none"/><path d="m185.2 405.2h9.6v9.6h-9.6z" fill="none"/><path d="m205.2 405.2h9.6v9.6h-9.6z" fill="none"/><path d="m225.2 405.2h9.6v9.6h-9.6z" fill="none"/><path d="m245.2 405.2h9.6v9.6h-9.6z" fill="none"/><path d="m265.2 405.2h9.6v9.6h-9.6z" fill="none"/><path d="m285.2 405.2h9.6v9.6h-9.6z" fill="none"/><path d="m305.2 405.2h9.6v9.6h-9.6z" fill="none"/><path d="m325.2 405.2h9.6v9.6h-9.6z" fill="none"/><path d="m345.2 405.2h9.6v9.6h-9.6z" fill="none"/><path d="m370 405.2 4.8 4.8-4.8 4.8-4.8-4.8z" stroke="none"/><circle cx="390" cy="410" r="4.8" stroke="none"/><circle cx="410" cy="410" r="4.8" stroke="none"/><path d="m425.2 405.2h9.6v9.6h-9.6z" fill="none"/><path d="m445.2 405.2h9.6v9.6h-9.6z" fill="none"/><path d="m470 405.2 4.8 4.8-4.8 4.8-4.8-4.8z" stroke="none"/><circle cx="490" cy="410" r="4.8" stroke="none"/><path d="m505.2 405.2 9.6 9.6" fill="none"/><path d="m505.2 414.8 9.6-9.6" fill="none"/><path d="m125.2 425.2 9.6 9.6" fill="none"/><path d="m125.2 434.8 9.6-9.6" fill="none"/><path d="m145.2 425.2h9.6v9.6h-9.6z" fill="none"/><path d="m165.2 425.2h9.6v9.6h-9.6z" fill="none"/><path d="m185.2 425.2h9.6v9.6h-9.6z" fill="none"/><path d="m205.2 425.2h9.6v9.6h-9.6z" fill="none"/><path d="m225.2 425.2h9.6v9.6h-9.6z" fill="none"/><path d="m245.2 425.2h9.6v9.6h-9.6z" fill="none"/><path d="m265.2 425.2h9.6v9.6h-9.6z" fill="none"/><path d="m285.2 425.2h9.6v9.6h-9.6z" fill="none"/><path d="m305.2 425.2h9.6v9.6h-9.6z" fill="none"/><path d="m325.2 425.2h9.6v9.6h-9.6z" fill="none"/><path d="m345.2 425.2h9.6v9.6h-9.6z" fill="none"/><circle cx="370" cy="430" r="4.8" stroke="none"/><circle cx="390" cy="430" r="4.8" stroke="none"/><path d="m405.2 425.2h9.6v9.6h-9.6z" fill="none"/><path d="m425.2 425.2h9.6v9.6h-9.6z" fill="none"/><path d="m445.2 425.2h9.6v9.6h-9.6z" fill="none"/><circle cx="470" cy="430" r="4.8" stroke="none"/><path d="m485.2 425.2h9.6v9.6h-9.6z" fill="none"/><path d="m505.2 425.2 9.6 9.6" fill="none"/><path d="m505.2 434.8 9.6-9.6" fill="none"/><path d="m125.2 445.2 9.6 9.6" fill="none"/><path d="m125.2 454.8 9.6-9.6" fill="none"/><path d="m145.2 445.2h9.6v9.6h-9.6z" stroke="none"/><path d="m165.2 445.2h9.6v9.6h-9.6z" fill="none"/><path d="m185.2 445.2h9.6v9.6h-9.6z" fill="none"/><path d="m205.2 445.2h9.6v9.6h-9.6z" fill="none"/><path d="m225.2 445.2h9.6v9.6h-9.6z" fill="none"/><path d="m245.2 445.2h9.6v9.6h-9.6z" fill="none"/><path d="m265.2 445.2h9.6v9.6h-9.6z" fill="none"/><path d="m285.2 445.2h9.6v9.6h-9.6z" fill="none"/><path d="m305.2 445.2h9.6v9.6h-9.6z" fill="none"/><path d="m325.2 445.2h9.6v9.6h-9.6z" fill="none"/><path d="m345.2 445.2h9.6v9.6h-9.6z" fill="none"/><path d="m365.2 445.2h9.6v9.6h-9.6z" fill="none"/><path d="m385.2 445.2h9.6v9.6h-9.6z" fill="none"/><path d="m405.2 445.2h9.6v9.6h-9.6z" fill="none"/><path d="m425.2 445.2h9.6v9.6h-9.6z" fill="none"/><path d="m445.2 445.2h9.6v9.6h-9.6z" fill="none"/><path d="m465.2 445.2h9.6v9.6h-9.6z" fill="none"/><path d="m485.2 445.2h9.6v9.6h-9.6z" fill="none"/><path d="m505.2 445.2 9.6 9.6" fill="none"/><path d="m505.2 454.8 9.6-9.6" fill="none"/><path d="m125.2 465.2 9.6 9.6" fill="none"/><path d="m125.2 474.8 9.6-9.6" fill="none"/><path d="m145.2 465.2h9.6v9.6h-9.6z" stroke="none"/><path d="m165.2 465.2h9.6v9.6h-9.6z" stroke="none"/><path d="m185.2 465.2h9.6v9.6h-9.6z" fill="none"/><path d="m205.2 465.2h9.6v9.6h-9.6z" fill="none"/><path d="m225.2 465.2h9.6v9.6h-9.6z" fill="none"/><path d="m245.2 465.2h9.6v9.6h-9.6z" fill="none"/><path d="m265.2 465.2h9.6v9.6h-9.6z" fill="none"/><path d="m285.2 465.2h9.6v9.6h-9.6z" fill="none"/><path d="m305.2 465.2h9.6v9.6h-9.6z" fill="none"/><path d="m325.2 465.2h9.6v9.6h-9.6z" fill="none"/><path d="m345.2 465.2h9.6v9.6h-9.6z" fill="none"/><path d="m365.2 465.2h9.6v9.6h-9.6z" fill="none"/><path d="m385.2 465.2h9.6v9.6h-9.6z" fill="none"/><path d="m405.2 465.2h9.6v9.6h-9.6z" fill="none"/><path d="m425.2 465.2 9.6 9.6" fill="none"/><path d="m425.2 474.8 9.6-9.6" fill="none"/><path d="m445.2 465.2h9.6v9.6h-9.6z" fill="none"/><path d="m465.2 465.2h9.6v9.6h-9.6z" fill="none"/><path d="m485.2 465.2h9.6v9.6h-9.6z" fill="none"/><path d="m505.2 465.2 9.6 9.6" fill="none"/><path d="m505.2 474.8 9.6-9.6" fill="none"/><path d="m145.2 485.2 9.6 9.6" fill="none"/><path d="m145.2 494.8 9.6-9.6" fill="none"/><path d="m165.2 485.2h9.6v9.6h-9.6z" stroke="none"/><path d="m185.2 485.2h9.6v9.6h-9.6z" stroke="none"/><path d="m205.2 485.2h9.6v9.6h-9.6z" stroke="none"/><path d="m225.2 485.2h9.6v9.6h-9.6z" fill="none"/><path d="m245.2 485.2h9.6v9.6h-9.6z" fill="none"/><path d="m265.2 485.2h9.6v9.6h-9.6z" fill="none"/><path d="m285.2 485.2h9.6v9.6h-9.6z" fill="none"/><path d="m305.2 485.2h9.6v9.6h-9.6z" fill="none"/><path d="m325.2 485.2h9.6v9.6h-9.6z" fill="none"/><path d="m345.2 485.2h9.6v9.6h-9.6z" fill="none"/><path d="m365.2 485.2h9.6v9.6h-9.6z" fill="none"/><path d="m385.2 485.2h9.6v9.6h-9.6z" fill="none"/><path d="m405.2 485.2h9.6v9.6h-9.6z" fill="none"/><path d="m425.2 485.2h9.6v9.6h-9.6z" fill="none"/><path d="m445.2 485.2h9.6v9.6h-9.6z" fill="none"/><path d="m465.2 485.2h9.6v9.6h-9.6z" fill="none"/><path d="m485.2 485.2 9.6 9.6" fill="none"/><path d="m485.2 494.8 9.6-9.6" fill="none"/><path d="m165.2 505.2 9.6 9.6" fill="none"/><path d="m165.2 514.8 9.6-9.6" fill="none"/><path d="m185.2 505.2h9.6v9.6h-9.6z" stroke="none"/><path d="m205.2 505.2h9.6v9.6h-9.6z" stroke="none"/><path d="m225.2 505.2h9.6v9.6h-9.6z" stroke="none"/><path d="m245.2 505.2h9.6v9.6h-9.6z" stroke="none"/><path d="m265.2 505.2h9.6v9.6h-9.6z" stroke="none"/><path d="m285.2 505.2h9.6v9.6h-9.6z" stroke="none"/><path d="m305.2 505.2h9.6v9.6h-9.6z" stroke="none"/><path d="m325.2 505.2h9.6v9.6h-9.6z" fill="none"/><path d="m345.2 505.2h9.6v9.6h-9.6z" fill="none"/><path d="m365.2 505.2h9.6v9.6h-9.6z" fill="none"/><path d="m385.2 505.2h9.6v9.6h-9.6z" fill="none"/><path d="m405.2 505.2h9.6v9.6h-9.6z" fill="none"/><path d="m425.2 505.2h9.6v9.6h-9.6z" fill="none"/><path d="m445.2 505.2h9.6v9.6h-9.6z" fill="none"/><path d="m465.2 505.2 9.6 9.6" fill="none"/><path d="m465.2 514.8 9.6-9.6" fill="none"/><path d="m485.2 505.2 9.6 9.6" fill="none"/><path d="m485.2 514.8 9.6-9.6" fill="none"/><path d="m505.2 505.2 9.6 9.6" fill="none"/><path d="m505.2 514.8 9.6-9.6" fill="none"/><path d="m185.2 525.2 9.6 9.6" fill="none"/><path d="m185.2 534.8 9.6-9.6" fill="none"/><path d="m205.2 525.2 9.6 9.6" fill="none"/><path d="m205.2 534.8 9.6-9.6" fill="none"/><path d="m225.2 525.2h9.6v9.6h-9.6z" stroke="none"/><path d="m245.2 525.2h9.6v9.6h-9.6z" stroke="none"/><path d="m265.2 525.2 9.6 9.6" fill="none"/><path d="m265.2 534.8 9.6-9.6" fill="none"/><path d="m285.2 525.2 9.6 9.6" fill="none"/><path d="m285.2 534.8 9.6-9.6" fill="none"/><path d="m305.2 525.2 9.6 9.6" fill="none"/><path d="m305.2 534.8 9.6-9.6" fill="none"/><path d="m325.2 525.2 9.6 9.6" fill="none"/><path d="m325.2 534.8 9.6-9.6" fill="none"/><path d="m345.2 525.2 9.6 9.6" fill="none"/><path d="m345.2 534.8 9.6-9.6" fill="none"/><path d="m365.2 525.2h9.6v9.6h-9.6z" stroke="none"/><path d="m385.2 525.2h9.6v9.6h-9.6z" stroke="none"/><path d="m405.2 525.2h9.6v9.6h-9.6z" stroke="none"/><path d="m425.2 525.2 9.6 9.6" fill="none"/><path d="m425.2 534.8 9.6-9.6" fill="none"/><path d="m445.2 525.2 9.6 9.6" fill="none"/><path d="m445.2 534.8 9.6-9.6" fill="none"/><path d="m465.2 525.2h9.6v9.6h-9.6z" fill="none"/><path d="m485.2 525.2h9.6v9.6h-9.6z" fill="none"/><path d="m505.2 525.2h9.6v9.6h-9.6z" fill="none"/><path d="m525.2 525.2 9.6 9.6" fill="none"/><path d="m525.2 534.8 9.6-9.6" fill="none"/><path d="m225.2 545.2 9.6 9.6" fill="none"/><path d="m225.2 554.8 9.6-9.6" fill="none"/><path d="m245.2 545.2 9.6 9.6" fill="none"/><path d="m245.2 554.8 9.6-9.6" fill="none"/><path d="m265.2 545.2h9.6v9.6h-9.6z" stroke="none"/><path d="m285.2 545.2h9.6v9.6h-9.6z" fill="none"/><path d="m305.2 545.2h9.6v9.6h-9.6z" fill="none"/><path d="m325.2 545.2h9.6v9.6h-9.6z" fill="none"/><path d="m345.2 545.2h9.6v9.6h-9.6z" fill="none"/><path d="m365.2 545.2 9.6 9.6" fill="none"/><path d="m365.2 554.8 9.6-9.6" fill="none"/><path d="m385.2 545.2 9.6 9.6" fill="none"/><path d="m385.2 554.8 9.6-9.6" fill="none"/><path d="m405.2 545.2 9.6 9.6" fill="none"/><path d="m405.2 554.8 9.6-9.6" fill="none"/><path d="m425.2 545.2h9.6v9.6h-9.6z" stroke="none"/><path d="m445.2 545.2h9.6v9.6h-9.6z" fill="none"/><path d="m465.2 545.2h9.6v9.6h-9.6z" fill="none"/><path d="m485.2 545.2h9.6v9.6h-9.6z" fill="none"/><path d="m505.2 545.2h9.6v9.6h-9.6z" stroke="none"/><path d="m525.2 545.2 9.6 9.6" fill="none"/><path d="m525.2 554.8 9.6-9.6" fill="none"/><path d="m245.2 565.2 9.6 9.6" fill="none"/><path d="m245.2 574.8 9.6-9.6" fill="none"/><path d="m265.2 565.2h9.6v9.6h-9.6z" stroke="none"/><path d="m285.2 565.2h9.6v9.6h-9.6z" stroke="none"/><path d="m305.2 565.2h9.6v9.6h-9.6z" stroke="none"/><path d="m325.2 565.2h9.6v9.6h-9.6z" stroke="none"/><path d="m345.2 565.2h9.6v9.6h-9.6z" stroke="none"/><path d="m365.2 565.2 9.6 9.6" fill="none"/><path d="m365.2 574.8 9.6-9.6" fill="none"/><path d="m405.2 565.2 9.6 9.6" fill="none"/><path d="m405.2 574.8 9.6-9.6" fill="none"/><path d="m425.2 565.2h9.6v9.6h-9.6z" stroke="none"/><path d="m445.2 565.2h9.6v9.6h-9.6z" stroke="none"/><path d="m465.2 565.2h9.6v9.6h-9.6z" stroke="none"/><path d="m485.2 565.2 9.6 9.6" fill="none"/><path d="m485.2 574.8 9.6-9.6" fill="none"/><path d="m505.2 565.2 9.6 9.6" fill="none"/><path d="m505.2 574.8 9.6-9.6" fill="none"/><path d="m265.2 585.2 9.6 9.6" fill="none"/><path d="m265.2 594.8 9.6-9.6" fill="none"/><path d="m285.2 585.2 9.6 9.6" fill="none"/><path d="m285.2 594.8 9.6-9.6" fill="none"/><path d="m305.2 585.2 9.6 9.6" fill="none"/><path d="m305.2 594.8 9.6-9.6" fill="none"/><path d="m325.2 585.2 9.6 9.6" fill="none"/><path d="m325.2 594.8 9.6-9.6" fill="none"/><path d="m345.2 585.2 9.6 9.6" fill="none"/><path d="m345.2 594.8 9.6-9.6" fill="none"/><path d="m425.2 585.2 9.6 9.6" fill="none"/><path d="m425.2 594.8 9.6-9.6" fill="none"/><path d="m445.2 585.2 9.6 9.6" fill="none"/><path d="m445.2 594.8 9.6-9.6" fill="none"/><path d="m465.2 585.2 9.6 9.6" fill="none"/><path d="m465.2 594.8 9.6-9.6" fill="none"/><path d="m0 0v640" fill="none" stroke="#b4b4b4"/><path d="m20 0v640" fill="none" stroke="#b4b4b4" stroke-width="1"/><path d="m40 0v640" fill="none" stroke="#b4b4b4" stroke-width="1"/><path d="m60 0v640" fill="none" stroke="#b4b4b4" stroke-width="1"/><path d="m80 0v640" fill="none" stroke="#b4b4b4" stroke-width="1"/><path d="m100 0v640" fill="none" stroke="#b4b4b4" stroke-width="1"/><path d="m120 0v640" fill="none" stroke="#b4b4b4" stroke-width="1"/><path d="m140 0v640" fill="none" stroke="#b4b4b4" stroke-width="1"/><path d="m160 0v640" fill="none" stroke="#b4b4b4" stroke-width="1"/><path d="m180 0v640" fill="none" stroke="#b4b4b4" stroke-width="1"/><path d="m200 0v640" fill="none" stroke="#b4b4b4" stroke-width="1"/><path d="m220 0v640" fill="none" stroke="#b4b4b4" stroke-width="1"/><path d="m240 0v640" fill="none" stroke="#b4b4b4" stroke-width="1"/><path d="m260 0v640" fill="none" stroke="#b4b4b4" stroke-width="1"/><path d="m280 0v640" fill="none" stroke="#b4b4b4" stroke-width="1"/><path d="m300 0v640" fill="none" stroke="#b4b4b4" stroke-width="1"/><path d="m320 0v640" fill="none" stroke="#b4b4b4" stroke-width="1"/><path d="m340 0v640" fill="none" stroke="#b4b4b4" stroke-width="1"/><path d="m360 0v640" fill="none" stroke="#b4b4b4" stroke-width="1"/><path d="m380 0v640" fill="none" stroke="#b4b4b4" stroke-width="1"/><path d="m400 0v640" fill="none" stroke="#b4b4b4" stroke-width="1"/><path d="m420 0v640" fill="none" stroke="#b4b4b4" stroke-width="1"/><path d="m440 0v640" fill="none" stroke="#b4b4b4" stroke-width="1"/><path d="m460 0v640" fill="none" stroke="#b4b4b4" stroke-width="1"/><path d="m480 0v640" fill="none" stroke="#b4b4b4" stroke-width="1"/><path d="m500 0v640" fill="none" stroke="#b4b4b4" stroke-width="1"/><path d="m520 0v640" fill="none" stroke="#b4b4b4" stroke-width="1"/><path d="m540 0v640" fill="none" stroke="#b4b4b4" stroke-width="1"/><path d="m560 0v640" fill="none" stroke="#b4b4b4" stroke-width="1"/><path d="m580 0v640" fill="none" stroke="#b4b4b4" stroke-width="1"/><path d="m600 0v640" fill="none" stroke="#b4b4b4" stroke-width="1"/><path d="m620 0v640" fill="none" stroke="#b4b4b4" stroke-width="1"/><path d="m640 0v640" fill="none" stroke="#b4b4b4"/><path d="m0 0h640" fill="none" stroke="#b4b4b4"/><path d="m0 20h640" fill="none" stroke="#b4b4b4" stroke-width="1"/><path d="m0 40h640" fill="none" stroke="#b4b4b4" stroke-width="1"/><path d="m0 60h640" fill="none" stroke="#b4b4b4" stroke-width="1"/><path d="m0 80h640" fill="none" stroke="#b4b4b4" stroke-width="1"/><path d="m0 100h640" fill="none" stroke="#b4b4b4" stroke-width="1"/><path d="m0 120h640" fill="none" stroke="#b4b4b4" stroke-width="1"/><path d="m0 140h640" fill="none" stroke="#b4b4b4" stroke-width="1"/><path d="m0 160h640" fill="none" stroke="#b4b4b4" stroke-width="1"/><path d="m0 180h640" fill="none" stroke="#b4b4b4" stroke-width="1"/><path d="m0 200h640" fill="none" stroke="#b4b4b4" stroke-width="1"/><path d="m0 220h640" fill="none" stroke="#b4b4b4" stroke-width="1"/><path d="m0 240h640" fill="none" stroke="#b4b4b4" stroke-width="1"/><path d="m0 260h640" fill="none" stroke="#b4b4b4" stroke-width="1"/><path d="m0 280h640" fill="none" stroke="#b4b4b4" stroke-width="1"/><path d="m0 300h640" fill="none" stroke="#b4b4b4" stroke-width="1"/><path d="m0 320h640" fill="none" stroke="#b4b4b4" stroke-width="1"/><path d="m0 340h640" fill="none" stroke="#b4b4b4" stroke-width="1"/><path d="m0 360h640" fill="none" stroke="#b4b4b4" stroke-width="1"/><path d="m0 380h640" fill="none" stroke="#b4b4b4" stroke-width="1"/><path d="m0 400h640" fill="none" stroke="#b4b4b4" stroke-width="1"/><path d="m0 420h640" fill="none" stroke="#b4b4b4" stroke-width="1"/><path d="m0 440h640" fill="none" stroke="#b4b4b4" stroke-width="1"/><path d="m0 460h640" fill="none" stroke="#b4b4b4" stroke-width="1"/><path d="m0 480h640" fill="none" stroke="#b4b4b4" stroke-width="1"/><path d="m0 500h640" fill="none" stroke="#b4b4b4" stroke-width="1"/><path d="m0 520h640" fill="none" stroke="#b4b4b4" stroke-width="1"/><path d="m0 540h640" fill="none" stroke="#b4b4b4" stroke-width="1"/><path d="m0 560h640" fill="none" stroke="#b4b4b4" stroke-width="1"/><path d="m0 580h640" fill="none" stroke="#b4b4b4" stroke-width="1"/><path d="m0 600h640" fill="none" stroke="#b4b4b4" stroke-width="1"/><path d="m0 620h640" fill="none" stroke="#b4b4b4" stroke-width="1"/><path d="m0 640h640" fill="none" stroke="#b4b4b4"/></g></g></svg>