<svg color-interpolation="auto" height="640" stroke="#000" stroke-linecap="square" stroke-miterlimit="10" width="640" xmlns="http://www.w3.org/2000/svg"><g stroke-linecap="round" stroke-width="2"><path d="m190 84.2099-6.4 11.0851h12.8z" fill="none"/><g><path d="m210 84.2099-6.4 11.0851h12.8z" fill="none"/><path d="m230 84.2099-6.4 11.0851h12.8z" fill="none"/><path d="m390 84.2099-6.4 11.0851h12.8z" fill="none"/><path d="m410 84.2099-6.4 11.0851h12.8z" fill="none"/><path d="m170 104.2099-6.4 11.0851h12.8z" fill="none"/><path d="m190 104.2099-6.4 11.0851h12.8z" stroke="none"/><path d="m210 104.2099-6.4 11.0851h12.8z" stroke="none"/><path d="m230 104.2099-6.4 11.0851h12.8z" stroke="none"/><path d="m250 104.2099-6.4 11.0851h12.8z" fill="none"/><path d="m270 104.2099-6.4 11.0851h12.8z" fill="none"/><path d="m370 104.2099-6.4 11.0851h12.8z" fill="none"/><path d="m390 104.2099-6.4 11.0851h12.8z" stroke="none"/><path d="m403.6 103.6 12.8 12.8" fill="none"/><path d="m403.6 116.4 12.8-12.8" fill="none"/><path d="m430 104.2099-6.4 11.0851h12.8z" fill="none"/><path d="m150 124.2099-6.4 11.0851h12.8z" fill="none"/><path d="m163.6 123.6 12.8 12.8" fill="none"/><path d="m163.6 136.4 12.8-12.8" fill="none"/><path d="m183.6 123.6 12.8 12.8" fill="none"/><path d="m183.6 136.4 12.8-12.8" fill="none"/><path d="m203.6 123.6 12.8 12.8" fill="none"/><path d="m203.6 136.4 12.8-12.8" fill="none"/><path d="m223.6 123.6 12.8 12.8" fill="none"/><path d="m223.6 136.4 12.8-12.8" fill="none"/><path d="m250 124.2099-6.4 11.0851h12.8z" stroke="none"/><path d="m270 124.2099-6.4 11.0851h12.8z" stroke="none"/><path d="m290 124.2099-6.4 11.0851h12.8z" fill="none"/><path d="m370 124.2099-6.4 11.0851h12.8z" fill="none"/><path d="m390 124.2099-6.4 11.0851h12.8z" stroke="none"/><path d="m403.6 123.6 12.8 12.8" fill="none"/><path d="m403.6 136.4 12.8-12.8" fill="none"/><path d="m430 124.2099-6.4 11.0851h12.8z" fill="none"/><path d="m490 124.2099-6.4 11.0851h12.8z" fill="none"/><path d="m510 124.2099-6.4 11.0851h12.8z" fill="none"/><path d="m530 124.2099-6.4 11.0851h12.8z" fill="none"/><path d="m110 144.2099-6.4 11.0851h12.8z" fill="none"/><path d="m130 144.2099-6.4 11.0851h12.8z" stroke="none"/><path d="m150 144.2099-6.4 11.0851h12.8z" stroke="none"/><path d="m170 144.2099-6.4 11.0851h12.8z" stroke="none"/><path d="m190 144.2099-6.4 11.0851h12.8z" stroke="none"/><path d="m203.6 143.6 12.8 12.8" fill="none"/><path d="m203.6 156.4 12.8-12.8" fill="none"/><path d="m223.6 143.6 12.8 12.8" fill="none"/><path d="m223.6 156.4 12.8-12.8" fill="none"/><path d="m243.6 143.6 12.8 12.8" fill="none"/><path d="m243.6 156.4 12.8-12.8" fill="none"/><path d="m263.6 143.6 12.8 12.8" fill="none"/><path d="m263.6 156.4 12.8-12.8" fill="none"/><path d="m290 144.2099-6.4 11.0851h12.8z" stroke="none"/><path d="m310 144.2099-6.4 11.0851h12.8z" fill="none"/><path d="m350 144.2099-6.4 11.0851h12.8z" fill="none"/><path d="m370 144.2099-6.4 11.0851h12.8z" stroke="none"/><path d="m383.6 143.6 12.8 12.8" fill="none"/><path d="m383.6 156.4 12.8-12.8" fill="none"/><path d="m403.6 143.6 12.8 12.8" fill="none"/><path d="m403.6 156.4 12.8-12.8" fill="none"/><path d="m423.6 143.6 12.8 12.8" fill="none"/><path d="m423.6 156.4 12.8-12.8" fill="none"/><path d="m450 144.2099-6.4 11.0851h12.8z" fill="none"/><path d="m470 144.2099-6.4 11.0851h12.8z" fill="none"/><path d="m483.6 143.6 12.8 12.8" fill="none"/><path d="m483.6 156.4 12.8-12.8" fill="none"/><path d="m503.6 143.6 12.8 12.8" fill="none"/><path d="m503.6 156.4 12.8-12.8" fill="none"/><path d="m523.6 143.6 12.8 12.8" fill="none"/><path d="m523.6 156.4 12.8-12.8" fill="none"/><path d="m550 144.2099-6.4 11.0851h12.8z" fill="none"/><path d="m90 164.2099-6.4 11.0851h12.8z" fill="none"/><path d="m103.6 163.6 12.8 12.8" fill="none"/><path d="m103.6 176.4 12.8-12.8" fill="none"/><path d="m123.6 163.6 12.8 12.8" fill="none"/><path d="m123.6 176.4 12.8-12.8" fill="none"/><path d="m143.6 163.6 12.8 12.8" fill="none"/><path d="m143.6 176.4 12.8-12.8" fill="none"/><path d="m163.6 163.6 12.8 12.8" fill="none"/><path d="m163.6 176.4 12.8-12.8" fill="none"/><path d="m183.6 163.6 12.8 12.8" fill="none"/><path d="m183.6 176.4 12.8-12.8" fill="none"/><path d="m210 164.2099-6.4 11.0851h12.8z" stroke="none"/><path d="m230 164.2099-6.4 11.0851h12.8z" stroke="none"/><path d="m250 164.2099-6.4 11.0851h12.8z" stroke="none"/><path d="m263.6 163.6 12.8 12.8" fill="none"/><path d="m263.6 176.4 12.8-12.8" fill="none"/><path d="m283.6 163.6 12.8 12.8" fill="none"/><path d="m283.6 176.4 12.8-12.8" fill="none"/><path d="m310 164.2099-6.4 11.0851h12.8z" stroke="none"/><path d="m330 164.2099-6.4 11.0851h12.8z" fill="none"/><path d="m350 164.2099-6.4 11.0851h12.8z" fill="none"/><path d="m370 164.2099-6.4 11.0851h12.8z" stroke="none"/><path d="m383.6 163.6 12.8 12.8" fill="none"/><path d="m383.6 176.4 12.8-12.8" fill="none"/><path d="m403.6 163.6 12.8 12.8" fill="none"/><path d="m403.6 176.4 12.8-12.8" fill="none"/><path d="m430 164.2099-6.4 11.0851h12.8z" stroke="none"/><path d="m443.6 163.6 12.8 12.8" fill="none"/><path d="m443.6 176.4 12.8-12.8" fill="none"/><path d="m463.6 163.6 12.8 12.8" fill="none"/><path d="m463.6 176.4 12.8-12.8" fill="none"/><path d="m483.6 163.6 12.8 12.8" fill="none"/><path d="m483.6 176.4 12.8-12.8" fill="none"/><path d="m503.6 163.6 12.8 12.8" fill="none"/><path d="m503.6 176.4 12.8-12.8" fill="none"/><path d="m523.6 163.6 12.8 12.8" fill="none"/><path d="m523.6 176.4 12.8-12.8" fill="none"/><path d="m550 164.2099-6.4 11.0851h12.8z" fill="none"/><path d="m90 184.2099-6.4 11.0851h12.8z" fill="none"/><path d="m103.6 183.6 12.8 12.8" fill="none"/><path d="m103.6 196.4 12.8-12.8" fill="none"/><path d="m123.6 183.6 12.8 12.8" fill="none"/><path d="m123.6 196.4 12.8-12.8" fill="none"/><path d="m143.6 183.6 12.8 12.8" fill="none"/><path d="m143.6 196.4 12.8-12.8" fill="none"/><path d="m163.6 183.6 12.8 12.8" fill="none"/><path d="m163.6 196.4 12.8-12.8" fill="none"/><path d="m183.6 183.6 12.8 12.8" fill="none"/><path d="m183.6 196.4 12.8-12.8" fill="none"/><path d="m203.6 183.6 12.8 12.8" fill="none"/><path d="m203.6 196.4 12.8-12.8" fill="none"/><path d="m223.6 183.6 12.8 12.8" fill="none"/><path d="m223.6 196.4 12.8-12.8" fill="none"/><path d="m243.6 183.6 12.8 12.8" fill="none"/><path d="m243.6 196.4 12.8-12.8" fill="none"/><path d="m270 184.2099-6.4 11.0851h12.8z" stroke="none"/><path d="m290 184.2099-6.4 11.0851h12.8z" stroke="none"/><path d="m303.6 183.6 12.8 12.8" fill="none"/><path d="m303.6 196.4 12.8-12.8" fill="none"/><path d="m330 184.2099-6.4 11.0851h12.8z" fill="none"/><path d="m350 184.2099-6.4 11.0851h12.8z" stroke="none"/><path d="m363.6 183.6 12.8 12.8" fill="none"/><path d="m363.6 196.4 12.8-12.8" fill="none"/><path d="m383.6 183.6 12.8 12.8" fill="none"/><path d="m383.6 196.4 12.8-12.8" fill="none"/><path d="m410 184.2099-6.4 11.0851h12.8z" stroke="none"/><path d="m423.6 183.6 12.8 12.8" fill="none"/><path d="m423.6 196.4 12.8-12.8" fill="none"/><path d="m443.6 183.6 12.8 12.8" fill="none"/><path d="m443.6 196.4 12.8-12.8" fill="none"/><path d="m463.6 183.6 12.8 12.8" fill="none"/><path d="m463.6 196.4 12.8-12.8" fill="none"/><path d="m483.6 183.6 12.8 12.8" fill="none"/><path d="m483.6 196.4 12.8-12.8" fill="none"/><path d="m503.6 183.6 12.8 12.8" fill="none"/><path d="m503.6 196.4 12.8-12.8" fill="none"/><path d="m523.6 183.6 12.8 12.8" fill="none"/><path d="m523.6 196.4 12.8-12.8" fill="none"/><path d="m550 184.2099-6.4 11.0851h12.8z" fill="none"/><path d="m90 204.2099-6.4 11.0851h12.8z" fill="none"/><path d="m103.6 203.6 12.8 12.8" fill="none"/><path d="m103.6 216.4 12.8-12.8" fill="none"/><path d="m123.6 203.6 12.8 12.8" fill="none"/><path d="m123.6 216.4 12.8-12.8" fill="none"/><path d="m143.6 203.6 12.8 12.8" fill="none"/><path d="m143.6 216.4 12.8-12.8" fill="none"/><path d="m163.6 203.6 12.8 12.8" fill="none"/><path d="m163.6 216.4 12.8-12.8" fill="none"/><path d="m183.6 203.6 12.8 12.8" fill="none"/><path d="m183.6 216.4 12.8-12.8" fill="none"/><path d="m203.6 203.6 12.8 12.8" fill="none"/><path d="m203.6 216.4 12.8-12.8" fill="none"/><path d="m223.6 203.6 12.8 12.8" fill="none"/><path d="m223.6 216.4 12.8-12.8" fill="none"/><path d="m243.6 203.6 12.8 12.8" fill="none"/><path d="m243.6 216.4 12.8-12.8" fill="none"/><path d="m263.6 203.6 12.8 12.8" fill="none"/><path d="m263.6 216.4 12.8-12.8" fill="none"/><path d="m283.6 203.6 12.8 12.8" fill="none"/><path d="m283.6 216.4 12.8-12.8" fill="none"/><path d="m310 204.2099-6.4 11.0851h12.8z" stroke="none"/><path d="m330 204.2099-6.4 11.0851h12.8z" fill="none"/><path d="m343.6 203.6 12.8 12.8" fill="none"/><path d="m343.6 216.4 12.8-12.8" fill="none"/><path d="m363.6 203.6 12.8 12.8" fill="none"/><path d="m363.6 216.4 12.8-12.8" fill="none"/><path d="m390 204.2099-6.4 11.0851h12.8z" stroke="none"/><g fill="none"><path d="m403.6 203.6 12.8 12.8"/><path d="m403.6 216.4 12.8-12.8"/><path d="m423.6 203.6 12.8 12.8"/><path d="m423.6 216.4 12.8-12.8"/><path d="m443.6 203.6 12.8 12.8"/><path d="m443.6 216.4 12.8-12.8"/><path d="m463.6 203.6 12.8 12.8"/><path d="m463.6 216.4 12.8-12.8"/><path d="m483.6 203.6 12.8 12.8"/><path d="m483.6 216.4 12.8-12.8"/><path d="m503.6 203.6 12.8 12.8"/><path d="m503.6 216.4 12.8-12.8"/><path d="m530 204.2099-6.4 11.0851h12.8z"/><path d="m110 224.2099-6.4 11.0851h12.8z"/><path d="m123.6 223.6 12.8 12.8"/><path d="m123.6 236.4 12.8-12.8"/><path d="m143.6 223.6 12.8 12.8"/><path d="m143.6 236.4 12.8-12.8"/><path d="m163.6 223.6 12.8 12.8"/><path d="m163.6 236.4 12.8-12.8"/><path d="m183.6 223.6 12.8 12.8"/><path d="m183.6 236.4 12.8-12.8"/><path d="m203.6 223.6 12.8 12.8"/><path d="m203.6 236.4 12.8-12.8"/><path d="m223.6 223.6 12.8 12.8"/><path d="m223.6 236.4 12.8-12.8"/><path d="m243.6 223.6 12.8 12.8"/><path d="m243.6 236.4 12.8-12.8"/><path d="m263.6 223.6 12.8 12.8"/><path d="m263.6 236.4 12.8-12.8"/><path d="m283.6 223.6 12.8 12.8"/><path d="m283.6 236.4 12.8-12.8"/><path d="m303.6 223.6 12.8 12.8"/><path d="m303.6 236.4 12.8-12.8"/><path d="m323.6 223.6 12.8 12.8"/><path d="m323.6 236.4 12.8-12.8"/><path d="m343.6 223.6 12.8 12.8"/><path d="m343.6 236.4 12.8-12.8"/><path d="m363.6 223.6 12.8 12.8"/><path d="m363.6 236.4 12.8-12.8"/><path d="m383.6 223.6 12.8 12.8"/><path d="m383.6 236.4 12.8-12.8"/><path d="m403.6 223.6 12.8 12.8"/><path d="m403.6 236.4 12.8-12.8"/><path d="m423.6 223.6 12.8 12.8"/><path d="m423.6 236.4 12.8-12.8"/><path d="m443.6 223.6 12.8 12.8"/><path d="m443.6 236.4 12.8-12.8"/><path d="m463.6 223.6 12.8 12.8"/><path d="m463.6 236.4 12.8-12.8"/><path d="m483.6 223.6 12.8 12.8"/><path d="m483.6 236.4 12.8-12.8"/><path d="m503.6 223.6 12.8 12.8"/><path d="m503.6 236.4 12.8-12.8"/><path d="m530 224.2099-6.4 11.0851h12.8z"/><path d="m130 244.2099-6.4 11.0851h12.8z"/><path d="m150 244.2099-6.4 11.0851h12.8z"/><path d="m163.6 243.6 12.8 12.8"/><path d="m163.6 256.4 12.8-12.8"/><path d="m183.6 243.6 12.8 12.8"/><path d="m183.6 256.4 12.8-12.8"/><path d="m203.6 243.6 12.8 12.8"/><path d="m203.6 256.4 12.8-12.8"/><path d="m223.6 243.6 12.8 12.8"/><path d="m223.6 256.4 12.8-12.8"/><path d="m243.6 243.6 12.8 12.8"/><path d="m243.6 256.4 12.8-12.8"/><path d="m263.6 243.6 12.8 12.8"/><path d="m263.6 256.4 12.8-12.8"/><path d="m283.6 243.6 12.8 12.8"/><path d="m283.6 256.4 12.8-12.8"/><path d="m303.6 243.6 12.8 12.8"/><path d="m303.6 256.4 12.8-12.8"/><path d="m323.6 243.6 12.8 12.8"/><path d="m323.6 256.4 12.8-12.8"/><path d="m343.6 243.6 12.8 12.8"/><path d="m343.6 256.4 12.8-12.8"/><path d="m363.6 243.6 12.8 12.8"/><path d="m363.6 256.4 12.8-12.8"/><path d="m383.6 243.6 12.8 12.8"/><path d="m383.6 256.4 12.8-12.8"/><path d="m403.6 243.6 12.8 12.8"/><path d="m403.6 256.4 12.8-12.8"/><path d="m423.6 243.6 12.8 12.8"/><path d="m423.6 256.4 12.8-12.8"/><path d="m443.6 243.6 12.8 12.8"/><path d="m443.6 256.4 12.8-12.8"/><path d="m463.6 243.6 12.8 12.8"/><path d="m463.6 256.4 12.8-12.8"/><path d="m483.6 243.6 12.8 12.8"/><path d="m483.6 256.4 12.8-12.8"/><path d="m510 244.2099-6.4 11.0851h12.8z"/><path d="m170 264.2099-6.4 11.0851h12.8z"/><path d="m190 264.2099-6.4 11.0851h12.8z"/><path d="m203.6 263.6 12.8 12.8"/><path d="m203.6 276.4 12.8-12.8"/><path d="m223.6 263.6 12.8 12.8"/><path d="m223.6 276.4 12.8-12.8"/><path d="m243.6 263.6 12.8 12.8"/><path d="m243.6 276.4 12.8-12.8"/><path d="m263.6 263.6 12.8 12.8"/><path d="m263.6 276.4 12.8-12.8"/><path d="m283.6 263.6 12.8 12.8"/><path d="m283.6 276.4 12.8-12.8"/><path d="m303.6 263.6 12.8 12.8"/><path d="m303.6 276.4 12.8-12.8"/><path d="m323.6 263.6 12.8 12.8"/><path d="m323.6 276.4 12.8-12.8"/><path d="m343.6 263.6 12.8 12.8"/><path d="m343.6 276.4 12.8-12.8"/><path d="m363.6 263.6 12.8 12.8"/><path d="m363.6 276.4 12.8-12.8"/><path d="m383.6 263.6 12.8 12.8"/><path d="m383.6 276.4 12.8-12.8"/><path d="m403.6 263.6 12.8 12.8"/><path d="m403.6 276.4 12.8-12.8"/><path d="m423.6 263.6 12.8 12.8"/><path d="m423.6 276.4 12.8-12.8"/><path d="m443.6 263.6 12.8 12.8"/><path d="m443.6 276.4 12.8-12.8"/><path d="m463.6 263.6 12.8 12.8"/><path d="m463.6 276.4 12.8-12.8"/><path d="m490 264.2099-6.4 11.0851h12.8z"/><path d="m210 284.2099-6.4 11.0851h12.8z"/><path d="m230 284.2099-6.4 11.0851h12.8z"/><path d="m243.6 283.6 12.8 12.8"/><path d="m243.6 296.4 12.8-12.8"/><path d="m263.6 283.6 12.8 12.8"/><path d="m263.6 296.4 12.8-12.8"/><path d="m283.6 283.6 12.8 12.8"/><path d="m283.6 296.4 12.8-12.8"/><path d="m303.6 283.6 12.8 12.8"/><path d="m303.6 296.4 12.8-12.8"/><path d="m323.6 283.6 12.8 12.8"/><path d="m323.6 296.4 12.8-12.8"/><path d="m343.6 283.6 12.8 12.8"/><path d="m343.6 296.4 12.8-12.8"/><path d="m363.6 283.6 12.8 12.8"/><path d="m363.6 296.4 12.8-12.8"/><path d="m383.6 283.6 12.8 12.8"/><path d="m383.6 296.4 12.8-12.8"/><path d="m403.6 283.6 12.8 12.8"/><path d="m403.6 296.4 12.8-12.8"/><path d="m423.6 283.6 12.8 12.8"/><path d="m423.6 296.4 12.8-12.8"/><path d="m443.6 283.6 12.8 12.8"/><path d="m443.6 296.4 12.8-12.8"/><path d="m470 284.2099-6.4 11.0851h12.8z"/><path d="m190 303.6 6.4 6.4-6.4 6.4-6.4-6.4z"/><path d="m210 303.6 6.4 6.4-6.4 6.4-6.4-6.4z"/><path d="m225.2 310h9.6"/><path d="m230 305.2v9.6"/><path d="m250 304.2099-6.4 11.0851h12.8z"/><path d="m270 304.2099-6.4 11.0851h12.8z"/><path d="m290 304.2099-6.4 11.0851h12.8z"/><path d="m310 304.2099-6.4 11.0851h12.8z"/><path d="m323.6 303.6 12.8 12.8"/><path d="m323.6 316.4 12.8-12.8"/><path d="m343.6 303.6 12.8 12.8"/><path d="m343.6 316.4 12.8-12.8"/><path d="m370 304.2099-6.4 11.0851h12.8z"/><path d="m383.6 303.6 12.8 12.8"/><path d="m383.6 316.4 12.8-12.8"/><path d="m403.6 303.6 12.8 12.8"/><path d="m403.6 316.4 12.8-12.8"/><path d="m430 304.2099-6.4 11.0851h12.8z"/><path d="m450 303.6 6.4 6.4-6.4 6.4-6.4-6.4z"/><path d="m170 323.6 6.4 6.4-6.4 6.4-6.4-6.4z"/><path d="m185.2 330h9.6"/><path d="m190 325.2v9.6"/><path d="m205.2 330h9.6"/><path d="m210 325.2v9.6"/><path d="m225.2 330h9.6"/><path d="m230 325.2v9.6"/><path d="m245.2 330h9.6"/><path d="m250 325.2v9.6"/><path d="m265.2 330h9.6"/><path d="m270 325.2v9.6"/><path d="m285.2 330h9.6"/><path d="m290 325.2v9.6"/><path d="m305.2 330h9.6"/><path d="m310 325.2v9.6"/><path d="m325.2 330h9.6"/><path d="m330 325.2v9.6"/><path d="m345.2 330h9.6"/><path d="m350 325.2v9.6"/><path d="m365.2 330h9.6"/><path d="m370 325.2v9.6"/><path d="m385.2 330h9.6"/><path d="m390 325.2v9.6"/><path d="m405.2 330h9.6"/><path d="m410 325.2v9.6"/><path d="m425.2 330h9.6"/><path d="m430 325.2v9.6"/><path d="m445.2 330h9.6"/><path d="m450 325.2v9.6"/><path d="m470 323.6 6.4 6.4-6.4 6.4-6.4-6.4z"/><path d="m150 343.6 6.4 6.4-6.4 6.4-6.4-6.4z"/><path d="m165.2 350h9.6"/><path d="m170 345.2v9.6"/><path d="m185.2 350h9.6"/><path d="m190 345.2v9.6"/><path d="m205.2 350h9.6"/><path d="m210 345.2v9.6"/><path d="m225.2 350h9.6"/><path d="m230 345.2v9.6"/><path d="m245.2 350h9.6"/><path d="m250 345.2v9.6"/><path d="m265.2 350h9.6"/><path d="m270 345.2v9.6"/><path d="m285.2 350h9.6"/><path d="m290 345.2v9.6"/><path d="m305.2 350h9.6"/><path d="m310 345.2v9.6"/><path d="m325.2 350h9.6"/><path d="m330 345.2v9.6"/><path d="m345.2 350h9.6"/><path d="m350 345.2v9.6"/><path d="m365.2 350h9.6"/><path d="m370 345.2v9.6"/><path d="m385.2 350h9.6"/><path d="m390 345.2v9.6"/><path d="m405.2 350h9.6"/><path d="m410 345.2v9.6"/><path d="m425.2 350h9.6"/><path d="m430 345.2v9.6"/><path d="m445.2 350h9.6"/><path d="m450 345.2v9.6"/><path d="m465.2 350h9.6"/><path d="m470 345.2v9.6"/><path d="m490 343.6 6.4 6.4-6.4 6.4-6.4-6.4z"/><path d="m150 363.6 6.4 6.4-6.4 6.4-6.4-6.4z"/><path d="m165.2 370h9.6"/><path d="m170 365.2v9.6"/><path d="m185.2 370h9.6"/><path d="m190 365.2v9.6"/><path d="m205.2 370h9.6"/><path d="m210 365.2v9.6"/><path d="m225.2 370h9.6"/><path d="m230 365.2v9.6"/><path d="m245.2 370h9.6"/><path d="m250 365.2v9.6"/><path d="m265.2 370h9.6"/><path d="m270 365.2v9.6"/><path d="m285.2 370h9.6"/><path d="m290 365.2v9.6"/><path d="m305.2 370h9.6"/><path d="m310 365.2v9.6"/><path d="m325.2 370h9.6"/><path d="m330 365.2v9.6"/><path d="m345.2 370h9.6"/><path d="m350 365.2v9.6"/><path d="m365.2 370h9.6"/><path d="m370 365.2v9.6"/><path d="m385.2 370h9.6"/><path d="m390 365.2v9.6"/><path d="m405.2 370h9.6"/><path d="m410 365.2v9.6"/><path d="m425.2 370h9.6"/><path d="m430 365.2v9.6"/><path d="m445.2 370h9.6"/><path d="m450 365.2v9.6"/><path d="m465.2 370h9.6"/><path d="m470 365.2v9.6"/><path d="m490 363.6 6.4 6.4-6.4 6.4-6.4-6.4z"/><path d="m130 383.6 6.4 6.4-6.4 6.4-6.4-6.4z"/><path d="m145.2 390h9.6"/><path d="m150 385.2v9.6"/><path d="m165.2 390h9.6"/><path d="m170 385.2v9.6"/><path d="m185.2 390h9.6"/><path d="m190 385.2v9.6"/><path d="m205.2 390h9.6"/><path d="m210 385.2v9.6"/><path d="m225.2 390h9.6"/><path d="m230 385.2v9.6"/><path d="m245.2 390h9.6"/><path d="m250 385.2v9.6"/><path d="m265.2 390h9.6"/><path d="m270 385.2v9.6"/><path d="m285.2 390h9.6"/><path d="m290 385.2v9.6"/><path d="m305.2 390h9.6"/><path d="m310 385.2v9.6"/><path d="m325.2 390h9.6"/><path d="m330 385.2v9.6"/><path d="m345.2 390h9.6"/><path d="m350 385.2v9.6"/></g><path d="m370 383.6 1.8809 3.8111 4.2059.6112-3.0434 2.9666.7184 4.1888-3.7618-1.9777-3.7618 1.9777.7184-4.1888-3.0434-2.9666 4.2059-.6112z" stroke="none"/><path d="m390 383.6 1.8809 3.8111 4.2059.6112-3.0434 2.9666.7184 4.1888-3.7618-1.9777-3.7618 1.9777.7184-4.1888-3.0434-2.9666 4.2059-.6112z" stroke="none"/><path d="m405.2 390h9.6" fill="none"/><path d="m410 385.2v9.6" fill="none"/><path d="m425.2 390h9.6" fill="none"/><path d="m430 385.2v9.6" fill="none"/><path d="m445.2 390h9.6" fill="none"/><path d="m450 385.2v9.6" fill="none"/><path d="m470 383.6 1.8809 3.8111 4.2059.6112-3.0434 2.9666.7184 4.1888-3.7618-1.9777-3.7618 1.9777.7184-4.1888-3.0434-2.9666 4.2059-.6112z" stroke="none"/><path d="m485.2 390h9.6" fill="none"/><path d="m490 385.2v9.6" fill="none"/><path d="m510 383.6 6.4 6.4-6.4 6.4-6.4-6.4z" fill="none"/><path d="m130 403.6 6.4 6.4-6.4 6.4-6.4-6.4z" fill="none"/><path d="m145.2 410h9.6" fill="none"/><path d="m150 405.2v9.6" fill="none"/><path d="m165.2 410h9.6" fill="none"/><path d="m170 405.2v9.6" fill="none"/><path d="m185.2 410h9.6" fill="none"/><path d="m190 405.2v9.6" fill="none"/><path d="m205.2 410h9.6" fill="none"/><path d="m210 405.2v9.6" fill="none"/><path d="m225.2 410h9.6" fill="none"/><path d="m230 405.2v9.6" fill="none"/><path d="m245.2 410h9.6" fill="none"/><path d="m250 405.2v9.6" fill="none"/><path d="m265.2 410h9.6" fill="none"/><path d="m270 405.2v9.6" fill="none"/><path d="m285.2 410h9.6" fill="none"/><path d="m290 405.2v9.6" fill="none"/><path d="m305.2 410h9.6" fill="none"/><path d="m310 405.2v9.6" fill="none"/><path d="m325.2 410h9.6" fill="none"/><path d="m330 405.2v9.6" fill="none"/><path d="m345.2 410h9.6" fill="none"/><path d="m350 405.2v9.6" fill="none"/><circle cx="370" cy="410" r="6.4" stroke="none"/><path d="m390 403.6 1.8809 3.8111 4.2059.6112-3.0434 2.9666.7184 4.1888-3.7618-1.9777-3.7618 1.9777.7184-4.1888-3.0434-2.9666 4.2059-.6112z" stroke="none"/><path d="m410 403.6 1.8809 3.8111 4.2059.6112-3.0434 2.9666.7184 4.1888-3.7618-1.9777-3.7618 1.9777.7184-4.1888-3.0434-2.9666 4.2059-.6112z" stroke="none"/><path d="m425.2 410h9.6" fill="none"/><path d="m430 405.2v9.6" fill="none"/><path d="m445.2 410h9.6" fill="none"/><path d="m450 405.2v9.6" fill="none"/><circle cx="470" cy="410" r="6.4" stroke="none"/><path d="m490 403.6 1.8809 3.8111 4.2059.6112-3.0434 2.9666.7184 4.1888-3.7618-1.9777-3.7618 1.9777.7184-4.1888-3.0434-2.9666 4.2059-.6112z" stroke="none"/><path d="m510 403.6 6.4 6.4-6.4 6.4-6.4-6.4z" fill="none"/><path d="m130 423.6 6.4 6.4-6.4 6.4-6.4-6.4z" fill="none"/><path d="m145.2 430h9.6" fill="none"/><path d="m150 425.2v9.6" fill="none"/><path d="m165.2 430h9.6" fill="none"/><path d="m170 425.2v9.6" fill="none"/><path d="m185.2 430h9.6" fill="none"/><path d="m190 425.2v9.6" fill="none"/><path d="m205.2 430h9.6" fill="none"/><path d="m210 425.2v9.6" fill="none"/><path d="m225.2 430h9.6" fill="none"/><path d="m230 425.2v9.6" fill="none"/><path d="m245.2 430h9.6" fill="none"/><path d="m250 425.2v9.6" fill="none"/><path d="m265.2 430h9.6" fill="none"/><path d="m270 425.2v9.6" fill="none"/><path d="m285.2 430h9.6" fill="none"/><path d="m290 425.2v9.6" fill="none"/><path d="m305.2 430h9.6" fill="none"/><path d="m310 425.2v9.6" fill="none"/><path d="m325.2 430h9.6" fill="none"/><path d="m330 425.2v9.6" fill="none"/><path d="m345.2 430h9.6" fill="none"/><path d="m350 425.2v9.6" fill="none"/><path d="m370 423.6 1.8809 3.8111 4.2059.6112-3.0434 2.9666.7184 4.1888-3.7618-1.9777-3.7618 1.9777.7184-4.1888-3.0434-2.9666 4.2059-.6112z" stroke="none"/><path d="m390 423.6 1.8809 3.8111 4.2059.6112-3.0434 2.9666.7184 4.1888-3.7618-1.9777-3.7618 1.9777.7184-4.1888-3.0434-2.9666 4.2059-.6112z" stroke="none"/><path d="m405.2 430h9.6" fill="none"/><path d="m410 425.2v9.6" fill="none"/><path d="m425.2 430h9.6" fill="none"/><path d="m430 425.2v9.6" fill="none"/><path d="m445.2 430h9.6" fill="none"/><path d="m450 425.2v9.6" fill="none"/><path d="m470 423.6 1.8809 3.8111 4.2059.6112-3.0434 2.9666.7184 4.1888-3.7618-1.9777-3.7618 1.9777.7184-4.1888-3.0434-2.9666 4.2059-.6112z" stroke="none"/><path d="m485.2 430h9.6" fill="none"/><path d="m490 425.2v9.6" fill="none"/><path d="m510 423.6 6.4 6.4-6.4 6.4-6.4-6.4z" fill="none"/><path d="m130 443.6 6.4 6.4-6.4 6.4-6.4-6.4z" fill="none"/><path d="m143.6 443.6h12.8v12.8h-12.8z" stroke="none"/><path d="m165.2 450h9.6" fill="none"/><path d="m170 445.2v9.6" fill="none"/><path d="m185.2 450h9.6" fill="none"/><path d="m190 445.2v9.6" fill="none"/><path d="m205.2 450h9.6" fill="none"/><path d="m210 445.2v9.6" fill="none"/><path d="m225.2 450h9.6" fill="none"/><path d="m230 445.2v9.6" fill="none"/><path d="m245.2 450h9.6" fill="none"/><path d="m250 445.2v9.6" fill="none"/><path d="m265.2 450h9.6" fill="none"/><path d="m270 445.2v9.6" fill="none"/><path d="m285.2 450h9.6" fill="none"/><path d="m290 445.2v9.6" fill="none"/><path d="m305.2 450h9.6" fill="none"/><path d="m310 445.2v9.6" fill="none"/><path d="m325.2 450h9.6" fill="none"/><path d="m330 445.2v9.6" fill="none"/><path d="m345.2 450h9.6" fill="none"/><path d="m350 445.2v9.6" fill="none"/><path d="m365.2 450h9.6" fill="none"/><path d="m370 445.2v9.6" fill="none"/><path d="m385.2 450h9.6" fill="none"/><path d="m390 445.2v9.6" fill="none"/><path d="m405.2 450h9.6" fill="none"/><path d="m410 445.2v9.6" fill="none"/><path d="m425.2 450h9.6" fill="none"/><path d="m430 445.2v9.6" fill="none"/><path d="m445.2 450h9.6" fill="none"/><path d="m450 445.2v9.6" fill="none"/><path d="m465.2 450h9.6" fill="none"/><path d="m470 445.2v9.6" fill="none"/><path d="m485.2 450h9.6" fill="none"/><path d="m490 445.2v9.6" fill="none"/><path d="m510 443.6 6.4 6.4-6.4 6.4-6.4-6.4z" fill="none"/><path d="m130 463.6 6.4 6.4-6.4 6.4-6.4-6.4z" fill="none"/><path d="m143.6 463.6h12.8v12.8h-12.8z" stroke="none"/><path d="m163.6 463.6h12.8v12.8h-12.8z" stroke="none"/><path d="m185.2 470h9.6" fill="none"/><path d="m190 465.2v9.6" fill="none"/><path d="m205.2 470h9.6" fill="none"/><path d="m210 465.2v9.6" fill="none"/><path d="m225.2 470h9.6" fill="none"/><path d="m230 465.2v9.6" fill="none"/><path d="m245.2 470h9.6" fill="none"/><path d="m250 465.2v9.6" fill="none"/><path d="m265.2 470h9.6" fill="none"/><path d="m270 465.2v9.6" fill="none"/><path d="m285.2 470h9.6" fill="none"/><path d="m290 465.2v9.6" fill="none"/><path d="m305.2 470h9.6" fill="none"/><path d="m310 465.2v9.6" fill="none"/><path d="m325.2 470h9.6" fill="none"/><path d="m330 465.2v9.6" fill="none"/><path d="m345.2 470h9.6" fill="none"/><path d="m350 465.2v9.6" fill="none"/><path d="m365.2 470h9.6" fill="none"/><path d="m370 465.2v9.6" fill="none"/><path d="m385.2 470h9.6" fill="none"/><path d="m390 465.2v9.6" fill="none"/><path d="m405.2 470h9.6" fill="none"/><path d="m410 465.2v9.6" fill="none"/><path d="m430 463.6 6.4 6.4-6.4 6.4-6.4-6.4z" fill="none"/><path d="m445.2 470h9.6" fill="none"/><path d="m450 465.2v9.6" fill="none"/><path d="m465.2 470h9.6" fill="none"/><path d="m470 465.2v9.6" fill="none"/><path d="m485.2 470h9.6" fill="none"/><path d="m490 465.2v9.6" fill="none"/><path d="m510 463.6 6.4 6.4-6.4 6.4-6.4-6.4z" fill="none"/><path d="m150 483.6 6.4 6.4-6.4 6.4-6.4-6.4z" fill="none"/><path d="m163.6 483.6h12.8v12.8h-12.8z" stroke="none"/><path d="m183.6 483.6h12.8v12.8h-12.8z" stroke="none"/><path d="m203.6 483.6h12.8v12.8h-12.8z" stroke="none"/><path d="m225.2 490h9.6" fill="none"/><path d="m230 485.2v9.6" fill="none"/><path d="m245.2 490h9.6" fill="none"/><path d="m250 485.2v9.6" fill="none"/><path d="m265.2 490h9.6" fill="none"/><path d="m270 485.2v9.6" fill="none"/><path d="m285.2 490h9.6" fill="none"/><path d="m290 485.2v9.6" fill="none"/><path d="m305.2 490h9.6" fill="none"/><path d="m310 485.2v9.6" fill="none"/><path d="m325.2 490h9.6" fill="none"/><path d="m330 485.2v9.6" fill="none"/><path d="m345.2 490h9.6" fill="none"/><path d="m350 485.2v9.6" fill="none"/><path d="m365.2 490h9.6" fill="none"/><path d="m370 485.2v9.6" fill="none"/><path d="m385.2 490h9.6" fill="none"/><path d="m390 485.2v9.6" fill="none"/><path d="m405.2 490h9.6" fill="none"/><path d="m410 485.2v9.6" fill="none"/><path d="m425.2 490h9.6" fill="none"/><path d="m430 485.2v9.6" fill="none"/><path d="m445.2 490h9.6" fill="none"/><path d="m450 485.2v9.6" fill="none"/><path d="m465.2 490h9.6" fill="none"/><path d="m470 485.2v9.6" fill="none"/><path d="m490 483.6 6.4 6.4-6.4 6.4-6.4-6.4z" fill="none"/><path d="m170 503.6 6.4 6.4-6.4 6.4-6.4-6.4z" fill="none"/><path d="m183.6 503.6h12.8v12.8h-12.8z" stroke="none"/><path d="m203.6 503.6h12.8v12.8h-12.8z" stroke="none"/><path d="m223.6 503.6h12.8v12.8h-12.8z" stroke="none"/><path d="m243.6 503.6h12.8v12.8h-12.8z" stroke="none"/><path d="m263.6 503.6h12.8v12.8h-12.8z" stroke="none"/><path d="m283.6 503.6h12.8v12.8h-12.8z" stroke="none"/><path d="m303.6 503.6h12.8v12.8h-12.8z" stroke="none"/><path d="m325.2 510h9.6" fill="none"/><path d="m330 505.2v9.6" fill="none"/><path d="m345.2 510h9.6" fill="none"/><path d="m350 505.2v9.6" fill="none"/><path d="m365.2 510h9.6" fill="none"/><path d="m370 505.2v9.6" fill="none"/><path d="m385.2 510h9.6" fill="none"/><path d="m390 505.2v9.6" fill="none"/><path d="m405.2 510h9.6" fill="none"/><path d="m410 505.2v9.6" fill="none"/><path d="m425.2 510h9.6" fill="none"/><path d="m430 505.2v9.6" fill="none"/><path d="m445.2 510h9.6" fill="none"/><path d="m450 505.2v9.6" fill="none"/><path d="m470 503.6 6.4 6.4-6.4 6.4-6.4-6.4z" fill="none"/><path d="m490 503.6 6.4 6.4-6.4 6.4-6.4-6.4z" fill="none"/><path d="m510 503.6 6.4 6.4-6.4 6.4-6.4-6.4z" fill="none"/><path d="m190 523.6 6.4 6.4-6.4 6.4-6.4-6.4z" fill="none"/><path d="m210 523.6 6.4 6.4-6.4 6.4-6.4-6.4z" fill="none"/><path d="m223.6 523.6h12.8v12.8h-12.8z" stroke="none"/><path d="m243.6 523.6h12.8v12.8h-12.8z" stroke="none"/><path d="m270 523.6 6.4 6.4-6.4 6.4-6.4-6.4z" fill="none"/><path d="m290 523.6 6.4 6.4-6.4 6.4-6.4-6.4z" fill="none"/><path d="m310 523.6 6.4 6.4-6.4 6.4-6.4-6.4z" fill="none"/><path d="m330 523.6 6.4 6.4-6.4 6.4-6.4-6.4z" fill="none"/><path d="m350 523.6 6.4 6.4-6.4 6.4-6.4-6.4z" fill="none"/><path d="m363.6 523.6h12.8v12.8h-12.8z" stroke="none"/><path d="m383.6 523.6h12.8v12.8h-12.8z" stroke="none"/><path d="m403.6 523.6h12.8v12.8h-12.8z" stroke="none"/><path d="m430 523.6 6.4 6.4-6.4 6.4-6.4-6.4z" fill="none"/><path d="m450 523.6 6.4 6.4-6.4 6.4-6.4-6.4z" fill="none"/><path d="m465.2 530h9.6" fill="none"/><path d="m470 525.2v9.6" fill="none"/><path d="m485.2 530h9.6" fill="none"/><path d="m490 525.2v9.6" fill="none"/><path d="m505.2 530h9.6" fill="none"/><path d="m510 525.2v9.6" fill="none"/><path d="m530 523.6 6.4 6.4-6.4 6.4-6.4-6.4z" fill="none"/><path d="m230 543.6 6.4 6.4-6.4 6.4-6.4-6.4z" fill="none"/><path d="m250 543.6 6.4 6.4-6.4 6.4-6.4-6.4z" fill="none"/><path d="m263.6 543.6h12.8v12.8h-12.8z" stroke="none"/><path d="m285.2 550h9.6" fill="none"/><path d="m290 545.2v9.6" fill="none"/><path d="m305.2 550h9.6" fill="none"/><path d="m310 545.2v9.6" fill="none"/><path d="m325.2 550h9.6" fill="none"/><path d="m330 545.2v9.6" fill="none"/><path d="m345.2 550h9.6" fill="none"/><path d="m350 545.2v9.6" fill="none"/><path d="m370 543.6 6.4 6.4-6.4 6.4-6.4-6.4z" fill="none"/><path d="m390 543.6 6.4 6.4-6.4 6.4-6.4-6.4z" fill="none"/><path d="m410 543.6 6.4 6.4-6.4 6.4-6.4-6.4z" fill="none"/><path d="m423.6 543.6h12.8v12.8h-12.8z" stroke="none"/><path d="m445.2 550h9.6" fill="none"/><path d="m450 545.2v9.6" fill="none"/><path d="m465.2 550h9.6" fill="none"/><path d="m470 545.2v9.6" fill="none"/><path d="m485.2 550h9.6" fill="none"/><path d="m490 545.2v9.6" fill="none"/><path d="m503.6 543.6h12.8v12.8h-12.8z" stroke="none"/><path d="m530 543.6 6.4 6.4-6.4 6.4-6.4-6.4z" fill="none"/><path d="m250 563.6 6.4 6.4-6.4 6.4-6.4-6.4z" fill="none"/><path d="m263.6 563.6h12.8v12.8h-12.8z" stroke="none"/><path d="m283.6 563.6h12.8v12.8h-12.8z" stroke="none"/><path d="m303.6 563.6h12.8v12.8h-12.8z" stroke="none"/><path d="m323.6 563.6h12.8v12.8h-12.8z" stroke="none"/><path d="m343.6 563.6h12.8v12.8h-12.8z" stroke="none"/><path d="m370 563.6 6.4 6.4-6.4 6.4-6.4-6.4z" fill="none"/><path d="m410 563.6 6.4 6.4-6.4 6.4-6.4-6.4z" fill="none"/><path d="m423.6 563.6h12.8v12.8h-12.8z" stroke="none"/><path d="m443.6 563.6h12.8v12.8h-12.8z" stroke="none"/><path d="m463.6 563.6h12.8v12.8h-12.8z" stroke="none"/><path d="m490 563.6 6.4 6.4-6.4 6.4-6.4-6.4z" fill="none"/><path d="m510 563.6 6.4 6.4-6.4 6.4-6.4-6.4z" fill="none"/><path d="m270 583.6 6.4 6.4-6.4 6.4-6.4-6.4z" fill="none"/><path d="m290 583.6 6.4 6.4-6.4 6.4-6.4-6.4z" fill="none"/><path d="m310 583.6 6.4 6.4-6.4 6.4-6.4-6.4z" fill="none"/><path d="m330 583.6 6.4 6.4-6.4 6.4-6.4-6.4z" fill="none"/><path d="m350 583.6 6.4 6.4-6.4 6.4-6.4-6.4z" fill="none"/><path d="m430 583.6 6.4 6.4-6.4 6.4-6.4-6.4z" fill="none"/><path d="m450 583.6 6.4 6.4-6.4 6.4-6.4-6.4z" fill="none"/><path d="m470 583.6 6.4 6.4-6.4 6.4-6.4-6.4z" fill="none"/><path d="m0 0v640" fill="none" stroke="#b4b4b4"/><path d="m20 0v640" fill="none" stroke="#b4b4b4" stroke-width="1"/><path d="m40 0v640" fill="none" stroke="#b4b4b4" stroke-width="1"/><path d="m60 0v640" fill="none" stroke="#b4b4b4" stroke-width="1"/><path d="m80 0v640" fill="none" stroke="#b4b4b4" stroke-width="1"/><path d="m100 0v640" fill="none" stroke="#b4b4b4" stroke-width="1"/><path d="m120 0v640" fill="none" stroke="#b4b4b4" stroke-width="1"/><path d="m140 0v640" fill="none" stroke="#b4b4b4" stroke-width="1"/><path d="m160 0v640" fill="none" stroke="#b4b4b4" stroke-width="1"/><path d="m180 0v640" fill="none" stroke="#b4b4b4" stroke-width="1"/><path d="m200 0v640" fill="none" stroke="#b4b4b4" stroke-width="1"/><path d="m220 0v640" fill="none" stroke="#b4b4b4" stroke-width="1"/><path d="m240 0v640" fill="none" stroke="#b4b4b4" stroke-width="1"/><path d="m260 0v640" fill="none" stroke="#b4b4b4" stroke-width="1"/><path d="m280 0v640" fill="none" stroke="#b4b4b4" stroke-width="1"/><path d="m300 0v640" fill="none" stroke="#b4b4b4" stroke-width="1"/><path d="m320 0v640" fill="none" stroke="#b4b4b4" stroke-width="1"/><path d="m340 0v640" fill="none" stroke="#b4b4b4" stroke-width="1"/><path d="m360 0v640" fill="none" stroke="#b4b4b4" stroke-width="1"/><path d="m380 0v640" fill="none" stroke="#b4b4b4" stroke-width="1"/><path d="m400 0v640" fill="none" stroke="#b4b4b4" stroke-width="1"/><path d="m420 0v640" fill="none" stroke="#b4b4b4" stroke-width="1"/><path d="m440 0v640" fill="none" stroke="#b4b4b4" stroke-width="1"/><path d="m460 0v640" fill="none" stroke="#b4b4b4" stroke-width="1"/><path d="m480 0v640" fill="none" stroke="#b4b4b4" stroke-width="1"/><path d="m500 0v640" fill="none" stroke="#b4b4b4" stroke-width="1"/><path d="m520 0v640" fill="none" stroke="#b4b4b4" stroke-width="1"/><path d="m540 0v640" fill="none" stroke="#b4b4b4" stroke-width="1"/><path d="m560 0v640" fill="none" stroke="#b4b4b4" stroke-width="1"/><path d="m580 0v640" fill="none" stroke="#b4b4b4" stroke-width="1"/><path d="m600 0v640" fill="none" stroke="#b4b4b4" stroke-width="1"/><path d="m620 0v640" fill="none" stroke="#b4b4b4" stroke-width="1"/><path d="m640 0v640" fill="none" stroke="#b4b4b4"/><path d="m0 0h640" fill="none" stroke="#b4b4b4"/><path d="m0 20h640" fill="none" stroke="#b4b4b4" stroke-width="1"/><path d="m0 40h640" fill="none" stroke="#b4b4b4" stroke-width="1"/><path d="m0 60h640" fill="none" stroke="#b4b4b4" stroke-width="1"/><path d="m0 80h640" fill="none" stroke="#b4b4b4" stroke-width="1"/><path d="m0 100h640" fill="none" stroke="#b4b4b4" stroke-width="1"/><path d="m0 120h640" fill="none" stroke="#b4b4b4" stroke-width="1"/><path d="m0 140h640" fill="none" stroke="#b4b4b4" stroke-width="1"/><path d="m0 160h640" fill="none" stroke="#b4b4b4" stroke-width="1"/><path d="m0 180h640" fill="none" stroke="#b4b4b4" stroke-width="1"/><path d="m0 200h640" fill="none" stroke="#b4b4b4" stroke-width="1"/><path d="m0 220h640" fill="none" stroke="#b4b4b4" stroke-width="1"/><path d="m0 240h640" fill="none" stroke="#b4b4b4" stroke-width="1"/><path d="m0 260h640" fill="none" stroke="#b4b4b4" stroke-width="1"/><path d="m0 280h640" fill="none" stroke="#b4b4b4" stroke-width="1"/><path d="m0 300h640" fill="none" stroke="#b4b4b4" stroke-width="1"/><path d="m0 320h640" fill="none" stroke="#b4b4b4" stroke-width="1"/><path d="m0 340h640" fill="none" stroke="#b4b4b4" stroke-width="1"/><path d="m0 360h640" fill="none" stroke="#b4b4b4" stroke-width="1"/><path d="m0 380h640" fill="none" stroke="#b4b4b4" stroke-width="1"/><path d="m0 400h640" fill="none" stroke="#b4b4b4" stroke-width="1"/><path d="m0 420h640" fill="none" stroke="#b4b4b4" stroke-width="1"/><path d="m0 440h640" fill="none" stroke="#b4b4b4" stroke-width="1"/><path d="m0 460h640" fill="none" stroke="#b4b4b4" stroke-width="1"/><path d="m0 480h640" fill="none" stroke="#b4b4b4" stroke-width="1"/><path d="m0 500h640" fill="none" stroke="#b4b4b4" stroke-width="1"/><path d="m0 520h640" fill="none" stroke="#b4b4b4" stroke-width="1"/><path d="m0 540h640" fill="none" stroke="#b4b4b4" stroke-width="1"/><path d="m0 560h640" fill="none" stroke="#b4b4b4" stroke-width="1"/><path d="m0 580h640" fill="none" stroke="#b4b4b4" stroke-width="1"/><path d="m0 600h640" fill="none" stroke="#b4b4b4" stroke-width="1"/><path d="m0 620h640" fill="none" stroke="#b4b4b4" stroke-width="1"/><path d="m0 640h640" fill="none" stroke="#b4b4b4"/></g></g></svg>