<svg color-interpolation="auto" height="640" stroke="#000" stroke-linecap="square" stroke-miterlimit="10" width="640" xmlns="http://www.w3.org/2000/svg"><g stroke-linecap="round" stroke-width="2"><path d="m185.2 90h9.6" fill="none"/><g><path d="m190 85.2v9.6" fill="none"/><path d="m205.2 90h9.6" fill="none"/><path d="m210 85.2v9.6" fill="none"/><path d="m225.2 90h9.6" fill="none"/><path d="m230 85.2v9.6" fill="none"/><path d="m385.2 90h9.6" fill="none"/><path d="m390 85.2v9.6" fill="none"/><path d="m405.2 90h9.6" fill="none"/><path d="m410 85.2v9.6" fill="none"/><path d="m165.2 110h9.6" fill="none"/><path d="m170 105.2v9.6" fill="none"/><path d="m190 104.2099-6.4 11.0851h12.8z" stroke="none"/><path d="m210 104.2099-6.4 11.0851h12.8z" stroke="none"/><path d="m230 104.2099-6.4 11.0851h12.8z" stroke="none"/><path d="m245.2 110h9.6" fill="none"/><path d="m250 105.2v9.6" fill="none"/><path d="m265.2 110h9.6" fill="none"/><path d="m270 105.2v9.6" fill="none"/><path d="m365.2 110h9.6" fill="none"/><path d="m370 105.2v9.6" fill="none"/><path d="m390 104.2099-6.4 11.0851h12.8z" stroke="none"/><path d="m410 104.2099-6.4 11.0851h12.8z" fill="none"/><path d="m425.2 110h9.6" fill="none"/><path d="m430 105.2v9.6" fill="none"/><path d="m145.2 130h9.6" fill="none"/><path d="m150 125.2v9.6" fill="none"/><path d="m170 124.2099-6.4 11.0851h12.8z" fill="none"/><path d="m190 124.2099-6.4 11.0851h12.8z" fill="none"/><path d="m210 124.2099-6.4 11.0851h12.8z" fill="none"/><path d="m230 124.2099-6.4 11.0851h12.8z" fill="none"/><path d="m250 124.2099-6.4 11.0851h12.8z" stroke="none"/><path d="m270 124.2099-6.4 11.0851h12.8z" stroke="none"/><path d="m285.2 130h9.6" fill="none"/><path d="m290 125.2v9.6" fill="none"/><path d="m365.2 130h9.6" fill="none"/><path d="m370 125.2v9.6" fill="none"/><path d="m390 124.2099-6.4 11.0851h12.8z" stroke="none"/><path d="m410 124.2099-6.4 11.0851h12.8z" fill="none"/><path d="m425.2 130h9.6" fill="none"/><path d="m430 125.2v9.6" fill="none"/><path d="m485.2 130h9.6" fill="none"/><path d="m490 125.2v9.6" fill="none"/><path d="m505.2 130h9.6" fill="none"/><path d="m510 125.2v9.6" fill="none"/><path d="m525.2 130h9.6" fill="none"/><path d="m530 125.2v9.6" fill="none"/><path d="m105.2 150h9.6" fill="none"/><path d="m110 145.2v9.6" fill="none"/><path d="m130 144.2099-6.4 11.0851h12.8z" stroke="none"/><path d="m150 144.2099-6.4 11.0851h12.8z" stroke="none"/><path d="m170 144.2099-6.4 11.0851h12.8z" stroke="none"/><path d="m190 144.2099-6.4 11.0851h12.8z" stroke="none"/><path d="m210 144.2099-6.4 11.0851h12.8z" fill="none"/><path d="m230 144.2099-6.4 11.0851h12.8z" fill="none"/><path d="m250 144.2099-6.4 11.0851h12.8z" fill="none"/><path d="m270 144.2099-6.4 11.0851h12.8z" fill="none"/><path d="m290 144.2099-6.4 11.0851h12.8z" stroke="none"/><path d="m305.2 150h9.6" fill="none"/><path d="m310 145.2v9.6" fill="none"/><path d="m345.2 150h9.6" fill="none"/><path d="m350 145.2v9.6" fill="none"/><path d="m370 144.2099-6.4 11.0851h12.8z" stroke="none"/><path d="m390 144.2099-6.4 11.0851h12.8z" fill="none"/><path d="m410 144.2099-6.4 11.0851h12.8z" fill="none"/><path d="m430 144.2099-6.4 11.0851h12.8z" fill="none"/><path d="m445.2 150h9.6" fill="none"/><path d="m450 145.2v9.6" fill="none"/><path d="m465.2 150h9.6" fill="none"/><path d="m470 145.2v9.6" fill="none"/><path d="m490 144.2099-6.4 11.0851h12.8z" fill="none"/><path d="m510 144.2099-6.4 11.0851h12.8z" fill="none"/><path d="m530 144.2099-6.4 11.0851h12.8z" fill="none"/><path d="m545.2 150h9.6" fill="none"/><path d="m550 145.2v9.6" fill="none"/><path d="m85.2 170h9.6" fill="none"/><path d="m90 165.2v9.6" fill="none"/><path d="m110 164.2099-6.4 11.0851h12.8z" fill="none"/><path d="m130 164.2099-6.4 11.0851h12.8z" fill="none"/><path d="m150 164.2099-6.4 11.0851h12.8z" fill="none"/><path d="m170 164.2099-6.4 11.0851h12.8z" fill="none"/><path d="m190 164.2099-6.4 11.0851h12.8z" fill="none"/><path d="m210 164.2099-6.4 11.0851h12.8z" stroke="none"/><path d="m230 164.2099-6.4 11.0851h12.8z" stroke="none"/><path d="m250 164.2099-6.4 11.0851h12.8z" stroke="none"/><path d="m270 164.2099-6.4 11.0851h12.8z" fill="none"/><path d="m290 164.2099-6.4 11.0851h12.8z" fill="none"/><path d="m310 164.2099-6.4 11.0851h12.8z" stroke="none"/><path d="m325.2 170h9.6" fill="none"/><path d="m330 165.2v9.6" fill="none"/><path d="m345.2 170h9.6" fill="none"/><path d="m350 165.2v9.6" fill="none"/><path d="m370 164.2099-6.4 11.0851h12.8z" stroke="none"/><path d="m390 164.2099-6.4 11.0851h12.8z" fill="none"/><path d="m410 164.2099-6.4 11.0851h12.8z" fill="none"/><path d="m430 164.2099-6.4 11.0851h12.8z" stroke="none"/><path d="m450 164.2099-6.4 11.0851h12.8z" fill="none"/><path d="m470 164.2099-6.4 11.0851h12.8z" fill="none"/><path d="m490 164.2099-6.4 11.0851h12.8z" fill="none"/><path d="m510 164.2099-6.4 11.0851h12.8z" fill="none"/><path d="m530 164.2099-6.4 11.0851h12.8z" fill="none"/><path d="m545.2 170h9.6" fill="none"/><path d="m550 165.2v9.6" fill="none"/><path d="m85.2 190h9.6" fill="none"/><path d="m90 185.2v9.6" fill="none"/><path d="m110 184.2099-6.4 11.0851h12.8z" fill="none"/><path d="m130 184.2099-6.4 11.0851h12.8z" fill="none"/><path d="m150 184.2099-6.4 11.0851h12.8z" fill="none"/><path d="m170 184.2099-6.4 11.0851h12.8z" fill="none"/><path d="m190 184.2099-6.4 11.0851h12.8z" fill="none"/><path d="m210 184.2099-6.4 11.0851h12.8z" fill="none"/><path d="m230 184.2099-6.4 11.0851h12.8z" fill="none"/><path d="m250 184.2099-6.4 11.0851h12.8z" fill="none"/><path d="m270 184.2099-6.4 11.0851h12.8z" stroke="none"/><path d="m290 184.2099-6.4 11.0851h12.8z" stroke="none"/><path d="m310 184.2099-6.4 11.0851h12.8z" fill="none"/><path d="m325.2 190h9.6" fill="none"/><path d="m330 185.2v9.6" fill="none"/><path d="m350 184.2099-6.4 11.0851h12.8z" stroke="none"/><path d="m370 184.2099-6.4 11.0851h12.8z" fill="none"/><path d="m390 184.2099-6.4 11.0851h12.8z" fill="none"/><path d="m410 184.2099-6.4 11.0851h12.8z" stroke="none"/><path d="m430 184.2099-6.4 11.0851h12.8z" fill="none"/><path d="m450 184.2099-6.4 11.0851h12.8z" fill="none"/><path d="m470 184.2099-6.4 11.0851h12.8z" fill="none"/><path d="m490 184.2099-6.4 11.0851h12.8z" fill="none"/><path d="m510 184.2099-6.4 11.0851h12.8z" fill="none"/><path d="m530 184.2099-6.4 11.0851h12.8z" fill="none"/><path d="m545.2 190h9.6" fill="none"/><path d="m550 185.2v9.6" fill="none"/><path d="m85.2 210h9.6" fill="none"/><path d="m90 205.2v9.6" fill="none"/><path d="m110 204.2099-6.4 11.0851h12.8z" fill="none"/><path d="m130 204.2099-6.4 11.0851h12.8z" fill="none"/><path d="m150 204.2099-6.4 11.0851h12.8z" fill="none"/><path d="m170 204.2099-6.4 11.0851h12.8z" fill="none"/><path d="m190 204.2099-6.4 11.0851h12.8z" fill="none"/><path d="m210 204.2099-6.4 11.0851h12.8z" fill="none"/><path d="m230 204.2099-6.4 11.0851h12.8z" fill="none"/><path d="m250 204.2099-6.4 11.0851h12.8z" fill="none"/><path d="m270 204.2099-6.4 11.0851h12.8z" fill="none"/><path d="m290 204.2099-6.4 11.0851h12.8z" fill="none"/><path d="m310 204.2099-6.4 11.0851h12.8z" stroke="none"/><path d="m325.2 210h9.6" fill="none"/><path d="m330 205.2v9.6" fill="none"/><path d="m350 204.2099-6.4 11.0851h12.8z" fill="none"/><path d="m370 204.2099-6.4 11.0851h12.8z" fill="none"/><path d="m390 204.2099-6.4 11.0851h12.8z" stroke="none"/><g fill="none"><path d="m410 204.2099-6.4 11.0851h12.8z"/><path d="m430 204.2099-6.4 11.0851h12.8z"/><path d="m450 204.2099-6.4 11.0851h12.8z"/><path d="m470 204.2099-6.4 11.0851h12.8z"/><path d="m490 204.2099-6.4 11.0851h12.8z"/><path d="m510 204.2099-6.4 11.0851h12.8z"/><path d="m525.2 210h9.6"/><path d="m530 205.2v9.6"/><path d="m105.2 230h9.6"/><path d="m110 225.2v9.6"/><path d="m130 224.2099-6.4 11.0851h12.8z"/><path d="m150 224.2099-6.4 11.0851h12.8z"/><path d="m170 224.2099-6.4 11.0851h12.8z"/><path d="m190 224.2099-6.4 11.0851h12.8z"/><path d="m210 224.2099-6.4 11.0851h12.8z"/><path d="m230 224.2099-6.4 11.0851h12.8z"/><path d="m250 224.2099-6.4 11.0851h12.8z"/><path d="m270 224.2099-6.4 11.0851h12.8z"/><path d="m290 224.2099-6.4 11.0851h12.8z"/><path d="m310 224.2099-6.4 11.0851h12.8z"/><path d="m330 224.2099-6.4 11.0851h12.8z"/><path d="m350 224.2099-6.4 11.0851h12.8z"/><path d="m370 224.2099-6.4 11.0851h12.8z"/><path d="m390 224.2099-6.4 11.0851h12.8z"/><path d="m410 224.2099-6.4 11.0851h12.8z"/><path d="m430 224.2099-6.4 11.0851h12.8z"/><path d="m450 224.2099-6.4 11.0851h12.8z"/><path d="m470 224.2099-6.4 11.0851h12.8z"/><path d="m490 224.2099-6.4 11.0851h12.8z"/><path d="m510 224.2099-6.4 11.0851h12.8z"/><path d="m525.2 230h9.6"/><path d="m530 225.2v9.6"/><path d="m125.2 250h9.6"/><path d="m130 245.2v9.6"/><path d="m145.2 250h9.6"/><path d="m150 245.2v9.6"/><path d="m170 244.2099-6.4 11.0851h12.8z"/><path d="m190 244.2099-6.4 11.0851h12.8z"/><path d="m210 244.2099-6.4 11.0851h12.8z"/><path d="m230 244.2099-6.4 11.0851h12.8z"/><path d="m250 244.2099-6.4 11.0851h12.8z"/><path d="m270 244.2099-6.4 11.0851h12.8z"/><path d="m290 244.2099-6.4 11.0851h12.8z"/><path d="m310 244.2099-6.4 11.0851h12.8z"/><path d="m330 244.2099-6.4 11.0851h12.8z"/><path d="m350 244.2099-6.4 11.0851h12.8z"/><path d="m370 244.2099-6.4 11.0851h12.8z"/><path d="m390 244.2099-6.4 11.0851h12.8z"/><path d="m410 244.2099-6.4 11.0851h12.8z"/><path d="m430 244.2099-6.4 11.0851h12.8z"/><path d="m450 244.2099-6.4 11.0851h12.8z"/><path d="m470 244.2099-6.4 11.0851h12.8z"/><path d="m490 244.2099-6.4 11.0851h12.8z"/><path d="m505.2 250h9.6"/><path d="m510 245.2v9.6"/><path d="m165.2 270h9.6"/><path d="m170 265.2v9.6"/><path d="m185.2 270h9.6"/><path d="m190 265.2v9.6"/><path d="m210 264.2099-6.4 11.0851h12.8z"/><path d="m230 264.2099-6.4 11.0851h12.8z"/><path d="m250 264.2099-6.4 11.0851h12.8z"/><path d="m270 264.2099-6.4 11.0851h12.8z"/><path d="m290 264.2099-6.4 11.0851h12.8z"/><path d="m310 264.2099-6.4 11.0851h12.8z"/><path d="m330 264.2099-6.4 11.0851h12.8z"/><path d="m350 264.2099-6.4 11.0851h12.8z"/><path d="m370 264.2099-6.4 11.0851h12.8z"/><path d="m390 264.2099-6.4 11.0851h12.8z"/><path d="m410 264.2099-6.4 11.0851h12.8z"/><path d="m430 264.2099-6.4 11.0851h12.8z"/><path d="m450 264.2099-6.4 11.0851h12.8z"/><path d="m470 264.2099-6.4 11.0851h12.8z"/><path d="m485.2 270h9.6"/><path d="m490 265.2v9.6"/><path d="m205.2 290h9.6"/><path d="m210 285.2v9.6"/><path d="m225.2 290h9.6"/><path d="m230 285.2v9.6"/><path d="m250 284.2099-6.4 11.0851h12.8z"/><path d="m270 284.2099-6.4 11.0851h12.8z"/><path d="m290 284.2099-6.4 11.0851h12.8z"/><path d="m310 284.2099-6.4 11.0851h12.8z"/><path d="m330 284.2099-6.4 11.0851h12.8z"/><path d="m350 284.2099-6.4 11.0851h12.8z"/><path d="m370 284.2099-6.4 11.0851h12.8z"/><path d="m390 284.2099-6.4 11.0851h12.8z"/><path d="m410 284.2099-6.4 11.0851h12.8z"/><path d="m430 284.2099-6.4 11.0851h12.8z"/><path d="m450 284.2099-6.4 11.0851h12.8z"/><path d="m465.2 290h9.6"/><path d="m470 285.2v9.6"/><path d="m190 310h6.4" stroke-width="1.5"/><path d="m190 310 3.2 5.5426" stroke-width="1.5"/><path d="m190 310-3.2 5.5426" stroke-width="1.5"/><path d="m190 310h-6.4" stroke-width="1.5"/><path d="m190 310-3.2-5.5426" stroke-width="1.5"/><path d="m190 310 3.2-5.5426" stroke-width="1.5"/><path d="m210 310h6.4" stroke-width="1.5"/><path d="m210 310 3.2 5.5426" stroke-width="1.5"/><path d="m210 310-3.2 5.5426" stroke-width="1.5"/><path d="m210 310h-6.4" stroke-width="1.5"/><path d="m210 310-3.2-5.5426" stroke-width="1.5"/><path d="m210 310 3.2-5.5426" stroke-width="1.5"/><path d="m223.6 303.6h12.8v12.8h-12.8z"/><path d="m245.2 310h9.6"/><path d="m250 305.2v9.6"/><path d="m265.2 310h9.6"/><path d="m270 305.2v9.6"/><path d="m285.2 310h9.6"/><path d="m290 305.2v9.6"/><path d="m305.2 310h9.6"/><path d="m310 305.2v9.6"/><path d="m330 304.2099-6.4 11.0851h12.8z"/><path d="m350 304.2099-6.4 11.0851h12.8z"/><path d="m365.2 310h9.6"/><path d="m370 305.2v9.6"/><path d="m390 304.2099-6.4 11.0851h12.8z"/><path d="m410 304.2099-6.4 11.0851h12.8z"/><path d="m425.2 310h9.6"/><path d="m430 305.2v9.6"/><path d="m450 310h6.4" stroke-width="1.5"/><path d="m450 310 3.2 5.5426" stroke-width="1.5"/><path d="m450 310-3.2 5.5426" stroke-width="1.5"/><path d="m450 310h-6.4" stroke-width="1.5"/><path d="m450 310-3.2-5.5426" stroke-width="1.5"/><path d="m450 310 3.2-5.5426" stroke-width="1.5"/><path d="m170 330h6.4" stroke-width="1.5"/><path d="m170 330 3.2 5.5426" stroke-width="1.5"/><path d="m170 330-3.2 5.5426" stroke-width="1.5"/><path d="m170 330h-6.4" stroke-width="1.5"/><path d="m170 330-3.2-5.5426" stroke-width="1.5"/><path d="m170 330 3.2-5.5426" stroke-width="1.5"/><path d="m183.6 323.6h12.8v12.8h-12.8z"/><path d="m203.6 323.6h12.8v12.8h-12.8z"/><path d="m223.6 323.6h12.8v12.8h-12.8z"/><path d="m243.6 323.6h12.8v12.8h-12.8z"/><path d="m263.6 323.6h12.8v12.8h-12.8z"/><path d="m283.6 323.6h12.8v12.8h-12.8z"/><path d="m303.6 323.6h12.8v12.8h-12.8z"/><path d="m323.6 323.6h12.8v12.8h-12.8z"/><path d="m343.6 323.6h12.8v12.8h-12.8z"/><path d="m363.6 323.6h12.8v12.8h-12.8z"/><path d="m383.6 323.6h12.8v12.8h-12.8z"/><path d="m403.6 323.6h12.8v12.8h-12.8z"/><path d="m423.6 323.6h12.8v12.8h-12.8z"/><path d="m443.6 323.6h12.8v12.8h-12.8z"/><path d="m470 330h6.4" stroke-width="1.5"/><path d="m470 330 3.2 5.5426" stroke-width="1.5"/><path d="m470 330-3.2 5.5426" stroke-width="1.5"/><path d="m470 330h-6.4" stroke-width="1.5"/><path d="m470 330-3.2-5.5426" stroke-width="1.5"/><path d="m470 330 3.2-5.5426" stroke-width="1.5"/><path d="m150 350h6.4" stroke-width="1.5"/><path d="m150 350 3.2 5.5426" stroke-width="1.5"/><path d="m150 350-3.2 5.5426" stroke-width="1.5"/><path d="m150 350h-6.4" stroke-width="1.5"/><path d="m150 350-3.2-5.5426" stroke-width="1.5"/><path d="m150 350 3.2-5.5426" stroke-width="1.5"/><path d="m163.6 343.6h12.8v12.8h-12.8z"/><path d="m183.6 343.6h12.8v12.8h-12.8z"/><path d="m203.6 343.6h12.8v12.8h-12.8z"/><path d="m223.6 343.6h12.8v12.8h-12.8z"/><path d="m243.6 343.6h12.8v12.8h-12.8z"/><path d="m263.6 343.6h12.8v12.8h-12.8z"/><path d="m283.6 343.6h12.8v12.8h-12.8z"/><path d="m303.6 343.6h12.8v12.8h-12.8z"/><path d="m323.6 343.6h12.8v12.8h-12.8z"/><path d="m343.6 343.6h12.8v12.8h-12.8z"/><path d="m363.6 343.6h12.8v12.8h-12.8z"/><path d="m383.6 343.6h12.8v12.8h-12.8z"/><path d="m403.6 343.6h12.8v12.8h-12.8z"/><path d="m423.6 343.6h12.8v12.8h-12.8z"/><path d="m443.6 343.6h12.8v12.8h-12.8z"/><path d="m463.6 343.6h12.8v12.8h-12.8z"/><path d="m490 350h6.4" stroke-width="1.5"/><path d="m490 350 3.2 5.5426" stroke-width="1.5"/><path d="m490 350-3.2 5.5426" stroke-width="1.5"/><path d="m490 350h-6.4" stroke-width="1.5"/><path d="m490 350-3.2-5.5426" stroke-width="1.5"/><path d="m490 350 3.2-5.5426" stroke-width="1.5"/><path d="m150 370h6.4" stroke-width="1.5"/><path d="m150 370 3.2 5.5426" stroke-width="1.5"/><path d="m150 370-3.2 5.5426" stroke-width="1.5"/><path d="m150 370h-6.4" stroke-width="1.5"/><path d="m150 370-3.2-5.5426" stroke-width="1.5"/><path d="m150 370 3.2-5.5426" stroke-width="1.5"/><path d="m163.6 363.6h12.8v12.8h-12.8z"/><path d="m183.6 363.6h12.8v12.8h-12.8z"/><path d="m203.6 363.6h12.8v12.8h-12.8z"/><path d="m223.6 363.6h12.8v12.8h-12.8z"/><path d="m243.6 363.6h12.8v12.8h-12.8z"/><path d="m263.6 363.6h12.8v12.8h-12.8z"/><path d="m283.6 363.6h12.8v12.8h-12.8z"/><path d="m303.6 363.6h12.8v12.8h-12.8z"/><path d="m323.6 363.6h12.8v12.8h-12.8z"/><path d="m343.6 363.6h12.8v12.8h-12.8z"/><path d="m363.6 363.6h12.8v12.8h-12.8z"/><path d="m383.6 363.6h12.8v12.8h-12.8z"/><path d="m403.6 363.6h12.8v12.8h-12.8z"/><path d="m423.6 363.6h12.8v12.8h-12.8z"/><path d="m443.6 363.6h12.8v12.8h-12.8z"/><path d="m463.6 363.6h12.8v12.8h-12.8z"/><path d="m490 370h6.4" stroke-width="1.5"/><path d="m490 370 3.2 5.5426" stroke-width="1.5"/><path d="m490 370-3.2 5.5426" stroke-width="1.5"/><path d="m490 370h-6.4" stroke-width="1.5"/><path d="m490 370-3.2-5.5426" stroke-width="1.5"/><path d="m490 370 3.2-5.5426" stroke-width="1.5"/><path d="m130 390h6.4" stroke-width="1.5"/><path d="m130 390 3.2 5.5426" stroke-width="1.5"/><path d="m130 390-3.2 5.5426" stroke-width="1.5"/><path d="m130 390h-6.4" stroke-width="1.5"/><path d="m130 390-3.2-5.5426" stroke-width="1.5"/><path d="m130 390 3.2-5.5426" stroke-width="1.5"/><path d="m143.6 383.6h12.8v12.8h-12.8z"/><path d="m163.6 383.6h12.8v12.8h-12.8z"/><path d="m183.6 383.6h12.8v12.8h-12.8z"/><path d="m203.6 383.6h12.8v12.8h-12.8z"/><path d="m223.6 383.6h12.8v12.8h-12.8z"/><path d="m243.6 383.6h12.8v12.8h-12.8z"/><path d="m263.6 383.6h12.8v12.8h-12.8z"/><path d="m283.6 383.6h12.8v12.8h-12.8z"/><path d="m303.6 383.6h12.8v12.8h-12.8z"/><path d="m323.6 383.6h12.8v12.8h-12.8z"/><path d="m343.6 383.6h12.8v12.8h-12.8z"/></g><circle cx="370" cy="390" r="6.4" stroke="none"/><circle cx="390" cy="390" r="6.4" stroke="none"/><path d="m403.6 383.6h12.8v12.8h-12.8z" fill="none"/><path d="m423.6 383.6h12.8v12.8h-12.8z" fill="none"/><path d="m443.6 383.6h12.8v12.8h-12.8z" fill="none"/><circle cx="470" cy="390" r="6.4" stroke="none"/><path d="m483.6 383.6h12.8v12.8h-12.8z" fill="none"/><path d="m510 390h6.4" fill="none" stroke-width="1.5"/><path d="m510 390 3.2 5.5426" fill="none" stroke-width="1.5"/><path d="m510 390-3.2 5.5426" fill="none" stroke-width="1.5"/><path d="m510 390h-6.4" fill="none" stroke-width="1.5"/><path d="m510 390-3.2-5.5426" fill="none" stroke-width="1.5"/><path d="m510 390 3.2-5.5426" fill="none" stroke-width="1.5"/><path d="m130 410h6.4" fill="none" stroke-width="1.5"/><path d="m130 410 3.2 5.5426" fill="none" stroke-width="1.5"/><path d="m130 410-3.2 5.5426" fill="none" stroke-width="1.5"/><path d="m130 410h-6.4" fill="none" stroke-width="1.5"/><path d="m130 410-3.2-5.5426" fill="none" stroke-width="1.5"/><path d="m130 410 3.2-5.5426" fill="none" stroke-width="1.5"/><path d="m143.6 403.6h12.8v12.8h-12.8z" fill="none"/><path d="m163.6 403.6h12.8v12.8h-12.8z" fill="none"/><path d="m183.6 403.6h12.8v12.8h-12.8z" fill="none"/><path d="m203.6 403.6h12.8v12.8h-12.8z" fill="none"/><path d="m223.6 403.6h12.8v12.8h-12.8z" fill="none"/><path d="m243.6 403.6h12.8v12.8h-12.8z" fill="none"/><path d="m263.6 403.6h12.8v12.8h-12.8z" fill="none"/><path d="m283.6 403.6h12.8v12.8h-12.8z" fill="none"/><path d="m303.6 403.6h12.8v12.8h-12.8z" fill="none"/><path d="m323.6 403.6h12.8v12.8h-12.8z" fill="none"/><path d="m343.6 403.6h12.8v12.8h-12.8z" fill="none"/><path d="m370 403.6 1.8809 3.8111 4.2059.6112-3.0434 2.9666.7184 4.1888-3.7618-1.9777-3.7618 1.9777.7184-4.1888-3.0434-2.9666 4.2059-.6112z" stroke="none"/><circle cx="390" cy="410" r="6.4" stroke="none"/><circle cx="410" cy="410" r="6.4" stroke="none"/><path d="m423.6 403.6h12.8v12.8h-12.8z" fill="none"/><path d="m443.6 403.6h12.8v12.8h-12.8z" fill="none"/><path d="m470 403.6 1.8809 3.8111 4.2059.6112-3.0434 2.9666.7184 4.1888-3.7618-1.9777-3.7618 1.9777.7184-4.1888-3.0434-2.9666 4.2059-.6112z" stroke="none"/><circle cx="490" cy="410" r="6.4" stroke="none"/><path d="m510 410h6.4" fill="none" stroke-width="1.5"/><path d="m510 410 3.2 5.5426" fill="none" stroke-width="1.5"/><path d="m510 410-3.2 5.5426" fill="none" stroke-width="1.5"/><path d="m510 410h-6.4" fill="none" stroke-width="1.5"/><path d="m510 410-3.2-5.5426" fill="none" stroke-width="1.5"/><path d="m510 410 3.2-5.5426" fill="none" stroke-width="1.5"/><path d="m130 430h6.4" fill="none" stroke-width="1.5"/><path d="m130 430 3.2 5.5426" fill="none" stroke-width="1.5"/><path d="m130 430-3.2 5.5426" fill="none" stroke-width="1.5"/><path d="m130 430h-6.4" fill="none" stroke-width="1.5"/><path d="m130 430-3.2-5.5426" fill="none" stroke-width="1.5"/><path d="m130 430 3.2-5.5426" fill="none" stroke-width="1.5"/><path d="m143.6 423.6h12.8v12.8h-12.8z" fill="none"/><path d="m163.6 423.6h12.8v12.8h-12.8z" fill="none"/><path d="m183.6 423.6h12.8v12.8h-12.8z" fill="none"/><path d="m203.6 423.6h12.8v12.8h-12.8z" fill="none"/><path d="m223.6 423.6h12.8v12.8h-12.8z" fill="none"/><path d="m243.6 423.6h12.8v12.8h-12.8z" fill="none"/><path d="m263.6 423.6h12.8v12.8h-12.8z" fill="none"/><path d="m283.6 423.6h12.8v12.8h-12.8z" fill="none"/><path d="m303.6 423.6h12.8v12.8h-12.8z" fill="none"/><path d="m323.6 423.6h12.8v12.8h-12.8z" fill="none"/><path d="m343.6 423.6h12.8v12.8h-12.8z" fill="none"/><circle cx="370" cy="430" r="6.4" stroke="none"/><circle cx="390" cy="430" r="6.4" stroke="none"/><path d="m403.6 423.6h12.8v12.8h-12.8z" fill="none"/><path d="m423.6 423.6h12.8v12.8h-12.8z" fill="none"/><path d="m443.6 423.6h12.8v12.8h-12.8z" fill="none"/><circle cx="470" cy="430" r="6.4" stroke="none"/><path d="m483.6 423.6h12.8v12.8h-12.8z" fill="none"/><path d="m510 430h6.4" fill="none" stroke-width="1.5"/><path d="m510 430 3.2 5.5426" fill="none" stroke-width="1.5"/><path d="m510 430-3.2 5.5426" fill="none" stroke-width="1.5"/><path d="m510 430h-6.4" fill="none" stroke-width="1.5"/><path d="m510 430-3.2-5.5426" fill="none" stroke-width="1.5"/><path d="m510 430 3.2-5.5426" fill="none" stroke-width="1.5"/><path d="m130 450h6.4" fill="none" stroke-width="1.5"/><path d="m130 450 3.2 5.5426" fill="none" stroke-width="1.5"/><path d="m130 450-3.2 5.5426" fill="none" stroke-width="1.5"/><path d="m130 450h-6.4" fill="none" stroke-width="1.5"/><path d="m130 450-3.2-5.5426" fill="none" stroke-width="1.5"/><path d="m130 450 3.2-5.5426" fill="none" stroke-width="1.5"/><path d="m143.6 443.6h12.8v12.8h-12.8z" stroke="none"/><path d="m163.6 443.6h12.8v12.8h-12.8z" fill="none"/><path d="m183.6 443.6h12.8v12.8h-12.8z" fill="none"/><path d="m203.6 443.6h12.8v12.8h-12.8z" fill="none"/><path d="m223.6 443.6h12.8v12.8h-12.8z" fill="none"/><path d="m243.6 443.6h12.8v12.8h-12.8z" fill="none"/><path d="m263.6 443.6h12.8v12.8h-12.8z" fill="none"/><path d="m283.6 443.6h12.8v12.8h-12.8z" fill="none"/><path d="m303.6 443.6h12.8v12.8h-12.8z" fill="none"/><path d="m323.6 443.6h12.8v12.8h-12.8z" fill="none"/><path d="m343.6 443.6h12.8v12.8h-12.8z" fill="none"/><path d="m363.6 443.6h12.8v12.8h-12.8z" fill="none"/><path d="m383.6 443.6h12.8v12.8h-12.8z" fill="none"/><path d="m403.6 443.6h12.8v12.8h-12.8z" fill="none"/><path d="m423.6 443.6h12.8v12.8h-12.8z" fill="none"/><path d="m443.6 443.6h12.8v12.8h-12.8z" fill="none"/><path d="m463.6 443.6h12.8v12.8h-12.8z" fill="none"/><path d="m483.6 443.6h12.8v12.8h-12.8z" fill="none"/><path d="m510 450h6.4" fill="none" stroke-width="1.5"/><path d="m510 450 3.2 5.5426" fill="none" stroke-width="1.5"/><path d="m510 450-3.2 5.5426" fill="none" stroke-width="1.5"/><path d="m510 450h-6.4" fill="none" stroke-width="1.5"/><path d="m510 450-3.2-5.5426" fill="none" stroke-width="1.5"/><path d="m510 450 3.2-5.5426" fill="none" stroke-width="1.5"/><path d="m130 470h6.4" fill="none" stroke-width="1.5"/><path d="m130 470 3.2 5.5426" fill="none" stroke-width="1.5"/><path d="m130 470-3.2 5.5426" fill="none" stroke-width="1.5"/><path d="m130 470h-6.4" fill="none" stroke-width="1.5"/><path d="m130 470-3.2-5.5426" fill="none" stroke-width="1.5"/><path d="m130 470 3.2-5.5426" fill="none" stroke-width="1.5"/><path d="m143.6 463.6h12.8v12.8h-12.8z" stroke="none"/><path d="m163.6 463.6h12.8v12.8h-12.8z" stroke="none"/><path d="m183.6 463.6h12.8v12.8h-12.8z" fill="none"/><path d="m203.6 463.6h12.8v12.8h-12.8z" fill="none"/><path d="m223.6 463.6h12.8v12.8h-12.8z" fill="none"/><path d="m243.6 463.6h12.8v12.8h-12.8z" fill="none"/><path d="m263.6 463.6h12.8v12.8h-12.8z" fill="none"/><path d="m283.6 463.6h12.8v12.8h-12.8z" fill="none"/><path d="m303.6 463.6h12.8v12.8h-12.8z" fill="none"/><path d="m323.6 463.6h12.8v12.8h-12.8z" fill="none"/><path d="m343.6 463.6h12.8v12.8h-12.8z" fill="none"/><path d="m363.6 463.6h12.8v12.8h-12.8z" fill="none"/><path d="m383.6 463.6h12.8v12.8h-12.8z" fill="none"/><path d="m403.6 463.6h12.8v12.8h-12.8z" fill="none"/><path d="m430 470h6.4" fill="none" stroke-width="1.5"/><path d="m430 470 3.2 5.5426" fill="none" stroke-width="1.5"/><path d="m430 470-3.2 5.5426" fill="none" stroke-width="1.5"/><path d="m430 470h-6.4" fill="none" stroke-width="1.5"/><path d="m430 470-3.2-5.5426" fill="none" stroke-width="1.5"/><path d="m430 470 3.2-5.5426" fill="none" stroke-width="1.5"/><path d="m443.6 463.6h12.8v12.8h-12.8z" fill="none"/><path d="m463.6 463.6h12.8v12.8h-12.8z" fill="none"/><path d="m483.6 463.6h12.8v12.8h-12.8z" fill="none"/><path d="m510 470h6.4" fill="none" stroke-width="1.5"/><path d="m510 470 3.2 5.5426" fill="none" stroke-width="1.5"/><path d="m510 470-3.2 5.5426" fill="none" stroke-width="1.5"/><path d="m510 470h-6.4" fill="none" stroke-width="1.5"/><path d="m510 470-3.2-5.5426" fill="none" stroke-width="1.5"/><path d="m510 470 3.2-5.5426" fill="none" stroke-width="1.5"/><path d="m150 490h6.4" fill="none" stroke-width="1.5"/><path d="m150 490 3.2 5.5426" fill="none" stroke-width="1.5"/><path d="m150 490-3.2 5.5426" fill="none" stroke-width="1.5"/><path d="m150 490h-6.4" fill="none" stroke-width="1.5"/><path d="m150 490-3.2-5.5426" fill="none" stroke-width="1.5"/><path d="m150 490 3.2-5.5426" fill="none" stroke-width="1.5"/><path d="m163.6 483.6h12.8v12.8h-12.8z" stroke="none"/><path d="m183.6 483.6h12.8v12.8h-12.8z" stroke="none"/><path d="m203.6 483.6h12.8v12.8h-12.8z" stroke="none"/><path d="m223.6 483.6h12.8v12.8h-12.8z" fill="none"/><path d="m243.6 483.6h12.8v12.8h-12.8z" fill="none"/><path d="m263.6 483.6h12.8v12.8h-12.8z" fill="none"/><path d="m283.6 483.6h12.8v12.8h-12.8z" fill="none"/><path d="m303.6 483.6h12.8v12.8h-12.8z" fill="none"/><path d="m323.6 483.6h12.8v12.8h-12.8z" fill="none"/><path d="m343.6 483.6h12.8v12.8h-12.8z" fill="none"/><path d="m363.6 483.6h12.8v12.8h-12.8z" fill="none"/><path d="m383.6 483.6h12.8v12.8h-12.8z" fill="none"/><path d="m403.6 483.6h12.8v12.8h-12.8z" fill="none"/><path d="m423.6 483.6h12.8v12.8h-12.8z" fill="none"/><path d="m443.6 483.6h12.8v12.8h-12.8z" fill="none"/><path d="m463.6 483.6h12.8v12.8h-12.8z" fill="none"/><path d="m490 490h6.4" fill="none" stroke-width="1.5"/><path d="m490 490 3.2 5.5426" fill="none" stroke-width="1.5"/><path d="m490 490-3.2 5.5426" fill="none" stroke-width="1.5"/><path d="m490 490h-6.4" fill="none" stroke-width="1.5"/><path d="m490 490-3.2-5.5426" fill="none" stroke-width="1.5"/><path d="m490 490 3.2-5.5426" fill="none" stroke-width="1.5"/><path d="m170 510h6.4" fill="none" stroke-width="1.5"/><path d="m170 510 3.2 5.5425" fill="none" stroke-width="1.5"/><path d="m170 510-3.2 5.5425" fill="none" stroke-width="1.5"/><path d="m170 510h-6.4" fill="none" stroke-width="1.5"/><path d="m170 510-3.2-5.5426" fill="none" stroke-width="1.5"/><path d="m170 510 3.2-5.5426" fill="none" stroke-width="1.5"/><path d="m183.6 503.6h12.8v12.8h-12.8z" stroke="none"/><path d="m203.6 503.6h12.8v12.8h-12.8z" stroke="none"/><path d="m223.6 503.6h12.8v12.8h-12.8z" stroke="none"/><path d="m243.6 503.6h12.8v12.8h-12.8z" stroke="none"/><path d="m263.6 503.6h12.8v12.8h-12.8z" stroke="none"/><path d="m283.6 503.6h12.8v12.8h-12.8z" stroke="none"/><path d="m303.6 503.6h12.8v12.8h-12.8z" stroke="none"/><path d="m323.6 503.6h12.8v12.8h-12.8z" fill="none"/><path d="m343.6 503.6h12.8v12.8h-12.8z" fill="none"/><path d="m363.6 503.6h12.8v12.8h-12.8z" fill="none"/><path d="m383.6 503.6h12.8v12.8h-12.8z" fill="none"/><path d="m403.6 503.6h12.8v12.8h-12.8z" fill="none"/><path d="m423.6 503.6h12.8v12.8h-12.8z" fill="none"/><path d="m443.6 503.6h12.8v12.8h-12.8z" fill="none"/><path d="m470 510h6.4" fill="none" stroke-width="1.5"/><path d="m470 510 3.2 5.5425" fill="none" stroke-width="1.5"/><path d="m470 510-3.2 5.5425" fill="none" stroke-width="1.5"/><path d="m470 510h-6.4" fill="none" stroke-width="1.5"/><path d="m470 510-3.2-5.5426" fill="none" stroke-width="1.5"/><path d="m470 510 3.2-5.5426" fill="none" stroke-width="1.5"/><path d="m490 510h6.4" fill="none" stroke-width="1.5"/><path d="m490 510 3.2 5.5425" fill="none" stroke-width="1.5"/><path d="m490 510-3.2 5.5425" fill="none" stroke-width="1.5"/><path d="m490 510h-6.4" fill="none" stroke-width="1.5"/><path d="m490 510-3.2-5.5426" fill="none" stroke-width="1.5"/><path d="m490 510 3.2-5.5426" fill="none" stroke-width="1.5"/><path d="m510 510h6.4" fill="none" stroke-width="1.5"/><path d="m510 510 3.2 5.5425" fill="none" stroke-width="1.5"/><path d="m510 510-3.2 5.5425" fill="none" stroke-width="1.5"/><path d="m510 510h-6.4" fill="none" stroke-width="1.5"/><path d="m510 510-3.2-5.5426" fill="none" stroke-width="1.5"/><path d="m510 510 3.2-5.5426" fill="none" stroke-width="1.5"/><path d="m190 530h6.4" fill="none" stroke-width="1.5"/><path d="m190 530 3.2 5.5425" fill="none" stroke-width="1.5"/><path d="m190 530-3.2 5.5425" fill="none" stroke-width="1.5"/><path d="m190 530h-6.4" fill="none" stroke-width="1.5"/><path d="m190 530-3.2-5.5425" fill="none" stroke-width="1.5"/><path d="m190 530 3.2-5.5425" fill="none" stroke-width="1.5"/><path d="m210 530h6.4" fill="none" stroke-width="1.5"/><path d="m210 530 3.2 5.5425" fill="none" stroke-width="1.5"/><path d="m210 530-3.2 5.5425" fill="none" stroke-width="1.5"/><path d="m210 530h-6.4" fill="none" stroke-width="1.5"/><path d="m210 530-3.2-5.5425" fill="none" stroke-width="1.5"/><path d="m210 530 3.2-5.5425" fill="none" stroke-width="1.5"/><path d="m223.6 523.6h12.8v12.8h-12.8z" stroke="none"/><path d="m243.6 523.6h12.8v12.8h-12.8z" stroke="none"/><path d="m270 530h6.4" fill="none" stroke-width="1.5"/><path d="m270 530 3.2 5.5425" fill="none" stroke-width="1.5"/><path d="m270 530-3.2 5.5425" fill="none" stroke-width="1.5"/><path d="m270 530h-6.4" fill="none" stroke-width="1.5"/><path d="m270 530-3.2-5.5425" fill="none" stroke-width="1.5"/><path d="m270 530 3.2-5.5425" fill="none" stroke-width="1.5"/><path d="m290 530h6.4" fill="none" stroke-width="1.5"/><path d="m290 530 3.2 5.5425" fill="none" stroke-width="1.5"/><path d="m290 530-3.2 5.5425" fill="none" stroke-width="1.5"/><path d="m290 530h-6.4" fill="none" stroke-width="1.5"/><path d="m290 530-3.2-5.5425" fill="none" stroke-width="1.5"/><path d="m290 530 3.2-5.5425" fill="none" stroke-width="1.5"/><path d="m310 530h6.4" fill="none" stroke-width="1.5"/><path d="m310 530 3.2 5.5425" fill="none" stroke-width="1.5"/><path d="m310 530-3.2 5.5425" fill="none" stroke-width="1.5"/><path d="m310 530h-6.4" fill="none" stroke-width="1.5"/><path d="m310 530-3.2-5.5425" fill="none" stroke-width="1.5"/><path d="m310 530 3.2-5.5425" fill="none" stroke-width="1.5"/><path d="m330 530h6.4" fill="none" stroke-width="1.5"/><path d="m330 530 3.2 5.5425" fill="none" stroke-width="1.5"/><path d="m330 530-3.2 5.5425" fill="none" stroke-width="1.5"/><path d="m330 530h-6.4" fill="none" stroke-width="1.5"/><path d="m330 530-3.2-5.5425" fill="none" stroke-width="1.5"/><path d="m330 530 3.2-5.5425" fill="none" stroke-width="1.5"/><path d="m350 530h6.4" fill="none" stroke-width="1.5"/><path d="m350 530 3.2 5.5425" fill="none" stroke-width="1.5"/><path d="m350 530-3.2 5.5425" fill="none" stroke-width="1.5"/><path d="m350 530h-6.4" fill="none" stroke-width="1.5"/><path d="m350 530-3.2-5.5425" fill="none" stroke-width="1.5"/><path d="m350 530 3.2-5.5425" fill="none" stroke-width="1.5"/><path d="m363.6 523.6h12.8v12.8h-12.8z" stroke="none"/><path d="m383.6 523.6h12.8v12.8h-12.8z" stroke="none"/><path d="m403.6 523.6h12.8v12.8h-12.8z" stroke="none"/><path d="m430 530h6.4" fill="none" stroke-width="1.5"/><path d="m430 530 3.2 5.5425" fill="none" stroke-width="1.5"/><path d="m430 530-3.2 5.5425" fill="none" stroke-width="1.5"/><path d="m430 530h-6.4" fill="none" stroke-width="1.5"/><path d="m430 530-3.2-5.5425" fill="none" stroke-width="1.5"/><path d="m430 530 3.2-5.5425" fill="none" stroke-width="1.5"/><path d="m450 530h6.4" fill="none" stroke-width="1.5"/><path d="m450 530 3.2 5.5425" fill="none" stroke-width="1.5"/><path d="m450 530-3.2 5.5425" fill="none" stroke-width="1.5"/><path d="m450 530h-6.4" fill="none" stroke-width="1.5"/><path d="m450 530-3.2-5.5425" fill="none" stroke-width="1.5"/><path d="m450 530 3.2-5.5425" fill="none" stroke-width="1.5"/><path d="m463.6 523.6h12.8v12.8h-12.8z" fill="none"/><path d="m483.6 523.6h12.8v12.8h-12.8z" fill="none"/><path d="m503.6 523.6h12.8v12.8h-12.8z" fill="none"/><path d="m530 530h6.4" fill="none" stroke-width="1.5"/><path d="m530 530 3.2 5.5425" fill="none" stroke-width="1.5"/><path d="m530 530-3.2 5.5425" fill="none" stroke-width="1.5"/><path d="m530 530h-6.4" fill="none" stroke-width="1.5"/><path d="m530 530-3.2-5.5425" fill="none" stroke-width="1.5"/><path d="m530 530 3.2-5.5425" fill="none" stroke-width="1.5"/><path d="m230 550h6.4" fill="none" stroke-width="1.5"/><path d="m230 550 3.2 5.5425" fill="none" stroke-width="1.5"/><path d="m230 550-3.2 5.5425" fill="none" stroke-width="1.5"/><path d="m230 550h-6.4" fill="none" stroke-width="1.5"/><path d="m230 550-3.2-5.5425" fill="none" stroke-width="1.5"/><path d="m230 550 3.2-5.5425" fill="none" stroke-width="1.5"/><path d="m250 550h6.4" fill="none" stroke-width="1.5"/><path d="m250 550 3.2 5.5425" fill="none" stroke-width="1.5"/><path d="m250 550-3.2 5.5425" fill="none" stroke-width="1.5"/><path d="m250 550h-6.4" fill="none" stroke-width="1.5"/><path d="m250 550-3.2-5.5425" fill="none" stroke-width="1.5"/><path d="m250 550 3.2-5.5425" fill="none" stroke-width="1.5"/><path d="m263.6 543.6h12.8v12.8h-12.8z" stroke="none"/><path d="m283.6 543.6h12.8v12.8h-12.8z" fill="none"/><path d="m303.6 543.6h12.8v12.8h-12.8z" fill="none"/><path d="m323.6 543.6h12.8v12.8h-12.8z" fill="none"/><path d="m343.6 543.6h12.8v12.8h-12.8z" fill="none"/><path d="m370 550h6.4" fill="none" stroke-width="1.5"/><path d="m370 550 3.2 5.5425" fill="none" stroke-width="1.5"/><path d="m370 550-3.2 5.5425" fill="none" stroke-width="1.5"/><path d="m370 550h-6.4" fill="none" stroke-width="1.5"/><path d="m370 550-3.2-5.5425" fill="none" stroke-width="1.5"/><path d="m370 550 3.2-5.5425" fill="none" stroke-width="1.5"/><path d="m390 550h6.4" fill="none" stroke-width="1.5"/><path d="m390 550 3.2 5.5425" fill="none" stroke-width="1.5"/><path d="m390 550-3.2 5.5425" fill="none" stroke-width="1.5"/><path d="m390 550h-6.4" fill="none" stroke-width="1.5"/><path d="m390 550-3.2-5.5425" fill="none" stroke-width="1.5"/><path d="m390 550 3.2-5.5425" fill="none" stroke-width="1.5"/><path d="m410 550h6.4" fill="none" stroke-width="1.5"/><path d="m410 550 3.2 5.5425" fill="none" stroke-width="1.5"/><path d="m410 550-3.2 5.5425" fill="none" stroke-width="1.5"/><path d="m410 550h-6.4" fill="none" stroke-width="1.5"/><path d="m410 550-3.2-5.5425" fill="none" stroke-width="1.5"/><path d="m410 550 3.2-5.5425" fill="none" stroke-width="1.5"/><path d="m423.6 543.6h12.8v12.8h-12.8z" stroke="none"/><path d="m443.6 543.6h12.8v12.8h-12.8z" fill="none"/><path d="m463.6 543.6h12.8v12.8h-12.8z" fill="none"/><path d="m483.6 543.6h12.8v12.8h-12.8z" fill="none"/><path d="m503.6 543.6h12.8v12.8h-12.8z" stroke="none"/><path d="m530 550h6.4" fill="none" stroke-width="1.5"/><path d="m530 550 3.2 5.5425" fill="none" stroke-width="1.5"/><path d="m530 550-3.2 5.5425" fill="none" stroke-width="1.5"/><path d="m530 550h-6.4" fill="none" stroke-width="1.5"/><path d="m530 550-3.2-5.5425" fill="none" stroke-width="1.5"/><path d="m530 550 3.2-5.5425" fill="none" stroke-width="1.5"/><path d="m250 570h6.4" fill="none" stroke-width="1.5"/><path d="m250 570 3.2 5.5425" fill="none" stroke-width="1.5"/><path d="m250 570-3.2 5.5425" fill="none" stroke-width="1.5"/><path d="m250 570h-6.4" fill="none" stroke-width="1.5"/><path d="m250 570-3.2-5.5425" fill="none" stroke-width="1.5"/><path d="m250 570 3.2-5.5425" fill="none" stroke-width="1.5"/><path d="m263.6 563.6h12.8v12.8h-12.8z" stroke="none"/><path d="m283.6 563.6h12.8v12.8h-12.8z" stroke="none"/><path d="m303.6 563.6h12.8v12.8h-12.8z" stroke="none"/><path d="m323.6 563.6h12.8v12.8h-12.8z" stroke="none"/><path d="m343.6 563.6h12.8v12.8h-12.8z" stroke="none"/><path d="m370 570h6.4" fill="none" stroke-width="1.5"/><path d="m370 570 3.2 5.5425" fill="none" stroke-width="1.5"/><path d="m370 570-3.2 5.5425" fill="none" stroke-width="1.5"/><path d="m370 570h-6.4" fill="none" stroke-width="1.5"/><path d="m370 570-3.2-5.5425" fill="none" stroke-width="1.5"/><path d="m370 570 3.2-5.5425" fill="none" stroke-width="1.5"/><path d="m410 570h6.4" fill="none" stroke-width="1.5"/><path d="m410 570 3.2 5.5425" fill="none" stroke-width="1.5"/><path d="m410 570-3.2 5.5425" fill="none" stroke-width="1.5"/><path d="m410 570h-6.4" fill="none" stroke-width="1.5"/><path d="m410 570-3.2-5.5425" fill="none" stroke-width="1.5"/><path d="m410 570 3.2-5.5425" fill="none" stroke-width="1.5"/><path d="m423.6 563.6h12.8v12.8h-12.8z" stroke="none"/><path d="m443.6 563.6h12.8v12.8h-12.8z" stroke="none"/><path d="m463.6 563.6h12.8v12.8h-12.8z" stroke="none"/><path d="m490 570h6.4" fill="none" stroke-width="1.5"/><path d="m490 570 3.2 5.5425" fill="none" stroke-width="1.5"/><path d="m490 570-3.2 5.5425" fill="none" stroke-width="1.5"/><path d="m490 570h-6.4" fill="none" stroke-width="1.5"/><path d="m490 570-3.2-5.5425" fill="none" stroke-width="1.5"/><path d="m490 570 3.2-5.5425" fill="none" stroke-width="1.5"/><path d="m510 570h6.4" fill="none" stroke-width="1.5"/><path d="m510 570 3.2 5.5425" fill="none" stroke-width="1.5"/><path d="m510 570-3.2 5.5425" fill="none" stroke-width="1.5"/><path d="m510 570h-6.4" fill="none" stroke-width="1.5"/><path d="m510 570-3.2-5.5425" fill="none" stroke-width="1.5"/><path d="m510 570 3.2-5.5425" fill="none" stroke-width="1.5"/><path d="m270 590h6.4" fill="none" stroke-width="1.5"/><path d="m270 590 3.2 5.5425" fill="none" stroke-width="1.5"/><path d="m270 590-3.2 5.5425" fill="none" stroke-width="1.5"/><path d="m270 590h-6.4" fill="none" stroke-width="1.5"/><path d="m270 590-3.2-5.5425" fill="none" stroke-width="1.5"/><path d="m270 590 3.2-5.5425" fill="none" stroke-width="1.5"/><path d="m290 590h6.4" fill="none" stroke-width="1.5"/><path d="m290 590 3.2 5.5425" fill="none" stroke-width="1.5"/><path d="m290 590-3.2 5.5425" fill="none" stroke-width="1.5"/><path d="m290 590h-6.4" fill="none" stroke-width="1.5"/><path d="m290 590-3.2-5.5425" fill="none" stroke-width="1.5"/><path d="m290 590 3.2-5.5425" fill="none" stroke-width="1.5"/><path d="m310 590h6.4" fill="none" stroke-width="1.5"/><path d="m310 590 3.2 5.5425" fill="none" stroke-width="1.5"/><path d="m310 590-3.2 5.5425" fill="none" stroke-width="1.5"/><path d="m310 590h-6.4" fill="none" stroke-width="1.5"/><path d="m310 590-3.2-5.5425" fill="none" stroke-width="1.5"/><path d="m310 590 3.2-5.5425" fill="none" stroke-width="1.5"/><path d="m330 590h6.4" fill="none" stroke-width="1.5"/><path d="m330 590 3.2 5.5425" fill="none" stroke-width="1.5"/><path d="m330 590-3.2 5.5425" fill="none" stroke-width="1.5"/><path d="m330 590h-6.4" fill="none" stroke-width="1.5"/><path d="m330 590-3.2-5.5425" fill="none" stroke-width="1.5"/><path d="m330 590 3.2-5.5425" fill="none" stroke-width="1.5"/><path d="m350 590h6.4" fill="none" stroke-width="1.5"/><path d="m350 590 3.2 5.5425" fill="none" stroke-width="1.5"/><path d="m350 590-3.2 5.5425" fill="none" stroke-width="1.5"/><path d="m350 590h-6.4" fill="none" stroke-width="1.5"/><path d="m350 590-3.2-5.5425" fill="none" stroke-width="1.5"/><path d="m350 590 3.2-5.5425" fill="none" stroke-width="1.5"/><path d="m430 590h6.4" fill="none" stroke-width="1.5"/><path d="m430 590 3.2 5.5425" fill="none" stroke-width="1.5"/><path d="m430 590-3.2 5.5425" fill="none" stroke-width="1.5"/><path d="m430 590h-6.4" fill="none" stroke-width="1.5"/><path d="m430 590-3.2-5.5425" fill="none" stroke-width="1.5"/><path d="m430 590 3.2-5.5425" fill="none" stroke-width="1.5"/><path d="m450 590h6.4" fill="none" stroke-width="1.5"/><path d="m450 590 3.2 5.5425" fill="none" stroke-width="1.5"/><path d="m450 590-3.2 5.5425" fill="none" stroke-width="1.5"/><path d="m450 590h-6.4" fill="none" stroke-width="1.5"/><path d="m450 590-3.2-5.5425" fill="none" stroke-width="1.5"/><path d="m450 590 3.2-5.5425" fill="none" stroke-width="1.5"/><path d="m470 590h6.4" fill="none" stroke-width="1.5"/><path d="m470 590 3.2 5.5425" fill="none" stroke-width="1.5"/><path d="m470 590-3.2 5.5425" fill="none" stroke-width="1.5"/><path d="m470 590h-6.4" fill="none" stroke-width="1.5"/><path d="m470 590-3.2-5.5425" fill="none" stroke-width="1.5"/><path d="m470 590 3.2-5.5425" fill="none" stroke-width="1.5"/><path d="m0 0v640" fill="none" stroke="#b4b4b4" stroke-width="3"/><path d="m20 0v640" fill="none" stroke="#b4b4b4" stroke-width="1.5"/><path d="m40 0v640" fill="none" stroke="#b4b4b4" stroke-width="1.5"/><path d="m60 0v640" fill="none" stroke="#b4b4b4" stroke-width="1.5"/><path d="m80 0v640" fill="none" stroke="#b4b4b4" stroke-width="1.5"/><path d="m100 0v640" fill="none" stroke="#b4b4b4" stroke-width="1.5"/><path d="m120 0v640" fill="none" stroke="#b4b4b4" stroke-width="1.5"/><path d="m140 0v640" fill="none" stroke="#b4b4b4" stroke-width="1.5"/><path d="m160 0v640" fill="none" stroke="#b4b4b4" stroke-width="1.5"/><path d="m180 0v640" fill="none" stroke="#b4b4b4" stroke-width="1.5"/><path d="m200 0v640" fill="none" stroke="#b4b4b4" stroke-width="1.5"/><path d="m220 0v640" fill="none" stroke="#b4b4b4" stroke-width="1.5"/><path d="m240 0v640" fill="none" stroke="#b4b4b4" stroke-width="1.5"/><path d="m260 0v640" fill="none" stroke="#b4b4b4" stroke-width="1.5"/><path d="m280 0v640" fill="none" stroke="#b4b4b4" stroke-width="1.5"/><path d="m300 0v640" fill="none" stroke="#b4b4b4" stroke-width="1.5"/><path d="m320 0v640" fill="none" stroke="#b4b4b4" stroke-width="1.5"/><path d="m340 0v640" fill="none" stroke="#b4b4b4" stroke-width="1.5"/><path d="m360 0v640" fill="none" stroke="#b4b4b4" stroke-width="1.5"/><path d="m380 0v640" fill="none" stroke="#b4b4b4" stroke-width="1.5"/><path d="m400 0v640" fill="none" stroke="#b4b4b4" stroke-width="1.5"/><path d="m420 0v640" fill="none" stroke="#b4b4b4" stroke-width="1.5"/><path d="m440 0v640" fill="none" stroke="#b4b4b4" stroke-width="1.5"/><path d="m460 0v640" fill="none" stroke="#b4b4b4" stroke-width="1.5"/><path d="m480 0v640" fill="none" stroke="#b4b4b4" stroke-width="1.5"/><path d="m500 0v640" fill="none" stroke="#b4b4b4" stroke-width="1.5"/><path d="m520 0v640" fill="none" stroke="#b4b4b4" stroke-width="1.5"/><path d="m540 0v640" fill="none" stroke="#b4b4b4" stroke-width="1.5"/><path d="m560 0v640" fill="none" stroke="#b4b4b4" stroke-width="1.5"/><path d="m580 0v640" fill="none" stroke="#b4b4b4" stroke-width="1.5"/><path d="m600 0v640" fill="none" stroke="#b4b4b4" stroke-width="1.5"/><path d="m620 0v640" fill="none" stroke="#b4b4b4" stroke-width="1.5"/><path d="m640 0v640" fill="none" stroke="#b4b4b4" stroke-width="3"/><path d="m0 0h640" fill="none" stroke="#b4b4b4" stroke-width="3"/><path d="m0 20h640" fill="none" stroke="#b4b4b4" stroke-width="1.5"/><path d="m0 40h640" fill="none" stroke="#b4b4b4" stroke-width="1.5"/><path d="m0 60h640" fill="none" stroke="#b4b4b4" stroke-width="1.5"/><path d="m0 80h640" fill="none" stroke="#b4b4b4" stroke-width="1.5"/><path d="m0 100h640" fill="none" stroke="#b4b4b4" stroke-width="1.5"/><path d="m0 120h640" fill="none" stroke="#b4b4b4" stroke-width="1.5"/><path d="m0 140h640" fill="none" stroke="#b4b4b4" stroke-width="1.5"/><path d="m0 160h640" fill="none" stroke="#b4b4b4" stroke-width="1.5"/><path d="m0 180h640" fill="none" stroke="#b4b4b4" stroke-width="1.5"/><path d="m0 200h640" fill="none" stroke="#b4b4b4" stroke-width="1.5"/><path d="m0 220h640" fill="none" stroke="#b4b4b4" stroke-width="1.5"/><path d="m0 240h640" fill="none" stroke="#b4b4b4" stroke-width="1.5"/><path d="m0 260h640" fill="none" stroke="#b4b4b4" stroke-width="1.5"/><path d="m0 280h640" fill="none" stroke="#b4b4b4" stroke-width="1.5"/><path d="m0 300h640" fill="none" stroke="#b4b4b4" stroke-width="1.5"/><path d="m0 320h640" fill="none" stroke="#b4b4b4" stroke-width="1.5"/><path d="m0 340h640" fill="none" stroke="#b4b4b4" stroke-width="1.5"/><path d="m0 360h640" fill="none" stroke="#b4b4b4" stroke-width="1.5"/><path d="m0 380h640" fill="none" stroke="#b4b4b4" stroke-width="1.5"/><path d="m0 400h640" fill="none" stroke="#b4b4b4" stroke-width="1.5"/><path d="m0 420h640" fill="none" stroke="#b4b4b4" stroke-width="1.5"/><path d="m0 440h640" fill="none" stroke="#b4b4b4" stroke-width="1.5"/><path d="m0 460h640" fill="none" stroke="#b4b4b4" stroke-width="1.5"/><path d="m0 480h640" fill="none" stroke="#b4b4b4" stroke-width="1.5"/><path d="m0 500h640" fill="none" stroke="#b4b4b4" stroke-width="1.5"/><path d="m0 520h640" fill="none" stroke="#b4b4b4" stroke-width="1.5"/><path d="m0 540h640" fill="none" stroke="#b4b4b4" stroke-width="1.5"/><path d="m0 560h640" fill="none" stroke="#b4b4b4" stroke-width="1.5"/><path d="m0 580h640" fill="none" stroke="#b4b4b4" stroke-width="1.5"/><path d="m0 600h640" fill="none" stroke="#b4b4b4" stroke-width="1.5"/><path d="m0 620h640" fill="none" stroke="#b4b4b4" stroke-width="1.5"/><path d="m0 640h640" fill="none" stroke="#b4b4b4" stroke-width="3"/></g></g></svg>