<svg xmlns:xlink="http://www.w3.org/1999/xlink" style="fill-opacity:1;color-rendering:auto;color-interpolation:auto;text-rendering:auto;stroke:#000;stroke-linecap:square;stroke-miterlimit:10;shape-rendering:auto;stroke-opacity:1;fill:#000;stroke-dasharray:none;font-weight:400;stroke-width:1;font-family:&quot;Dialog&quot;;font-style:normal;stroke-linejoin:miter;font-size:12px;stroke-dashoffset:0;image-rendering:auto" width="640" height="640" xmlns="http://www.w3.org/2000/svg"><defs/><g style="stroke-linecap:round;stroke-width:2"><circle r="6.4" style="fill:none" cx="190" cy="90"/></g><g style="stroke-linecap:round;stroke-width:2"><circle r="6.4" style="fill:none" cx="210" cy="90"/><circle r="6.4" style="fill:none" cx="230" cy="90"/><circle r="6.4" style="fill:none" cx="390" cy="90"/><circle r="6.4" style="fill:none" cx="410" cy="90"/><circle r="6.4" style="fill:none" cx="170" cy="110"/><path style="stroke-width:1;stroke:none" d="M183.6 103.6h12.8v12.8h-12.8zm20 0h12.8v12.8h-12.8zm20 0h12.8v12.8h-12.8z"/><circle r="6.4" style="fill:none" cx="250" cy="110"/><circle r="6.4" style="fill:none" cx="270" cy="110"/><circle r="6.4" style="fill:none" cx="370" cy="110"/><path style="stroke-width:1;stroke:none" d="M383.6 103.6h12.8v12.8h-12.8z"/><path style="fill:none;stroke-width:1.5" d="M410 110h6.4m-6.4 0 3.2 5.543M410 110l-3.2 5.543M410 110h-6.4m6.4 0-3.2-5.543M410 110l3.2-5.543"/><circle r="6.4" style="fill:none" cx="430" cy="110"/><circle r="6.4" style="fill:none" cx="150" cy="130"/><path style="fill:none;stroke-width:1.5" d="M170 130h6.4m-6.4 0 3.2 5.543M170 130l-3.2 5.543M170 130h-6.4m6.4 0-3.2-5.543M170 130l3.2-5.543M190 130h6.4m-6.4 0 3.2 5.543M190 130l-3.2 5.543M190 130h-6.4m6.4 0-3.2-5.543M190 130l3.2-5.543M210 130h6.4m-6.4 0 3.2 5.543M210 130l-3.2 5.543M210 130h-6.4m6.4 0-3.2-5.543M210 130l3.2-5.543M230 130h6.4m-6.4 0 3.2 5.543M230 130l-3.2 5.543M230 130h-6.4m6.4 0-3.2-5.543M230 130l3.2-5.543"/><path style="stroke-width:1;stroke:none" d="M243.6 123.6h12.8v12.8h-12.8zm20 0h12.8v12.8h-12.8z"/><circle r="6.4" style="fill:none" cx="290" cy="130"/><circle r="6.4" style="fill:none" cx="370" cy="130"/><path style="stroke-width:1;stroke:none" d="M383.6 123.6h12.8v12.8h-12.8z"/><path style="fill:none;stroke-width:1.5" d="M410 130h6.4m-6.4 0 3.2 5.543M410 130l-3.2 5.543M410 130h-6.4m6.4 0-3.2-5.543M410 130l3.2-5.543"/><circle r="6.4" style="fill:none" cx="430" cy="130"/><circle r="6.4" style="fill:none" cx="490" cy="130"/><circle r="6.4" style="fill:none" cx="510" cy="130"/><circle r="6.4" style="fill:none" cx="530" cy="130"/><circle r="6.4" style="fill:none" cx="110" cy="150"/><path style="stroke-width:1;stroke:none" d="M123.6 143.6h12.8v12.8h-12.8zm20 0h12.8v12.8h-12.8zm20 0h12.8v12.8h-12.8zm20 0h12.8v12.8h-12.8z"/><path style="fill:none;stroke-width:1.5" d="M210 150h6.4m-6.4 0 3.2 5.543M210 150l-3.2 5.543M210 150h-6.4m6.4 0-3.2-5.543M210 150l3.2-5.543M230 150h6.4m-6.4 0 3.2 5.543M230 150l-3.2 5.543M230 150h-6.4m6.4 0-3.2-5.543M230 150l3.2-5.543M250 150h6.4m-6.4 0 3.2 5.543M250 150l-3.2 5.543M250 150h-6.4m6.4 0-3.2-5.543M250 150l3.2-5.543M270 150h6.4m-6.4 0 3.2 5.543M270 150l-3.2 5.543M270 150h-6.4m6.4 0-3.2-5.543M270 150l3.2-5.543"/><path style="stroke-width:1;stroke:none" d="M283.6 143.6h12.8v12.8h-12.8z"/><circle r="6.4" style="fill:none" cx="310" cy="150"/><circle r="6.4" style="fill:none" cx="350" cy="150"/><path style="stroke-width:1;stroke:none" d="M363.6 143.6h12.8v12.8h-12.8z"/><path style="fill:none;stroke-width:1.5" d="M390 150h6.4m-6.4 0 3.2 5.543M390 150l-3.2 5.543M390 150h-6.4m6.4 0-3.2-5.543M390 150l3.2-5.543M410 150h6.4m-6.4 0 3.2 5.543M410 150l-3.2 5.543M410 150h-6.4m6.4 0-3.2-5.543M410 150l3.2-5.543M430 150h6.4m-6.4 0 3.2 5.543M430 150l-3.2 5.543M430 150h-6.4m6.4 0-3.2-5.543M430 150l3.2-5.543"/><circle r="6.4" style="fill:none" cx="450" cy="150"/><circle r="6.4" style="fill:none" cx="470" cy="150"/><path style="fill:none;stroke-width:1.5" d="M490 150h6.4m-6.4 0 3.2 5.543M490 150l-3.2 5.543M490 150h-6.4m6.4 0-3.2-5.543M490 150l3.2-5.543M510 150h6.4m-6.4 0 3.2 5.543M510 150l-3.2 5.543M510 150h-6.4m6.4 0-3.2-5.543M510 150l3.2-5.543M530 150h6.4m-6.4 0 3.2 5.543M530 150l-3.2 5.543M530 150h-6.4m6.4 0-3.2-5.543M530 150l3.2-5.543"/><circle r="6.4" style="fill:none" cx="550" cy="150"/><circle r="6.4" style="fill:none" cx="90" cy="170"/><path style="fill:none;stroke-width:1.5" d="M110 170h6.4m-6.4 0 3.2 5.543M110 170l-3.2 5.543M110 170h-6.4m6.4 0-3.2-5.543M110 170l3.2-5.543M130 170h6.4m-6.4 0 3.2 5.543M130 170l-3.2 5.543M130 170h-6.4m6.4 0-3.2-5.543M130 170l3.2-5.543M150 170h6.4m-6.4 0 3.2 5.543M150 170l-3.2 5.543M150 170h-6.4m6.4 0-3.2-5.543M150 170l3.2-5.543M170 170h6.4m-6.4 0 3.2 5.543M170 170l-3.2 5.543M170 170h-6.4m6.4 0-3.2-5.543M170 170l3.2-5.543M190 170h6.4m-6.4 0 3.2 5.543M190 170l-3.2 5.543M190 170h-6.4m6.4 0-3.2-5.543M190 170l3.2-5.543"/><path style="stroke-width:1;stroke:none" d="M203.6 163.6h12.8v12.8h-12.8zm20 0h12.8v12.8h-12.8zm20 0h12.8v12.8h-12.8z"/><path style="fill:none;stroke-width:1.5" d="M270 170h6.4m-6.4 0 3.2 5.543M270 170l-3.2 5.543M270 170h-6.4m6.4 0-3.2-5.543M270 170l3.2-5.543M290 170h6.4m-6.4 0 3.2 5.543M290 170l-3.2 5.543M290 170h-6.4m6.4 0-3.2-5.543M290 170l3.2-5.543"/><path style="stroke-width:1;stroke:none" d="M303.6 163.6h12.8v12.8h-12.8z"/><circle r="6.4" style="fill:none" cx="330" cy="170"/><circle r="6.4" style="fill:none" cx="350" cy="170"/><path style="stroke-width:1;stroke:none" d="M363.6 163.6h12.8v12.8h-12.8z"/><path style="fill:none;stroke-width:1.5" d="M390 170h6.4m-6.4 0 3.2 5.543M390 170l-3.2 5.543M390 170h-6.4m6.4 0-3.2-5.543M390 170l3.2-5.543M410 170h6.4m-6.4 0 3.2 5.543M410 170l-3.2 5.543M410 170h-6.4m6.4 0-3.2-5.543M410 170l3.2-5.543"/><path style="stroke-width:1;stroke:none" d="M423.6 163.6h12.8v12.8h-12.8z"/><path style="fill:none;stroke-width:1.5" d="M450 170h6.4m-6.4 0 3.2 5.543M450 170l-3.2 5.543M450 170h-6.4m6.4 0-3.2-5.543M450 170l3.2-5.543M470 170h6.4m-6.4 0 3.2 5.543M470 170l-3.2 5.543M470 170h-6.4m6.4 0-3.2-5.543M470 170l3.2-5.543M490 170h6.4m-6.4 0 3.2 5.543M490 170l-3.2 5.543M490 170h-6.4m6.4 0-3.2-5.543M490 170l3.2-5.543M510 170h6.4m-6.4 0 3.2 5.543M510 170l-3.2 5.543M510 170h-6.4m6.4 0-3.2-5.543M510 170l3.2-5.543M530 170h6.4m-6.4 0 3.2 5.543M530 170l-3.2 5.543M530 170h-6.4m6.4 0-3.2-5.543M530 170l3.2-5.543"/><circle r="6.4" style="fill:none" cx="550" cy="170"/><circle r="6.4" style="fill:none" cx="90" cy="190"/><path style="fill:none;stroke-width:1.5" d="M110 190h6.4m-6.4 0 3.2 5.543M110 190l-3.2 5.543M110 190h-6.4m6.4 0-3.2-5.543M110 190l3.2-5.543M130 190h6.4m-6.4 0 3.2 5.543M130 190l-3.2 5.543M130 190h-6.4m6.4 0-3.2-5.543M130 190l3.2-5.543M150 190h6.4m-6.4 0 3.2 5.543M150 190l-3.2 5.543M150 190h-6.4m6.4 0-3.2-5.543M150 190l3.2-5.543M170 190h6.4m-6.4 0 3.2 5.543M170 190l-3.2 5.543M170 190h-6.4m6.4 0-3.2-5.543M170 190l3.2-5.543M190 190h6.4m-6.4 0 3.2 5.543M190 190l-3.2 5.543M190 190h-6.4m6.4 0-3.2-5.543M190 190l3.2-5.543M210 190h6.4m-6.4 0 3.2 5.543M210 190l-3.2 5.543M210 190h-6.4m6.4 0-3.2-5.543M210 190l3.2-5.543M230 190h6.4m-6.4 0 3.2 5.543M230 190l-3.2 5.543M230 190h-6.4m6.4 0-3.2-5.543M230 190l3.2-5.543M250 190h6.4m-6.4 0 3.2 5.543M250 190l-3.2 5.543M250 190h-6.4m6.4 0-3.2-5.543M250 190l3.2-5.543"/><path style="stroke-width:1;stroke:none" d="M263.6 183.6h12.8v12.8h-12.8zm20 0h12.8v12.8h-12.8z"/><path style="fill:none;stroke-width:1.5" d="M310 190h6.4m-6.4 0 3.2 5.543M310 190l-3.2 5.543M310 190h-6.4m6.4 0-3.2-5.543M310 190l3.2-5.543"/><circle r="6.4" style="fill:none" cx="330" cy="190"/><path style="stroke-width:1;stroke:none" d="M343.6 183.6h12.8v12.8h-12.8z"/><path style="fill:none;stroke-width:1.5" d="M370 190h6.4m-6.4 0 3.2 5.543M370 190l-3.2 5.543M370 190h-6.4m6.4 0-3.2-5.543M370 190l3.2-5.543M390 190h6.4m-6.4 0 3.2 5.543M390 190l-3.2 5.543M390 190h-6.4m6.4 0-3.2-5.543M390 190l3.2-5.543"/><path style="stroke-width:1;stroke:none" d="M403.6 183.6h12.8v12.8h-12.8z"/><path style="fill:none;stroke-width:1.5" d="M430 190h6.4m-6.4 0 3.2 5.543M430 190l-3.2 5.543M430 190h-6.4m6.4 0-3.2-5.543M430 190l3.2-5.543M450 190h6.4m-6.4 0 3.2 5.543M450 190l-3.2 5.543M450 190h-6.4m6.4 0-3.2-5.543M450 190l3.2-5.543M470 190h6.4m-6.4 0 3.2 5.543M470 190l-3.2 5.543M470 190h-6.4m6.4 0-3.2-5.543M470 190l3.2-5.543M490 190h6.4m-6.4 0 3.2 5.543M490 190l-3.2 5.543M490 190h-6.4m6.4 0-3.2-5.543M490 190l3.2-5.543M510 190h6.4m-6.4 0 3.2 5.543M510 190l-3.2 5.543M510 190h-6.4m6.4 0-3.2-5.543M510 190l3.2-5.543M530 190h6.4m-6.4 0 3.2 5.543M530 190l-3.2 5.543M530 190h-6.4m6.4 0-3.2-5.543M530 190l3.2-5.543"/><circle r="6.4" style="fill:none" cx="550" cy="190"/><circle r="6.4" style="fill:none" cx="90" cy="210"/><path style="fill:none;stroke-width:1.5" d="M110 210h6.4m-6.4 0 3.2 5.543M110 210l-3.2 5.543M110 210h-6.4m6.4 0-3.2-5.543M110 210l3.2-5.543M130 210h6.4m-6.4 0 3.2 5.543M130 210l-3.2 5.543M130 210h-6.4m6.4 0-3.2-5.543M130 210l3.2-5.543M150 210h6.4m-6.4 0 3.2 5.543M150 210l-3.2 5.543M150 210h-6.4m6.4 0-3.2-5.543M150 210l3.2-5.543M170 210h6.4m-6.4 0 3.2 5.543M170 210l-3.2 5.543M170 210h-6.4m6.4 0-3.2-5.543M170 210l3.2-5.543M190 210h6.4m-6.4 0 3.2 5.543M190 210l-3.2 5.543M190 210h-6.4m6.4 0-3.2-5.543M190 210l3.2-5.543M210 210h6.4m-6.4 0 3.2 5.543M210 210l-3.2 5.543M210 210h-6.4m6.4 0-3.2-5.543M210 210l3.2-5.543M230 210h6.4m-6.4 0 3.2 5.543M230 210l-3.2 5.543M230 210h-6.4m6.4 0-3.2-5.543M230 210l3.2-5.543M250 210h6.4m-6.4 0 3.2 5.543M250 210l-3.2 5.543M250 210h-6.4m6.4 0-3.2-5.543M250 210l3.2-5.543M270 210h6.4m-6.4 0 3.2 5.543M270 210l-3.2 5.543M270 210h-6.4m6.4 0-3.2-5.543M270 210l3.2-5.543M290 210h6.4m-6.4 0 3.2 5.543M290 210l-3.2 5.543M290 210h-6.4m6.4 0-3.2-5.543M290 210l3.2-5.543"/><path style="stroke-width:1;stroke:none" d="M303.6 203.6h12.8v12.8h-12.8z"/><circle r="6.4" style="fill:none" cx="330" cy="210"/><path style="fill:none;stroke-width:1.5" d="M350 210h6.4m-6.4 0 3.2 5.543M350 210l-3.2 5.543M350 210h-6.4m6.4 0-3.2-5.543M350 210l3.2-5.543M370 210h6.4m-6.4 0 3.2 5.543M370 210l-3.2 5.543M370 210h-6.4m6.4 0-3.2-5.543M370 210l3.2-5.543"/><path style="stroke-width:1;stroke:none" d="M383.6 203.6h12.8v12.8h-12.8z"/><path style="fill:none;stroke-width:1.5" d="M410 210h6.4m-6.4 0 3.2 5.543M410 210l-3.2 5.543M410 210h-6.4m6.4 0-3.2-5.543M410 210l3.2-5.543M430 210h6.4m-6.4 0 3.2 5.543M430 210l-3.2 5.543M430 210h-6.4m6.4 0-3.2-5.543M430 210l3.2-5.543M450 210h6.4m-6.4 0 3.2 5.543M450 210l-3.2 5.543M450 210h-6.4m6.4 0-3.2-5.543M450 210l3.2-5.543M470 210h6.4m-6.4 0 3.2 5.543M470 210l-3.2 5.543M470 210h-6.4m6.4 0-3.2-5.543M470 210l3.2-5.543M490 210h6.4m-6.4 0 3.2 5.543M490 210l-3.2 5.543M490 210h-6.4m6.4 0-3.2-5.543M490 210l3.2-5.543M510 210h6.4m-6.4 0 3.2 5.543M510 210l-3.2 5.543M510 210h-6.4m6.4 0-3.2-5.543M510 210l3.2-5.543"/><circle r="6.4" style="fill:none" cx="530" cy="210"/><circle r="6.4" style="fill:none" cx="110" cy="230"/><path style="fill:none;stroke-width:1.5" d="M130 230h6.4m-6.4 0 3.2 5.543M130 230l-3.2 5.543M130 230h-6.4m6.4 0-3.2-5.543M130 230l3.2-5.543M150 230h6.4m-6.4 0 3.2 5.543M150 230l-3.2 5.543M150 230h-6.4m6.4 0-3.2-5.543M150 230l3.2-5.543M170 230h6.4m-6.4 0 3.2 5.543M170 230l-3.2 5.543M170 230h-6.4m6.4 0-3.2-5.543M170 230l3.2-5.543M190 230h6.4m-6.4 0 3.2 5.543M190 230l-3.2 5.543M190 230h-6.4m6.4 0-3.2-5.543M190 230l3.2-5.543M210 230h6.4m-6.4 0 3.2 5.543M210 230l-3.2 5.543M210 230h-6.4m6.4 0-3.2-5.543M210 230l3.2-5.543M230 230h6.4m-6.4 0 3.2 5.543M230 230l-3.2 5.543M230 230h-6.4m6.4 0-3.2-5.543M230 230l3.2-5.543M250 230h6.4m-6.4 0 3.2 5.543M250 230l-3.2 5.543M250 230h-6.4m6.4 0-3.2-5.543M250 230l3.2-5.543M270 230h6.4m-6.4 0 3.2 5.543M270 230l-3.2 5.543M270 230h-6.4m6.4 0-3.2-5.543M270 230l3.2-5.543M290 230h6.4m-6.4 0 3.2 5.543M290 230l-3.2 5.543M290 230h-6.4m6.4 0-3.2-5.543M290 230l3.2-5.543M310 230h6.4m-6.4 0 3.2 5.543M310 230l-3.2 5.543M310 230h-6.4m6.4 0-3.2-5.543M310 230l3.2-5.543M330 230h6.4m-6.4 0 3.2 5.543M330 230l-3.2 5.543M330 230h-6.4m6.4 0-3.2-5.543M330 230l3.2-5.543M350 230h6.4m-6.4 0 3.2 5.543M350 230l-3.2 5.543M350 230h-6.4m6.4 0-3.2-5.543M350 230l3.2-5.543M370 230h6.4m-6.4 0 3.2 5.543M370 230l-3.2 5.543M370 230h-6.4m6.4 0-3.2-5.543M370 230l3.2-5.543M390 230h6.4m-6.4 0 3.2 5.543M390 230l-3.2 5.543M390 230h-6.4m6.4 0-3.2-5.543M390 230l3.2-5.543M410 230h6.4m-6.4 0 3.2 5.543M410 230l-3.2 5.543M410 230h-6.4m6.4 0-3.2-5.543M410 230l3.2-5.543M430 230h6.4m-6.4 0 3.2 5.543M430 230l-3.2 5.543M430 230h-6.4m6.4 0-3.2-5.543M430 230l3.2-5.543M450 230h6.4m-6.4 0 3.2 5.543M450 230l-3.2 5.543M450 230h-6.4m6.4 0-3.2-5.543M450 230l3.2-5.543M470 230h6.4m-6.4 0 3.2 5.543M470 230l-3.2 5.543M470 230h-6.4m6.4 0-3.2-5.543M470 230l3.2-5.543M490 230h6.4m-6.4 0 3.2 5.543M490 230l-3.2 5.543M490 230h-6.4m6.4 0-3.2-5.543M490 230l3.2-5.543M510 230h6.4m-6.4 0 3.2 5.543M510 230l-3.2 5.543M510 230h-6.4m6.4 0-3.2-5.543M510 230l3.2-5.543"/><circle r="6.4" style="fill:none" cx="530" cy="230"/><circle r="6.4" style="fill:none" cx="130" cy="250"/><circle r="6.4" style="fill:none" cx="150" cy="250"/><path style="fill:none;stroke-width:1.5" d="M170 250h6.4m-6.4 0 3.2 5.543M170 250l-3.2 5.543M170 250h-6.4m6.4 0-3.2-5.543M170 250l3.2-5.543M190 250h6.4m-6.4 0 3.2 5.543M190 250l-3.2 5.543M190 250h-6.4m6.4 0-3.2-5.543M190 250l3.2-5.543M210 250h6.4m-6.4 0 3.2 5.543M210 250l-3.2 5.543M210 250h-6.4m6.4 0-3.2-5.543M210 250l3.2-5.543M230 250h6.4m-6.4 0 3.2 5.543M230 250l-3.2 5.543M230 250h-6.4m6.4 0-3.2-5.543M230 250l3.2-5.543M250 250h6.4m-6.4 0 3.2 5.543M250 250l-3.2 5.543M250 250h-6.4m6.4 0-3.2-5.543M250 250l3.2-5.543M270 250h6.4m-6.4 0 3.2 5.543M270 250l-3.2 5.543M270 250h-6.4m6.4 0-3.2-5.543M270 250l3.2-5.543M290 250h6.4m-6.4 0 3.2 5.543M290 250l-3.2 5.543M290 250h-6.4m6.4 0-3.2-5.543M290 250l3.2-5.543M310 250h6.4m-6.4 0 3.2 5.543M310 250l-3.2 5.543M310 250h-6.4m6.4 0-3.2-5.543M310 250l3.2-5.543M330 250h6.4m-6.4 0 3.2 5.543M330 250l-3.2 5.543M330 250h-6.4m6.4 0-3.2-5.543M330 250l3.2-5.543M350 250h6.4m-6.4 0 3.2 5.543M350 250l-3.2 5.543M350 250h-6.4m6.4 0-3.2-5.543M350 250l3.2-5.543M370 250h6.4m-6.4 0 3.2 5.543M370 250l-3.2 5.543M370 250h-6.4m6.4 0-3.2-5.543M370 250l3.2-5.543M390 250h6.4m-6.4 0 3.2 5.543M390 250l-3.2 5.543M390 250h-6.4m6.4 0-3.2-5.543M390 250l3.2-5.543M410 250h6.4m-6.4 0 3.2 5.543M410 250l-3.2 5.543M410 250h-6.4m6.4 0-3.2-5.543M410 250l3.2-5.543M430 250h6.4m-6.4 0 3.2 5.543M430 250l-3.2 5.543M430 250h-6.4m6.4 0-3.2-5.543M430 250l3.2-5.543M450 250h6.4m-6.4 0 3.2 5.543M450 250l-3.2 5.543M450 250h-6.4m6.4 0-3.2-5.543M450 250l3.2-5.543M470 250h6.4m-6.4 0 3.2 5.543M470 250l-3.2 5.543M470 250h-6.4m6.4 0-3.2-5.543M470 250l3.2-5.543M490 250h6.4m-6.4 0 3.2 5.543M490 250l-3.2 5.543M490 250h-6.4m6.4 0-3.2-5.543M490 250l3.2-5.543"/><circle r="6.4" style="fill:none" cx="510" cy="250"/><circle r="6.4" style="fill:none" cx="170" cy="270"/><circle r="6.4" style="fill:none" cx="190" cy="270"/><path style="fill:none;stroke-width:1.5" d="M210 270h6.4m-6.4 0 3.2 5.543M210 270l-3.2 5.543M210 270h-6.4m6.4 0-3.2-5.543M210 270l3.2-5.543M230 270h6.4m-6.4 0 3.2 5.543M230 270l-3.2 5.543M230 270h-6.4m6.4 0-3.2-5.543M230 270l3.2-5.543M250 270h6.4m-6.4 0 3.2 5.543M250 270l-3.2 5.543M250 270h-6.4m6.4 0-3.2-5.543M250 270l3.2-5.543M270 270h6.4m-6.4 0 3.2 5.543M270 270l-3.2 5.543M270 270h-6.4m6.4 0-3.2-5.543M270 270l3.2-5.543M290 270h6.4m-6.4 0 3.2 5.543M290 270l-3.2 5.543M290 270h-6.4m6.4 0-3.2-5.543M290 270l3.2-5.543M310 270h6.4m-6.4 0 3.2 5.543M310 270l-3.2 5.543M310 270h-6.4m6.4 0-3.2-5.543M310 270l3.2-5.543M330 270h6.4m-6.4 0 3.2 5.543M330 270l-3.2 5.543M330 270h-6.4m6.4 0-3.2-5.543M330 270l3.2-5.543M350 270h6.4m-6.4 0 3.2 5.543M350 270l-3.2 5.543M350 270h-6.4m6.4 0-3.2-5.543M350 270l3.2-5.543M370 270h6.4m-6.4 0 3.2 5.543M370 270l-3.2 5.543M370 270h-6.4m6.4 0-3.2-5.543M370 270l3.2-5.543M390 270h6.4m-6.4 0 3.2 5.543M390 270l-3.2 5.543M390 270h-6.4m6.4 0-3.2-5.543M390 270l3.2-5.543M410 270h6.4m-6.4 0 3.2 5.543M410 270l-3.2 5.543M410 270h-6.4m6.4 0-3.2-5.543M410 270l3.2-5.543M430 270h6.4m-6.4 0 3.2 5.543M430 270l-3.2 5.543M430 270h-6.4m6.4 0-3.2-5.543M430 270l3.2-5.543M450 270h6.4m-6.4 0 3.2 5.543M450 270l-3.2 5.543M450 270h-6.4m6.4 0-3.2-5.543M450 270l3.2-5.543M470 270h6.4m-6.4 0 3.2 5.543M470 270l-3.2 5.543M470 270h-6.4m6.4 0-3.2-5.543M470 270l3.2-5.543"/><circle r="6.4" style="fill:none" cx="490" cy="270"/><circle r="6.4" style="fill:none" cx="210" cy="290"/><circle r="6.4" style="fill:none" cx="230" cy="290"/><path style="fill:none;stroke-width:1.5" d="M250 290h6.4m-6.4 0 3.2 5.543M250 290l-3.2 5.543M250 290h-6.4m6.4 0-3.2-5.543M250 290l3.2-5.543M270 290h6.4m-6.4 0 3.2 5.543M270 290l-3.2 5.543M270 290h-6.4m6.4 0-3.2-5.543M270 290l3.2-5.543M290 290h6.4m-6.4 0 3.2 5.543M290 290l-3.2 5.543M290 290h-6.4m6.4 0-3.2-5.543M290 290l3.2-5.543M310 290h6.4m-6.4 0 3.2 5.543M310 290l-3.2 5.543M310 290h-6.4m6.4 0-3.2-5.543M310 290l3.2-5.543M330 290h6.4m-6.4 0 3.2 5.543M330 290l-3.2 5.543M330 290h-6.4m6.4 0-3.2-5.543M330 290l3.2-5.543M350 290h6.4m-6.4 0 3.2 5.543M350 290l-3.2 5.543M350 290h-6.4m6.4 0-3.2-5.543M350 290l3.2-5.543M370 290h6.4m-6.4 0 3.2 5.543M370 290l-3.2 5.543M370 290h-6.4m6.4 0-3.2-5.543M370 290l3.2-5.543M390 290h6.4m-6.4 0 3.2 5.543M390 290l-3.2 5.543M390 290h-6.4m6.4 0-3.2-5.543M390 290l3.2-5.543M410 290h6.4m-6.4 0 3.2 5.543M410 290l-3.2 5.543M410 290h-6.4m6.4 0-3.2-5.543M410 290l3.2-5.543M430 290h6.4m-6.4 0 3.2 5.543M430 290l-3.2 5.543M430 290h-6.4m6.4 0-3.2-5.543M430 290l3.2-5.543M450 290h6.4m-6.4 0 3.2 5.543M450 290l-3.2 5.543M450 290h-6.4m6.4 0-3.2-5.543M450 290l3.2-5.543"/><circle r="6.4" style="fill:none" cx="470" cy="290"/><path style="fill:none" d="m183.6 303.6 12.8 12.8m-12.8 0 12.8-12.8m7.2 0 12.8 12.8m-12.8 0 12.8-12.8m8.8 6.4h9.6m-4.8-4.8v9.6"/><circle r="6.4" style="fill:none" cx="250" cy="310"/><circle r="6.4" style="fill:none" cx="270" cy="310"/><circle r="6.4" style="fill:none" cx="290" cy="310"/><circle r="6.4" style="fill:none" cx="310" cy="310"/><path style="fill:none;stroke-width:1.5" d="M330 310h6.4m-6.4 0 3.2 5.543M330 310l-3.2 5.543M330 310h-6.4m6.4 0-3.2-5.543M330 310l3.2-5.543M350 310h6.4m-6.4 0 3.2 5.543M350 310l-3.2 5.543M350 310h-6.4m6.4 0-3.2-5.543M350 310l3.2-5.543"/><circle r="6.4" style="fill:none" cx="370" cy="310"/><path style="fill:none;stroke-width:1.5" d="M390 310h6.4m-6.4 0 3.2 5.543M390 310l-3.2 5.543M390 310h-6.4m6.4 0-3.2-5.543M390 310l3.2-5.543M410 310h6.4m-6.4 0 3.2 5.543M410 310l-3.2 5.543M410 310h-6.4m6.4 0-3.2-5.543M410 310l3.2-5.543"/><circle r="6.4" style="fill:none" cx="430" cy="310"/><path style="fill:none" d="m443.6 303.6 12.8 12.8m-12.8 0 12.8-12.8m-292.8 20 12.8 12.8m-12.8 0 12.8-12.8m8.8 6.4h9.6m-4.8-4.8v9.6m15.2-4.8h9.6m-4.8-4.8v9.6m15.2-4.8h9.6m-4.8-4.8v9.6m15.2-4.8h9.6m-4.8-4.8v9.6m15.2-4.8h9.6m-4.8-4.8v9.6m15.2-4.8h9.6m-4.8-4.8v9.6m15.2-4.8h9.6m-4.8-4.8v9.6m15.2-4.8h9.6m-4.8-4.8v9.6m15.2-4.8h9.6m-4.8-4.8v9.6m15.2-4.8h9.6m-4.8-4.8v9.6m15.2-4.8h9.6m-4.8-4.8v9.6m15.2-4.8h9.6m-4.8-4.8v9.6m15.2-4.8h9.6m-4.8-4.8v9.6m15.2-4.8h9.6m-4.8-4.8v9.6m13.6-11.2 12.8 12.8m-12.8 0 12.8-12.8m-332.8 20 12.8 12.8m-12.8 0 12.8-12.8m8.8 6.4h9.6m-4.8-4.8v9.6m15.2-4.8h9.6m-4.8-4.8v9.6m15.2-4.8h9.6m-4.8-4.8v9.6m15.2-4.8h9.6m-4.8-4.8v9.6m15.2-4.8h9.6m-4.8-4.8v9.6m15.2-4.8h9.6m-4.8-4.8v9.6m15.2-4.8h9.6m-4.8-4.8v9.6m15.2-4.8h9.6m-4.8-4.8v9.6m15.2-4.8h9.6m-4.8-4.8v9.6m15.2-4.8h9.6m-4.8-4.8v9.6m15.2-4.8h9.6m-4.8-4.8v9.6m15.2-4.8h9.6m-4.8-4.8v9.6m15.2-4.8h9.6m-4.8-4.8v9.6m15.2-4.8h9.6m-4.8-4.8v9.6m15.2-4.8h9.6m-4.8-4.8v9.6m15.2-4.8h9.6m-4.8-4.8v9.6m13.6-11.2 12.8 12.8m-12.8 0 12.8-12.8m-352.8 20 12.8 12.8m-12.8 0 12.8-12.8m8.8 6.4h9.6m-4.8-4.8v9.6m15.2-4.8h9.6m-4.8-4.8v9.6m15.2-4.8h9.6m-4.8-4.8v9.6m15.2-4.8h9.6m-4.8-4.8v9.6m15.2-4.8h9.6m-4.8-4.8v9.6m15.2-4.8h9.6m-4.8-4.8v9.6m15.2-4.8h9.6m-4.8-4.8v9.6m15.2-4.8h9.6m-4.8-4.8v9.6m15.2-4.8h9.6m-4.8-4.8v9.6m15.2-4.8h9.6m-4.8-4.8v9.6m15.2-4.8h9.6m-4.8-4.8v9.6m15.2-4.8h9.6m-4.8-4.8v9.6m15.2-4.8h9.6m-4.8-4.8v9.6m15.2-4.8h9.6m-4.8-4.8v9.6m15.2-4.8h9.6m-4.8-4.8v9.6m15.2-4.8h9.6m-4.8-4.8v9.6m13.6-11.2 12.8 12.8m-12.8 0 12.8-12.8m-372.8 20 12.8 12.8m-12.8 0 12.8-12.8m8.8 6.4h9.6m-4.8-4.8v9.6m15.2-4.8h9.6m-4.8-4.8v9.6m15.2-4.8h9.6m-4.8-4.8v9.6m15.2-4.8h9.6m-4.8-4.8v9.6m15.2-4.8h9.6m-4.8-4.8v9.6m15.2-4.8h9.6m-4.8-4.8v9.6m15.2-4.8h9.6m-4.8-4.8v9.6m15.2-4.8h9.6m-4.8-4.8v9.6m15.2-4.8h9.6m-4.8-4.8v9.6m15.2-4.8h9.6m-4.8-4.8v9.6m15.2-4.8h9.6m-4.8-4.8v9.6"/><path d="m370 383.6 6.4 6.4-6.4 6.4-6.4-6.4Zm20 0 6.4 6.4-6.4 6.4-6.4-6.4Z" style="stroke-width:1;stroke:none"/><path style="fill:none" d="M405.2 390h9.6m-4.8-4.8v9.6m15.2-4.8h9.6m-4.8-4.8v9.6m15.2-4.8h9.6m-4.8-4.8v9.6"/><path d="m470 383.6 6.4 6.4-6.4 6.4-6.4-6.4Z" style="stroke-width:1;stroke:none"/><path style="fill:none" d="M485.2 390h9.6m-4.8-4.8v9.6m13.6-11.2 12.8 12.8m-12.8 0 12.8-12.8m-392.8 20 12.8 12.8m-12.8 0 12.8-12.8m8.8 6.4h9.6m-4.8-4.8v9.6m15.2-4.8h9.6m-4.8-4.8v9.6m15.2-4.8h9.6m-4.8-4.8v9.6m15.2-4.8h9.6m-4.8-4.8v9.6m15.2-4.8h9.6m-4.8-4.8v9.6m15.2-4.8h9.6m-4.8-4.8v9.6m15.2-4.8h9.6m-4.8-4.8v9.6m15.2-4.8h9.6m-4.8-4.8v9.6m15.2-4.8h9.6m-4.8-4.8v9.6m15.2-4.8h9.6m-4.8-4.8v9.6m15.2-4.8h9.6m-4.8-4.8v9.6"/><path d="m370 404.21-6.4 11.085h12.8Zm20-.61 6.4 6.4-6.4 6.4-6.4-6.4Zm20 0 6.4 6.4-6.4 6.4-6.4-6.4Z" style="stroke-width:1;stroke:none"/><path style="fill:none" d="M425.2 410h9.6m-4.8-4.8v9.6m15.2-4.8h9.6m-4.8-4.8v9.6"/><path d="m470 404.21-6.4 11.085h12.8Zm20-.61 6.4 6.4-6.4 6.4-6.4-6.4Z" style="stroke-width:1;stroke:none"/><path style="fill:none" d="m503.6 403.6 12.8 12.8m-12.8 0 12.8-12.8m-392.8 20 12.8 12.8m-12.8 0 12.8-12.8m8.8 6.4h9.6m-4.8-4.8v9.6m15.2-4.8h9.6m-4.8-4.8v9.6m15.2-4.8h9.6m-4.8-4.8v9.6m15.2-4.8h9.6m-4.8-4.8v9.6m15.2-4.8h9.6m-4.8-4.8v9.6m15.2-4.8h9.6m-4.8-4.8v9.6m15.2-4.8h9.6m-4.8-4.8v9.6m15.2-4.8h9.6m-4.8-4.8v9.6m15.2-4.8h9.6m-4.8-4.8v9.6m15.2-4.8h9.6m-4.8-4.8v9.6m15.2-4.8h9.6m-4.8-4.8v9.6"/><path d="m370 423.6 6.4 6.4-6.4 6.4-6.4-6.4Zm20 0 6.4 6.4-6.4 6.4-6.4-6.4Z" style="stroke-width:1;stroke:none"/><path style="fill:none" d="M405.2 430h9.6m-4.8-4.8v9.6m15.2-4.8h9.6m-4.8-4.8v9.6m15.2-4.8h9.6m-4.8-4.8v9.6"/><path d="m470 423.6 6.4 6.4-6.4 6.4-6.4-6.4Z" style="stroke-width:1;stroke:none"/><path style="fill:none" d="M485.2 430h9.6m-4.8-4.8v9.6m13.6-11.2 12.8 12.8m-12.8 0 12.8-12.8m-392.8 20 12.8 12.8m-12.8 0 12.8-12.8"/><path d="m150 443.6 1.88 3.811 4.207.611-3.044 2.967.719 4.189L150 453.2l-3.762 1.978.719-4.19-3.044-2.966 4.206-.61Z" style="stroke-width:1;stroke:none"/><path style="fill:none" d="M165.2 450h9.6m-4.8-4.8v9.6m15.2-4.8h9.6m-4.8-4.8v9.6m15.2-4.8h9.6m-4.8-4.8v9.6m15.2-4.8h9.6m-4.8-4.8v9.6m15.2-4.8h9.6m-4.8-4.8v9.6m15.2-4.8h9.6m-4.8-4.8v9.6m15.2-4.8h9.6m-4.8-4.8v9.6m15.2-4.8h9.6m-4.8-4.8v9.6m15.2-4.8h9.6m-4.8-4.8v9.6m15.2-4.8h9.6m-4.8-4.8v9.6m15.2-4.8h9.6m-4.8-4.8v9.6m15.2-4.8h9.6m-4.8-4.8v9.6m15.2-4.8h9.6m-4.8-4.8v9.6m15.2-4.8h9.6m-4.8-4.8v9.6m15.2-4.8h9.6m-4.8-4.8v9.6m15.2-4.8h9.6m-4.8-4.8v9.6m15.2-4.8h9.6m-4.8-4.8v9.6m13.6-11.2 12.8 12.8m-12.8 0 12.8-12.8m-392.8 20 12.8 12.8m-12.8 0 12.8-12.8"/><path d="m150 463.6 1.88 3.811 4.207.611-3.044 2.967.719 4.189L150 473.2l-3.762 1.978.719-4.19-3.044-2.966 4.206-.61Zm20 0 1.88 3.811 4.207.611-3.044 2.967.719 4.189L170 473.2l-3.762 1.978.719-4.19-3.044-2.966 4.206-.61Z" style="stroke-width:1;stroke:none"/><path style="fill:none" d="M185.2 470h9.6m-4.8-4.8v9.6m15.2-4.8h9.6m-4.8-4.8v9.6m15.2-4.8h9.6m-4.8-4.8v9.6m15.2-4.8h9.6m-4.8-4.8v9.6m15.2-4.8h9.6m-4.8-4.8v9.6m15.2-4.8h9.6m-4.8-4.8v9.6m15.2-4.8h9.6m-4.8-4.8v9.6m15.2-4.8h9.6m-4.8-4.8v9.6m15.2-4.8h9.6m-4.8-4.8v9.6m15.2-4.8h9.6m-4.8-4.8v9.6m15.2-4.8h9.6m-4.8-4.8v9.6m15.2-4.8h9.6m-4.8-4.8v9.6m13.6-11.2 12.8 12.8m-12.8 0 12.8-12.8m8.8 6.4h9.6m-4.8-4.8v9.6m15.2-4.8h9.6m-4.8-4.8v9.6m15.2-4.8h9.6m-4.8-4.8v9.6m13.6-11.2 12.8 12.8m-12.8 0 12.8-12.8m-372.8 20 12.8 12.8m-12.8 0 12.8-12.8"/><path d="m170 483.6 1.88 3.811 4.207.611-3.044 2.967.719 4.189L170 493.2l-3.762 1.978.719-4.19-3.044-2.966 4.206-.61Zm20 0 1.88 3.811 4.207.611-3.044 2.967.719 4.189L190 493.2l-3.762 1.978.719-4.19-3.044-2.966 4.206-.61Zm20 0 1.88 3.811 4.207.611-3.044 2.967.719 4.189L210 493.2l-3.762 1.978.719-4.19-3.044-2.966 4.206-.61Z" style="stroke-width:1;stroke:none"/><path style="fill:none" d="M225.2 490h9.6m-4.8-4.8v9.6m15.2-4.8h9.6m-4.8-4.8v9.6m15.2-4.8h9.6m-4.8-4.8v9.6m15.2-4.8h9.6m-4.8-4.8v9.6m15.2-4.8h9.6m-4.8-4.8v9.6m15.2-4.8h9.6m-4.8-4.8v9.6m15.2-4.8h9.6m-4.8-4.8v9.6m15.2-4.8h9.6m-4.8-4.8v9.6m15.2-4.8h9.6m-4.8-4.8v9.6m15.2-4.8h9.6m-4.8-4.8v9.6m15.2-4.8h9.6m-4.8-4.8v9.6m15.2-4.8h9.6m-4.8-4.8v9.6m15.2-4.8h9.6m-4.8-4.8v9.6m13.6-11.2 12.8 12.8m-12.8 0 12.8-12.8m-332.8 20 12.8 12.8m-12.8 0 12.8-12.8"/><path d="m190 503.6 1.88 3.811 4.207.611-3.044 2.967.719 4.189L190 513.2l-3.762 1.978.719-4.19-3.044-2.966 4.206-.61Zm20 0 1.88 3.811 4.207.611-3.044 2.967.719 4.189L210 513.2l-3.762 1.978.719-4.19-3.044-2.966 4.206-.61Zm20 0 1.88 3.811 4.207.611-3.044 2.967.719 4.189L230 513.2l-3.762 1.978.719-4.19-3.044-2.966 4.206-.61Zm20 0 1.88 3.811 4.207.611-3.044 2.967.719 4.189L250 513.2l-3.762 1.978.719-4.19-3.044-2.966 4.206-.61Zm20 0 1.88 3.811 4.207.611-3.044 2.967.719 4.189L270 513.2l-3.762 1.978.719-4.19-3.044-2.966 4.206-.61Zm20 0 1.88 3.811 4.207.611-3.044 2.967.719 4.189L290 513.2l-3.762 1.978.719-4.19-3.044-2.966 4.206-.61Zm20 0 1.88 3.811 4.207.611-3.044 2.967.719 4.189L310 513.2l-3.762 1.978.719-4.19-3.044-2.966 4.206-.61Z" style="stroke-width:1;stroke:none"/><path style="fill:none" d="M325.2 510h9.6m-4.8-4.8v9.6m15.2-4.8h9.6m-4.8-4.8v9.6m15.2-4.8h9.6m-4.8-4.8v9.6m15.2-4.8h9.6m-4.8-4.8v9.6m15.2-4.8h9.6m-4.8-4.8v9.6m15.2-4.8h9.6m-4.8-4.8v9.6m15.2-4.8h9.6m-4.8-4.8v9.6m13.6-11.2 12.8 12.8m-12.8 0 12.8-12.8m7.2 0 12.8 12.8m-12.8 0 12.8-12.8m7.2 0 12.8 12.8m-12.8 0 12.8-12.8m-332.8 20 12.8 12.8m-12.8 0 12.8-12.8m7.2 0 12.8 12.8m-12.8 0 12.8-12.8"/><path d="m230 523.6 1.88 3.811 4.207.611-3.044 2.967.719 4.189L230 533.2l-3.762 1.978.719-4.19-3.044-2.966 4.206-.61Zm20 0 1.88 3.811 4.207.611-3.044 2.967.719 4.189L250 533.2l-3.762 1.978.719-4.19-3.044-2.966 4.206-.61Z" style="stroke-width:1;stroke:none"/><path style="fill:none" d="m263.6 523.6 12.8 12.8m-12.8 0 12.8-12.8m7.2 0 12.8 12.8m-12.8 0 12.8-12.8m7.2 0 12.8 12.8m-12.8 0 12.8-12.8m7.2 0 12.8 12.8m-12.8 0 12.8-12.8m7.2 0 12.8 12.8m-12.8 0 12.8-12.8"/><path d="m370 523.6 1.88 3.811 4.207.611-3.044 2.967.719 4.189L370 533.2l-3.762 1.978.719-4.19-3.044-2.966 4.206-.61Zm20 0 1.88 3.811 4.207.611-3.044 2.967.719 4.189L390 533.2l-3.762 1.978.719-4.19-3.044-2.966 4.206-.61Zm20 0 1.88 3.811 4.207.611-3.044 2.967.719 4.189L410 533.2l-3.762 1.978.719-4.19-3.044-2.966 4.206-.61Z" style="stroke-width:1;stroke:none"/><path style="fill:none" d="m423.6 523.6 12.8 12.8m-12.8 0 12.8-12.8m7.2 0 12.8 12.8m-12.8 0 12.8-12.8m8.8 6.4h9.6m-4.8-4.8v9.6m15.2-4.8h9.6m-4.8-4.8v9.6m15.2-4.8h9.6m-4.8-4.8v9.6m13.6-11.2 12.8 12.8m-12.8 0 12.8-12.8m-312.8 20 12.8 12.8m-12.8 0 12.8-12.8m7.2 0 12.8 12.8m-12.8 0 12.8-12.8"/><path d="m270 543.6 1.88 3.811 4.207.611-3.044 2.967.719 4.189L270 553.2l-3.762 1.978.719-4.19-3.044-2.966 4.206-.61Z" style="stroke-width:1;stroke:none"/><path style="fill:none" d="M285.2 550h9.6m-4.8-4.8v9.6m15.2-4.8h9.6m-4.8-4.8v9.6m15.2-4.8h9.6m-4.8-4.8v9.6m15.2-4.8h9.6m-4.8-4.8v9.6m13.6-11.2 12.8 12.8m-12.8 0 12.8-12.8m7.2 0 12.8 12.8m-12.8 0 12.8-12.8m7.2 0 12.8 12.8m-12.8 0 12.8-12.8"/><path d="m430 543.6 1.88 3.811 4.207.611-3.044 2.967.719 4.189L430 553.2l-3.762 1.978.719-4.19-3.044-2.966 4.206-.61Z" style="stroke-width:1;stroke:none"/><path style="fill:none" d="M445.2 550h9.6m-4.8-4.8v9.6m15.2-4.8h9.6m-4.8-4.8v9.6m15.2-4.8h9.6m-4.8-4.8v9.6"/><path d="m510 543.6 1.88 3.811 4.207.611-3.044 2.967.719 4.189L510 553.2l-3.762 1.978.719-4.19-3.044-2.966 4.206-.61Z" style="stroke-width:1;stroke:none"/><path style="fill:none" d="m523.6 543.6 12.8 12.8m-12.8 0 12.8-12.8m-292.8 20 12.8 12.8m-12.8 0 12.8-12.8"/><path d="m270 563.6 1.88 3.811 4.207.611-3.044 2.967.719 4.189L270 573.2l-3.762 1.978.719-4.19-3.044-2.966 4.206-.61Zm20 0 1.88 3.811 4.207.611-3.044 2.967.719 4.189L290 573.2l-3.762 1.978.719-4.19-3.044-2.966 4.206-.61Zm20 0 1.88 3.811 4.207.611-3.044 2.967.719 4.189L310 573.2l-3.762 1.978.719-4.19-3.044-2.966 4.206-.61Zm20 0 1.88 3.811 4.207.611-3.044 2.967.719 4.189L330 573.2l-3.762 1.978.719-4.19-3.044-2.966 4.206-.61Zm20 0 1.88 3.811 4.207.611-3.044 2.967.719 4.189L350 573.2l-3.762 1.978.719-4.19-3.044-2.966 4.206-.61Z" style="stroke-width:1;stroke:none"/><path style="fill:none" d="m363.6 563.6 12.8 12.8m-12.8 0 12.8-12.8m27.2 0 12.8 12.8m-12.8 0 12.8-12.8"/><path d="m430 563.6 1.88 3.811 4.207.611-3.044 2.967.719 4.189L430 573.2l-3.762 1.978.719-4.19-3.044-2.966 4.206-.61Zm20 0 1.88 3.811 4.207.611-3.044 2.967.719 4.189L450 573.2l-3.762 1.978.719-4.19-3.044-2.966 4.206-.61Zm20 0 1.88 3.811 4.207.611-3.044 2.967.719 4.189L470 573.2l-3.762 1.978.719-4.19-3.044-2.966 4.206-.61Z" style="stroke-width:1;stroke:none"/><path style="fill:none" d="m483.6 563.6 12.8 12.8m-12.8 0 12.8-12.8m7.2 0 12.8 12.8m-12.8 0 12.8-12.8m-252.8 20 12.8 12.8m-12.8 0 12.8-12.8m7.2 0 12.8 12.8m-12.8 0 12.8-12.8m7.2 0 12.8 12.8m-12.8 0 12.8-12.8m7.2 0 12.8 12.8m-12.8 0 12.8-12.8m7.2 0 12.8 12.8m-12.8 0 12.8-12.8m67.2 0 12.8 12.8m-12.8 0 12.8-12.8m7.2 0 12.8 12.8m-12.8 0 12.8-12.8m7.2 0 12.8 12.8m-12.8 0 12.8-12.8"/><path style="fill:none;stroke:#b4b4b4;stroke-width:1" d="M20 0v640M40 0v640M60 0v640M80 0v640M100 0v640M120 0v640M140 0v640M160 0v640M180 0v640M200 0v640M220 0v640M240 0v640M260 0v640M280 0v640M300 0v640M320 0v640M340 0v640M360 0v640M380 0v640M400 0v640M420 0v640M440 0v640M460 0v640M480 0v640M500 0v640M520 0v640M540 0v640M560 0v640M580 0v640M600 0v640M620 0v640M0 20h640M0 40h640M0 60h640M0 80h640M0 100h640M0 120h640M0 140h640M0 160h640M0 180h640M0 200h640M0 220h640M0 240h640M0 260h640M0 280h640M0 300h640M0 320h640M0 340h640M0 360h640M0 380h640M0 400h640M0 420h640M0 440h640M0 460h640M0 480h640M0 500h640M0 520h640M0 540h640M0 560h640M0 580h640M0 600h640M0 620h640"/></g></svg>