<svg color-interpolation="auto" height="320" stroke="#000" stroke-linecap="square" stroke-miterlimit="10" width="320" xmlns="http://www.w3.org/2000/svg"><g fill="#f60e44" stroke="none"><path d="m80 40h20v20h-20z"/><g stroke-linecap="round"><path d="m100 40h20v20h-20z"/><path d="m200 40h20v20h-20z"/><path d="m220 40h20v20h-20z"/><path d="m60 60h20v20h-20z"/><path d="m120 60h20v20h-20z"/><path d="m180 60h20v20h-20z"/><path d="m240 60h20v20h-20z"/><path d="m60 80h20v20h-20z"/><path d="m80 80h20v20h-20z"/><path d="m140 80h20v20h-20z"/><path d="m160 80h20v20h-20z"/><path d="m220 80h20v20h-20z"/><path d="m240 80h20v20h-20z"/><path d="m100 100h20v20h-20z"/><path d="m120 100h20v20h-20z"/><path d="m140 100h20v20h-20z"/><path d="m160 100h20v20h-20z"/><path d="m180 100h20v20h-20z"/><path d="m200 100h20v20h-20z"/><path d="m40 120h20v20h-20z" fill="#fff"/><path d="m60 120h20v20h-20z" fill="#fff"/><path d="m80 120h20v20h-20z" fill="#fff"/><path d="m100 120h20v20h-20z" fill="#fff"/><path d="m120 120h20v20h-20z" fill="#fff"/><path d="m140 120h20v20h-20z"/><path d="m160 120h20v20h-20z"/><g fill="#fff"><path d="m180 120h20v20h-20z"/><path d="m200 120h20v20h-20z"/><path d="m220 120h20v20h-20z"/><path d="m240 120h20v20h-20z"/><path d="m260 120h20v20h-20z"/><path d="m40 140h20v20h-20z"/><path d="m60 140h20v20h-20z"/><path d="m80 140h20v20h-20z"/><path d="m100 140h20v20h-20z"/><path d="m120 140h20v20h-20z"/></g><path d="m140 140h20v20h-20z"/><path d="m160 140h20v20h-20z"/><path d="m180 140h20v20h-20z" fill="#fff"/><path d="m200 140h20v20h-20z" fill="#fff"/><path d="m220 140h20v20h-20z" fill="#fff"/><path d="m240 140h20v20h-20z" fill="#fff"/><path d="m260 140h20v20h-20z" fill="#fff"/><path d="m40 160h20v20h-20z" fill="#fff"/><path d="m60 160h20v20h-20z" fill="#fff"/><path d="m80 160h20v20h-20z" fill="#fff"/><path d="m100 160h20v20h-20z" fill="#fff"/><path d="m120 160h20v20h-20z" fill="#fff"/><path d="m140 160h20v20h-20z"/><path d="m160 160h20v20h-20z"/><path d="m180 160h20v20h-20z" fill="#fff"/><path d="m200 160h20v20h-20z" fill="#fff"/><path d="m220 160h20v20h-20z" fill="#fff"/><path d="m240 160h20v20h-20z" fill="#fff"/><path d="m260 160h20v20h-20z" fill="#fff"/><path d="m140 180h20v20h-20z"/><path d="m160 180h20v20h-20z"/><path d="m60 200h20v20h-20z" fill="#fff"/><path d="m80 200h20v20h-20z" fill="#fff"/><path d="m100 200h20v20h-20z" fill="#fff"/><path d="m120 200h20v20h-20z" fill="#fff"/><path d="m140 200h20v20h-20z"/><path d="m160 200h20v20h-20z"/><path d="m180 200h20v20h-20z" fill="#fff"/><path d="m200 200h20v20h-20z" fill="#fff"/><path d="m220 200h20v20h-20z" fill="#fff"/><path d="m240 200h20v20h-20z" fill="#fff"/><path d="m60 220h20v20h-20z" fill="#fff"/><path d="m80 220h20v20h-20z" fill="#fff"/><path d="m100 220h20v20h-20z" fill="#fff"/><path d="m120 220h20v20h-20z" fill="#fff"/><path d="m140 220h20v20h-20z"/><path d="m160 220h20v20h-20z"/><path d="m180 220h20v20h-20z" fill="#fff"/><path d="m200 220h20v20h-20z" fill="#fff"/><path d="m220 220h20v20h-20z" fill="#fff"/><path d="m240 220h20v20h-20z" fill="#fff"/><path d="m60 240h20v20h-20z" fill="#fff"/><path d="m80 240h20v20h-20z" fill="#fff"/><path d="m100 240h20v20h-20z" fill="#fff"/><path d="m120 240h20v20h-20z" fill="#fff"/><path d="m140 240h20v20h-20z"/><path d="m160 240h20v20h-20z"/><path d="m180 240h20v20h-20z" fill="#fff"/><path d="m200 240h20v20h-20z" fill="#fff"/><path d="m220 240h20v20h-20z" fill="#fff"/><path d="m240 240h20v20h-20z" fill="#fff"/><path d="m60 260h20v20h-20z" fill="#fff"/><path d="m80 260h20v20h-20z" fill="#fff"/><path d="m100 260h20v20h-20z" fill="#fff"/><path d="m120 260h20v20h-20z" fill="#fff"/><path d="m140 260h20v20h-20z"/><path d="m160 260h20v20h-20z"/><path d="m180 260h20v20h-20z" fill="#fff"/><path d="m200 260h20v20h-20z" fill="#fff"/><path d="m220 260h20v20h-20z" fill="#fff"/><path d="m240 260h20v20h-20z" fill="#fff"/><path d="m60 280h20v20h-20z" fill="#fff"/><path d="m80 280h20v20h-20z" fill="#fff"/><path d="m100 280h20v20h-20z" fill="#fff"/><path d="m120 280h20v20h-20z" fill="#fff"/><path d="m140 280h20v20h-20z"/><path d="m160 280h20v20h-20z"/><path d="m180 280h20v20h-20z" fill="#fff"/><path d="m200 280h20v20h-20z" fill="#fff"/><path d="m220 280h20v20h-20z" fill="#fff"/><path d="m240 280h20v20h-20z" fill="#fff"/></g></g></svg>