<svg color-interpolation="auto" height="320" stroke="#000" stroke-linecap="square" stroke-miterlimit="10" width="320" xmlns="http://www.w3.org/2000/svg"><path d="m90 44.2099-6.4 11.0851h12.8z" stroke="none"/><g stroke-linecap="round"><path d="m110 44.2099-6.4 11.0851h12.8z" stroke="none"/><path d="m210 44.2099-6.4 11.0851h12.8z" stroke="none"/><path d="m230 44.2099-6.4 11.0851h12.8z" stroke="none"/><path d="m70 64.2099-6.4 11.0851h12.8z" stroke="none"/><path d="m130 64.2099-6.4 11.0851h12.8z" stroke="none"/><path d="m190 64.2099-6.4 11.0851h12.8z" stroke="none"/><path d="m250 64.2099-6.4 11.0851h12.8z" stroke="none"/><path d="m70 84.2099-6.4 11.0851h12.8z" stroke="none"/><path d="m90 84.2099-6.4 11.0851h12.8z" stroke="none"/><path d="m150 84.2099-6.4 11.0851h12.8z" stroke="none"/><path d="m170 84.2099-6.4 11.0851h12.8z" stroke="none"/><path d="m230 84.2099-6.4 11.0851h12.8z" stroke="none"/><path d="m250 84.2099-6.4 11.0851h12.8z" stroke="none"/><path d="m110 104.2099-6.4 11.0851h12.8z" stroke="none"/><path d="m130 104.2099-6.4 11.0851h12.8z" stroke="none"/><path d="m150 104.2099-6.4 11.0851h12.8z" stroke="none"/><path d="m170 104.2099-6.4 11.0851h12.8z" stroke="none"/><path d="m190 104.2099-6.4 11.0851h12.8z" stroke="none"/><path d="m210 104.2099-6.4 11.0851h12.8z" stroke="none"/><path d="m50 124.2099-6.4 11.0851h12.8z" fill="none" stroke-width="2"/><path d="m70 124.2099-6.4 11.0851h12.8z" fill="none" stroke-width="2"/><path d="m90 124.2099-6.4 11.0851h12.8z" fill="none" stroke-width="2"/><path d="m110 124.2099-6.4 11.0851h12.8z" fill="none" stroke-width="2"/><path d="m130 124.2099-6.4 11.0851h12.8z" fill="none" stroke-width="2"/><path d="m150 124.2099-6.4 11.0851h12.8z" stroke="none"/><path d="m170 124.2099-6.4 11.0851h12.8z" stroke="none"/><path d="m190 124.2099-6.4 11.0851h12.8z" fill="none" stroke-width="2"/><path d="m210 124.2099-6.4 11.0851h12.8z" fill="none" stroke-width="2"/><path d="m230 124.2099-6.4 11.0851h12.8z" fill="none" stroke-width="2"/><path d="m250 124.2099-6.4 11.0851h12.8z" fill="none" stroke-width="2"/><path d="m270 124.2099-6.4 11.0851h12.8z" fill="none" stroke-width="2"/><path d="m50 144.2099-6.4 11.0851h12.8z" fill="none" stroke-width="2"/><path d="m70 144.2099-6.4 11.0851h12.8z" fill="none" stroke-width="2"/><path d="m90 144.2099-6.4 11.0851h12.8z" fill="none" stroke-width="2"/><path d="m110 144.2099-6.4 11.0851h12.8z" fill="none" stroke-width="2"/><path d="m130 144.2099-6.4 11.0851h12.8z" fill="none" stroke-width="2"/><path d="m150 144.2099-6.4 11.0851h12.8z" stroke="none"/><path d="m170 144.2099-6.4 11.0851h12.8z" stroke="none"/><path d="m190 144.2099-6.4 11.0851h12.8z" fill="none" stroke-width="2"/><path d="m210 144.2099-6.4 11.0851h12.8z" fill="none" stroke-width="2"/><path d="m230 144.2099-6.4 11.0851h12.8z" fill="none" stroke-width="2"/><path d="m250 144.2099-6.4 11.0851h12.8z" fill="none" stroke-width="2"/><path d="m270 144.2099-6.4 11.0851h12.8z" fill="none" stroke-width="2"/><path d="m50 164.2099-6.4 11.0851h12.8z" fill="none" stroke-width="2"/><path d="m70 164.2099-6.4 11.0851h12.8z" fill="none" stroke-width="2"/><path d="m90 164.2099-6.4 11.0851h12.8z" fill="none" stroke-width="2"/><path d="m110 164.2099-6.4 11.0851h12.8z" fill="none" stroke-width="2"/><path d="m130 164.2099-6.4 11.0851h12.8z" fill="none" stroke-width="2"/><path d="m150 164.2099-6.4 11.0851h12.8z" stroke="none"/><path d="m170 164.2099-6.4 11.0851h12.8z" stroke="none"/><path d="m190 164.2099-6.4 11.0851h12.8z" fill="none" stroke-width="2"/><path d="m210 164.2099-6.4 11.0851h12.8z" fill="none" stroke-width="2"/><path d="m230 164.2099-6.4 11.0851h12.8z" fill="none" stroke-width="2"/><path d="m250 164.2099-6.4 11.0851h12.8z" fill="none" stroke-width="2"/><path d="m270 164.2099-6.4 11.0851h12.8z" fill="none" stroke-width="2"/><path d="m150 184.2099-6.4 11.0851h12.8z" stroke="none"/><path d="m170 184.2099-6.4 11.0851h12.8z" stroke="none"/><path d="m70 204.2099-6.4 11.0851h12.8z" fill="none" stroke-width="2"/><path d="m90 204.2099-6.4 11.0851h12.8z" fill="none" stroke-width="2"/><path d="m110 204.2099-6.4 11.0851h12.8z" fill="none" stroke-width="2"/><path d="m130 204.2099-6.4 11.0851h12.8z" fill="none" stroke-width="2"/><path d="m150 204.2099-6.4 11.0851h12.8z" stroke="none"/><path d="m170 204.2099-6.4 11.0851h12.8z" stroke="none"/><path d="m190 204.2099-6.4 11.0851h12.8z" fill="none" stroke-width="2"/><path d="m210 204.2099-6.4 11.0851h12.8z" fill="none" stroke-width="2"/><path d="m230 204.2099-6.4 11.0851h12.8z" fill="none" stroke-width="2"/><path d="m250 204.2099-6.4 11.0851h12.8z" fill="none" stroke-width="2"/><path d="m70 224.2099-6.4 11.0851h12.8z" fill="none" stroke-width="2"/><path d="m90 224.2099-6.4 11.0851h12.8z" fill="none" stroke-width="2"/><path d="m110 224.2099-6.4 11.0851h12.8z" fill="none" stroke-width="2"/><path d="m130 224.2099-6.4 11.0851h12.8z" fill="none" stroke-width="2"/><path d="m150 224.2099-6.4 11.0851h12.8z" stroke="none"/><path d="m170 224.2099-6.4 11.0851h12.8z" stroke="none"/><path d="m190 224.2099-6.4 11.0851h12.8z" fill="none" stroke-width="2"/><path d="m210 224.2099-6.4 11.0851h12.8z" fill="none" stroke-width="2"/><path d="m230 224.2099-6.4 11.0851h12.8z" fill="none" stroke-width="2"/><path d="m250 224.2099-6.4 11.0851h12.8z" fill="none" stroke-width="2"/><path d="m70 244.2099-6.4 11.0851h12.8z" fill="none" stroke-width="2"/><path d="m90 244.2099-6.4 11.0851h12.8z" fill="none" stroke-width="2"/><path d="m110 244.2099-6.4 11.0851h12.8z" fill="none" stroke-width="2"/><path d="m130 244.2099-6.4 11.0851h12.8z" fill="none" stroke-width="2"/><path d="m150 244.2099-6.4 11.0851h12.8z" stroke="none"/><path d="m170 244.2099-6.4 11.0851h12.8z" stroke="none"/><path d="m190 244.2099-6.4 11.0851h12.8z" fill="none" stroke-width="2"/><path d="m210 244.2099-6.4 11.0851h12.8z" fill="none" stroke-width="2"/><path d="m230 244.2099-6.4 11.0851h12.8z" fill="none" stroke-width="2"/><path d="m250 244.2099-6.4 11.0851h12.8z" fill="none" stroke-width="2"/><path d="m70 264.2099-6.4 11.0851h12.8z" fill="none" stroke-width="2"/><path d="m90 264.2099-6.4 11.0851h12.8z" fill="none" stroke-width="2"/><path d="m110 264.2099-6.4 11.0851h12.8z" fill="none" stroke-width="2"/><path d="m130 264.2099-6.4 11.0851h12.8z" fill="none" stroke-width="2"/><path d="m150 264.2099-6.4 11.0851h12.8z" stroke="none"/><path d="m170 264.2099-6.4 11.0851h12.8z" stroke="none"/><path d="m190 264.2099-6.4 11.0851h12.8z" fill="none" stroke-width="2"/><path d="m210 264.2099-6.4 11.0851h12.8z" fill="none" stroke-width="2"/><path d="m230 264.2099-6.4 11.0851h12.8z" fill="none" stroke-width="2"/><path d="m250 264.2099-6.4 11.0851h12.8z" fill="none" stroke-width="2"/><path d="m70 284.2099-6.4 11.0851h12.8z" fill="none" stroke-width="2"/><path d="m90 284.2099-6.4 11.0851h12.8z" fill="none" stroke-width="2"/><path d="m110 284.2099-6.4 11.0851h12.8z" fill="none" stroke-width="2"/><path d="m130 284.2099-6.4 11.0851h12.8z" fill="none" stroke-width="2"/><path d="m150 284.2099-6.4 11.0851h12.8z" stroke="none"/><path d="m170 284.2099-6.4 11.0851h12.8z" stroke="none"/><g fill="none"><path d="m190 284.2099-6.4 11.0851h12.8z" stroke-width="2"/><path d="m210 284.2099-6.4 11.0851h12.8z" stroke-width="2"/><path d="m230 284.2099-6.4 11.0851h12.8z" stroke-width="2"/><path d="m250 284.2099-6.4 11.0851h12.8z" stroke-width="2"/><path d="m0 0v320" stroke="#b4b4b4" stroke-width="2"/><path d="m20 0v320" stroke="#b4b4b4"/><path d="m40 0v320" stroke="#b4b4b4"/><path d="m60 0v320" stroke="#b4b4b4"/><path d="m80 0v320" stroke="#b4b4b4"/><path d="m100 0v320" stroke="#b4b4b4"/><path d="m120 0v320" stroke="#b4b4b4"/><path d="m140 0v320" stroke="#b4b4b4"/><path d="m160 0v320" stroke="#b4b4b4"/><path d="m180 0v320" stroke="#b4b4b4"/><path d="m200 0v320" stroke="#b4b4b4"/><path d="m220 0v320" stroke="#b4b4b4"/><path d="m240 0v320" stroke="#b4b4b4"/><path d="m260 0v320" stroke="#b4b4b4"/><path d="m280 0v320" stroke="#b4b4b4"/><path d="m300 0v320" stroke="#b4b4b4"/><path d="m320 0v320" stroke="#b4b4b4" stroke-width="2"/><path d="m0 0h320" stroke="#b4b4b4" stroke-width="2"/><path d="m0 20h320" stroke="#b4b4b4"/><path d="m0 40h320" stroke="#b4b4b4"/><path d="m0 60h320" stroke="#b4b4b4"/><path d="m0 80h320" stroke="#b4b4b4"/><path d="m0 100h320" stroke="#b4b4b4"/><path d="m0 120h320" stroke="#b4b4b4"/><path d="m0 140h320" stroke="#b4b4b4"/><path d="m0 160h320" stroke="#b4b4b4"/><path d="m0 180h320" stroke="#b4b4b4"/><path d="m0 200h320" stroke="#b4b4b4"/><path d="m0 220h320" stroke="#b4b4b4"/><path d="m0 240h320" stroke="#b4b4b4"/><path d="m0 260h320" stroke="#b4b4b4"/><path d="m0 280h320" stroke="#b4b4b4"/><path d="m0 300h320" stroke="#b4b4b4"/><path d="m0 320h320" stroke="#b4b4b4" stroke-width="2"/></g></g></svg>