<svg color-interpolation="auto" height="320" stroke="#000" stroke-linecap="square" stroke-miterlimit="10" width="320" xmlns="http://www.w3.org/2000/svg"><path d="m7.4-3.6c2.4 0 3.6 1.2 3.6 3.6 0 2.4-1.2 3.6-3.6 3.6h-14.8c-2.4 0-3.6-1.2-3.6-3.6 0-2.4 1.2-3.6 3.6-3.6z" fill="#f60e44" stroke="none" transform="matrix(.70710678 -.70710678 .70710678 .70710678 90 50)"/><g stroke-linecap="round" stroke-width=".2"><path d="m7.4-3.6c2.4 0 3.6 1.2 3.6 3.6 0 2.4-1.2 3.6-3.6 3.6h-14.8c-2.4 0-3.6-1.2-3.6-3.6 0-2.4 1.2-3.6 3.6-3.6z" fill="none" stroke="#fff" transform="matrix(.70710678 -.70710678 .70710678 .70710678 90 50)"/><g fill="#f60e44" stroke="#f60e44" transform="matrix(.70710678 -.70710678 .70710678 .70710678 110 50)"><path d="m7.4-3.6c2.4 0 3.6 1.2 3.6 3.6 0 2.4-1.2 3.6-3.6 3.6h-14.8c-2.4 0-3.6-1.2-3.6-3.6 0-2.4 1.2-3.6 3.6-3.6z" stroke="none"/><path d="m7.4-3.6c2.4 0 3.6 1.2 3.6 3.6 0 2.4-1.2 3.6-3.6 3.6h-14.8c-2.4 0-3.6-1.2-3.6-3.6 0-2.4 1.2-3.6 3.6-3.6z" fill="none" stroke="#fff"/></g><g fill="#f60e44" stroke="#f60e44" transform="matrix(.70710678 -.70710678 .70710678 .70710678 210 50)"><path d="m7.4-3.6c2.4 0 3.6 1.2 3.6 3.6 0 2.4-1.2 3.6-3.6 3.6h-14.8c-2.4 0-3.6-1.2-3.6-3.6 0-2.4 1.2-3.6 3.6-3.6z" stroke="none"/><path d="m7.4-3.6c2.4 0 3.6 1.2 3.6 3.6 0 2.4-1.2 3.6-3.6 3.6h-14.8c-2.4 0-3.6-1.2-3.6-3.6 0-2.4 1.2-3.6 3.6-3.6z" fill="none" stroke="#fff"/></g><g fill="#f60e44" stroke="#f60e44" transform="matrix(.70710678 -.70710678 .70710678 .70710678 230 50)"><path d="m7.4-3.6c2.4 0 3.6 1.2 3.6 3.6 0 2.4-1.2 3.6-3.6 3.6h-14.8c-2.4 0-3.6-1.2-3.6-3.6 0-2.4 1.2-3.6 3.6-3.6z" stroke="none"/><path d="m7.4-3.6c2.4 0 3.6 1.2 3.6 3.6 0 2.4-1.2 3.6-3.6 3.6h-14.8c-2.4 0-3.6-1.2-3.6-3.6 0-2.4 1.2-3.6 3.6-3.6z" fill="none" stroke="#fff"/></g><g fill="#f60e44" stroke="#f60e44" transform="matrix(.70710678 -.70710678 .70710678 .70710678 70 70)"><path d="m7.4-3.6c2.4 0 3.6 1.2 3.6 3.6 0 2.4-1.2 3.6-3.6 3.6h-14.8c-2.4 0-3.6-1.2-3.6-3.6 0-2.4 1.2-3.6 3.6-3.6z" stroke="none"/><path d="m7.4-3.6c2.4 0 3.6 1.2 3.6 3.6 0 2.4-1.2 3.6-3.6 3.6h-14.8c-2.4 0-3.6-1.2-3.6-3.6 0-2.4 1.2-3.6 3.6-3.6z" fill="none" stroke="#fff"/></g><g fill="#f60e44" stroke="#f60e44" transform="matrix(.70710678 -.70710678 .70710678 .70710678 130 70)"><path d="m7.4-3.6c2.4 0 3.6 1.2 3.6 3.6 0 2.4-1.2 3.6-3.6 3.6h-14.8c-2.4 0-3.6-1.2-3.6-3.6 0-2.4 1.2-3.6 3.6-3.6z" stroke="none"/><path d="m7.4-3.6c2.4 0 3.6 1.2 3.6 3.6 0 2.4-1.2 3.6-3.6 3.6h-14.8c-2.4 0-3.6-1.2-3.6-3.6 0-2.4 1.2-3.6 3.6-3.6z" fill="none" stroke="#fff"/></g><g fill="#f60e44" stroke="#f60e44" transform="matrix(.70710678 -.70710678 .70710678 .70710678 190 70)"><path d="m7.4-3.6c2.4 0 3.6 1.2 3.6 3.6 0 2.4-1.2 3.6-3.6 3.6h-14.8c-2.4 0-3.6-1.2-3.6-3.6 0-2.4 1.2-3.6 3.6-3.6z" stroke="none"/><path d="m7.4-3.6c2.4 0 3.6 1.2 3.6 3.6 0 2.4-1.2 3.6-3.6 3.6h-14.8c-2.4 0-3.6-1.2-3.6-3.6 0-2.4 1.2-3.6 3.6-3.6z" fill="none" stroke="#fff"/></g><g fill="#f60e44" stroke="#f60e44" transform="matrix(.70710678 -.70710678 .70710678 .70710678 250 70)"><path d="m7.4-3.6c2.4 0 3.6 1.2 3.6 3.6 0 2.4-1.2 3.6-3.6 3.6h-14.8c-2.4 0-3.6-1.2-3.6-3.6 0-2.4 1.2-3.6 3.6-3.6z" stroke="none"/><path d="m7.4-3.6c2.4 0 3.6 1.2 3.6 3.6 0 2.4-1.2 3.6-3.6 3.6h-14.8c-2.4 0-3.6-1.2-3.6-3.6 0-2.4 1.2-3.6 3.6-3.6z" fill="none" stroke="#fff"/></g><g fill="#f60e44" stroke="#f60e44" transform="matrix(.70710678 -.70710678 .70710678 .70710678 70 90)"><path d="m7.4-3.6c2.4 0 3.6 1.2 3.6 3.6 0 2.4-1.2 3.6-3.6 3.6h-14.8c-2.4 0-3.6-1.2-3.6-3.6 0-2.4 1.2-3.6 3.6-3.6z" stroke="none"/><path d="m7.4-3.6c2.4 0 3.6 1.2 3.6 3.6 0 2.4-1.2 3.6-3.6 3.6h-14.8c-2.4 0-3.6-1.2-3.6-3.6 0-2.4 1.2-3.6 3.6-3.6z" fill="none" stroke="#fff"/></g><g fill="#f60e44" stroke="#f60e44" transform="matrix(.70710678 -.70710678 .70710678 .70710678 90 90)"><path d="m7.4-3.6c2.4 0 3.6 1.2 3.6 3.6 0 2.4-1.2 3.6-3.6 3.6h-14.8c-2.4 0-3.6-1.2-3.6-3.6 0-2.4 1.2-3.6 3.6-3.6z" stroke="none"/><path d="m7.4-3.6c2.4 0 3.6 1.2 3.6 3.6 0 2.4-1.2 3.6-3.6 3.6h-14.8c-2.4 0-3.6-1.2-3.6-3.6 0-2.4 1.2-3.6 3.6-3.6z" fill="none" stroke="#fff"/></g><g fill="#f60e44" stroke="#f60e44" transform="matrix(.70710678 -.70710678 .70710678 .70710678 150 90)"><path d="m7.4-3.6c2.4 0 3.6 1.2 3.6 3.6 0 2.4-1.2 3.6-3.6 3.6h-14.8c-2.4 0-3.6-1.2-3.6-3.6 0-2.4 1.2-3.6 3.6-3.6z" stroke="none"/><path d="m7.4-3.6c2.4 0 3.6 1.2 3.6 3.6 0 2.4-1.2 3.6-3.6 3.6h-14.8c-2.4 0-3.6-1.2-3.6-3.6 0-2.4 1.2-3.6 3.6-3.6z" fill="none" stroke="#fff"/></g><g fill="#f60e44" stroke="#f60e44" transform="matrix(.70710678 -.70710678 .70710678 .70710678 170 90)"><path d="m7.4-3.6c2.4 0 3.6 1.2 3.6 3.6 0 2.4-1.2 3.6-3.6 3.6h-14.8c-2.4 0-3.6-1.2-3.6-3.6 0-2.4 1.2-3.6 3.6-3.6z" stroke="none"/><path d="m7.4-3.6c2.4 0 3.6 1.2 3.6 3.6 0 2.4-1.2 3.6-3.6 3.6h-14.8c-2.4 0-3.6-1.2-3.6-3.6 0-2.4 1.2-3.6 3.6-3.6z" fill="none" stroke="#fff"/></g><g fill="#f60e44" stroke="#f60e44" transform="matrix(.70710678 -.70710678 .70710678 .70710678 230 90)"><path d="m7.4-3.6c2.4 0 3.6 1.2 3.6 3.6 0 2.4-1.2 3.6-3.6 3.6h-14.8c-2.4 0-3.6-1.2-3.6-3.6 0-2.4 1.2-3.6 3.6-3.6z" stroke="none"/><path d="m7.4-3.6c2.4 0 3.6 1.2 3.6 3.6 0 2.4-1.2 3.6-3.6 3.6h-14.8c-2.4 0-3.6-1.2-3.6-3.6 0-2.4 1.2-3.6 3.6-3.6z" fill="none" stroke="#fff"/></g><g fill="#f60e44" stroke="#f60e44" transform="matrix(.70710678 -.70710678 .70710678 .70710678 250 90)"><path d="m7.4-3.6c2.4 0 3.6 1.2 3.6 3.6 0 2.4-1.2 3.6-3.6 3.6h-14.8c-2.4 0-3.6-1.2-3.6-3.6 0-2.4 1.2-3.6 3.6-3.6z" stroke="none"/><path d="m7.4-3.6c2.4 0 3.6 1.2 3.6 3.6 0 2.4-1.2 3.6-3.6 3.6h-14.8c-2.4 0-3.6-1.2-3.6-3.6 0-2.4 1.2-3.6 3.6-3.6z" fill="none" stroke="#fff"/></g><g fill="#f60e44" stroke="#f60e44" transform="matrix(.70710678 -.70710678 .70710678 .70710678 110 110)"><path d="m7.4-3.6c2.4 0 3.6 1.2 3.6 3.6 0 2.4-1.2 3.6-3.6 3.6h-14.8c-2.4 0-3.6-1.2-3.6-3.6 0-2.4 1.2-3.6 3.6-3.6z" stroke="none"/><path d="m7.4-3.6c2.4 0 3.6 1.2 3.6 3.6 0 2.4-1.2 3.6-3.6 3.6h-14.8c-2.4 0-3.6-1.2-3.6-3.6 0-2.4 1.2-3.6 3.6-3.6z" fill="none" stroke="#fff"/></g><g fill="#f60e44" stroke="#f60e44" transform="matrix(.70710678 -.70710678 .70710678 .70710678 130 110)"><path d="m7.4-3.6c2.4 0 3.6 1.2 3.6 3.6 0 2.4-1.2 3.6-3.6 3.6h-14.8c-2.4 0-3.6-1.2-3.6-3.6 0-2.4 1.2-3.6 3.6-3.6z" stroke="none"/><path d="m7.4-3.6c2.4 0 3.6 1.2 3.6 3.6 0 2.4-1.2 3.6-3.6 3.6h-14.8c-2.4 0-3.6-1.2-3.6-3.6 0-2.4 1.2-3.6 3.6-3.6z" fill="none" stroke="#fff"/></g><g fill="#f60e44" stroke="#f60e44" transform="matrix(.70710678 -.70710678 .70710678 .70710678 150 110)"><path d="m7.4-3.6c2.4 0 3.6 1.2 3.6 3.6 0 2.4-1.2 3.6-3.6 3.6h-14.8c-2.4 0-3.6-1.2-3.6-3.6 0-2.4 1.2-3.6 3.6-3.6z" stroke="none"/><path d="m7.4-3.6c2.4 0 3.6 1.2 3.6 3.6 0 2.4-1.2 3.6-3.6 3.6h-14.8c-2.4 0-3.6-1.2-3.6-3.6 0-2.4 1.2-3.6 3.6-3.6z" fill="none" stroke="#fff"/></g><g fill="#f60e44" stroke="#f60e44" transform="matrix(.70710678 -.70710678 .70710678 .70710678 170 110)"><path d="m7.4-3.6c2.4 0 3.6 1.2 3.6 3.6 0 2.4-1.2 3.6-3.6 3.6h-14.8c-2.4 0-3.6-1.2-3.6-3.6 0-2.4 1.2-3.6 3.6-3.6z" stroke="none"/><path d="m7.4-3.6c2.4 0 3.6 1.2 3.6 3.6 0 2.4-1.2 3.6-3.6 3.6h-14.8c-2.4 0-3.6-1.2-3.6-3.6 0-2.4 1.2-3.6 3.6-3.6z" fill="none" stroke="#fff"/></g><g fill="#f60e44" stroke="#f60e44" transform="matrix(.70710678 -.70710678 .70710678 .70710678 190 110)"><path d="m7.4-3.6c2.4 0 3.6 1.2 3.6 3.6 0 2.4-1.2 3.6-3.6 3.6h-14.8c-2.4 0-3.6-1.2-3.6-3.6 0-2.4 1.2-3.6 3.6-3.6z" stroke="none"/><path d="m7.4-3.6c2.4 0 3.6 1.2 3.6 3.6 0 2.4-1.2 3.6-3.6 3.6h-14.8c-2.4 0-3.6-1.2-3.6-3.6 0-2.4 1.2-3.6 3.6-3.6z" fill="none" stroke="#fff"/></g><g fill="#f60e44" stroke="#f60e44" transform="matrix(.70710678 -.70710678 .70710678 .70710678 210 110)"><path d="m7.4-3.6c2.4 0 3.6 1.2 3.6 3.6 0 2.4-1.2 3.6-3.6 3.6h-14.8c-2.4 0-3.6-1.2-3.6-3.6 0-2.4 1.2-3.6 3.6-3.6z" stroke="none"/><path d="m7.4-3.6c2.4 0 3.6 1.2 3.6 3.6 0 2.4-1.2 3.6-3.6 3.6h-14.8c-2.4 0-3.6-1.2-3.6-3.6 0-2.4 1.2-3.6 3.6-3.6z" fill="none" stroke="#fff"/></g><g fill="#fff" stroke="#fff" transform="matrix(.70710678 -.70710678 .70710678 .70710678 50 130)"><path d="m7.4-3.6c2.4 0 3.6 1.2 3.6 3.6 0 2.4-1.2 3.6-3.6 3.6h-14.8c-2.4 0-3.6-1.2-3.6-3.6 0-2.4 1.2-3.6 3.6-3.6z" stroke="none"/><path d="m7.4-3.6c2.4 0 3.6 1.2 3.6 3.6 0 2.4-1.2 3.6-3.6 3.6h-14.8c-2.4 0-3.6-1.2-3.6-3.6 0-2.4 1.2-3.6 3.6-3.6z" fill="none" stroke="#666"/></g><g fill="#fff" stroke="#fff" transform="matrix(.70710678 -.70710678 .70710678 .70710678 70 130)"><path d="m7.4-3.6c2.4 0 3.6 1.2 3.6 3.6 0 2.4-1.2 3.6-3.6 3.6h-14.8c-2.4 0-3.6-1.2-3.6-3.6 0-2.4 1.2-3.6 3.6-3.6z" stroke="none"/><path d="m7.4-3.6c2.4 0 3.6 1.2 3.6 3.6 0 2.4-1.2 3.6-3.6 3.6h-14.8c-2.4 0-3.6-1.2-3.6-3.6 0-2.4 1.2-3.6 3.6-3.6z" fill="none" stroke="#666"/></g><g fill="#fff" stroke="#fff" transform="matrix(.70710678 -.70710678 .70710678 .70710678 90 130)"><path d="m7.4-3.6c2.4 0 3.6 1.2 3.6 3.6 0 2.4-1.2 3.6-3.6 3.6h-14.8c-2.4 0-3.6-1.2-3.6-3.6 0-2.4 1.2-3.6 3.6-3.6z" stroke="none"/><path d="m7.4-3.6c2.4 0 3.6 1.2 3.6 3.6 0 2.4-1.2 3.6-3.6 3.6h-14.8c-2.4 0-3.6-1.2-3.6-3.6 0-2.4 1.2-3.6 3.6-3.6z" fill="none" stroke="#666"/></g><g fill="#fff" stroke="#fff" transform="matrix(.70710678 -.70710678 .70710678 .70710678 110 130)"><path d="m7.4-3.6c2.4 0 3.6 1.2 3.6 3.6 0 2.4-1.2 3.6-3.6 3.6h-14.8c-2.4 0-3.6-1.2-3.6-3.6 0-2.4 1.2-3.6 3.6-3.6z" stroke="none"/><path d="m7.4-3.6c2.4 0 3.6 1.2 3.6 3.6 0 2.4-1.2 3.6-3.6 3.6h-14.8c-2.4 0-3.6-1.2-3.6-3.6 0-2.4 1.2-3.6 3.6-3.6z" fill="none" stroke="#666"/></g><g fill="#fff" stroke="#fff" transform="matrix(.70710678 -.70710678 .70710678 .70710678 130 130)"><path d="m7.4-3.6c2.4 0 3.6 1.2 3.6 3.6 0 2.4-1.2 3.6-3.6 3.6h-14.8c-2.4 0-3.6-1.2-3.6-3.6 0-2.4 1.2-3.6 3.6-3.6z" stroke="none"/><path d="m7.4-3.6c2.4 0 3.6 1.2 3.6 3.6 0 2.4-1.2 3.6-3.6 3.6h-14.8c-2.4 0-3.6-1.2-3.6-3.6 0-2.4 1.2-3.6 3.6-3.6z" fill="none" stroke="#666"/></g><g fill="#f60e44" stroke="#f60e44" transform="matrix(.70710678 -.70710678 .70710678 .70710678 150 130)"><path d="m7.4-3.6c2.4 0 3.6 1.2 3.6 3.6 0 2.4-1.2 3.6-3.6 3.6h-14.8c-2.4 0-3.6-1.2-3.6-3.6 0-2.4 1.2-3.6 3.6-3.6z" stroke="none"/><path d="m7.4-3.6c2.4 0 3.6 1.2 3.6 3.6 0 2.4-1.2 3.6-3.6 3.6h-14.8c-2.4 0-3.6-1.2-3.6-3.6 0-2.4 1.2-3.6 3.6-3.6z" fill="none" stroke="#fff"/></g><g fill="#f60e44" stroke="#f60e44" transform="matrix(.70710678 -.70710678 .70710678 .70710678 170 130)"><path d="m7.4-3.6c2.4 0 3.6 1.2 3.6 3.6 0 2.4-1.2 3.6-3.6 3.6h-14.8c-2.4 0-3.6-1.2-3.6-3.6 0-2.4 1.2-3.6 3.6-3.6z" stroke="none"/><path d="m7.4-3.6c2.4 0 3.6 1.2 3.6 3.6 0 2.4-1.2 3.6-3.6 3.6h-14.8c-2.4 0-3.6-1.2-3.6-3.6 0-2.4 1.2-3.6 3.6-3.6z" fill="none" stroke="#fff"/></g><g fill="#fff" stroke="#fff" transform="matrix(.70710678 -.70710678 .70710678 .70710678 190 130)"><path d="m7.4-3.6c2.4 0 3.6 1.2 3.6 3.6 0 2.4-1.2 3.6-3.6 3.6h-14.8c-2.4 0-3.6-1.2-3.6-3.6 0-2.4 1.2-3.6 3.6-3.6z" stroke="none"/><path d="m7.4-3.6c2.4 0 3.6 1.2 3.6 3.6 0 2.4-1.2 3.6-3.6 3.6h-14.8c-2.4 0-3.6-1.2-3.6-3.6 0-2.4 1.2-3.6 3.6-3.6z" fill="none" stroke="#666"/></g><g fill="#fff" stroke="#fff" transform="matrix(.70710678 -.70710678 .70710678 .70710678 210 130)"><path d="m7.4-3.6c2.4 0 3.6 1.2 3.6 3.6 0 2.4-1.2 3.6-3.6 3.6h-14.8c-2.4 0-3.6-1.2-3.6-3.6 0-2.4 1.2-3.6 3.6-3.6z" stroke="none"/><path d="m7.4-3.6c2.4 0 3.6 1.2 3.6 3.6 0 2.4-1.2 3.6-3.6 3.6h-14.8c-2.4 0-3.6-1.2-3.6-3.6 0-2.4 1.2-3.6 3.6-3.6z" fill="none" stroke="#666"/></g><g fill="#fff" stroke="#fff" transform="matrix(.70710678 -.70710678 .70710678 .70710678 230 130)"><path d="m7.4-3.6c2.4 0 3.6 1.2 3.6 3.6 0 2.4-1.2 3.6-3.6 3.6h-14.8c-2.4 0-3.6-1.2-3.6-3.6 0-2.4 1.2-3.6 3.6-3.6z" stroke="none"/><path d="m7.4-3.6c2.4 0 3.6 1.2 3.6 3.6 0 2.4-1.2 3.6-3.6 3.6h-14.8c-2.4 0-3.6-1.2-3.6-3.6 0-2.4 1.2-3.6 3.6-3.6z" fill="none" stroke="#666"/></g><g fill="#fff" stroke="#fff" transform="matrix(.70710678 -.70710678 .70710678 .70710678 250 130)"><path d="m7.4-3.6c2.4 0 3.6 1.2 3.6 3.6 0 2.4-1.2 3.6-3.6 3.6h-14.8c-2.4 0-3.6-1.2-3.6-3.6 0-2.4 1.2-3.6 3.6-3.6z" stroke="none"/><path d="m7.4-3.6c2.4 0 3.6 1.2 3.6 3.6 0 2.4-1.2 3.6-3.6 3.6h-14.8c-2.4 0-3.6-1.2-3.6-3.6 0-2.4 1.2-3.6 3.6-3.6z" fill="none" stroke="#666"/></g><g fill="#fff" stroke="#fff" transform="matrix(.70710678 -.70710678 .70710678 .70710678 270 130)"><path d="m7.4-3.6c2.4 0 3.6 1.2 3.6 3.6 0 2.4-1.2 3.6-3.6 3.6h-14.8c-2.4 0-3.6-1.2-3.6-3.6 0-2.4 1.2-3.6 3.6-3.6z" stroke="none"/><path d="m7.4-3.6c2.4 0 3.6 1.2 3.6 3.6 0 2.4-1.2 3.6-3.6 3.6h-14.8c-2.4 0-3.6-1.2-3.6-3.6 0-2.4 1.2-3.6 3.6-3.6z" fill="none" stroke="#666"/></g><g fill="#fff" stroke="#fff" transform="matrix(.70710678 -.70710678 .70710678 .70710678 50 150)"><path d="m7.4-3.6c2.4 0 3.6 1.2 3.6 3.6 0 2.4-1.2 3.6-3.6 3.6h-14.8c-2.4 0-3.6-1.2-3.6-3.6 0-2.4 1.2-3.6 3.6-3.6z" stroke="none"/><path d="m7.4-3.6c2.4 0 3.6 1.2 3.6 3.6 0 2.4-1.2 3.6-3.6 3.6h-14.8c-2.4 0-3.6-1.2-3.6-3.6 0-2.4 1.2-3.6 3.6-3.6z" fill="none" stroke="#666"/></g><g fill="#fff" stroke="#fff" transform="matrix(.70710678 -.70710678 .70710678 .70710678 70 150)"><path d="m7.4-3.6c2.4 0 3.6 1.2 3.6 3.6 0 2.4-1.2 3.6-3.6 3.6h-14.8c-2.4 0-3.6-1.2-3.6-3.6 0-2.4 1.2-3.6 3.6-3.6z" stroke="none"/><path d="m7.4-3.6c2.4 0 3.6 1.2 3.6 3.6 0 2.4-1.2 3.6-3.6 3.6h-14.8c-2.4 0-3.6-1.2-3.6-3.6 0-2.4 1.2-3.6 3.6-3.6z" fill="none" stroke="#666"/></g><g fill="#fff" stroke="#fff" transform="matrix(.70710678 -.70710678 .70710678 .70710678 90 150)"><path d="m7.4-3.6c2.4 0 3.6 1.2 3.6 3.6 0 2.4-1.2 3.6-3.6 3.6h-14.8c-2.4 0-3.6-1.2-3.6-3.6 0-2.4 1.2-3.6 3.6-3.6z" stroke="none"/><path d="m7.4-3.6c2.4 0 3.6 1.2 3.6 3.6 0 2.4-1.2 3.6-3.6 3.6h-14.8c-2.4 0-3.6-1.2-3.6-3.6 0-2.4 1.2-3.6 3.6-3.6z" fill="none" stroke="#666"/></g><g fill="#fff" stroke="#fff" transform="matrix(.70710678 -.70710678 .70710678 .70710678 110 150)"><path d="m7.4-3.6c2.4 0 3.6 1.2 3.6 3.6 0 2.4-1.2 3.6-3.6 3.6h-14.8c-2.4 0-3.6-1.2-3.6-3.6 0-2.4 1.2-3.6 3.6-3.6z" stroke="none"/><path d="m7.4-3.6c2.4 0 3.6 1.2 3.6 3.6 0 2.4-1.2 3.6-3.6 3.6h-14.8c-2.4 0-3.6-1.2-3.6-3.6 0-2.4 1.2-3.6 3.6-3.6z" fill="none" stroke="#666"/></g><g fill="#fff" stroke="#fff" transform="matrix(.70710678 -.70710678 .70710678 .70710678 130 150)"><path d="m7.4-3.6c2.4 0 3.6 1.2 3.6 3.6 0 2.4-1.2 3.6-3.6 3.6h-14.8c-2.4 0-3.6-1.2-3.6-3.6 0-2.4 1.2-3.6 3.6-3.6z" stroke="none"/><path d="m7.4-3.6c2.4 0 3.6 1.2 3.6 3.6 0 2.4-1.2 3.6-3.6 3.6h-14.8c-2.4 0-3.6-1.2-3.6-3.6 0-2.4 1.2-3.6 3.6-3.6z" fill="none" stroke="#666"/></g><g fill="#f60e44" stroke="#f60e44" transform="matrix(.70710678 -.70710678 .70710678 .70710678 150 150)"><path d="m7.4-3.6c2.4 0 3.6 1.2 3.6 3.6 0 2.4-1.2 3.6-3.6 3.6h-14.8c-2.4 0-3.6-1.2-3.6-3.6 0-2.4 1.2-3.6 3.6-3.6z" stroke="none"/><path d="m7.4-3.6c2.4 0 3.6 1.2 3.6 3.6 0 2.4-1.2 3.6-3.6 3.6h-14.8c-2.4 0-3.6-1.2-3.6-3.6 0-2.4 1.2-3.6 3.6-3.6z" fill="none" stroke="#fff"/></g><g fill="#f60e44" stroke="#f60e44" transform="matrix(.70710678 -.70710678 .70710678 .70710678 170 150)"><path d="m7.4-3.6c2.4 0 3.6 1.2 3.6 3.6 0 2.4-1.2 3.6-3.6 3.6h-14.8c-2.4 0-3.6-1.2-3.6-3.6 0-2.4 1.2-3.6 3.6-3.6z" stroke="none"/><path d="m7.4-3.6c2.4 0 3.6 1.2 3.6 3.6 0 2.4-1.2 3.6-3.6 3.6h-14.8c-2.4 0-3.6-1.2-3.6-3.6 0-2.4 1.2-3.6 3.6-3.6z" fill="none" stroke="#fff"/></g><g fill="#fff" stroke="#fff" transform="matrix(.70710678 -.70710678 .70710678 .70710678 190 150)"><path d="m7.4-3.6c2.4 0 3.6 1.2 3.6 3.6 0 2.4-1.2 3.6-3.6 3.6h-14.8c-2.4 0-3.6-1.2-3.6-3.6 0-2.4 1.2-3.6 3.6-3.6z" stroke="none"/><path d="m7.4-3.6c2.4 0 3.6 1.2 3.6 3.6 0 2.4-1.2 3.6-3.6 3.6h-14.8c-2.4 0-3.6-1.2-3.6-3.6 0-2.4 1.2-3.6 3.6-3.6z" fill="none" stroke="#666"/></g><g fill="#fff" stroke="#fff" transform="matrix(.70710678 -.70710678 .70710678 .70710678 210 150)"><path d="m7.4-3.6c2.4 0 3.6 1.2 3.6 3.6 0 2.4-1.2 3.6-3.6 3.6h-14.8c-2.4 0-3.6-1.2-3.6-3.6 0-2.4 1.2-3.6 3.6-3.6z" stroke="none"/><path d="m7.4-3.6c2.4 0 3.6 1.2 3.6 3.6 0 2.4-1.2 3.6-3.6 3.6h-14.8c-2.4 0-3.6-1.2-3.6-3.6 0-2.4 1.2-3.6 3.6-3.6z" fill="none" stroke="#666"/></g><g fill="#fff" stroke="#fff" transform="matrix(.70710678 -.70710678 .70710678 .70710678 230 150)"><path d="m7.4-3.6c2.4 0 3.6 1.2 3.6 3.6 0 2.4-1.2 3.6-3.6 3.6h-14.8c-2.4 0-3.6-1.2-3.6-3.6 0-2.4 1.2-3.6 3.6-3.6z" stroke="none"/><path d="m7.4-3.6c2.4 0 3.6 1.2 3.6 3.6 0 2.4-1.2 3.6-3.6 3.6h-14.8c-2.4 0-3.6-1.2-3.6-3.6 0-2.4 1.2-3.6 3.6-3.6z" fill="none" stroke="#666"/></g><g fill="#fff" stroke="#fff" transform="matrix(.70710678 -.70710678 .70710678 .70710678 250 150)"><path d="m7.4-3.6c2.4 0 3.6 1.2 3.6 3.6 0 2.4-1.2 3.6-3.6 3.6h-14.8c-2.4 0-3.6-1.2-3.6-3.6 0-2.4 1.2-3.6 3.6-3.6z" stroke="none"/><path d="m7.4-3.6c2.4 0 3.6 1.2 3.6 3.6 0 2.4-1.2 3.6-3.6 3.6h-14.8c-2.4 0-3.6-1.2-3.6-3.6 0-2.4 1.2-3.6 3.6-3.6z" fill="none" stroke="#666"/></g><g fill="#fff" stroke="#fff" transform="matrix(.70710678 -.70710678 .70710678 .70710678 270 150)"><path d="m7.4-3.6c2.4 0 3.6 1.2 3.6 3.6 0 2.4-1.2 3.6-3.6 3.6h-14.8c-2.4 0-3.6-1.2-3.6-3.6 0-2.4 1.2-3.6 3.6-3.6z" stroke="none"/><path d="m7.4-3.6c2.4 0 3.6 1.2 3.6 3.6 0 2.4-1.2 3.6-3.6 3.6h-14.8c-2.4 0-3.6-1.2-3.6-3.6 0-2.4 1.2-3.6 3.6-3.6z" fill="none" stroke="#666"/></g><g fill="#fff" stroke="#fff" transform="matrix(.70710678 -.70710678 .70710678 .70710678 50 170)"><path d="m7.4-3.6c2.4 0 3.6 1.2 3.6 3.6 0 2.4-1.2 3.6-3.6 3.6h-14.8c-2.4 0-3.6-1.2-3.6-3.6 0-2.4 1.2-3.6 3.6-3.6z" stroke="none"/><path d="m7.4-3.6c2.4 0 3.6 1.2 3.6 3.6 0 2.4-1.2 3.6-3.6 3.6h-14.8c-2.4 0-3.6-1.2-3.6-3.6 0-2.4 1.2-3.6 3.6-3.6z" fill="none" stroke="#666"/></g><g fill="#fff" stroke="#fff" transform="matrix(.70710678 -.70710678 .70710678 .70710678 70 170)"><path d="m7.4-3.6c2.4 0 3.6 1.2 3.6 3.6 0 2.4-1.2 3.6-3.6 3.6h-14.8c-2.4 0-3.6-1.2-3.6-3.6 0-2.4 1.2-3.6 3.6-3.6z" stroke="none"/><path d="m7.4-3.6c2.4 0 3.6 1.2 3.6 3.6 0 2.4-1.2 3.6-3.6 3.6h-14.8c-2.4 0-3.6-1.2-3.6-3.6 0-2.4 1.2-3.6 3.6-3.6z" fill="none" stroke="#666"/></g><g fill="#fff" stroke="#fff" transform="matrix(.70710678 -.70710678 .70710678 .70710678 90 170)"><path d="m7.4-3.6c2.4 0 3.6 1.2 3.6 3.6 0 2.4-1.2 3.6-3.6 3.6h-14.8c-2.4 0-3.6-1.2-3.6-3.6 0-2.4 1.2-3.6 3.6-3.6z" stroke="none"/><path d="m7.4-3.6c2.4 0 3.6 1.2 3.6 3.6 0 2.4-1.2 3.6-3.6 3.6h-14.8c-2.4 0-3.6-1.2-3.6-3.6 0-2.4 1.2-3.6 3.6-3.6z" fill="none" stroke="#666"/></g><g fill="#fff" stroke="#fff" transform="matrix(.70710678 -.70710678 .70710678 .70710678 110 170)"><path d="m7.4-3.6c2.4 0 3.6 1.2 3.6 3.6 0 2.4-1.2 3.6-3.6 3.6h-14.8c-2.4 0-3.6-1.2-3.6-3.6 0-2.4 1.2-3.6 3.6-3.6z" stroke="none"/><path d="m7.4-3.6c2.4 0 3.6 1.2 3.6 3.6 0 2.4-1.2 3.6-3.6 3.6h-14.8c-2.4 0-3.6-1.2-3.6-3.6 0-2.4 1.2-3.6 3.6-3.6z" fill="none" stroke="#666"/></g><g fill="#fff" stroke="#fff" transform="matrix(.70710678 -.70710678 .70710678 .70710678 130 170)"><path d="m7.4-3.6c2.4 0 3.6 1.2 3.6 3.6 0 2.4-1.2 3.6-3.6 3.6h-14.8c-2.4 0-3.6-1.2-3.6-3.6 0-2.4 1.2-3.6 3.6-3.6z" stroke="none"/><path d="m7.4-3.6c2.4 0 3.6 1.2 3.6 3.6 0 2.4-1.2 3.6-3.6 3.6h-14.8c-2.4 0-3.6-1.2-3.6-3.6 0-2.4 1.2-3.6 3.6-3.6z" fill="none" stroke="#666"/></g><g fill="#f60e44" stroke="#f60e44" transform="matrix(.70710678 -.70710678 .70710678 .70710678 150 170)"><path d="m7.4-3.6c2.4 0 3.6 1.2 3.6 3.6 0 2.4-1.2 3.6-3.6 3.6h-14.8c-2.4 0-3.6-1.2-3.6-3.6 0-2.4 1.2-3.6 3.6-3.6z" stroke="none"/><path d="m7.4-3.6c2.4 0 3.6 1.2 3.6 3.6 0 2.4-1.2 3.6-3.6 3.6h-14.8c-2.4 0-3.6-1.2-3.6-3.6 0-2.4 1.2-3.6 3.6-3.6z" fill="none" stroke="#fff"/></g><g fill="#f60e44" stroke="#f60e44" transform="matrix(.70710678 -.70710678 .70710678 .70710678 170 170)"><path d="m7.4-3.6c2.4 0 3.6 1.2 3.6 3.6 0 2.4-1.2 3.6-3.6 3.6h-14.8c-2.4 0-3.6-1.2-3.6-3.6 0-2.4 1.2-3.6 3.6-3.6z" stroke="none"/><path d="m7.4-3.6c2.4 0 3.6 1.2 3.6 3.6 0 2.4-1.2 3.6-3.6 3.6h-14.8c-2.4 0-3.6-1.2-3.6-3.6 0-2.4 1.2-3.6 3.6-3.6z" fill="none" stroke="#fff"/></g><g fill="#fff" stroke="#fff" transform="matrix(.70710678 -.70710678 .70710678 .70710678 190 170)"><path d="m7.4-3.6c2.4 0 3.6 1.2 3.6 3.6 0 2.4-1.2 3.6-3.6 3.6h-14.8c-2.4 0-3.6-1.2-3.6-3.6 0-2.4 1.2-3.6 3.6-3.6z" stroke="none"/><path d="m7.4-3.6c2.4 0 3.6 1.2 3.6 3.6 0 2.4-1.2 3.6-3.6 3.6h-14.8c-2.4 0-3.6-1.2-3.6-3.6 0-2.4 1.2-3.6 3.6-3.6z" fill="none" stroke="#666"/></g><g fill="#fff" stroke="#fff" transform="matrix(.70710678 -.70710678 .70710678 .70710678 210 170)"><path d="m7.4-3.6c2.4 0 3.6 1.2 3.6 3.6 0 2.4-1.2 3.6-3.6 3.6h-14.8c-2.4 0-3.6-1.2-3.6-3.6 0-2.4 1.2-3.6 3.6-3.6z" stroke="none"/><path d="m7.4-3.6c2.4 0 3.6 1.2 3.6 3.6 0 2.4-1.2 3.6-3.6 3.6h-14.8c-2.4 0-3.6-1.2-3.6-3.6 0-2.4 1.2-3.6 3.6-3.6z" fill="none" stroke="#666"/></g><g fill="#fff" stroke="#fff" transform="matrix(.70710678 -.70710678 .70710678 .70710678 230 170)"><path d="m7.4-3.6c2.4 0 3.6 1.2 3.6 3.6 0 2.4-1.2 3.6-3.6 3.6h-14.8c-2.4 0-3.6-1.2-3.6-3.6 0-2.4 1.2-3.6 3.6-3.6z" stroke="none"/><path d="m7.4-3.6c2.4 0 3.6 1.2 3.6 3.6 0 2.4-1.2 3.6-3.6 3.6h-14.8c-2.4 0-3.6-1.2-3.6-3.6 0-2.4 1.2-3.6 3.6-3.6z" fill="none" stroke="#666"/></g><g fill="#fff" stroke="#fff" transform="matrix(.70710678 -.70710678 .70710678 .70710678 250 170)"><path d="m7.4-3.6c2.4 0 3.6 1.2 3.6 3.6 0 2.4-1.2 3.6-3.6 3.6h-14.8c-2.4 0-3.6-1.2-3.6-3.6 0-2.4 1.2-3.6 3.6-3.6z" stroke="none"/><path d="m7.4-3.6c2.4 0 3.6 1.2 3.6 3.6 0 2.4-1.2 3.6-3.6 3.6h-14.8c-2.4 0-3.6-1.2-3.6-3.6 0-2.4 1.2-3.6 3.6-3.6z" fill="none" stroke="#666"/></g><g fill="#fff" stroke="#fff" transform="matrix(.70710678 -.70710678 .70710678 .70710678 270 170)"><path d="m7.4-3.6c2.4 0 3.6 1.2 3.6 3.6 0 2.4-1.2 3.6-3.6 3.6h-14.8c-2.4 0-3.6-1.2-3.6-3.6 0-2.4 1.2-3.6 3.6-3.6z" stroke="none"/><path d="m7.4-3.6c2.4 0 3.6 1.2 3.6 3.6 0 2.4-1.2 3.6-3.6 3.6h-14.8c-2.4 0-3.6-1.2-3.6-3.6 0-2.4 1.2-3.6 3.6-3.6z" fill="none" stroke="#666"/></g><g fill="#f60e44" stroke="#f60e44" transform="matrix(.70710678 -.70710678 .70710678 .70710678 150 190)"><path d="m7.4-3.6c2.4 0 3.6 1.2 3.6 3.6 0 2.4-1.2 3.6-3.6 3.6h-14.8c-2.4 0-3.6-1.2-3.6-3.6 0-2.4 1.2-3.6 3.6-3.6z" stroke="none"/><path d="m7.4-3.6c2.4 0 3.6 1.2 3.6 3.6 0 2.4-1.2 3.6-3.6 3.6h-14.8c-2.4 0-3.6-1.2-3.6-3.6 0-2.4 1.2-3.6 3.6-3.6z" fill="none" stroke="#fff"/></g><g fill="#f60e44" stroke="#f60e44" transform="matrix(.70710678 -.70710678 .70710678 .70710678 170 190)"><path d="m7.4-3.6c2.4 0 3.6 1.2 3.6 3.6 0 2.4-1.2 3.6-3.6 3.6h-14.8c-2.4 0-3.6-1.2-3.6-3.6 0-2.4 1.2-3.6 3.6-3.6z" stroke="none"/><path d="m7.4-3.6c2.4 0 3.6 1.2 3.6 3.6 0 2.4-1.2 3.6-3.6 3.6h-14.8c-2.4 0-3.6-1.2-3.6-3.6 0-2.4 1.2-3.6 3.6-3.6z" fill="none" stroke="#fff"/></g><g fill="#fff" stroke="#fff" transform="matrix(.70710678 -.70710678 .70710678 .70710678 70 210)"><path d="m7.4-3.6c2.4 0 3.6 1.2 3.6 3.6 0 2.4-1.2 3.6-3.6 3.6h-14.8c-2.4 0-3.6-1.2-3.6-3.6 0-2.4 1.2-3.6 3.6-3.6z" stroke="none"/><path d="m7.4-3.6c2.4 0 3.6 1.2 3.6 3.6 0 2.4-1.2 3.6-3.6 3.6h-14.8c-2.4 0-3.6-1.2-3.6-3.6 0-2.4 1.2-3.6 3.6-3.6z" fill="none" stroke="#666"/></g><g fill="#fff" stroke="#fff" transform="matrix(.70710678 -.70710678 .70710678 .70710678 90 210)"><path d="m7.4-3.6c2.4 0 3.6 1.2 3.6 3.6 0 2.4-1.2 3.6-3.6 3.6h-14.8c-2.4 0-3.6-1.2-3.6-3.6 0-2.4 1.2-3.6 3.6-3.6z" stroke="none"/><path d="m7.4-3.6c2.4 0 3.6 1.2 3.6 3.6 0 2.4-1.2 3.6-3.6 3.6h-14.8c-2.4 0-3.6-1.2-3.6-3.6 0-2.4 1.2-3.6 3.6-3.6z" fill="none" stroke="#666"/></g><g fill="#fff" stroke="#fff" transform="matrix(.70710678 -.70710678 .70710678 .70710678 110 210)"><path d="m7.4-3.6c2.4 0 3.6 1.2 3.6 3.6 0 2.4-1.2 3.6-3.6 3.6h-14.8c-2.4 0-3.6-1.2-3.6-3.6 0-2.4 1.2-3.6 3.6-3.6z" stroke="none"/><path d="m7.4-3.6c2.4 0 3.6 1.2 3.6 3.6 0 2.4-1.2 3.6-3.6 3.6h-14.8c-2.4 0-3.6-1.2-3.6-3.6 0-2.4 1.2-3.6 3.6-3.6z" fill="none" stroke="#666"/></g><g fill="#fff" stroke="#fff" transform="matrix(.70710678 -.70710678 .70710678 .70710678 130 210)"><path d="m7.4-3.6c2.4 0 3.6 1.2 3.6 3.6 0 2.4-1.2 3.6-3.6 3.6h-14.8c-2.4 0-3.6-1.2-3.6-3.6 0-2.4 1.2-3.6 3.6-3.6z" stroke="none"/><path d="m7.4-3.6c2.4 0 3.6 1.2 3.6 3.6 0 2.4-1.2 3.6-3.6 3.6h-14.8c-2.4 0-3.6-1.2-3.6-3.6 0-2.4 1.2-3.6 3.6-3.6z" fill="none" stroke="#666"/></g><g fill="#f60e44" stroke="#f60e44" transform="matrix(.70710678 -.70710678 .70710678 .70710678 150 210)"><path d="m7.4-3.6c2.4 0 3.6 1.2 3.6 3.6 0 2.4-1.2 3.6-3.6 3.6h-14.8c-2.4 0-3.6-1.2-3.6-3.6 0-2.4 1.2-3.6 3.6-3.6z" stroke="none"/><path d="m7.4-3.6c2.4 0 3.6 1.2 3.6 3.6 0 2.4-1.2 3.6-3.6 3.6h-14.8c-2.4 0-3.6-1.2-3.6-3.6 0-2.4 1.2-3.6 3.6-3.6z" fill="none" stroke="#fff"/></g><g fill="#f60e44" stroke="#f60e44" transform="matrix(.70710678 -.70710678 .70710678 .70710678 170 210)"><path d="m7.4-3.6c2.4 0 3.6 1.2 3.6 3.6 0 2.4-1.2 3.6-3.6 3.6h-14.8c-2.4 0-3.6-1.2-3.6-3.6 0-2.4 1.2-3.6 3.6-3.6z" stroke="none"/><path d="m7.4-3.6c2.4 0 3.6 1.2 3.6 3.6 0 2.4-1.2 3.6-3.6 3.6h-14.8c-2.4 0-3.6-1.2-3.6-3.6 0-2.4 1.2-3.6 3.6-3.6z" fill="none" stroke="#fff"/></g><g fill="#fff" stroke="#fff" transform="matrix(.70710678 -.70710678 .70710678 .70710678 190 210)"><path d="m7.4-3.6c2.4 0 3.6 1.2 3.6 3.6 0 2.4-1.2 3.6-3.6 3.6h-14.8c-2.4 0-3.6-1.2-3.6-3.6 0-2.4 1.2-3.6 3.6-3.6z" stroke="none"/><path d="m7.4-3.6c2.4 0 3.6 1.2 3.6 3.6 0 2.4-1.2 3.6-3.6 3.6h-14.8c-2.4 0-3.6-1.2-3.6-3.6 0-2.4 1.2-3.6 3.6-3.6z" fill="none" stroke="#666"/></g><g fill="#fff" stroke="#fff" transform="matrix(.70710678 -.70710678 .70710678 .70710678 210 210)"><path d="m7.4-3.6c2.4 0 3.6 1.2 3.6 3.6 0 2.4-1.2 3.6-3.6 3.6h-14.8c-2.4 0-3.6-1.2-3.6-3.6 0-2.4 1.2-3.6 3.6-3.6z" stroke="none"/><path d="m7.4-3.6c2.4 0 3.6 1.2 3.6 3.6 0 2.4-1.2 3.6-3.6 3.6h-14.8c-2.4 0-3.6-1.2-3.6-3.6 0-2.4 1.2-3.6 3.6-3.6z" fill="none" stroke="#666"/></g><g fill="#fff" stroke="#fff" transform="matrix(.70710678 -.70710678 .70710678 .70710678 230 210)"><path d="m7.4-3.6c2.4 0 3.6 1.2 3.6 3.6 0 2.4-1.2 3.6-3.6 3.6h-14.8c-2.4 0-3.6-1.2-3.6-3.6 0-2.4 1.2-3.6 3.6-3.6z" stroke="none"/><path d="m7.4-3.6c2.4 0 3.6 1.2 3.6 3.6 0 2.4-1.2 3.6-3.6 3.6h-14.8c-2.4 0-3.6-1.2-3.6-3.6 0-2.4 1.2-3.6 3.6-3.6z" fill="none" stroke="#666"/></g><g fill="#fff" stroke="#fff" transform="matrix(.70710678 -.70710678 .70710678 .70710678 250 210)"><path d="m7.4-3.6c2.4 0 3.6 1.2 3.6 3.6 0 2.4-1.2 3.6-3.6 3.6h-14.8c-2.4 0-3.6-1.2-3.6-3.6 0-2.4 1.2-3.6 3.6-3.6z" stroke="none"/><path d="m7.4-3.6c2.4 0 3.6 1.2 3.6 3.6 0 2.4-1.2 3.6-3.6 3.6h-14.8c-2.4 0-3.6-1.2-3.6-3.6 0-2.4 1.2-3.6 3.6-3.6z" fill="none" stroke="#666"/></g><g fill="#fff" stroke="#fff" transform="matrix(.70710678 -.70710678 .70710678 .70710678 70 230)"><path d="m7.4-3.6c2.4 0 3.6 1.2 3.6 3.6 0 2.4-1.2 3.6-3.6 3.6h-14.8c-2.4 0-3.6-1.2-3.6-3.6 0-2.4 1.2-3.6 3.6-3.6z" stroke="none"/><path d="m7.4-3.6c2.4 0 3.6 1.2 3.6 3.6 0 2.4-1.2 3.6-3.6 3.6h-14.8c-2.4 0-3.6-1.2-3.6-3.6 0-2.4 1.2-3.6 3.6-3.6z" fill="none" stroke="#666"/></g><g fill="#fff" stroke="#fff" transform="matrix(.70710678 -.70710678 .70710678 .70710678 90 230)"><path d="m7.4-3.6c2.4 0 3.6 1.2 3.6 3.6 0 2.4-1.2 3.6-3.6 3.6h-14.8c-2.4 0-3.6-1.2-3.6-3.6 0-2.4 1.2-3.6 3.6-3.6z" stroke="none"/><path d="m7.4-3.6c2.4 0 3.6 1.2 3.6 3.6 0 2.4-1.2 3.6-3.6 3.6h-14.8c-2.4 0-3.6-1.2-3.6-3.6 0-2.4 1.2-3.6 3.6-3.6z" fill="none" stroke="#666"/></g><g fill="#fff" stroke="#fff" transform="matrix(.70710678 -.70710678 .70710678 .70710678 110 230)"><path d="m7.4-3.6c2.4 0 3.6 1.2 3.6 3.6 0 2.4-1.2 3.6-3.6 3.6h-14.8c-2.4 0-3.6-1.2-3.6-3.6 0-2.4 1.2-3.6 3.6-3.6z" stroke="none"/><path d="m7.4-3.6c2.4 0 3.6 1.2 3.6 3.6 0 2.4-1.2 3.6-3.6 3.6h-14.8c-2.4 0-3.6-1.2-3.6-3.6 0-2.4 1.2-3.6 3.6-3.6z" fill="none" stroke="#666"/></g><g fill="#fff" stroke="#fff" transform="matrix(.70710678 -.70710678 .70710678 .70710678 130 230)"><path d="m7.4-3.6c2.4 0 3.6 1.2 3.6 3.6 0 2.4-1.2 3.6-3.6 3.6h-14.8c-2.4 0-3.6-1.2-3.6-3.6 0-2.4 1.2-3.6 3.6-3.6z" stroke="none"/><path d="m7.4-3.6c2.4 0 3.6 1.2 3.6 3.6 0 2.4-1.2 3.6-3.6 3.6h-14.8c-2.4 0-3.6-1.2-3.6-3.6 0-2.4 1.2-3.6 3.6-3.6z" fill="none" stroke="#666"/></g><g fill="#f60e44" stroke="#f60e44" transform="matrix(.70710678 -.70710678 .70710678 .70710678 150 230)"><path d="m7.4-3.6c2.4 0 3.6 1.2 3.6 3.6 0 2.4-1.2 3.6-3.6 3.6h-14.8c-2.4 0-3.6-1.2-3.6-3.6 0-2.4 1.2-3.6 3.6-3.6z" stroke="none"/><path d="m7.4-3.6c2.4 0 3.6 1.2 3.6 3.6 0 2.4-1.2 3.6-3.6 3.6h-14.8c-2.4 0-3.6-1.2-3.6-3.6 0-2.4 1.2-3.6 3.6-3.6z" fill="none" stroke="#fff"/></g><g fill="#f60e44" stroke="#f60e44" transform="matrix(.70710678 -.70710678 .70710678 .70710678 170 230)"><path d="m7.4-3.6c2.4 0 3.6 1.2 3.6 3.6 0 2.4-1.2 3.6-3.6 3.6h-14.8c-2.4 0-3.6-1.2-3.6-3.6 0-2.4 1.2-3.6 3.6-3.6z" stroke="none"/><path d="m7.4-3.6c2.4 0 3.6 1.2 3.6 3.6 0 2.4-1.2 3.6-3.6 3.6h-14.8c-2.4 0-3.6-1.2-3.6-3.6 0-2.4 1.2-3.6 3.6-3.6z" fill="none" stroke="#fff"/></g><g fill="#fff" stroke="#fff" transform="matrix(.70710678 -.70710678 .70710678 .70710678 190 230)"><path d="m7.4-3.6c2.4 0 3.6 1.2 3.6 3.6 0 2.4-1.2 3.6-3.6 3.6h-14.8c-2.4 0-3.6-1.2-3.6-3.6 0-2.4 1.2-3.6 3.6-3.6z" stroke="none"/><path d="m7.4-3.6c2.4 0 3.6 1.2 3.6 3.6 0 2.4-1.2 3.6-3.6 3.6h-14.8c-2.4 0-3.6-1.2-3.6-3.6 0-2.4 1.2-3.6 3.6-3.6z" fill="none" stroke="#666"/></g><g fill="#fff" stroke="#fff" transform="matrix(.70710678 -.70710678 .70710678 .70710678 210 230)"><path d="m7.4-3.6c2.4 0 3.6 1.2 3.6 3.6 0 2.4-1.2 3.6-3.6 3.6h-14.8c-2.4 0-3.6-1.2-3.6-3.6 0-2.4 1.2-3.6 3.6-3.6z" stroke="none"/><path d="m7.4-3.6c2.4 0 3.6 1.2 3.6 3.6 0 2.4-1.2 3.6-3.6 3.6h-14.8c-2.4 0-3.6-1.2-3.6-3.6 0-2.4 1.2-3.6 3.6-3.6z" fill="none" stroke="#666"/></g><g fill="#fff" stroke="#fff" transform="matrix(.70710678 -.70710678 .70710678 .70710678 230 230)"><path d="m7.4-3.6c2.4 0 3.6 1.2 3.6 3.6 0 2.4-1.2 3.6-3.6 3.6h-14.8c-2.4 0-3.6-1.2-3.6-3.6 0-2.4 1.2-3.6 3.6-3.6z" stroke="none"/><path d="m7.4-3.6c2.4 0 3.6 1.2 3.6 3.6 0 2.4-1.2 3.6-3.6 3.6h-14.8c-2.4 0-3.6-1.2-3.6-3.6 0-2.4 1.2-3.6 3.6-3.6z" fill="none" stroke="#666"/></g><g fill="#fff" stroke="#fff" transform="matrix(.70710678 -.70710678 .70710678 .70710678 250 230)"><path d="m7.4-3.6c2.4 0 3.6 1.2 3.6 3.6 0 2.4-1.2 3.6-3.6 3.6h-14.8c-2.4 0-3.6-1.2-3.6-3.6 0-2.4 1.2-3.6 3.6-3.6z" stroke="none"/><path d="m7.4-3.6c2.4 0 3.6 1.2 3.6 3.6 0 2.4-1.2 3.6-3.6 3.6h-14.8c-2.4 0-3.6-1.2-3.6-3.6 0-2.4 1.2-3.6 3.6-3.6z" fill="none" stroke="#666"/></g><g fill="#fff" stroke="#fff" transform="matrix(.70710678 -.70710678 .70710678 .70710678 70 250)"><path d="m7.4-3.6c2.4 0 3.6 1.2 3.6 3.6 0 2.4-1.2 3.6-3.6 3.6h-14.8c-2.4 0-3.6-1.2-3.6-3.6 0-2.4 1.2-3.6 3.6-3.6z" stroke="none"/><path d="m7.4-3.6c2.4 0 3.6 1.2 3.6 3.6 0 2.4-1.2 3.6-3.6 3.6h-14.8c-2.4 0-3.6-1.2-3.6-3.6 0-2.4 1.2-3.6 3.6-3.6z" fill="none" stroke="#666"/></g><g fill="#fff" stroke="#fff" transform="matrix(.70710678 -.70710678 .70710678 .70710678 90 250)"><path d="m7.4-3.6c2.4 0 3.6 1.2 3.6 3.6 0 2.4-1.2 3.6-3.6 3.6h-14.8c-2.4 0-3.6-1.2-3.6-3.6 0-2.4 1.2-3.6 3.6-3.6z" stroke="none"/><path d="m7.4-3.6c2.4 0 3.6 1.2 3.6 3.6 0 2.4-1.2 3.6-3.6 3.6h-14.8c-2.4 0-3.6-1.2-3.6-3.6 0-2.4 1.2-3.6 3.6-3.6z" fill="none" stroke="#666"/></g><g fill="#fff" stroke="#fff" transform="matrix(.70710678 -.70710678 .70710678 .70710678 110 250)"><path d="m7.4-3.6c2.4 0 3.6 1.2 3.6 3.6 0 2.4-1.2 3.6-3.6 3.6h-14.8c-2.4 0-3.6-1.2-3.6-3.6 0-2.4 1.2-3.6 3.6-3.6z" stroke="none"/><path d="m7.4-3.6c2.4 0 3.6 1.2 3.6 3.6 0 2.4-1.2 3.6-3.6 3.6h-14.8c-2.4 0-3.6-1.2-3.6-3.6 0-2.4 1.2-3.6 3.6-3.6z" fill="none" stroke="#666"/></g><g fill="#fff" stroke="#fff" transform="matrix(.70710678 -.70710678 .70710678 .70710678 130 250)"><path d="m7.4-3.6c2.4 0 3.6 1.2 3.6 3.6 0 2.4-1.2 3.6-3.6 3.6h-14.8c-2.4 0-3.6-1.2-3.6-3.6 0-2.4 1.2-3.6 3.6-3.6z" stroke="none"/><path d="m7.4-3.6c2.4 0 3.6 1.2 3.6 3.6 0 2.4-1.2 3.6-3.6 3.6h-14.8c-2.4 0-3.6-1.2-3.6-3.6 0-2.4 1.2-3.6 3.6-3.6z" fill="none" stroke="#666"/></g><g fill="#f60e44" stroke="#f60e44" transform="matrix(.70710678 -.70710678 .70710678 .70710678 150 250)"><path d="m7.4-3.6c2.4 0 3.6 1.2 3.6 3.6 0 2.4-1.2 3.6-3.6 3.6h-14.8c-2.4 0-3.6-1.2-3.6-3.6 0-2.4 1.2-3.6 3.6-3.6z" stroke="none"/><path d="m7.4-3.6c2.4 0 3.6 1.2 3.6 3.6 0 2.4-1.2 3.6-3.6 3.6h-14.8c-2.4 0-3.6-1.2-3.6-3.6 0-2.4 1.2-3.6 3.6-3.6z" fill="none" stroke="#fff"/></g><g fill="#f60e44" stroke="#f60e44" transform="matrix(.70710678 -.70710678 .70710678 .70710678 170 250)"><path d="m7.4-3.6c2.4 0 3.6 1.2 3.6 3.6 0 2.4-1.2 3.6-3.6 3.6h-14.8c-2.4 0-3.6-1.2-3.6-3.6 0-2.4 1.2-3.6 3.6-3.6z" stroke="none"/><path d="m7.4-3.6c2.4 0 3.6 1.2 3.6 3.6 0 2.4-1.2 3.6-3.6 3.6h-14.8c-2.4 0-3.6-1.2-3.6-3.6 0-2.4 1.2-3.6 3.6-3.6z" fill="none" stroke="#fff"/></g><g fill="#fff" stroke="#fff" transform="matrix(.70710678 -.70710678 .70710678 .70710678 190 250)"><path d="m7.4-3.6c2.4 0 3.6 1.2 3.6 3.6 0 2.4-1.2 3.6-3.6 3.6h-14.8c-2.4 0-3.6-1.2-3.6-3.6 0-2.4 1.2-3.6 3.6-3.6z" stroke="none"/><path d="m7.4-3.6c2.4 0 3.6 1.2 3.6 3.6 0 2.4-1.2 3.6-3.6 3.6h-14.8c-2.4 0-3.6-1.2-3.6-3.6 0-2.4 1.2-3.6 3.6-3.6z" fill="none" stroke="#666"/></g><g fill="#fff" stroke="#fff" transform="matrix(.70710678 -.70710678 .70710678 .70710678 210 250)"><path d="m7.4-3.6c2.4 0 3.6 1.2 3.6 3.6 0 2.4-1.2 3.6-3.6 3.6h-14.8c-2.4 0-3.6-1.2-3.6-3.6 0-2.4 1.2-3.6 3.6-3.6z" stroke="none"/><path d="m7.4-3.6c2.4 0 3.6 1.2 3.6 3.6 0 2.4-1.2 3.6-3.6 3.6h-14.8c-2.4 0-3.6-1.2-3.6-3.6 0-2.4 1.2-3.6 3.6-3.6z" fill="none" stroke="#666"/></g><g fill="#fff" stroke="#fff" transform="matrix(.70710678 -.70710678 .70710678 .70710678 230 250)"><path d="m7.4-3.6c2.4 0 3.6 1.2 3.6 3.6 0 2.4-1.2 3.6-3.6 3.6h-14.8c-2.4 0-3.6-1.2-3.6-3.6 0-2.4 1.2-3.6 3.6-3.6z" stroke="none"/><path d="m7.4-3.6c2.4 0 3.6 1.2 3.6 3.6 0 2.4-1.2 3.6-3.6 3.6h-14.8c-2.4 0-3.6-1.2-3.6-3.6 0-2.4 1.2-3.6 3.6-3.6z" fill="none" stroke="#666"/></g><g fill="#fff" stroke="#fff" transform="matrix(.70710678 -.70710678 .70710678 .70710678 250 250)"><path d="m7.4-3.6c2.4 0 3.6 1.2 3.6 3.6 0 2.4-1.2 3.6-3.6 3.6h-14.8c-2.4 0-3.6-1.2-3.6-3.6 0-2.4 1.2-3.6 3.6-3.6z" stroke="none"/><path d="m7.4-3.6c2.4 0 3.6 1.2 3.6 3.6 0 2.4-1.2 3.6-3.6 3.6h-14.8c-2.4 0-3.6-1.2-3.6-3.6 0-2.4 1.2-3.6 3.6-3.6z" fill="none" stroke="#666"/></g><g fill="#fff" stroke="#fff" transform="matrix(.70710678 -.70710678 .70710678 .70710678 70 270)"><path d="m7.4-3.6c2.4 0 3.6 1.2 3.6 3.6 0 2.4-1.2 3.6-3.6 3.6h-14.8c-2.4 0-3.6-1.2-3.6-3.6 0-2.4 1.2-3.6 3.6-3.6z" stroke="none"/><path d="m7.4-3.6c2.4 0 3.6 1.2 3.6 3.6 0 2.4-1.2 3.6-3.6 3.6h-14.8c-2.4 0-3.6-1.2-3.6-3.6 0-2.4 1.2-3.6 3.6-3.6z" fill="none" stroke="#666"/></g><g fill="#fff" stroke="#fff" transform="matrix(.70710678 -.70710678 .70710678 .70710678 90 270)"><path d="m7.4-3.6c2.4 0 3.6 1.2 3.6 3.6 0 2.4-1.2 3.6-3.6 3.6h-14.8c-2.4 0-3.6-1.2-3.6-3.6 0-2.4 1.2-3.6 3.6-3.6z" stroke="none"/><path d="m7.4-3.6c2.4 0 3.6 1.2 3.6 3.6 0 2.4-1.2 3.6-3.6 3.6h-14.8c-2.4 0-3.6-1.2-3.6-3.6 0-2.4 1.2-3.6 3.6-3.6z" fill="none" stroke="#666"/></g><g fill="#fff" stroke="#fff" transform="matrix(.70710678 -.70710678 .70710678 .70710678 110 270)"><path d="m7.4-3.6c2.4 0 3.6 1.2 3.6 3.6 0 2.4-1.2 3.6-3.6 3.6h-14.8c-2.4 0-3.6-1.2-3.6-3.6 0-2.4 1.2-3.6 3.6-3.6z" stroke="none"/><path d="m7.4-3.6c2.4 0 3.6 1.2 3.6 3.6 0 2.4-1.2 3.6-3.6 3.6h-14.8c-2.4 0-3.6-1.2-3.6-3.6 0-2.4 1.2-3.6 3.6-3.6z" fill="none" stroke="#666"/></g><g fill="#fff" stroke="#fff" transform="matrix(.70710678 -.70710678 .70710678 .70710678 130 270)"><path d="m7.4-3.6c2.4 0 3.6 1.2 3.6 3.6 0 2.4-1.2 3.6-3.6 3.6h-14.8c-2.4 0-3.6-1.2-3.6-3.6 0-2.4 1.2-3.6 3.6-3.6z" stroke="none"/><path d="m7.4-3.6c2.4 0 3.6 1.2 3.6 3.6 0 2.4-1.2 3.6-3.6 3.6h-14.8c-2.4 0-3.6-1.2-3.6-3.6 0-2.4 1.2-3.6 3.6-3.6z" fill="none" stroke="#666"/></g><g fill="#f60e44" stroke="#f60e44" transform="matrix(.70710678 -.70710678 .70710678 .70710678 150 270)"><path d="m7.4-3.6c2.4 0 3.6 1.2 3.6 3.6 0 2.4-1.2 3.6-3.6 3.6h-14.8c-2.4 0-3.6-1.2-3.6-3.6 0-2.4 1.2-3.6 3.6-3.6z" stroke="none"/><path d="m7.4-3.6c2.4 0 3.6 1.2 3.6 3.6 0 2.4-1.2 3.6-3.6 3.6h-14.8c-2.4 0-3.6-1.2-3.6-3.6 0-2.4 1.2-3.6 3.6-3.6z" fill="none" stroke="#fff"/></g><g fill="#f60e44" stroke="#f60e44" transform="matrix(.70710678 -.70710678 .70710678 .70710678 170 270)"><path d="m7.4-3.6c2.4 0 3.6 1.2 3.6 3.6 0 2.4-1.2 3.6-3.6 3.6h-14.8c-2.4 0-3.6-1.2-3.6-3.6 0-2.4 1.2-3.6 3.6-3.6z" stroke="none"/><path d="m7.4-3.6c2.4 0 3.6 1.2 3.6 3.6 0 2.4-1.2 3.6-3.6 3.6h-14.8c-2.4 0-3.6-1.2-3.6-3.6 0-2.4 1.2-3.6 3.6-3.6z" fill="none" stroke="#fff"/></g><g fill="#fff" stroke="#fff" transform="matrix(.70710678 -.70710678 .70710678 .70710678 190 270)"><path d="m7.4-3.6c2.4 0 3.6 1.2 3.6 3.6 0 2.4-1.2 3.6-3.6 3.6h-14.8c-2.4 0-3.6-1.2-3.6-3.6 0-2.4 1.2-3.6 3.6-3.6z" stroke="none"/><path d="m7.4-3.6c2.4 0 3.6 1.2 3.6 3.6 0 2.4-1.2 3.6-3.6 3.6h-14.8c-2.4 0-3.6-1.2-3.6-3.6 0-2.4 1.2-3.6 3.6-3.6z" fill="none" stroke="#666"/></g><g fill="#fff" stroke="#fff" transform="matrix(.70710678 -.70710678 .70710678 .70710678 210 270)"><path d="m7.4-3.6c2.4 0 3.6 1.2 3.6 3.6 0 2.4-1.2 3.6-3.6 3.6h-14.8c-2.4 0-3.6-1.2-3.6-3.6 0-2.4 1.2-3.6 3.6-3.6z" stroke="none"/><path d="m7.4-3.6c2.4 0 3.6 1.2 3.6 3.6 0 2.4-1.2 3.6-3.6 3.6h-14.8c-2.4 0-3.6-1.2-3.6-3.6 0-2.4 1.2-3.6 3.6-3.6z" fill="none" stroke="#666"/></g><g fill="#fff" stroke="#fff" transform="matrix(.70710678 -.70710678 .70710678 .70710678 230 270)"><path d="m7.4-3.6c2.4 0 3.6 1.2 3.6 3.6 0 2.4-1.2 3.6-3.6 3.6h-14.8c-2.4 0-3.6-1.2-3.6-3.6 0-2.4 1.2-3.6 3.6-3.6z" stroke="none"/><path d="m7.4-3.6c2.4 0 3.6 1.2 3.6 3.6 0 2.4-1.2 3.6-3.6 3.6h-14.8c-2.4 0-3.6-1.2-3.6-3.6 0-2.4 1.2-3.6 3.6-3.6z" fill="none" stroke="#666"/></g><g fill="#fff" stroke="#fff" transform="matrix(.70710678 -.70710678 .70710678 .70710678 250 270)"><path d="m7.4-3.6c2.4 0 3.6 1.2 3.6 3.6 0 2.4-1.2 3.6-3.6 3.6h-14.8c-2.4 0-3.6-1.2-3.6-3.6 0-2.4 1.2-3.6 3.6-3.6z" stroke="none"/><path d="m7.4-3.6c2.4 0 3.6 1.2 3.6 3.6 0 2.4-1.2 3.6-3.6 3.6h-14.8c-2.4 0-3.6-1.2-3.6-3.6 0-2.4 1.2-3.6 3.6-3.6z" fill="none" stroke="#666"/></g><g fill="#fff" stroke="#fff" transform="matrix(.70710678 -.70710678 .70710678 .70710678 70 290)"><path d="m7.4-3.6c2.4 0 3.6 1.2 3.6 3.6 0 2.4-1.2 3.6-3.6 3.6h-14.8c-2.4 0-3.6-1.2-3.6-3.6 0-2.4 1.2-3.6 3.6-3.6z" stroke="none"/><path d="m7.4-3.6c2.4 0 3.6 1.2 3.6 3.6 0 2.4-1.2 3.6-3.6 3.6h-14.8c-2.4 0-3.6-1.2-3.6-3.6 0-2.4 1.2-3.6 3.6-3.6z" fill="none" stroke="#666"/></g><g fill="#fff" stroke="#fff" transform="matrix(.70710678 -.70710678 .70710678 .70710678 90 290)"><path d="m7.4-3.6c2.4 0 3.6 1.2 3.6 3.6 0 2.4-1.2 3.6-3.6 3.6h-14.8c-2.4 0-3.6-1.2-3.6-3.6 0-2.4 1.2-3.6 3.6-3.6z" stroke="none"/><path d="m7.4-3.6c2.4 0 3.6 1.2 3.6 3.6 0 2.4-1.2 3.6-3.6 3.6h-14.8c-2.4 0-3.6-1.2-3.6-3.6 0-2.4 1.2-3.6 3.6-3.6z" fill="none" stroke="#666"/></g><g fill="#fff" stroke="#fff" transform="matrix(.70710678 -.70710678 .70710678 .70710678 110 290)"><path d="m7.4-3.6c2.4 0 3.6 1.2 3.6 3.6 0 2.4-1.2 3.6-3.6 3.6h-14.8c-2.4 0-3.6-1.2-3.6-3.6 0-2.4 1.2-3.6 3.6-3.6z" stroke="none"/><path d="m7.4-3.6c2.4 0 3.6 1.2 3.6 3.6 0 2.4-1.2 3.6-3.6 3.6h-14.8c-2.4 0-3.6-1.2-3.6-3.6 0-2.4 1.2-3.6 3.6-3.6z" fill="none" stroke="#666"/></g><g fill="#fff" stroke="#fff" transform="matrix(.70710678 -.70710678 .70710678 .70710678 130 290)"><path d="m7.4-3.6c2.4 0 3.6 1.2 3.6 3.6 0 2.4-1.2 3.6-3.6 3.6h-14.8c-2.4 0-3.6-1.2-3.6-3.6 0-2.4 1.2-3.6 3.6-3.6z" stroke="none"/><path d="m7.4-3.6c2.4 0 3.6 1.2 3.6 3.6 0 2.4-1.2 3.6-3.6 3.6h-14.8c-2.4 0-3.6-1.2-3.6-3.6 0-2.4 1.2-3.6 3.6-3.6z" fill="none" stroke="#666"/></g><g fill="#f60e44" stroke="#f60e44" transform="matrix(.70710678 -.70710678 .70710678 .70710678 150 290)"><path d="m7.4-3.6c2.4 0 3.6 1.2 3.6 3.6 0 2.4-1.2 3.6-3.6 3.6h-14.8c-2.4 0-3.6-1.2-3.6-3.6 0-2.4 1.2-3.6 3.6-3.6z" stroke="none"/><path d="m7.4-3.6c2.4 0 3.6 1.2 3.6 3.6 0 2.4-1.2 3.6-3.6 3.6h-14.8c-2.4 0-3.6-1.2-3.6-3.6 0-2.4 1.2-3.6 3.6-3.6z" fill="none" stroke="#fff"/></g><g fill="#f60e44" stroke="#f60e44" transform="matrix(.70710678 -.70710678 .70710678 .70710678 170 290)"><path d="m7.4-3.6c2.4 0 3.6 1.2 3.6 3.6 0 2.4-1.2 3.6-3.6 3.6h-14.8c-2.4 0-3.6-1.2-3.6-3.6 0-2.4 1.2-3.6 3.6-3.6z" stroke="none"/><path d="m7.4-3.6c2.4 0 3.6 1.2 3.6 3.6 0 2.4-1.2 3.6-3.6 3.6h-14.8c-2.4 0-3.6-1.2-3.6-3.6 0-2.4 1.2-3.6 3.6-3.6z" fill="none" stroke="#fff"/></g><g fill="#fff" stroke="#fff" transform="matrix(.70710678 -.70710678 .70710678 .70710678 190 290)"><path d="m7.4-3.6c2.4 0 3.6 1.2 3.6 3.6 0 2.4-1.2 3.6-3.6 3.6h-14.8c-2.4 0-3.6-1.2-3.6-3.6 0-2.4 1.2-3.6 3.6-3.6z" stroke="none"/><path d="m7.4-3.6c2.4 0 3.6 1.2 3.6 3.6 0 2.4-1.2 3.6-3.6 3.6h-14.8c-2.4 0-3.6-1.2-3.6-3.6 0-2.4 1.2-3.6 3.6-3.6z" fill="none" stroke="#666"/></g><g fill="#fff" stroke="#fff" transform="matrix(.70710678 -.70710678 .70710678 .70710678 210 290)"><path d="m7.4-3.6c2.4 0 3.6 1.2 3.6 3.6 0 2.4-1.2 3.6-3.6 3.6h-14.8c-2.4 0-3.6-1.2-3.6-3.6 0-2.4 1.2-3.6 3.6-3.6z" stroke="none"/><path d="m7.4-3.6c2.4 0 3.6 1.2 3.6 3.6 0 2.4-1.2 3.6-3.6 3.6h-14.8c-2.4 0-3.6-1.2-3.6-3.6 0-2.4 1.2-3.6 3.6-3.6z" fill="none" stroke="#666"/></g><g fill="#fff" stroke="#fff" transform="matrix(.70710678 -.70710678 .70710678 .70710678 230 290)"><path d="m7.4-3.6c2.4 0 3.6 1.2 3.6 3.6 0 2.4-1.2 3.6-3.6 3.6h-14.8c-2.4 0-3.6-1.2-3.6-3.6 0-2.4 1.2-3.6 3.6-3.6z" stroke="none"/><path d="m7.4-3.6c2.4 0 3.6 1.2 3.6 3.6 0 2.4-1.2 3.6-3.6 3.6h-14.8c-2.4 0-3.6-1.2-3.6-3.6 0-2.4 1.2-3.6 3.6-3.6z" fill="none" stroke="#666"/></g><g fill="#fff" stroke="#fff" transform="matrix(.70710678 -.70710678 .70710678 .70710678 250 290)"><path d="m7.4-3.6c2.4 0 3.6 1.2 3.6 3.6 0 2.4-1.2 3.6-3.6 3.6h-14.8c-2.4 0-3.6-1.2-3.6-3.6 0-2.4 1.2-3.6 3.6-3.6z" stroke="none"/><path d="m7.4-3.6c2.4 0 3.6 1.2 3.6 3.6 0 2.4-1.2 3.6-3.6 3.6h-14.8c-2.4 0-3.6-1.2-3.6-3.6 0-2.4 1.2-3.6 3.6-3.6z" fill="none" stroke="#666"/></g></g></svg>