<svg color-interpolation="auto" height="320" stroke="#000" stroke-linecap="square" stroke-miterlimit="10" width="320" xmlns="http://www.w3.org/2000/svg"><path d="m85.2 45.2h9.6v9.6h-9.6z" stroke="none"/><g stroke-linecap="round"><path d="m105.2 45.2h9.6v9.6h-9.6z" stroke="none"/><path d="m205.2 45.2h9.6v9.6h-9.6z" stroke="none"/><path d="m225.2 45.2h9.6v9.6h-9.6z" stroke="none"/><path d="m65.2 65.2h9.6v9.6h-9.6z" stroke="none"/><path d="m125.2 65.2h9.6v9.6h-9.6z" stroke="none"/><path d="m185.2 65.2h9.6v9.6h-9.6z" stroke="none"/><path d="m245.2 65.2h9.6v9.6h-9.6z" stroke="none"/><path d="m65.2 85.2h9.6v9.6h-9.6z" stroke="none"/><path d="m85.2 85.2h9.6v9.6h-9.6z" stroke="none"/><path d="m145.2 85.2h9.6v9.6h-9.6z" stroke="none"/><path d="m165.2 85.2h9.6v9.6h-9.6z" stroke="none"/><path d="m225.2 85.2h9.6v9.6h-9.6z" stroke="none"/><path d="m245.2 85.2h9.6v9.6h-9.6z" stroke="none"/><path d="m105.2 105.2h9.6v9.6h-9.6z" stroke="none"/><path d="m125.2 105.2h9.6v9.6h-9.6z" stroke="none"/><path d="m145.2 105.2h9.6v9.6h-9.6z" stroke="none"/><path d="m165.2 105.2h9.6v9.6h-9.6z" stroke="none"/><path d="m185.2 105.2h9.6v9.6h-9.6z" stroke="none"/><path d="m205.2 105.2h9.6v9.6h-9.6z" stroke="none"/><path d="m50 125.2 4.8 4.8-4.8 4.8-4.8-4.8z" fill="none" stroke-width="2"/><path d="m70 125.2 4.8 4.8-4.8 4.8-4.8-4.8z" fill="none" stroke-width="2"/><path d="m90 125.2 4.8 4.8-4.8 4.8-4.8-4.8z" fill="none" stroke-width="2"/><path d="m110 125.2 4.8 4.8-4.8 4.8-4.8-4.8z" fill="none" stroke-width="2"/><path d="m130 125.2 4.8 4.8-4.8 4.8-4.8-4.8z" fill="none" stroke-width="2"/><path d="m145.2 125.2h9.6v9.6h-9.6z" stroke="none"/><path d="m165.2 125.2h9.6v9.6h-9.6z" stroke="none"/><path d="m190 125.2 4.8 4.8-4.8 4.8-4.8-4.8z" fill="none" stroke-width="2"/><path d="m210 125.2 4.8 4.8-4.8 4.8-4.8-4.8z" fill="none" stroke-width="2"/><path d="m230 125.2 4.8 4.8-4.8 4.8-4.8-4.8z" fill="none" stroke-width="2"/><path d="m250 125.2 4.8 4.8-4.8 4.8-4.8-4.8z" fill="none" stroke-width="2"/><path d="m270 125.2 4.8 4.8-4.8 4.8-4.8-4.8z" fill="none" stroke-width="2"/><path d="m50 145.2 4.8 4.8-4.8 4.8-4.8-4.8z" fill="none" stroke-width="2"/><path d="m70 145.2 4.8 4.8-4.8 4.8-4.8-4.8z" fill="none" stroke-width="2"/><path d="m90 145.2 4.8 4.8-4.8 4.8-4.8-4.8z" fill="none" stroke-width="2"/><path d="m110 145.2 4.8 4.8-4.8 4.8-4.8-4.8z" fill="none" stroke-width="2"/><path d="m130 145.2 4.8 4.8-4.8 4.8-4.8-4.8z" fill="none" stroke-width="2"/><path d="m145.2 145.2h9.6v9.6h-9.6z" stroke="none"/><path d="m165.2 145.2h9.6v9.6h-9.6z" stroke="none"/><path d="m190 145.2 4.8 4.8-4.8 4.8-4.8-4.8z" fill="none" stroke-width="2"/><path d="m210 145.2 4.8 4.8-4.8 4.8-4.8-4.8z" fill="none" stroke-width="2"/><path d="m230 145.2 4.8 4.8-4.8 4.8-4.8-4.8z" fill="none" stroke-width="2"/><path d="m250 145.2 4.8 4.8-4.8 4.8-4.8-4.8z" fill="none" stroke-width="2"/><path d="m270 145.2 4.8 4.8-4.8 4.8-4.8-4.8z" fill="none" stroke-width="2"/><path d="m50 165.2 4.8 4.8-4.8 4.8-4.8-4.8z" fill="none" stroke-width="2"/><path d="m70 165.2 4.8 4.8-4.8 4.8-4.8-4.8z" fill="none" stroke-width="2"/><path d="m90 165.2 4.8 4.8-4.8 4.8-4.8-4.8z" fill="none" stroke-width="2"/><path d="m110 165.2 4.8 4.8-4.8 4.8-4.8-4.8z" fill="none" stroke-width="2"/><path d="m130 165.2 4.8 4.8-4.8 4.8-4.8-4.8z" fill="none" stroke-width="2"/><path d="m145.2 165.2h9.6v9.6h-9.6z" stroke="none"/><path d="m165.2 165.2h9.6v9.6h-9.6z" stroke="none"/><path d="m190 165.2 4.8 4.8-4.8 4.8-4.8-4.8z" fill="none" stroke-width="2"/><path d="m210 165.2 4.8 4.8-4.8 4.8-4.8-4.8z" fill="none" stroke-width="2"/><path d="m230 165.2 4.8 4.8-4.8 4.8-4.8-4.8z" fill="none" stroke-width="2"/><path d="m250 165.2 4.8 4.8-4.8 4.8-4.8-4.8z" fill="none" stroke-width="2"/><path d="m270 165.2 4.8 4.8-4.8 4.8-4.8-4.8z" fill="none" stroke-width="2"/><path d="m145.2 185.2h9.6v9.6h-9.6z" stroke="none"/><path d="m165.2 185.2h9.6v9.6h-9.6z" stroke="none"/><path d="m70 205.2 4.8 4.8-4.8 4.8-4.8-4.8z" fill="none" stroke-width="2"/><path d="m90 205.2 4.8 4.8-4.8 4.8-4.8-4.8z" fill="none" stroke-width="2"/><path d="m110 205.2 4.8 4.8-4.8 4.8-4.8-4.8z" fill="none" stroke-width="2"/><path d="m130 205.2 4.8 4.8-4.8 4.8-4.8-4.8z" fill="none" stroke-width="2"/><path d="m145.2 205.2h9.6v9.6h-9.6z" stroke="none"/><path d="m165.2 205.2h9.6v9.6h-9.6z" stroke="none"/><path d="m190 205.2 4.8 4.8-4.8 4.8-4.8-4.8z" fill="none" stroke-width="2"/><path d="m210 205.2 4.8 4.8-4.8 4.8-4.8-4.8z" fill="none" stroke-width="2"/><path d="m230 205.2 4.8 4.8-4.8 4.8-4.8-4.8z" fill="none" stroke-width="2"/><path d="m250 205.2 4.8 4.8-4.8 4.8-4.8-4.8z" fill="none" stroke-width="2"/><path d="m70 225.2 4.8 4.8-4.8 4.8-4.8-4.8z" fill="none" stroke-width="2"/><path d="m90 225.2 4.8 4.8-4.8 4.8-4.8-4.8z" fill="none" stroke-width="2"/><path d="m110 225.2 4.8 4.8-4.8 4.8-4.8-4.8z" fill="none" stroke-width="2"/><path d="m130 225.2 4.8 4.8-4.8 4.8-4.8-4.8z" fill="none" stroke-width="2"/><path d="m145.2 225.2h9.6v9.6h-9.6z" stroke="none"/><path d="m165.2 225.2h9.6v9.6h-9.6z" stroke="none"/><path d="m190 225.2 4.8 4.8-4.8 4.8-4.8-4.8z" fill="none" stroke-width="2"/><path d="m210 225.2 4.8 4.8-4.8 4.8-4.8-4.8z" fill="none" stroke-width="2"/><path d="m230 225.2 4.8 4.8-4.8 4.8-4.8-4.8z" fill="none" stroke-width="2"/><path d="m250 225.2 4.8 4.8-4.8 4.8-4.8-4.8z" fill="none" stroke-width="2"/><path d="m70 245.2 4.8 4.8-4.8 4.8-4.8-4.8z" fill="none" stroke-width="2"/><path d="m90 245.2 4.8 4.8-4.8 4.8-4.8-4.8z" fill="none" stroke-width="2"/><path d="m110 245.2 4.8 4.8-4.8 4.8-4.8-4.8z" fill="none" stroke-width="2"/><path d="m130 245.2 4.8 4.8-4.8 4.8-4.8-4.8z" fill="none" stroke-width="2"/><path d="m145.2 245.2h9.6v9.6h-9.6z" stroke="none"/><path d="m165.2 245.2h9.6v9.6h-9.6z" stroke="none"/><path d="m190 245.2 4.8 4.8-4.8 4.8-4.8-4.8z" fill="none" stroke-width="2"/><path d="m210 245.2 4.8 4.8-4.8 4.8-4.8-4.8z" fill="none" stroke-width="2"/><path d="m230 245.2 4.8 4.8-4.8 4.8-4.8-4.8z" fill="none" stroke-width="2"/><path d="m250 245.2 4.8 4.8-4.8 4.8-4.8-4.8z" fill="none" stroke-width="2"/><path d="m70 265.2 4.8 4.8-4.8 4.8-4.8-4.8z" fill="none" stroke-width="2"/><path d="m90 265.2 4.8 4.8-4.8 4.8-4.8-4.8z" fill="none" stroke-width="2"/><path d="m110 265.2 4.8 4.8-4.8 4.8-4.8-4.8z" fill="none" stroke-width="2"/><path d="m130 265.2 4.8 4.8-4.8 4.8-4.8-4.8z" fill="none" stroke-width="2"/><path d="m145.2 265.2h9.6v9.6h-9.6z" stroke="none"/><path d="m165.2 265.2h9.6v9.6h-9.6z" stroke="none"/><path d="m190 265.2 4.8 4.8-4.8 4.8-4.8-4.8z" fill="none" stroke-width="2"/><path d="m210 265.2 4.8 4.8-4.8 4.8-4.8-4.8z" fill="none" stroke-width="2"/><path d="m230 265.2 4.8 4.8-4.8 4.8-4.8-4.8z" fill="none" stroke-width="2"/><path d="m250 265.2 4.8 4.8-4.8 4.8-4.8-4.8z" fill="none" stroke-width="2"/><path d="m70 285.2 4.8 4.8-4.8 4.8-4.8-4.8z" fill="none" stroke-width="2"/><path d="m90 285.2 4.8 4.8-4.8 4.8-4.8-4.8z" fill="none" stroke-width="2"/><path d="m110 285.2 4.8 4.8-4.8 4.8-4.8-4.8z" fill="none" stroke-width="2"/><path d="m130 285.2 4.8 4.8-4.8 4.8-4.8-4.8z" fill="none" stroke-width="2"/><path d="m145.2 285.2h9.6v9.6h-9.6z" stroke="none"/><path d="m165.2 285.2h9.6v9.6h-9.6z" stroke="none"/><g fill="none"><path d="m190 285.2 4.8 4.8-4.8 4.8-4.8-4.8z" stroke-width="2"/><path d="m210 285.2 4.8 4.8-4.8 4.8-4.8-4.8z" stroke-width="2"/><path d="m230 285.2 4.8 4.8-4.8 4.8-4.8-4.8z" stroke-width="2"/><path d="m250 285.2 4.8 4.8-4.8 4.8-4.8-4.8z" stroke-width="2"/><path d="m0 0v320" stroke="#b4b4b4" stroke-width="2"/><path d="m20 0v320" stroke="#b4b4b4"/><path d="m40 0v320" stroke="#b4b4b4"/><path d="m60 0v320" stroke="#b4b4b4"/><path d="m80 0v320" stroke="#b4b4b4"/><path d="m100 0v320" stroke="#b4b4b4"/><path d="m120 0v320" stroke="#b4b4b4"/><path d="m140 0v320" stroke="#b4b4b4"/><path d="m160 0v320" stroke="#b4b4b4"/><path d="m180 0v320" stroke="#b4b4b4"/><path d="m200 0v320" stroke="#b4b4b4"/><path d="m220 0v320" stroke="#b4b4b4"/><path d="m240 0v320" stroke="#b4b4b4"/><path d="m260 0v320" stroke="#b4b4b4"/><path d="m280 0v320" stroke="#b4b4b4"/><path d="m300 0v320" stroke="#b4b4b4"/><path d="m320 0v320" stroke="#b4b4b4" stroke-width="2"/><path d="m0 0h320" stroke="#b4b4b4" stroke-width="2"/><path d="m0 20h320" stroke="#b4b4b4"/><path d="m0 40h320" stroke="#b4b4b4"/><path d="m0 60h320" stroke="#b4b4b4"/><path d="m0 80h320" stroke="#b4b4b4"/><path d="m0 100h320" stroke="#b4b4b4"/><path d="m0 120h320" stroke="#b4b4b4"/><path d="m0 140h320" stroke="#b4b4b4"/><path d="m0 160h320" stroke="#b4b4b4"/><path d="m0 180h320" stroke="#b4b4b4"/><path d="m0 200h320" stroke="#b4b4b4"/><path d="m0 220h320" stroke="#b4b4b4"/><path d="m0 240h320" stroke="#b4b4b4"/><path d="m0 260h320" stroke="#b4b4b4"/><path d="m0 280h320" stroke="#b4b4b4"/><path d="m0 300h320" stroke="#b4b4b4"/><path d="m0 320h320" stroke="#b4b4b4" stroke-width="2"/></g></g></svg>