<svg color-interpolation="auto" height="480" stroke="#000" stroke-linecap="square" stroke-miterlimit="10" width="480" xmlns="http://www.w3.org/2000/svg"><path d="m7.4-3.6c2.4 0 3.6 1.2 3.6 3.6 0 2.4-1.2 3.6-3.6 3.6h-14.8c-2.4 0-3.6-1.2-3.6-3.6 0-2.4 1.2-3.6 3.6-3.6z" fill="#fff" stroke="none" transform="matrix(.70710678 -.70710678 .70710678 .70710678 190 130)"/><g stroke-linecap="round" stroke-width=".2"><path d="m7.4-3.6c2.4 0 3.6 1.2 3.6 3.6 0 2.4-1.2 3.6-3.6 3.6h-14.8c-2.4 0-3.6-1.2-3.6-3.6 0-2.4 1.2-3.6 3.6-3.6z" fill="none" stroke="#666" transform="matrix(.70710678 -.70710678 .70710678 .70710678 190 130)"/><g fill="#52aa21" stroke="#52aa21" transform="matrix(.70710678 -.70710678 .70710678 .70710678 210 130)"><path d="m7.4-3.6c2.4 0 3.6 1.2 3.6 3.6 0 2.4-1.2 3.6-3.6 3.6h-14.8c-2.4 0-3.6-1.2-3.6-3.6 0-2.4 1.2-3.6 3.6-3.6z" stroke="none"/><path d="m7.4-3.6c2.4 0 3.6 1.2 3.6 3.6 0 2.4-1.2 3.6-3.6 3.6h-14.8c-2.4 0-3.6-1.2-3.6-3.6 0-2.4 1.2-3.6 3.6-3.6z" fill="none" stroke="#fff"/></g><g fill="#ffeb8f" stroke="#ffeb8f" transform="matrix(.70710678 -.70710678 .70710678 .70710678 230 130)"><path d="m7.4-3.6c2.4 0 3.6 1.2 3.6 3.6 0 2.4-1.2 3.6-3.6 3.6h-14.8c-2.4 0-3.6-1.2-3.6-3.6 0-2.4 1.2-3.6 3.6-3.6z" stroke="none"/><path d="m7.4-3.6c2.4 0 3.6 1.2 3.6 3.6 0 2.4-1.2 3.6-3.6 3.6h-14.8c-2.4 0-3.6-1.2-3.6-3.6 0-2.4 1.2-3.6 3.6-3.6z" fill="none" stroke="#fff"/></g><g fill="#ffeb8f" stroke="#ffeb8f" transform="matrix(.70710678 -.70710678 .70710678 .70710678 250 130)"><path d="m7.4-3.6c2.4 0 3.6 1.2 3.6 3.6 0 2.4-1.2 3.6-3.6 3.6h-14.8c-2.4 0-3.6-1.2-3.6-3.6 0-2.4 1.2-3.6 3.6-3.6z" stroke="none"/><path d="m7.4-3.6c2.4 0 3.6 1.2 3.6 3.6 0 2.4-1.2 3.6-3.6 3.6h-14.8c-2.4 0-3.6-1.2-3.6-3.6 0-2.4 1.2-3.6 3.6-3.6z" fill="none" stroke="#fff"/></g><g fill="#fff" stroke="#fff" transform="matrix(.70710678 -.70710678 .70710678 .70710678 270 130)"><path d="m7.4-3.6c2.4 0 3.6 1.2 3.6 3.6 0 2.4-1.2 3.6-3.6 3.6h-14.8c-2.4 0-3.6-1.2-3.6-3.6 0-2.4 1.2-3.6 3.6-3.6z" stroke="none"/><path d="m7.4-3.6c2.4 0 3.6 1.2 3.6 3.6 0 2.4-1.2 3.6-3.6 3.6h-14.8c-2.4 0-3.6-1.2-3.6-3.6 0-2.4 1.2-3.6 3.6-3.6z" fill="none" stroke="#666"/></g><g fill="#fff" stroke="#fff" transform="matrix(.70710678 -.70710678 .70710678 .70710678 150 150)"><path d="m7.4-3.6c2.4 0 3.6 1.2 3.6 3.6 0 2.4-1.2 3.6-3.6 3.6h-14.8c-2.4 0-3.6-1.2-3.6-3.6 0-2.4 1.2-3.6 3.6-3.6z" stroke="none"/><path d="m7.4-3.6c2.4 0 3.6 1.2 3.6 3.6 0 2.4-1.2 3.6-3.6 3.6h-14.8c-2.4 0-3.6-1.2-3.6-3.6 0-2.4 1.2-3.6 3.6-3.6z" fill="none" stroke="#666"/></g><g fill="#fff" stroke="#fff" transform="matrix(.70710678 -.70710678 .70710678 .70710678 170 150)"><path d="m7.4-3.6c2.4 0 3.6 1.2 3.6 3.6 0 2.4-1.2 3.6-3.6 3.6h-14.8c-2.4 0-3.6-1.2-3.6-3.6 0-2.4 1.2-3.6 3.6-3.6z" stroke="none"/><path d="m7.4-3.6c2.4 0 3.6 1.2 3.6 3.6 0 2.4-1.2 3.6-3.6 3.6h-14.8c-2.4 0-3.6-1.2-3.6-3.6 0-2.4 1.2-3.6 3.6-3.6z" fill="none" stroke="#666"/></g><g fill="#52aa21" stroke="#52aa21" transform="matrix(.70710678 -.70710678 .70710678 .70710678 190 150)"><path d="m7.4-3.6c2.4 0 3.6 1.2 3.6 3.6 0 2.4-1.2 3.6-3.6 3.6h-14.8c-2.4 0-3.6-1.2-3.6-3.6 0-2.4 1.2-3.6 3.6-3.6z" stroke="none"/><path d="m7.4-3.6c2.4 0 3.6 1.2 3.6 3.6 0 2.4-1.2 3.6-3.6 3.6h-14.8c-2.4 0-3.6-1.2-3.6-3.6 0-2.4 1.2-3.6 3.6-3.6z" fill="none" stroke="#fff"/></g><g fill="#92cb5b" stroke="#92cb5b" transform="matrix(.70710678 -.70710678 .70710678 .70710678 210 150)"><path d="m7.4-3.6c2.4 0 3.6 1.2 3.6 3.6 0 2.4-1.2 3.6-3.6 3.6h-14.8c-2.4 0-3.6-1.2-3.6-3.6 0-2.4 1.2-3.6 3.6-3.6z" stroke="none"/><path d="m7.4-3.6c2.4 0 3.6 1.2 3.6 3.6 0 2.4-1.2 3.6-3.6 3.6h-14.8c-2.4 0-3.6-1.2-3.6-3.6 0-2.4 1.2-3.6 3.6-3.6z" fill="none" stroke="#fff"/></g><g fill="#52aa21" stroke="#52aa21" transform="matrix(.70710678 -.70710678 .70710678 .70710678 230 150)"><path d="m7.4-3.6c2.4 0 3.6 1.2 3.6 3.6 0 2.4-1.2 3.6-3.6 3.6h-14.8c-2.4 0-3.6-1.2-3.6-3.6 0-2.4 1.2-3.6 3.6-3.6z" stroke="none"/><path d="m7.4-3.6c2.4 0 3.6 1.2 3.6 3.6 0 2.4-1.2 3.6-3.6 3.6h-14.8c-2.4 0-3.6-1.2-3.6-3.6 0-2.4 1.2-3.6 3.6-3.6z" fill="none" stroke="#fff"/></g><g fill="#ffeb8f" stroke="#ffeb8f" transform="matrix(.70710678 -.70710678 .70710678 .70710678 250 150)"><path d="m7.4-3.6c2.4 0 3.6 1.2 3.6 3.6 0 2.4-1.2 3.6-3.6 3.6h-14.8c-2.4 0-3.6-1.2-3.6-3.6 0-2.4 1.2-3.6 3.6-3.6z" stroke="none"/><path d="m7.4-3.6c2.4 0 3.6 1.2 3.6 3.6 0 2.4-1.2 3.6-3.6 3.6h-14.8c-2.4 0-3.6-1.2-3.6-3.6 0-2.4 1.2-3.6 3.6-3.6z" fill="none" stroke="#fff"/></g><g fill="#ffeb8f" stroke="#ffeb8f" transform="matrix(.70710678 -.70710678 .70710678 .70710678 270 150)"><path d="m7.4-3.6c2.4 0 3.6 1.2 3.6 3.6 0 2.4-1.2 3.6-3.6 3.6h-14.8c-2.4 0-3.6-1.2-3.6-3.6 0-2.4 1.2-3.6 3.6-3.6z" stroke="none"/><path d="m7.4-3.6c2.4 0 3.6 1.2 3.6 3.6 0 2.4-1.2 3.6-3.6 3.6h-14.8c-2.4 0-3.6-1.2-3.6-3.6 0-2.4 1.2-3.6 3.6-3.6z" fill="none" stroke="#fff"/></g><g fill="#fff" stroke="#fff" transform="matrix(.70710678 -.70710678 .70710678 .70710678 290 150)"><path d="m7.4-3.6c2.4 0 3.6 1.2 3.6 3.6 0 2.4-1.2 3.6-3.6 3.6h-14.8c-2.4 0-3.6-1.2-3.6-3.6 0-2.4 1.2-3.6 3.6-3.6z" stroke="none"/><path d="m7.4-3.6c2.4 0 3.6 1.2 3.6 3.6 0 2.4-1.2 3.6-3.6 3.6h-14.8c-2.4 0-3.6-1.2-3.6-3.6 0-2.4 1.2-3.6 3.6-3.6z" fill="none" stroke="#666"/></g><g fill="#fff" stroke="#fff" transform="matrix(.70710678 -.70710678 .70710678 .70710678 310 150)"><path d="m7.4-3.6c2.4 0 3.6 1.2 3.6 3.6 0 2.4-1.2 3.6-3.6 3.6h-14.8c-2.4 0-3.6-1.2-3.6-3.6 0-2.4 1.2-3.6 3.6-3.6z" stroke="none"/><path d="m7.4-3.6c2.4 0 3.6 1.2 3.6 3.6 0 2.4-1.2 3.6-3.6 3.6h-14.8c-2.4 0-3.6-1.2-3.6-3.6 0-2.4 1.2-3.6 3.6-3.6z" fill="none" stroke="#666"/></g><g fill="#3e5990" stroke="#3e5990" transform="matrix(.70710678 -.70710678 .70710678 .70710678 110 170)"><path d="m7.4-3.6c2.4 0 3.6 1.2 3.6 3.6 0 2.4-1.2 3.6-3.6 3.6h-14.8c-2.4 0-3.6-1.2-3.6-3.6 0-2.4 1.2-3.6 3.6-3.6z" stroke="none"/><path d="m7.4-3.6c2.4 0 3.6 1.2 3.6 3.6 0 2.4-1.2 3.6-3.6 3.6h-14.8c-2.4 0-3.6-1.2-3.6-3.6 0-2.4 1.2-3.6 3.6-3.6z" fill="none" stroke="#fff"/></g><g fill="#fff" stroke="#fff" transform="matrix(.70710678 -.70710678 .70710678 .70710678 130 170)"><path d="m7.4-3.6c2.4 0 3.6 1.2 3.6 3.6 0 2.4-1.2 3.6-3.6 3.6h-14.8c-2.4 0-3.6-1.2-3.6-3.6 0-2.4 1.2-3.6 3.6-3.6z" stroke="none"/><path d="m7.4-3.6c2.4 0 3.6 1.2 3.6 3.6 0 2.4-1.2 3.6-3.6 3.6h-14.8c-2.4 0-3.6-1.2-3.6-3.6 0-2.4 1.2-3.6 3.6-3.6z" fill="none" stroke="#666"/></g><g fill="#fff" stroke="#fff" transform="matrix(.70710678 -.70710678 .70710678 .70710678 150 170)"><path d="m7.4-3.6c2.4 0 3.6 1.2 3.6 3.6 0 2.4-1.2 3.6-3.6 3.6h-14.8c-2.4 0-3.6-1.2-3.6-3.6 0-2.4 1.2-3.6 3.6-3.6z" stroke="none"/><path d="m7.4-3.6c2.4 0 3.6 1.2 3.6 3.6 0 2.4-1.2 3.6-3.6 3.6h-14.8c-2.4 0-3.6-1.2-3.6-3.6 0-2.4 1.2-3.6 3.6-3.6z" fill="none" stroke="#666"/></g><g fill="#52aa21" stroke="#52aa21" transform="matrix(.70710678 -.70710678 .70710678 .70710678 170 170)"><path d="m7.4-3.6c2.4 0 3.6 1.2 3.6 3.6 0 2.4-1.2 3.6-3.6 3.6h-14.8c-2.4 0-3.6-1.2-3.6-3.6 0-2.4 1.2-3.6 3.6-3.6z" stroke="none"/><path d="m7.4-3.6c2.4 0 3.6 1.2 3.6 3.6 0 2.4-1.2 3.6-3.6 3.6h-14.8c-2.4 0-3.6-1.2-3.6-3.6 0-2.4 1.2-3.6 3.6-3.6z" fill="none" stroke="#fff"/></g><g fill="#92cb5b" stroke="#92cb5b" transform="matrix(.70710678 -.70710678 .70710678 .70710678 190 170)"><path d="m7.4-3.6c2.4 0 3.6 1.2 3.6 3.6 0 2.4-1.2 3.6-3.6 3.6h-14.8c-2.4 0-3.6-1.2-3.6-3.6 0-2.4 1.2-3.6 3.6-3.6z" stroke="none"/><path d="m7.4-3.6c2.4 0 3.6 1.2 3.6 3.6 0 2.4-1.2 3.6-3.6 3.6h-14.8c-2.4 0-3.6-1.2-3.6-3.6 0-2.4 1.2-3.6 3.6-3.6z" fill="none" stroke="#fff"/></g><g fill="#52aa21" stroke="#52aa21" transform="matrix(.70710678 -.70710678 .70710678 .70710678 210 170)"><path d="m7.4-3.6c2.4 0 3.6 1.2 3.6 3.6 0 2.4-1.2 3.6-3.6 3.6h-14.8c-2.4 0-3.6-1.2-3.6-3.6 0-2.4 1.2-3.6 3.6-3.6z" stroke="none"/><path d="m7.4-3.6c2.4 0 3.6 1.2 3.6 3.6 0 2.4-1.2 3.6-3.6 3.6h-14.8c-2.4 0-3.6-1.2-3.6-3.6 0-2.4 1.2-3.6 3.6-3.6z" fill="none" stroke="#fff"/></g><g fill="#92cb5b" stroke="#92cb5b" transform="matrix(.70710678 -.70710678 .70710678 .70710678 230 170)"><path d="m7.4-3.6c2.4 0 3.6 1.2 3.6 3.6 0 2.4-1.2 3.6-3.6 3.6h-14.8c-2.4 0-3.6-1.2-3.6-3.6 0-2.4 1.2-3.6 3.6-3.6z" stroke="none"/><path d="m7.4-3.6c2.4 0 3.6 1.2 3.6 3.6 0 2.4-1.2 3.6-3.6 3.6h-14.8c-2.4 0-3.6-1.2-3.6-3.6 0-2.4 1.2-3.6 3.6-3.6z" fill="none" stroke="#fff"/></g><g fill="#ffeb8f" stroke="#ffeb8f" transform="matrix(.70710678 -.70710678 .70710678 .70710678 250 170)"><path d="m7.4-3.6c2.4 0 3.6 1.2 3.6 3.6 0 2.4-1.2 3.6-3.6 3.6h-14.8c-2.4 0-3.6-1.2-3.6-3.6 0-2.4 1.2-3.6 3.6-3.6z" stroke="none"/><path d="m7.4-3.6c2.4 0 3.6 1.2 3.6 3.6 0 2.4-1.2 3.6-3.6 3.6h-14.8c-2.4 0-3.6-1.2-3.6-3.6 0-2.4 1.2-3.6 3.6-3.6z" fill="none" stroke="#fff"/></g><g fill="#ffeb8f" stroke="#ffeb8f" transform="matrix(.70710678 -.70710678 .70710678 .70710678 270 170)"><path d="m7.4-3.6c2.4 0 3.6 1.2 3.6 3.6 0 2.4-1.2 3.6-3.6 3.6h-14.8c-2.4 0-3.6-1.2-3.6-3.6 0-2.4 1.2-3.6 3.6-3.6z" stroke="none"/><path d="m7.4-3.6c2.4 0 3.6 1.2 3.6 3.6 0 2.4-1.2 3.6-3.6 3.6h-14.8c-2.4 0-3.6-1.2-3.6-3.6 0-2.4 1.2-3.6 3.6-3.6z" fill="none" stroke="#fff"/></g><g fill="#fff" stroke="#fff" transform="matrix(.70710678 -.70710678 .70710678 .70710678 290 170)"><path d="m7.4-3.6c2.4 0 3.6 1.2 3.6 3.6 0 2.4-1.2 3.6-3.6 3.6h-14.8c-2.4 0-3.6-1.2-3.6-3.6 0-2.4 1.2-3.6 3.6-3.6z" stroke="none"/><path d="m7.4-3.6c2.4 0 3.6 1.2 3.6 3.6 0 2.4-1.2 3.6-3.6 3.6h-14.8c-2.4 0-3.6-1.2-3.6-3.6 0-2.4 1.2-3.6 3.6-3.6z" fill="none" stroke="#666"/></g><g fill="#fff" stroke="#fff" transform="matrix(.70710678 -.70710678 .70710678 .70710678 310 170)"><path d="m7.4-3.6c2.4 0 3.6 1.2 3.6 3.6 0 2.4-1.2 3.6-3.6 3.6h-14.8c-2.4 0-3.6-1.2-3.6-3.6 0-2.4 1.2-3.6 3.6-3.6z" stroke="none"/><path d="m7.4-3.6c2.4 0 3.6 1.2 3.6 3.6 0 2.4-1.2 3.6-3.6 3.6h-14.8c-2.4 0-3.6-1.2-3.6-3.6 0-2.4 1.2-3.6 3.6-3.6z" fill="none" stroke="#666"/></g><g fill="#fff" stroke="#fff" transform="matrix(.70710678 -.70710678 .70710678 .70710678 330 170)"><path d="m7.4-3.6c2.4 0 3.6 1.2 3.6 3.6 0 2.4-1.2 3.6-3.6 3.6h-14.8c-2.4 0-3.6-1.2-3.6-3.6 0-2.4 1.2-3.6 3.6-3.6z" stroke="none"/><path d="m7.4-3.6c2.4 0 3.6 1.2 3.6 3.6 0 2.4-1.2 3.6-3.6 3.6h-14.8c-2.4 0-3.6-1.2-3.6-3.6 0-2.4 1.2-3.6 3.6-3.6z" fill="none" stroke="#666"/></g><g fill="#41890f" stroke="#41890f" transform="matrix(.70710678 -.70710678 .70710678 .70710678 350 170)"><path d="m7.4-3.6c2.4 0 3.6 1.2 3.6 3.6 0 2.4-1.2 3.6-3.6 3.6h-14.8c-2.4 0-3.6-1.2-3.6-3.6 0-2.4 1.2-3.6 3.6-3.6z" stroke="none"/><path d="m7.4-3.6c2.4 0 3.6 1.2 3.6 3.6 0 2.4-1.2 3.6-3.6 3.6h-14.8c-2.4 0-3.6-1.2-3.6-3.6 0-2.4 1.2-3.6 3.6-3.6z" fill="none" stroke="#fff"/></g><g fill="#41890f" stroke="#41890f" transform="matrix(.70710678 -.70710678 .70710678 .70710678 370 170)"><path d="m7.4-3.6c2.4 0 3.6 1.2 3.6 3.6 0 2.4-1.2 3.6-3.6 3.6h-14.8c-2.4 0-3.6-1.2-3.6-3.6 0-2.4 1.2-3.6 3.6-3.6z" stroke="none"/><path d="m7.4-3.6c2.4 0 3.6 1.2 3.6 3.6 0 2.4-1.2 3.6-3.6 3.6h-14.8c-2.4 0-3.6-1.2-3.6-3.6 0-2.4 1.2-3.6 3.6-3.6z" fill="none" stroke="#fff"/></g><g fill="#3e5990" stroke="#3e5990" transform="matrix(.70710678 -.70710678 .70710678 .70710678 70 190)"><path d="m7.4-3.6c2.4 0 3.6 1.2 3.6 3.6 0 2.4-1.2 3.6-3.6 3.6h-14.8c-2.4 0-3.6-1.2-3.6-3.6 0-2.4 1.2-3.6 3.6-3.6z" stroke="none"/><path d="m7.4-3.6c2.4 0 3.6 1.2 3.6 3.6 0 2.4-1.2 3.6-3.6 3.6h-14.8c-2.4 0-3.6-1.2-3.6-3.6 0-2.4 1.2-3.6 3.6-3.6z" fill="none" stroke="#fff"/></g><g fill="#3e5990" stroke="#3e5990" transform="matrix(.70710678 -.70710678 .70710678 .70710678 90 190)"><path d="m7.4-3.6c2.4 0 3.6 1.2 3.6 3.6 0 2.4-1.2 3.6-3.6 3.6h-14.8c-2.4 0-3.6-1.2-3.6-3.6 0-2.4 1.2-3.6 3.6-3.6z" stroke="none"/><path d="m7.4-3.6c2.4 0 3.6 1.2 3.6 3.6 0 2.4-1.2 3.6-3.6 3.6h-14.8c-2.4 0-3.6-1.2-3.6-3.6 0-2.4 1.2-3.6 3.6-3.6z" fill="none" stroke="#fff"/></g><g fill="#cbdbfc" stroke="#cbdbfc" transform="matrix(.70710678 -.70710678 .70710678 .70710678 110 190)"><path d="m7.4-3.6c2.4 0 3.6 1.2 3.6 3.6 0 2.4-1.2 3.6-3.6 3.6h-14.8c-2.4 0-3.6-1.2-3.6-3.6 0-2.4 1.2-3.6 3.6-3.6z" stroke="none"/><path d="m7.4-3.6c2.4 0 3.6 1.2 3.6 3.6 0 2.4-1.2 3.6-3.6 3.6h-14.8c-2.4 0-3.6-1.2-3.6-3.6 0-2.4 1.2-3.6 3.6-3.6z" fill="none" stroke="#fff"/></g><g fill="#fff" stroke="#fff" transform="matrix(.70710678 -.70710678 .70710678 .70710678 130 190)"><path d="m7.4-3.6c2.4 0 3.6 1.2 3.6 3.6 0 2.4-1.2 3.6-3.6 3.6h-14.8c-2.4 0-3.6-1.2-3.6-3.6 0-2.4 1.2-3.6 3.6-3.6z" stroke="none"/><path d="m7.4-3.6c2.4 0 3.6 1.2 3.6 3.6 0 2.4-1.2 3.6-3.6 3.6h-14.8c-2.4 0-3.6-1.2-3.6-3.6 0-2.4 1.2-3.6 3.6-3.6z" fill="none" stroke="#666"/></g><g fill="#fff" stroke="#fff" transform="matrix(.70710678 -.70710678 .70710678 .70710678 150 190)"><path d="m7.4-3.6c2.4 0 3.6 1.2 3.6 3.6 0 2.4-1.2 3.6-3.6 3.6h-14.8c-2.4 0-3.6-1.2-3.6-3.6 0-2.4 1.2-3.6 3.6-3.6z" stroke="none"/><path d="m7.4-3.6c2.4 0 3.6 1.2 3.6 3.6 0 2.4-1.2 3.6-3.6 3.6h-14.8c-2.4 0-3.6-1.2-3.6-3.6 0-2.4 1.2-3.6 3.6-3.6z" fill="none" stroke="#666"/></g><g fill="#5c2e1a" stroke="#5c2e1a" transform="matrix(.70710678 -.70710678 .70710678 .70710678 170 190)"><path d="m7.4-3.6c2.4 0 3.6 1.2 3.6 3.6 0 2.4-1.2 3.6-3.6 3.6h-14.8c-2.4 0-3.6-1.2-3.6-3.6 0-2.4 1.2-3.6 3.6-3.6z" stroke="none"/><path d="m7.4-3.6c2.4 0 3.6 1.2 3.6 3.6 0 2.4-1.2 3.6-3.6 3.6h-14.8c-2.4 0-3.6-1.2-3.6-3.6 0-2.4 1.2-3.6 3.6-3.6z" fill="none" stroke="#fff"/></g><g fill="#52aa21" stroke="#52aa21" transform="matrix(.70710678 -.70710678 .70710678 .70710678 190 190)"><path d="m7.4-3.6c2.4 0 3.6 1.2 3.6 3.6 0 2.4-1.2 3.6-3.6 3.6h-14.8c-2.4 0-3.6-1.2-3.6-3.6 0-2.4 1.2-3.6 3.6-3.6z" stroke="none"/><path d="m7.4-3.6c2.4 0 3.6 1.2 3.6 3.6 0 2.4-1.2 3.6-3.6 3.6h-14.8c-2.4 0-3.6-1.2-3.6-3.6 0-2.4 1.2-3.6 3.6-3.6z" fill="none" stroke="#fff"/></g><g fill="#92cb5b" stroke="#92cb5b" transform="matrix(.70710678 -.70710678 .70710678 .70710678 210 190)"><path d="m7.4-3.6c2.4 0 3.6 1.2 3.6 3.6 0 2.4-1.2 3.6-3.6 3.6h-14.8c-2.4 0-3.6-1.2-3.6-3.6 0-2.4 1.2-3.6 3.6-3.6z" stroke="none"/><path d="m7.4-3.6c2.4 0 3.6 1.2 3.6 3.6 0 2.4-1.2 3.6-3.6 3.6h-14.8c-2.4 0-3.6-1.2-3.6-3.6 0-2.4 1.2-3.6 3.6-3.6z" fill="none" stroke="#fff"/></g><g fill="#5c2e1a" stroke="#5c2e1a" transform="matrix(.70710678 -.70710678 .70710678 .70710678 230 190)"><path d="m7.4-3.6c2.4 0 3.6 1.2 3.6 3.6 0 2.4-1.2 3.6-3.6 3.6h-14.8c-2.4 0-3.6-1.2-3.6-3.6 0-2.4 1.2-3.6 3.6-3.6z" stroke="none"/><path d="m7.4-3.6c2.4 0 3.6 1.2 3.6 3.6 0 2.4-1.2 3.6-3.6 3.6h-14.8c-2.4 0-3.6-1.2-3.6-3.6 0-2.4 1.2-3.6 3.6-3.6z" fill="none" stroke="#fff"/></g><g fill="#5c2e1a" stroke="#5c2e1a" transform="matrix(.70710678 -.70710678 .70710678 .70710678 250 190)"><path d="m7.4-3.6c2.4 0 3.6 1.2 3.6 3.6 0 2.4-1.2 3.6-3.6 3.6h-14.8c-2.4 0-3.6-1.2-3.6-3.6 0-2.4 1.2-3.6 3.6-3.6z" stroke="none"/><path d="m7.4-3.6c2.4 0 3.6 1.2 3.6 3.6 0 2.4-1.2 3.6-3.6 3.6h-14.8c-2.4 0-3.6-1.2-3.6-3.6 0-2.4 1.2-3.6 3.6-3.6z" fill="none" stroke="#fff"/></g><g fill="#5c2e1a" stroke="#5c2e1a" transform="matrix(.70710678 -.70710678 .70710678 .70710678 270 190)"><path d="m7.4-3.6c2.4 0 3.6 1.2 3.6 3.6 0 2.4-1.2 3.6-3.6 3.6h-14.8c-2.4 0-3.6-1.2-3.6-3.6 0-2.4 1.2-3.6 3.6-3.6z" stroke="none"/><path d="m7.4-3.6c2.4 0 3.6 1.2 3.6 3.6 0 2.4-1.2 3.6-3.6 3.6h-14.8c-2.4 0-3.6-1.2-3.6-3.6 0-2.4 1.2-3.6 3.6-3.6z" fill="none" stroke="#fff"/></g><g fill="#fff" stroke="#fff" transform="matrix(.70710678 -.70710678 .70710678 .70710678 290 190)"><path d="m7.4-3.6c2.4 0 3.6 1.2 3.6 3.6 0 2.4-1.2 3.6-3.6 3.6h-14.8c-2.4 0-3.6-1.2-3.6-3.6 0-2.4 1.2-3.6 3.6-3.6z" stroke="none"/><path d="m7.4-3.6c2.4 0 3.6 1.2 3.6 3.6 0 2.4-1.2 3.6-3.6 3.6h-14.8c-2.4 0-3.6-1.2-3.6-3.6 0-2.4 1.2-3.6 3.6-3.6z" fill="none" stroke="#666"/></g><g fill="#fff" stroke="#fff" transform="matrix(.70710678 -.70710678 .70710678 .70710678 310 190)"><path d="m7.4-3.6c2.4 0 3.6 1.2 3.6 3.6 0 2.4-1.2 3.6-3.6 3.6h-14.8c-2.4 0-3.6-1.2-3.6-3.6 0-2.4 1.2-3.6 3.6-3.6z" stroke="none"/><path d="m7.4-3.6c2.4 0 3.6 1.2 3.6 3.6 0 2.4-1.2 3.6-3.6 3.6h-14.8c-2.4 0-3.6-1.2-3.6-3.6 0-2.4 1.2-3.6 3.6-3.6z" fill="none" stroke="#666"/></g><g fill="#fff" stroke="#fff" transform="matrix(.70710678 -.70710678 .70710678 .70710678 330 190)"><path d="m7.4-3.6c2.4 0 3.6 1.2 3.6 3.6 0 2.4-1.2 3.6-3.6 3.6h-14.8c-2.4 0-3.6-1.2-3.6-3.6 0-2.4 1.2-3.6 3.6-3.6z" stroke="none"/><path d="m7.4-3.6c2.4 0 3.6 1.2 3.6 3.6 0 2.4-1.2 3.6-3.6 3.6h-14.8c-2.4 0-3.6-1.2-3.6-3.6 0-2.4 1.2-3.6 3.6-3.6z" fill="none" stroke="#666"/></g><g fill="#41890f" stroke="#41890f" transform="matrix(.70710678 -.70710678 .70710678 .70710678 350 190)"><path d="m7.4-3.6c2.4 0 3.6 1.2 3.6 3.6 0 2.4-1.2 3.6-3.6 3.6h-14.8c-2.4 0-3.6-1.2-3.6-3.6 0-2.4 1.2-3.6 3.6-3.6z" stroke="none"/><path d="m7.4-3.6c2.4 0 3.6 1.2 3.6 3.6 0 2.4-1.2 3.6-3.6 3.6h-14.8c-2.4 0-3.6-1.2-3.6-3.6 0-2.4 1.2-3.6 3.6-3.6z" fill="none" stroke="#fff"/></g><g fill="#41890f" stroke="#41890f" transform="matrix(.70710678 -.70710678 .70710678 .70710678 370 190)"><path d="m7.4-3.6c2.4 0 3.6 1.2 3.6 3.6 0 2.4-1.2 3.6-3.6 3.6h-14.8c-2.4 0-3.6-1.2-3.6-3.6 0-2.4 1.2-3.6 3.6-3.6z" stroke="none"/><path d="m7.4-3.6c2.4 0 3.6 1.2 3.6 3.6 0 2.4-1.2 3.6-3.6 3.6h-14.8c-2.4 0-3.6-1.2-3.6-3.6 0-2.4 1.2-3.6 3.6-3.6z" fill="none" stroke="#fff"/></g><g fill="#41890f" stroke="#41890f" transform="matrix(.70710678 -.70710678 .70710678 .70710678 390 190)"><path d="m7.4-3.6c2.4 0 3.6 1.2 3.6 3.6 0 2.4-1.2 3.6-3.6 3.6h-14.8c-2.4 0-3.6-1.2-3.6-3.6 0-2.4 1.2-3.6 3.6-3.6z" stroke="none"/><path d="m7.4-3.6c2.4 0 3.6 1.2 3.6 3.6 0 2.4-1.2 3.6-3.6 3.6h-14.8c-2.4 0-3.6-1.2-3.6-3.6 0-2.4 1.2-3.6 3.6-3.6z" fill="none" stroke="#fff"/></g><g fill="#3e5990" stroke="#3e5990" transform="matrix(.70710678 -.70710678 .70710678 .70710678 410 190)"><path d="m7.4-3.6c2.4 0 3.6 1.2 3.6 3.6 0 2.4-1.2 3.6-3.6 3.6h-14.8c-2.4 0-3.6-1.2-3.6-3.6 0-2.4 1.2-3.6 3.6-3.6z" stroke="none"/><path d="m7.4-3.6c2.4 0 3.6 1.2 3.6 3.6 0 2.4-1.2 3.6-3.6 3.6h-14.8c-2.4 0-3.6-1.2-3.6-3.6 0-2.4 1.2-3.6 3.6-3.6z" fill="none" stroke="#fff"/></g><g fill="#3e5990" stroke="#3e5990" transform="matrix(.70710678 -.70710678 .70710678 .70710678 50 210)"><path d="m7.4-3.6c2.4 0 3.6 1.2 3.6 3.6 0 2.4-1.2 3.6-3.6 3.6h-14.8c-2.4 0-3.6-1.2-3.6-3.6 0-2.4 1.2-3.6 3.6-3.6z" stroke="none"/><path d="m7.4-3.6c2.4 0 3.6 1.2 3.6 3.6 0 2.4-1.2 3.6-3.6 3.6h-14.8c-2.4 0-3.6-1.2-3.6-3.6 0-2.4 1.2-3.6 3.6-3.6z" fill="none" stroke="#fff"/></g><g fill="#cbdbfc" stroke="#cbdbfc" transform="matrix(.70710678 -.70710678 .70710678 .70710678 70 210)"><path d="m7.4-3.6c2.4 0 3.6 1.2 3.6 3.6 0 2.4-1.2 3.6-3.6 3.6h-14.8c-2.4 0-3.6-1.2-3.6-3.6 0-2.4 1.2-3.6 3.6-3.6z" stroke="none"/><path d="m7.4-3.6c2.4 0 3.6 1.2 3.6 3.6 0 2.4-1.2 3.6-3.6 3.6h-14.8c-2.4 0-3.6-1.2-3.6-3.6 0-2.4 1.2-3.6 3.6-3.6z" fill="none" stroke="#fff"/></g><g fill="#cbdbfc" stroke="#cbdbfc" transform="matrix(.70710678 -.70710678 .70710678 .70710678 90 210)"><path d="m7.4-3.6c2.4 0 3.6 1.2 3.6 3.6 0 2.4-1.2 3.6-3.6 3.6h-14.8c-2.4 0-3.6-1.2-3.6-3.6 0-2.4 1.2-3.6 3.6-3.6z" stroke="none"/><path d="m7.4-3.6c2.4 0 3.6 1.2 3.6 3.6 0 2.4-1.2 3.6-3.6 3.6h-14.8c-2.4 0-3.6-1.2-3.6-3.6 0-2.4 1.2-3.6 3.6-3.6z" fill="none" stroke="#fff"/></g><g fill="#fff" stroke="#fff" transform="matrix(.70710678 -.70710678 .70710678 .70710678 110 210)"><path d="m7.4-3.6c2.4 0 3.6 1.2 3.6 3.6 0 2.4-1.2 3.6-3.6 3.6h-14.8c-2.4 0-3.6-1.2-3.6-3.6 0-2.4 1.2-3.6 3.6-3.6z" stroke="none"/><path d="m7.4-3.6c2.4 0 3.6 1.2 3.6 3.6 0 2.4-1.2 3.6-3.6 3.6h-14.8c-2.4 0-3.6-1.2-3.6-3.6 0-2.4 1.2-3.6 3.6-3.6z" fill="none" stroke="#666"/></g><g fill="#fff" stroke="#fff" transform="matrix(.70710678 -.70710678 .70710678 .70710678 130 210)"><path d="m7.4-3.6c2.4 0 3.6 1.2 3.6 3.6 0 2.4-1.2 3.6-3.6 3.6h-14.8c-2.4 0-3.6-1.2-3.6-3.6 0-2.4 1.2-3.6 3.6-3.6z" stroke="none"/><path d="m7.4-3.6c2.4 0 3.6 1.2 3.6 3.6 0 2.4-1.2 3.6-3.6 3.6h-14.8c-2.4 0-3.6-1.2-3.6-3.6 0-2.4 1.2-3.6 3.6-3.6z" fill="none" stroke="#666"/></g><g fill="#ebebeb" stroke="#ebebeb" transform="matrix(.70710678 -.70710678 .70710678 .70710678 150 210)"><path d="m7.4-3.6c2.4 0 3.6 1.2 3.6 3.6 0 2.4-1.2 3.6-3.6 3.6h-14.8c-2.4 0-3.6-1.2-3.6-3.6 0-2.4 1.2-3.6 3.6-3.6z" stroke="none"/><path d="m7.4-3.6c2.4 0 3.6 1.2 3.6 3.6 0 2.4-1.2 3.6-3.6 3.6h-14.8c-2.4 0-3.6-1.2-3.6-3.6 0-2.4 1.2-3.6 3.6-3.6z" fill="none" stroke="#fff"/></g><g fill="#ebebeb" stroke="#ebebeb" transform="matrix(.70710678 -.70710678 .70710678 .70710678 170 210)"><path d="m7.4-3.6c2.4 0 3.6 1.2 3.6 3.6 0 2.4-1.2 3.6-3.6 3.6h-14.8c-2.4 0-3.6-1.2-3.6-3.6 0-2.4 1.2-3.6 3.6-3.6z" stroke="none"/><path d="m7.4-3.6c2.4 0 3.6 1.2 3.6 3.6 0 2.4-1.2 3.6-3.6 3.6h-14.8c-2.4 0-3.6-1.2-3.6-3.6 0-2.4 1.2-3.6 3.6-3.6z" fill="none" stroke="#fff"/></g><g fill="#5c2e1a" stroke="#5c2e1a" transform="matrix(.70710678 -.70710678 .70710678 .70710678 190 210)"><path d="m7.4-3.6c2.4 0 3.6 1.2 3.6 3.6 0 2.4-1.2 3.6-3.6 3.6h-14.8c-2.4 0-3.6-1.2-3.6-3.6 0-2.4 1.2-3.6 3.6-3.6z" stroke="none"/><path d="m7.4-3.6c2.4 0 3.6 1.2 3.6 3.6 0 2.4-1.2 3.6-3.6 3.6h-14.8c-2.4 0-3.6-1.2-3.6-3.6 0-2.4 1.2-3.6 3.6-3.6z" fill="none" stroke="#fff"/></g><g fill="#5c2e1a" stroke="#5c2e1a" transform="matrix(.70710678 -.70710678 .70710678 .70710678 210 210)"><path d="m7.4-3.6c2.4 0 3.6 1.2 3.6 3.6 0 2.4-1.2 3.6-3.6 3.6h-14.8c-2.4 0-3.6-1.2-3.6-3.6 0-2.4 1.2-3.6 3.6-3.6z" stroke="none"/><path d="m7.4-3.6c2.4 0 3.6 1.2 3.6 3.6 0 2.4-1.2 3.6-3.6 3.6h-14.8c-2.4 0-3.6-1.2-3.6-3.6 0-2.4 1.2-3.6 3.6-3.6z" fill="none" stroke="#fff"/></g><g fill="#5c2e1a" stroke="#5c2e1a" transform="matrix(.70710678 -.70710678 .70710678 .70710678 230 210)"><path d="m7.4-3.6c2.4 0 3.6 1.2 3.6 3.6 0 2.4-1.2 3.6-3.6 3.6h-14.8c-2.4 0-3.6-1.2-3.6-3.6 0-2.4 1.2-3.6 3.6-3.6z" stroke="none"/><path d="m7.4-3.6c2.4 0 3.6 1.2 3.6 3.6 0 2.4-1.2 3.6-3.6 3.6h-14.8c-2.4 0-3.6-1.2-3.6-3.6 0-2.4 1.2-3.6 3.6-3.6z" fill="none" stroke="#fff"/></g><g fill="#fff" stroke="#fff" transform="matrix(.70710678 -.70710678 .70710678 .70710678 250 210)"><path d="m7.4-3.6c2.4 0 3.6 1.2 3.6 3.6 0 2.4-1.2 3.6-3.6 3.6h-14.8c-2.4 0-3.6-1.2-3.6-3.6 0-2.4 1.2-3.6 3.6-3.6z" stroke="none"/><path d="m7.4-3.6c2.4 0 3.6 1.2 3.6 3.6 0 2.4-1.2 3.6-3.6 3.6h-14.8c-2.4 0-3.6-1.2-3.6-3.6 0-2.4 1.2-3.6 3.6-3.6z" fill="none" stroke="#666"/></g><g fill="#fff" stroke="#fff" transform="matrix(.70710678 -.70710678 .70710678 .70710678 270 210)"><path d="m7.4-3.6c2.4 0 3.6 1.2 3.6 3.6 0 2.4-1.2 3.6-3.6 3.6h-14.8c-2.4 0-3.6-1.2-3.6-3.6 0-2.4 1.2-3.6 3.6-3.6z" stroke="none"/><path d="m7.4-3.6c2.4 0 3.6 1.2 3.6 3.6 0 2.4-1.2 3.6-3.6 3.6h-14.8c-2.4 0-3.6-1.2-3.6-3.6 0-2.4 1.2-3.6 3.6-3.6z" fill="none" stroke="#666"/></g><g fill="#ebebeb" stroke="#ebebeb" transform="matrix(.70710678 -.70710678 .70710678 .70710678 290 210)"><path d="m7.4-3.6c2.4 0 3.6 1.2 3.6 3.6 0 2.4-1.2 3.6-3.6 3.6h-14.8c-2.4 0-3.6-1.2-3.6-3.6 0-2.4 1.2-3.6 3.6-3.6z" stroke="none"/><path d="m7.4-3.6c2.4 0 3.6 1.2 3.6 3.6 0 2.4-1.2 3.6-3.6 3.6h-14.8c-2.4 0-3.6-1.2-3.6-3.6 0-2.4 1.2-3.6 3.6-3.6z" fill="none" stroke="#fff"/></g><g fill="#ebebeb" stroke="#ebebeb" transform="matrix(.70710678 -.70710678 .70710678 .70710678 310 210)"><path d="m7.4-3.6c2.4 0 3.6 1.2 3.6 3.6 0 2.4-1.2 3.6-3.6 3.6h-14.8c-2.4 0-3.6-1.2-3.6-3.6 0-2.4 1.2-3.6 3.6-3.6z" stroke="none"/><path d="m7.4-3.6c2.4 0 3.6 1.2 3.6 3.6 0 2.4-1.2 3.6-3.6 3.6h-14.8c-2.4 0-3.6-1.2-3.6-3.6 0-2.4 1.2-3.6 3.6-3.6z" fill="none" stroke="#fff"/></g><g fill="#fff" stroke="#fff" transform="matrix(.70710678 -.70710678 .70710678 .70710678 330 210)"><path d="m7.4-3.6c2.4 0 3.6 1.2 3.6 3.6 0 2.4-1.2 3.6-3.6 3.6h-14.8c-2.4 0-3.6-1.2-3.6-3.6 0-2.4 1.2-3.6 3.6-3.6z" stroke="none"/><path d="m7.4-3.6c2.4 0 3.6 1.2 3.6 3.6 0 2.4-1.2 3.6-3.6 3.6h-14.8c-2.4 0-3.6-1.2-3.6-3.6 0-2.4 1.2-3.6 3.6-3.6z" fill="none" stroke="#666"/></g><g fill="#fff" stroke="#fff" transform="matrix(.70710678 -.70710678 .70710678 .70710678 350 210)"><path d="m7.4-3.6c2.4 0 3.6 1.2 3.6 3.6 0 2.4-1.2 3.6-3.6 3.6h-14.8c-2.4 0-3.6-1.2-3.6-3.6 0-2.4 1.2-3.6 3.6-3.6z" stroke="none"/><path d="m7.4-3.6c2.4 0 3.6 1.2 3.6 3.6 0 2.4-1.2 3.6-3.6 3.6h-14.8c-2.4 0-3.6-1.2-3.6-3.6 0-2.4 1.2-3.6 3.6-3.6z" fill="none" stroke="#666"/></g><g fill="#41890f" stroke="#41890f" transform="matrix(.70710678 -.70710678 .70710678 .70710678 370 210)"><path d="m7.4-3.6c2.4 0 3.6 1.2 3.6 3.6 0 2.4-1.2 3.6-3.6 3.6h-14.8c-2.4 0-3.6-1.2-3.6-3.6 0-2.4 1.2-3.6 3.6-3.6z" stroke="none"/><path d="m7.4-3.6c2.4 0 3.6 1.2 3.6 3.6 0 2.4-1.2 3.6-3.6 3.6h-14.8c-2.4 0-3.6-1.2-3.6-3.6 0-2.4 1.2-3.6 3.6-3.6z" fill="none" stroke="#fff"/></g><g fill="#41890f" stroke="#41890f" transform="matrix(.70710678 -.70710678 .70710678 .70710678 390 210)"><path d="m7.4-3.6c2.4 0 3.6 1.2 3.6 3.6 0 2.4-1.2 3.6-3.6 3.6h-14.8c-2.4 0-3.6-1.2-3.6-3.6 0-2.4 1.2-3.6 3.6-3.6z" stroke="none"/><path d="m7.4-3.6c2.4 0 3.6 1.2 3.6 3.6 0 2.4-1.2 3.6-3.6 3.6h-14.8c-2.4 0-3.6-1.2-3.6-3.6 0-2.4 1.2-3.6 3.6-3.6z" fill="none" stroke="#fff"/></g><g fill="#cbdbfc" stroke="#cbdbfc" transform="matrix(.70710678 -.70710678 .70710678 .70710678 410 210)"><path d="m7.4-3.6c2.4 0 3.6 1.2 3.6 3.6 0 2.4-1.2 3.6-3.6 3.6h-14.8c-2.4 0-3.6-1.2-3.6-3.6 0-2.4 1.2-3.6 3.6-3.6z" stroke="none"/><path d="m7.4-3.6c2.4 0 3.6 1.2 3.6 3.6 0 2.4-1.2 3.6-3.6 3.6h-14.8c-2.4 0-3.6-1.2-3.6-3.6 0-2.4 1.2-3.6 3.6-3.6z" fill="none" stroke="#fff"/></g><g fill="#3e5990" stroke="#3e5990" transform="matrix(.70710678 -.70710678 .70710678 .70710678 430 210)"><path d="m7.4-3.6c2.4 0 3.6 1.2 3.6 3.6 0 2.4-1.2 3.6-3.6 3.6h-14.8c-2.4 0-3.6-1.2-3.6-3.6 0-2.4 1.2-3.6 3.6-3.6z" stroke="none"/><path d="m7.4-3.6c2.4 0 3.6 1.2 3.6 3.6 0 2.4-1.2 3.6-3.6 3.6h-14.8c-2.4 0-3.6-1.2-3.6-3.6 0-2.4 1.2-3.6 3.6-3.6z" fill="none" stroke="#fff"/></g><g fill="#3e5990" stroke="#3e5990" transform="matrix(.70710678 -.70710678 .70710678 .70710678 30 230)"><path d="m7.4-3.6c2.4 0 3.6 1.2 3.6 3.6 0 2.4-1.2 3.6-3.6 3.6h-14.8c-2.4 0-3.6-1.2-3.6-3.6 0-2.4 1.2-3.6 3.6-3.6z" stroke="none"/><path d="m7.4-3.6c2.4 0 3.6 1.2 3.6 3.6 0 2.4-1.2 3.6-3.6 3.6h-14.8c-2.4 0-3.6-1.2-3.6-3.6 0-2.4 1.2-3.6 3.6-3.6z" fill="none" stroke="#fff"/></g><g fill="#cbdbfc" stroke="#cbdbfc" transform="matrix(.70710678 -.70710678 .70710678 .70710678 50 230)"><path d="m7.4-3.6c2.4 0 3.6 1.2 3.6 3.6 0 2.4-1.2 3.6-3.6 3.6h-14.8c-2.4 0-3.6-1.2-3.6-3.6 0-2.4 1.2-3.6 3.6-3.6z" stroke="none"/><path d="m7.4-3.6c2.4 0 3.6 1.2 3.6 3.6 0 2.4-1.2 3.6-3.6 3.6h-14.8c-2.4 0-3.6-1.2-3.6-3.6 0-2.4 1.2-3.6 3.6-3.6z" fill="none" stroke="#fff"/></g><g fill="#cbdbfc" stroke="#cbdbfc" transform="matrix(.70710678 -.70710678 .70710678 .70710678 70 230)"><path d="m7.4-3.6c2.4 0 3.6 1.2 3.6 3.6 0 2.4-1.2 3.6-3.6 3.6h-14.8c-2.4 0-3.6-1.2-3.6-3.6 0-2.4 1.2-3.6 3.6-3.6z" stroke="none"/><path d="m7.4-3.6c2.4 0 3.6 1.2 3.6 3.6 0 2.4-1.2 3.6-3.6 3.6h-14.8c-2.4 0-3.6-1.2-3.6-3.6 0-2.4 1.2-3.6 3.6-3.6z" fill="none" stroke="#fff"/></g><g fill="#cbdbfc" stroke="#cbdbfc" transform="matrix(.70710678 -.70710678 .70710678 .70710678 90 230)"><path d="m7.4-3.6c2.4 0 3.6 1.2 3.6 3.6 0 2.4-1.2 3.6-3.6 3.6h-14.8c-2.4 0-3.6-1.2-3.6-3.6 0-2.4 1.2-3.6 3.6-3.6z" stroke="none"/><path d="m7.4-3.6c2.4 0 3.6 1.2 3.6 3.6 0 2.4-1.2 3.6-3.6 3.6h-14.8c-2.4 0-3.6-1.2-3.6-3.6 0-2.4 1.2-3.6 3.6-3.6z" fill="none" stroke="#fff"/></g><g fill="#fff" stroke="#fff" transform="matrix(.70710678 -.70710678 .70710678 .70710678 110 230)"><path d="m7.4-3.6c2.4 0 3.6 1.2 3.6 3.6 0 2.4-1.2 3.6-3.6 3.6h-14.8c-2.4 0-3.6-1.2-3.6-3.6 0-2.4 1.2-3.6 3.6-3.6z" stroke="none"/><path d="m7.4-3.6c2.4 0 3.6 1.2 3.6 3.6 0 2.4-1.2 3.6-3.6 3.6h-14.8c-2.4 0-3.6-1.2-3.6-3.6 0-2.4 1.2-3.6 3.6-3.6z" fill="none" stroke="#666"/></g><g fill="#fff" stroke="#fff" transform="matrix(.70710678 -.70710678 .70710678 .70710678 130 230)"><path d="m7.4-3.6c2.4 0 3.6 1.2 3.6 3.6 0 2.4-1.2 3.6-3.6 3.6h-14.8c-2.4 0-3.6-1.2-3.6-3.6 0-2.4 1.2-3.6 3.6-3.6z" stroke="none"/><path d="m7.4-3.6c2.4 0 3.6 1.2 3.6 3.6 0 2.4-1.2 3.6-3.6 3.6h-14.8c-2.4 0-3.6-1.2-3.6-3.6 0-2.4 1.2-3.6 3.6-3.6z" fill="none" stroke="#666"/></g><g fill="#fff" stroke="#fff" transform="matrix(.70710678 -.70710678 .70710678 .70710678 150 230)"><path d="m7.4-3.6c2.4 0 3.6 1.2 3.6 3.6 0 2.4-1.2 3.6-3.6 3.6h-14.8c-2.4 0-3.6-1.2-3.6-3.6 0-2.4 1.2-3.6 3.6-3.6z" stroke="none"/><path d="m7.4-3.6c2.4 0 3.6 1.2 3.6 3.6 0 2.4-1.2 3.6-3.6 3.6h-14.8c-2.4 0-3.6-1.2-3.6-3.6 0-2.4 1.2-3.6 3.6-3.6z" fill="none" stroke="#666"/></g><g fill="#fff" stroke="#fff" transform="matrix(.70710678 -.70710678 .70710678 .70710678 170 230)"><path d="m7.4-3.6c2.4 0 3.6 1.2 3.6 3.6 0 2.4-1.2 3.6-3.6 3.6h-14.8c-2.4 0-3.6-1.2-3.6-3.6 0-2.4 1.2-3.6 3.6-3.6z" stroke="none"/><path d="m7.4-3.6c2.4 0 3.6 1.2 3.6 3.6 0 2.4-1.2 3.6-3.6 3.6h-14.8c-2.4 0-3.6-1.2-3.6-3.6 0-2.4 1.2-3.6 3.6-3.6z" fill="none" stroke="#666"/></g><g fill="#ebebeb" stroke="#ebebeb" transform="matrix(.70710678 -.70710678 .70710678 .70710678 190 230)"><path d="m7.4-3.6c2.4 0 3.6 1.2 3.6 3.6 0 2.4-1.2 3.6-3.6 3.6h-14.8c-2.4 0-3.6-1.2-3.6-3.6 0-2.4 1.2-3.6 3.6-3.6z" stroke="none"/><path d="m7.4-3.6c2.4 0 3.6 1.2 3.6 3.6 0 2.4-1.2 3.6-3.6 3.6h-14.8c-2.4 0-3.6-1.2-3.6-3.6 0-2.4 1.2-3.6 3.6-3.6z" fill="none" stroke="#fff"/></g><g fill="#5c2e1a" stroke="#5c2e1a" transform="matrix(.70710678 -.70710678 .70710678 .70710678 210 230)"><path d="m7.4-3.6c2.4 0 3.6 1.2 3.6 3.6 0 2.4-1.2 3.6-3.6 3.6h-14.8c-2.4 0-3.6-1.2-3.6-3.6 0-2.4 1.2-3.6 3.6-3.6z" stroke="none"/><path d="m7.4-3.6c2.4 0 3.6 1.2 3.6 3.6 0 2.4-1.2 3.6-3.6 3.6h-14.8c-2.4 0-3.6-1.2-3.6-3.6 0-2.4 1.2-3.6 3.6-3.6z" fill="none" stroke="#fff"/></g><g fill="#fff" stroke="#fff" transform="matrix(.70710678 -.70710678 .70710678 .70710678 230 230)"><path d="m7.4-3.6c2.4 0 3.6 1.2 3.6 3.6 0 2.4-1.2 3.6-3.6 3.6h-14.8c-2.4 0-3.6-1.2-3.6-3.6 0-2.4 1.2-3.6 3.6-3.6z" stroke="none"/><path d="m7.4-3.6c2.4 0 3.6 1.2 3.6 3.6 0 2.4-1.2 3.6-3.6 3.6h-14.8c-2.4 0-3.6-1.2-3.6-3.6 0-2.4 1.2-3.6 3.6-3.6z" fill="none" stroke="#666"/></g><g fill="#ebebeb" stroke="#ebebeb" transform="matrix(.70710678 -.70710678 .70710678 .70710678 250 230)"><path d="m7.4-3.6c2.4 0 3.6 1.2 3.6 3.6 0 2.4-1.2 3.6-3.6 3.6h-14.8c-2.4 0-3.6-1.2-3.6-3.6 0-2.4 1.2-3.6 3.6-3.6z" stroke="none"/><path d="m7.4-3.6c2.4 0 3.6 1.2 3.6 3.6 0 2.4-1.2 3.6-3.6 3.6h-14.8c-2.4 0-3.6-1.2-3.6-3.6 0-2.4 1.2-3.6 3.6-3.6z" fill="none" stroke="#fff"/></g><g fill="#ebebeb" stroke="#ebebeb" transform="matrix(.70710678 -.70710678 .70710678 .70710678 270 230)"><path d="m7.4-3.6c2.4 0 3.6 1.2 3.6 3.6 0 2.4-1.2 3.6-3.6 3.6h-14.8c-2.4 0-3.6-1.2-3.6-3.6 0-2.4 1.2-3.6 3.6-3.6z" stroke="none"/><path d="m7.4-3.6c2.4 0 3.6 1.2 3.6 3.6 0 2.4-1.2 3.6-3.6 3.6h-14.8c-2.4 0-3.6-1.2-3.6-3.6 0-2.4 1.2-3.6 3.6-3.6z" fill="none" stroke="#fff"/></g><g fill="#fff" stroke="#fff" transform="matrix(.70710678 -.70710678 .70710678 .70710678 290 230)"><path d="m7.4-3.6c2.4 0 3.6 1.2 3.6 3.6 0 2.4-1.2 3.6-3.6 3.6h-14.8c-2.4 0-3.6-1.2-3.6-3.6 0-2.4 1.2-3.6 3.6-3.6z" stroke="none"/><path d="m7.4-3.6c2.4 0 3.6 1.2 3.6 3.6 0 2.4-1.2 3.6-3.6 3.6h-14.8c-2.4 0-3.6-1.2-3.6-3.6 0-2.4 1.2-3.6 3.6-3.6z" fill="none" stroke="#666"/></g><g fill="#fff" stroke="#fff" transform="matrix(.70710678 -.70710678 .70710678 .70710678 310 230)"><path d="m7.4-3.6c2.4 0 3.6 1.2 3.6 3.6 0 2.4-1.2 3.6-3.6 3.6h-14.8c-2.4 0-3.6-1.2-3.6-3.6 0-2.4 1.2-3.6 3.6-3.6z" stroke="none"/><path d="m7.4-3.6c2.4 0 3.6 1.2 3.6 3.6 0 2.4-1.2 3.6-3.6 3.6h-14.8c-2.4 0-3.6-1.2-3.6-3.6 0-2.4 1.2-3.6 3.6-3.6z" fill="none" stroke="#666"/></g><g fill="#fff" stroke="#fff" transform="matrix(.70710678 -.70710678 .70710678 .70710678 330 230)"><path d="m7.4-3.6c2.4 0 3.6 1.2 3.6 3.6 0 2.4-1.2 3.6-3.6 3.6h-14.8c-2.4 0-3.6-1.2-3.6-3.6 0-2.4 1.2-3.6 3.6-3.6z" stroke="none"/><path d="m7.4-3.6c2.4 0 3.6 1.2 3.6 3.6 0 2.4-1.2 3.6-3.6 3.6h-14.8c-2.4 0-3.6-1.2-3.6-3.6 0-2.4 1.2-3.6 3.6-3.6z" fill="none" stroke="#666"/></g><g fill="#fff" stroke="#fff" transform="matrix(.70710678 -.70710678 .70710678 .70710678 350 230)"><path d="m7.4-3.6c2.4 0 3.6 1.2 3.6 3.6 0 2.4-1.2 3.6-3.6 3.6h-14.8c-2.4 0-3.6-1.2-3.6-3.6 0-2.4 1.2-3.6 3.6-3.6z" stroke="none"/><path d="m7.4-3.6c2.4 0 3.6 1.2 3.6 3.6 0 2.4-1.2 3.6-3.6 3.6h-14.8c-2.4 0-3.6-1.2-3.6-3.6 0-2.4 1.2-3.6 3.6-3.6z" fill="none" stroke="#666"/></g><g fill="#41890f" stroke="#41890f" transform="matrix(.70710678 -.70710678 .70710678 .70710678 370 230)"><path d="m7.4-3.6c2.4 0 3.6 1.2 3.6 3.6 0 2.4-1.2 3.6-3.6 3.6h-14.8c-2.4 0-3.6-1.2-3.6-3.6 0-2.4 1.2-3.6 3.6-3.6z" stroke="none"/><path d="m7.4-3.6c2.4 0 3.6 1.2 3.6 3.6 0 2.4-1.2 3.6-3.6 3.6h-14.8c-2.4 0-3.6-1.2-3.6-3.6 0-2.4 1.2-3.6 3.6-3.6z" fill="none" stroke="#fff"/></g><g fill="#41890f" stroke="#41890f" transform="matrix(.70710678 -.70710678 .70710678 .70710678 390 230)"><path d="m7.4-3.6c2.4 0 3.6 1.2 3.6 3.6 0 2.4-1.2 3.6-3.6 3.6h-14.8c-2.4 0-3.6-1.2-3.6-3.6 0-2.4 1.2-3.6 3.6-3.6z" stroke="none"/><path d="m7.4-3.6c2.4 0 3.6 1.2 3.6 3.6 0 2.4-1.2 3.6-3.6 3.6h-14.8c-2.4 0-3.6-1.2-3.6-3.6 0-2.4 1.2-3.6 3.6-3.6z" fill="none" stroke="#fff"/></g><g fill="#cbdbfc" stroke="#cbdbfc" transform="matrix(.70710678 -.70710678 .70710678 .70710678 410 230)"><path d="m7.4-3.6c2.4 0 3.6 1.2 3.6 3.6 0 2.4-1.2 3.6-3.6 3.6h-14.8c-2.4 0-3.6-1.2-3.6-3.6 0-2.4 1.2-3.6 3.6-3.6z" stroke="none"/><path d="m7.4-3.6c2.4 0 3.6 1.2 3.6 3.6 0 2.4-1.2 3.6-3.6 3.6h-14.8c-2.4 0-3.6-1.2-3.6-3.6 0-2.4 1.2-3.6 3.6-3.6z" fill="none" stroke="#fff"/></g><g fill="#cbdbfc" stroke="#cbdbfc" transform="matrix(.70710678 -.70710678 .70710678 .70710678 430 230)"><path d="m7.4-3.6c2.4 0 3.6 1.2 3.6 3.6 0 2.4-1.2 3.6-3.6 3.6h-14.8c-2.4 0-3.6-1.2-3.6-3.6 0-2.4 1.2-3.6 3.6-3.6z" stroke="none"/><path d="m7.4-3.6c2.4 0 3.6 1.2 3.6 3.6 0 2.4-1.2 3.6-3.6 3.6h-14.8c-2.4 0-3.6-1.2-3.6-3.6 0-2.4 1.2-3.6 3.6-3.6z" fill="none" stroke="#fff"/></g><g fill="#3e5990" stroke="#3e5990" transform="matrix(.70710678 -.70710678 .70710678 .70710678 450 230)"><path d="m7.4-3.6c2.4 0 3.6 1.2 3.6 3.6 0 2.4-1.2 3.6-3.6 3.6h-14.8c-2.4 0-3.6-1.2-3.6-3.6 0-2.4 1.2-3.6 3.6-3.6z" stroke="none"/><path d="m7.4-3.6c2.4 0 3.6 1.2 3.6 3.6 0 2.4-1.2 3.6-3.6 3.6h-14.8c-2.4 0-3.6-1.2-3.6-3.6 0-2.4 1.2-3.6 3.6-3.6z" fill="none" stroke="#fff"/></g><g fill="#3e5990" stroke="#3e5990" transform="matrix(.70710678 -.70710678 .70710678 .70710678 30 250)"><path d="m7.4-3.6c2.4 0 3.6 1.2 3.6 3.6 0 2.4-1.2 3.6-3.6 3.6h-14.8c-2.4 0-3.6-1.2-3.6-3.6 0-2.4 1.2-3.6 3.6-3.6z" stroke="none"/><path d="m7.4-3.6c2.4 0 3.6 1.2 3.6 3.6 0 2.4-1.2 3.6-3.6 3.6h-14.8c-2.4 0-3.6-1.2-3.6-3.6 0-2.4 1.2-3.6 3.6-3.6z" fill="none" stroke="#fff"/></g><g fill="#cbdbfc" stroke="#cbdbfc" transform="matrix(.70710678 -.70710678 .70710678 .70710678 50 250)"><path d="m7.4-3.6c2.4 0 3.6 1.2 3.6 3.6 0 2.4-1.2 3.6-3.6 3.6h-14.8c-2.4 0-3.6-1.2-3.6-3.6 0-2.4 1.2-3.6 3.6-3.6z" stroke="none"/><path d="m7.4-3.6c2.4 0 3.6 1.2 3.6 3.6 0 2.4-1.2 3.6-3.6 3.6h-14.8c-2.4 0-3.6-1.2-3.6-3.6 0-2.4 1.2-3.6 3.6-3.6z" fill="none" stroke="#fff"/></g><g fill="#cbdbfc" stroke="#cbdbfc" transform="matrix(.70710678 -.70710678 .70710678 .70710678 70 250)"><path d="m7.4-3.6c2.4 0 3.6 1.2 3.6 3.6 0 2.4-1.2 3.6-3.6 3.6h-14.8c-2.4 0-3.6-1.2-3.6-3.6 0-2.4 1.2-3.6 3.6-3.6z" stroke="none"/><path d="m7.4-3.6c2.4 0 3.6 1.2 3.6 3.6 0 2.4-1.2 3.6-3.6 3.6h-14.8c-2.4 0-3.6-1.2-3.6-3.6 0-2.4 1.2-3.6 3.6-3.6z" fill="none" stroke="#fff"/></g><g fill="#cbdbfc" stroke="#cbdbfc" transform="matrix(.70710678 -.70710678 .70710678 .70710678 90 250)"><path d="m7.4-3.6c2.4 0 3.6 1.2 3.6 3.6 0 2.4-1.2 3.6-3.6 3.6h-14.8c-2.4 0-3.6-1.2-3.6-3.6 0-2.4 1.2-3.6 3.6-3.6z" stroke="none"/><path d="m7.4-3.6c2.4 0 3.6 1.2 3.6 3.6 0 2.4-1.2 3.6-3.6 3.6h-14.8c-2.4 0-3.6-1.2-3.6-3.6 0-2.4 1.2-3.6 3.6-3.6z" fill="none" stroke="#fff"/></g><g fill="#fff" stroke="#fff" transform="matrix(.70710678 -.70710678 .70710678 .70710678 110 250)"><path d="m7.4-3.6c2.4 0 3.6 1.2 3.6 3.6 0 2.4-1.2 3.6-3.6 3.6h-14.8c-2.4 0-3.6-1.2-3.6-3.6 0-2.4 1.2-3.6 3.6-3.6z" stroke="none"/><path d="m7.4-3.6c2.4 0 3.6 1.2 3.6 3.6 0 2.4-1.2 3.6-3.6 3.6h-14.8c-2.4 0-3.6-1.2-3.6-3.6 0-2.4 1.2-3.6 3.6-3.6z" fill="none" stroke="#666"/></g><g fill="#fff" stroke="#fff" transform="matrix(.70710678 -.70710678 .70710678 .70710678 130 250)"><path d="m7.4-3.6c2.4 0 3.6 1.2 3.6 3.6 0 2.4-1.2 3.6-3.6 3.6h-14.8c-2.4 0-3.6-1.2-3.6-3.6 0-2.4 1.2-3.6 3.6-3.6z" stroke="none"/><path d="m7.4-3.6c2.4 0 3.6 1.2 3.6 3.6 0 2.4-1.2 3.6-3.6 3.6h-14.8c-2.4 0-3.6-1.2-3.6-3.6 0-2.4 1.2-3.6 3.6-3.6z" fill="none" stroke="#666"/></g><g fill="#fff" stroke="#fff" transform="matrix(.70710678 -.70710678 .70710678 .70710678 150 250)"><path d="m7.4-3.6c2.4 0 3.6 1.2 3.6 3.6 0 2.4-1.2 3.6-3.6 3.6h-14.8c-2.4 0-3.6-1.2-3.6-3.6 0-2.4 1.2-3.6 3.6-3.6z" stroke="none"/><path d="m7.4-3.6c2.4 0 3.6 1.2 3.6 3.6 0 2.4-1.2 3.6-3.6 3.6h-14.8c-2.4 0-3.6-1.2-3.6-3.6 0-2.4 1.2-3.6 3.6-3.6z" fill="none" stroke="#666"/></g><g fill="#fff" stroke="#fff" transform="matrix(.70710678 -.70710678 .70710678 .70710678 170 250)"><path d="m7.4-3.6c2.4 0 3.6 1.2 3.6 3.6 0 2.4-1.2 3.6-3.6 3.6h-14.8c-2.4 0-3.6-1.2-3.6-3.6 0-2.4 1.2-3.6 3.6-3.6z" stroke="none"/><path d="m7.4-3.6c2.4 0 3.6 1.2 3.6 3.6 0 2.4-1.2 3.6-3.6 3.6h-14.8c-2.4 0-3.6-1.2-3.6-3.6 0-2.4 1.2-3.6 3.6-3.6z" fill="none" stroke="#666"/></g><g fill="#5c2e1a" stroke="#5c2e1a" transform="matrix(.70710678 -.70710678 .70710678 .70710678 190 250)"><path d="m7.4-3.6c2.4 0 3.6 1.2 3.6 3.6 0 2.4-1.2 3.6-3.6 3.6h-14.8c-2.4 0-3.6-1.2-3.6-3.6 0-2.4 1.2-3.6 3.6-3.6z" stroke="none"/><path d="m7.4-3.6c2.4 0 3.6 1.2 3.6 3.6 0 2.4-1.2 3.6-3.6 3.6h-14.8c-2.4 0-3.6-1.2-3.6-3.6 0-2.4 1.2-3.6 3.6-3.6z" fill="none" stroke="#fff"/></g><g fill="#fff" stroke="#fff" transform="matrix(.70710678 -.70710678 .70710678 .70710678 210 250)"><path d="m7.4-3.6c2.4 0 3.6 1.2 3.6 3.6 0 2.4-1.2 3.6-3.6 3.6h-14.8c-2.4 0-3.6-1.2-3.6-3.6 0-2.4 1.2-3.6 3.6-3.6z" stroke="none"/><path d="m7.4-3.6c2.4 0 3.6 1.2 3.6 3.6 0 2.4-1.2 3.6-3.6 3.6h-14.8c-2.4 0-3.6-1.2-3.6-3.6 0-2.4 1.2-3.6 3.6-3.6z" fill="none" stroke="#666"/></g><g fill="#ebebeb" stroke="#ebebeb" transform="matrix(.70710678 -.70710678 .70710678 .70710678 230 250)"><path d="m7.4-3.6c2.4 0 3.6 1.2 3.6 3.6 0 2.4-1.2 3.6-3.6 3.6h-14.8c-2.4 0-3.6-1.2-3.6-3.6 0-2.4 1.2-3.6 3.6-3.6z" stroke="none"/><path d="m7.4-3.6c2.4 0 3.6 1.2 3.6 3.6 0 2.4-1.2 3.6-3.6 3.6h-14.8c-2.4 0-3.6-1.2-3.6-3.6 0-2.4 1.2-3.6 3.6-3.6z" fill="none" stroke="#fff"/></g><g fill="#fff" stroke="#fff" transform="matrix(.70710678 -.70710678 .70710678 .70710678 250 250)"><path d="m7.4-3.6c2.4 0 3.6 1.2 3.6 3.6 0 2.4-1.2 3.6-3.6 3.6h-14.8c-2.4 0-3.6-1.2-3.6-3.6 0-2.4 1.2-3.6 3.6-3.6z" stroke="none"/><path d="m7.4-3.6c2.4 0 3.6 1.2 3.6 3.6 0 2.4-1.2 3.6-3.6 3.6h-14.8c-2.4 0-3.6-1.2-3.6-3.6 0-2.4 1.2-3.6 3.6-3.6z" fill="none" stroke="#666"/></g><g fill="#fff" stroke="#fff" transform="matrix(.70710678 -.70710678 .70710678 .70710678 270 250)"><path d="m7.4-3.6c2.4 0 3.6 1.2 3.6 3.6 0 2.4-1.2 3.6-3.6 3.6h-14.8c-2.4 0-3.6-1.2-3.6-3.6 0-2.4 1.2-3.6 3.6-3.6z" stroke="none"/><path d="m7.4-3.6c2.4 0 3.6 1.2 3.6 3.6 0 2.4-1.2 3.6-3.6 3.6h-14.8c-2.4 0-3.6-1.2-3.6-3.6 0-2.4 1.2-3.6 3.6-3.6z" fill="none" stroke="#666"/></g><g fill="#fff" stroke="#fff" transform="matrix(.70710678 -.70710678 .70710678 .70710678 290 250)"><path d="m7.4-3.6c2.4 0 3.6 1.2 3.6 3.6 0 2.4-1.2 3.6-3.6 3.6h-14.8c-2.4 0-3.6-1.2-3.6-3.6 0-2.4 1.2-3.6 3.6-3.6z" stroke="none"/><path d="m7.4-3.6c2.4 0 3.6 1.2 3.6 3.6 0 2.4-1.2 3.6-3.6 3.6h-14.8c-2.4 0-3.6-1.2-3.6-3.6 0-2.4 1.2-3.6 3.6-3.6z" fill="none" stroke="#666"/></g><g fill="#fff" stroke="#fff" transform="matrix(.70710678 -.70710678 .70710678 .70710678 310 250)"><path d="m7.4-3.6c2.4 0 3.6 1.2 3.6 3.6 0 2.4-1.2 3.6-3.6 3.6h-14.8c-2.4 0-3.6-1.2-3.6-3.6 0-2.4 1.2-3.6 3.6-3.6z" stroke="none"/><path d="m7.4-3.6c2.4 0 3.6 1.2 3.6 3.6 0 2.4-1.2 3.6-3.6 3.6h-14.8c-2.4 0-3.6-1.2-3.6-3.6 0-2.4 1.2-3.6 3.6-3.6z" fill="none" stroke="#666"/></g><g fill="#fff" stroke="#fff" transform="matrix(.70710678 -.70710678 .70710678 .70710678 330 250)"><path d="m7.4-3.6c2.4 0 3.6 1.2 3.6 3.6 0 2.4-1.2 3.6-3.6 3.6h-14.8c-2.4 0-3.6-1.2-3.6-3.6 0-2.4 1.2-3.6 3.6-3.6z" stroke="none"/><path d="m7.4-3.6c2.4 0 3.6 1.2 3.6 3.6 0 2.4-1.2 3.6-3.6 3.6h-14.8c-2.4 0-3.6-1.2-3.6-3.6 0-2.4 1.2-3.6 3.6-3.6z" fill="none" stroke="#666"/></g><g fill="#fff" stroke="#fff" transform="matrix(.70710678 -.70710678 .70710678 .70710678 350 250)"><path d="m7.4-3.6c2.4 0 3.6 1.2 3.6 3.6 0 2.4-1.2 3.6-3.6 3.6h-14.8c-2.4 0-3.6-1.2-3.6-3.6 0-2.4 1.2-3.6 3.6-3.6z" stroke="none"/><path d="m7.4-3.6c2.4 0 3.6 1.2 3.6 3.6 0 2.4-1.2 3.6-3.6 3.6h-14.8c-2.4 0-3.6-1.2-3.6-3.6 0-2.4 1.2-3.6 3.6-3.6z" fill="none" stroke="#666"/></g><g fill="#41890f" stroke="#41890f" transform="matrix(.70710678 -.70710678 .70710678 .70710678 370 250)"><path d="m7.4-3.6c2.4 0 3.6 1.2 3.6 3.6 0 2.4-1.2 3.6-3.6 3.6h-14.8c-2.4 0-3.6-1.2-3.6-3.6 0-2.4 1.2-3.6 3.6-3.6z" stroke="none"/><path d="m7.4-3.6c2.4 0 3.6 1.2 3.6 3.6 0 2.4-1.2 3.6-3.6 3.6h-14.8c-2.4 0-3.6-1.2-3.6-3.6 0-2.4 1.2-3.6 3.6-3.6z" fill="none" stroke="#fff"/></g><g fill="#cbdbfc" stroke="#cbdbfc" transform="matrix(.70710678 -.70710678 .70710678 .70710678 390 250)"><path d="m7.4-3.6c2.4 0 3.6 1.2 3.6 3.6 0 2.4-1.2 3.6-3.6 3.6h-14.8c-2.4 0-3.6-1.2-3.6-3.6 0-2.4 1.2-3.6 3.6-3.6z" stroke="none"/><path d="m7.4-3.6c2.4 0 3.6 1.2 3.6 3.6 0 2.4-1.2 3.6-3.6 3.6h-14.8c-2.4 0-3.6-1.2-3.6-3.6 0-2.4 1.2-3.6 3.6-3.6z" fill="none" stroke="#fff"/></g><g fill="#cbdbfc" stroke="#cbdbfc" transform="matrix(.70710678 -.70710678 .70710678 .70710678 410 250)"><path d="m7.4-3.6c2.4 0 3.6 1.2 3.6 3.6 0 2.4-1.2 3.6-3.6 3.6h-14.8c-2.4 0-3.6-1.2-3.6-3.6 0-2.4 1.2-3.6 3.6-3.6z" stroke="none"/><path d="m7.4-3.6c2.4 0 3.6 1.2 3.6 3.6 0 2.4-1.2 3.6-3.6 3.6h-14.8c-2.4 0-3.6-1.2-3.6-3.6 0-2.4 1.2-3.6 3.6-3.6z" fill="none" stroke="#fff"/></g><g fill="#cbdbfc" stroke="#cbdbfc" transform="matrix(.70710678 -.70710678 .70710678 .70710678 430 250)"><path d="m7.4-3.6c2.4 0 3.6 1.2 3.6 3.6 0 2.4-1.2 3.6-3.6 3.6h-14.8c-2.4 0-3.6-1.2-3.6-3.6 0-2.4 1.2-3.6 3.6-3.6z" stroke="none"/><path d="m7.4-3.6c2.4 0 3.6 1.2 3.6 3.6 0 2.4-1.2 3.6-3.6 3.6h-14.8c-2.4 0-3.6-1.2-3.6-3.6 0-2.4 1.2-3.6 3.6-3.6z" fill="none" stroke="#fff"/></g><g fill="#3e5990" stroke="#3e5990" transform="matrix(.70710678 -.70710678 .70710678 .70710678 450 250)"><path d="m7.4-3.6c2.4 0 3.6 1.2 3.6 3.6 0 2.4-1.2 3.6-3.6 3.6h-14.8c-2.4 0-3.6-1.2-3.6-3.6 0-2.4 1.2-3.6 3.6-3.6z" stroke="none"/><path d="m7.4-3.6c2.4 0 3.6 1.2 3.6 3.6 0 2.4-1.2 3.6-3.6 3.6h-14.8c-2.4 0-3.6-1.2-3.6-3.6 0-2.4 1.2-3.6 3.6-3.6z" fill="none" stroke="#fff"/></g><g fill="#3e5990" stroke="#3e5990" transform="matrix(.70710678 -.70710678 .70710678 .70710678 30 270)"><path d="m7.4-3.6c2.4 0 3.6 1.2 3.6 3.6 0 2.4-1.2 3.6-3.6 3.6h-14.8c-2.4 0-3.6-1.2-3.6-3.6 0-2.4 1.2-3.6 3.6-3.6z" stroke="none"/><path d="m7.4-3.6c2.4 0 3.6 1.2 3.6 3.6 0 2.4-1.2 3.6-3.6 3.6h-14.8c-2.4 0-3.6-1.2-3.6-3.6 0-2.4 1.2-3.6 3.6-3.6z" fill="none" stroke="#fff"/></g><g fill="#cbdbfc" stroke="#cbdbfc" transform="matrix(.70710678 -.70710678 .70710678 .70710678 50 270)"><path d="m7.4-3.6c2.4 0 3.6 1.2 3.6 3.6 0 2.4-1.2 3.6-3.6 3.6h-14.8c-2.4 0-3.6-1.2-3.6-3.6 0-2.4 1.2-3.6 3.6-3.6z" stroke="none"/><path d="m7.4-3.6c2.4 0 3.6 1.2 3.6 3.6 0 2.4-1.2 3.6-3.6 3.6h-14.8c-2.4 0-3.6-1.2-3.6-3.6 0-2.4 1.2-3.6 3.6-3.6z" fill="none" stroke="#fff"/></g><g fill="#cbdbfc" stroke="#cbdbfc" transform="matrix(.70710678 -.70710678 .70710678 .70710678 70 270)"><path d="m7.4-3.6c2.4 0 3.6 1.2 3.6 3.6 0 2.4-1.2 3.6-3.6 3.6h-14.8c-2.4 0-3.6-1.2-3.6-3.6 0-2.4 1.2-3.6 3.6-3.6z" stroke="none"/><path d="m7.4-3.6c2.4 0 3.6 1.2 3.6 3.6 0 2.4-1.2 3.6-3.6 3.6h-14.8c-2.4 0-3.6-1.2-3.6-3.6 0-2.4 1.2-3.6 3.6-3.6z" fill="none" stroke="#fff"/></g><g fill="#cbdbfc" stroke="#cbdbfc" transform="matrix(.70710678 -.70710678 .70710678 .70710678 90 270)"><path d="m7.4-3.6c2.4 0 3.6 1.2 3.6 3.6 0 2.4-1.2 3.6-3.6 3.6h-14.8c-2.4 0-3.6-1.2-3.6-3.6 0-2.4 1.2-3.6 3.6-3.6z" stroke="none"/><path d="m7.4-3.6c2.4 0 3.6 1.2 3.6 3.6 0 2.4-1.2 3.6-3.6 3.6h-14.8c-2.4 0-3.6-1.2-3.6-3.6 0-2.4 1.2-3.6 3.6-3.6z" fill="none" stroke="#fff"/></g><g fill="#5c2e1a" stroke="#5c2e1a" transform="matrix(.70710678 -.70710678 .70710678 .70710678 110 270)"><path d="m7.4-3.6c2.4 0 3.6 1.2 3.6 3.6 0 2.4-1.2 3.6-3.6 3.6h-14.8c-2.4 0-3.6-1.2-3.6-3.6 0-2.4 1.2-3.6 3.6-3.6z" stroke="none"/><path d="m7.4-3.6c2.4 0 3.6 1.2 3.6 3.6 0 2.4-1.2 3.6-3.6 3.6h-14.8c-2.4 0-3.6-1.2-3.6-3.6 0-2.4 1.2-3.6 3.6-3.6z" fill="none" stroke="#fff"/></g><g fill="#fff" stroke="#fff" transform="matrix(.70710678 -.70710678 .70710678 .70710678 130 270)"><path d="m7.4-3.6c2.4 0 3.6 1.2 3.6 3.6 0 2.4-1.2 3.6-3.6 3.6h-14.8c-2.4 0-3.6-1.2-3.6-3.6 0-2.4 1.2-3.6 3.6-3.6z" stroke="none"/><path d="m7.4-3.6c2.4 0 3.6 1.2 3.6 3.6 0 2.4-1.2 3.6-3.6 3.6h-14.8c-2.4 0-3.6-1.2-3.6-3.6 0-2.4 1.2-3.6 3.6-3.6z" fill="none" stroke="#666"/></g><g fill="#fff" stroke="#fff" transform="matrix(.70710678 -.70710678 .70710678 .70710678 150 270)"><path d="m7.4-3.6c2.4 0 3.6 1.2 3.6 3.6 0 2.4-1.2 3.6-3.6 3.6h-14.8c-2.4 0-3.6-1.2-3.6-3.6 0-2.4 1.2-3.6 3.6-3.6z" stroke="none"/><path d="m7.4-3.6c2.4 0 3.6 1.2 3.6 3.6 0 2.4-1.2 3.6-3.6 3.6h-14.8c-2.4 0-3.6-1.2-3.6-3.6 0-2.4 1.2-3.6 3.6-3.6z" fill="none" stroke="#666"/></g><g fill="#fff" stroke="#fff" transform="matrix(.70710678 -.70710678 .70710678 .70710678 170 270)"><path d="m7.4-3.6c2.4 0 3.6 1.2 3.6 3.6 0 2.4-1.2 3.6-3.6 3.6h-14.8c-2.4 0-3.6-1.2-3.6-3.6 0-2.4 1.2-3.6 3.6-3.6z" stroke="none"/><path d="m7.4-3.6c2.4 0 3.6 1.2 3.6 3.6 0 2.4-1.2 3.6-3.6 3.6h-14.8c-2.4 0-3.6-1.2-3.6-3.6 0-2.4 1.2-3.6 3.6-3.6z" fill="none" stroke="#666"/></g><g fill="#5c2e1a" stroke="#5c2e1a" transform="matrix(.70710678 -.70710678 .70710678 .70710678 190 270)"><path d="m7.4-3.6c2.4 0 3.6 1.2 3.6 3.6 0 2.4-1.2 3.6-3.6 3.6h-14.8c-2.4 0-3.6-1.2-3.6-3.6 0-2.4 1.2-3.6 3.6-3.6z" stroke="none"/><path d="m7.4-3.6c2.4 0 3.6 1.2 3.6 3.6 0 2.4-1.2 3.6-3.6 3.6h-14.8c-2.4 0-3.6-1.2-3.6-3.6 0-2.4 1.2-3.6 3.6-3.6z" fill="none" stroke="#fff"/></g><g fill="#fff" stroke="#fff" transform="matrix(.70710678 -.70710678 .70710678 .70710678 210 270)"><path d="m7.4-3.6c2.4 0 3.6 1.2 3.6 3.6 0 2.4-1.2 3.6-3.6 3.6h-14.8c-2.4 0-3.6-1.2-3.6-3.6 0-2.4 1.2-3.6 3.6-3.6z" stroke="none"/><path d="m7.4-3.6c2.4 0 3.6 1.2 3.6 3.6 0 2.4-1.2 3.6-3.6 3.6h-14.8c-2.4 0-3.6-1.2-3.6-3.6 0-2.4 1.2-3.6 3.6-3.6z" fill="none" stroke="#666"/></g><g fill="#ebebeb" stroke="#ebebeb" transform="matrix(.70710678 -.70710678 .70710678 .70710678 230 270)"><path d="m7.4-3.6c2.4 0 3.6 1.2 3.6 3.6 0 2.4-1.2 3.6-3.6 3.6h-14.8c-2.4 0-3.6-1.2-3.6-3.6 0-2.4 1.2-3.6 3.6-3.6z" stroke="none"/><path d="m7.4-3.6c2.4 0 3.6 1.2 3.6 3.6 0 2.4-1.2 3.6-3.6 3.6h-14.8c-2.4 0-3.6-1.2-3.6-3.6 0-2.4 1.2-3.6 3.6-3.6z" fill="none" stroke="#fff"/></g><g fill="#fff" stroke="#fff" transform="matrix(.70710678 -.70710678 .70710678 .70710678 250 270)"><path d="m7.4-3.6c2.4 0 3.6 1.2 3.6 3.6 0 2.4-1.2 3.6-3.6 3.6h-14.8c-2.4 0-3.6-1.2-3.6-3.6 0-2.4 1.2-3.6 3.6-3.6z" stroke="none"/><path d="m7.4-3.6c2.4 0 3.6 1.2 3.6 3.6 0 2.4-1.2 3.6-3.6 3.6h-14.8c-2.4 0-3.6-1.2-3.6-3.6 0-2.4 1.2-3.6 3.6-3.6z" fill="none" stroke="#666"/></g><g fill="#fff" stroke="#fff" transform="matrix(.70710678 -.70710678 .70710678 .70710678 270 270)"><path d="m7.4-3.6c2.4 0 3.6 1.2 3.6 3.6 0 2.4-1.2 3.6-3.6 3.6h-14.8c-2.4 0-3.6-1.2-3.6-3.6 0-2.4 1.2-3.6 3.6-3.6z" stroke="none"/><path d="m7.4-3.6c2.4 0 3.6 1.2 3.6 3.6 0 2.4-1.2 3.6-3.6 3.6h-14.8c-2.4 0-3.6-1.2-3.6-3.6 0-2.4 1.2-3.6 3.6-3.6z" fill="none" stroke="#666"/></g><g fill="#fff" stroke="#fff" transform="matrix(.70710678 -.70710678 .70710678 .70710678 290 270)"><path d="m7.4-3.6c2.4 0 3.6 1.2 3.6 3.6 0 2.4-1.2 3.6-3.6 3.6h-14.8c-2.4 0-3.6-1.2-3.6-3.6 0-2.4 1.2-3.6 3.6-3.6z" stroke="none"/><path d="m7.4-3.6c2.4 0 3.6 1.2 3.6 3.6 0 2.4-1.2 3.6-3.6 3.6h-14.8c-2.4 0-3.6-1.2-3.6-3.6 0-2.4 1.2-3.6 3.6-3.6z" fill="none" stroke="#666"/></g><g fill="#fff" stroke="#fff" transform="matrix(.70710678 -.70710678 .70710678 .70710678 310 270)"><path d="m7.4-3.6c2.4 0 3.6 1.2 3.6 3.6 0 2.4-1.2 3.6-3.6 3.6h-14.8c-2.4 0-3.6-1.2-3.6-3.6 0-2.4 1.2-3.6 3.6-3.6z" stroke="none"/><path d="m7.4-3.6c2.4 0 3.6 1.2 3.6 3.6 0 2.4-1.2 3.6-3.6 3.6h-14.8c-2.4 0-3.6-1.2-3.6-3.6 0-2.4 1.2-3.6 3.6-3.6z" fill="none" stroke="#666"/></g><g fill="#fff" stroke="#fff" transform="matrix(.70710678 -.70710678 .70710678 .70710678 330 270)"><path d="m7.4-3.6c2.4 0 3.6 1.2 3.6 3.6 0 2.4-1.2 3.6-3.6 3.6h-14.8c-2.4 0-3.6-1.2-3.6-3.6 0-2.4 1.2-3.6 3.6-3.6z" stroke="none"/><path d="m7.4-3.6c2.4 0 3.6 1.2 3.6 3.6 0 2.4-1.2 3.6-3.6 3.6h-14.8c-2.4 0-3.6-1.2-3.6-3.6 0-2.4 1.2-3.6 3.6-3.6z" fill="none" stroke="#666"/></g><g fill="#41890f" stroke="#41890f" transform="matrix(.70710678 -.70710678 .70710678 .70710678 350 270)"><path d="m7.4-3.6c2.4 0 3.6 1.2 3.6 3.6 0 2.4-1.2 3.6-3.6 3.6h-14.8c-2.4 0-3.6-1.2-3.6-3.6 0-2.4 1.2-3.6 3.6-3.6z" stroke="none"/><path d="m7.4-3.6c2.4 0 3.6 1.2 3.6 3.6 0 2.4-1.2 3.6-3.6 3.6h-14.8c-2.4 0-3.6-1.2-3.6-3.6 0-2.4 1.2-3.6 3.6-3.6z" fill="none" stroke="#fff"/></g><g fill="#cbdbfc" stroke="#cbdbfc" transform="matrix(.70710678 -.70710678 .70710678 .70710678 370 270)"><path d="m7.4-3.6c2.4 0 3.6 1.2 3.6 3.6 0 2.4-1.2 3.6-3.6 3.6h-14.8c-2.4 0-3.6-1.2-3.6-3.6 0-2.4 1.2-3.6 3.6-3.6z" stroke="none"/><path d="m7.4-3.6c2.4 0 3.6 1.2 3.6 3.6 0 2.4-1.2 3.6-3.6 3.6h-14.8c-2.4 0-3.6-1.2-3.6-3.6 0-2.4 1.2-3.6 3.6-3.6z" fill="none" stroke="#fff"/></g><g fill="#cbdbfc" stroke="#cbdbfc" transform="matrix(.70710678 -.70710678 .70710678 .70710678 390 270)"><path d="m7.4-3.6c2.4 0 3.6 1.2 3.6 3.6 0 2.4-1.2 3.6-3.6 3.6h-14.8c-2.4 0-3.6-1.2-3.6-3.6 0-2.4 1.2-3.6 3.6-3.6z" stroke="none"/><path d="m7.4-3.6c2.4 0 3.6 1.2 3.6 3.6 0 2.4-1.2 3.6-3.6 3.6h-14.8c-2.4 0-3.6-1.2-3.6-3.6 0-2.4 1.2-3.6 3.6-3.6z" fill="none" stroke="#fff"/></g><g fill="#cbdbfc" stroke="#cbdbfc" transform="matrix(.70710678 -.70710678 .70710678 .70710678 410 270)"><path d="m7.4-3.6c2.4 0 3.6 1.2 3.6 3.6 0 2.4-1.2 3.6-3.6 3.6h-14.8c-2.4 0-3.6-1.2-3.6-3.6 0-2.4 1.2-3.6 3.6-3.6z" stroke="none"/><path d="m7.4-3.6c2.4 0 3.6 1.2 3.6 3.6 0 2.4-1.2 3.6-3.6 3.6h-14.8c-2.4 0-3.6-1.2-3.6-3.6 0-2.4 1.2-3.6 3.6-3.6z" fill="none" stroke="#fff"/></g><g fill="#cbdbfc" stroke="#cbdbfc" transform="matrix(.70710678 -.70710678 .70710678 .70710678 430 270)"><path d="m7.4-3.6c2.4 0 3.6 1.2 3.6 3.6 0 2.4-1.2 3.6-3.6 3.6h-14.8c-2.4 0-3.6-1.2-3.6-3.6 0-2.4 1.2-3.6 3.6-3.6z" stroke="none"/><path d="m7.4-3.6c2.4 0 3.6 1.2 3.6 3.6 0 2.4-1.2 3.6-3.6 3.6h-14.8c-2.4 0-3.6-1.2-3.6-3.6 0-2.4 1.2-3.6 3.6-3.6z" fill="none" stroke="#fff"/></g><g fill="#3e5990" stroke="#3e5990" transform="matrix(.70710678 -.70710678 .70710678 .70710678 450 270)"><path d="m7.4-3.6c2.4 0 3.6 1.2 3.6 3.6 0 2.4-1.2 3.6-3.6 3.6h-14.8c-2.4 0-3.6-1.2-3.6-3.6 0-2.4 1.2-3.6 3.6-3.6z" stroke="none"/><path d="m7.4-3.6c2.4 0 3.6 1.2 3.6 3.6 0 2.4-1.2 3.6-3.6 3.6h-14.8c-2.4 0-3.6-1.2-3.6-3.6 0-2.4 1.2-3.6 3.6-3.6z" fill="none" stroke="#fff"/></g><g fill="#3e5990" stroke="#3e5990" transform="matrix(.70710678 -.70710678 .70710678 .70710678 50 290)"><path d="m7.4-3.6c2.4 0 3.6 1.2 3.6 3.6 0 2.4-1.2 3.6-3.6 3.6h-14.8c-2.4 0-3.6-1.2-3.6-3.6 0-2.4 1.2-3.6 3.6-3.6z" stroke="none"/><path d="m7.4-3.6c2.4 0 3.6 1.2 3.6 3.6 0 2.4-1.2 3.6-3.6 3.6h-14.8c-2.4 0-3.6-1.2-3.6-3.6 0-2.4 1.2-3.6 3.6-3.6z" fill="none" stroke="#fff"/></g><g fill="#cbdbfc" stroke="#cbdbfc" transform="matrix(.70710678 -.70710678 .70710678 .70710678 70 290)"><path d="m7.4-3.6c2.4 0 3.6 1.2 3.6 3.6 0 2.4-1.2 3.6-3.6 3.6h-14.8c-2.4 0-3.6-1.2-3.6-3.6 0-2.4 1.2-3.6 3.6-3.6z" stroke="none"/><path d="m7.4-3.6c2.4 0 3.6 1.2 3.6 3.6 0 2.4-1.2 3.6-3.6 3.6h-14.8c-2.4 0-3.6-1.2-3.6-3.6 0-2.4 1.2-3.6 3.6-3.6z" fill="none" stroke="#fff"/></g><g fill="#cbdbfc" stroke="#cbdbfc" transform="matrix(.70710678 -.70710678 .70710678 .70710678 90 290)"><path d="m7.4-3.6c2.4 0 3.6 1.2 3.6 3.6 0 2.4-1.2 3.6-3.6 3.6h-14.8c-2.4 0-3.6-1.2-3.6-3.6 0-2.4 1.2-3.6 3.6-3.6z" stroke="none"/><path d="m7.4-3.6c2.4 0 3.6 1.2 3.6 3.6 0 2.4-1.2 3.6-3.6 3.6h-14.8c-2.4 0-3.6-1.2-3.6-3.6 0-2.4 1.2-3.6 3.6-3.6z" fill="none" stroke="#fff"/></g><g fill="#cbdbfc" stroke="#cbdbfc" transform="matrix(.70710678 -.70710678 .70710678 .70710678 110 290)"><path d="m7.4-3.6c2.4 0 3.6 1.2 3.6 3.6 0 2.4-1.2 3.6-3.6 3.6h-14.8c-2.4 0-3.6-1.2-3.6-3.6 0-2.4 1.2-3.6 3.6-3.6z" stroke="none"/><path d="m7.4-3.6c2.4 0 3.6 1.2 3.6 3.6 0 2.4-1.2 3.6-3.6 3.6h-14.8c-2.4 0-3.6-1.2-3.6-3.6 0-2.4 1.2-3.6 3.6-3.6z" fill="none" stroke="#fff"/></g><g fill="#5c2e1a" stroke="#5c2e1a" transform="matrix(.70710678 -.70710678 .70710678 .70710678 130 290)"><path d="m7.4-3.6c2.4 0 3.6 1.2 3.6 3.6 0 2.4-1.2 3.6-3.6 3.6h-14.8c-2.4 0-3.6-1.2-3.6-3.6 0-2.4 1.2-3.6 3.6-3.6z" stroke="none"/><path d="m7.4-3.6c2.4 0 3.6 1.2 3.6 3.6 0 2.4-1.2 3.6-3.6 3.6h-14.8c-2.4 0-3.6-1.2-3.6-3.6 0-2.4 1.2-3.6 3.6-3.6z" fill="none" stroke="#fff"/></g><g fill="#5c2e1a" stroke="#5c2e1a" transform="matrix(.70710678 -.70710678 .70710678 .70710678 150 290)"><path d="m7.4-3.6c2.4 0 3.6 1.2 3.6 3.6 0 2.4-1.2 3.6-3.6 3.6h-14.8c-2.4 0-3.6-1.2-3.6-3.6 0-2.4 1.2-3.6 3.6-3.6z" stroke="none"/><path d="m7.4-3.6c2.4 0 3.6 1.2 3.6 3.6 0 2.4-1.2 3.6-3.6 3.6h-14.8c-2.4 0-3.6-1.2-3.6-3.6 0-2.4 1.2-3.6 3.6-3.6z" fill="none" stroke="#fff"/></g><g fill="#5c2e1a" stroke="#5c2e1a" transform="matrix(.70710678 -.70710678 .70710678 .70710678 170 290)"><path d="m7.4-3.6c2.4 0 3.6 1.2 3.6 3.6 0 2.4-1.2 3.6-3.6 3.6h-14.8c-2.4 0-3.6-1.2-3.6-3.6 0-2.4 1.2-3.6 3.6-3.6z" stroke="none"/><path d="m7.4-3.6c2.4 0 3.6 1.2 3.6 3.6 0 2.4-1.2 3.6-3.6 3.6h-14.8c-2.4 0-3.6-1.2-3.6-3.6 0-2.4 1.2-3.6 3.6-3.6z" fill="none" stroke="#fff"/></g><g fill="#5c2e1a" stroke="#5c2e1a" transform="matrix(.70710678 -.70710678 .70710678 .70710678 190 290)"><path d="m7.4-3.6c2.4 0 3.6 1.2 3.6 3.6 0 2.4-1.2 3.6-3.6 3.6h-14.8c-2.4 0-3.6-1.2-3.6-3.6 0-2.4 1.2-3.6 3.6-3.6z" stroke="none"/><path d="m7.4-3.6c2.4 0 3.6 1.2 3.6 3.6 0 2.4-1.2 3.6-3.6 3.6h-14.8c-2.4 0-3.6-1.2-3.6-3.6 0-2.4 1.2-3.6 3.6-3.6z" fill="none" stroke="#fff"/></g><g fill="#fff" stroke="#fff" transform="matrix(.70710678 -.70710678 .70710678 .70710678 210 290)"><path d="m7.4-3.6c2.4 0 3.6 1.2 3.6 3.6 0 2.4-1.2 3.6-3.6 3.6h-14.8c-2.4 0-3.6-1.2-3.6-3.6 0-2.4 1.2-3.6 3.6-3.6z" stroke="none"/><path d="m7.4-3.6c2.4 0 3.6 1.2 3.6 3.6 0 2.4-1.2 3.6-3.6 3.6h-14.8c-2.4 0-3.6-1.2-3.6-3.6 0-2.4 1.2-3.6 3.6-3.6z" fill="none" stroke="#666"/></g><g fill="#ebebeb" stroke="#ebebeb" transform="matrix(.70710678 -.70710678 .70710678 .70710678 230 290)"><path d="m7.4-3.6c2.4 0 3.6 1.2 3.6 3.6 0 2.4-1.2 3.6-3.6 3.6h-14.8c-2.4 0-3.6-1.2-3.6-3.6 0-2.4 1.2-3.6 3.6-3.6z" stroke="none"/><path d="m7.4-3.6c2.4 0 3.6 1.2 3.6 3.6 0 2.4-1.2 3.6-3.6 3.6h-14.8c-2.4 0-3.6-1.2-3.6-3.6 0-2.4 1.2-3.6 3.6-3.6z" fill="none" stroke="#fff"/></g><g fill="#fff" stroke="#fff" transform="matrix(.70710678 -.70710678 .70710678 .70710678 250 290)"><path d="m7.4-3.6c2.4 0 3.6 1.2 3.6 3.6 0 2.4-1.2 3.6-3.6 3.6h-14.8c-2.4 0-3.6-1.2-3.6-3.6 0-2.4 1.2-3.6 3.6-3.6z" stroke="none"/><path d="m7.4-3.6c2.4 0 3.6 1.2 3.6 3.6 0 2.4-1.2 3.6-3.6 3.6h-14.8c-2.4 0-3.6-1.2-3.6-3.6 0-2.4 1.2-3.6 3.6-3.6z" fill="none" stroke="#666"/></g><g fill="#fff" stroke="#fff" transform="matrix(.70710678 -.70710678 .70710678 .70710678 270 290)"><path d="m7.4-3.6c2.4 0 3.6 1.2 3.6 3.6 0 2.4-1.2 3.6-3.6 3.6h-14.8c-2.4 0-3.6-1.2-3.6-3.6 0-2.4 1.2-3.6 3.6-3.6z" stroke="none"/><path d="m7.4-3.6c2.4 0 3.6 1.2 3.6 3.6 0 2.4-1.2 3.6-3.6 3.6h-14.8c-2.4 0-3.6-1.2-3.6-3.6 0-2.4 1.2-3.6 3.6-3.6z" fill="none" stroke="#666"/></g><g fill="#fff" stroke="#fff" transform="matrix(.70710678 -.70710678 .70710678 .70710678 290 290)"><path d="m7.4-3.6c2.4 0 3.6 1.2 3.6 3.6 0 2.4-1.2 3.6-3.6 3.6h-14.8c-2.4 0-3.6-1.2-3.6-3.6 0-2.4 1.2-3.6 3.6-3.6z" stroke="none"/><path d="m7.4-3.6c2.4 0 3.6 1.2 3.6 3.6 0 2.4-1.2 3.6-3.6 3.6h-14.8c-2.4 0-3.6-1.2-3.6-3.6 0-2.4 1.2-3.6 3.6-3.6z" fill="none" stroke="#666"/></g><g fill="#cbdbfc" stroke="#cbdbfc" transform="matrix(.70710678 -.70710678 .70710678 .70710678 310 290)"><path d="m7.4-3.6c2.4 0 3.6 1.2 3.6 3.6 0 2.4-1.2 3.6-3.6 3.6h-14.8c-2.4 0-3.6-1.2-3.6-3.6 0-2.4 1.2-3.6 3.6-3.6z" stroke="none"/><path d="m7.4-3.6c2.4 0 3.6 1.2 3.6 3.6 0 2.4-1.2 3.6-3.6 3.6h-14.8c-2.4 0-3.6-1.2-3.6-3.6 0-2.4 1.2-3.6 3.6-3.6z" fill="none" stroke="#fff"/></g><g fill="#cbdbfc" stroke="#cbdbfc" transform="matrix(.70710678 -.70710678 .70710678 .70710678 330 290)"><path d="m7.4-3.6c2.4 0 3.6 1.2 3.6 3.6 0 2.4-1.2 3.6-3.6 3.6h-14.8c-2.4 0-3.6-1.2-3.6-3.6 0-2.4 1.2-3.6 3.6-3.6z" stroke="none"/><path d="m7.4-3.6c2.4 0 3.6 1.2 3.6 3.6 0 2.4-1.2 3.6-3.6 3.6h-14.8c-2.4 0-3.6-1.2-3.6-3.6 0-2.4 1.2-3.6 3.6-3.6z" fill="none" stroke="#fff"/></g><g fill="#cbdbfc" stroke="#cbdbfc" transform="matrix(.70710678 -.70710678 .70710678 .70710678 350 290)"><path d="m7.4-3.6c2.4 0 3.6 1.2 3.6 3.6 0 2.4-1.2 3.6-3.6 3.6h-14.8c-2.4 0-3.6-1.2-3.6-3.6 0-2.4 1.2-3.6 3.6-3.6z" stroke="none"/><path d="m7.4-3.6c2.4 0 3.6 1.2 3.6 3.6 0 2.4-1.2 3.6-3.6 3.6h-14.8c-2.4 0-3.6-1.2-3.6-3.6 0-2.4 1.2-3.6 3.6-3.6z" fill="none" stroke="#fff"/></g><g fill="#cbdbfc" stroke="#cbdbfc" transform="matrix(.70710678 -.70710678 .70710678 .70710678 370 290)"><path d="m7.4-3.6c2.4 0 3.6 1.2 3.6 3.6 0 2.4-1.2 3.6-3.6 3.6h-14.8c-2.4 0-3.6-1.2-3.6-3.6 0-2.4 1.2-3.6 3.6-3.6z" stroke="none"/><path d="m7.4-3.6c2.4 0 3.6 1.2 3.6 3.6 0 2.4-1.2 3.6-3.6 3.6h-14.8c-2.4 0-3.6-1.2-3.6-3.6 0-2.4 1.2-3.6 3.6-3.6z" fill="none" stroke="#fff"/></g><g fill="#cbdbfc" stroke="#cbdbfc" transform="matrix(.70710678 -.70710678 .70710678 .70710678 390 290)"><path d="m7.4-3.6c2.4 0 3.6 1.2 3.6 3.6 0 2.4-1.2 3.6-3.6 3.6h-14.8c-2.4 0-3.6-1.2-3.6-3.6 0-2.4 1.2-3.6 3.6-3.6z" stroke="none"/><path d="m7.4-3.6c2.4 0 3.6 1.2 3.6 3.6 0 2.4-1.2 3.6-3.6 3.6h-14.8c-2.4 0-3.6-1.2-3.6-3.6 0-2.4 1.2-3.6 3.6-3.6z" fill="none" stroke="#fff"/></g><g fill="#cbdbfc" stroke="#cbdbfc" transform="matrix(.70710678 -.70710678 .70710678 .70710678 410 290)"><path d="m7.4-3.6c2.4 0 3.6 1.2 3.6 3.6 0 2.4-1.2 3.6-3.6 3.6h-14.8c-2.4 0-3.6-1.2-3.6-3.6 0-2.4 1.2-3.6 3.6-3.6z" stroke="none"/><path d="m7.4-3.6c2.4 0 3.6 1.2 3.6 3.6 0 2.4-1.2 3.6-3.6 3.6h-14.8c-2.4 0-3.6-1.2-3.6-3.6 0-2.4 1.2-3.6 3.6-3.6z" fill="none" stroke="#fff"/></g><g fill="#3e5990" stroke="#3e5990" transform="matrix(.70710678 -.70710678 .70710678 .70710678 430 290)"><path d="m7.4-3.6c2.4 0 3.6 1.2 3.6 3.6 0 2.4-1.2 3.6-3.6 3.6h-14.8c-2.4 0-3.6-1.2-3.6-3.6 0-2.4 1.2-3.6 3.6-3.6z" stroke="none"/><path d="m7.4-3.6c2.4 0 3.6 1.2 3.6 3.6 0 2.4-1.2 3.6-3.6 3.6h-14.8c-2.4 0-3.6-1.2-3.6-3.6 0-2.4 1.2-3.6 3.6-3.6z" fill="none" stroke="#fff"/></g><g fill="#3e5990" stroke="#3e5990" transform="matrix(.70710678 -.70710678 .70710678 .70710678 50 310)"><path d="m7.4-3.6c2.4 0 3.6 1.2 3.6 3.6 0 2.4-1.2 3.6-3.6 3.6h-14.8c-2.4 0-3.6-1.2-3.6-3.6 0-2.4 1.2-3.6 3.6-3.6z" stroke="none"/><path d="m7.4-3.6c2.4 0 3.6 1.2 3.6 3.6 0 2.4-1.2 3.6-3.6 3.6h-14.8c-2.4 0-3.6-1.2-3.6-3.6 0-2.4 1.2-3.6 3.6-3.6z" fill="none" stroke="#fff"/></g><g fill="#496bb1" stroke="#496bb1" transform="matrix(.70710678 -.70710678 .70710678 .70710678 70 310)"><path d="m7.4-3.6c2.4 0 3.6 1.2 3.6 3.6 0 2.4-1.2 3.6-3.6 3.6h-14.8c-2.4 0-3.6-1.2-3.6-3.6 0-2.4 1.2-3.6 3.6-3.6z" stroke="none"/><path d="m7.4-3.6c2.4 0 3.6 1.2 3.6 3.6 0 2.4-1.2 3.6-3.6 3.6h-14.8c-2.4 0-3.6-1.2-3.6-3.6 0-2.4 1.2-3.6 3.6-3.6z" fill="none" stroke="#fff"/></g><g fill="#496bb1" stroke="#496bb1" transform="matrix(.70710678 -.70710678 .70710678 .70710678 90 310)"><path d="m7.4-3.6c2.4 0 3.6 1.2 3.6 3.6 0 2.4-1.2 3.6-3.6 3.6h-14.8c-2.4 0-3.6-1.2-3.6-3.6 0-2.4 1.2-3.6 3.6-3.6z" stroke="none"/><path d="m7.4-3.6c2.4 0 3.6 1.2 3.6 3.6 0 2.4-1.2 3.6-3.6 3.6h-14.8c-2.4 0-3.6-1.2-3.6-3.6 0-2.4 1.2-3.6 3.6-3.6z" fill="none" stroke="#fff"/></g><g fill="#cbdbfc" stroke="#cbdbfc" transform="matrix(.70710678 -.70710678 .70710678 .70710678 110 310)"><path d="m7.4-3.6c2.4 0 3.6 1.2 3.6 3.6 0 2.4-1.2 3.6-3.6 3.6h-14.8c-2.4 0-3.6-1.2-3.6-3.6 0-2.4 1.2-3.6 3.6-3.6z" stroke="none"/><path d="m7.4-3.6c2.4 0 3.6 1.2 3.6 3.6 0 2.4-1.2 3.6-3.6 3.6h-14.8c-2.4 0-3.6-1.2-3.6-3.6 0-2.4 1.2-3.6 3.6-3.6z" fill="none" stroke="#fff"/></g><g fill="#cbdbfc" stroke="#cbdbfc" transform="matrix(.70710678 -.70710678 .70710678 .70710678 130 310)"><path d="m7.4-3.6c2.4 0 3.6 1.2 3.6 3.6 0 2.4-1.2 3.6-3.6 3.6h-14.8c-2.4 0-3.6-1.2-3.6-3.6 0-2.4 1.2-3.6 3.6-3.6z" stroke="none"/><path d="m7.4-3.6c2.4 0 3.6 1.2 3.6 3.6 0 2.4-1.2 3.6-3.6 3.6h-14.8c-2.4 0-3.6-1.2-3.6-3.6 0-2.4 1.2-3.6 3.6-3.6z" fill="none" stroke="#fff"/></g><g fill="#cbdbfc" stroke="#cbdbfc" transform="matrix(.70710678 -.70710678 .70710678 .70710678 150 310)"><path d="m7.4-3.6c2.4 0 3.6 1.2 3.6 3.6 0 2.4-1.2 3.6-3.6 3.6h-14.8c-2.4 0-3.6-1.2-3.6-3.6 0-2.4 1.2-3.6 3.6-3.6z" stroke="none"/><path d="m7.4-3.6c2.4 0 3.6 1.2 3.6 3.6 0 2.4-1.2 3.6-3.6 3.6h-14.8c-2.4 0-3.6-1.2-3.6-3.6 0-2.4 1.2-3.6 3.6-3.6z" fill="none" stroke="#fff"/></g><g fill="#5c2e1a" stroke="#5c2e1a" transform="matrix(.70710678 -.70710678 .70710678 .70710678 170 310)"><path d="m7.4-3.6c2.4 0 3.6 1.2 3.6 3.6 0 2.4-1.2 3.6-3.6 3.6h-14.8c-2.4 0-3.6-1.2-3.6-3.6 0-2.4 1.2-3.6 3.6-3.6z" stroke="none"/><path d="m7.4-3.6c2.4 0 3.6 1.2 3.6 3.6 0 2.4-1.2 3.6-3.6 3.6h-14.8c-2.4 0-3.6-1.2-3.6-3.6 0-2.4 1.2-3.6 3.6-3.6z" fill="none" stroke="#fff"/></g><g fill="#5c2e1a" stroke="#5c2e1a" transform="matrix(.70710678 -.70710678 .70710678 .70710678 190 310)"><path d="m7.4-3.6c2.4 0 3.6 1.2 3.6 3.6 0 2.4-1.2 3.6-3.6 3.6h-14.8c-2.4 0-3.6-1.2-3.6-3.6 0-2.4 1.2-3.6 3.6-3.6z" stroke="none"/><path d="m7.4-3.6c2.4 0 3.6 1.2 3.6 3.6 0 2.4-1.2 3.6-3.6 3.6h-14.8c-2.4 0-3.6-1.2-3.6-3.6 0-2.4 1.2-3.6 3.6-3.6z" fill="none" stroke="#fff"/></g><g fill="#5c2e1a" stroke="#5c2e1a" transform="matrix(.70710678 -.70710678 .70710678 .70710678 210 310)"><path d="m7.4-3.6c2.4 0 3.6 1.2 3.6 3.6 0 2.4-1.2 3.6-3.6 3.6h-14.8c-2.4 0-3.6-1.2-3.6-3.6 0-2.4 1.2-3.6 3.6-3.6z" stroke="none"/><path d="m7.4-3.6c2.4 0 3.6 1.2 3.6 3.6 0 2.4-1.2 3.6-3.6 3.6h-14.8c-2.4 0-3.6-1.2-3.6-3.6 0-2.4 1.2-3.6 3.6-3.6z" fill="none" stroke="#fff"/></g><g fill="#fff" stroke="#fff" transform="matrix(.70710678 -.70710678 .70710678 .70710678 230 310)"><path d="m7.4-3.6c2.4 0 3.6 1.2 3.6 3.6 0 2.4-1.2 3.6-3.6 3.6h-14.8c-2.4 0-3.6-1.2-3.6-3.6 0-2.4 1.2-3.6 3.6-3.6z" stroke="none"/><path d="m7.4-3.6c2.4 0 3.6 1.2 3.6 3.6 0 2.4-1.2 3.6-3.6 3.6h-14.8c-2.4 0-3.6-1.2-3.6-3.6 0-2.4 1.2-3.6 3.6-3.6z" fill="none" stroke="#666"/></g><g fill="#fff" stroke="#fff" transform="matrix(.70710678 -.70710678 .70710678 .70710678 250 310)"><path d="m7.4-3.6c2.4 0 3.6 1.2 3.6 3.6 0 2.4-1.2 3.6-3.6 3.6h-14.8c-2.4 0-3.6-1.2-3.6-3.6 0-2.4 1.2-3.6 3.6-3.6z" stroke="none"/><path d="m7.4-3.6c2.4 0 3.6 1.2 3.6 3.6 0 2.4-1.2 3.6-3.6 3.6h-14.8c-2.4 0-3.6-1.2-3.6-3.6 0-2.4 1.2-3.6 3.6-3.6z" fill="none" stroke="#666"/></g><g fill="#5c2e1a" stroke="#5c2e1a" transform="matrix(.70710678 -.70710678 .70710678 .70710678 270 310)"><path d="m7.4-3.6c2.4 0 3.6 1.2 3.6 3.6 0 2.4-1.2 3.6-3.6 3.6h-14.8c-2.4 0-3.6-1.2-3.6-3.6 0-2.4 1.2-3.6 3.6-3.6z" stroke="none"/><path d="m7.4-3.6c2.4 0 3.6 1.2 3.6 3.6 0 2.4-1.2 3.6-3.6 3.6h-14.8c-2.4 0-3.6-1.2-3.6-3.6 0-2.4 1.2-3.6 3.6-3.6z" fill="none" stroke="#fff"/></g><g fill="#5c2e1a" stroke="#5c2e1a" transform="matrix(.70710678 -.70710678 .70710678 .70710678 290 310)"><path d="m7.4-3.6c2.4 0 3.6 1.2 3.6 3.6 0 2.4-1.2 3.6-3.6 3.6h-14.8c-2.4 0-3.6-1.2-3.6-3.6 0-2.4 1.2-3.6 3.6-3.6z" stroke="none"/><path d="m7.4-3.6c2.4 0 3.6 1.2 3.6 3.6 0 2.4-1.2 3.6-3.6 3.6h-14.8c-2.4 0-3.6-1.2-3.6-3.6 0-2.4 1.2-3.6 3.6-3.6z" fill="none" stroke="#fff"/></g><g fill="#cbdbfc" stroke="#cbdbfc" transform="matrix(.70710678 -.70710678 .70710678 .70710678 310 310)"><path d="m7.4-3.6c2.4 0 3.6 1.2 3.6 3.6 0 2.4-1.2 3.6-3.6 3.6h-14.8c-2.4 0-3.6-1.2-3.6-3.6 0-2.4 1.2-3.6 3.6-3.6z" stroke="none"/><path d="m7.4-3.6c2.4 0 3.6 1.2 3.6 3.6 0 2.4-1.2 3.6-3.6 3.6h-14.8c-2.4 0-3.6-1.2-3.6-3.6 0-2.4 1.2-3.6 3.6-3.6z" fill="none" stroke="#fff"/></g><g fill="#cbdbfc" stroke="#cbdbfc" transform="matrix(.70710678 -.70710678 .70710678 .70710678 330 310)"><path d="m7.4-3.6c2.4 0 3.6 1.2 3.6 3.6 0 2.4-1.2 3.6-3.6 3.6h-14.8c-2.4 0-3.6-1.2-3.6-3.6 0-2.4 1.2-3.6 3.6-3.6z" stroke="none"/><path d="m7.4-3.6c2.4 0 3.6 1.2 3.6 3.6 0 2.4-1.2 3.6-3.6 3.6h-14.8c-2.4 0-3.6-1.2-3.6-3.6 0-2.4 1.2-3.6 3.6-3.6z" fill="none" stroke="#fff"/></g><g fill="#cbdbfc" stroke="#cbdbfc" transform="matrix(.70710678 -.70710678 .70710678 .70710678 350 310)"><path d="m7.4-3.6c2.4 0 3.6 1.2 3.6 3.6 0 2.4-1.2 3.6-3.6 3.6h-14.8c-2.4 0-3.6-1.2-3.6-3.6 0-2.4 1.2-3.6 3.6-3.6z" stroke="none"/><path d="m7.4-3.6c2.4 0 3.6 1.2 3.6 3.6 0 2.4-1.2 3.6-3.6 3.6h-14.8c-2.4 0-3.6-1.2-3.6-3.6 0-2.4 1.2-3.6 3.6-3.6z" fill="none" stroke="#fff"/></g><g fill="#cbdbfc" stroke="#cbdbfc" transform="matrix(.70710678 -.70710678 .70710678 .70710678 370 310)"><path d="m7.4-3.6c2.4 0 3.6 1.2 3.6 3.6 0 2.4-1.2 3.6-3.6 3.6h-14.8c-2.4 0-3.6-1.2-3.6-3.6 0-2.4 1.2-3.6 3.6-3.6z" stroke="none"/><path d="m7.4-3.6c2.4 0 3.6 1.2 3.6 3.6 0 2.4-1.2 3.6-3.6 3.6h-14.8c-2.4 0-3.6-1.2-3.6-3.6 0-2.4 1.2-3.6 3.6-3.6z" fill="none" stroke="#fff"/></g><g fill="#496bb1" stroke="#496bb1" transform="matrix(.70710678 -.70710678 .70710678 .70710678 390 310)"><path d="m7.4-3.6c2.4 0 3.6 1.2 3.6 3.6 0 2.4-1.2 3.6-3.6 3.6h-14.8c-2.4 0-3.6-1.2-3.6-3.6 0-2.4 1.2-3.6 3.6-3.6z" stroke="none"/><path d="m7.4-3.6c2.4 0 3.6 1.2 3.6 3.6 0 2.4-1.2 3.6-3.6 3.6h-14.8c-2.4 0-3.6-1.2-3.6-3.6 0-2.4 1.2-3.6 3.6-3.6z" fill="none" stroke="#fff"/></g><g fill="#496bb1" stroke="#496bb1" transform="matrix(.70710678 -.70710678 .70710678 .70710678 410 310)"><path d="m7.4-3.6c2.4 0 3.6 1.2 3.6 3.6 0 2.4-1.2 3.6-3.6 3.6h-14.8c-2.4 0-3.6-1.2-3.6-3.6 0-2.4 1.2-3.6 3.6-3.6z" stroke="none"/><path d="m7.4-3.6c2.4 0 3.6 1.2 3.6 3.6 0 2.4-1.2 3.6-3.6 3.6h-14.8c-2.4 0-3.6-1.2-3.6-3.6 0-2.4 1.2-3.6 3.6-3.6z" fill="none" stroke="#fff"/></g><g fill="#3e5990" stroke="#3e5990" transform="matrix(.70710678 -.70710678 .70710678 .70710678 430 310)"><path d="m7.4-3.6c2.4 0 3.6 1.2 3.6 3.6 0 2.4-1.2 3.6-3.6 3.6h-14.8c-2.4 0-3.6-1.2-3.6-3.6 0-2.4 1.2-3.6 3.6-3.6z" stroke="none"/><path d="m7.4-3.6c2.4 0 3.6 1.2 3.6 3.6 0 2.4-1.2 3.6-3.6 3.6h-14.8c-2.4 0-3.6-1.2-3.6-3.6 0-2.4 1.2-3.6 3.6-3.6z" fill="none" stroke="#fff"/></g><g fill="#3e5990" stroke="#3e5990" transform="matrix(.70710678 -.70710678 .70710678 .70710678 70 330)"><path d="m7.4-3.6c2.4 0 3.6 1.2 3.6 3.6 0 2.4-1.2 3.6-3.6 3.6h-14.8c-2.4 0-3.6-1.2-3.6-3.6 0-2.4 1.2-3.6 3.6-3.6z" stroke="none"/><path d="m7.4-3.6c2.4 0 3.6 1.2 3.6 3.6 0 2.4-1.2 3.6-3.6 3.6h-14.8c-2.4 0-3.6-1.2-3.6-3.6 0-2.4 1.2-3.6 3.6-3.6z" fill="none" stroke="#fff"/></g><g fill="#496bb1" stroke="#496bb1" transform="matrix(.70710678 -.70710678 .70710678 .70710678 90 330)"><path d="m7.4-3.6c2.4 0 3.6 1.2 3.6 3.6 0 2.4-1.2 3.6-3.6 3.6h-14.8c-2.4 0-3.6-1.2-3.6-3.6 0-2.4 1.2-3.6 3.6-3.6z" stroke="none"/><path d="m7.4-3.6c2.4 0 3.6 1.2 3.6 3.6 0 2.4-1.2 3.6-3.6 3.6h-14.8c-2.4 0-3.6-1.2-3.6-3.6 0-2.4 1.2-3.6 3.6-3.6z" fill="none" stroke="#fff"/></g><g fill="#496bb1" stroke="#496bb1" transform="matrix(.70710678 -.70710678 .70710678 .70710678 110 330)"><path d="m7.4-3.6c2.4 0 3.6 1.2 3.6 3.6 0 2.4-1.2 3.6-3.6 3.6h-14.8c-2.4 0-3.6-1.2-3.6-3.6 0-2.4 1.2-3.6 3.6-3.6z" stroke="none"/><path d="m7.4-3.6c2.4 0 3.6 1.2 3.6 3.6 0 2.4-1.2 3.6-3.6 3.6h-14.8c-2.4 0-3.6-1.2-3.6-3.6 0-2.4 1.2-3.6 3.6-3.6z" fill="none" stroke="#fff"/></g><g fill="#496bb1" stroke="#496bb1" transform="matrix(.70710678 -.70710678 .70710678 .70710678 130 330)"><path d="m7.4-3.6c2.4 0 3.6 1.2 3.6 3.6 0 2.4-1.2 3.6-3.6 3.6h-14.8c-2.4 0-3.6-1.2-3.6-3.6 0-2.4 1.2-3.6 3.6-3.6z" stroke="none"/><path d="m7.4-3.6c2.4 0 3.6 1.2 3.6 3.6 0 2.4-1.2 3.6-3.6 3.6h-14.8c-2.4 0-3.6-1.2-3.6-3.6 0-2.4 1.2-3.6 3.6-3.6z" fill="none" stroke="#fff"/></g><g fill="#496bb1" stroke="#496bb1" transform="matrix(.70710678 -.70710678 .70710678 .70710678 150 330)"><path d="m7.4-3.6c2.4 0 3.6 1.2 3.6 3.6 0 2.4-1.2 3.6-3.6 3.6h-14.8c-2.4 0-3.6-1.2-3.6-3.6 0-2.4 1.2-3.6 3.6-3.6z" stroke="none"/><path d="m7.4-3.6c2.4 0 3.6 1.2 3.6 3.6 0 2.4-1.2 3.6-3.6 3.6h-14.8c-2.4 0-3.6-1.2-3.6-3.6 0-2.4 1.2-3.6 3.6-3.6z" fill="none" stroke="#fff"/></g><g fill="#cbdbfc" stroke="#cbdbfc" transform="matrix(.70710678 -.70710678 .70710678 .70710678 170 330)"><path d="m7.4-3.6c2.4 0 3.6 1.2 3.6 3.6 0 2.4-1.2 3.6-3.6 3.6h-14.8c-2.4 0-3.6-1.2-3.6-3.6 0-2.4 1.2-3.6 3.6-3.6z" stroke="none"/><path d="m7.4-3.6c2.4 0 3.6 1.2 3.6 3.6 0 2.4-1.2 3.6-3.6 3.6h-14.8c-2.4 0-3.6-1.2-3.6-3.6 0-2.4 1.2-3.6 3.6-3.6z" fill="none" stroke="#fff"/></g><g fill="#cbdbfc" stroke="#cbdbfc" transform="matrix(.70710678 -.70710678 .70710678 .70710678 190 330)"><path d="m7.4-3.6c2.4 0 3.6 1.2 3.6 3.6 0 2.4-1.2 3.6-3.6 3.6h-14.8c-2.4 0-3.6-1.2-3.6-3.6 0-2.4 1.2-3.6 3.6-3.6z" stroke="none"/><path d="m7.4-3.6c2.4 0 3.6 1.2 3.6 3.6 0 2.4-1.2 3.6-3.6 3.6h-14.8c-2.4 0-3.6-1.2-3.6-3.6 0-2.4 1.2-3.6 3.6-3.6z" fill="none" stroke="#fff"/></g><g fill="#cbdbfc" stroke="#cbdbfc" transform="matrix(.70710678 -.70710678 .70710678 .70710678 210 330)"><path d="m7.4-3.6c2.4 0 3.6 1.2 3.6 3.6 0 2.4-1.2 3.6-3.6 3.6h-14.8c-2.4 0-3.6-1.2-3.6-3.6 0-2.4 1.2-3.6 3.6-3.6z" stroke="none"/><path d="m7.4-3.6c2.4 0 3.6 1.2 3.6 3.6 0 2.4-1.2 3.6-3.6 3.6h-14.8c-2.4 0-3.6-1.2-3.6-3.6 0-2.4 1.2-3.6 3.6-3.6z" fill="none" stroke="#fff"/></g><g fill="#5c2e1a" stroke="#5c2e1a" transform="matrix(.70710678 -.70710678 .70710678 .70710678 230 330)"><path d="m7.4-3.6c2.4 0 3.6 1.2 3.6 3.6 0 2.4-1.2 3.6-3.6 3.6h-14.8c-2.4 0-3.6-1.2-3.6-3.6 0-2.4 1.2-3.6 3.6-3.6z" stroke="none"/><path d="m7.4-3.6c2.4 0 3.6 1.2 3.6 3.6 0 2.4-1.2 3.6-3.6 3.6h-14.8c-2.4 0-3.6-1.2-3.6-3.6 0-2.4 1.2-3.6 3.6-3.6z" fill="none" stroke="#fff"/></g><g fill="#5c2e1a" stroke="#5c2e1a" transform="matrix(.70710678 -.70710678 .70710678 .70710678 250 330)"><path d="m7.4-3.6c2.4 0 3.6 1.2 3.6 3.6 0 2.4-1.2 3.6-3.6 3.6h-14.8c-2.4 0-3.6-1.2-3.6-3.6 0-2.4 1.2-3.6 3.6-3.6z" stroke="none"/><path d="m7.4-3.6c2.4 0 3.6 1.2 3.6 3.6 0 2.4-1.2 3.6-3.6 3.6h-14.8c-2.4 0-3.6-1.2-3.6-3.6 0-2.4 1.2-3.6 3.6-3.6z" fill="none" stroke="#fff"/></g><g fill="#cbdbfc" stroke="#cbdbfc" transform="matrix(.70710678 -.70710678 .70710678 .70710678 270 330)"><path d="m7.4-3.6c2.4 0 3.6 1.2 3.6 3.6 0 2.4-1.2 3.6-3.6 3.6h-14.8c-2.4 0-3.6-1.2-3.6-3.6 0-2.4 1.2-3.6 3.6-3.6z" stroke="none"/><path d="m7.4-3.6c2.4 0 3.6 1.2 3.6 3.6 0 2.4-1.2 3.6-3.6 3.6h-14.8c-2.4 0-3.6-1.2-3.6-3.6 0-2.4 1.2-3.6 3.6-3.6z" fill="none" stroke="#fff"/></g><g fill="#cbdbfc" stroke="#cbdbfc" transform="matrix(.70710678 -.70710678 .70710678 .70710678 290 330)"><path d="m7.4-3.6c2.4 0 3.6 1.2 3.6 3.6 0 2.4-1.2 3.6-3.6 3.6h-14.8c-2.4 0-3.6-1.2-3.6-3.6 0-2.4 1.2-3.6 3.6-3.6z" stroke="none"/><path d="m7.4-3.6c2.4 0 3.6 1.2 3.6 3.6 0 2.4-1.2 3.6-3.6 3.6h-14.8c-2.4 0-3.6-1.2-3.6-3.6 0-2.4 1.2-3.6 3.6-3.6z" fill="none" stroke="#fff"/></g><g fill="#cbdbfc" stroke="#cbdbfc" transform="matrix(.70710678 -.70710678 .70710678 .70710678 310 330)"><path d="m7.4-3.6c2.4 0 3.6 1.2 3.6 3.6 0 2.4-1.2 3.6-3.6 3.6h-14.8c-2.4 0-3.6-1.2-3.6-3.6 0-2.4 1.2-3.6 3.6-3.6z" stroke="none"/><path d="m7.4-3.6c2.4 0 3.6 1.2 3.6 3.6 0 2.4-1.2 3.6-3.6 3.6h-14.8c-2.4 0-3.6-1.2-3.6-3.6 0-2.4 1.2-3.6 3.6-3.6z" fill="none" stroke="#fff"/></g><g fill="#496bb1" stroke="#496bb1" transform="matrix(.70710678 -.70710678 .70710678 .70710678 330 330)"><path d="m7.4-3.6c2.4 0 3.6 1.2 3.6 3.6 0 2.4-1.2 3.6-3.6 3.6h-14.8c-2.4 0-3.6-1.2-3.6-3.6 0-2.4 1.2-3.6 3.6-3.6z" stroke="none"/><path d="m7.4-3.6c2.4 0 3.6 1.2 3.6 3.6 0 2.4-1.2 3.6-3.6 3.6h-14.8c-2.4 0-3.6-1.2-3.6-3.6 0-2.4 1.2-3.6 3.6-3.6z" fill="none" stroke="#fff"/></g><g fill="#496bb1" stroke="#496bb1" transform="matrix(.70710678 -.70710678 .70710678 .70710678 350 330)"><path d="m7.4-3.6c2.4 0 3.6 1.2 3.6 3.6 0 2.4-1.2 3.6-3.6 3.6h-14.8c-2.4 0-3.6-1.2-3.6-3.6 0-2.4 1.2-3.6 3.6-3.6z" stroke="none"/><path d="m7.4-3.6c2.4 0 3.6 1.2 3.6 3.6 0 2.4-1.2 3.6-3.6 3.6h-14.8c-2.4 0-3.6-1.2-3.6-3.6 0-2.4 1.2-3.6 3.6-3.6z" fill="none" stroke="#fff"/></g><g fill="#496bb1" stroke="#496bb1" transform="matrix(.70710678 -.70710678 .70710678 .70710678 370 330)"><path d="m7.4-3.6c2.4 0 3.6 1.2 3.6 3.6 0 2.4-1.2 3.6-3.6 3.6h-14.8c-2.4 0-3.6-1.2-3.6-3.6 0-2.4 1.2-3.6 3.6-3.6z" stroke="none"/><path d="m7.4-3.6c2.4 0 3.6 1.2 3.6 3.6 0 2.4-1.2 3.6-3.6 3.6h-14.8c-2.4 0-3.6-1.2-3.6-3.6 0-2.4 1.2-3.6 3.6-3.6z" fill="none" stroke="#fff"/></g><g fill="#496bb1" stroke="#496bb1" transform="matrix(.70710678 -.70710678 .70710678 .70710678 390 330)"><path d="m7.4-3.6c2.4 0 3.6 1.2 3.6 3.6 0 2.4-1.2 3.6-3.6 3.6h-14.8c-2.4 0-3.6-1.2-3.6-3.6 0-2.4 1.2-3.6 3.6-3.6z" stroke="none"/><path d="m7.4-3.6c2.4 0 3.6 1.2 3.6 3.6 0 2.4-1.2 3.6-3.6 3.6h-14.8c-2.4 0-3.6-1.2-3.6-3.6 0-2.4 1.2-3.6 3.6-3.6z" fill="none" stroke="#fff"/></g><g fill="#3e5990" stroke="#3e5990" transform="matrix(.70710678 -.70710678 .70710678 .70710678 410 330)"><path d="m7.4-3.6c2.4 0 3.6 1.2 3.6 3.6 0 2.4-1.2 3.6-3.6 3.6h-14.8c-2.4 0-3.6-1.2-3.6-3.6 0-2.4 1.2-3.6 3.6-3.6z" stroke="none"/><path d="m7.4-3.6c2.4 0 3.6 1.2 3.6 3.6 0 2.4-1.2 3.6-3.6 3.6h-14.8c-2.4 0-3.6-1.2-3.6-3.6 0-2.4 1.2-3.6 3.6-3.6z" fill="none" stroke="#fff"/></g><g fill="#3e5990" stroke="#3e5990" transform="matrix(.70710678 -.70710678 .70710678 .70710678 90 350)"><path d="m7.4-3.6c2.4 0 3.6 1.2 3.6 3.6 0 2.4-1.2 3.6-3.6 3.6h-14.8c-2.4 0-3.6-1.2-3.6-3.6 0-2.4 1.2-3.6 3.6-3.6z" stroke="none"/><path d="m7.4-3.6c2.4 0 3.6 1.2 3.6 3.6 0 2.4-1.2 3.6-3.6 3.6h-14.8c-2.4 0-3.6-1.2-3.6-3.6 0-2.4 1.2-3.6 3.6-3.6z" fill="none" stroke="#fff"/></g><g fill="#3e5990" stroke="#3e5990" transform="matrix(.70710678 -.70710678 .70710678 .70710678 110 350)"><path d="m7.4-3.6c2.4 0 3.6 1.2 3.6 3.6 0 2.4-1.2 3.6-3.6 3.6h-14.8c-2.4 0-3.6-1.2-3.6-3.6 0-2.4 1.2-3.6 3.6-3.6z" stroke="none"/><path d="m7.4-3.6c2.4 0 3.6 1.2 3.6 3.6 0 2.4-1.2 3.6-3.6 3.6h-14.8c-2.4 0-3.6-1.2-3.6-3.6 0-2.4 1.2-3.6 3.6-3.6z" fill="none" stroke="#fff"/></g><g fill="#496bb1" stroke="#496bb1" transform="matrix(.70710678 -.70710678 .70710678 .70710678 130 350)"><path d="m7.4-3.6c2.4 0 3.6 1.2 3.6 3.6 0 2.4-1.2 3.6-3.6 3.6h-14.8c-2.4 0-3.6-1.2-3.6-3.6 0-2.4 1.2-3.6 3.6-3.6z" stroke="none"/><path d="m7.4-3.6c2.4 0 3.6 1.2 3.6 3.6 0 2.4-1.2 3.6-3.6 3.6h-14.8c-2.4 0-3.6-1.2-3.6-3.6 0-2.4 1.2-3.6 3.6-3.6z" fill="none" stroke="#fff"/></g><g fill="#496bb1" stroke="#496bb1" transform="matrix(.70710678 -.70710678 .70710678 .70710678 150 350)"><path d="m7.4-3.6c2.4 0 3.6 1.2 3.6 3.6 0 2.4-1.2 3.6-3.6 3.6h-14.8c-2.4 0-3.6-1.2-3.6-3.6 0-2.4 1.2-3.6 3.6-3.6z" stroke="none"/><path d="m7.4-3.6c2.4 0 3.6 1.2 3.6 3.6 0 2.4-1.2 3.6-3.6 3.6h-14.8c-2.4 0-3.6-1.2-3.6-3.6 0-2.4 1.2-3.6 3.6-3.6z" fill="none" stroke="#fff"/></g><g fill="#496bb1" stroke="#496bb1" transform="matrix(.70710678 -.70710678 .70710678 .70710678 170 350)"><path d="m7.4-3.6c2.4 0 3.6 1.2 3.6 3.6 0 2.4-1.2 3.6-3.6 3.6h-14.8c-2.4 0-3.6-1.2-3.6-3.6 0-2.4 1.2-3.6 3.6-3.6z" stroke="none"/><path d="m7.4-3.6c2.4 0 3.6 1.2 3.6 3.6 0 2.4-1.2 3.6-3.6 3.6h-14.8c-2.4 0-3.6-1.2-3.6-3.6 0-2.4 1.2-3.6 3.6-3.6z" fill="none" stroke="#fff"/></g><g fill="#496bb1" stroke="#496bb1" transform="matrix(.70710678 -.70710678 .70710678 .70710678 190 350)"><path d="m7.4-3.6c2.4 0 3.6 1.2 3.6 3.6 0 2.4-1.2 3.6-3.6 3.6h-14.8c-2.4 0-3.6-1.2-3.6-3.6 0-2.4 1.2-3.6 3.6-3.6z" stroke="none"/><path d="m7.4-3.6c2.4 0 3.6 1.2 3.6 3.6 0 2.4-1.2 3.6-3.6 3.6h-14.8c-2.4 0-3.6-1.2-3.6-3.6 0-2.4 1.2-3.6 3.6-3.6z" fill="none" stroke="#fff"/></g><g fill="#496bb1" stroke="#496bb1" transform="matrix(.70710678 -.70710678 .70710678 .70710678 210 350)"><path d="m7.4-3.6c2.4 0 3.6 1.2 3.6 3.6 0 2.4-1.2 3.6-3.6 3.6h-14.8c-2.4 0-3.6-1.2-3.6-3.6 0-2.4 1.2-3.6 3.6-3.6z" stroke="none"/><path d="m7.4-3.6c2.4 0 3.6 1.2 3.6 3.6 0 2.4-1.2 3.6-3.6 3.6h-14.8c-2.4 0-3.6-1.2-3.6-3.6 0-2.4 1.2-3.6 3.6-3.6z" fill="none" stroke="#fff"/></g><g fill="#496bb1" stroke="#496bb1" transform="matrix(.70710678 -.70710678 .70710678 .70710678 230 350)"><path d="m7.4-3.6c2.4 0 3.6 1.2 3.6 3.6 0 2.4-1.2 3.6-3.6 3.6h-14.8c-2.4 0-3.6-1.2-3.6-3.6 0-2.4 1.2-3.6 3.6-3.6z" stroke="none"/><path d="m7.4-3.6c2.4 0 3.6 1.2 3.6 3.6 0 2.4-1.2 3.6-3.6 3.6h-14.8c-2.4 0-3.6-1.2-3.6-3.6 0-2.4 1.2-3.6 3.6-3.6z" fill="none" stroke="#fff"/></g><g fill="#496bb1" stroke="#496bb1" transform="matrix(.70710678 -.70710678 .70710678 .70710678 250 350)"><path d="m7.4-3.6c2.4 0 3.6 1.2 3.6 3.6 0 2.4-1.2 3.6-3.6 3.6h-14.8c-2.4 0-3.6-1.2-3.6-3.6 0-2.4 1.2-3.6 3.6-3.6z" stroke="none"/><path d="m7.4-3.6c2.4 0 3.6 1.2 3.6 3.6 0 2.4-1.2 3.6-3.6 3.6h-14.8c-2.4 0-3.6-1.2-3.6-3.6 0-2.4 1.2-3.6 3.6-3.6z" fill="none" stroke="#fff"/></g><g fill="#496bb1" stroke="#496bb1" transform="matrix(.70710678 -.70710678 .70710678 .70710678 270 350)"><path d="m7.4-3.6c2.4 0 3.6 1.2 3.6 3.6 0 2.4-1.2 3.6-3.6 3.6h-14.8c-2.4 0-3.6-1.2-3.6-3.6 0-2.4 1.2-3.6 3.6-3.6z" stroke="none"/><path d="m7.4-3.6c2.4 0 3.6 1.2 3.6 3.6 0 2.4-1.2 3.6-3.6 3.6h-14.8c-2.4 0-3.6-1.2-3.6-3.6 0-2.4 1.2-3.6 3.6-3.6z" fill="none" stroke="#fff"/></g><g fill="#496bb1" stroke="#496bb1" transform="matrix(.70710678 -.70710678 .70710678 .70710678 290 350)"><path d="m7.4-3.6c2.4 0 3.6 1.2 3.6 3.6 0 2.4-1.2 3.6-3.6 3.6h-14.8c-2.4 0-3.6-1.2-3.6-3.6 0-2.4 1.2-3.6 3.6-3.6z" stroke="none"/><path d="m7.4-3.6c2.4 0 3.6 1.2 3.6 3.6 0 2.4-1.2 3.6-3.6 3.6h-14.8c-2.4 0-3.6-1.2-3.6-3.6 0-2.4 1.2-3.6 3.6-3.6z" fill="none" stroke="#fff"/></g><g fill="#496bb1" stroke="#496bb1" transform="matrix(.70710678 -.70710678 .70710678 .70710678 310 350)"><path d="m7.4-3.6c2.4 0 3.6 1.2 3.6 3.6 0 2.4-1.2 3.6-3.6 3.6h-14.8c-2.4 0-3.6-1.2-3.6-3.6 0-2.4 1.2-3.6 3.6-3.6z" stroke="none"/><path d="m7.4-3.6c2.4 0 3.6 1.2 3.6 3.6 0 2.4-1.2 3.6-3.6 3.6h-14.8c-2.4 0-3.6-1.2-3.6-3.6 0-2.4 1.2-3.6 3.6-3.6z" fill="none" stroke="#fff"/></g><g fill="#496bb1" stroke="#496bb1" transform="matrix(.70710678 -.70710678 .70710678 .70710678 330 350)"><path d="m7.4-3.6c2.4 0 3.6 1.2 3.6 3.6 0 2.4-1.2 3.6-3.6 3.6h-14.8c-2.4 0-3.6-1.2-3.6-3.6 0-2.4 1.2-3.6 3.6-3.6z" stroke="none"/><path d="m7.4-3.6c2.4 0 3.6 1.2 3.6 3.6 0 2.4-1.2 3.6-3.6 3.6h-14.8c-2.4 0-3.6-1.2-3.6-3.6 0-2.4 1.2-3.6 3.6-3.6z" fill="none" stroke="#fff"/></g><g fill="#496bb1" stroke="#496bb1" transform="matrix(.70710678 -.70710678 .70710678 .70710678 350 350)"><path d="m7.4-3.6c2.4 0 3.6 1.2 3.6 3.6 0 2.4-1.2 3.6-3.6 3.6h-14.8c-2.4 0-3.6-1.2-3.6-3.6 0-2.4 1.2-3.6 3.6-3.6z" stroke="none"/><path d="m7.4-3.6c2.4 0 3.6 1.2 3.6 3.6 0 2.4-1.2 3.6-3.6 3.6h-14.8c-2.4 0-3.6-1.2-3.6-3.6 0-2.4 1.2-3.6 3.6-3.6z" fill="none" stroke="#fff"/></g><g fill="#3e5990" stroke="#3e5990" transform="matrix(.70710678 -.70710678 .70710678 .70710678 370 350)"><path d="m7.4-3.6c2.4 0 3.6 1.2 3.6 3.6 0 2.4-1.2 3.6-3.6 3.6h-14.8c-2.4 0-3.6-1.2-3.6-3.6 0-2.4 1.2-3.6 3.6-3.6z" stroke="none"/><path d="m7.4-3.6c2.4 0 3.6 1.2 3.6 3.6 0 2.4-1.2 3.6-3.6 3.6h-14.8c-2.4 0-3.6-1.2-3.6-3.6 0-2.4 1.2-3.6 3.6-3.6z" fill="none" stroke="#fff"/></g><g fill="#3e5990" stroke="#3e5990" transform="matrix(.70710678 -.70710678 .70710678 .70710678 390 350)"><path d="m7.4-3.6c2.4 0 3.6 1.2 3.6 3.6 0 2.4-1.2 3.6-3.6 3.6h-14.8c-2.4 0-3.6-1.2-3.6-3.6 0-2.4 1.2-3.6 3.6-3.6z" stroke="none"/><path d="m7.4-3.6c2.4 0 3.6 1.2 3.6 3.6 0 2.4-1.2 3.6-3.6 3.6h-14.8c-2.4 0-3.6-1.2-3.6-3.6 0-2.4 1.2-3.6 3.6-3.6z" fill="none" stroke="#fff"/></g><g fill="#3e5990" stroke="#3e5990" transform="matrix(.70710678 -.70710678 .70710678 .70710678 130 370)"><path d="m7.4-3.6c2.4 0 3.6 1.2 3.6 3.6 0 2.4-1.2 3.6-3.6 3.6h-14.8c-2.4 0-3.6-1.2-3.6-3.6 0-2.4 1.2-3.6 3.6-3.6z" stroke="none"/><path d="m7.4-3.6c2.4 0 3.6 1.2 3.6 3.6 0 2.4-1.2 3.6-3.6 3.6h-14.8c-2.4 0-3.6-1.2-3.6-3.6 0-2.4 1.2-3.6 3.6-3.6z" fill="none" stroke="#fff"/></g><g fill="#3e5990" stroke="#3e5990" transform="matrix(.70710678 -.70710678 .70710678 .70710678 150 370)"><path d="m7.4-3.6c2.4 0 3.6 1.2 3.6 3.6 0 2.4-1.2 3.6-3.6 3.6h-14.8c-2.4 0-3.6-1.2-3.6-3.6 0-2.4 1.2-3.6 3.6-3.6z" stroke="none"/><path d="m7.4-3.6c2.4 0 3.6 1.2 3.6 3.6 0 2.4-1.2 3.6-3.6 3.6h-14.8c-2.4 0-3.6-1.2-3.6-3.6 0-2.4 1.2-3.6 3.6-3.6z" fill="none" stroke="#fff"/></g><g fill="#3e5990" stroke="#3e5990" transform="matrix(.70710678 -.70710678 .70710678 .70710678 170 370)"><path d="m7.4-3.6c2.4 0 3.6 1.2 3.6 3.6 0 2.4-1.2 3.6-3.6 3.6h-14.8c-2.4 0-3.6-1.2-3.6-3.6 0-2.4 1.2-3.6 3.6-3.6z" stroke="none"/><path d="m7.4-3.6c2.4 0 3.6 1.2 3.6 3.6 0 2.4-1.2 3.6-3.6 3.6h-14.8c-2.4 0-3.6-1.2-3.6-3.6 0-2.4 1.2-3.6 3.6-3.6z" fill="none" stroke="#fff"/></g><g fill="#496bb1" stroke="#496bb1" transform="matrix(.70710678 -.70710678 .70710678 .70710678 190 370)"><path d="m7.4-3.6c2.4 0 3.6 1.2 3.6 3.6 0 2.4-1.2 3.6-3.6 3.6h-14.8c-2.4 0-3.6-1.2-3.6-3.6 0-2.4 1.2-3.6 3.6-3.6z" stroke="none"/><path d="m7.4-3.6c2.4 0 3.6 1.2 3.6 3.6 0 2.4-1.2 3.6-3.6 3.6h-14.8c-2.4 0-3.6-1.2-3.6-3.6 0-2.4 1.2-3.6 3.6-3.6z" fill="none" stroke="#fff"/></g><g fill="#496bb1" stroke="#496bb1" transform="matrix(.70710678 -.70710678 .70710678 .70710678 210 370)"><path d="m7.4-3.6c2.4 0 3.6 1.2 3.6 3.6 0 2.4-1.2 3.6-3.6 3.6h-14.8c-2.4 0-3.6-1.2-3.6-3.6 0-2.4 1.2-3.6 3.6-3.6z" stroke="none"/><path d="m7.4-3.6c2.4 0 3.6 1.2 3.6 3.6 0 2.4-1.2 3.6-3.6 3.6h-14.8c-2.4 0-3.6-1.2-3.6-3.6 0-2.4 1.2-3.6 3.6-3.6z" fill="none" stroke="#fff"/></g><g fill="#496bb1" stroke="#496bb1" transform="matrix(.70710678 -.70710678 .70710678 .70710678 230 370)"><path d="m7.4-3.6c2.4 0 3.6 1.2 3.6 3.6 0 2.4-1.2 3.6-3.6 3.6h-14.8c-2.4 0-3.6-1.2-3.6-3.6 0-2.4 1.2-3.6 3.6-3.6z" stroke="none"/><path d="m7.4-3.6c2.4 0 3.6 1.2 3.6 3.6 0 2.4-1.2 3.6-3.6 3.6h-14.8c-2.4 0-3.6-1.2-3.6-3.6 0-2.4 1.2-3.6 3.6-3.6z" fill="none" stroke="#fff"/></g><g fill="#496bb1" stroke="#496bb1" transform="matrix(.70710678 -.70710678 .70710678 .70710678 250 370)"><path d="m7.4-3.6c2.4 0 3.6 1.2 3.6 3.6 0 2.4-1.2 3.6-3.6 3.6h-14.8c-2.4 0-3.6-1.2-3.6-3.6 0-2.4 1.2-3.6 3.6-3.6z" stroke="none"/><path d="m7.4-3.6c2.4 0 3.6 1.2 3.6 3.6 0 2.4-1.2 3.6-3.6 3.6h-14.8c-2.4 0-3.6-1.2-3.6-3.6 0-2.4 1.2-3.6 3.6-3.6z" fill="none" stroke="#fff"/></g><g fill="#496bb1" stroke="#496bb1" transform="matrix(.70710678 -.70710678 .70710678 .70710678 270 370)"><path d="m7.4-3.6c2.4 0 3.6 1.2 3.6 3.6 0 2.4-1.2 3.6-3.6 3.6h-14.8c-2.4 0-3.6-1.2-3.6-3.6 0-2.4 1.2-3.6 3.6-3.6z" stroke="none"/><path d="m7.4-3.6c2.4 0 3.6 1.2 3.6 3.6 0 2.4-1.2 3.6-3.6 3.6h-14.8c-2.4 0-3.6-1.2-3.6-3.6 0-2.4 1.2-3.6 3.6-3.6z" fill="none" stroke="#fff"/></g><g fill="#496bb1" stroke="#496bb1" transform="matrix(.70710678 -.70710678 .70710678 .70710678 290 370)"><path d="m7.4-3.6c2.4 0 3.6 1.2 3.6 3.6 0 2.4-1.2 3.6-3.6 3.6h-14.8c-2.4 0-3.6-1.2-3.6-3.6 0-2.4 1.2-3.6 3.6-3.6z" stroke="none"/><path d="m7.4-3.6c2.4 0 3.6 1.2 3.6 3.6 0 2.4-1.2 3.6-3.6 3.6h-14.8c-2.4 0-3.6-1.2-3.6-3.6 0-2.4 1.2-3.6 3.6-3.6z" fill="none" stroke="#fff"/></g><g fill="#3e5990" stroke="#3e5990" transform="matrix(.70710678 -.70710678 .70710678 .70710678 310 370)"><path d="m7.4-3.6c2.4 0 3.6 1.2 3.6 3.6 0 2.4-1.2 3.6-3.6 3.6h-14.8c-2.4 0-3.6-1.2-3.6-3.6 0-2.4 1.2-3.6 3.6-3.6z" stroke="none"/><path d="m7.4-3.6c2.4 0 3.6 1.2 3.6 3.6 0 2.4-1.2 3.6-3.6 3.6h-14.8c-2.4 0-3.6-1.2-3.6-3.6 0-2.4 1.2-3.6 3.6-3.6z" fill="none" stroke="#fff"/></g><g fill="#3e5990" stroke="#3e5990" transform="matrix(.70710678 -.70710678 .70710678 .70710678 330 370)"><path d="m7.4-3.6c2.4 0 3.6 1.2 3.6 3.6 0 2.4-1.2 3.6-3.6 3.6h-14.8c-2.4 0-3.6-1.2-3.6-3.6 0-2.4 1.2-3.6 3.6-3.6z" stroke="none"/><path d="m7.4-3.6c2.4 0 3.6 1.2 3.6 3.6 0 2.4-1.2 3.6-3.6 3.6h-14.8c-2.4 0-3.6-1.2-3.6-3.6 0-2.4 1.2-3.6 3.6-3.6z" fill="none" stroke="#fff"/></g><g fill="#3e5990" stroke="#3e5990" transform="matrix(.70710678 -.70710678 .70710678 .70710678 350 370)"><path d="m7.4-3.6c2.4 0 3.6 1.2 3.6 3.6 0 2.4-1.2 3.6-3.6 3.6h-14.8c-2.4 0-3.6-1.2-3.6-3.6 0-2.4 1.2-3.6 3.6-3.6z" stroke="none"/><path d="m7.4-3.6c2.4 0 3.6 1.2 3.6 3.6 0 2.4-1.2 3.6-3.6 3.6h-14.8c-2.4 0-3.6-1.2-3.6-3.6 0-2.4 1.2-3.6 3.6-3.6z" fill="none" stroke="#fff"/></g><g fill="#3e5990" stroke="#3e5990" transform="matrix(.70710678 -.70710678 .70710678 .70710678 190 390)"><path d="m7.4-3.6c2.4 0 3.6 1.2 3.6 3.6 0 2.4-1.2 3.6-3.6 3.6h-14.8c-2.4 0-3.6-1.2-3.6-3.6 0-2.4 1.2-3.6 3.6-3.6z" stroke="none"/><path d="m7.4-3.6c2.4 0 3.6 1.2 3.6 3.6 0 2.4-1.2 3.6-3.6 3.6h-14.8c-2.4 0-3.6-1.2-3.6-3.6 0-2.4 1.2-3.6 3.6-3.6z" fill="none" stroke="#fff"/></g><g fill="#3e5990" stroke="#3e5990" transform="matrix(.70710678 -.70710678 .70710678 .70710678 210 390)"><path d="m7.4-3.6c2.4 0 3.6 1.2 3.6 3.6 0 2.4-1.2 3.6-3.6 3.6h-14.8c-2.4 0-3.6-1.2-3.6-3.6 0-2.4 1.2-3.6 3.6-3.6z" stroke="none"/><path d="m7.4-3.6c2.4 0 3.6 1.2 3.6 3.6 0 2.4-1.2 3.6-3.6 3.6h-14.8c-2.4 0-3.6-1.2-3.6-3.6 0-2.4 1.2-3.6 3.6-3.6z" fill="none" stroke="#fff"/></g><g fill="#3e5990" stroke="#3e5990" transform="matrix(.70710678 -.70710678 .70710678 .70710678 230 390)"><path d="m7.4-3.6c2.4 0 3.6 1.2 3.6 3.6 0 2.4-1.2 3.6-3.6 3.6h-14.8c-2.4 0-3.6-1.2-3.6-3.6 0-2.4 1.2-3.6 3.6-3.6z" stroke="none"/><path d="m7.4-3.6c2.4 0 3.6 1.2 3.6 3.6 0 2.4-1.2 3.6-3.6 3.6h-14.8c-2.4 0-3.6-1.2-3.6-3.6 0-2.4 1.2-3.6 3.6-3.6z" fill="none" stroke="#fff"/></g><g fill="#3e5990" stroke="#3e5990" transform="matrix(.70710678 -.70710678 .70710678 .70710678 250 390)"><path d="m7.4-3.6c2.4 0 3.6 1.2 3.6 3.6 0 2.4-1.2 3.6-3.6 3.6h-14.8c-2.4 0-3.6-1.2-3.6-3.6 0-2.4 1.2-3.6 3.6-3.6z" stroke="none"/><path d="m7.4-3.6c2.4 0 3.6 1.2 3.6 3.6 0 2.4-1.2 3.6-3.6 3.6h-14.8c-2.4 0-3.6-1.2-3.6-3.6 0-2.4 1.2-3.6 3.6-3.6z" fill="none" stroke="#fff"/></g><g fill="#3e5990" stroke="#3e5990" transform="matrix(.70710678 -.70710678 .70710678 .70710678 270 390)"><path d="m7.4-3.6c2.4 0 3.6 1.2 3.6 3.6 0 2.4-1.2 3.6-3.6 3.6h-14.8c-2.4 0-3.6-1.2-3.6-3.6 0-2.4 1.2-3.6 3.6-3.6z" stroke="none"/><path d="m7.4-3.6c2.4 0 3.6 1.2 3.6 3.6 0 2.4-1.2 3.6-3.6 3.6h-14.8c-2.4 0-3.6-1.2-3.6-3.6 0-2.4 1.2-3.6 3.6-3.6z" fill="none" stroke="#fff"/></g><g fill="#3e5990" stroke="#3e5990" transform="matrix(.70710678 -.70710678 .70710678 .70710678 290 390)"><path d="m7.4-3.6c2.4 0 3.6 1.2 3.6 3.6 0 2.4-1.2 3.6-3.6 3.6h-14.8c-2.4 0-3.6-1.2-3.6-3.6 0-2.4 1.2-3.6 3.6-3.6z" stroke="none"/><path d="m7.4-3.6c2.4 0 3.6 1.2 3.6 3.6 0 2.4-1.2 3.6-3.6 3.6h-14.8c-2.4 0-3.6-1.2-3.6-3.6 0-2.4 1.2-3.6 3.6-3.6z" fill="none" stroke="#fff"/></g></g></svg>