<svg color-interpolation="auto" height="480" stroke="#000" stroke-linecap="square" stroke-miterlimit="10" width="480" xmlns="http://www.w3.org/2000/svg"><g stroke-linecap="round" stroke-width="2"><path d="m183.6 123.6 12.8 12.8" fill="none"/><g><path d="m183.6 136.4 12.8-12.8" fill="none"/><path d="m210 123.6 1.8809 3.8111 4.2059.6112-3.0434 2.9666.7184 4.1888-3.7618-1.9777-3.7618 1.9777.7184-4.1888-3.0434-2.9666 4.2059-.6112z" stroke="none"/><path d="m230 123.6 6.4 6.4-6.4 6.4-6.4-6.4z" stroke="none"/><path d="m250 123.6 6.4 6.4-6.4 6.4-6.4-6.4z" stroke="none"/><path d="m263.6 123.6 12.8 12.8" fill="none"/><path d="m263.6 136.4 12.8-12.8" fill="none"/><path d="m143.6 143.6 12.8 12.8" fill="none"/><path d="m143.6 156.4 12.8-12.8" fill="none"/><path d="m163.6 143.6 12.8 12.8" fill="none"/><path d="m163.6 156.4 12.8-12.8" fill="none"/><path d="m190 143.6 1.8809 3.8111 4.2059.6112-3.0434 2.9666.7184 4.1888-3.7618-1.9777-3.7618 1.9777.7184-4.1888-3.0434-2.9666 4.2059-.6112z" stroke="none"/><path d="m210 144.2099-6.4 11.0851h12.8z" stroke="none"/><path d="m230 143.6 1.8809 3.8111 4.2059.6112-3.0434 2.9666.7184 4.1888-3.7618-1.9777-3.7618 1.9777.7184-4.1888-3.0434-2.9666 4.2059-.6112z" stroke="none"/><path d="m250 143.6 6.4 6.4-6.4 6.4-6.4-6.4z" stroke="none"/><path d="m270 143.6 6.4 6.4-6.4 6.4-6.4-6.4z" stroke="none"/><path d="m283.6 143.6 12.8 12.8" fill="none"/><path d="m283.6 156.4 12.8-12.8" fill="none"/><path d="m303.6 143.6 12.8 12.8" fill="none"/><path d="m303.6 156.4 12.8-12.8" fill="none"/><path d="m110 163.6 6.4 6.4-6.4 6.4-6.4-6.4z" fill="none"/><path d="m123.6 163.6 12.8 12.8" fill="none"/><path d="m123.6 176.4 12.8-12.8" fill="none"/><path d="m143.6 163.6 12.8 12.8" fill="none"/><path d="m143.6 176.4 12.8-12.8" fill="none"/><path d="m170 163.6 1.8809 3.8111 4.2059.6112-3.0434 2.9666.7184 4.1888-3.7618-1.9777-3.7618 1.9777.7184-4.1888-3.0434-2.9666 4.2059-.6112z" stroke="none"/><path d="m190 164.2099-6.4 11.0851h12.8z" stroke="none"/><path d="m210 163.6 1.8809 3.8111 4.2059.6112-3.0434 2.9666.7184 4.1888-3.7618-1.9777-3.7618 1.9777.7184-4.1888-3.0434-2.9666 4.2059-.6112z" stroke="none"/><path d="m230 164.2099-6.4 11.0851h12.8z" stroke="none"/><path d="m250 163.6 6.4 6.4-6.4 6.4-6.4-6.4z" stroke="none"/><path d="m270 163.6 6.4 6.4-6.4 6.4-6.4-6.4z" stroke="none"/><path d="m283.6 163.6 12.8 12.8" fill="none"/><path d="m283.6 176.4 12.8-12.8" fill="none"/><path d="m303.6 163.6 12.8 12.8" fill="none"/><path d="m303.6 176.4 12.8-12.8" fill="none"/><path d="m323.6 163.6 12.8 12.8" fill="none"/><path d="m323.6 176.4 12.8-12.8" fill="none"/><path d="m343.6 163.6h12.8v12.8h-12.8z" stroke="none"/><path d="m363.6 163.6h12.8v12.8h-12.8z" stroke="none"/><path d="m70 183.6 6.4 6.4-6.4 6.4-6.4-6.4z" fill="none"/><path d="m90 183.6 6.4 6.4-6.4 6.4-6.4-6.4z" fill="none"/><path d="m105.2 190h9.6" fill="none"/><path d="m110 185.2v9.6" fill="none"/><path d="m123.6 183.6 12.8 12.8" fill="none"/><path d="m123.6 196.4 12.8-12.8" fill="none"/><path d="m143.6 183.6 12.8 12.8" fill="none"/><path d="m143.6 196.4 12.8-12.8" fill="none"/><path d="m163.6 183.6h12.8v12.8h-12.8z" fill="none"/><path d="m190 183.6 1.8809 3.8111 4.2059.6112-3.0434 2.9666.7184 4.1888-3.7618-1.9777-3.7618 1.9777.7184-4.1888-3.0434-2.9666 4.2059-.6112z" stroke="none"/><path d="m210 184.2099-6.4 11.0851h12.8z" stroke="none"/><path d="m223.6 183.6h12.8v12.8h-12.8z" fill="none"/><path d="m243.6 183.6h12.8v12.8h-12.8z" fill="none"/><path d="m263.6 183.6h12.8v12.8h-12.8z" fill="none"/><path d="m283.6 183.6 12.8 12.8" fill="none"/><path d="m283.6 196.4 12.8-12.8" fill="none"/><path d="m303.6 183.6 12.8 12.8" fill="none"/><path d="m303.6 196.4 12.8-12.8" fill="none"/><path d="m323.6 183.6 12.8 12.8" fill="none"/><path d="m323.6 196.4 12.8-12.8" fill="none"/><path d="m343.6 183.6h12.8v12.8h-12.8z" stroke="none"/><path d="m363.6 183.6h12.8v12.8h-12.8z" stroke="none"/><path d="m383.6 183.6h12.8v12.8h-12.8z" stroke="none"/><path d="m410 183.6 6.4 6.4-6.4 6.4-6.4-6.4z" fill="none"/><path d="m50 203.6 6.4 6.4-6.4 6.4-6.4-6.4z" fill="none"/><path d="m65.2 210h9.6" fill="none"/><path d="m70 205.2v9.6" fill="none"/><path d="m85.2 210h9.6" fill="none"/><path d="m90 205.2v9.6" fill="none"/><path d="m103.6 203.6 12.8 12.8" fill="none"/><path d="m103.6 216.4 12.8-12.8" fill="none"/><path d="m123.6 203.6 12.8 12.8" fill="none"/><path d="m123.6 216.4 12.8-12.8" fill="none"/><circle cx="150" cy="210" r="6.4" stroke="none"/><circle cx="170" cy="210" r="6.4" stroke="none"/><path d="m183.6 203.6h12.8v12.8h-12.8z" fill="none"/><path d="m203.6 203.6h12.8v12.8h-12.8z" fill="none"/><path d="m223.6 203.6h12.8v12.8h-12.8z" fill="none"/><path d="m243.6 203.6 12.8 12.8" fill="none"/><path d="m243.6 216.4 12.8-12.8" fill="none"/><path d="m263.6 203.6 12.8 12.8" fill="none"/><path d="m263.6 216.4 12.8-12.8" fill="none"/><circle cx="290" cy="210" r="6.4" stroke="none"/><circle cx="310" cy="210" r="6.4" stroke="none"/><path d="m323.6 203.6 12.8 12.8" fill="none"/><path d="m323.6 216.4 12.8-12.8" fill="none"/><path d="m343.6 203.6 12.8 12.8" fill="none"/><path d="m343.6 216.4 12.8-12.8" fill="none"/><path d="m363.6 203.6h12.8v12.8h-12.8z" stroke="none"/><path d="m383.6 203.6h12.8v12.8h-12.8z" stroke="none"/><path d="m405.2 210h9.6" fill="none"/><path d="m410 205.2v9.6" fill="none"/><path d="m430 203.6 6.4 6.4-6.4 6.4-6.4-6.4z" fill="none"/><path d="m30 223.6 6.4 6.4-6.4 6.4-6.4-6.4z" fill="none"/><path d="m45.2 230h9.6" fill="none"/><path d="m50 225.2v9.6" fill="none"/><path d="m65.2 230h9.6" fill="none"/><path d="m70 225.2v9.6" fill="none"/><path d="m85.2 230h9.6" fill="none"/><path d="m90 225.2v9.6" fill="none"/><path d="m103.6 223.6 12.8 12.8" fill="none"/><path d="m103.6 236.4 12.8-12.8" fill="none"/><path d="m123.6 223.6 12.8 12.8" fill="none"/><path d="m123.6 236.4 12.8-12.8" fill="none"/><path d="m143.6 223.6 12.8 12.8" fill="none"/><path d="m143.6 236.4 12.8-12.8" fill="none"/><path d="m163.6 223.6 12.8 12.8" fill="none"/><path d="m163.6 236.4 12.8-12.8" fill="none"/><circle cx="190" cy="230" r="6.4" stroke="none"/><path d="m203.6 223.6h12.8v12.8h-12.8z" fill="none"/><path d="m223.6 223.6 12.8 12.8" fill="none"/><path d="m223.6 236.4 12.8-12.8" fill="none"/><circle cx="250" cy="230" r="6.4" stroke="none"/><circle cx="270" cy="230" r="6.4" stroke="none"/><path d="m283.6 223.6 12.8 12.8" fill="none"/><path d="m283.6 236.4 12.8-12.8" fill="none"/><path d="m303.6 223.6 12.8 12.8" fill="none"/><path d="m303.6 236.4 12.8-12.8" fill="none"/><path d="m323.6 223.6 12.8 12.8" fill="none"/><path d="m323.6 236.4 12.8-12.8" fill="none"/><path d="m343.6 223.6 12.8 12.8" fill="none"/><path d="m343.6 236.4 12.8-12.8" fill="none"/><path d="m363.6 223.6h12.8v12.8h-12.8z" stroke="none"/><path d="m383.6 223.6h12.8v12.8h-12.8z" stroke="none"/><path d="m405.2 230h9.6" fill="none"/><path d="m410 225.2v9.6" fill="none"/><path d="m425.2 230h9.6" fill="none"/><path d="m430 225.2v9.6" fill="none"/><path d="m450 223.6 6.4 6.4-6.4 6.4-6.4-6.4z" fill="none"/><path d="m30 243.6 6.4 6.4-6.4 6.4-6.4-6.4z" fill="none"/><path d="m45.2 250h9.6" fill="none"/><path d="m50 245.2v9.6" fill="none"/><path d="m65.2 250h9.6" fill="none"/><path d="m70 245.2v9.6" fill="none"/><path d="m85.2 250h9.6" fill="none"/><path d="m90 245.2v9.6" fill="none"/><path d="m103.6 243.6 12.8 12.8" fill="none"/><path d="m103.6 256.4 12.8-12.8" fill="none"/><path d="m123.6 243.6 12.8 12.8" fill="none"/><path d="m123.6 256.4 12.8-12.8" fill="none"/><path d="m143.6 243.6 12.8 12.8" fill="none"/><path d="m143.6 256.4 12.8-12.8" fill="none"/><path d="m163.6 243.6 12.8 12.8" fill="none"/><path d="m163.6 256.4 12.8-12.8" fill="none"/><path d="m183.6 243.6h12.8v12.8h-12.8z" fill="none"/><path d="m203.6 243.6 12.8 12.8" fill="none"/><path d="m203.6 256.4 12.8-12.8" fill="none"/><circle cx="230" cy="250" r="6.4" stroke="none"/><path d="m243.6 243.6 12.8 12.8" fill="none"/><path d="m243.6 256.4 12.8-12.8" fill="none"/><path d="m263.6 243.6 12.8 12.8" fill="none"/><path d="m263.6 256.4 12.8-12.8" fill="none"/><path d="m283.6 243.6 12.8 12.8" fill="none"/><path d="m283.6 256.4 12.8-12.8" fill="none"/><path d="m303.6 243.6 12.8 12.8" fill="none"/><path d="m303.6 256.4 12.8-12.8" fill="none"/><path d="m323.6 243.6 12.8 12.8" fill="none"/><path d="m323.6 256.4 12.8-12.8" fill="none"/><path d="m343.6 243.6 12.8 12.8" fill="none"/><path d="m343.6 256.4 12.8-12.8" fill="none"/><path d="m363.6 243.6h12.8v12.8h-12.8z" stroke="none"/><path d="m385.2 250h9.6" fill="none"/><path d="m390 245.2v9.6" fill="none"/><path d="m405.2 250h9.6" fill="none"/><path d="m410 245.2v9.6" fill="none"/><path d="m425.2 250h9.6" fill="none"/><path d="m430 245.2v9.6" fill="none"/><path d="m450 243.6 6.4 6.4-6.4 6.4-6.4-6.4z" fill="none"/><path d="m30 263.6 6.4 6.4-6.4 6.4-6.4-6.4z" fill="none"/><path d="m45.2 270h9.6" fill="none"/><path d="m50 265.2v9.6" fill="none"/><path d="m65.2 270h9.6" fill="none"/><path d="m70 265.2v9.6" fill="none"/><path d="m85.2 270h9.6" fill="none"/><path d="m90 265.2v9.6" fill="none"/><path d="m103.6 263.6h12.8v12.8h-12.8z" fill="none"/><path d="m123.6 263.6 12.8 12.8" fill="none"/><path d="m123.6 276.4 12.8-12.8" fill="none"/><path d="m143.6 263.6 12.8 12.8" fill="none"/><path d="m143.6 276.4 12.8-12.8" fill="none"/><path d="m163.6 263.6 12.8 12.8" fill="none"/><path d="m163.6 276.4 12.8-12.8" fill="none"/><path d="m183.6 263.6h12.8v12.8h-12.8z" fill="none"/><path d="m203.6 263.6 12.8 12.8" fill="none"/><path d="m203.6 276.4 12.8-12.8" fill="none"/><circle cx="230" cy="270" r="6.4" stroke="none"/><path d="m243.6 263.6 12.8 12.8" fill="none"/><path d="m243.6 276.4 12.8-12.8" fill="none"/><path d="m263.6 263.6 12.8 12.8" fill="none"/><path d="m263.6 276.4 12.8-12.8" fill="none"/><path d="m283.6 263.6 12.8 12.8" fill="none"/><path d="m283.6 276.4 12.8-12.8" fill="none"/><path d="m303.6 263.6 12.8 12.8" fill="none"/><path d="m303.6 276.4 12.8-12.8" fill="none"/><path d="m323.6 263.6 12.8 12.8" fill="none"/><path d="m323.6 276.4 12.8-12.8" fill="none"/><path d="m343.6 263.6h12.8v12.8h-12.8z" stroke="none"/><path d="m365.2 270h9.6" fill="none"/><path d="m370 265.2v9.6" fill="none"/><path d="m385.2 270h9.6" fill="none"/><path d="m390 265.2v9.6" fill="none"/><path d="m405.2 270h9.6" fill="none"/><path d="m410 265.2v9.6" fill="none"/><path d="m425.2 270h9.6" fill="none"/><path d="m430 265.2v9.6" fill="none"/><path d="m450 263.6 6.4 6.4-6.4 6.4-6.4-6.4z" fill="none"/><path d="m50 283.6 6.4 6.4-6.4 6.4-6.4-6.4z" fill="none"/><path d="m65.2 290h9.6" fill="none"/><path d="m70 285.2v9.6" fill="none"/><path d="m85.2 290h9.6" fill="none"/><path d="m90 285.2v9.6" fill="none"/><path d="m105.2 290h9.6" fill="none"/><path d="m110 285.2v9.6" fill="none"/><path d="m123.6 283.6h12.8v12.8h-12.8z" fill="none"/><path d="m143.6 283.6h12.8v12.8h-12.8z" fill="none"/><path d="m163.6 283.6h12.8v12.8h-12.8z" fill="none"/><path d="m183.6 283.6h12.8v12.8h-12.8z" fill="none"/><path d="m203.6 283.6 12.8 12.8" fill="none"/><path d="m203.6 296.4 12.8-12.8" fill="none"/><circle cx="230" cy="290" r="6.4" stroke="none"/><g fill="none"><path d="m243.6 283.6 12.8 12.8"/><path d="m243.6 296.4 12.8-12.8"/><path d="m263.6 283.6 12.8 12.8"/><path d="m263.6 296.4 12.8-12.8"/><path d="m283.6 283.6 12.8 12.8"/><path d="m283.6 296.4 12.8-12.8"/><path d="m305.2 290h9.6"/><path d="m310 285.2v9.6"/><path d="m325.2 290h9.6"/><path d="m330 285.2v9.6"/><path d="m345.2 290h9.6"/><path d="m350 285.2v9.6"/><path d="m365.2 290h9.6"/><path d="m370 285.2v9.6"/><path d="m385.2 290h9.6"/><path d="m390 285.2v9.6"/><path d="m405.2 290h9.6"/><path d="m410 285.2v9.6"/><path d="m430 283.6 6.4 6.4-6.4 6.4-6.4-6.4z"/><path d="m50 303.6 6.4 6.4-6.4 6.4-6.4-6.4z"/><path d="m70 310h6.4" stroke-width="1.5"/><path d="m70 310 3.2 5.5426" stroke-width="1.5"/><path d="m70 310-3.2 5.5426" stroke-width="1.5"/><path d="m70 310h-6.4" stroke-width="1.5"/><path d="m70 310-3.2-5.5426" stroke-width="1.5"/><path d="m70 310 3.2-5.5426" stroke-width="1.5"/><path d="m90 310h6.4" stroke-width="1.5"/><path d="m90 310 3.2 5.5426" stroke-width="1.5"/><path d="m90 310-3.2 5.5426" stroke-width="1.5"/><path d="m90 310h-6.4" stroke-width="1.5"/><path d="m90 310-3.2-5.5426" stroke-width="1.5"/><path d="m90 310 3.2-5.5426" stroke-width="1.5"/><path d="m105.2 310h9.6"/><path d="m110 305.2v9.6"/><path d="m125.2 310h9.6"/><path d="m130 305.2v9.6"/><path d="m145.2 310h9.6"/><path d="m150 305.2v9.6"/><path d="m163.6 303.6h12.8v12.8h-12.8z"/><path d="m183.6 303.6h12.8v12.8h-12.8z"/><path d="m203.6 303.6h12.8v12.8h-12.8z"/><path d="m223.6 303.6 12.8 12.8"/><path d="m223.6 316.4 12.8-12.8"/><path d="m243.6 303.6 12.8 12.8"/><path d="m243.6 316.4 12.8-12.8"/><path d="m263.6 303.6h12.8v12.8h-12.8z"/><path d="m283.6 303.6h12.8v12.8h-12.8z"/><path d="m305.2 310h9.6"/><path d="m310 305.2v9.6"/><path d="m325.2 310h9.6"/><path d="m330 305.2v9.6"/><path d="m345.2 310h9.6"/><path d="m350 305.2v9.6"/><path d="m365.2 310h9.6"/><path d="m370 305.2v9.6"/><path d="m390 310h6.4" stroke-width="1.5"/><path d="m390 310 3.2 5.5426" stroke-width="1.5"/><path d="m390 310-3.2 5.5426" stroke-width="1.5"/><path d="m390 310h-6.4" stroke-width="1.5"/><path d="m390 310-3.2-5.5426" stroke-width="1.5"/><path d="m390 310 3.2-5.5426" stroke-width="1.5"/><path d="m410 310h6.4" stroke-width="1.5"/><path d="m410 310 3.2 5.5426" stroke-width="1.5"/><path d="m410 310-3.2 5.5426" stroke-width="1.5"/><path d="m410 310h-6.4" stroke-width="1.5"/><path d="m410 310-3.2-5.5426" stroke-width="1.5"/><path d="m410 310 3.2-5.5426" stroke-width="1.5"/><path d="m430 303.6 6.4 6.4-6.4 6.4-6.4-6.4z"/><path d="m70 323.6 6.4 6.4-6.4 6.4-6.4-6.4z"/><path d="m90 330h6.4" stroke-width="1.5"/><path d="m90 330 3.2 5.5426" stroke-width="1.5"/><path d="m90 330-3.2 5.5426" stroke-width="1.5"/><path d="m90 330h-6.4" stroke-width="1.5"/><path d="m90 330-3.2-5.5426" stroke-width="1.5"/><path d="m90 330 3.2-5.5426" stroke-width="1.5"/><path d="m110 330h6.4" stroke-width="1.5"/><path d="m110 330 3.2 5.5426" stroke-width="1.5"/><path d="m110 330-3.2 5.5426" stroke-width="1.5"/><path d="m110 330h-6.4" stroke-width="1.5"/><path d="m110 330-3.2-5.5426" stroke-width="1.5"/><path d="m110 330 3.2-5.5426" stroke-width="1.5"/><path d="m130 330h6.4" stroke-width="1.5"/><path d="m130 330 3.2 5.5426" stroke-width="1.5"/><path d="m130 330-3.2 5.5426" stroke-width="1.5"/><path d="m130 330h-6.4" stroke-width="1.5"/><path d="m130 330-3.2-5.5426" stroke-width="1.5"/><path d="m130 330 3.2-5.5426" stroke-width="1.5"/><path d="m150 330h6.4" stroke-width="1.5"/><path d="m150 330 3.2 5.5426" stroke-width="1.5"/><path d="m150 330-3.2 5.5426" stroke-width="1.5"/><path d="m150 330h-6.4" stroke-width="1.5"/><path d="m150 330-3.2-5.5426" stroke-width="1.5"/><path d="m150 330 3.2-5.5426" stroke-width="1.5"/><path d="m165.2 330h9.6"/><path d="m170 325.2v9.6"/><path d="m185.2 330h9.6"/><path d="m190 325.2v9.6"/><path d="m205.2 330h9.6"/><path d="m210 325.2v9.6"/><path d="m223.6 323.6h12.8v12.8h-12.8z"/><path d="m243.6 323.6h12.8v12.8h-12.8z"/><path d="m265.2 330h9.6"/><path d="m270 325.2v9.6"/><path d="m285.2 330h9.6"/><path d="m290 325.2v9.6"/><path d="m305.2 330h9.6"/><path d="m310 325.2v9.6"/><path d="m330 330h6.4" stroke-width="1.5"/><path d="m330 330 3.2 5.5426" stroke-width="1.5"/><path d="m330 330-3.2 5.5426" stroke-width="1.5"/><path d="m330 330h-6.4" stroke-width="1.5"/><path d="m330 330-3.2-5.5426" stroke-width="1.5"/><path d="m330 330 3.2-5.5426" stroke-width="1.5"/><path d="m350 330h6.4" stroke-width="1.5"/><path d="m350 330 3.2 5.5426" stroke-width="1.5"/><path d="m350 330-3.2 5.5426" stroke-width="1.5"/><path d="m350 330h-6.4" stroke-width="1.5"/><path d="m350 330-3.2-5.5426" stroke-width="1.5"/><path d="m350 330 3.2-5.5426" stroke-width="1.5"/><path d="m370 330h6.4" stroke-width="1.5"/><path d="m370 330 3.2 5.5426" stroke-width="1.5"/><path d="m370 330-3.2 5.5426" stroke-width="1.5"/><path d="m370 330h-6.4" stroke-width="1.5"/><path d="m370 330-3.2-5.5426" stroke-width="1.5"/><path d="m370 330 3.2-5.5426" stroke-width="1.5"/><path d="m390 330h6.4" stroke-width="1.5"/><path d="m390 330 3.2 5.5426" stroke-width="1.5"/><path d="m390 330-3.2 5.5426" stroke-width="1.5"/><path d="m390 330h-6.4" stroke-width="1.5"/><path d="m390 330-3.2-5.5426" stroke-width="1.5"/><path d="m390 330 3.2-5.5426" stroke-width="1.5"/><path d="m410 323.6 6.4 6.4-6.4 6.4-6.4-6.4z"/><path d="m90 343.6 6.4 6.4-6.4 6.4-6.4-6.4z"/><path d="m110 343.6 6.4 6.4-6.4 6.4-6.4-6.4z"/><path d="m130 350h6.4" stroke-width="1.5"/><path d="m130 350 3.2 5.5426" stroke-width="1.5"/><path d="m130 350-3.2 5.5426" stroke-width="1.5"/><path d="m130 350h-6.4" stroke-width="1.5"/><path d="m130 350-3.2-5.5426" stroke-width="1.5"/><path d="m130 350 3.2-5.5426" stroke-width="1.5"/><path d="m150 350h6.4" stroke-width="1.5"/><path d="m150 350 3.2 5.5426" stroke-width="1.5"/><path d="m150 350-3.2 5.5426" stroke-width="1.5"/><path d="m150 350h-6.4" stroke-width="1.5"/><path d="m150 350-3.2-5.5426" stroke-width="1.5"/><path d="m150 350 3.2-5.5426" stroke-width="1.5"/><path d="m170 350h6.4" stroke-width="1.5"/><path d="m170 350 3.2 5.5426" stroke-width="1.5"/><path d="m170 350-3.2 5.5426" stroke-width="1.5"/><path d="m170 350h-6.4" stroke-width="1.5"/><path d="m170 350-3.2-5.5426" stroke-width="1.5"/><path d="m170 350 3.2-5.5426" stroke-width="1.5"/><path d="m190 350h6.4" stroke-width="1.5"/><path d="m190 350 3.2 5.5426" stroke-width="1.5"/><path d="m190 350-3.2 5.5426" stroke-width="1.5"/><path d="m190 350h-6.4" stroke-width="1.5"/><path d="m190 350-3.2-5.5426" stroke-width="1.5"/><path d="m190 350 3.2-5.5426" stroke-width="1.5"/><path d="m210 350h6.4" stroke-width="1.5"/><path d="m210 350 3.2 5.5426" stroke-width="1.5"/><path d="m210 350-3.2 5.5426" stroke-width="1.5"/><path d="m210 350h-6.4" stroke-width="1.5"/><path d="m210 350-3.2-5.5426" stroke-width="1.5"/><path d="m210 350 3.2-5.5426" stroke-width="1.5"/><path d="m230 350h6.4" stroke-width="1.5"/><path d="m230 350 3.2 5.5426" stroke-width="1.5"/><path d="m230 350-3.2 5.5426" stroke-width="1.5"/><path d="m230 350h-6.4" stroke-width="1.5"/><path d="m230 350-3.2-5.5426" stroke-width="1.5"/><path d="m230 350 3.2-5.5426" stroke-width="1.5"/><path d="m250 350h6.4" stroke-width="1.5"/><path d="m250 350 3.2 5.5426" stroke-width="1.5"/><path d="m250 350-3.2 5.5426" stroke-width="1.5"/><path d="m250 350h-6.4" stroke-width="1.5"/><path d="m250 350-3.2-5.5426" stroke-width="1.5"/><path d="m250 350 3.2-5.5426" stroke-width="1.5"/><path d="m270 350h6.4" stroke-width="1.5"/><path d="m270 350 3.2 5.5426" stroke-width="1.5"/><path d="m270 350-3.2 5.5426" stroke-width="1.5"/><path d="m270 350h-6.4" stroke-width="1.5"/><path d="m270 350-3.2-5.5426" stroke-width="1.5"/><path d="m270 350 3.2-5.5426" stroke-width="1.5"/><path d="m290 350h6.4" stroke-width="1.5"/><path d="m290 350 3.2 5.5426" stroke-width="1.5"/><path d="m290 350-3.2 5.5426" stroke-width="1.5"/><path d="m290 350h-6.4" stroke-width="1.5"/><path d="m290 350-3.2-5.5426" stroke-width="1.5"/><path d="m290 350 3.2-5.5426" stroke-width="1.5"/><path d="m310 350h6.4" stroke-width="1.5"/><path d="m310 350 3.2 5.5426" stroke-width="1.5"/><path d="m310 350-3.2 5.5426" stroke-width="1.5"/><path d="m310 350h-6.4" stroke-width="1.5"/><path d="m310 350-3.2-5.5426" stroke-width="1.5"/><path d="m310 350 3.2-5.5426" stroke-width="1.5"/><path d="m330 350h6.4" stroke-width="1.5"/><path d="m330 350 3.2 5.5426" stroke-width="1.5"/><path d="m330 350-3.2 5.5426" stroke-width="1.5"/><path d="m330 350h-6.4" stroke-width="1.5"/><path d="m330 350-3.2-5.5426" stroke-width="1.5"/><path d="m330 350 3.2-5.5426" stroke-width="1.5"/><path d="m350 350h6.4" stroke-width="1.5"/><path d="m350 350 3.2 5.5426" stroke-width="1.5"/><path d="m350 350-3.2 5.5426" stroke-width="1.5"/><path d="m350 350h-6.4" stroke-width="1.5"/><path d="m350 350-3.2-5.5426" stroke-width="1.5"/><path d="m350 350 3.2-5.5426" stroke-width="1.5"/><path d="m370 343.6 6.4 6.4-6.4 6.4-6.4-6.4z"/><path d="m390 343.6 6.4 6.4-6.4 6.4-6.4-6.4z"/><path d="m130 363.6 6.4 6.4-6.4 6.4-6.4-6.4z"/><path d="m150 363.6 6.4 6.4-6.4 6.4-6.4-6.4z"/><path d="m170 363.6 6.4 6.4-6.4 6.4-6.4-6.4z"/><path d="m190 370h6.4" stroke-width="1.5"/><path d="m190 370 3.2 5.5426" stroke-width="1.5"/><path d="m190 370-3.2 5.5426" stroke-width="1.5"/><path d="m190 370h-6.4" stroke-width="1.5"/><path d="m190 370-3.2-5.5426" stroke-width="1.5"/><path d="m190 370 3.2-5.5426" stroke-width="1.5"/><path d="m210 370h6.4" stroke-width="1.5"/><path d="m210 370 3.2 5.5426" stroke-width="1.5"/><path d="m210 370-3.2 5.5426" stroke-width="1.5"/><path d="m210 370h-6.4" stroke-width="1.5"/><path d="m210 370-3.2-5.5426" stroke-width="1.5"/><path d="m210 370 3.2-5.5426" stroke-width="1.5"/><path d="m230 370h6.4" stroke-width="1.5"/><path d="m230 370 3.2 5.5426" stroke-width="1.5"/><path d="m230 370-3.2 5.5426" stroke-width="1.5"/><path d="m230 370h-6.4" stroke-width="1.5"/><path d="m230 370-3.2-5.5426" stroke-width="1.5"/><path d="m230 370 3.2-5.5426" stroke-width="1.5"/><path d="m250 370h6.4" stroke-width="1.5"/><path d="m250 370 3.2 5.5426" stroke-width="1.5"/><path d="m250 370-3.2 5.5426" stroke-width="1.5"/><path d="m250 370h-6.4" stroke-width="1.5"/><path d="m250 370-3.2-5.5426" stroke-width="1.5"/><path d="m250 370 3.2-5.5426" stroke-width="1.5"/><path d="m270 370h6.4" stroke-width="1.5"/><path d="m270 370 3.2 5.5426" stroke-width="1.5"/><path d="m270 370-3.2 5.5426" stroke-width="1.5"/><path d="m270 370h-6.4" stroke-width="1.5"/><path d="m270 370-3.2-5.5426" stroke-width="1.5"/><path d="m270 370 3.2-5.5426" stroke-width="1.5"/><path d="m290 370h6.4" stroke-width="1.5"/><path d="m290 370 3.2 5.5426" stroke-width="1.5"/><path d="m290 370-3.2 5.5426" stroke-width="1.5"/><path d="m290 370h-6.4" stroke-width="1.5"/><path d="m290 370-3.2-5.5426" stroke-width="1.5"/><path d="m290 370 3.2-5.5426" stroke-width="1.5"/><path d="m310 363.6 6.4 6.4-6.4 6.4-6.4-6.4z"/><path d="m330 363.6 6.4 6.4-6.4 6.4-6.4-6.4z"/><path d="m350 363.6 6.4 6.4-6.4 6.4-6.4-6.4z"/><path d="m190 383.6 6.4 6.4-6.4 6.4-6.4-6.4z"/><path d="m210 383.6 6.4 6.4-6.4 6.4-6.4-6.4z"/><path d="m230 383.6 6.4 6.4-6.4 6.4-6.4-6.4z"/><path d="m250 383.6 6.4 6.4-6.4 6.4-6.4-6.4z"/><path d="m270 383.6 6.4 6.4-6.4 6.4-6.4-6.4z"/><path d="m290 383.6 6.4 6.4-6.4 6.4-6.4-6.4z"/><path d="m0 0v480" stroke="#b4b4b4"/><path d="m20 0v480" stroke="#b4b4b4" stroke-width="1"/><path d="m40 0v480" stroke="#b4b4b4" stroke-width="1"/><path d="m60 0v480" stroke="#b4b4b4" stroke-width="1"/><path d="m80 0v480" stroke="#b4b4b4" stroke-width="1"/><path d="m100 0v480" stroke="#b4b4b4" stroke-width="1"/><path d="m120 0v480" stroke="#b4b4b4" stroke-width="1"/><path d="m140 0v480" stroke="#b4b4b4" stroke-width="1"/><path d="m160 0v480" stroke="#b4b4b4" stroke-width="1"/><path d="m180 0v480" stroke="#b4b4b4" stroke-width="1"/><path d="m200 0v480" stroke="#b4b4b4" stroke-width="1"/><path d="m220 0v480" stroke="#b4b4b4" stroke-width="1"/><path d="m240 0v480" stroke="#b4b4b4" stroke-width="1"/><path d="m260 0v480" stroke="#b4b4b4" stroke-width="1"/><path d="m280 0v480" stroke="#b4b4b4" stroke-width="1"/><path d="m300 0v480" stroke="#b4b4b4" stroke-width="1"/><path d="m320 0v480" stroke="#b4b4b4" stroke-width="1"/><path d="m340 0v480" stroke="#b4b4b4" stroke-width="1"/><path d="m360 0v480" stroke="#b4b4b4" stroke-width="1"/><path d="m380 0v480" stroke="#b4b4b4" stroke-width="1"/><path d="m400 0v480" stroke="#b4b4b4" stroke-width="1"/><path d="m420 0v480" stroke="#b4b4b4" stroke-width="1"/><path d="m440 0v480" stroke="#b4b4b4" stroke-width="1"/><path d="m460 0v480" stroke="#b4b4b4" stroke-width="1"/><path d="m480 0v480" stroke="#b4b4b4"/><path d="m0 0h480" stroke="#b4b4b4"/><path d="m0 20h480" stroke="#b4b4b4" stroke-width="1"/><path d="m0 40h480" stroke="#b4b4b4" stroke-width="1"/><path d="m0 60h480" stroke="#b4b4b4" stroke-width="1"/><path d="m0 80h480" stroke="#b4b4b4" stroke-width="1"/><path d="m0 100h480" stroke="#b4b4b4" stroke-width="1"/><path d="m0 120h480" stroke="#b4b4b4" stroke-width="1"/><path d="m0 140h480" stroke="#b4b4b4" stroke-width="1"/><path d="m0 160h480" stroke="#b4b4b4" stroke-width="1"/><path d="m0 180h480" stroke="#b4b4b4" stroke-width="1"/><path d="m0 200h480" stroke="#b4b4b4" stroke-width="1"/><path d="m0 220h480" stroke="#b4b4b4" stroke-width="1"/><path d="m0 240h480" stroke="#b4b4b4" stroke-width="1"/><path d="m0 260h480" stroke="#b4b4b4" stroke-width="1"/><path d="m0 280h480" stroke="#b4b4b4" stroke-width="1"/><path d="m0 300h480" stroke="#b4b4b4" stroke-width="1"/><path d="m0 320h480" stroke="#b4b4b4" stroke-width="1"/><path d="m0 340h480" stroke="#b4b4b4" stroke-width="1"/><path d="m0 360h480" stroke="#b4b4b4" stroke-width="1"/><path d="m0 380h480" stroke="#b4b4b4" stroke-width="1"/><path d="m0 400h480" stroke="#b4b4b4" stroke-width="1"/><path d="m0 420h480" stroke="#b4b4b4" stroke-width="1"/><path d="m0 440h480" stroke="#b4b4b4" stroke-width="1"/><path d="m0 460h480" stroke="#b4b4b4" stroke-width="1"/><path d="m0 480h480" stroke="#b4b4b4"/></g></g></g></svg>