<svg color-interpolation="auto" height="480" stroke="#000" stroke-linecap="square" stroke-miterlimit="10" width="480" xmlns="http://www.w3.org/2000/svg"><g stroke-linecap="round"><path d="m190 125.6574-4.8 8.3139h9.6z" fill="none" stroke-width="2"/><g><path d="m210 125.6574-4.8 8.3139h9.6z" stroke="none"/><circle cx="230" cy="130" r="4.8" stroke="none"/><circle cx="250" cy="130" r="4.8" stroke="none"/><path d="m270 125.6574-4.8 8.3139h9.6z" fill="none" stroke-width="2"/><path d="m150 145.6574-4.8 8.3139h9.6z" fill="none" stroke-width="2"/><path d="m170 145.6574-4.8 8.3139h9.6z" fill="none" stroke-width="2"/><path d="m190 145.6574-4.8 8.3139h9.6z" stroke="none"/><path d="m210 145.2 1.4107 2.8584 3.1544.4583-2.2826 2.2249.5389 3.1417-2.8214-1.4833-2.8214 1.4833.5389-3.1417-2.2826-2.2249 3.1544-.4583z" stroke="none"/><path d="m230 145.6574-4.8 8.3139h9.6z" stroke="none"/><circle cx="250" cy="150" r="4.8" stroke="none"/><circle cx="270" cy="150" r="4.8" stroke="none"/><path d="m290 145.6574-4.8 8.3139h9.6z" fill="none" stroke-width="2"/><path d="m310 145.6574-4.8 8.3139h9.6z" fill="none" stroke-width="2"/><path d="m106.4 170h7.2" fill="none" stroke-width="2"/><path d="m110 166.4v7.2" fill="none" stroke-width="2"/><path d="m130 165.6574-4.8 8.3139h9.6z" fill="none" stroke-width="2"/><path d="m150 165.6574-4.8 8.3139h9.6z" fill="none" stroke-width="2"/><path d="m170 165.6574-4.8 8.3139h9.6z" stroke="none"/><path d="m190 165.2 1.4107 2.8584 3.1544.4583-2.2826 2.2249.5389 3.1417-2.8214-1.4833-2.8214 1.4833.5389-3.1417-2.2826-2.2249 3.1544-.4583z" stroke="none"/><path d="m210 165.6574-4.8 8.3139h9.6z" stroke="none"/><path d="m230 165.2 1.4107 2.8584 3.1544.4583-2.2826 2.2249.5389 3.1417-2.8214-1.4833-2.8214 1.4833.5389-3.1417-2.2826-2.2249 3.1544-.4583z" stroke="none"/><circle cx="250" cy="170" r="4.8" stroke="none"/><circle cx="270" cy="170" r="4.8" stroke="none"/><path d="m290 165.6574-4.8 8.3139h9.6z" fill="none" stroke-width="2"/><path d="m310 165.6574-4.8 8.3139h9.6z" fill="none" stroke-width="2"/><path d="m330 165.6574-4.8 8.3139h9.6z" fill="none" stroke-width="2"/><path d="m350 165.2 4.8 4.8-4.8 4.8-4.8-4.8z" stroke="none"/><path d="m370 165.2 4.8 4.8-4.8 4.8-4.8-4.8z" stroke="none"/><path d="m66.4 190h7.2" fill="none" stroke-width="2"/><path d="m70 186.4v7.2" fill="none" stroke-width="2"/><path d="m86.4 190h7.2" fill="none" stroke-width="2"/><path d="m90 186.4v7.2" fill="none" stroke-width="2"/><path d="m110 190h4.8" fill="none" stroke-width="1.5"/><path d="m110 190 2.4 4.1569" fill="none" stroke-width="1.5"/><path d="m110 190-2.4 4.1569" fill="none" stroke-width="1.5"/><path d="m110 190h-4.8" fill="none" stroke-width="1.5"/><path d="m110 190-2.4-4.1569" fill="none" stroke-width="1.5"/><path d="m110 190 2.4-4.1569" fill="none" stroke-width="1.5"/><path d="m130 185.6574-4.8 8.3139h9.6z" fill="none" stroke-width="2"/><path d="m150 185.6574-4.8 8.3139h9.6z" fill="none" stroke-width="2"/><path d="m165.2 185.2h9.6v9.6h-9.6z" fill="none" stroke-width="2"/><path d="m190 185.6574-4.8 8.3139h9.6z" stroke="none"/><path d="m210 185.2 1.4107 2.8584 3.1544.4583-2.2826 2.2249.5389 3.1417-2.8214-1.4833-2.8214 1.4833.5389-3.1417-2.2826-2.2249 3.1544-.4583z" stroke="none"/><path d="m225.2 185.2h9.6v9.6h-9.6z" fill="none" stroke-width="2"/><path d="m245.2 185.2h9.6v9.6h-9.6z" fill="none" stroke-width="2"/><path d="m265.2 185.2h9.6v9.6h-9.6z" fill="none" stroke-width="2"/><path d="m290 185.6574-4.8 8.3139h9.6z" fill="none" stroke-width="2"/><path d="m310 185.6574-4.8 8.3139h9.6z" fill="none" stroke-width="2"/><path d="m330 185.6574-4.8 8.3139h9.6z" fill="none" stroke-width="2"/><path d="m350 185.2 4.8 4.8-4.8 4.8-4.8-4.8z" stroke="none"/><path d="m370 185.2 4.8 4.8-4.8 4.8-4.8-4.8z" stroke="none"/><path d="m390 185.2 4.8 4.8-4.8 4.8-4.8-4.8z" stroke="none"/><path d="m406.4 190h7.2" fill="none" stroke-width="2"/><path d="m410 186.4v7.2" fill="none" stroke-width="2"/><path d="m46.4 210h7.2" fill="none" stroke-width="2"/><path d="m50 206.4v7.2" fill="none" stroke-width="2"/><path d="m70 210h4.8" fill="none" stroke-width="1.5"/><path d="m70 210 2.4 4.1569" fill="none" stroke-width="1.5"/><path d="m70 210-2.4 4.1569" fill="none" stroke-width="1.5"/><path d="m70 210h-4.8" fill="none" stroke-width="1.5"/><path d="m70 210-2.4-4.1569" fill="none" stroke-width="1.5"/><path d="m70 210 2.4-4.1569" fill="none" stroke-width="1.5"/><path d="m90 210h4.8" fill="none" stroke-width="1.5"/><path d="m90 210 2.4 4.1569" fill="none" stroke-width="1.5"/><path d="m90 210-2.4 4.1569" fill="none" stroke-width="1.5"/><path d="m90 210h-4.8" fill="none" stroke-width="1.5"/><path d="m90 210-2.4-4.1569" fill="none" stroke-width="1.5"/><path d="m90 210 2.4-4.1569" fill="none" stroke-width="1.5"/><path d="m110 205.6574-4.8 8.3139h9.6z" fill="none" stroke-width="2"/><path d="m130 205.6574-4.8 8.3139h9.6z" fill="none" stroke-width="2"/><path d="m145.2 205.2h9.6v9.6h-9.6z" stroke="none"/><path d="m165.2 205.2h9.6v9.6h-9.6z" stroke="none"/><path d="m185.2 205.2h9.6v9.6h-9.6z" fill="none" stroke-width="2"/><path d="m205.2 205.2h9.6v9.6h-9.6z" fill="none" stroke-width="2"/><path d="m225.2 205.2h9.6v9.6h-9.6z" fill="none" stroke-width="2"/><path d="m250 205.6574-4.8 8.3139h9.6z" fill="none" stroke-width="2"/><path d="m270 205.6574-4.8 8.3139h9.6z" fill="none" stroke-width="2"/><path d="m285.2 205.2h9.6v9.6h-9.6z" stroke="none"/><path d="m305.2 205.2h9.6v9.6h-9.6z" stroke="none"/><path d="m330 205.6574-4.8 8.3139h9.6z" fill="none" stroke-width="2"/><path d="m350 205.6574-4.8 8.3139h9.6z" fill="none" stroke-width="2"/><path d="m370 205.2 4.8 4.8-4.8 4.8-4.8-4.8z" stroke="none"/><path d="m390 205.2 4.8 4.8-4.8 4.8-4.8-4.8z" stroke="none"/><path d="m410 210h4.8" fill="none" stroke-width="1.5"/><path d="m410 210 2.4 4.1569" fill="none" stroke-width="1.5"/><path d="m410 210-2.4 4.1569" fill="none" stroke-width="1.5"/><path d="m410 210h-4.8" fill="none" stroke-width="1.5"/><path d="m410 210-2.4-4.1569" fill="none" stroke-width="1.5"/><path d="m410 210 2.4-4.1569" fill="none" stroke-width="1.5"/><path d="m426.4 210h7.2" fill="none" stroke-width="2"/><path d="m430 206.4v7.2" fill="none" stroke-width="2"/><path d="m26.4 230h7.2" fill="none" stroke-width="2"/><path d="m30 226.4v7.2" fill="none" stroke-width="2"/><path d="m50 230h4.8" fill="none" stroke-width="1.5"/><path d="m50 230 2.4 4.1569" fill="none" stroke-width="1.5"/><path d="m50 230-2.4 4.1569" fill="none" stroke-width="1.5"/><path d="m50 230h-4.8" fill="none" stroke-width="1.5"/><path d="m50 230-2.4-4.1569" fill="none" stroke-width="1.5"/><path d="m50 230 2.4-4.1569" fill="none" stroke-width="1.5"/><path d="m70 230h4.8" fill="none" stroke-width="1.5"/><path d="m70 230 2.4 4.1569" fill="none" stroke-width="1.5"/><path d="m70 230-2.4 4.1569" fill="none" stroke-width="1.5"/><path d="m70 230h-4.8" fill="none" stroke-width="1.5"/><path d="m70 230-2.4-4.1569" fill="none" stroke-width="1.5"/><path d="m70 230 2.4-4.1569" fill="none" stroke-width="1.5"/><path d="m90 230h4.8" fill="none" stroke-width="1.5"/><path d="m90 230 2.4 4.1569" fill="none" stroke-width="1.5"/><path d="m90 230-2.4 4.1569" fill="none" stroke-width="1.5"/><path d="m90 230h-4.8" fill="none" stroke-width="1.5"/><path d="m90 230-2.4-4.1569" fill="none" stroke-width="1.5"/><path d="m90 230 2.4-4.1569" fill="none" stroke-width="1.5"/><path d="m110 225.6574-4.8 8.3139h9.6z" fill="none" stroke-width="2"/><path d="m130 225.6574-4.8 8.3139h9.6z" fill="none" stroke-width="2"/><path d="m150 225.6574-4.8 8.3139h9.6z" fill="none" stroke-width="2"/><path d="m170 225.6574-4.8 8.3139h9.6z" fill="none" stroke-width="2"/><path d="m185.2 225.2h9.6v9.6h-9.6z" stroke="none"/><path d="m205.2 225.2h9.6v9.6h-9.6z" fill="none" stroke-width="2"/><path d="m230 225.6574-4.8 8.3139h9.6z" fill="none" stroke-width="2"/><path d="m245.2 225.2h9.6v9.6h-9.6z" stroke="none"/><path d="m265.2 225.2h9.6v9.6h-9.6z" stroke="none"/><path d="m290 225.6574-4.8 8.3139h9.6z" fill="none" stroke-width="2"/><path d="m310 225.6574-4.8 8.3139h9.6z" fill="none" stroke-width="2"/><path d="m330 225.6574-4.8 8.3139h9.6z" fill="none" stroke-width="2"/><path d="m350 225.6574-4.8 8.3139h9.6z" fill="none" stroke-width="2"/><path d="m370 225.2 4.8 4.8-4.8 4.8-4.8-4.8z" stroke="none"/><path d="m390 225.2 4.8 4.8-4.8 4.8-4.8-4.8z" stroke="none"/><path d="m410 230h4.8" fill="none" stroke-width="1.5"/><path d="m410 230 2.4 4.1569" fill="none" stroke-width="1.5"/><path d="m410 230-2.4 4.1569" fill="none" stroke-width="1.5"/><path d="m410 230h-4.8" fill="none" stroke-width="1.5"/><path d="m410 230-2.4-4.1569" fill="none" stroke-width="1.5"/><path d="m410 230 2.4-4.1569" fill="none" stroke-width="1.5"/><path d="m430 230h4.8" fill="none" stroke-width="1.5"/><path d="m430 230 2.4 4.1569" fill="none" stroke-width="1.5"/><path d="m430 230-2.4 4.1569" fill="none" stroke-width="1.5"/><path d="m430 230h-4.8" fill="none" stroke-width="1.5"/><path d="m430 230-2.4-4.1569" fill="none" stroke-width="1.5"/><path d="m430 230 2.4-4.1569" fill="none" stroke-width="1.5"/><path d="m446.4 230h7.2" fill="none" stroke-width="2"/><path d="m450 226.4v7.2" fill="none" stroke-width="2"/><path d="m26.4 250h7.2" fill="none" stroke-width="2"/><path d="m30 246.4v7.2" fill="none" stroke-width="2"/><path d="m50 250h4.8" fill="none" stroke-width="1.5"/><path d="m50 250 2.4 4.1569" fill="none" stroke-width="1.5"/><path d="m50 250-2.4 4.1569" fill="none" stroke-width="1.5"/><path d="m50 250h-4.8" fill="none" stroke-width="1.5"/><path d="m50 250-2.4-4.1569" fill="none" stroke-width="1.5"/><path d="m50 250 2.4-4.1569" fill="none" stroke-width="1.5"/><path d="m70 250h4.8" fill="none" stroke-width="1.5"/><path d="m70 250 2.4 4.1569" fill="none" stroke-width="1.5"/><path d="m70 250-2.4 4.1569" fill="none" stroke-width="1.5"/><path d="m70 250h-4.8" fill="none" stroke-width="1.5"/><path d="m70 250-2.4-4.1569" fill="none" stroke-width="1.5"/><path d="m70 250 2.4-4.1569" fill="none" stroke-width="1.5"/><path d="m90 250h4.8" fill="none" stroke-width="1.5"/><path d="m90 250 2.4 4.1569" fill="none" stroke-width="1.5"/><path d="m90 250-2.4 4.1569" fill="none" stroke-width="1.5"/><path d="m90 250h-4.8" fill="none" stroke-width="1.5"/><path d="m90 250-2.4-4.1569" fill="none" stroke-width="1.5"/><path d="m90 250 2.4-4.1569" fill="none" stroke-width="1.5"/><path d="m110 245.6574-4.8 8.3139h9.6z" fill="none" stroke-width="2"/><path d="m130 245.6574-4.8 8.3139h9.6z" fill="none" stroke-width="2"/><path d="m150 245.6574-4.8 8.3139h9.6z" fill="none" stroke-width="2"/><path d="m170 245.6574-4.8 8.3139h9.6z" fill="none" stroke-width="2"/><path d="m185.2 245.2h9.6v9.6h-9.6z" fill="none" stroke-width="2"/><path d="m210 245.6574-4.8 8.3139h9.6z" fill="none" stroke-width="2"/><path d="m225.2 245.2h9.6v9.6h-9.6z" stroke="none"/><path d="m250 245.6574-4.8 8.3139h9.6z" fill="none" stroke-width="2"/><path d="m270 245.6574-4.8 8.3139h9.6z" fill="none" stroke-width="2"/><path d="m290 245.6574-4.8 8.3139h9.6z" fill="none" stroke-width="2"/><path d="m310 245.6574-4.8 8.3139h9.6z" fill="none" stroke-width="2"/><path d="m330 245.6574-4.8 8.3139h9.6z" fill="none" stroke-width="2"/><path d="m350 245.6574-4.8 8.3139h9.6z" fill="none" stroke-width="2"/><path d="m370 245.2 4.8 4.8-4.8 4.8-4.8-4.8z" stroke="none"/><path d="m390 250h4.8" fill="none" stroke-width="1.5"/><path d="m390 250 2.4 4.1569" fill="none" stroke-width="1.5"/><path d="m390 250-2.4 4.1569" fill="none" stroke-width="1.5"/><path d="m390 250h-4.8" fill="none" stroke-width="1.5"/><path d="m390 250-2.4-4.1569" fill="none" stroke-width="1.5"/><path d="m390 250 2.4-4.1569" fill="none" stroke-width="1.5"/><path d="m410 250h4.8" fill="none" stroke-width="1.5"/><path d="m410 250 2.4 4.1569" fill="none" stroke-width="1.5"/><path d="m410 250-2.4 4.1569" fill="none" stroke-width="1.5"/><path d="m410 250h-4.8" fill="none" stroke-width="1.5"/><path d="m410 250-2.4-4.1569" fill="none" stroke-width="1.5"/><path d="m410 250 2.4-4.1569" fill="none" stroke-width="1.5"/><path d="m430 250h4.8" fill="none" stroke-width="1.5"/><path d="m430 250 2.4 4.1569" fill="none" stroke-width="1.5"/><path d="m430 250-2.4 4.1569" fill="none" stroke-width="1.5"/><path d="m430 250h-4.8" fill="none" stroke-width="1.5"/><path d="m430 250-2.4-4.1569" fill="none" stroke-width="1.5"/><path d="m430 250 2.4-4.1569" fill="none" stroke-width="1.5"/><path d="m446.4 250h7.2" fill="none" stroke-width="2"/><path d="m450 246.4v7.2" fill="none" stroke-width="2"/><path d="m26.4 270h7.2" fill="none" stroke-width="2"/><path d="m30 266.4v7.2" fill="none" stroke-width="2"/><path d="m50 270h4.8" fill="none" stroke-width="1.5"/><path d="m50 270 2.4 4.1569" fill="none" stroke-width="1.5"/><path d="m50 270-2.4 4.1569" fill="none" stroke-width="1.5"/><path d="m50 270h-4.8" fill="none" stroke-width="1.5"/><path d="m50 270-2.4-4.1569" fill="none" stroke-width="1.5"/><path d="m50 270 2.4-4.1569" fill="none" stroke-width="1.5"/><path d="m70 270h4.8" fill="none" stroke-width="1.5"/><path d="m70 270 2.4 4.1569" fill="none" stroke-width="1.5"/><path d="m70 270-2.4 4.1569" fill="none" stroke-width="1.5"/><path d="m70 270h-4.8" fill="none" stroke-width="1.5"/><path d="m70 270-2.4-4.1569" fill="none" stroke-width="1.5"/><path d="m70 270 2.4-4.1569" fill="none" stroke-width="1.5"/><path d="m90 270h4.8" fill="none" stroke-width="1.5"/><path d="m90 270 2.4 4.1569" fill="none" stroke-width="1.5"/><path d="m90 270-2.4 4.1569" fill="none" stroke-width="1.5"/><path d="m90 270h-4.8" fill="none" stroke-width="1.5"/><path d="m90 270-2.4-4.1569" fill="none" stroke-width="1.5"/><path d="m90 270 2.4-4.1569" fill="none" stroke-width="1.5"/><path d="m105.2 265.2h9.6v9.6h-9.6z" fill="none" stroke-width="2"/><path d="m130 265.6574-4.8 8.3139h9.6z" fill="none" stroke-width="2"/><path d="m150 265.6574-4.8 8.3139h9.6z" fill="none" stroke-width="2"/><path d="m170 265.6574-4.8 8.3139h9.6z" fill="none" stroke-width="2"/><path d="m185.2 265.2h9.6v9.6h-9.6z" fill="none" stroke-width="2"/><path d="m210 265.6574-4.8 8.3139h9.6z" fill="none" stroke-width="2"/><path d="m225.2 265.2h9.6v9.6h-9.6z" stroke="none"/><path d="m250 265.6574-4.8 8.3139h9.6z" fill="none" stroke-width="2"/><path d="m270 265.6574-4.8 8.3139h9.6z" fill="none" stroke-width="2"/><path d="m290 265.6574-4.8 8.3139h9.6z" fill="none" stroke-width="2"/><path d="m310 265.6574-4.8 8.3139h9.6z" fill="none" stroke-width="2"/><path d="m330 265.6574-4.8 8.3139h9.6z" fill="none" stroke-width="2"/><path d="m350 265.2 4.8 4.8-4.8 4.8-4.8-4.8z" stroke="none"/><path d="m370 270h4.8" fill="none" stroke-width="1.5"/><path d="m370 270 2.4 4.1569" fill="none" stroke-width="1.5"/><path d="m370 270-2.4 4.1569" fill="none" stroke-width="1.5"/><path d="m370 270h-4.8" fill="none" stroke-width="1.5"/><path d="m370 270-2.4-4.1569" fill="none" stroke-width="1.5"/><path d="m370 270 2.4-4.1569" fill="none" stroke-width="1.5"/><path d="m390 270h4.8" fill="none" stroke-width="1.5"/><path d="m390 270 2.4 4.1569" fill="none" stroke-width="1.5"/><path d="m390 270-2.4 4.1569" fill="none" stroke-width="1.5"/><path d="m390 270h-4.8" fill="none" stroke-width="1.5"/><path d="m390 270-2.4-4.1569" fill="none" stroke-width="1.5"/><path d="m390 270 2.4-4.1569" fill="none" stroke-width="1.5"/><path d="m410 270h4.8" fill="none" stroke-width="1.5"/><path d="m410 270 2.4 4.1569" fill="none" stroke-width="1.5"/><path d="m410 270-2.4 4.1569" fill="none" stroke-width="1.5"/><path d="m410 270h-4.8" fill="none" stroke-width="1.5"/><path d="m410 270-2.4-4.1569" fill="none" stroke-width="1.5"/><path d="m410 270 2.4-4.1569" fill="none" stroke-width="1.5"/><path d="m430 270h4.8" fill="none" stroke-width="1.5"/><path d="m430 270 2.4 4.1569" fill="none" stroke-width="1.5"/><path d="m430 270-2.4 4.1569" fill="none" stroke-width="1.5"/><path d="m430 270h-4.8" fill="none" stroke-width="1.5"/><path d="m430 270-2.4-4.1569" fill="none" stroke-width="1.5"/><path d="m430 270 2.4-4.1569" fill="none" stroke-width="1.5"/><path d="m446.4 270h7.2" fill="none" stroke-width="2"/><path d="m450 266.4v7.2" fill="none" stroke-width="2"/><path d="m46.4 290h7.2" fill="none" stroke-width="2"/><path d="m50 286.4v7.2" fill="none" stroke-width="2"/><path d="m70 290h4.8" fill="none" stroke-width="1.5"/><path d="m70 290 2.4 4.1569" fill="none" stroke-width="1.5"/><path d="m70 290-2.4 4.1569" fill="none" stroke-width="1.5"/><path d="m70 290h-4.8" fill="none" stroke-width="1.5"/><path d="m70 290-2.4-4.1569" fill="none" stroke-width="1.5"/><path d="m70 290 2.4-4.1569" fill="none" stroke-width="1.5"/><path d="m90 290h4.8" fill="none" stroke-width="1.5"/><path d="m90 290 2.4 4.1569" fill="none" stroke-width="1.5"/><path d="m90 290-2.4 4.1569" fill="none" stroke-width="1.5"/><path d="m90 290h-4.8" fill="none" stroke-width="1.5"/><path d="m90 290-2.4-4.1569" fill="none" stroke-width="1.5"/><path d="m90 290 2.4-4.1569" fill="none" stroke-width="1.5"/><path d="m110 290h4.8" fill="none" stroke-width="1.5"/><path d="m110 290 2.4 4.1569" fill="none" stroke-width="1.5"/><path d="m110 290-2.4 4.1569" fill="none" stroke-width="1.5"/><path d="m110 290h-4.8" fill="none" stroke-width="1.5"/><path d="m110 290-2.4-4.1569" fill="none" stroke-width="1.5"/><path d="m110 290 2.4-4.1569" fill="none" stroke-width="1.5"/><path d="m125.2 285.2h9.6v9.6h-9.6z" fill="none" stroke-width="2"/><path d="m145.2 285.2h9.6v9.6h-9.6z" fill="none" stroke-width="2"/><path d="m165.2 285.2h9.6v9.6h-9.6z" fill="none" stroke-width="2"/><path d="m185.2 285.2h9.6v9.6h-9.6z" fill="none" stroke-width="2"/><path d="m210 285.6574-4.8 8.3139h9.6z" fill="none" stroke-width="2"/><path d="m225.2 285.2h9.6v9.6h-9.6z" stroke="none"/><g fill="none"><path d="m250 285.6574-4.8 8.3139h9.6z" stroke-width="2"/><path d="m270 285.6574-4.8 8.3139h9.6z" stroke-width="2"/><path d="m290 285.6574-4.8 8.3139h9.6z" stroke-width="2"/><path d="m310 290h4.8" stroke-width="1.5"/><path d="m310 290 2.4 4.1569" stroke-width="1.5"/><path d="m310 290-2.4 4.1569" stroke-width="1.5"/><path d="m310 290h-4.8" stroke-width="1.5"/><path d="m310 290-2.4-4.1569" stroke-width="1.5"/><path d="m310 290 2.4-4.1569" stroke-width="1.5"/><path d="m330 290h4.8" stroke-width="1.5"/><path d="m330 290 2.4 4.1569" stroke-width="1.5"/><path d="m330 290-2.4 4.1569" stroke-width="1.5"/><path d="m330 290h-4.8" stroke-width="1.5"/><path d="m330 290-2.4-4.1569" stroke-width="1.5"/><path d="m330 290 2.4-4.1569" stroke-width="1.5"/><path d="m350 290h4.8" stroke-width="1.5"/><path d="m350 290 2.4 4.1569" stroke-width="1.5"/><path d="m350 290-2.4 4.1569" stroke-width="1.5"/><path d="m350 290h-4.8" stroke-width="1.5"/><path d="m350 290-2.4-4.1569" stroke-width="1.5"/><path d="m350 290 2.4-4.1569" stroke-width="1.5"/><path d="m370 290h4.8" stroke-width="1.5"/><path d="m370 290 2.4 4.1569" stroke-width="1.5"/><path d="m370 290-2.4 4.1569" stroke-width="1.5"/><path d="m370 290h-4.8" stroke-width="1.5"/><path d="m370 290-2.4-4.1569" stroke-width="1.5"/><path d="m370 290 2.4-4.1569" stroke-width="1.5"/><path d="m390 290h4.8" stroke-width="1.5"/><path d="m390 290 2.4 4.1569" stroke-width="1.5"/><path d="m390 290-2.4 4.1569" stroke-width="1.5"/><path d="m390 290h-4.8" stroke-width="1.5"/><path d="m390 290-2.4-4.1569" stroke-width="1.5"/><path d="m390 290 2.4-4.1569" stroke-width="1.5"/><path d="m410 290h4.8" stroke-width="1.5"/><path d="m410 290 2.4 4.1569" stroke-width="1.5"/><path d="m410 290-2.4 4.1569" stroke-width="1.5"/><path d="m410 290h-4.8" stroke-width="1.5"/><path d="m410 290-2.4-4.1569" stroke-width="1.5"/><path d="m410 290 2.4-4.1569" stroke-width="1.5"/><path d="m426.4 290h7.2" stroke-width="2"/><path d="m430 286.4v7.2" stroke-width="2"/><path d="m46.4 310h7.2" stroke-width="2"/><path d="m50 306.4v7.2" stroke-width="2"/><circle cx="70" cy="310" r="4.8" stroke-width="2"/><circle cx="90" cy="310" r="4.8" stroke-width="2"/><path d="m110 310h4.8" stroke-width="1.5"/><path d="m110 310 2.4 4.1569" stroke-width="1.5"/><path d="m110 310-2.4 4.1569" stroke-width="1.5"/><path d="m110 310h-4.8" stroke-width="1.5"/><path d="m110 310-2.4-4.1569" stroke-width="1.5"/><path d="m110 310 2.4-4.1569" stroke-width="1.5"/><path d="m130 310h4.8" stroke-width="1.5"/><path d="m130 310 2.4 4.1569" stroke-width="1.5"/><path d="m130 310-2.4 4.1569" stroke-width="1.5"/><path d="m130 310h-4.8" stroke-width="1.5"/><path d="m130 310-2.4-4.1569" stroke-width="1.5"/><path d="m130 310 2.4-4.1569" stroke-width="1.5"/><path d="m150 310h4.8" stroke-width="1.5"/><path d="m150 310 2.4 4.1569" stroke-width="1.5"/><path d="m150 310-2.4 4.1569" stroke-width="1.5"/><path d="m150 310h-4.8" stroke-width="1.5"/><path d="m150 310-2.4-4.1569" stroke-width="1.5"/><path d="m150 310 2.4-4.1569" stroke-width="1.5"/><path d="m165.2 305.2h9.6v9.6h-9.6z" stroke-width="2"/><path d="m185.2 305.2h9.6v9.6h-9.6z" stroke-width="2"/><path d="m205.2 305.2h9.6v9.6h-9.6z" stroke-width="2"/><path d="m230 305.6574-4.8 8.3139h9.6z" stroke-width="2"/><path d="m250 305.6574-4.8 8.3139h9.6z" stroke-width="2"/><path d="m265.2 305.2h9.6v9.6h-9.6z" stroke-width="2"/><path d="m285.2 305.2h9.6v9.6h-9.6z" stroke-width="2"/><path d="m310 310h4.8" stroke-width="1.5"/><path d="m310 310 2.4 4.1569" stroke-width="1.5"/><path d="m310 310-2.4 4.1569" stroke-width="1.5"/><path d="m310 310h-4.8" stroke-width="1.5"/><path d="m310 310-2.4-4.1569" stroke-width="1.5"/><path d="m310 310 2.4-4.1569" stroke-width="1.5"/><path d="m330 310h4.8" stroke-width="1.5"/><path d="m330 310 2.4 4.1569" stroke-width="1.5"/><path d="m330 310-2.4 4.1569" stroke-width="1.5"/><path d="m330 310h-4.8" stroke-width="1.5"/><path d="m330 310-2.4-4.1569" stroke-width="1.5"/><path d="m330 310 2.4-4.1569" stroke-width="1.5"/><path d="m350 310h4.8" stroke-width="1.5"/><path d="m350 310 2.4 4.1569" stroke-width="1.5"/><path d="m350 310-2.4 4.1569" stroke-width="1.5"/><path d="m350 310h-4.8" stroke-width="1.5"/><path d="m350 310-2.4-4.1569" stroke-width="1.5"/><path d="m350 310 2.4-4.1569" stroke-width="1.5"/><path d="m370 310h4.8" stroke-width="1.5"/><path d="m370 310 2.4 4.1569" stroke-width="1.5"/><path d="m370 310-2.4 4.1569" stroke-width="1.5"/><path d="m370 310h-4.8" stroke-width="1.5"/><path d="m370 310-2.4-4.1569" stroke-width="1.5"/><path d="m370 310 2.4-4.1569" stroke-width="1.5"/><circle cx="390" cy="310" r="4.8" stroke-width="2"/><circle cx="410" cy="310" r="4.8" stroke-width="2"/><path d="m426.4 310h7.2" stroke-width="2"/><path d="m430 306.4v7.2" stroke-width="2"/><path d="m66.4 330h7.2" stroke-width="2"/><path d="m70 326.4v7.2" stroke-width="2"/><circle cx="90" cy="330" r="4.8" stroke-width="2"/><circle cx="110" cy="330" r="4.8" stroke-width="2"/><circle cx="130" cy="330" r="4.8" stroke-width="2"/><circle cx="150" cy="330" r="4.8" stroke-width="2"/><path d="m170 330h4.8" stroke-width="1.5"/><path d="m170 330 2.4 4.1569" stroke-width="1.5"/><path d="m170 330-2.4 4.1569" stroke-width="1.5"/><path d="m170 330h-4.8" stroke-width="1.5"/><path d="m170 330-2.4-4.1569" stroke-width="1.5"/><path d="m170 330 2.4-4.1569" stroke-width="1.5"/><path d="m190 330h4.8" stroke-width="1.5"/><path d="m190 330 2.4 4.1569" stroke-width="1.5"/><path d="m190 330-2.4 4.1569" stroke-width="1.5"/><path d="m190 330h-4.8" stroke-width="1.5"/><path d="m190 330-2.4-4.1569" stroke-width="1.5"/><path d="m190 330 2.4-4.1569" stroke-width="1.5"/><path d="m210 330h4.8" stroke-width="1.5"/><path d="m210 330 2.4 4.1569" stroke-width="1.5"/><path d="m210 330-2.4 4.1569" stroke-width="1.5"/><path d="m210 330h-4.8" stroke-width="1.5"/><path d="m210 330-2.4-4.1569" stroke-width="1.5"/><path d="m210 330 2.4-4.1569" stroke-width="1.5"/><path d="m225.2 325.2h9.6v9.6h-9.6z" stroke-width="2"/><path d="m245.2 325.2h9.6v9.6h-9.6z" stroke-width="2"/><path d="m270 330h4.8" stroke-width="1.5"/><path d="m270 330 2.4 4.1569" stroke-width="1.5"/><path d="m270 330-2.4 4.1569" stroke-width="1.5"/><path d="m270 330h-4.8" stroke-width="1.5"/><path d="m270 330-2.4-4.1569" stroke-width="1.5"/><path d="m270 330 2.4-4.1569" stroke-width="1.5"/><path d="m290 330h4.8" stroke-width="1.5"/><path d="m290 330 2.4 4.1569" stroke-width="1.5"/><path d="m290 330-2.4 4.1569" stroke-width="1.5"/><path d="m290 330h-4.8" stroke-width="1.5"/><path d="m290 330-2.4-4.1569" stroke-width="1.5"/><path d="m290 330 2.4-4.1569" stroke-width="1.5"/><path d="m310 330h4.8" stroke-width="1.5"/><path d="m310 330 2.4 4.1569" stroke-width="1.5"/><path d="m310 330-2.4 4.1569" stroke-width="1.5"/><path d="m310 330h-4.8" stroke-width="1.5"/><path d="m310 330-2.4-4.1569" stroke-width="1.5"/><path d="m310 330 2.4-4.1569" stroke-width="1.5"/><circle cx="330" cy="330" r="4.8" stroke-width="2"/><circle cx="350" cy="330" r="4.8" stroke-width="2"/><circle cx="370" cy="330" r="4.8" stroke-width="2"/><circle cx="390" cy="330" r="4.8" stroke-width="2"/><path d="m406.4 330h7.2" stroke-width="2"/><path d="m410 326.4v7.2" stroke-width="2"/><path d="m86.4 350h7.2" stroke-width="2"/><path d="m90 346.4v7.2" stroke-width="2"/><path d="m106.4 350h7.2" stroke-width="2"/><path d="m110 346.4v7.2" stroke-width="2"/><circle cx="130" cy="350" r="4.8" stroke-width="2"/><circle cx="150" cy="350" r="4.8" stroke-width="2"/><circle cx="170" cy="350" r="4.8" stroke-width="2"/><circle cx="190" cy="350" r="4.8" stroke-width="2"/><circle cx="210" cy="350" r="4.8" stroke-width="2"/><circle cx="230" cy="350" r="4.8" stroke-width="2"/><circle cx="250" cy="350" r="4.8" stroke-width="2"/><circle cx="270" cy="350" r="4.8" stroke-width="2"/><circle cx="290" cy="350" r="4.8" stroke-width="2"/><circle cx="310" cy="350" r="4.8" stroke-width="2"/><circle cx="330" cy="350" r="4.8" stroke-width="2"/><circle cx="350" cy="350" r="4.8" stroke-width="2"/><path d="m366.4 350h7.2" stroke-width="2"/><path d="m370 346.4v7.2" stroke-width="2"/><path d="m386.4 350h7.2" stroke-width="2"/><path d="m390 346.4v7.2" stroke-width="2"/><path d="m126.4 370h7.2" stroke-width="2"/><path d="m130 366.4v7.2" stroke-width="2"/><path d="m146.4 370h7.2" stroke-width="2"/><path d="m150 366.4v7.2" stroke-width="2"/><path d="m166.4 370h7.2" stroke-width="2"/><path d="m170 366.4v7.2" stroke-width="2"/><circle cx="190" cy="370" r="4.8" stroke-width="2"/><circle cx="210" cy="370" r="4.8" stroke-width="2"/><circle cx="230" cy="370" r="4.8" stroke-width="2"/><circle cx="250" cy="370" r="4.8" stroke-width="2"/><circle cx="270" cy="370" r="4.8" stroke-width="2"/><circle cx="290" cy="370" r="4.8" stroke-width="2"/><path d="m306.4 370h7.2" stroke-width="2"/><path d="m310 366.4v7.2" stroke-width="2"/><path d="m326.4 370h7.2" stroke-width="2"/><path d="m330 366.4v7.2" stroke-width="2"/><path d="m346.4 370h7.2" stroke-width="2"/><path d="m350 366.4v7.2" stroke-width="2"/><path d="m186.4 390h7.2" stroke-width="2"/><path d="m190 386.4v7.2" stroke-width="2"/><path d="m206.4 390h7.2" stroke-width="2"/><path d="m210 386.4v7.2" stroke-width="2"/><path d="m226.4 390h7.2" stroke-width="2"/><path d="m230 386.4v7.2" stroke-width="2"/><path d="m246.4 390h7.2" stroke-width="2"/><path d="m250 386.4v7.2" stroke-width="2"/><path d="m266.4 390h7.2" stroke-width="2"/><path d="m270 386.4v7.2" stroke-width="2"/><path d="m286.4 390h7.2" stroke-width="2"/><path d="m290 386.4v7.2" stroke-width="2"/><path d="m0 0v480" stroke="#b4b4b4" stroke-width="2"/><path d="m20 0v480" stroke="#b4b4b4"/><path d="m40 0v480" stroke="#b4b4b4"/><path d="m60 0v480" stroke="#b4b4b4"/><path d="m80 0v480" stroke="#b4b4b4"/><path d="m100 0v480" stroke="#b4b4b4"/><path d="m120 0v480" stroke="#b4b4b4"/><path d="m140 0v480" stroke="#b4b4b4"/><path d="m160 0v480" stroke="#b4b4b4"/><path d="m180 0v480" stroke="#b4b4b4"/><path d="m200 0v480" stroke="#b4b4b4"/><path d="m220 0v480" stroke="#b4b4b4"/><path d="m240 0v480" stroke="#b4b4b4"/><path d="m260 0v480" stroke="#b4b4b4"/><path d="m280 0v480" stroke="#b4b4b4"/><path d="m300 0v480" stroke="#b4b4b4"/><path d="m320 0v480" stroke="#b4b4b4"/><path d="m340 0v480" stroke="#b4b4b4"/><path d="m360 0v480" stroke="#b4b4b4"/><path d="m380 0v480" stroke="#b4b4b4"/><path d="m400 0v480" stroke="#b4b4b4"/><path d="m420 0v480" stroke="#b4b4b4"/><path d="m440 0v480" stroke="#b4b4b4"/><path d="m460 0v480" stroke="#b4b4b4"/><path d="m480 0v480" stroke="#b4b4b4" stroke-width="2"/><path d="m0 0h480" stroke="#b4b4b4" stroke-width="2"/><path d="m0 20h480" stroke="#b4b4b4"/><path d="m0 40h480" stroke="#b4b4b4"/><path d="m0 60h480" stroke="#b4b4b4"/><path d="m0 80h480" stroke="#b4b4b4"/><path d="m0 100h480" stroke="#b4b4b4"/><path d="m0 120h480" stroke="#b4b4b4"/><path d="m0 140h480" stroke="#b4b4b4"/><path d="m0 160h480" stroke="#b4b4b4"/><path d="m0 180h480" stroke="#b4b4b4"/><path d="m0 200h480" stroke="#b4b4b4"/><path d="m0 220h480" stroke="#b4b4b4"/><path d="m0 240h480" stroke="#b4b4b4"/><path d="m0 260h480" stroke="#b4b4b4"/><path d="m0 280h480" stroke="#b4b4b4"/><path d="m0 300h480" stroke="#b4b4b4"/><path d="m0 320h480" stroke="#b4b4b4"/><path d="m0 340h480" stroke="#b4b4b4"/><path d="m0 360h480" stroke="#b4b4b4"/><path d="m0 380h480" stroke="#b4b4b4"/><path d="m0 400h480" stroke="#b4b4b4"/><path d="m0 420h480" stroke="#b4b4b4"/><path d="m0 440h480" stroke="#b4b4b4"/><path d="m0 460h480" stroke="#b4b4b4"/><path d="m0 480h480" stroke="#b4b4b4" stroke-width="2"/></g></g></g></svg>