<svg width="480" height="480" xmlns="http://www.w3.org/2000/svg">
  <defs>
    <style>
      .pixel { shape-rendering: pixelated; }
    </style>
  </defs>
  <rect x="180" y="60" width="20" height="20" fill="#f77622" stroke="#b4b4b4" class="pixel" />
  <rect x="200" y="60" width="20" height="20" fill="#f77622" stroke="#b4b4b4" class="pixel" />
  <rect x="220" y="60" width="20" height="20" fill="#f77622" stroke="#b4b4b4" class="pixel" />
  <rect x="240" y="60" width="20" height="20" fill="#f77622" stroke="#b4b4b4" class="pixel" />
  <rect x="260" y="60" width="20" height="20" fill="#f77622" stroke="#b4b4b4" class="pixel" />
  <rect x="280" y="60" width="20" height="20" fill="#f77622" stroke="#b4b4b4" class="pixel" />
  <rect x="140" y="80" width="20" height="20" fill="#f77622" stroke="#b4b4b4" class="pixel" />
  <rect x="160" y="80" width="20" height="20" fill="#feae34" stroke="#b4b4b4" class="pixel" />
  <rect x="180" y="80" width="20" height="20" fill="#feae34" stroke="#b4b4b4" class="pixel" />
  <rect x="200" y="80" width="20" height="20" fill="#fee761" stroke="#b4b4b4" class="pixel" />
  <rect x="220" y="80" width="20" height="20" fill="#fee761" stroke="#b4b4b4" class="pixel" />
  <rect x="240" y="80" width="20" height="20" fill="#fee761" stroke="#b4b4b4" class="pixel" />
  <rect x="260" y="80" width="20" height="20" fill="#fee761" stroke="#b4b4b4" class="pixel" />
  <rect x="280" y="80" width="20" height="20" fill="#feae34" stroke="#b4b4b4" class="pixel" />
  <rect x="300" y="80" width="20" height="20" fill="#feae34" stroke="#b4b4b4" class="pixel" />
  <rect x="320" y="80" width="20" height="20" fill="#f77622" stroke="#b4b4b4" class="pixel" />
  <rect x="120" y="100" width="20" height="20" fill="#f77622" stroke="#b4b4b4" class="pixel" />
  <rect x="140" y="100" width="20" height="20" fill="#feae34" stroke="#b4b4b4" class="pixel" />
  <rect x="160" y="100" width="20" height="20" fill="#fee761" stroke="#b4b4b4" class="pixel" />
  <rect x="180" y="100" width="20" height="20" fill="#fee761" stroke="#b4b4b4" class="pixel" />
  <rect x="200" y="100" width="20" height="20" fill="#fee761" stroke="#b4b4b4" class="pixel" />
  <rect x="220" y="100" width="20" height="20" fill="#fee761" stroke="#b4b4b4" class="pixel" />
  <rect x="240" y="100" width="20" height="20" fill="#fee761" stroke="#b4b4b4" class="pixel" />
  <rect x="260" y="100" width="20" height="20" fill="#fee761" stroke="#b4b4b4" class="pixel" />
  <rect x="280" y="100" width="20" height="20" fill="#fee761" stroke="#b4b4b4" class="pixel" />
  <rect x="300" y="100" width="20" height="20" fill="#fee761" stroke="#b4b4b4" class="pixel" />
  <rect x="320" y="100" width="20" height="20" fill="#feae34" stroke="#b4b4b4" class="pixel" />
  <rect x="340" y="100" width="20" height="20" fill="#f77622" stroke="#b4b4b4" class="pixel" />
  <rect x="100" y="120" width="20" height="20" fill="#f77622" stroke="#b4b4b4" class="pixel" />
  <rect x="120" y="120" width="20" height="20" fill="#feae34" stroke="#b4b4b4" class="pixel" />
  <rect x="140" y="120" width="20" height="20" fill="#fee761" stroke="#b4b4b4" class="pixel" />
  <rect x="160" y="120" width="20" height="20" fill="#fee761" stroke="#b4b4b4" class="pixel" />
  <rect x="180" y="120" width="20" height="20" fill="#fee761" stroke="#b4b4b4" class="pixel" />
  <rect x="200" y="120" width="20" height="20" fill="#fee761" stroke="#b4b4b4" class="pixel" />
  <rect x="220" y="120" width="20" height="20" fill="#fee761" stroke="#b4b4b4" class="pixel" />
  <rect x="240" y="120" width="20" height="20" fill="#fee761" stroke="#b4b4b4" class="pixel" />
  <rect x="260" y="120" width="20" height="20" fill="#fee761" stroke="#b4b4b4" class="pixel" />
  <rect x="280" y="120" width="20" height="20" fill="#fee761" stroke="#b4b4b4" class="pixel" />
  <rect x="300" y="120" width="20" height="20" fill="#fee761" stroke="#b4b4b4" class="pixel" />
  <rect x="320" y="120" width="20" height="20" fill="#fee761" stroke="#b4b4b4" class="pixel" />
  <rect x="340" y="120" width="20" height="20" fill="#feae34" stroke="#b4b4b4" class="pixel" />
  <rect x="360" y="120" width="20" height="20" fill="#f77622" stroke="#b4b4b4" class="pixel" />
  <rect x="80" y="140" width="20" height="20" fill="#f77622" stroke="#b4b4b4" class="pixel" />
  <rect x="100" y="140" width="20" height="20" fill="#feae34" stroke="#b4b4b4" class="pixel" />
  <rect x="120" y="140" width="20" height="20" fill="#fee761" stroke="#b4b4b4" class="pixel" />
  <rect x="140" y="140" width="20" height="20" fill="#fee761" stroke="#b4b4b4" class="pixel" />
  <rect x="160" y="140" width="20" height="20" fill="#fee761" stroke="#b4b4b4" class="pixel" />
  <rect x="180" y="140" width="20" height="20" fill="#fee761" stroke="#b4b4b4" class="pixel" />
  <rect x="200" y="140" width="20" height="20" fill="#fee761" stroke="#b4b4b4" class="pixel" />
  <rect x="220" y="140" width="20" height="20" fill="#fee761" stroke="#b4b4b4" class="pixel" />
  <rect x="240" y="140" width="20" height="20" fill="#fee761" stroke="#b4b4b4" class="pixel" />
  <rect x="260" y="140" width="20" height="20" fill="#fee761" stroke="#b4b4b4" class="pixel" />
  <rect x="280" y="140" width="20" height="20" fill="#fee761" stroke="#b4b4b4" class="pixel" />
  <rect x="300" y="140" width="20" height="20" fill="#fee761" stroke="#b4b4b4" class="pixel" />
  <rect x="320" y="140" width="20" height="20" fill="#fee761" stroke="#b4b4b4" class="pixel" />
  <rect x="340" y="140" width="20" height="20" fill="#fee761" stroke="#b4b4b4" class="pixel" />
  <rect x="360" y="140" width="20" height="20" fill="#feae34" stroke="#b4b4b4" class="pixel" />
  <rect x="380" y="140" width="20" height="20" fill="#f77622" stroke="#b4b4b4" class="pixel" />
  <rect x="80" y="160" width="20" height="20" fill="#feae34" stroke="#b4b4b4" class="pixel" />
  <rect x="100" y="160" width="20" height="20" fill="#fee761" stroke="#b4b4b4" class="pixel" />
  <rect x="120" y="160" width="20" height="20" fill="#fee761" stroke="#b4b4b4" class="pixel" />
  <rect x="140" y="160" width="20" height="20" fill="#fee761" stroke="#b4b4b4" class="pixel" />
  <rect x="160" y="160" width="20" height="20" fill="#fee761" stroke="#b4b4b4" class="pixel" />
  <rect x="180" y="160" width="20" height="20" fill="#fee761" stroke="#b4b4b4" class="pixel" />
  <rect x="200" y="160" width="20" height="20" fill="#fee761" stroke="#b4b4b4" class="pixel" />
  <rect x="220" y="160" width="20" height="20" fill="#fee761" stroke="#b4b4b4" class="pixel" />
  <rect x="240" y="160" width="20" height="20" fill="#fee761" stroke="#b4b4b4" class="pixel" />
  <rect x="260" y="160" width="20" height="20" fill="#fee761" stroke="#b4b4b4" class="pixel" />
  <rect x="280" y="160" width="20" height="20" fill="#fee761" stroke="#b4b4b4" class="pixel" />
  <rect x="300" y="160" width="20" height="20" fill="#fee761" stroke="#b4b4b4" class="pixel" />
  <rect x="320" y="160" width="20" height="20" fill="#fee761" stroke="#b4b4b4" class="pixel" />
  <rect x="340" y="160" width="20" height="20" fill="#fee761" stroke="#b4b4b4" class="pixel" />
  <rect x="360" y="160" width="20" height="20" fill="#fee761" stroke="#b4b4b4" class="pixel" />
  <rect x="380" y="160" width="20" height="20" fill="#feae34" stroke="#b4b4b4" class="pixel" />
  <rect x="60" y="180" width="20" height="20" fill="#f77622" stroke="#b4b4b4" class="pixel" />
  <rect x="80" y="180" width="20" height="20" fill="#feae34" stroke="#b4b4b4" class="pixel" />
  <rect x="100" y="180" width="20" height="20" fill="#fee761" stroke="#b4b4b4" class="pixel" />
  <rect x="120" y="180" width="20" height="20" fill="#fee761" stroke="#b4b4b4" class="pixel" />
  <rect x="140" y="180" width="20" height="20" fill="#fee761" stroke="#b4b4b4" class="pixel" />
  <rect x="160" y="180" width="20" height="20" fill="#fee761" stroke="#b4b4b4" class="pixel" />
  <rect x="180" y="180" width="20" height="20" fill="#fee761" stroke="#b4b4b4" class="pixel" />
  <rect x="200" y="180" width="20" height="20" fill="#fee761" stroke="#b4b4b4" class="pixel" />
  <rect x="220" y="180" width="20" height="20" fill="#fee761" stroke="#b4b4b4" class="pixel" />
  <rect x="240" y="180" width="20" height="20" fill="#fee761" stroke="#b4b4b4" class="pixel" />
  <rect x="260" y="180" width="20" height="20" fill="#fee761" stroke="#b4b4b4" class="pixel" />
  <rect x="280" y="180" width="20" height="20" fill="#fee761" stroke="#b4b4b4" class="pixel" />
  <rect x="300" y="180" width="20" height="20" fill="#fee761" stroke="#b4b4b4" class="pixel" />
  <rect x="320" y="180" width="20" height="20" fill="#fee761" stroke="#b4b4b4" class="pixel" />
  <rect x="340" y="180" width="20" height="20" fill="#fee761" stroke="#b4b4b4" class="pixel" />
  <rect x="360" y="180" width="20" height="20" fill="#fee761" stroke="#b4b4b4" class="pixel" />
  <rect x="380" y="180" width="20" height="20" fill="#feae34" stroke="#b4b4b4" class="pixel" />
  <rect x="400" y="180" width="20" height="20" fill="#f77622" stroke="#b4b4b4" class="pixel" />
  <rect x="60" y="200" width="20" height="20" fill="#f77622" stroke="#b4b4b4" class="pixel" />
  <rect x="80" y="200" width="20" height="20" fill="#fee761" stroke="#b4b4b4" class="pixel" />
  <rect x="100" y="200" width="20" height="20" fill="#fee761" stroke="#b4b4b4" class="pixel" />
  <rect x="120" y="200" width="20" height="20" fill="#fee761" stroke="#b4b4b4" class="pixel" />
  <rect x="140" y="200" width="20" height="20" fill="#fee761" stroke="#b4b4b4" class="pixel" />
  <rect x="160" y="200" width="20" height="20" fill="#fee761" stroke="#b4b4b4" class="pixel" />
  <rect x="180" y="200" width="20" height="20" fill="#fee761" stroke="#b4b4b4" class="pixel" />
  <rect x="200" y="200" width="20" height="20" fill="#fee761" stroke="#b4b4b4" class="pixel" />
  <rect x="220" y="200" width="20" height="20" fill="#fee761" stroke="#b4b4b4" class="pixel" />
  <rect x="240" y="200" width="20" height="20" fill="#fee761" stroke="#b4b4b4" class="pixel" />
  <rect x="260" y="200" width="20" height="20" fill="#fee761" stroke="#b4b4b4" class="pixel" />
  <rect x="280" y="200" width="20" height="20" fill="#fee761" stroke="#b4b4b4" class="pixel" />
  <rect x="300" y="200" width="20" height="20" fill="#fee761" stroke="#b4b4b4" class="pixel" />
  <rect x="320" y="200" width="20" height="20" fill="#fee761" stroke="#b4b4b4" class="pixel" />
  <rect x="340" y="200" width="20" height="20" fill="#fee761" stroke="#b4b4b4" class="pixel" />
  <rect x="360" y="200" width="20" height="20" fill="#fee761" stroke="#b4b4b4" class="pixel" />
  <rect x="380" y="200" width="20" height="20" fill="#fee761" stroke="#b4b4b4" class="pixel" />
  <rect x="400" y="200" width="20" height="20" fill="#f77622" stroke="#b4b4b4" class="pixel" />
  <rect x="60" y="220" width="20" height="20" fill="#f77622" stroke="#b4b4b4" class="pixel" />
  <rect x="80" y="220" width="20" height="20" fill="#fee761" stroke="#b4b4b4" class="pixel" />
  <rect x="100" y="220" width="20" height="20" fill="#733e39" stroke="#b4b4b4" class="pixel" />
  <rect x="120" y="220" width="20" height="20" fill="#fee761" stroke="#b4b4b4" class="pixel" />
  <rect x="140" y="220" width="20" height="20" fill="#fee761" stroke="#b4b4b4" class="pixel" />
  <rect x="160" y="220" width="20" height="20" fill="#733e39" stroke="#b4b4b4" class="pixel" />
  <rect x="180" y="220" width="20" height="20" fill="#fee761" stroke="#b4b4b4" class="pixel" />
  <rect x="200" y="220" width="20" height="20" fill="#fee761" stroke="#b4b4b4" class="pixel" />
  <rect x="220" y="220" width="20" height="20" fill="#733e39" stroke="#b4b4b4" class="pixel" />
  <rect x="240" y="220" width="20" height="20" fill="#fee761" stroke="#b4b4b4" class="pixel" />
  <rect x="260" y="220" width="20" height="20" fill="#fee761" stroke="#b4b4b4" class="pixel" />
  <rect x="280" y="220" width="20" height="20" fill="#733e39" stroke="#b4b4b4" class="pixel" />
  <rect x="300" y="220" width="20" height="20" fill="#fee761" stroke="#b4b4b4" class="pixel" />
  <rect x="320" y="220" width="20" height="20" fill="#fee761" stroke="#b4b4b4" class="pixel" />
  <rect x="340" y="220" width="20" height="20" fill="#fee761" stroke="#b4b4b4" class="pixel" />
  <rect x="360" y="220" width="20" height="20" fill="#fee761" stroke="#b4b4b4" class="pixel" />
  <rect x="380" y="220" width="20" height="20" fill="#fee761" stroke="#b4b4b4" class="pixel" />
  <rect x="400" y="220" width="20" height="20" fill="#f77622" stroke="#b4b4b4" class="pixel" />
  <rect x="60" y="240" width="20" height="20" fill="#f77622" stroke="#b4b4b4" class="pixel" />
  <rect x="80" y="240" width="20" height="20" fill="#fee761" stroke="#b4b4b4" class="pixel" />
  <rect x="100" y="240" width="20" height="20" fill="#733e39" stroke="#b4b4b4" class="pixel" />
  <rect x="120" y="240" width="20" height="20" fill="#733e39" stroke="#b4b4b4" class="pixel" />
  <rect x="140" y="240" width="20" height="20" fill="#733e39" stroke="#b4b4b4" class="pixel" />
  <rect x="160" y="240" width="20" height="20" fill="#733e39" stroke="#b4b4b4" class="pixel" />
  <rect x="180" y="240" width="20" height="20" fill="#fee761" stroke="#b4b4b4" class="pixel" />
  <rect x="200" y="240" width="20" height="20" fill="#fee761" stroke="#b4b4b4" class="pixel" />
  <rect x="220" y="240" width="20" height="20" fill="#733e39" stroke="#b4b4b4" class="pixel" />
  <rect x="240" y="240" width="20" height="20" fill="#733e39" stroke="#b4b4b4" class="pixel" />
  <rect x="260" y="240" width="20" height="20" fill="#733e39" stroke="#b4b4b4" class="pixel" />
  <rect x="280" y="240" width="20" height="20" fill="#733e39" stroke="#b4b4b4" class="pixel" />
  <rect x="300" y="240" width="20" height="20" fill="#fee761" stroke="#b4b4b4" class="pixel" />
  <rect x="320" y="240" width="20" height="20" fill="#fee761" stroke="#b4b4b4" class="pixel" />
  <rect x="340" y="240" width="20" height="20" fill="#fee761" stroke="#b4b4b4" class="pixel" />
  <rect x="360" y="240" width="20" height="20" fill="#fee761" stroke="#b4b4b4" class="pixel" />
  <rect x="380" y="240" width="20" height="20" fill="#fee761" stroke="#b4b4b4" class="pixel" />
  <rect x="400" y="240" width="20" height="20" fill="#f77622" stroke="#b4b4b4" class="pixel" />
  <rect x="420" y="240" width="20" height="20" fill="#c0cbdc" stroke="#b4b4b4" class="pixel" />
  <rect x="40" y="260" width="20" height="20" fill="#c0cbdc" stroke="#b4b4b4" class="pixel" />
  <rect x="60" y="260" width="20" height="20" fill="#f77622" stroke="#b4b4b4" class="pixel" />
  <rect x="80" y="260" width="20" height="20" fill="#fee761" stroke="#b4b4b4" class="pixel" />
  <rect x="100" y="260" width="20" height="20" fill="#fee761" stroke="#b4b4b4" class="pixel" />
  <rect x="120" y="260" width="20" height="20" fill="#733e39" stroke="#b4b4b4" class="pixel" />
  <rect x="140" y="260" width="20" height="20" fill="#733e39" stroke="#b4b4b4" class="pixel" />
  <rect x="160" y="260" width="20" height="20" fill="#fee761" stroke="#b4b4b4" class="pixel" />
  <rect x="180" y="260" width="20" height="20" fill="#fee761" stroke="#b4b4b4" class="pixel" />
  <rect x="200" y="260" width="20" height="20" fill="#fee761" stroke="#b4b4b4" class="pixel" />
  <rect x="220" y="260" width="20" height="20" fill="#fee761" stroke="#b4b4b4" class="pixel" />
  <rect x="240" y="260" width="20" height="20" fill="#733e39" stroke="#b4b4b4" class="pixel" />
  <rect x="260" y="260" width="20" height="20" fill="#733e39" stroke="#b4b4b4" class="pixel" />
  <rect x="280" y="260" width="20" height="20" fill="#fee761" stroke="#b4b4b4" class="pixel" />
  <rect x="300" y="260" width="20" height="20" fill="#fee761" stroke="#b4b4b4" class="pixel" />
  <rect x="320" y="260" width="20" height="20" fill="#fee761" stroke="#b4b4b4" class="pixel" />
  <rect x="340" y="260" width="20" height="20" fill="#fee761" stroke="#b4b4b4" class="pixel" />
  <rect x="360" y="260" width="20" height="20" fill="#c0cbdc" stroke="#b4b4b4" class="pixel" />
  <rect x="380" y="260" width="20" height="20" fill="#c0cbdc" stroke="#b4b4b4" class="pixel" />
  <rect x="400" y="260" width="20" height="20" fill="#c0cbdc" stroke="#b4b4b4" class="pixel" />
  <rect x="20" y="280" width="20" height="20" fill="#c0cbdc" stroke="#b4b4b4" class="pixel" />
  <rect x="60" y="280" width="20" height="20" fill="#f77622" stroke="#b4b4b4" class="pixel" />
  <rect x="80" y="280" width="20" height="20" fill="#feae34" stroke="#b4b4b4" class="pixel" />
  <rect x="100" y="280" width="20" height="20" fill="#fee761" stroke="#b4b4b4" class="pixel" />
  <rect x="120" y="280" width="20" height="20" fill="#fee761" stroke="#b4b4b4" class="pixel" />
  <rect x="140" y="280" width="20" height="20" fill="#fee761" stroke="#b4b4b4" class="pixel" />
  <rect x="160" y="280" width="20" height="20" fill="#fee761" stroke="#b4b4b4" class="pixel" />
  <rect x="180" y="280" width="20" height="20" fill="#fee761" stroke="#b4b4b4" class="pixel" />
  <rect x="200" y="280" width="20" height="20" fill="#fee761" stroke="#b4b4b4" class="pixel" />
  <rect x="220" y="280" width="20" height="20" fill="#fee761" stroke="#b4b4b4" class="pixel" />
  <rect x="240" y="280" width="20" height="20" fill="#fee761" stroke="#b4b4b4" class="pixel" />
  <rect x="260" y="280" width="20" height="20" fill="#fee761" stroke="#b4b4b4" class="pixel" />
  <rect x="280" y="280" width="20" height="20" fill="#fee761" stroke="#b4b4b4" class="pixel" />
  <rect x="300" y="280" width="20" height="20" fill="#fee761" stroke="#b4b4b4" class="pixel" />
  <rect x="320" y="280" width="20" height="20" fill="#fee761" stroke="#b4b4b4" class="pixel" />
  <rect x="340" y="280" width="20" height="20" fill="#fee761" stroke="#b4b4b4" class="pixel" />
  <rect x="360" y="280" width="20" height="20" fill="#fee761" stroke="#b4b4b4" class="pixel" />
  <rect x="380" y="280" width="20" height="20" fill="#feae34" stroke="#b4b4b4" class="pixel" />
  <rect x="400" y="280" width="20" height="20" fill="#f77622" stroke="#b4b4b4" class="pixel" />
  <rect x="420" y="280" width="20" height="20" fill="#c0cbdc" stroke="#b4b4b4" class="pixel" />
  <rect x="40" y="300" width="20" height="20" fill="#c0cbdc" stroke="#b4b4b4" class="pixel" />
  <rect x="60" y="300" width="20" height="20" fill="#c0cbdc" stroke="#b4b4b4" class="pixel" />
  <rect x="80" y="300" width="20" height="20" fill="#c0cbdc" stroke="#b4b4b4" class="pixel" />
  <rect x="100" y="300" width="20" height="20" fill="#c0cbdc" stroke="#b4b4b4" class="pixel" />
  <rect x="120" y="300" width="20" height="20" fill="#fee761" stroke="#b4b4b4" class="pixel" />
  <rect x="140" y="300" width="20" height="20" fill="#b86f50" stroke="#b4b4b4" class="pixel" />
  <rect x="160" y="300" width="20" height="20" fill="#733e39" stroke="#b4b4b4" class="pixel" />
  <rect x="180" y="300" width="20" height="20" fill="#733e39" stroke="#b4b4b4" class="pixel" />
  <rect x="200" y="300" width="20" height="20" fill="#733e39" stroke="#b4b4b4" class="pixel" />
  <rect x="220" y="300" width="20" height="20" fill="#733e39" stroke="#b4b4b4" class="pixel" />
  <rect x="240" y="300" width="20" height="20" fill="#b86f50" stroke="#b4b4b4" class="pixel" />
  <rect x="260" y="300" width="20" height="20" fill="#fee761" stroke="#b4b4b4" class="pixel" />
  <rect x="280" y="300" width="20" height="20" fill="#fee761" stroke="#b4b4b4" class="pixel" />
  <rect x="300" y="300" width="20" height="20" fill="#fee761" stroke="#b4b4b4" class="pixel" />
  <rect x="320" y="300" width="20" height="20" fill="#fee761" stroke="#b4b4b4" class="pixel" />
  <rect x="340" y="300" width="20" height="20" fill="#c0cbdc" stroke="#b4b4b4" class="pixel" />
  <rect x="360" y="300" width="20" height="20" fill="#c0cbdc" stroke="#b4b4b4" class="pixel" />
  <rect x="380" y="300" width="20" height="20" fill="#c0cbdc" stroke="#b4b4b4" class="pixel" />
  <rect x="400" y="300" width="20" height="20" fill="#c0cbdc" stroke="#b4b4b4" class="pixel" />
  <rect x="80" y="320" width="20" height="20" fill="#f77622" stroke="#b4b4b4" class="pixel" />
  <rect x="100" y="320" width="20" height="20" fill="#feae34" stroke="#b4b4b4" class="pixel" />
  <rect x="120" y="320" width="20" height="20" fill="#fee761" stroke="#b4b4b4" class="pixel" />
  <rect x="140" y="320" width="20" height="20" fill="#fee761" stroke="#b4b4b4" class="pixel" />
  <rect x="160" y="320" width="20" height="20" fill="#b86f50" stroke="#b4b4b4" class="pixel" />
  <rect x="180" y="320" width="20" height="20" fill="#733e39" stroke="#b4b4b4" class="pixel" />
  <rect x="200" y="320" width="20" height="20" fill="#733e39" stroke="#b4b4b4" class="pixel" />
  <rect x="220" y="320" width="20" height="20" fill="#b86f50" stroke="#b4b4b4" class="pixel" />
  <rect x="240" y="320" width="20" height="20" fill="#fee761" stroke="#b4b4b4" class="pixel" />
  <rect x="260" y="320" width="20" height="20" fill="#fee761" stroke="#b4b4b4" class="pixel" />
  <rect x="280" y="320" width="20" height="20" fill="#fee761" stroke="#b4b4b4" class="pixel" />
  <rect x="300" y="320" width="20" height="20" fill="#fee761" stroke="#b4b4b4" class="pixel" />
  <rect x="320" y="320" width="20" height="20" fill="#fee761" stroke="#b4b4b4" class="pixel" />
  <rect x="340" y="320" width="20" height="20" fill="#fee761" stroke="#b4b4b4" class="pixel" />
  <rect x="360" y="320" width="20" height="20" fill="#feae34" stroke="#b4b4b4" class="pixel" />
  <rect x="380" y="320" width="20" height="20" fill="#f77622" stroke="#b4b4b4" class="pixel" />
  <rect x="100" y="340" width="20" height="20" fill="#f77622" stroke="#b4b4b4" class="pixel" />
  <rect x="120" y="340" width="20" height="20" fill="#feae34" stroke="#b4b4b4" class="pixel" />
  <rect x="140" y="340" width="20" height="20" fill="#fee761" stroke="#b4b4b4" class="pixel" />
  <rect x="160" y="340" width="20" height="20" fill="#fee761" stroke="#b4b4b4" class="pixel" />
  <rect x="180" y="340" width="20" height="20" fill="#fee761" stroke="#b4b4b4" class="pixel" />
  <rect x="200" y="340" width="20" height="20" fill="#fee761" stroke="#b4b4b4" class="pixel" />
  <rect x="220" y="340" width="20" height="20" fill="#fee761" stroke="#b4b4b4" class="pixel" />
  <rect x="240" y="340" width="20" height="20" fill="#fee761" stroke="#b4b4b4" class="pixel" />
  <rect x="260" y="340" width="20" height="20" fill="#fee761" stroke="#b4b4b4" class="pixel" />
  <rect x="280" y="340" width="20" height="20" fill="#fee761" stroke="#b4b4b4" class="pixel" />
  <rect x="300" y="340" width="20" height="20" fill="#fee761" stroke="#b4b4b4" class="pixel" />
  <rect x="320" y="340" width="20" height="20" fill="#fee761" stroke="#b4b4b4" class="pixel" />
  <rect x="340" y="340" width="20" height="20" fill="#feae34" stroke="#b4b4b4" class="pixel" />
  <rect x="360" y="340" width="20" height="20" fill="#f77622" stroke="#b4b4b4" class="pixel" />
  <rect x="120" y="360" width="20" height="20" fill="#f77622" stroke="#b4b4b4" class="pixel" />
  <rect x="140" y="360" width="20" height="20" fill="#feae34" stroke="#b4b4b4" class="pixel" />
  <rect x="160" y="360" width="20" height="20" fill="#fee761" stroke="#b4b4b4" class="pixel" />
  <rect x="180" y="360" width="20" height="20" fill="#fee761" stroke="#b4b4b4" class="pixel" />
  <rect x="200" y="360" width="20" height="20" fill="#fee761" stroke="#b4b4b4" class="pixel" />
  <rect x="220" y="360" width="20" height="20" fill="#fee761" stroke="#b4b4b4" class="pixel" />
  <rect x="240" y="360" width="20" height="20" fill="#fee761" stroke="#b4b4b4" class="pixel" />
  <rect x="260" y="360" width="20" height="20" fill="#fee761" stroke="#b4b4b4" class="pixel" />
  <rect x="280" y="360" width="20" height="20" fill="#fee761" stroke="#b4b4b4" class="pixel" />
  <rect x="300" y="360" width="20" height="20" fill="#fee761" stroke="#b4b4b4" class="pixel" />
  <rect x="320" y="360" width="20" height="20" fill="#feae34" stroke="#b4b4b4" class="pixel" />
  <rect x="340" y="360" width="20" height="20" fill="#f77622" stroke="#b4b4b4" class="pixel" />
  <rect x="140" y="380" width="20" height="20" fill="#f77622" stroke="#b4b4b4" class="pixel" />
  <rect x="160" y="380" width="20" height="20" fill="#feae34" stroke="#b4b4b4" class="pixel" />
  <rect x="180" y="380" width="20" height="20" fill="#feae34" stroke="#b4b4b4" class="pixel" />
  <rect x="200" y="380" width="20" height="20" fill="#fee761" stroke="#b4b4b4" class="pixel" />
  <rect x="220" y="380" width="20" height="20" fill="#fee761" stroke="#b4b4b4" class="pixel" />
  <rect x="240" y="380" width="20" height="20" fill="#fee761" stroke="#b4b4b4" class="pixel" />
  <rect x="260" y="380" width="20" height="20" fill="#fee761" stroke="#b4b4b4" class="pixel" />
  <rect x="280" y="380" width="20" height="20" fill="#feae34" stroke="#b4b4b4" class="pixel" />
  <rect x="300" y="380" width="20" height="20" fill="#feae34" stroke="#b4b4b4" class="pixel" />
  <rect x="320" y="380" width="20" height="20" fill="#f77622" stroke="#b4b4b4" class="pixel" />
  <rect x="180" y="400" width="20" height="20" fill="#f77622" stroke="#b4b4b4" class="pixel" />
  <rect x="200" y="400" width="20" height="20" fill="#f77622" stroke="#b4b4b4" class="pixel" />
  <rect x="220" y="400" width="20" height="20" fill="#f77622" stroke="#b4b4b4" class="pixel" />
  <rect x="240" y="400" width="20" height="20" fill="#f77622" stroke="#b4b4b4" class="pixel" />
  <rect x="260" y="400" width="20" height="20" fill="#f77622" stroke="#b4b4b4" class="pixel" />
  <rect x="280" y="400" width="20" height="20" fill="#f77622" stroke="#b4b4b4" class="pixel" />
</svg>