<svg width="480" height="480" xmlns="http://www.w3.org/2000/svg">
  <defs>
    <style>
      .pixel { shape-rendering: pixelated; }
    </style>
  </defs>
  <rect x="140" y="100" width="20" height="20" fill="#5a5a5a" class="pixel" stroke="#b4b4b4" />
  <rect x="160" y="100" width="20" height="20" fill="#5a5a5a" class="pixel" stroke="#b4b4b4" />
  <rect x="180" y="100" width="20" height="20" fill="#5a5a5a" class="pixel" stroke="#b4b4b4" />
  <rect x="200" y="100" width="20" height="20" fill="#5a5a5a" class="pixel" stroke="#b4b4b4" />
  <rect x="220" y="100" width="20" height="20" fill="#5a5a5a" class="pixel" stroke="#b4b4b4" />
  <rect x="240" y="100" width="20" height="20" fill="#5a5a5a" class="pixel" stroke="#b4b4b4" />
  <rect x="260" y="100" width="20" height="20" fill="#5a5a5a" class="pixel" stroke="#b4b4b4" />
  <rect x="280" y="100" width="20" height="20" fill="#5a5a5a" class="pixel" stroke="#b4b4b4" />
  <rect x="300" y="100" width="20" height="20" fill="#5a5a5a" class="pixel" stroke="#b4b4b4" />
  <rect x="140" y="120" width="20" height="20" fill="#5a5a5a" class="pixel" stroke="#b4b4b4" />
  <rect x="160" y="120" width="20" height="20" fill="#5a5a5a" class="pixel" stroke="#b4b4b4" />
  <rect x="180" y="120" width="20" height="20" fill="#5a5a5a" class="pixel" stroke="#b4b4b4" />
  <rect x="200" y="120" width="20" height="20" fill="#ffffff" class="pixel" stroke="#b4b4b4" />
  <rect x="220" y="120" width="20" height="20" fill="#ffffff" class="pixel" stroke="#b4b4b4" />
  <rect x="240" y="120" width="20" height="20" fill="#ffffff" class="pixel" stroke="#b4b4b4" />
  <rect x="260" y="120" width="20" height="20" fill="#5a5a5a" class="pixel" stroke="#b4b4b4" />
  <rect x="280" y="120" width="20" height="20" fill="#5a5a5a" class="pixel" stroke="#b4b4b4" />
  <rect x="300" y="120" width="20" height="20" fill="#5a5a5a" class="pixel" stroke="#b4b4b4" />
  <rect x="140" y="140" width="20" height="20" fill="#5a5a5a" class="pixel" stroke="#b4b4b4" />
  <rect x="160" y="140" width="20" height="20" fill="#5a5a5a" class="pixel" stroke="#b4b4b4" />
  <rect x="180" y="140" width="20" height="20" fill="#ffffff" class="pixel" stroke="#b4b4b4" />
  <rect x="200" y="140" width="20" height="20" fill="#ffffff" class="pixel" stroke="#b4b4b4" />
  <rect x="220" y="140" width="20" height="20" fill="#ffffff" class="pixel" stroke="#b4b4b4" />
  <rect x="240" y="140" width="20" height="20" fill="#ffffff" class="pixel" stroke="#b4b4b4" />
  <rect x="260" y="140" width="20" height="20" fill="#ffffff" class="pixel" stroke="#b4b4b4" />
  <rect x="280" y="140" width="20" height="20" fill="#5a5a5a" class="pixel" stroke="#b4b4b4" />
  <rect x="300" y="140" width="20" height="20" fill="#5a5a5a" class="pixel" stroke="#b4b4b4" />
  <rect x="140" y="160" width="20" height="20" fill="#5a5a5a" class="pixel" stroke="#b4b4b4" />
  <rect x="160" y="160" width="20" height="20" fill="#ffffff" class="pixel" stroke="#b4b4b4" />
  <rect x="180" y="160" width="20" height="20" fill="#ffffff" class="pixel" stroke="#b4b4b4" />
  <rect x="200" y="160" width="20" height="20" fill="#ffffff" class="pixel" stroke="#b4b4b4" />
  <rect x="220" y="160" width="20" height="20" fill="#ffffff" class="pixel" stroke="#b4b4b4" />
  <rect x="240" y="160" width="20" height="20" fill="#ffffff" class="pixel" stroke="#b4b4b4" />
  <rect x="260" y="160" width="20" height="20" fill="#ffffff" class="pixel" stroke="#b4b4b4" />
  <rect x="280" y="160" width="20" height="20" fill="#ffffff" class="pixel" stroke="#b4b4b4" />
  <rect x="300" y="160" width="20" height="20" fill="#5a5a5a" class="pixel" stroke="#b4b4b4" />
  <rect x="140" y="180" width="20" height="20" fill="#5a5a5a" class="pixel" stroke="#b4b4b4" />
  <rect x="160" y="180" width="20" height="20" fill="#ffffff" class="pixel" stroke="#b4b4b4" />
  <rect x="180" y="180" width="20" height="20" fill="#ffffff" class="pixel" stroke="#b4b4b4" />
  <rect x="200" y="180" width="20" height="20" fill="#ffffff" class="pixel" stroke="#b4b4b4" />
  <rect x="220" y="180" width="20" height="20" fill="#ffffff" class="pixel" stroke="#b4b4b4" />
  <rect x="240" y="180" width="20" height="20" fill="#ffffff" class="pixel" stroke="#b4b4b4" />
  <rect x="260" y="180" width="20" height="20" fill="#ffffff" class="pixel" stroke="#b4b4b4" />
  <rect x="280" y="180" width="20" height="20" fill="#ffffff" class="pixel" stroke="#b4b4b4" />
  <rect x="300" y="180" width="20" height="20" fill="#5a5a5a" class="pixel" stroke="#b4b4b4" />
  <rect x="140" y="200" width="20" height="20" fill="#5a5a5a" class="pixel" stroke="#b4b4b4" />
  <rect x="160" y="200" width="20" height="20" fill="#ffffff" class="pixel" stroke="#b4b4b4" />
  <rect x="180" y="200" width="20" height="20" fill="#ffffff" class="pixel" stroke="#b4b4b4" />
  <rect x="200" y="200" width="20" height="20" fill="#ffffff" class="pixel" stroke="#b4b4b4" />
  <rect x="220" y="200" width="20" height="20" fill="#ffffff" class="pixel" stroke="#b4b4b4" />
  <rect x="240" y="200" width="20" height="20" fill="#ffffff" class="pixel" stroke="#b4b4b4" />
  <rect x="260" y="200" width="20" height="20" fill="#ffffff" class="pixel" stroke="#b4b4b4" />
  <rect x="280" y="200" width="20" height="20" fill="#ffffff" class="pixel" stroke="#b4b4b4" />
  <rect x="300" y="200" width="20" height="20" fill="#5a5a5a" class="pixel" stroke="#b4b4b4" />
  <rect x="140" y="220" width="20" height="20" fill="#5a5a5a" class="pixel" stroke="#b4b4b4" />
  <rect x="160" y="220" width="20" height="20" fill="#5a5a5a" class="pixel" stroke="#b4b4b4" />
  <rect x="180" y="220" width="20" height="20" fill="#ffffff" class="pixel" stroke="#b4b4b4" />
  <rect x="200" y="220" width="20" height="20" fill="#ffffff" class="pixel" stroke="#b4b4b4" />
  <rect x="220" y="220" width="20" height="20" fill="#ffffff" class="pixel" stroke="#b4b4b4" />
  <rect x="240" y="220" width="20" height="20" fill="#ffffff" class="pixel" stroke="#b4b4b4" />
  <rect x="260" y="220" width="20" height="20" fill="#ffffff" class="pixel" stroke="#b4b4b4" />
  <rect x="280" y="220" width="20" height="20" fill="#5a5a5a" class="pixel" stroke="#b4b4b4" />
  <rect x="300" y="220" width="20" height="20" fill="#5a5a5a" class="pixel" stroke="#b4b4b4" />
  <rect x="140" y="240" width="20" height="20" fill="#5a5a5a" class="pixel" stroke="#b4b4b4" />
  <rect x="160" y="240" width="20" height="20" fill="#5a5a5a" class="pixel" stroke="#b4b4b4" />
  <rect x="180" y="240" width="20" height="20" fill="#5a5a5a" class="pixel" stroke="#b4b4b4" />
  <rect x="200" y="240" width="20" height="20" fill="#ffffff" class="pixel" stroke="#b4b4b4" />
  <rect x="220" y="240" width="20" height="20" fill="#ffffff" class="pixel" stroke="#b4b4b4" />
  <rect x="240" y="240" width="20" height="20" fill="#ffffff" class="pixel" stroke="#b4b4b4" />
  <rect x="260" y="240" width="20" height="20" fill="#5a5a5a" class="pixel" stroke="#b4b4b4" />
  <rect x="280" y="240" width="20" height="20" fill="#5a5a5a" class="pixel" stroke="#b4b4b4" />
  <rect x="300" y="240" width="20" height="20" fill="#5a5a5a" class="pixel" stroke="#b4b4b4" />
  <rect x="140" y="260" width="20" height="20" fill="#5a5a5a" class="pixel" stroke="#b4b4b4" />
  <rect x="160" y="260" width="20" height="20" fill="#5a5a5a" class="pixel" stroke="#b4b4b4" />
  <rect x="180" y="260" width="20" height="20" fill="#5a5a5a" class="pixel" stroke="#b4b4b4" />
  <rect x="200" y="260" width="20" height="20" fill="#5a5a5a" class="pixel" stroke="#b4b4b4" />
  <rect x="220" y="260" width="20" height="20" fill="#5a5a5a" class="pixel" stroke="#b4b4b4" />
  <rect x="240" y="260" width="20" height="20" fill="#5a5a5a" class="pixel" stroke="#b4b4b4" />
  <rect x="260" y="260" width="20" height="20" fill="#5a5a5a" class="pixel" stroke="#b4b4b4" />
  <rect x="280" y="260" width="20" height="20" fill="#5a5a5a" class="pixel" stroke="#b4b4b4" />
  <rect x="300" y="260" width="20" height="20" fill="#5a5a5a" class="pixel" stroke="#b4b4b4" />
  <rect x="140" y="280" width="20" height="20" fill="#ffffff" class="pixel" stroke="#b4b4b4" />
  <rect x="160" y="280" width="20" height="20" fill="#ffffff" class="pixel" stroke="#b4b4b4" />
  <rect x="180" y="280" width="20" height="20" fill="#ffffff" class="pixel" stroke="#b4b4b4" />
  <rect x="200" y="280" width="20" height="20" fill="#ffffff" class="pixel" stroke="#b4b4b4" />
  <rect x="220" y="280" width="20" height="20" fill="#ffffff" class="pixel" stroke="#b4b4b4" />
  <rect x="240" y="280" width="20" height="20" fill="#ffffff" class="pixel" stroke="#b4b4b4" />
  <rect x="260" y="280" width="20" height="20" fill="#ffffff" class="pixel" stroke="#b4b4b4" />
  <rect x="280" y="280" width="20" height="20" fill="#ffffff" class="pixel" stroke="#b4b4b4" />
  <rect x="300" y="280" width="20" height="20" fill="#ffffff" class="pixel" stroke="#b4b4b4" />
  <rect x="140" y="300" width="20" height="20" fill="#272727" class="pixel" stroke="#b4b4b4" />
  <rect x="160" y="300" width="20" height="20" fill="#272727" class="pixel" stroke="#b4b4b4" />
  <rect x="180" y="300" width="20" height="20" fill="#272727" class="pixel" stroke="#b4b4b4" />
  <rect x="200" y="300" width="20" height="20" fill="#272727" class="pixel" stroke="#b4b4b4" />
  <rect x="220" y="300" width="20" height="20" fill="#272727" class="pixel" stroke="#b4b4b4" />
  <rect x="240" y="300" width="20" height="20" fill="#272727" class="pixel" stroke="#b4b4b4" />
  <rect x="260" y="300" width="20" height="20" fill="#272727" class="pixel" stroke="#b4b4b4" />
  <rect x="280" y="300" width="20" height="20" fill="#272727" class="pixel" stroke="#b4b4b4" />
  <rect x="300" y="300" width="20" height="20" fill="#272727" class="pixel" stroke="#b4b4b4" />
  <rect x="140" y="320" width="20" height="20" fill="#ffffff" class="pixel" stroke="#b4b4b4" />
  <rect x="160" y="320" width="20" height="20" fill="#ffffff" class="pixel" stroke="#b4b4b4" />
  <rect x="180" y="320" width="20" height="20" fill="#ffffff" class="pixel" stroke="#b4b4b4" />
  <rect x="200" y="320" width="20" height="20" fill="#ffffff" class="pixel" stroke="#b4b4b4" />
  <rect x="220" y="320" width="20" height="20" fill="#ffffff" class="pixel" stroke="#b4b4b4" />
  <rect x="240" y="320" width="20" height="20" fill="#ffffff" class="pixel" stroke="#b4b4b4" />
  <rect x="260" y="320" width="20" height="20" fill="#ffffff" class="pixel" stroke="#b4b4b4" />
  <rect x="280" y="320" width="20" height="20" fill="#ffffff" class="pixel" stroke="#b4b4b4" />
  <rect x="300" y="320" width="20" height="20" fill="#ffffff" class="pixel" stroke="#b4b4b4" />
  <rect x="140" y="340" width="20" height="20" fill="#272727" class="pixel" stroke="#b4b4b4" />
  <rect x="160" y="340" width="20" height="20" fill="#272727" class="pixel" stroke="#b4b4b4" />
  <rect x="180" y="340" width="20" height="20" fill="#272727" class="pixel" stroke="#b4b4b4" />
  <rect x="200" y="340" width="20" height="20" fill="#272727" class="pixel" stroke="#b4b4b4" />
  <rect x="220" y="340" width="20" height="20" fill="#272727" class="pixel" stroke="#b4b4b4" />
  <rect x="240" y="340" width="20" height="20" fill="#272727" class="pixel" stroke="#b4b4b4" />
  <rect x="260" y="340" width="20" height="20" fill="#272727" class="pixel" stroke="#b4b4b4" />
  <rect x="280" y="340" width="20" height="20" fill="#272727" class="pixel" stroke="#b4b4b4" />
  <rect x="300" y="340" width="20" height="20" fill="#272727" class="pixel" stroke="#b4b4b4" />
  <rect x="140" y="360" width="20" height="20" fill="#ffffff" class="pixel" stroke="#b4b4b4" />
  <rect x="160" y="360" width="20" height="20" fill="#ffffff" class="pixel" stroke="#b4b4b4" />
  <rect x="180" y="360" width="20" height="20" fill="#ffffff" class="pixel" stroke="#b4b4b4" />
  <rect x="200" y="360" width="20" height="20" fill="#ffffff" class="pixel" stroke="#b4b4b4" />
  <rect x="220" y="360" width="20" height="20" fill="#ffffff" class="pixel" stroke="#b4b4b4" />
  <rect x="240" y="360" width="20" height="20" fill="#ffffff" class="pixel" stroke="#b4b4b4" />
  <rect x="260" y="360" width="20" height="20" fill="#ffffff" class="pixel" stroke="#b4b4b4" />
  <rect x="280" y="360" width="20" height="20" fill="#ffffff" class="pixel" stroke="#b4b4b4" />
  <rect x="300" y="360" width="20" height="20" fill="#ffffff" class="pixel" stroke="#b4b4b4" />
  <rect x="140" y="380" width="20" height="20" fill="#272727" class="pixel" stroke="#b4b4b4" />
  <rect x="160" y="380" width="20" height="20" fill="#272727" class="pixel" stroke="#b4b4b4" />
  <rect x="180" y="380" width="20" height="20" fill="#272727" class="pixel" stroke="#b4b4b4" />
  <rect x="200" y="380" width="20" height="20" fill="#272727" class="pixel" stroke="#b4b4b4" />
  <rect x="220" y="380" width="20" height="20" fill="#272727" class="pixel" stroke="#b4b4b4" />
  <rect x="240" y="380" width="20" height="20" fill="#272727" class="pixel" stroke="#b4b4b4" />
  <rect x="260" y="380" width="20" height="20" fill="#272727" class="pixel" stroke="#b4b4b4" />
  <rect x="280" y="380" width="20" height="20" fill="#272727" class="pixel" stroke="#b4b4b4" />
  <rect x="300" y="380" width="20" height="20" fill="#272727" class="pixel" stroke="#b4b4b4" />
</svg>