<svg width="480" height="480" xmlns="http://www.w3.org/2000/svg">
  <defs>
    <style>
      .pixel { shape-rendering: pixelated; }
    </style>
  </defs>
  <rect x="180" y="20" width="20" height="20" fill="#ffffff" stroke="#b4b4b4" class="pixel" />
  <rect x="200" y="20" width="20" height="20" fill="#ffffff" stroke="#b4b4b4" class="pixel" />
  <rect x="220" y="20" width="20" height="20" fill="#ffffff" stroke="#b4b4b4" class="pixel" />
  <rect x="240" y="20" width="20" height="20" fill="#ffffff" stroke="#b4b4b4" class="pixel" />
  <rect x="260" y="20" width="20" height="20" fill="#ffffff" stroke="#b4b4b4" class="pixel" />
  <rect x="280" y="20" width="20" height="20" fill="#ffffff" stroke="#b4b4b4" class="pixel" />
  <rect x="300" y="20" width="20" height="20" fill="#ffffff" stroke="#b4b4b4" class="pixel" />
  <rect x="320" y="20" width="20" height="20" fill="#ffffff" stroke="#b4b4b4" class="pixel" />
  <rect x="340" y="20" width="20" height="20" fill="#ffffff" stroke="#b4b4b4" class="pixel" />
  <rect x="360" y="20" width="20" height="20" fill="#ffffff" stroke="#b4b4b4" class="pixel" />
  <rect x="380" y="20" width="20" height="20" fill="#ffffff" stroke="#b4b4b4" class="pixel" />
  <rect x="400" y="20" width="20" height="20" fill="#148c2b" stroke="#b4b4b4" class="pixel" />
  <rect x="420" y="20" width="20" height="20" fill="#ffffff" stroke="#b4b4b4" class="pixel" />
  <rect x="180" y="40" width="20" height="20" fill="#ffffff" stroke="#b4b4b4" class="pixel" />
  <rect x="200" y="40" width="20" height="20" fill="#ffffff" stroke="#b4b4b4" class="pixel" />
  <rect x="220" y="40" width="20" height="20" fill="#ffffff" stroke="#b4b4b4" class="pixel" />
  <rect x="240" y="40" width="20" height="20" fill="#ffffff" stroke="#b4b4b4" class="pixel" />
  <rect x="260" y="40" width="20" height="20" fill="#ffffff" stroke="#b4b4b4" class="pixel" />
  <rect x="280" y="40" width="20" height="20" fill="#ffffff" stroke="#b4b4b4" class="pixel" />
  <rect x="300" y="40" width="20" height="20" fill="#ffffff" stroke="#b4b4b4" class="pixel" />
  <rect x="320" y="40" width="20" height="20" fill="#ffffff" stroke="#b4b4b4" class="pixel" />
  <rect x="340" y="40" width="20" height="20" fill="#ffffff" stroke="#b4b4b4" class="pixel" />
  <rect x="360" y="40" width="20" height="20" fill="#148c2b" stroke="#b4b4b4" class="pixel" />
  <rect x="380" y="40" width="20" height="20" fill="#148c2b" stroke="#b4b4b4" class="pixel" />
  <rect x="400" y="40" width="20" height="20" fill="#148c2b" stroke="#b4b4b4" class="pixel" />
  <rect x="420" y="40" width="20" height="20" fill="#148c2b" stroke="#b4b4b4" class="pixel" />
  <rect x="180" y="60" width="20" height="20" fill="#ffffff" stroke="#b4b4b4" class="pixel" />
  <rect x="200" y="60" width="20" height="20" fill="#ffffff" stroke="#b4b4b4" class="pixel" />
  <rect x="220" y="60" width="20" height="20" fill="#ffffff" stroke="#b4b4b4" class="pixel" />
  <rect x="240" y="60" width="20" height="20" fill="#ffffff" stroke="#b4b4b4" class="pixel" />
  <rect x="260" y="60" width="20" height="20" fill="#ffffff" stroke="#b4b4b4" class="pixel" />
  <rect x="280" y="60" width="20" height="20" fill="#ffffff" stroke="#b4b4b4" class="pixel" />
  <rect x="300" y="60" width="20" height="20" fill="#ffffff" stroke="#b4b4b4" class="pixel" />
  <rect x="320" y="60" width="20" height="20" fill="#ffffff" stroke="#b4b4b4" class="pixel" />
  <rect x="340" y="60" width="20" height="20" fill="#ffffff" stroke="#b4b4b4" class="pixel" />
  <rect x="360" y="60" width="20" height="20" fill="#ffffff" stroke="#b4b4b4" class="pixel" />
  <rect x="380" y="60" width="20" height="20" fill="#ffffff" stroke="#b4b4b4" class="pixel" />
  <rect x="400" y="60" width="20" height="20" fill="#148c2b" stroke="#b4b4b4" class="pixel" />
  <rect x="420" y="60" width="20" height="20" fill="#ffffff" stroke="#b4b4b4" class="pixel" />
  <rect x="180" y="80" width="20" height="20" fill="#148c2b" stroke="#b4b4b4" class="pixel" />
  <rect x="200" y="80" width="20" height="20" fill="#148c2b" stroke="#b4b4b4" class="pixel" />
  <rect x="220" y="80" width="20" height="20" fill="#148c2b" stroke="#b4b4b4" class="pixel" />
  <rect x="240" y="80" width="20" height="20" fill="#148c2b" stroke="#b4b4b4" class="pixel" />
  <rect x="260" y="80" width="20" height="20" fill="#148c2b" stroke="#b4b4b4" class="pixel" />
  <rect x="280" y="80" width="20" height="20" fill="#148c2b" stroke="#b4b4b4" class="pixel" />
  <rect x="300" y="80" width="20" height="20" fill="#148c2b" stroke="#b4b4b4" class="pixel" />
  <rect x="320" y="80" width="20" height="20" fill="#148c2b" stroke="#b4b4b4" class="pixel" />
  <rect x="340" y="80" width="20" height="20" fill="#148c2b" stroke="#b4b4b4" class="pixel" />
  <rect x="360" y="80" width="20" height="20" fill="#148c2b" stroke="#b4b4b4" class="pixel" />
  <rect x="380" y="80" width="20" height="20" fill="#148c2b" stroke="#b4b4b4" class="pixel" />
  <rect x="400" y="80" width="20" height="20" fill="#148c2b" stroke="#b4b4b4" class="pixel" />
  <rect x="420" y="80" width="20" height="20" fill="#148c2b" stroke="#b4b4b4" class="pixel" />
  <rect x="180" y="100" width="20" height="20" fill="#148c2b" stroke="#b4b4b4" class="pixel" />
  <rect x="200" y="100" width="20" height="20" fill="#148c2b" stroke="#b4b4b4" class="pixel" />
  <rect x="220" y="100" width="20" height="20" fill="#148c2b" stroke="#b4b4b4" class="pixel" />
  <rect x="240" y="100" width="20" height="20" fill="#148c2b" stroke="#b4b4b4" class="pixel" />
  <rect x="260" y="100" width="20" height="20" fill="#148c2b" stroke="#b4b4b4" class="pixel" />
  <rect x="280" y="100" width="20" height="20" fill="#148c2b" stroke="#b4b4b4" class="pixel" />
  <rect x="300" y="100" width="20" height="20" fill="#148c2b" stroke="#b4b4b4" class="pixel" />
  <rect x="320" y="100" width="20" height="20" fill="#148c2b" stroke="#b4b4b4" class="pixel" />
  <rect x="340" y="100" width="20" height="20" fill="#148c2b" stroke="#b4b4b4" class="pixel" />
  <rect x="360" y="100" width="20" height="20" fill="#148c2b" stroke="#b4b4b4" class="pixel" />
  <rect x="380" y="100" width="20" height="20" fill="#148c2b" stroke="#b4b4b4" class="pixel" />
  <rect x="400" y="100" width="20" height="20" fill="#148c2b" stroke="#b4b4b4" class="pixel" />
  <rect x="420" y="100" width="20" height="20" fill="#148c2b" stroke="#b4b4b4" class="pixel" />
  <rect x="180" y="120" width="20" height="20" fill="#148c2b" stroke="#b4b4b4" class="pixel" />
  <rect x="200" y="120" width="20" height="20" fill="#148c2b" stroke="#b4b4b4" class="pixel" />
  <rect x="220" y="120" width="20" height="20" fill="#148c2b" stroke="#b4b4b4" class="pixel" />
  <rect x="240" y="120" width="20" height="20" fill="#148c2b" stroke="#b4b4b4" class="pixel" />
  <rect x="260" y="120" width="20" height="20" fill="#148c2b" stroke="#b4b4b4" class="pixel" />
  <rect x="280" y="120" width="20" height="20" fill="#148c2b" stroke="#b4b4b4" class="pixel" />
  <rect x="300" y="120" width="20" height="20" fill="#148c2b" stroke="#b4b4b4" class="pixel" />
  <rect x="320" y="120" width="20" height="20" fill="#148c2b" stroke="#b4b4b4" class="pixel" />
  <rect x="340" y="120" width="20" height="20" fill="#148c2b" stroke="#b4b4b4" class="pixel" />
  <rect x="360" y="120" width="20" height="20" fill="#148c2b" stroke="#b4b4b4" class="pixel" />
  <rect x="380" y="120" width="20" height="20" fill="#148c2b" stroke="#b4b4b4" class="pixel" />
  <rect x="400" y="120" width="20" height="20" fill="#148c2b" stroke="#b4b4b4" class="pixel" />
  <rect x="420" y="120" width="20" height="20" fill="#148c2b" stroke="#b4b4b4" class="pixel" />
  <rect x="180" y="140" width="20" height="20" fill="#148c2b" stroke="#b4b4b4" class="pixel" />
  <rect x="200" y="140" width="20" height="20" fill="#148c2b" stroke="#b4b4b4" class="pixel" />
  <rect x="220" y="140" width="20" height="20" fill="#148c2b" stroke="#b4b4b4" class="pixel" />
  <rect x="240" y="140" width="20" height="20" fill="#148c2b" stroke="#b4b4b4" class="pixel" />
  <rect x="260" y="140" width="20" height="20" fill="#148c2b" stroke="#b4b4b4" class="pixel" />
  <rect x="280" y="140" width="20" height="20" fill="#148c2b" stroke="#b4b4b4" class="pixel" />
  <rect x="300" y="140" width="20" height="20" fill="#148c2b" stroke="#b4b4b4" class="pixel" />
  <rect x="320" y="140" width="20" height="20" fill="#148c2b" stroke="#b4b4b4" class="pixel" />
  <rect x="340" y="140" width="20" height="20" fill="#148c2b" stroke="#b4b4b4" class="pixel" />
  <rect x="360" y="140" width="20" height="20" fill="#148c2b" stroke="#b4b4b4" class="pixel" />
  <rect x="380" y="140" width="20" height="20" fill="#148c2b" stroke="#b4b4b4" class="pixel" />
  <rect x="400" y="140" width="20" height="20" fill="#148c2b" stroke="#b4b4b4" class="pixel" />
  <rect x="420" y="140" width="20" height="20" fill="#148c2b" stroke="#b4b4b4" class="pixel" />
  <rect x="180" y="160" width="20" height="20" fill="#148c2b" stroke="#b4b4b4" class="pixel" />
  <rect x="200" y="160" width="20" height="20" fill="#148c2b" stroke="#b4b4b4" class="pixel" />
  <rect x="220" y="160" width="20" height="20" fill="#148c2b" stroke="#b4b4b4" class="pixel" />
  <rect x="240" y="160" width="20" height="20" fill="#148c2b" stroke="#b4b4b4" class="pixel" />
  <rect x="260" y="160" width="20" height="20" fill="#148c2b" stroke="#b4b4b4" class="pixel" />
  <rect x="280" y="160" width="20" height="20" fill="#148c2b" stroke="#b4b4b4" class="pixel" />
  <rect x="300" y="160" width="20" height="20" fill="#148c2b" stroke="#b4b4b4" class="pixel" />
  <rect x="320" y="160" width="20" height="20" fill="#148c2b" stroke="#b4b4b4" class="pixel" />
  <rect x="340" y="160" width="20" height="20" fill="#148c2b" stroke="#b4b4b4" class="pixel" />
  <rect x="360" y="160" width="20" height="20" fill="#148c2b" stroke="#b4b4b4" class="pixel" />
  <rect x="380" y="160" width="20" height="20" fill="#148c2b" stroke="#b4b4b4" class="pixel" />
  <rect x="400" y="160" width="20" height="20" fill="#148c2b" stroke="#b4b4b4" class="pixel" />
  <rect x="420" y="160" width="20" height="20" fill="#148c2b" stroke="#b4b4b4" class="pixel" />
  <rect x="180" y="180" width="20" height="20" fill="#148c2b" stroke="#b4b4b4" class="pixel" />
  <rect x="200" y="180" width="20" height="20" fill="#ffffff" stroke="#b4b4b4" class="pixel" />
  <rect x="220" y="180" width="20" height="20" fill="#ffffff" stroke="#b4b4b4" class="pixel" />
  <rect x="240" y="180" width="20" height="20" fill="#ffffff" stroke="#b4b4b4" class="pixel" />
  <rect x="260" y="180" width="20" height="20" fill="#148c2b" stroke="#b4b4b4" class="pixel" />
  <rect x="280" y="180" width="20" height="20" fill="#148c2b" stroke="#b4b4b4" class="pixel" />
  <rect x="300" y="180" width="20" height="20" fill="#ffffff" stroke="#b4b4b4" class="pixel" />
  <rect x="320" y="180" width="20" height="20" fill="#148c2b" stroke="#b4b4b4" class="pixel" />
  <rect x="340" y="180" width="20" height="20" fill="#ffffff" stroke="#b4b4b4" class="pixel" />
  <rect x="360" y="180" width="20" height="20" fill="#148c2b" stroke="#b4b4b4" class="pixel" />
  <rect x="380" y="180" width="20" height="20" fill="#ffffff" stroke="#b4b4b4" class="pixel" />
  <rect x="400" y="180" width="20" height="20" fill="#148c2b" stroke="#b4b4b4" class="pixel" />
  <rect x="420" y="180" width="20" height="20" fill="#148c2b" stroke="#b4b4b4" class="pixel" />
  <rect x="180" y="200" width="20" height="20" fill="#148c2b" stroke="#b4b4b4" class="pixel" />
  <rect x="200" y="200" width="20" height="20" fill="#ffffff" stroke="#b4b4b4" class="pixel" />
  <rect x="220" y="200" width="20" height="20" fill="#148c2b" stroke="#b4b4b4" class="pixel" />
  <rect x="240" y="200" width="20" height="20" fill="#148c2b" stroke="#b4b4b4" class="pixel" />
  <rect x="260" y="200" width="20" height="20" fill="#ffffff" stroke="#b4b4b4" class="pixel" />
  <rect x="280" y="200" width="20" height="20" fill="#ffffff" stroke="#b4b4b4" class="pixel" />
  <rect x="300" y="200" width="20" height="20" fill="#148c2b" stroke="#b4b4b4" class="pixel" />
  <rect x="320" y="200" width="20" height="20" fill="#ffffff" stroke="#b4b4b4" class="pixel" />
  <rect x="340" y="200" width="20" height="20" fill="#ffffff" stroke="#b4b4b4" class="pixel" />
  <rect x="360" y="200" width="20" height="20" fill="#ffffff" stroke="#b4b4b4" class="pixel" />
  <rect x="380" y="200" width="20" height="20" fill="#ffffff" stroke="#b4b4b4" class="pixel" />
  <rect x="400" y="200" width="20" height="20" fill="#ffffff" stroke="#b4b4b4" class="pixel" />
  <rect x="420" y="200" width="20" height="20" fill="#148c2b" stroke="#b4b4b4" class="pixel" />
  <rect x="180" y="220" width="20" height="20" fill="#148c2b" stroke="#b4b4b4" class="pixel" />
  <rect x="200" y="220" width="20" height="20" fill="#148c2b" stroke="#b4b4b4" class="pixel" />
  <rect x="220" y="220" width="20" height="20" fill="#148c2b" stroke="#b4b4b4" class="pixel" />
  <rect x="240" y="220" width="20" height="20" fill="#148c2b" stroke="#b4b4b4" class="pixel" />
  <rect x="260" y="220" width="20" height="20" fill="#148c2b" stroke="#b4b4b4" class="pixel" />
  <rect x="280" y="220" width="20" height="20" fill="#148c2b" stroke="#b4b4b4" class="pixel" />
  <rect x="300" y="220" width="20" height="20" fill="#148c2b" stroke="#b4b4b4" class="pixel" />
  <rect x="320" y="220" width="20" height="20" fill="#148c2b" stroke="#b4b4b4" class="pixel" />
  <rect x="340" y="220" width="20" height="20" fill="#148c2b" stroke="#b4b4b4" class="pixel" />
  <rect x="360" y="220" width="20" height="20" fill="#148c2b" stroke="#b4b4b4" class="pixel" />
  <rect x="380" y="220" width="20" height="20" fill="#148c2b" stroke="#b4b4b4" class="pixel" />
  <rect x="400" y="220" width="20" height="20" fill="#148c2b" stroke="#b4b4b4" class="pixel" />
  <rect x="420" y="220" width="20" height="20" fill="#148c2b" stroke="#b4b4b4" class="pixel" />
  <rect x="180" y="240" width="20" height="20" fill="#ffffff" stroke="#b4b4b4" class="pixel" />
  <rect x="200" y="240" width="20" height="20" fill="#ffffff" stroke="#b4b4b4" class="pixel" />
  <rect x="220" y="240" width="20" height="20" fill="#148c2b" stroke="#b4b4b4" class="pixel" />
  <rect x="240" y="240" width="20" height="20" fill="#148c2b" stroke="#b4b4b4" class="pixel" />
  <rect x="260" y="240" width="20" height="20" fill="#148c2b" stroke="#b4b4b4" class="pixel" />
  <rect x="280" y="240" width="20" height="20" fill="#ffffff" stroke="#b4b4b4" class="pixel" />
  <rect x="300" y="240" width="20" height="20" fill="#ffffff" stroke="#b4b4b4" class="pixel" />
  <rect x="320" y="240" width="20" height="20" fill="#ffffff" stroke="#b4b4b4" class="pixel" />
  <rect x="340" y="240" width="20" height="20" fill="#148c2b" stroke="#b4b4b4" class="pixel" />
  <rect x="360" y="240" width="20" height="20" fill="#148c2b" stroke="#b4b4b4" class="pixel" />
  <rect x="380" y="240" width="20" height="20" fill="#148c2b" stroke="#b4b4b4" class="pixel" />
  <rect x="400" y="240" width="20" height="20" fill="#ffffff" stroke="#b4b4b4" class="pixel" />
  <rect x="420" y="240" width="20" height="20" fill="#ffffff" stroke="#b4b4b4" class="pixel" />
  <rect x="180" y="260" width="20" height="20" fill="#ffffff" stroke="#b4b4b4" class="pixel" />
  <rect x="200" y="260" width="20" height="20" fill="#ffffff" stroke="#b4b4b4" class="pixel" />
  <rect x="220" y="260" width="20" height="20" fill="#ffffff" stroke="#b4b4b4" class="pixel" />
  <rect x="240" y="260" width="20" height="20" fill="#148c2b" stroke="#b4b4b4" class="pixel" />
  <rect x="260" y="260" width="20" height="20" fill="#148c2b" stroke="#b4b4b4" class="pixel" />
  <rect x="280" y="260" width="20" height="20" fill="#ffffff" stroke="#b4b4b4" class="pixel" />
  <rect x="300" y="260" width="20" height="20" fill="#ffffff" stroke="#b4b4b4" class="pixel" />
  <rect x="320" y="260" width="20" height="20" fill="#ffffff" stroke="#b4b4b4" class="pixel" />
  <rect x="340" y="260" width="20" height="20" fill="#148c2b" stroke="#b4b4b4" class="pixel" />
  <rect x="360" y="260" width="20" height="20" fill="#148c2b" stroke="#b4b4b4" class="pixel" />
  <rect x="380" y="260" width="20" height="20" fill="#ffffff" stroke="#b4b4b4" class="pixel" />
  <rect x="400" y="260" width="20" height="20" fill="#ffffff" stroke="#b4b4b4" class="pixel" />
  <rect x="420" y="260" width="20" height="20" fill="#ffffff" stroke="#b4b4b4" class="pixel" />
  <rect x="180" y="280" width="20" height="20" fill="#ffffff" stroke="#b4b4b4" class="pixel" />
  <rect x="200" y="280" width="20" height="20" fill="#ffffff" stroke="#b4b4b4" class="pixel" />
  <rect x="220" y="280" width="20" height="20" fill="#ffffff" stroke="#b4b4b4" class="pixel" />
  <rect x="240" y="280" width="20" height="20" fill="#ffffff" stroke="#b4b4b4" class="pixel" />
  <rect x="260" y="280" width="20" height="20" fill="#148c2b" stroke="#b4b4b4" class="pixel" />
  <rect x="280" y="280" width="20" height="20" fill="#148c2b" stroke="#b4b4b4" class="pixel" />
  <rect x="300" y="280" width="20" height="20" fill="#148c2b" stroke="#b4b4b4" class="pixel" />
  <rect x="320" y="280" width="20" height="20" fill="#148c2b" stroke="#b4b4b4" class="pixel" />
  <rect x="340" y="280" width="20" height="20" fill="#148c2b" stroke="#b4b4b4" class="pixel" />
  <rect x="360" y="280" width="20" height="20" fill="#ffffff" stroke="#b4b4b4" class="pixel" />
  <rect x="380" y="280" width="20" height="20" fill="#ffffff" stroke="#b4b4b4" class="pixel" />
  <rect x="400" y="280" width="20" height="20" fill="#ffffff" stroke="#b4b4b4" class="pixel" />
  <rect x="420" y="280" width="20" height="20" fill="#ffffff" stroke="#b4b4b4" class="pixel" />
  <rect x="180" y="300" width="20" height="20" fill="#ffffff" stroke="#b4b4b4" class="pixel" />
  <rect x="200" y="300" width="20" height="20" fill="#ffffff" stroke="#b4b4b4" class="pixel" />
  <rect x="220" y="300" width="20" height="20" fill="#ffffff" stroke="#b4b4b4" class="pixel" />
  <rect x="240" y="300" width="20" height="20" fill="#ffffff" stroke="#b4b4b4" class="pixel" />
  <rect x="260" y="300" width="20" height="20" fill="#ffffff" stroke="#b4b4b4" class="pixel" />
  <rect x="280" y="300" width="20" height="20" fill="#ffffff" stroke="#b4b4b4" class="pixel" />
  <rect x="300" y="300" width="20" height="20" fill="#ffffff" stroke="#b4b4b4" class="pixel" />
  <rect x="320" y="300" width="20" height="20" fill="#ffffff" stroke="#b4b4b4" class="pixel" />
  <rect x="340" y="300" width="20" height="20" fill="#ffffff" stroke="#b4b4b4" class="pixel" />
  <rect x="360" y="300" width="20" height="20" fill="#ffffff" stroke="#b4b4b4" class="pixel" />
  <rect x="380" y="300" width="20" height="20" fill="#ffffff" stroke="#b4b4b4" class="pixel" />
  <rect x="400" y="300" width="20" height="20" fill="#ffffff" stroke="#b4b4b4" class="pixel" />
  <rect x="420" y="300" width="20" height="20" fill="#ffffff" stroke="#b4b4b4" class="pixel" />
  <rect x="180" y="320" width="20" height="20" fill="#ffffff" stroke="#b4b4b4" class="pixel" />
  <rect x="200" y="320" width="20" height="20" fill="#148c2b" stroke="#b4b4b4" class="pixel" />
  <rect x="220" y="320" width="20" height="20" fill="#ffffff" stroke="#b4b4b4" class="pixel" />
  <rect x="240" y="320" width="20" height="20" fill="#148c2b" stroke="#b4b4b4" class="pixel" />
  <rect x="260" y="320" width="20" height="20" fill="#148c2b" stroke="#b4b4b4" class="pixel" />
  <rect x="280" y="320" width="20" height="20" fill="#ffffff" stroke="#b4b4b4" class="pixel" />
  <rect x="300" y="320" width="20" height="20" fill="#148c2b" stroke="#b4b4b4" class="pixel" />
  <rect x="320" y="320" width="20" height="20" fill="#148c2b" stroke="#b4b4b4" class="pixel" />
  <rect x="340" y="320" width="20" height="20" fill="#ffffff" stroke="#b4b4b4" class="pixel" />
  <rect x="360" y="320" width="20" height="20" fill="#148c2b" stroke="#b4b4b4" class="pixel" />
  <rect x="380" y="320" width="20" height="20" fill="#ffffff" stroke="#b4b4b4" class="pixel" />
  <rect x="400" y="320" width="20" height="20" fill="#148c2b" stroke="#b4b4b4" class="pixel" />
  <rect x="420" y="320" width="20" height="20" fill="#ffffff" stroke="#b4b4b4" class="pixel" />
  <rect x="180" y="340" width="20" height="20" fill="#ffffff" stroke="#b4b4b4" class="pixel" />
  <rect x="200" y="340" width="20" height="20" fill="#148c2b" stroke="#b4b4b4" class="pixel" />
  <rect x="220" y="340" width="20" height="20" fill="#148c2b" stroke="#b4b4b4" class="pixel" />
  <rect x="240" y="340" width="20" height="20" fill="#148c2b" stroke="#b4b4b4" class="pixel" />
  <rect x="260" y="340" width="20" height="20" fill="#ffffff" stroke="#b4b4b4" class="pixel" />
  <rect x="280" y="340" width="20" height="20" fill="#148c2b" stroke="#b4b4b4" class="pixel" />
  <rect x="300" y="340" width="20" height="20" fill="#ffffff" stroke="#b4b4b4" class="pixel" />
  <rect x="320" y="340" width="20" height="20" fill="#148c2b" stroke="#b4b4b4" class="pixel" />
  <rect x="340" y="340" width="20" height="20" fill="#148c2b" stroke="#b4b4b4" class="pixel" />
  <rect x="360" y="340" width="20" height="20" fill="#148c2b" stroke="#b4b4b4" class="pixel" />
  <rect x="380" y="340" width="20" height="20" fill="#148c2b" stroke="#b4b4b4" class="pixel" />
  <rect x="400" y="340" width="20" height="20" fill="#ffffff" stroke="#b4b4b4" class="pixel" />
  <rect x="420" y="340" width="20" height="20" fill="#ffffff" stroke="#b4b4b4" class="pixel" />
  <rect x="180" y="360" width="20" height="20" fill="#ffffff" stroke="#b4b4b4" class="pixel" />
  <rect x="200" y="360" width="20" height="20" fill="#148c2b" stroke="#b4b4b4" class="pixel" />
  <rect x="220" y="360" width="20" height="20" fill="#ffffff" stroke="#b4b4b4" class="pixel" />
  <rect x="240" y="360" width="20" height="20" fill="#148c2b" stroke="#b4b4b4" class="pixel" />
  <rect x="260" y="360" width="20" height="20" fill="#ffffff" stroke="#b4b4b4" class="pixel" />
  <rect x="280" y="360" width="20" height="20" fill="#148c2b" stroke="#b4b4b4" class="pixel" />
  <rect x="300" y="360" width="20" height="20" fill="#ffffff" stroke="#b4b4b4" class="pixel" />
  <rect x="320" y="360" width="20" height="20" fill="#148c2b" stroke="#b4b4b4" class="pixel" />
  <rect x="340" y="360" width="20" height="20" fill="#148c2b" stroke="#b4b4b4" class="pixel" />
  <rect x="360" y="360" width="20" height="20" fill="#148c2b" stroke="#b4b4b4" class="pixel" />
  <rect x="380" y="360" width="20" height="20" fill="#ffffff" stroke="#b4b4b4" class="pixel" />
  <rect x="400" y="360" width="20" height="20" fill="#148c2b" stroke="#b4b4b4" class="pixel" />
  <rect x="420" y="360" width="20" height="20" fill="#ffffff" stroke="#b4b4b4" class="pixel" />
  <rect x="180" y="380" width="20" height="20" fill="#ffffff" stroke="#b4b4b4" class="pixel" />
  <rect x="200" y="380" width="20" height="20" fill="#ffffff" stroke="#b4b4b4" class="pixel" />
  <rect x="220" y="380" width="20" height="20" fill="#ffffff" stroke="#b4b4b4" class="pixel" />
  <rect x="240" y="380" width="20" height="20" fill="#ffffff" stroke="#b4b4b4" class="pixel" />
  <rect x="260" y="380" width="20" height="20" fill="#ffffff" stroke="#b4b4b4" class="pixel" />
  <rect x="280" y="380" width="20" height="20" fill="#ffffff" stroke="#b4b4b4" class="pixel" />
  <rect x="300" y="380" width="20" height="20" fill="#ffffff" stroke="#b4b4b4" class="pixel" />
  <rect x="320" y="380" width="20" height="20" fill="#ffffff" stroke="#b4b4b4" class="pixel" />
  <rect x="340" y="380" width="20" height="20" fill="#ffffff" stroke="#b4b4b4" class="pixel" />
  <rect x="360" y="380" width="20" height="20" fill="#ffffff" stroke="#b4b4b4" class="pixel" />
  <rect x="380" y="380" width="20" height="20" fill="#ffffff" stroke="#b4b4b4" class="pixel" />
  <rect x="400" y="380" width="20" height="20" fill="#ffffff" stroke="#b4b4b4" class="pixel" />
  <rect x="420" y="380" width="20" height="20" fill="#ffffff" stroke="#b4b4b4" class="pixel" />
  <rect x="180" y="400" width="20" height="20" fill="#ffffff" stroke="#b4b4b4" class="pixel" />
  <rect x="200" y="400" width="20" height="20" fill="#ffffff" stroke="#b4b4b4" class="pixel" />
  <rect x="220" y="400" width="20" height="20" fill="#ffffff" stroke="#b4b4b4" class="pixel" />
  <rect x="240" y="400" width="20" height="20" fill="#ffffff" stroke="#b4b4b4" class="pixel" />
  <rect x="260" y="400" width="20" height="20" fill="#ffffff" stroke="#b4b4b4" class="pixel" />
  <rect x="280" y="400" width="20" height="20" fill="#ffffff" stroke="#b4b4b4" class="pixel" />
  <rect x="300" y="400" width="20" height="20" fill="#ffffff" stroke="#b4b4b4" class="pixel" />
  <rect x="320" y="400" width="20" height="20" fill="#ffffff" stroke="#b4b4b4" class="pixel" />
  <rect x="340" y="400" width="20" height="20" fill="#ffffff" stroke="#b4b4b4" class="pixel" />
  <rect x="360" y="400" width="20" height="20" fill="#ffffff" stroke="#b4b4b4" class="pixel" />
  <rect x="380" y="400" width="20" height="20" fill="#ffffff" stroke="#b4b4b4" class="pixel" />
  <rect x="400" y="400" width="20" height="20" fill="#ffffff" stroke="#b4b4b4" class="pixel" />
  <rect x="420" y="400" width="20" height="20" fill="#ffffff" stroke="#b4b4b4" class="pixel" />
  <rect x="180" y="420" width="20" height="20" fill="#ffffff" stroke="#b4b4b4" class="pixel" />
  <rect x="200" y="420" width="20" height="20" fill="#ffffff" stroke="#b4b4b4" class="pixel" />
  <rect x="220" y="420" width="20" height="20" fill="#ffffff" stroke="#b4b4b4" class="pixel" />
  <rect x="240" y="420" width="20" height="20" fill="#ffffff" stroke="#b4b4b4" class="pixel" />
  <rect x="260" y="420" width="20" height="20" fill="#ffffff" stroke="#b4b4b4" class="pixel" />
  <rect x="280" y="420" width="20" height="20" fill="#ffffff" stroke="#b4b4b4" class="pixel" />
  <rect x="300" y="420" width="20" height="20" fill="#ffffff" stroke="#b4b4b4" class="pixel" />
  <rect x="320" y="420" width="20" height="20" fill="#ffffff" stroke="#b4b4b4" class="pixel" />
  <rect x="340" y="420" width="20" height="20" fill="#ffffff" stroke="#b4b4b4" class="pixel" />
  <rect x="360" y="420" width="20" height="20" fill="#ffffff" stroke="#b4b4b4" class="pixel" />
  <rect x="380" y="420" width="20" height="20" fill="#ffffff" stroke="#b4b4b4" class="pixel" />
  <rect x="400" y="420" width="20" height="20" fill="#ffffff" stroke="#b4b4b4" class="pixel" />
  <rect x="420" y="420" width="20" height="20" fill="#ffffff" stroke="#b4b4b4" class="pixel" />
  <rect x="180" y="440" width="20" height="20" fill="#148c2b" stroke="#b4b4b4" class="pixel" />
  <rect x="200" y="440" width="20" height="20" fill="#148c2b" stroke="#b4b4b4" class="pixel" />
  <rect x="220" y="440" width="20" height="20" fill="#148c2b" stroke="#b4b4b4" class="pixel" />
  <rect x="240" y="440" width="20" height="20" fill="#ffffff" stroke="#b4b4b4" class="pixel" />
  <rect x="260" y="440" width="20" height="20" fill="#ffffff" stroke="#b4b4b4" class="pixel" />
  <rect x="280" y="440" width="20" height="20" fill="#ffffff" stroke="#b4b4b4" class="pixel" />
  <rect x="300" y="440" width="20" height="20" fill="#ffffff" stroke="#b4b4b4" class="pixel" />
  <rect x="320" y="440" width="20" height="20" fill="#ffffff" stroke="#b4b4b4" class="pixel" />
  <rect x="340" y="440" width="20" height="20" fill="#ffffff" stroke="#b4b4b4" class="pixel" />
  <rect x="360" y="440" width="20" height="20" fill="#ffffff" stroke="#b4b4b4" class="pixel" />
  <rect x="380" y="440" width="20" height="20" fill="#148c2b" stroke="#b4b4b4" class="pixel" />
  <rect x="400" y="440" width="20" height="20" fill="#148c2b" stroke="#b4b4b4" class="pixel" />
  <rect x="420" y="440" width="20" height="20" fill="#148c2b" stroke="#b4b4b4" class="pixel" />
  <rect x="180" y="460" width="20" height="20" fill="#148c2b" stroke="#b4b4b4" class="pixel" />
  <rect x="200" y="460" width="20" height="20" fill="#148c2b" stroke="#b4b4b4" class="pixel" />
  <rect x="220" y="460" width="20" height="20" fill="#148c2b" stroke="#b4b4b4" class="pixel" />
  <rect x="240" y="460" width="20" height="20" fill="#148c2b" stroke="#b4b4b4" class="pixel" />
  <rect x="260" y="460" width="20" height="20" fill="#ffffff" stroke="#b4b4b4" class="pixel" />
  <rect x="280" y="460" width="20" height="20" fill="#ffffff" stroke="#b4b4b4" class="pixel" />
  <rect x="300" y="460" width="20" height="20" fill="#ffffff" stroke="#b4b4b4" class="pixel" />
  <rect x="320" y="460" width="20" height="20" fill="#ffffff" stroke="#b4b4b4" class="pixel" />
  <rect x="340" y="460" width="20" height="20" fill="#ffffff" stroke="#b4b4b4" class="pixel" />
  <rect x="360" y="460" width="20" height="20" fill="#148c2b" stroke="#b4b4b4" class="pixel" />
  <rect x="380" y="460" width="20" height="20" fill="#148c2b" stroke="#b4b4b4" class="pixel" />
  <rect x="400" y="460" width="20" height="20" fill="#148c2b" stroke="#b4b4b4" class="pixel" />
  <rect x="420" y="460" width="20" height="20" fill="#148c2b" stroke="#b4b4b4" class="pixel" />
  <rect x="180" y="480" width="20" height="20" fill="#148c2b" stroke="#b4b4b4" class="pixel" />
  <rect x="200" y="480" width="20" height="20" fill="#148c2b" stroke="#b4b4b4" class="pixel" />
  <rect x="220" y="480" width="20" height="20" fill="#148c2b" stroke="#b4b4b4" class="pixel" />
  <rect x="240" y="480" width="20" height="20" fill="#148c2b" stroke="#b4b4b4" class="pixel" />
  <rect x="260" y="480" width="20" height="20" fill="#148c2b" stroke="#b4b4b4" class="pixel" />
  <rect x="280" y="480" width="20" height="20" fill="#ffffff" stroke="#b4b4b4" class="pixel" />
  <rect x="300" y="480" width="20" height="20" fill="#ffffff" stroke="#b4b4b4" class="pixel" />
  <rect x="320" y="480" width="20" height="20" fill="#ffffff" stroke="#b4b4b4" class="pixel" />
  <rect x="340" y="480" width="20" height="20" fill="#148c2b" stroke="#b4b4b4" class="pixel" />
  <rect x="360" y="480" width="20" height="20" fill="#148c2b" stroke="#b4b4b4" class="pixel" />
  <rect x="380" y="480" width="20" height="20" fill="#148c2b" stroke="#b4b4b4" class="pixel" />
  <rect x="400" y="480" width="20" height="20" fill="#148c2b" stroke="#b4b4b4" class="pixel" />
  <rect x="420" y="480" width="20" height="20" fill="#148c2b" stroke="#b4b4b4" class="pixel" />
  <rect x="180" y="500" width="20" height="20" fill="#148c2b" stroke="#b4b4b4" class="pixel" />
  <rect x="200" y="500" width="20" height="20" fill="#148c2b" stroke="#b4b4b4" class="pixel" />
  <rect x="220" y="500" width="20" height="20" fill="#148c2b" stroke="#b4b4b4" class="pixel" />
  <rect x="240" y="500" width="20" height="20" fill="#148c2b" stroke="#b4b4b4" class="pixel" />
  <rect x="260" y="500" width="20" height="20" fill="#148c2b" stroke="#b4b4b4" class="pixel" />
  <rect x="280" y="500" width="20" height="20" fill="#148c2b" stroke="#b4b4b4" class="pixel" />
  <rect x="300" y="500" width="20" height="20" fill="#148c2b" stroke="#b4b4b4" class="pixel" />
  <rect x="320" y="500" width="20" height="20" fill="#148c2b" stroke="#b4b4b4" class="pixel" />
  <rect x="340" y="500" width="20" height="20" fill="#148c2b" stroke="#b4b4b4" class="pixel" />
  <rect x="360" y="500" width="20" height="20" fill="#148c2b" stroke="#b4b4b4" class="pixel" />
  <rect x="380" y="500" width="20" height="20" fill="#148c2b" stroke="#b4b4b4" class="pixel" />
  <rect x="400" y="500" width="20" height="20" fill="#148c2b" stroke="#b4b4b4" class="pixel" />
  <rect x="420" y="500" width="20" height="20" fill="#148c2b" stroke="#b4b4b4" class="pixel" />
  <rect x="180" y="520" width="20" height="20" fill="#148c2b" stroke="#b4b4b4" class="pixel" />
  <rect x="200" y="520" width="20" height="20" fill="#148c2b" stroke="#b4b4b4" class="pixel" />
  <rect x="220" y="520" width="20" height="20" fill="#148c2b" stroke="#b4b4b4" class="pixel" />
  <rect x="240" y="520" width="20" height="20" fill="#ffffff" stroke="#b4b4b4" class="pixel" />
  <rect x="260" y="520" width="20" height="20" fill="#148c2b" stroke="#b4b4b4" class="pixel" />
  <rect x="280" y="520" width="20" height="20" fill="#ffffff" stroke="#b4b4b4" class="pixel" />
  <rect x="300" y="520" width="20" height="20" fill="#ffffff" stroke="#b4b4b4" class="pixel" />
  <rect x="320" y="520" width="20" height="20" fill="#148c2b" stroke="#b4b4b4" class="pixel" />
  <rect x="340" y="520" width="20" height="20" fill="#ffffff" stroke="#b4b4b4" class="pixel" />
  <rect x="360" y="520" width="20" height="20" fill="#148c2b" stroke="#b4b4b4" class="pixel" />
  <rect x="380" y="520" width="20" height="20" fill="#148c2b" stroke="#b4b4b4" class="pixel" />
  <rect x="400" y="520" width="20" height="20" fill="#148c2b" stroke="#b4b4b4" class="pixel" />
  <rect x="420" y="520" width="20" height="20" fill="#148c2b" stroke="#b4b4b4" class="pixel" />
  <rect x="180" y="540" width="20" height="20" fill="#ffffff" stroke="#b4b4b4" class="pixel" />
  <rect x="200" y="540" width="20" height="20" fill="#ffffff" stroke="#b4b4b4" class="pixel" />
  <rect x="220" y="540" width="20" height="20" fill="#148c2b" stroke="#b4b4b4" class="pixel" />
  <rect x="240" y="540" width="20" height="20" fill="#148c2b" stroke="#b4b4b4" class="pixel" />
  <rect x="260" y="540" width="20" height="20" fill="#ffffff" stroke="#b4b4b4" class="pixel" />
  <rect x="280" y="540" width="20" height="20" fill="#148c2b" stroke="#b4b4b4" class="pixel" />
  <rect x="300" y="540" width="20" height="20" fill="#148c2b" stroke="#b4b4b4" class="pixel" />
  <rect x="320" y="540" width="20" height="20" fill="#ffffff" stroke="#b4b4b4" class="pixel" />
  <rect x="340" y="540" width="20" height="20" fill="#148c2b" stroke="#b4b4b4" class="pixel" />
  <rect x="360" y="540" width="20" height="20" fill="#ffffff" stroke="#b4b4b4" class="pixel" />
  <rect x="380" y="540" width="20" height="20" fill="#148c2b" stroke="#b4b4b4" class="pixel" />
  <rect x="400" y="540" width="20" height="20" fill="#ffffff" stroke="#b4b4b4" class="pixel" />
  <rect x="420" y="540" width="20" height="20" fill="#ffffff" stroke="#b4b4b4" class="pixel" />
  <rect x="180" y="560" width="20" height="20" fill="#ffffff" stroke="#b4b4b4" class="pixel" />
  <rect x="200" y="560" width="20" height="20" fill="#ffffff" stroke="#b4b4b4" class="pixel" />
  <rect x="220" y="560" width="20" height="20" fill="#ffffff" stroke="#b4b4b4" class="pixel" />
  <rect x="240" y="560" width="20" height="20" fill="#148c2b" stroke="#b4b4b4" class="pixel" />
  <rect x="260" y="560" width="20" height="20" fill="#148c2b" stroke="#b4b4b4" class="pixel" />
  <rect x="280" y="560" width="20" height="20" fill="#148c2b" stroke="#b4b4b4" class="pixel" />
  <rect x="300" y="560" width="20" height="20" fill="#148c2b" stroke="#b4b4b4" class="pixel" />
  <rect x="320" y="560" width="20" height="20" fill="#148c2b" stroke="#b4b4b4" class="pixel" />
  <rect x="340" y="560" width="20" height="20" fill="#148c2b" stroke="#b4b4b4" class="pixel" />
  <rect x="360" y="560" width="20" height="20" fill="#148c2b" stroke="#b4b4b4" class="pixel" />
  <rect x="380" y="560" width="20" height="20" fill="#ffffff" stroke="#b4b4b4" class="pixel" />
  <rect x="400" y="560" width="20" height="20" fill="#ffffff" stroke="#b4b4b4" class="pixel" />
  <rect x="420" y="560" width="20" height="20" fill="#ffffff" stroke="#b4b4b4" class="pixel" />
  <rect x="180" y="580" width="20" height="20" fill="#ffffff" stroke="#b4b4b4" class="pixel" />
  <rect x="200" y="580" width="20" height="20" fill="#ffffff" stroke="#b4b4b4" class="pixel" />
  <rect x="220" y="580" width="20" height="20" fill="#ffffff" stroke="#b4b4b4" class="pixel" />
  <rect x="240" y="580" width="20" height="20" fill="#ffffff" stroke="#b4b4b4" class="pixel" />
  <rect x="260" y="580" width="20" height="20" fill="#148c2b" stroke="#b4b4b4" class="pixel" />
  <rect x="280" y="580" width="20" height="20" fill="#148c2b" stroke="#b4b4b4" class="pixel" />
  <rect x="300" y="580" width="20" height="20" fill="#148c2b" stroke="#b4b4b4" class="pixel" />
  <rect x="320" y="580" width="20" height="20" fill="#148c2b" stroke="#b4b4b4" class="pixel" />
  <rect x="340" y="580" width="20" height="20" fill="#148c2b" stroke="#b4b4b4" class="pixel" />
  <rect x="360" y="580" width="20" height="20" fill="#ffffff" stroke="#b4b4b4" class="pixel" />
  <rect x="380" y="580" width="20" height="20" fill="#ffffff" stroke="#b4b4b4" class="pixel" />
  <rect x="400" y="580" width="20" height="20" fill="#ffffff" stroke="#b4b4b4" class="pixel" />
  <rect x="420" y="580" width="20" height="20" fill="#ffffff" stroke="#b4b4b4" class="pixel" />
  <rect x="180" y="600" width="20" height="20" fill="#ffffff" stroke="#b4b4b4" class="pixel" />
  <rect x="200" y="600" width="20" height="20" fill="#ffffff" stroke="#b4b4b4" class="pixel" />
  <rect x="220" y="600" width="20" height="20" fill="#ffffff" stroke="#b4b4b4" class="pixel" />
  <rect x="240" y="600" width="20" height="20" fill="#ffffff" stroke="#b4b4b4" class="pixel" />
  <rect x="260" y="600" width="20" height="20" fill="#ffffff" stroke="#b4b4b4" class="pixel" />
  <rect x="280" y="600" width="20" height="20" fill="#ffffff" stroke="#b4b4b4" class="pixel" />
  <rect x="300" y="600" width="20" height="20" fill="#ffffff" stroke="#b4b4b4" class="pixel" />
  <rect x="320" y="600" width="20" height="20" fill="#ffffff" stroke="#b4b4b4" class="pixel" />
  <rect x="340" y="600" width="20" height="20" fill="#ffffff" stroke="#b4b4b4" class="pixel" />
  <rect x="360" y="600" width="20" height="20" fill="#ffffff" stroke="#b4b4b4" class="pixel" />
  <rect x="380" y="600" width="20" height="20" fill="#ffffff" stroke="#b4b4b4" class="pixel" />
  <rect x="400" y="600" width="20" height="20" fill="#ffffff" stroke="#b4b4b4" class="pixel" />
  <rect x="420" y="600" width="20" height="20" fill="#ffffff" stroke="#b4b4b4" class="pixel" />
</svg>