<svg width="480" height="480" xmlns="http://www.w3.org/2000/svg">
  <defs>
    <style>
      .pixel { shape-rendering: pixelated; }
    </style>
  </defs>
  <rect x="80" y="40" width="20" height="20" fill="#f60e44" stroke="#b4b4b4" class="pixel" />
  <rect x="100" y="40" width="20" height="20" fill="#f60e44" stroke="#b4b4b4" class="pixel" />
  <rect x="200" y="40" width="20" height="20" fill="#f60e44" stroke="#b4b4b4" class="pixel" />
  <rect x="220" y="40" width="20" height="20" fill="#f60e44" stroke="#b4b4b4" class="pixel" />
  <rect x="60" y="60" width="20" height="20" fill="#f60e44" stroke="#b4b4b4" class="pixel" />
  <rect x="120" y="60" width="20" height="20" fill="#f60e44" stroke="#b4b4b4" class="pixel" />
  <rect x="180" y="60" width="20" height="20" fill="#f60e44" stroke="#b4b4b4" class="pixel" />
  <rect x="240" y="60" width="20" height="20" fill="#f60e44" stroke="#b4b4b4" class="pixel" />
  <rect x="60" y="80" width="20" height="20" fill="#f60e44" stroke="#b4b4b4" class="pixel" />
  <rect x="80" y="80" width="20" height="20" fill="#f60e44" stroke="#b4b4b4" class="pixel" />
  <rect x="140" y="80" width="20" height="20" fill="#f60e44" stroke="#b4b4b4" class="pixel" />
  <rect x="160" y="80" width="20" height="20" fill="#f60e44" stroke="#b4b4b4" class="pixel" />
  <rect x="220" y="80" width="20" height="20" fill="#f60e44" stroke="#b4b4b4" class="pixel" />
  <rect x="240" y="80" width="20" height="20" fill="#f60e44" stroke="#b4b4b4" class="pixel" />
  <rect x="100" y="100" width="20" height="20" fill="#f60e44" stroke="#b4b4b4" class="pixel" />
  <rect x="120" y="100" width="20" height="20" fill="#f60e44" stroke="#b4b4b4" class="pixel" />
  <rect x="140" y="100" width="20" height="20" fill="#f60e44" stroke="#b4b4b4" class="pixel" />
  <rect x="160" y="100" width="20" height="20" fill="#f60e44" stroke="#b4b4b4" class="pixel" />
  <rect x="180" y="100" width="20" height="20" fill="#f60e44" stroke="#b4b4b4" class="pixel" />
  <rect x="200" y="100" width="20" height="20" fill="#f60e44" stroke="#b4b4b4" class="pixel" />
  <rect x="40" y="120" width="20" height="20" fill="#ffffff" stroke="#b4b4b4" class="pixel" />
  <rect x="60" y="120" width="20" height="20" fill="#ffffff" stroke="#b4b4b4" class="pixel" />
  <rect x="80" y="120" width="20" height="20" fill="#ffffff" stroke="#b4b4b4" class="pixel" />
  <rect x="100" y="120" width="20" height="20" fill="#ffffff" stroke="#b4b4b4" class="pixel" />
  <rect x="120" y="120" width="20" height="20" fill="#ffffff" stroke="#b4b4b4" class="pixel" />
  <rect x="140" y="120" width="20" height="20" fill="#f60e44" stroke="#b4b4b4" class="pixel" />
  <rect x="160" y="120" width="20" height="20" fill="#f60e44" stroke="#b4b4b4" class="pixel" />
  <rect x="180" y="120" width="20" height="20" fill="#ffffff" stroke="#b4b4b4" class="pixel" />
  <rect x="200" y="120" width="20" height="20" fill="#ffffff" stroke="#b4b4b4" class="pixel" />
  <rect x="220" y="120" width="20" height="20" fill="#ffffff" stroke="#b4b4b4" class="pixel" />
  <rect x="240" y="120" width="20" height="20" fill="#ffffff" stroke="#b4b4b4" class="pixel" />
  <rect x="260" y="120" width="20" height="20" fill="#ffffff" stroke="#b4b4b4" class="pixel" />
  <rect x="40" y="140" width="20" height="20" fill="#ffffff" stroke="#b4b4b4" class="pixel" />
  <rect x="60" y="140" width="20" height="20" fill="#ffffff" stroke="#b4b4b4" class="pixel" />
  <rect x="80" y="140" width="20" height="20" fill="#ffffff" stroke="#b4b4b4" class="pixel" />
  <rect x="100" y="140" width="20" height="20" fill="#ffffff" stroke="#b4b4b4" class="pixel" />
  <rect x="120" y="140" width="20" height="20" fill="#ffffff" stroke="#b4b4b4" class="pixel" />
  <rect x="140" y="140" width="20" height="20" fill="#f60e44" stroke="#b4b4b4" class="pixel" />
  <rect x="160" y="140" width="20" height="20" fill="#f60e44" stroke="#b4b4b4" class="pixel" />
  <rect x="180" y="140" width="20" height="20" fill="#ffffff" stroke="#b4b4b4" class="pixel" />
  <rect x="200" y="140" width="20" height="20" fill="#ffffff" stroke="#b4b4b4" class="pixel" />
  <rect x="220" y="140" width="20" height="20" fill="#ffffff" stroke="#b4b4b4" class="pixel" />
  <rect x="240" y="140" width="20" height="20" fill="#ffffff" stroke="#b4b4b4" class="pixel" />
  <rect x="260" y="140" width="20" height="20" fill="#ffffff" stroke="#b4b4b4" class="pixel" />
  <rect x="40" y="160" width="20" height="20" fill="#ffffff" stroke="#b4b4b4" class="pixel" />
  <rect x="60" y="160" width="20" height="20" fill="#ffffff" stroke="#b4b4b4" class="pixel" />
  <rect x="80" y="160" width="20" height="20" fill="#ffffff" stroke="#b4b4b4" class="pixel" />
  <rect x="100" y="160" width="20" height="20" fill="#ffffff" stroke="#b4b4b4" class="pixel" />
  <rect x="120" y="160" width="20" height="20" fill="#ffffff" stroke="#b4b4b4" class="pixel" />
  <rect x="140" y="160" width="20" height="20" fill="#f60e44" stroke="#b4b4b4" class="pixel" />
  <rect x="160" y="160" width="20" height="20" fill="#f60e44" stroke="#b4b4b4" class="pixel" />
  <rect x="180" y="160" width="20" height="20" fill="#ffffff" stroke="#b4b4b4" class="pixel" />
  <rect x="200" y="160" width="20" height="20" fill="#ffffff" stroke="#b4b4b4" class="pixel" />
  <rect x="220" y="160" width="20" height="20" fill="#ffffff" stroke="#b4b4b4" class="pixel" />
  <rect x="240" y="160" width="20" height="20" fill="#ffffff" stroke="#b4b4b4" class="pixel" />
  <rect x="260" y="160" width="20" height="20" fill="#ffffff" stroke="#b4b4b4" class="pixel" />
  <rect x="140" y="180" width="20" height="20" fill="#f60e44" stroke="#b4b4b4" class="pixel" />
  <rect x="160" y="180" width="20" height="20" fill="#f60e44" stroke="#b4b4b4" class="pixel" />
  <rect x="60" y="200" width="20" height="20" fill="#ffffff" stroke="#b4b4b4" class="pixel" />
  <rect x="80" y="200" width="20" height="20" fill="#ffffff" stroke="#b4b4b4" class="pixel" />
  <rect x="100" y="200" width="20" height="20" fill="#ffffff" stroke="#b4b4b4" class="pixel" />
  <rect x="120" y="200" width="20" height="20" fill="#ffffff" stroke="#b4b4b4" class="pixel" />
  <rect x="140" y="200" width="20" height="20" fill="#f60e44" stroke="#b4b4b4" class="pixel" />
  <rect x="160" y="200" width="20" height="20" fill="#f60e44" stroke="#b4b4b4" class="pixel" />
  <rect x="180" y="200" width="20" height="20" fill="#ffffff" stroke="#b4b4b4" class="pixel" />
  <rect x="200" y="200" width="20" height="20" fill="#ffffff" stroke="#b4b4b4" class="pixel" />
  <rect x="220" y="200" width="20" height="20" fill="#ffffff" stroke="#b4b4b4" class="pixel" />
  <rect x="240" y="200" width="20" height="20" fill="#ffffff" stroke="#b4b4b4" class="pixel" />
  <rect x="60" y="220" width="20" height="20" fill="#ffffff" stroke="#b4b4b4" class="pixel" />
  <rect x="80" y="220" width="20" height="20" fill="#ffffff" stroke="#b4b4b4" class="pixel" />
  <rect x="100" y="220" width="20" height="20" fill="#ffffff" stroke="#b4b4b4" class="pixel" />
  <rect x="120" y="220" width="20" height="20" fill="#ffffff" stroke="#b4b4b4" class="pixel" />
  <rect x="140" y="220" width="20" height="20" fill="#f60e44" stroke="#b4b4b4" class="pixel" />
  <rect x="160" y="220" width="20" height="20" fill="#f60e44" stroke="#b4b4b4" class="pixel" />
  <rect x="180" y="220" width="20" height="20" fill="#ffffff" stroke="#b4b4b4" class="pixel" />
  <rect x="200" y="220" width="20" height="20" fill="#ffffff" stroke="#b4b4b4" class="pixel" />
  <rect x="220" y="220" width="20" height="20" fill="#ffffff" stroke="#b4b4b4" class="pixel" />
  <rect x="240" y="220" width="20" height="20" fill="#ffffff" stroke="#b4b4b4" class="pixel" />
  <rect x="60" y="240" width="20" height="20" fill="#ffffff" stroke="#b4b4b4" class="pixel" />
  <rect x="80" y="240" width="20" height="20" fill="#ffffff" stroke="#b4b4b4" class="pixel" />
  <rect x="100" y="240" width="20" height="20" fill="#ffffff" stroke="#b4b4b4" class="pixel" />
  <rect x="120" y="240" width="20" height="20" fill="#ffffff" stroke="#b4b4b4" class="pixel" />
  <rect x="140" y="240" width="20" height="20" fill="#f60e44" stroke="#b4b4b4" class="pixel" />
  <rect x="160" y="240" width="20" height="20" fill="#f60e44" stroke="#b4b4b4" class="pixel" />
  <rect x="180" y="240" width="20" height="20" fill="#ffffff" stroke="#b4b4b4" class="pixel" />
  <rect x="200" y="240" width="20" height="20" fill="#ffffff" stroke="#b4b4b4" class="pixel" />
  <rect x="220" y="240" width="20" height="20" fill="#ffffff" stroke="#b4b4b4" class="pixel" />
  <rect x="240" y="240" width="20" height="20" fill="#ffffff" stroke="#b4b4b4" class="pixel" />
  <rect x="60" y="260" width="20" height="20" fill="#ffffff" stroke="#b4b4b4" class="pixel" />
  <rect x="80" y="260" width="20" height="20" fill="#ffffff" stroke="#b4b4b4" class="pixel" />
  <rect x="100" y="260" width="20" height="20" fill="#ffffff" stroke="#b4b4b4" class="pixel" />
  <rect x="120" y="260" width="20" height="20" fill="#ffffff" stroke="#b4b4b4" class="pixel" />
  <rect x="140" y="260" width="20" height="20" fill="#f60e44" stroke="#b4b4b4" class="pixel" />
  <rect x="160" y="260" width="20" height="20" fill="#f60e44" stroke="#b4b4b4" class="pixel" />
  <rect x="180" y="260" width="20" height="20" fill="#ffffff" stroke="#b4b4b4" class="pixel" />
  <rect x="200" y="260" width="20" height="20" fill="#ffffff" stroke="#b4b4b4" class="pixel" />
  <rect x="220" y="260" width="20" height="20" fill="#ffffff" stroke="#b4b4b4" class="pixel" />
  <rect x="240" y="260" width="20" height="20" fill="#ffffff" stroke="#b4b4b4" class="pixel" />
  <rect x="60" y="280" width="20" height="20" fill="#ffffff" stroke="#b4b4b4" class="pixel" />
  <rect x="80" y="280" width="20" height="20" fill="#ffffff" stroke="#b4b4b4" class="pixel" />
  <rect x="100" y="280" width="20" height="20" fill="#ffffff" stroke="#b4b4b4" class="pixel" />
  <rect x="120" y="280" width="20" height="20" fill="#ffffff" stroke="#b4b4b4" class="pixel" />
  <rect x="140" y="280" width="20" height="20" fill="#f60e44" stroke="#b4b4b4" class="pixel" />
  <rect x="160" y="280" width="20" height="20" fill="#f60e44" stroke="#b4b4b4" class="pixel" />
  <rect x="180" y="280" width="20" height="20" fill="#ffffff" stroke="#b4b4b4" class="pixel" />
  <rect x="200" y="280" width="20" height="20" fill="#ffffff" stroke="#b4b4b4" class="pixel" />
  <rect x="220" y="280" width="20" height="20" fill="#ffffff" stroke="#b4b4b4" class="pixel" />
  <rect x="240" y="280" width="20" height="20" fill="#ffffff" stroke="#b4b4b4" class="pixel" />
</svg>