<svg width="480" height="480" xmlns="http://www.w3.org/2000/svg">
  <defs>
    <style>
      .symbol { font-family: monospace; font-size: 15px; text-anchor: middle; dominant-baseline: middle; }
    </style>
  </defs>
  <text x="90" y="52" fill="#000000" class="symbol">◆</text>
  <text x="110" y="52" fill="#000000" class="symbol">◆</text>
  <text x="210" y="52" fill="#000000" class="symbol">◆</text>
  <text x="230" y="52" fill="#000000" class="symbol">◆</text>
  <text x="70" y="72" fill="#000000" class="symbol">◆</text>
  <text x="130" y="72" fill="#000000" class="symbol">◆</text>
  <text x="190" y="72" fill="#000000" class="symbol">◆</text>
  <text x="250" y="72" fill="#000000" class="symbol">◆</text>
  <text x="70" y="92" fill="#000000" class="symbol">◆</text>
  <text x="90" y="92" fill="#000000" class="symbol">◆</text>
  <text x="150" y="92" fill="#000000" class="symbol">◆</text>
  <text x="170" y="92" fill="#000000" class="symbol">◆</text>
  <text x="230" y="92" fill="#000000" class="symbol">◆</text>
  <text x="250" y="92" fill="#000000" class="symbol">◆</text>
  <text x="110" y="112" fill="#000000" class="symbol">◆</text>
  <text x="130" y="112" fill="#000000" class="symbol">◆</text>
  <text x="150" y="112" fill="#000000" class="symbol">◆</text>
  <text x="170" y="112" fill="#000000" class="symbol">◆</text>
  <text x="190" y="112" fill="#000000" class="symbol">◆</text>
  <text x="210" y="112" fill="#000000" class="symbol">◆</text>
  <text x="50" y="132" fill="#000000" class="symbol">+</text>
  <text x="70" y="132" fill="#000000" class="symbol">+</text>
  <text x="90" y="132" fill="#000000" class="symbol">+</text>
  <text x="110" y="132" fill="#000000" class="symbol">+</text>
  <text x="130" y="132" fill="#000000" class="symbol">+</text>
  <text x="150" y="132" fill="#000000" class="symbol">◆</text>
  <text x="170" y="132" fill="#000000" class="symbol">◆</text>
  <text x="190" y="132" fill="#000000" class="symbol">+</text>
  <text x="210" y="132" fill="#000000" class="symbol">+</text>
  <text x="230" y="132" fill="#000000" class="symbol">+</text>
  <text x="250" y="132" fill="#000000" class="symbol">+</text>
  <text x="270" y="132" fill="#000000" class="symbol">+</text>
  <text x="50" y="152" fill="#000000" class="symbol">+</text>
  <text x="70" y="152" fill="#000000" class="symbol">+</text>
  <text x="90" y="152" fill="#000000" class="symbol">+</text>
  <text x="110" y="152" fill="#000000" class="symbol">+</text>
  <text x="130" y="152" fill="#000000" class="symbol">+</text>
  <text x="150" y="152" fill="#000000" class="symbol">◆</text>
  <text x="170" y="152" fill="#000000" class="symbol">◆</text>
  <text x="190" y="152" fill="#000000" class="symbol">+</text>
  <text x="210" y="152" fill="#000000" class="symbol">+</text>
  <text x="230" y="152" fill="#000000" class="symbol">+</text>
  <text x="250" y="152" fill="#000000" class="symbol">+</text>
  <text x="270" y="152" fill="#000000" class="symbol">+</text>
  <text x="50" y="172" fill="#000000" class="symbol">+</text>
  <text x="70" y="172" fill="#000000" class="symbol">+</text>
  <text x="90" y="172" fill="#000000" class="symbol">+</text>
  <text x="110" y="172" fill="#000000" class="symbol">+</text>
  <text x="130" y="172" fill="#000000" class="symbol">+</text>
  <text x="150" y="172" fill="#000000" class="symbol">◆</text>
  <text x="170" y="172" fill="#000000" class="symbol">◆</text>
  <text x="190" y="172" fill="#000000" class="symbol">+</text>
  <text x="210" y="172" fill="#000000" class="symbol">+</text>
  <text x="230" y="172" fill="#000000" class="symbol">+</text>
  <text x="250" y="172" fill="#000000" class="symbol">+</text>
  <text x="270" y="172" fill="#000000" class="symbol">+</text>
  <text x="150" y="192" fill="#000000" class="symbol">◆</text>
  <text x="170" y="192" fill="#000000" class="symbol">◆</text>
  <text x="70" y="212" fill="#000000" class="symbol">+</text>
  <text x="90" y="212" fill="#000000" class="symbol">+</text>
  <text x="110" y="212" fill="#000000" class="symbol">+</text>
  <text x="130" y="212" fill="#000000" class="symbol">+</text>
  <text x="150" y="212" fill="#000000" class="symbol">◆</text>
  <text x="170" y="212" fill="#000000" class="symbol">◆</text>
  <text x="190" y="212" fill="#000000" class="symbol">+</text>
  <text x="210" y="212" fill="#000000" class="symbol">+</text>
  <text x="230" y="212" fill="#000000" class="symbol">+</text>
  <text x="250" y="212" fill="#000000" class="symbol">+</text>
  <text x="70" y="232" fill="#000000" class="symbol">+</text>
  <text x="90" y="232" fill="#000000" class="symbol">+</text>
  <text x="110" y="232" fill="#000000" class="symbol">+</text>
  <text x="130" y="232" fill="#000000" class="symbol">+</text>
  <text x="150" y="232" fill="#000000" class="symbol">◆</text>
  <text x="170" y="232" fill="#000000" class="symbol">◆</text>
  <text x="190" y="232" fill="#000000" class="symbol">+</text>
  <text x="210" y="232" fill="#000000" class="symbol">+</text>
  <text x="230" y="232" fill="#000000" class="symbol">+</text>
  <text x="250" y="232" fill="#000000" class="symbol">+</text>
  <text x="70" y="252" fill="#000000" class="symbol">+</text>
  <text x="90" y="252" fill="#000000" class="symbol">+</text>
  <text x="110" y="252" fill="#000000" class="symbol">+</text>
  <text x="130" y="252" fill="#000000" class="symbol">+</text>
  <text x="150" y="252" fill="#000000" class="symbol">◆</text>
  <text x="170" y="252" fill="#000000" class="symbol">◆</text>
  <text x="190" y="252" fill="#000000" class="symbol">+</text>
  <text x="210" y="252" fill="#000000" class="symbol">+</text>
  <text x="230" y="252" fill="#000000" class="symbol">+</text>
  <text x="250" y="252" fill="#000000" class="symbol">+</text>
  <text x="70" y="272" fill="#000000" class="symbol">+</text>
  <text x="90" y="272" fill="#000000" class="symbol">+</text>
  <text x="110" y="272" fill="#000000" class="symbol">+</text>
  <text x="130" y="272" fill="#000000" class="symbol">+</text>
  <text x="150" y="272" fill="#000000" class="symbol">◆</text>
  <text x="170" y="272" fill="#000000" class="symbol">◆</text>
  <text x="190" y="272" fill="#000000" class="symbol">+</text>
  <text x="210" y="272" fill="#000000" class="symbol">+</text>
  <text x="230" y="272" fill="#000000" class="symbol">+</text>
  <text x="250" y="272" fill="#000000" class="symbol">+</text>
  <text x="70" y="292" fill="#000000" class="symbol">+</text>
  <text x="90" y="292" fill="#000000" class="symbol">+</text>
  <text x="110" y="292" fill="#000000" class="symbol">+</text>
  <text x="130" y="292" fill="#000000" class="symbol">+</text>
  <text x="150" y="292" fill="#000000" class="symbol">◆</text>
  <text x="170" y="292" fill="#000000" class="symbol">◆</text>
  <text x="190" y="292" fill="#000000" class="symbol">+</text>
  <text x="210" y="292" fill="#000000" class="symbol">+</text>
  <text x="230" y="292" fill="#000000" class="symbol">+</text>
  <text x="250" y="292" fill="#000000" class="symbol">+</text>
  <line x1="0" y1="0" x2="0" y2="320" stroke="#1c30d0" stroke-width="2"/>
  <line x1="20" y1="0" x2="20" y2="320" stroke="#1c30d0" stroke-width="1"/>
  <line x1="40" y1="0" x2="40" y2="320" stroke="#1c30d0" stroke-width="1"/>
  <line x1="60" y1="0" x2="60" y2="320" stroke="#1c30d0" stroke-width="1"/>
  <line x1="80" y1="0" x2="80" y2="320" stroke="#1c30d0" stroke-width="1"/>
  <line x1="100" y1="0" x2="100" y2="320" stroke="#1c30d0" stroke-width="1"/>
  <line x1="120" y1="0" x2="120" y2="320" stroke="#1c30d0" stroke-width="1"/>
  <line x1="140" y1="0" x2="140" y2="320" stroke="#1c30d0" stroke-width="1"/>
  <line x1="160" y1="0" x2="160" y2="320" stroke="#1c30d0" stroke-width="1"/>
  <line x1="180" y1="0" x2="180" y2="320" stroke="#1c30d0" stroke-width="1"/>
  <line x1="200" y1="0" x2="200" y2="320" stroke="#1c30d0" stroke-width="1"/>
  <line x1="220" y1="0" x2="220" y2="320" stroke="#1c30d0" stroke-width="1"/>
  <line x1="240" y1="0" x2="240" y2="320" stroke="#1c30d0" stroke-width="1"/>
  <line x1="260" y1="0" x2="260" y2="320" stroke="#1c30d0" stroke-width="1"/>
  <line x1="280" y1="0" x2="280" y2="320" stroke="#1c30d0" stroke-width="1"/>
  <line x1="300" y1="0" x2="300" y2="320" stroke="#1c30d0" stroke-width="1"/>
  <line x1="320" y1="0" x2="320" y2="320" stroke="#1c30d0" stroke-width="2"/>
  <line x1="0" y1="0" x2="320" y2="0" stroke="#1c30d0" stroke-width="2"/>
  <line x1="0" y1="20" x2="320" y2="20" stroke="#1c30d0" stroke-width="1"/>
  <line x1="0" y1="40" x2="320" y2="40" stroke="#1c30d0" stroke-width="1"/>
  <line x1="0" y1="60" x2="320" y2="60" stroke="#1c30d0" stroke-width="1"/>
  <line x1="0" y1="80" x2="320" y2="80" stroke="#1c30d0" stroke-width="1"/>
  <line x1="0" y1="100" x2="320" y2="100" stroke="#1c30d0" stroke-width="1"/>
  <line x1="0" y1="120" x2="320" y2="120" stroke="#1c30d0" stroke-width="1"/>
  <line x1="0" y1="140" x2="320" y2="140" stroke="#1c30d0" stroke-width="1"/>
  <line x1="0" y1="160" x2="320" y2="160" stroke="#1c30d0" stroke-width="1"/>
  <line x1="0" y1="180" x2="320" y2="180" stroke="#1c30d0" stroke-width="1"/>
  <line x1="0" y1="200" x2="320" y2="200" stroke="#1c30d0" stroke-width="1"/>
  <line x1="0" y1="220" x2="320" y2="220" stroke="#1c30d0" stroke-width="1"/>
  <line x1="0" y1="240" x2="320" y2="240" stroke="#1c30d0" stroke-width="1"/>
  <line x1="0" y1="260" x2="320" y2="260" stroke="#1c30d0" stroke-width="1"/>
  <line x1="0" y1="280" x2="320" y2="280" stroke="#1c30d0" stroke-width="1"/>
  <line x1="0" y1="300" x2="320" y2="300" stroke="#1c30d0" stroke-width="1"/>
  <line x1="0" y1="320" x2="320" y2="320" stroke="#1c30d0" stroke-width="2"/>
</svg>