<svg width="480" height="480" xmlns="http://www.w3.org/2000/svg">
  <defs>
    <style>
      .pixel { shape-rendering: pixelated; }
    </style>
  </defs>
  <rect x="180" y="120" width="20" height="20" fill="#ffffff" class="pixel" stroke="#b4b4b4" />
  <rect x="200" y="120" width="20" height="20" fill="#808080" class="pixel" stroke="#b4b4b4" />
  <rect x="220" y="120" width="20" height="20" fill="#e6e6e6" class="pixel" stroke="#b4b4b4" />
  <rect x="240" y="120" width="20" height="20" fill="#e6e6e6" class="pixel" stroke="#b4b4b4" />
  <rect x="260" y="120" width="20" height="20" fill="#ffffff" class="pixel" stroke="#b4b4b4" />
  <rect x="140" y="140" width="20" height="20" fill="#ffffff" class="pixel" stroke="#b4b4b4" />
  <rect x="160" y="140" width="20" height="20" fill="#ffffff" class="pixel" stroke="#b4b4b4" />
  <rect x="180" y="140" width="20" height="20" fill="#808080" class="pixel" stroke="#b4b4b4" />
  <rect x="200" y="140" width="20" height="20" fill="#adadad" class="pixel" stroke="#b4b4b4" />
  <rect x="220" y="140" width="20" height="20" fill="#808080" class="pixel" stroke="#b4b4b4" />
  <rect x="240" y="140" width="20" height="20" fill="#e6e6e6" class="pixel" stroke="#b4b4b4" />
  <rect x="260" y="140" width="20" height="20" fill="#e6e6e6" class="pixel" stroke="#b4b4b4" />
  <rect x="280" y="140" width="20" height="20" fill="#ffffff" class="pixel" stroke="#b4b4b4" />
  <rect x="300" y="140" width="20" height="20" fill="#ffffff" class="pixel" stroke="#b4b4b4" />
  <rect x="100" y="160" width="20" height="20" fill="#575757" class="pixel" stroke="#b4b4b4" />
  <rect x="120" y="160" width="20" height="20" fill="#ffffff" class="pixel" stroke="#b4b4b4" />
  <rect x="140" y="160" width="20" height="20" fill="#ffffff" class="pixel" stroke="#b4b4b4" />
  <rect x="160" y="160" width="20" height="20" fill="#808080" class="pixel" stroke="#b4b4b4" />
  <rect x="180" y="160" width="20" height="20" fill="#adadad" class="pixel" stroke="#b4b4b4" />
  <rect x="200" y="160" width="20" height="20" fill="#808080" class="pixel" stroke="#b4b4b4" />
  <rect x="220" y="160" width="20" height="20" fill="#adadad" class="pixel" stroke="#b4b4b4" />
  <rect x="240" y="160" width="20" height="20" fill="#e6e6e6" class="pixel" stroke="#b4b4b4" />
  <rect x="260" y="160" width="20" height="20" fill="#e6e6e6" class="pixel" stroke="#b4b4b4" />
  <rect x="280" y="160" width="20" height="20" fill="#ffffff" class="pixel" stroke="#b4b4b4" />
  <rect x="300" y="160" width="20" height="20" fill="#ffffff" class="pixel" stroke="#b4b4b4" />
  <rect x="320" y="160" width="20" height="20" fill="#ffffff" class="pixel" stroke="#b4b4b4" />
  <rect x="340" y="160" width="20" height="20" fill="#666666" class="pixel" stroke="#b4b4b4" />
  <rect x="360" y="160" width="20" height="20" fill="#666666" class="pixel" stroke="#b4b4b4" />
  <rect x="60" y="180" width="20" height="20" fill="#575757" class="pixel" stroke="#b4b4b4" />
  <rect x="80" y="180" width="20" height="20" fill="#575757" class="pixel" stroke="#b4b4b4" />
  <rect x="100" y="180" width="20" height="20" fill="#dadada" class="pixel" stroke="#b4b4b4" />
  <rect x="120" y="180" width="20" height="20" fill="#ffffff" class="pixel" stroke="#b4b4b4" />
  <rect x="140" y="180" width="20" height="20" fill="#ffffff" class="pixel" stroke="#b4b4b4" />
  <rect x="160" y="180" width="20" height="20" fill="#393939" class="pixel" stroke="#b4b4b4" />
  <rect x="180" y="180" width="20" height="20" fill="#808080" class="pixel" stroke="#b4b4b4" />
  <rect x="200" y="180" width="20" height="20" fill="#adadad" class="pixel" stroke="#b4b4b4" />
  <rect x="220" y="180" width="20" height="20" fill="#393939" class="pixel" stroke="#b4b4b4" />
  <rect x="240" y="180" width="20" height="20" fill="#393939" class="pixel" stroke="#b4b4b4" />
  <rect x="260" y="180" width="20" height="20" fill="#393939" class="pixel" stroke="#b4b4b4" />
  <rect x="280" y="180" width="20" height="20" fill="#ffffff" class="pixel" stroke="#b4b4b4" />
  <rect x="300" y="180" width="20" height="20" fill="#ffffff" class="pixel" stroke="#b4b4b4" />
  <rect x="320" y="180" width="20" height="20" fill="#ffffff" class="pixel" stroke="#b4b4b4" />
  <rect x="340" y="180" width="20" height="20" fill="#666666" class="pixel" stroke="#b4b4b4" />
  <rect x="360" y="180" width="20" height="20" fill="#666666" class="pixel" stroke="#b4b4b4" />
  <rect x="380" y="180" width="20" height="20" fill="#666666" class="pixel" stroke="#b4b4b4" />
  <rect x="400" y="180" width="20" height="20" fill="#575757" class="pixel" stroke="#b4b4b4" />
  <rect x="40" y="200" width="20" height="20" fill="#575757" class="pixel" stroke="#b4b4b4" />
  <rect x="60" y="200" width="20" height="20" fill="#dadada" class="pixel" stroke="#b4b4b4" />
  <rect x="80" y="200" width="20" height="20" fill="#dadada" class="pixel" stroke="#b4b4b4" />
  <rect x="100" y="200" width="20" height="20" fill="#ffffff" class="pixel" stroke="#b4b4b4" />
  <rect x="120" y="200" width="20" height="20" fill="#ffffff" class="pixel" stroke="#b4b4b4" />
  <rect x="140" y="200" width="20" height="20" fill="#ebebeb" class="pixel" stroke="#b4b4b4" />
  <rect x="160" y="200" width="20" height="20" fill="#ebebeb" class="pixel" stroke="#b4b4b4" />
  <rect x="180" y="200" width="20" height="20" fill="#393939" class="pixel" stroke="#b4b4b4" />
  <rect x="200" y="200" width="20" height="20" fill="#393939" class="pixel" stroke="#b4b4b4" />
  <rect x="220" y="200" width="20" height="20" fill="#393939" class="pixel" stroke="#b4b4b4" />
  <rect x="240" y="200" width="20" height="20" fill="#ffffff" class="pixel" stroke="#b4b4b4" />
  <rect x="260" y="200" width="20" height="20" fill="#ffffff" class="pixel" stroke="#b4b4b4" />
  <rect x="280" y="200" width="20" height="20" fill="#ebebeb" class="pixel" stroke="#b4b4b4" />
  <rect x="300" y="200" width="20" height="20" fill="#ebebeb" class="pixel" stroke="#b4b4b4" />
  <rect x="320" y="200" width="20" height="20" fill="#ffffff" class="pixel" stroke="#b4b4b4" />
  <rect x="340" y="200" width="20" height="20" fill="#ffffff" class="pixel" stroke="#b4b4b4" />
  <rect x="360" y="200" width="20" height="20" fill="#666666" class="pixel" stroke="#b4b4b4" />
  <rect x="380" y="200" width="20" height="20" fill="#666666" class="pixel" stroke="#b4b4b4" />
  <rect x="400" y="200" width="20" height="20" fill="#dadada" class="pixel" stroke="#b4b4b4" />
  <rect x="420" y="200" width="20" height="20" fill="#575757" class="pixel" stroke="#b4b4b4" />
  <rect x="20" y="220" width="20" height="20" fill="#575757" class="pixel" stroke="#b4b4b4" />
  <rect x="40" y="220" width="20" height="20" fill="#dadada" class="pixel" stroke="#b4b4b4" />
  <rect x="60" y="220" width="20" height="20" fill="#dadada" class="pixel" stroke="#b4b4b4" />
  <rect x="80" y="220" width="20" height="20" fill="#dadada" class="pixel" stroke="#b4b4b4" />
  <rect x="100" y="220" width="20" height="20" fill="#ffffff" class="pixel" stroke="#b4b4b4" />
  <rect x="120" y="220" width="20" height="20" fill="#ffffff" class="pixel" stroke="#b4b4b4" />
  <rect x="140" y="220" width="20" height="20" fill="#ffffff" class="pixel" stroke="#b4b4b4" />
  <rect x="160" y="220" width="20" height="20" fill="#ffffff" class="pixel" stroke="#b4b4b4" />
  <rect x="180" y="220" width="20" height="20" fill="#ebebeb" class="pixel" stroke="#b4b4b4" />
  <rect x="200" y="220" width="20" height="20" fill="#393939" class="pixel" stroke="#b4b4b4" />
  <rect x="220" y="220" width="20" height="20" fill="#ffffff" class="pixel" stroke="#b4b4b4" />
  <rect x="240" y="220" width="20" height="20" fill="#ebebeb" class="pixel" stroke="#b4b4b4" />
  <rect x="260" y="220" width="20" height="20" fill="#ebebeb" class="pixel" stroke="#b4b4b4" />
  <rect x="280" y="220" width="20" height="20" fill="#ffffff" class="pixel" stroke="#b4b4b4" />
  <rect x="300" y="220" width="20" height="20" fill="#ffffff" class="pixel" stroke="#b4b4b4" />
  <rect x="320" y="220" width="20" height="20" fill="#ffffff" class="pixel" stroke="#b4b4b4" />
  <rect x="340" y="220" width="20" height="20" fill="#ffffff" class="pixel" stroke="#b4b4b4" />
  <rect x="360" y="220" width="20" height="20" fill="#666666" class="pixel" stroke="#b4b4b4" />
  <rect x="380" y="220" width="20" height="20" fill="#666666" class="pixel" stroke="#b4b4b4" />
  <rect x="400" y="220" width="20" height="20" fill="#dadada" class="pixel" stroke="#b4b4b4" />
  <rect x="420" y="220" width="20" height="20" fill="#dadada" class="pixel" stroke="#b4b4b4" />
  <rect x="440" y="220" width="20" height="20" fill="#575757" class="pixel" stroke="#b4b4b4" />
  <rect x="20" y="240" width="20" height="20" fill="#575757" class="pixel" stroke="#b4b4b4" />
  <rect x="40" y="240" width="20" height="20" fill="#dadada" class="pixel" stroke="#b4b4b4" />
  <rect x="60" y="240" width="20" height="20" fill="#dadada" class="pixel" stroke="#b4b4b4" />
  <rect x="80" y="240" width="20" height="20" fill="#dadada" class="pixel" stroke="#b4b4b4" />
  <rect x="100" y="240" width="20" height="20" fill="#ffffff" class="pixel" stroke="#b4b4b4" />
  <rect x="120" y="240" width="20" height="20" fill="#ffffff" class="pixel" stroke="#b4b4b4" />
  <rect x="140" y="240" width="20" height="20" fill="#ffffff" class="pixel" stroke="#b4b4b4" />
  <rect x="160" y="240" width="20" height="20" fill="#ffffff" class="pixel" stroke="#b4b4b4" />
  <rect x="180" y="240" width="20" height="20" fill="#393939" class="pixel" stroke="#b4b4b4" />
  <rect x="200" y="240" width="20" height="20" fill="#ffffff" class="pixel" stroke="#b4b4b4" />
  <rect x="220" y="240" width="20" height="20" fill="#ebebeb" class="pixel" stroke="#b4b4b4" />
  <rect x="240" y="240" width="20" height="20" fill="#ffffff" class="pixel" stroke="#b4b4b4" />
  <rect x="260" y="240" width="20" height="20" fill="#ffffff" class="pixel" stroke="#b4b4b4" />
  <rect x="280" y="240" width="20" height="20" fill="#ffffff" class="pixel" stroke="#b4b4b4" />
  <rect x="300" y="240" width="20" height="20" fill="#ffffff" class="pixel" stroke="#b4b4b4" />
  <rect x="320" y="240" width="20" height="20" fill="#ffffff" class="pixel" stroke="#b4b4b4" />
  <rect x="340" y="240" width="20" height="20" fill="#ffffff" class="pixel" stroke="#b4b4b4" />
  <rect x="360" y="240" width="20" height="20" fill="#666666" class="pixel" stroke="#b4b4b4" />
  <rect x="380" y="240" width="20" height="20" fill="#dadada" class="pixel" stroke="#b4b4b4" />
  <rect x="400" y="240" width="20" height="20" fill="#dadada" class="pixel" stroke="#b4b4b4" />
  <rect x="420" y="240" width="20" height="20" fill="#dadada" class="pixel" stroke="#b4b4b4" />
  <rect x="440" y="240" width="20" height="20" fill="#575757" class="pixel" stroke="#b4b4b4" />
  <rect x="20" y="260" width="20" height="20" fill="#575757" class="pixel" stroke="#b4b4b4" />
  <rect x="40" y="260" width="20" height="20" fill="#dadada" class="pixel" stroke="#b4b4b4" />
  <rect x="60" y="260" width="20" height="20" fill="#dadada" class="pixel" stroke="#b4b4b4" />
  <rect x="80" y="260" width="20" height="20" fill="#dadada" class="pixel" stroke="#b4b4b4" />
  <rect x="100" y="260" width="20" height="20" fill="#393939" class="pixel" stroke="#b4b4b4" />
  <rect x="120" y="260" width="20" height="20" fill="#ffffff" class="pixel" stroke="#b4b4b4" />
  <rect x="140" y="260" width="20" height="20" fill="#ffffff" class="pixel" stroke="#b4b4b4" />
  <rect x="160" y="260" width="20" height="20" fill="#ffffff" class="pixel" stroke="#b4b4b4" />
  <rect x="180" y="260" width="20" height="20" fill="#393939" class="pixel" stroke="#b4b4b4" />
  <rect x="200" y="260" width="20" height="20" fill="#ffffff" class="pixel" stroke="#b4b4b4" />
  <rect x="220" y="260" width="20" height="20" fill="#ebebeb" class="pixel" stroke="#b4b4b4" />
  <rect x="240" y="260" width="20" height="20" fill="#ffffff" class="pixel" stroke="#b4b4b4" />
  <rect x="260" y="260" width="20" height="20" fill="#ffffff" class="pixel" stroke="#b4b4b4" />
  <rect x="280" y="260" width="20" height="20" fill="#ffffff" class="pixel" stroke="#b4b4b4" />
  <rect x="300" y="260" width="20" height="20" fill="#ffffff" class="pixel" stroke="#b4b4b4" />
  <rect x="320" y="260" width="20" height="20" fill="#ffffff" class="pixel" stroke="#b4b4b4" />
  <rect x="340" y="260" width="20" height="20" fill="#666666" class="pixel" stroke="#b4b4b4" />
  <rect x="360" y="260" width="20" height="20" fill="#dadada" class="pixel" stroke="#b4b4b4" />
  <rect x="380" y="260" width="20" height="20" fill="#dadada" class="pixel" stroke="#b4b4b4" />
  <rect x="400" y="260" width="20" height="20" fill="#dadada" class="pixel" stroke="#b4b4b4" />
  <rect x="420" y="260" width="20" height="20" fill="#dadada" class="pixel" stroke="#b4b4b4" />
  <rect x="440" y="260" width="20" height="20" fill="#575757" class="pixel" stroke="#b4b4b4" />
  <rect x="40" y="280" width="20" height="20" fill="#575757" class="pixel" stroke="#b4b4b4" />
  <rect x="60" y="280" width="20" height="20" fill="#dadada" class="pixel" stroke="#b4b4b4" />
  <rect x="80" y="280" width="20" height="20" fill="#dadada" class="pixel" stroke="#b4b4b4" />
  <rect x="100" y="280" width="20" height="20" fill="#dadada" class="pixel" stroke="#b4b4b4" />
  <rect x="120" y="280" width="20" height="20" fill="#393939" class="pixel" stroke="#b4b4b4" />
  <rect x="140" y="280" width="20" height="20" fill="#393939" class="pixel" stroke="#b4b4b4" />
  <rect x="160" y="280" width="20" height="20" fill="#393939" class="pixel" stroke="#b4b4b4" />
  <rect x="180" y="280" width="20" height="20" fill="#393939" class="pixel" stroke="#b4b4b4" />
  <rect x="200" y="280" width="20" height="20" fill="#ffffff" class="pixel" stroke="#b4b4b4" />
  <rect x="220" y="280" width="20" height="20" fill="#ebebeb" class="pixel" stroke="#b4b4b4" />
  <rect x="240" y="280" width="20" height="20" fill="#ffffff" class="pixel" stroke="#b4b4b4" />
  <rect x="260" y="280" width="20" height="20" fill="#ffffff" class="pixel" stroke="#b4b4b4" />
  <rect x="280" y="280" width="20" height="20" fill="#ffffff" class="pixel" stroke="#b4b4b4" />
  <rect x="300" y="280" width="20" height="20" fill="#dadada" class="pixel" stroke="#b4b4b4" />
  <rect x="320" y="280" width="20" height="20" fill="#dadada" class="pixel" stroke="#b4b4b4" />
  <rect x="340" y="280" width="20" height="20" fill="#dadada" class="pixel" stroke="#b4b4b4" />
  <rect x="360" y="280" width="20" height="20" fill="#dadada" class="pixel" stroke="#b4b4b4" />
  <rect x="380" y="280" width="20" height="20" fill="#dadada" class="pixel" stroke="#b4b4b4" />
  <rect x="400" y="280" width="20" height="20" fill="#dadada" class="pixel" stroke="#b4b4b4" />
  <rect x="420" y="280" width="20" height="20" fill="#575757" class="pixel" stroke="#b4b4b4" />
  <rect x="40" y="300" width="20" height="20" fill="#575757" class="pixel" stroke="#b4b4b4" />
  <rect x="60" y="300" width="20" height="20" fill="#696969" class="pixel" stroke="#b4b4b4" />
  <rect x="80" y="300" width="20" height="20" fill="#696969" class="pixel" stroke="#b4b4b4" />
  <rect x="100" y="300" width="20" height="20" fill="#dadada" class="pixel" stroke="#b4b4b4" />
  <rect x="120" y="300" width="20" height="20" fill="#dadada" class="pixel" stroke="#b4b4b4" />
  <rect x="140" y="300" width="20" height="20" fill="#dadada" class="pixel" stroke="#b4b4b4" />
  <rect x="160" y="300" width="20" height="20" fill="#393939" class="pixel" stroke="#b4b4b4" />
  <rect x="180" y="300" width="20" height="20" fill="#393939" class="pixel" stroke="#b4b4b4" />
  <rect x="200" y="300" width="20" height="20" fill="#393939" class="pixel" stroke="#b4b4b4" />
  <rect x="220" y="300" width="20" height="20" fill="#ffffff" class="pixel" stroke="#b4b4b4" />
  <rect x="240" y="300" width="20" height="20" fill="#ffffff" class="pixel" stroke="#b4b4b4" />
  <rect x="260" y="300" width="20" height="20" fill="#393939" class="pixel" stroke="#b4b4b4" />
  <rect x="280" y="300" width="20" height="20" fill="#393939" class="pixel" stroke="#b4b4b4" />
  <rect x="300" y="300" width="20" height="20" fill="#dadada" class="pixel" stroke="#b4b4b4" />
  <rect x="320" y="300" width="20" height="20" fill="#dadada" class="pixel" stroke="#b4b4b4" />
  <rect x="340" y="300" width="20" height="20" fill="#dadada" class="pixel" stroke="#b4b4b4" />
  <rect x="360" y="300" width="20" height="20" fill="#dadada" class="pixel" stroke="#b4b4b4" />
  <rect x="380" y="300" width="20" height="20" fill="#696969" class="pixel" stroke="#b4b4b4" />
  <rect x="400" y="300" width="20" height="20" fill="#696969" class="pixel" stroke="#b4b4b4" />
  <rect x="420" y="300" width="20" height="20" fill="#575757" class="pixel" stroke="#b4b4b4" />
  <rect x="60" y="320" width="20" height="20" fill="#575757" class="pixel" stroke="#b4b4b4" />
  <rect x="80" y="320" width="20" height="20" fill="#696969" class="pixel" stroke="#b4b4b4" />
  <rect x="100" y="320" width="20" height="20" fill="#696969" class="pixel" stroke="#b4b4b4" />
  <rect x="120" y="320" width="20" height="20" fill="#696969" class="pixel" stroke="#b4b4b4" />
  <rect x="140" y="320" width="20" height="20" fill="#696969" class="pixel" stroke="#b4b4b4" />
  <rect x="160" y="320" width="20" height="20" fill="#dadada" class="pixel" stroke="#b4b4b4" />
  <rect x="180" y="320" width="20" height="20" fill="#dadada" class="pixel" stroke="#b4b4b4" />
  <rect x="200" y="320" width="20" height="20" fill="#dadada" class="pixel" stroke="#b4b4b4" />
  <rect x="220" y="320" width="20" height="20" fill="#393939" class="pixel" stroke="#b4b4b4" />
  <rect x="240" y="320" width="20" height="20" fill="#393939" class="pixel" stroke="#b4b4b4" />
  <rect x="260" y="320" width="20" height="20" fill="#dadada" class="pixel" stroke="#b4b4b4" />
  <rect x="280" y="320" width="20" height="20" fill="#dadada" class="pixel" stroke="#b4b4b4" />
  <rect x="300" y="320" width="20" height="20" fill="#dadada" class="pixel" stroke="#b4b4b4" />
  <rect x="320" y="320" width="20" height="20" fill="#696969" class="pixel" stroke="#b4b4b4" />
  <rect x="340" y="320" width="20" height="20" fill="#696969" class="pixel" stroke="#b4b4b4" />
  <rect x="360" y="320" width="20" height="20" fill="#696969" class="pixel" stroke="#b4b4b4" />
  <rect x="380" y="320" width="20" height="20" fill="#696969" class="pixel" stroke="#b4b4b4" />
  <rect x="400" y="320" width="20" height="20" fill="#575757" class="pixel" stroke="#b4b4b4" />
  <rect x="80" y="340" width="20" height="20" fill="#575757" class="pixel" stroke="#b4b4b4" />
  <rect x="100" y="340" width="20" height="20" fill="#575757" class="pixel" stroke="#b4b4b4" />
  <rect x="120" y="340" width="20" height="20" fill="#696969" class="pixel" stroke="#b4b4b4" />
  <rect x="140" y="340" width="20" height="20" fill="#696969" class="pixel" stroke="#b4b4b4" />
  <rect x="160" y="340" width="20" height="20" fill="#696969" class="pixel" stroke="#b4b4b4" />
  <rect x="180" y="340" width="20" height="20" fill="#696969" class="pixel" stroke="#b4b4b4" />
  <rect x="200" y="340" width="20" height="20" fill="#696969" class="pixel" stroke="#b4b4b4" />
  <rect x="220" y="340" width="20" height="20" fill="#696969" class="pixel" stroke="#b4b4b4" />
  <rect x="240" y="340" width="20" height="20" fill="#696969" class="pixel" stroke="#b4b4b4" />
  <rect x="260" y="340" width="20" height="20" fill="#696969" class="pixel" stroke="#b4b4b4" />
  <rect x="280" y="340" width="20" height="20" fill="#696969" class="pixel" stroke="#b4b4b4" />
  <rect x="300" y="340" width="20" height="20" fill="#696969" class="pixel" stroke="#b4b4b4" />
  <rect x="320" y="340" width="20" height="20" fill="#696969" class="pixel" stroke="#b4b4b4" />
  <rect x="340" y="340" width="20" height="20" fill="#696969" class="pixel" stroke="#b4b4b4" />
  <rect x="360" y="340" width="20" height="20" fill="#575757" class="pixel" stroke="#b4b4b4" />
  <rect x="380" y="340" width="20" height="20" fill="#575757" class="pixel" stroke="#b4b4b4" />
  <rect x="120" y="360" width="20" height="20" fill="#575757" class="pixel" stroke="#b4b4b4" />
  <rect x="140" y="360" width="20" height="20" fill="#575757" class="pixel" stroke="#b4b4b4" />
  <rect x="160" y="360" width="20" height="20" fill="#575757" class="pixel" stroke="#b4b4b4" />
  <rect x="180" y="360" width="20" height="20" fill="#696969" class="pixel" stroke="#b4b4b4" />
  <rect x="200" y="360" width="20" height="20" fill="#696969" class="pixel" stroke="#b4b4b4" />
  <rect x="220" y="360" width="20" height="20" fill="#696969" class="pixel" stroke="#b4b4b4" />
  <rect x="240" y="360" width="20" height="20" fill="#696969" class="pixel" stroke="#b4b4b4" />
  <rect x="260" y="360" width="20" height="20" fill="#696969" class="pixel" stroke="#b4b4b4" />
  <rect x="280" y="360" width="20" height="20" fill="#696969" class="pixel" stroke="#b4b4b4" />
  <rect x="300" y="360" width="20" height="20" fill="#575757" class="pixel" stroke="#b4b4b4" />
  <rect x="320" y="360" width="20" height="20" fill="#575757" class="pixel" stroke="#b4b4b4" />
  <rect x="340" y="360" width="20" height="20" fill="#575757" class="pixel" stroke="#b4b4b4" />
  <rect x="180" y="380" width="20" height="20" fill="#575757" class="pixel" stroke="#b4b4b4" />
  <rect x="200" y="380" width="20" height="20" fill="#575757" class="pixel" stroke="#b4b4b4" />
  <rect x="220" y="380" width="20" height="20" fill="#575757" class="pixel" stroke="#b4b4b4" />
  <rect x="240" y="380" width="20" height="20" fill="#575757" class="pixel" stroke="#b4b4b4" />
  <rect x="260" y="380" width="20" height="20" fill="#575757" class="pixel" stroke="#b4b4b4" />
  <rect x="280" y="380" width="20" height="20" fill="#575757" class="pixel" stroke="#b4b4b4" />
</svg>