<svg width="480" height="480" xmlns="http://www.w3.org/2000/svg">
  <defs>
    <style>
      .pixel { shape-rendering: pixelated; }
      .stitch { fill: currentColor; }
      .symbol { font-family: monospace; font-size: 15px; text-anchor: middle; dominant-baseline: middle; }
    </style>
  </defs>
  <text x="190" y="132" fill="#000000" class="symbol">*</text>
  <text x="210" y="132" fill="#000000" class="symbol">▲</text>
  <text x="230" y="132" fill="#000000" class="symbol">◆</text>
  <text x="250" y="132" fill="#000000" class="symbol">◆</text>
  <text x="270" y="132" fill="#000000" class="symbol">*</text>
  <text x="150" y="152" fill="#000000" class="symbol">*</text>
  <text x="170" y="152" fill="#000000" class="symbol">*</text>
  <text x="190" y="152" fill="#000000" class="symbol">▲</text>
  <text x="210" y="152" fill="#000000" class="symbol">★</text>
  <text x="230" y="152" fill="#000000" class="symbol">▲</text>
  <text x="250" y="152" fill="#000000" class="symbol">◆</text>
  <text x="270" y="152" fill="#000000" class="symbol">◆</text>
  <text x="290" y="152" fill="#000000" class="symbol">*</text>
  <text x="310" y="152" fill="#000000" class="symbol">*</text>
  <text x="110" y="172" fill="#000000" class="symbol">+</text>
  <text x="130" y="172" fill="#000000" class="symbol">*</text>
  <text x="150" y="172" fill="#000000" class="symbol">*</text>
  <text x="170" y="172" fill="#000000" class="symbol">▲</text>
  <text x="190" y="172" fill="#000000" class="symbol">★</text>
  <text x="210" y="172" fill="#000000" class="symbol">▲</text>
  <text x="230" y="172" fill="#000000" class="symbol">★</text>
  <text x="250" y="172" fill="#000000" class="symbol">◆</text>
  <text x="270" y="172" fill="#000000" class="symbol">◆</text>
  <text x="290" y="172" fill="#000000" class="symbol">*</text>
  <text x="310" y="172" fill="#000000" class="symbol">*</text>
  <text x="330" y="172" fill="#000000" class="symbol">*</text>
  <text x="350" y="172" fill="#000000" class="symbol">●</text>
  <text x="370" y="172" fill="#000000" class="symbol">●</text>
  <text x="70" y="192" fill="#000000" class="symbol">+</text>
  <text x="90" y="192" fill="#000000" class="symbol">+</text>
  <text x="110" y="192" fill="#000000" class="symbol">○</text>
  <text x="130" y="192" fill="#000000" class="symbol">*</text>
  <text x="150" y="192" fill="#000000" class="symbol">*</text>
  <text x="170" y="192" fill="#000000" class="symbol">×</text>
  <text x="190" y="192" fill="#000000" class="symbol">▲</text>
  <text x="210" y="192" fill="#000000" class="symbol">★</text>
  <text x="230" y="192" fill="#000000" class="symbol">×</text>
  <text x="250" y="192" fill="#000000" class="symbol">×</text>
  <text x="270" y="192" fill="#000000" class="symbol">×</text>
  <text x="290" y="192" fill="#000000" class="symbol">*</text>
  <text x="310" y="192" fill="#000000" class="symbol">*</text>
  <text x="330" y="192" fill="#000000" class="symbol">*</text>
  <text x="350" y="192" fill="#000000" class="symbol">●</text>
  <text x="370" y="192" fill="#000000" class="symbol">●</text>
  <text x="390" y="192" fill="#000000" class="symbol">●</text>
  <text x="410" y="192" fill="#000000" class="symbol">+</text>
  <text x="50" y="212" fill="#000000" class="symbol">+</text>
  <text x="70" y="212" fill="#000000" class="symbol">○</text>
  <text x="90" y="212" fill="#000000" class="symbol">○</text>
  <text x="110" y="212" fill="#000000" class="symbol">*</text>
  <text x="130" y="212" fill="#000000" class="symbol">*</text>
  <text x="150" y="212" fill="#000000" class="symbol">■</text>
  <text x="170" y="212" fill="#000000" class="symbol">■</text>
  <text x="190" y="212" fill="#000000" class="symbol">×</text>
  <text x="210" y="212" fill="#000000" class="symbol">×</text>
  <text x="230" y="212" fill="#000000" class="symbol">×</text>
  <text x="250" y="212" fill="#000000" class="symbol">*</text>
  <text x="270" y="212" fill="#000000" class="symbol">*</text>
  <text x="290" y="212" fill="#000000" class="symbol">■</text>
  <text x="310" y="212" fill="#000000" class="symbol">■</text>
  <text x="330" y="212" fill="#000000" class="symbol">*</text>
  <text x="350" y="212" fill="#000000" class="symbol">*</text>
  <text x="370" y="212" fill="#000000" class="symbol">●</text>
  <text x="390" y="212" fill="#000000" class="symbol">●</text>
  <text x="410" y="212" fill="#000000" class="symbol">○</text>
  <text x="430" y="212" fill="#000000" class="symbol">+</text>
  <text x="30" y="232" fill="#000000" class="symbol">+</text>
  <text x="50" y="232" fill="#000000" class="symbol">○</text>
  <text x="70" y="232" fill="#000000" class="symbol">○</text>
  <text x="90" y="232" fill="#000000" class="symbol">○</text>
  <text x="110" y="232" fill="#000000" class="symbol">*</text>
  <text x="130" y="232" fill="#000000" class="symbol">*</text>
  <text x="150" y="232" fill="#000000" class="symbol">*</text>
  <text x="170" y="232" fill="#000000" class="symbol">*</text>
  <text x="190" y="232" fill="#000000" class="symbol">■</text>
  <text x="210" y="232" fill="#000000" class="symbol">×</text>
  <text x="230" y="232" fill="#000000" class="symbol">*</text>
  <text x="250" y="232" fill="#000000" class="symbol">■</text>
  <text x="270" y="232" fill="#000000" class="symbol">■</text>
  <text x="290" y="232" fill="#000000" class="symbol">*</text>
  <text x="310" y="232" fill="#000000" class="symbol">*</text>
  <text x="330" y="232" fill="#000000" class="symbol">*</text>
  <text x="350" y="232" fill="#000000" class="symbol">*</text>
  <text x="370" y="232" fill="#000000" class="symbol">●</text>
  <text x="390" y="232" fill="#000000" class="symbol">●</text>
  <text x="410" y="232" fill="#000000" class="symbol">○</text>
  <text x="430" y="232" fill="#000000" class="symbol">○</text>
  <text x="450" y="232" fill="#000000" class="symbol">+</text>
  <text x="30" y="252" fill="#000000" class="symbol">+</text>
  <text x="50" y="252" fill="#000000" class="symbol">○</text>
  <text x="70" y="252" fill="#000000" class="symbol">○</text>
  <text x="90" y="252" fill="#000000" class="symbol">○</text>
  <text x="110" y="252" fill="#000000" class="symbol">*</text>
  <text x="130" y="252" fill="#000000" class="symbol">*</text>
  <text x="150" y="252" fill="#000000" class="symbol">*</text>
  <text x="170" y="252" fill="#000000" class="symbol">*</text>
  <text x="190" y="252" fill="#000000" class="symbol">×</text>
  <text x="210" y="252" fill="#000000" class="symbol">*</text>
  <text x="230" y="252" fill="#000000" class="symbol">■</text>
  <text x="250" y="252" fill="#000000" class="symbol">*</text>
  <text x="270" y="252" fill="#000000" class="symbol">*</text>
  <text x="290" y="252" fill="#000000" class="symbol">*</text>
  <text x="310" y="252" fill="#000000" class="symbol">*</text>
  <text x="330" y="252" fill="#000000" class="symbol">*</text>
  <text x="350" y="252" fill="#000000" class="symbol">*</text>
  <text x="370" y="252" fill="#000000" class="symbol">●</text>
  <text x="390" y="252" fill="#000000" class="symbol">○</text>
  <text x="410" y="252" fill="#000000" class="symbol">○</text>
  <text x="430" y="252" fill="#000000" class="symbol">○</text>
  <text x="450" y="252" fill="#000000" class="symbol">+</text>
  <text x="30" y="272" fill="#000000" class="symbol">+</text>
  <text x="50" y="272" fill="#000000" class="symbol">○</text>
  <text x="70" y="272" fill="#000000" class="symbol">○</text>
  <text x="90" y="272" fill="#000000" class="symbol">○</text>
  <text x="110" y="272" fill="#000000" class="symbol">×</text>
  <text x="130" y="272" fill="#000000" class="symbol">*</text>
  <text x="150" y="272" fill="#000000" class="symbol">*</text>
  <text x="170" y="272" fill="#000000" class="symbol">*</text>
  <text x="190" y="272" fill="#000000" class="symbol">×</text>
  <text x="210" y="272" fill="#000000" class="symbol">*</text>
  <text x="230" y="272" fill="#000000" class="symbol">■</text>
  <text x="250" y="272" fill="#000000" class="symbol">*</text>
  <text x="270" y="272" fill="#000000" class="symbol">*</text>
  <text x="290" y="272" fill="#000000" class="symbol">*</text>
  <text x="310" y="272" fill="#000000" class="symbol">*</text>
  <text x="330" y="272" fill="#000000" class="symbol">*</text>
  <text x="350" y="272" fill="#000000" class="symbol">●</text>
  <text x="370" y="272" fill="#000000" class="symbol">○</text>
  <text x="390" y="272" fill="#000000" class="symbol">○</text>
  <text x="410" y="272" fill="#000000" class="symbol">○</text>
  <text x="430" y="272" fill="#000000" class="symbol">○</text>
  <text x="450" y="272" fill="#000000" class="symbol">+</text>
  <text x="50" y="292" fill="#000000" class="symbol">+</text>
  <text x="70" y="292" fill="#000000" class="symbol">○</text>
  <text x="90" y="292" fill="#000000" class="symbol">○</text>
  <text x="110" y="292" fill="#000000" class="symbol">○</text>
  <text x="130" y="292" fill="#000000" class="symbol">×</text>
  <text x="150" y="292" fill="#000000" class="symbol">×</text>
  <text x="170" y="292" fill="#000000" class="symbol">×</text>
  <text x="190" y="292" fill="#000000" class="symbol">×</text>
  <text x="210" y="292" fill="#000000" class="symbol">*</text>
  <text x="230" y="292" fill="#000000" class="symbol">■</text>
  <text x="250" y="292" fill="#000000" class="symbol">*</text>
  <text x="270" y="292" fill="#000000" class="symbol">*</text>
  <text x="290" y="292" fill="#000000" class="symbol">*</text>
  <text x="310" y="292" fill="#000000" class="symbol">○</text>
  <text x="330" y="292" fill="#000000" class="symbol">○</text>
  <text x="350" y="292" fill="#000000" class="symbol">○</text>
  <text x="370" y="292" fill="#000000" class="symbol">○</text>
  <text x="390" y="292" fill="#000000" class="symbol">○</text>
  <text x="410" y="292" fill="#000000" class="symbol">○</text>
  <text x="430" y="292" fill="#000000" class="symbol">+</text>
  <text x="50" y="312" fill="#000000" class="symbol">+</text>
  <text x="70" y="312" fill="#000000" class="symbol">◇</text>
  <text x="90" y="312" fill="#000000" class="symbol">◇</text>
  <text x="110" y="312" fill="#000000" class="symbol">○</text>
  <text x="130" y="312" fill="#000000" class="symbol">○</text>
  <text x="150" y="312" fill="#000000" class="symbol">○</text>
  <text x="170" y="312" fill="#000000" class="symbol">×</text>
  <text x="190" y="312" fill="#000000" class="symbol">×</text>
  <text x="210" y="312" fill="#000000" class="symbol">×</text>
  <text x="230" y="312" fill="#000000" class="symbol">*</text>
  <text x="250" y="312" fill="#000000" class="symbol">*</text>
  <text x="270" y="312" fill="#000000" class="symbol">×</text>
  <text x="290" y="312" fill="#000000" class="symbol">×</text>
  <text x="310" y="312" fill="#000000" class="symbol">○</text>
  <text x="330" y="312" fill="#000000" class="symbol">○</text>
  <text x="350" y="312" fill="#000000" class="symbol">○</text>
  <text x="370" y="312" fill="#000000" class="symbol">○</text>
  <text x="390" y="312" fill="#000000" class="symbol">◇</text>
  <text x="410" y="312" fill="#000000" class="symbol">◇</text>
  <text x="430" y="312" fill="#000000" class="symbol">+</text>
  <text x="70" y="332" fill="#000000" class="symbol">+</text>
  <text x="90" y="332" fill="#000000" class="symbol">◇</text>
  <text x="110" y="332" fill="#000000" class="symbol">◇</text>
  <text x="130" y="332" fill="#000000" class="symbol">◇</text>
  <text x="150" y="332" fill="#000000" class="symbol">◇</text>
  <text x="170" y="332" fill="#000000" class="symbol">○</text>
  <text x="190" y="332" fill="#000000" class="symbol">○</text>
  <text x="210" y="332" fill="#000000" class="symbol">○</text>
  <text x="230" y="332" fill="#000000" class="symbol">×</text>
  <text x="250" y="332" fill="#000000" class="symbol">×</text>
  <text x="270" y="332" fill="#000000" class="symbol">○</text>
  <text x="290" y="332" fill="#000000" class="symbol">○</text>
  <text x="310" y="332" fill="#000000" class="symbol">○</text>
  <text x="330" y="332" fill="#000000" class="symbol">◇</text>
  <text x="350" y="332" fill="#000000" class="symbol">◇</text>
  <text x="370" y="332" fill="#000000" class="symbol">◇</text>
  <text x="390" y="332" fill="#000000" class="symbol">◇</text>
  <text x="410" y="332" fill="#000000" class="symbol">+</text>
  <text x="90" y="352" fill="#000000" class="symbol">+</text>
  <text x="110" y="352" fill="#000000" class="symbol">+</text>
  <text x="130" y="352" fill="#000000" class="symbol">◇</text>
  <text x="150" y="352" fill="#000000" class="symbol">◇</text>
  <text x="170" y="352" fill="#000000" class="symbol">◇</text>
  <text x="190" y="352" fill="#000000" class="symbol">◇</text>
  <text x="210" y="352" fill="#000000" class="symbol">◇</text>
  <text x="230" y="352" fill="#000000" class="symbol">◇</text>
  <text x="250" y="352" fill="#000000" class="symbol">◇</text>
  <text x="270" y="352" fill="#000000" class="symbol">◇</text>
  <text x="290" y="352" fill="#000000" class="symbol">◇</text>
  <text x="310" y="352" fill="#000000" class="symbol">◇</text>
  <text x="330" y="352" fill="#000000" class="symbol">◇</text>
  <text x="350" y="352" fill="#000000" class="symbol">◇</text>
  <text x="370" y="352" fill="#000000" class="symbol">+</text>
  <text x="390" y="352" fill="#000000" class="symbol">+</text>
  <text x="130" y="372" fill="#000000" class="symbol">+</text>
  <text x="150" y="372" fill="#000000" class="symbol">+</text>
  <text x="170" y="372" fill="#000000" class="symbol">+</text>
  <text x="190" y="372" fill="#000000" class="symbol">◇</text>
  <text x="210" y="372" fill="#000000" class="symbol">◇</text>
  <text x="230" y="372" fill="#000000" class="symbol">◇</text>
  <text x="250" y="372" fill="#000000" class="symbol">◇</text>
  <text x="270" y="372" fill="#000000" class="symbol">◇</text>
  <text x="290" y="372" fill="#000000" class="symbol">◇</text>
  <text x="310" y="372" fill="#000000" class="symbol">+</text>
  <text x="330" y="372" fill="#000000" class="symbol">+</text>
  <text x="350" y="372" fill="#000000" class="symbol">+</text>
  <text x="190" y="392" fill="#000000" class="symbol">+</text>
  <text x="210" y="392" fill="#000000" class="symbol">+</text>
  <text x="230" y="392" fill="#000000" class="symbol">+</text>
  <text x="250" y="392" fill="#000000" class="symbol">+</text>
  <text x="270" y="392" fill="#000000" class="symbol">+</text>
  <text x="290" y="392" fill="#000000" class="symbol">+</text>
  <line x1="0" y1="0" x2="0" y2="480" stroke="#1c30d0" stroke-width="2"/>
  <line x1="20" y1="0" x2="20" y2="480" stroke="#1c30d0" stroke-width="1"/>
  <line x1="40" y1="0" x2="40" y2="480" stroke="#1c30d0" stroke-width="1"/>
  <line x1="60" y1="0" x2="60" y2="480" stroke="#1c30d0" stroke-width="1"/>
  <line x1="80" y1="0" x2="80" y2="480" stroke="#1c30d0" stroke-width="1"/>
  <line x1="100" y1="0" x2="100" y2="480" stroke="#1c30d0" stroke-width="1"/>
  <line x1="120" y1="0" x2="120" y2="480" stroke="#1c30d0" stroke-width="1"/>
  <line x1="140" y1="0" x2="140" y2="480" stroke="#1c30d0" stroke-width="1"/>
  <line x1="160" y1="0" x2="160" y2="480" stroke="#1c30d0" stroke-width="1"/>
  <line x1="180" y1="0" x2="180" y2="480" stroke="#1c30d0" stroke-width="1"/>
  <line x1="200" y1="0" x2="200" y2="480" stroke="#1c30d0" stroke-width="1"/>
  <line x1="220" y1="0" x2="220" y2="480" stroke="#1c30d0" stroke-width="1"/>
  <line x1="240" y1="0" x2="240" y2="480" stroke="#1c30d0" stroke-width="1"/>
  <line x1="260" y1="0" x2="260" y2="480" stroke="#1c30d0" stroke-width="1"/>
  <line x1="280" y1="0" x2="280" y2="480" stroke="#1c30d0" stroke-width="1"/>
  <line x1="300" y1="0" x2="300" y2="480" stroke="#1c30d0" stroke-width="1"/>
  <line x1="320" y1="0" x2="320" y2="480" stroke="#1c30d0" stroke-width="1"/>
  <line x1="340" y1="0" x2="340" y2="480" stroke="#1c30d0" stroke-width="1"/>
  <line x1="360" y1="0" x2="360" y2="480" stroke="#1c30d0" stroke-width="1"/>
  <line x1="380" y1="0" x2="380" y2="480" stroke="#1c30d0" stroke-width="1"/>
  <line x1="400" y1="0" x2="400" y2="480" stroke="#1c30d0" stroke-width="1"/>
  <line x1="420" y1="0" x2="420" y2="480" stroke="#1c30d0" stroke-width="1"/>
  <line x1="440" y1="0" x2="440" y2="480" stroke="#1c30d0" stroke-width="1"/>
  <line x1="460" y1="0" x2="460" y2="480" stroke="#1c30d0" stroke-width="1"/>
  <line x1="480" y1="0" x2="480" y2="480" stroke="#1c30d0" stroke-width="2"/>
  <line x1="0" y1="0" x2="480" y2="0" stroke="#1c30d0" stroke-width="2"/>
  <line x1="0" y1="20" x2="480" y2="20" stroke="#1c30d0" stroke-width="1"/>
  <line x1="0" y1="40" x2="480" y2="40" stroke="#1c30d0" stroke-width="1"/>
  <line x1="0" y1="60" x2="480" y2="60" stroke="#1c30d0" stroke-width="1"/>
  <line x1="0" y1="80" x2="480" y2="80" stroke="#1c30d0" stroke-width="1"/>
  <line x1="0" y1="100" x2="480" y2="100" stroke="#1c30d0" stroke-width="1"/>
  <line x1="0" y1="120" x2="480" y2="120" stroke="#1c30d0" stroke-width="1"/>
  <line x1="0" y1="140" x2="480" y2="140" stroke="#1c30d0" stroke-width="1"/>
  <line x1="0" y1="160" x2="480" y2="160" stroke="#1c30d0" stroke-width="1"/>
  <line x1="0" y1="180" x2="480" y2="180" stroke="#1c30d0" stroke-width="1"/>
  <line x1="0" y1="200" x2="480" y2="200" stroke="#1c30d0" stroke-width="1"/>
  <line x1="0" y1="220" x2="480" y2="220" stroke="#1c30d0" stroke-width="1"/>
  <line x1="0" y1="240" x2="480" y2="240" stroke="#1c30d0" stroke-width="1"/>
  <line x1="0" y1="260" x2="480" y2="260" stroke="#1c30d0" stroke-width="1"/>
  <line x1="0" y1="280" x2="480" y2="280" stroke="#1c30d0" stroke-width="1"/>
  <line x1="0" y1="300" x2="480" y2="300" stroke="#1c30d0" stroke-width="1"/>
  <line x1="0" y1="320" x2="480" y2="320" stroke="#1c30d0" stroke-width="1"/>
  <line x1="0" y1="340" x2="480" y2="340" stroke="#1c30d0" stroke-width="1"/>
  <line x1="0" y1="360" x2="480" y2="360" stroke="#1c30d0" stroke-width="1"/>
  <line x1="0" y1="380" x2="480" y2="380" stroke="#1c30d0" stroke-width="1"/>
  <line x1="0" y1="400" x2="480" y2="400" stroke="#1c30d0" stroke-width="1"/>
  <line x1="0" y1="420" x2="480" y2="420" stroke="#1c30d0" stroke-width="1"/>
  <line x1="0" y1="440" x2="480" y2="440" stroke="#1c30d0" stroke-width="1"/>
  <line x1="0" y1="460" x2="480" y2="460" stroke="#1c30d0" stroke-width="1"/>
  <line x1="0" y1="480" x2="480" y2="480" stroke="#1c30d0" stroke-width="2"/>
</svg>